<svg xmlns="http://www.w3.org/2000/svg" viewBox="0 0 46.28 64.7"><title>icon plastic type pet</title><g id="Calque_1" data-name="Calque 1"><path d="M13.45,42.24a62.14,62.14,0,0,1-7.09.39c-1.63,0-4.26,0-4.11-2.28A14.15,14.15,0,0,1,3.17,37c.34-1.06.7-2.12,1.07-3.17C4.89,32,5.6,30.19,6.33,28.4a2.38,2.38,0,0,0,2.41-.26,2.25,2.25,0,0,0,.47-1.71c0-1.15.07-2.3.08-3.45,0-.93-.26-2.4-1.58-1.89a7.53,7.53,0,0,0-2,1.73,13.57,13.57,0,0,0-1.23,1.39,10.1,10.1,0,0,0-1.06,1.4c-.67,1.09-.12,1.67.88,2-.85,2.06-1.66,4.14-2.4,6.25-.5,1.42-1,2.86-1.41,4.31A6.23,6.23,0,0,0,.2,42c.66,2,2.77,2.7,4.68,2.87a43.87,43.87,0,0,0,8.57-.35C14.87,44.32,14.88,42.08,13.45,42.24Z" style="fill:#1d1d1b"/><path d="M36.29,18.52c0-.12,0-.25,0-.38a4.87,4.87,0,0,0,0-.76c0-1-.07-2.08-.16-3.12-.08-.83-.12-1.82-1-2.24a2.23,2.23,0,0,0-2.17.37c-1.25-2-2.51-4-3.8-6C27.62,4.08,25.68,1.08,22.84.2,19.8-.73,18,1.74,16.53,4a86.74,86.74,0,0,0-5.1,9.32c-.62,1.29,1.31,2.43,1.93,1.12,1.22-2.57,2.55-5.09,4-7.54C18.55,4.93,20.2,1,23,2.75,25.3,4.15,26.78,6.83,28.16,9q1.44,2.25,2.86,4.5a5.93,5.93,0,0,0-.62.47,1.92,1.92,0,0,0-.74,1.92c.26.92,1.38,1.38,2.13,1.83s2.57,1.81,3.65,1.63A.62.62,0,0,0,36.1,19a.41.41,0,0,0,0-.09A.56.56,0,0,0,36.29,18.52Z" style="fill:#1d1d1b"/><path d="M44.71,35.1a63.19,63.19,0,0,0-4-8.07,1.12,1.12,0,0,0-1.93,1.13,59.8,59.8,0,0,1,3.29,6.36c.51,1.14,1,2.3,1.4,3.47A10.27,10.27,0,0,1,44,39.5c.14.7,0,.92-.6,1.27a16.87,16.87,0,0,1-6.93,1.53c-2.08.14-4.16.12-6.25.18,0-1.59-.26-3.32-2.2-2.54a16.37,16.37,0,0,0-3.62,2.2c-.6.44-1.75,1.07-1.37,2a.92.92,0,0,0,.15.25.84.84,0,0,0,.53.49A8.47,8.47,0,0,0,26.46,46c.81.31,2.12,1.16,3,.6a2.22,2.22,0,0,0,.69-1.91c2.68-.06,5.36,0,8-.32a23.63,23.63,0,0,0,4.07-.8,7.65,7.65,0,0,0,3.38-1.68C47.25,40.08,45.47,37,44.71,35.1Z" style="fill:#1d1d1b"/><path d="M23.41,26c-.07-8.72-.09-8.9-.1-9v0c-.17-.7-.58-.85-.9-.85l-.16,0-.07,0h-.06c-.09,0-.2.05-1.17,1a13,13,0,0,0-1.25,1.34,1.19,1.19,0,0,0-.24.66.64.64,0,0,0,.69.71c.19,0,.47-.11,1.18-.93.22-.25.37-.42.48-.53,0,.77,0,2.86.08,7.9L22,34.63l.24.28a.7.7,0,0,0,.5.27.53.53,0,0,0,.32-.12,1.06,1.06,0,0,0,.43-.87Z" style="fill:#1d1d1b;stroke:#1d1d1b;stroke-miterlimit:10;stroke-width:0.25px"/><path d="M16.16,49.26a4.76,4.76,0,0,0-2.48-1h-.16a.87.87,0,0,0-.72.75,2.58,2.58,0,0,0,0,.75c0,.87,0,2.07.1,3.56,0,.88.06,2.75.1,5.56,0,4.56.08,4.77.1,4.87a1,1,0,0,0,.23.52.75.75,0,0,0,.52.24,1.1,1.1,0,0,0,.74-.36l.11-.12-.05-2.85V59.75c0-1,0-1.22,0-1.21a2.07,2.07,0,0,1,.53-.41c.36-.24.73-.51,1.11-.82a6.66,6.66,0,0,0,1.39-1.49,4.33,4.33,0,0,0,.61-1.62,3.77,3.77,0,0,0,.06-.78,5.07,5.07,0,0,0-.58-2.35A4.73,4.73,0,0,0,16.16,49.26Zm.57,4.26a3,3,0,0,1-.06.64,3.82,3.82,0,0,1-1.35,2l-.72.54c0-.46-.08-1.3-.15-2.84q0-.6-.06-1.8c0-.81,0-1.31-.06-1.47V50l.14,0a3.54,3.54,0,0,1,2.11,2.24A4,4,0,0,1,16.73,53.52Z" style="fill:#1d1d1b"/><path d="M22.6,50.47c1.39,0,1.69-.11,1.82-.34a.67.67,0,0,0-.08-1C24.2,49,24,49,23.18,49c-.42,0-.79,0-1.11,0h-.36l-.38,0a3.66,3.66,0,0,0-.57,0l-.14.05a.67.67,0,0,0-.27.12,1.2,1.2,0,0,0-.18.2l-.05.09a10.83,10.83,0,0,0-.06,2.12c0,2.09,0,4.64.08,7.57.09,4.51.17,4.68.22,4.8a.77.77,0,0,0,.61.51,10.87,10.87,0,0,0,1.5,0h0l1.68,0,.11-.19a1,1,0,0,0,.21-.73.7.7,0,0,0-.54-.52A8.51,8.51,0,0,0,22.72,63L21.84,63c0-.18-.05-.54-.09-1.24,0-1-.07-1.84-.07-2.63,0-.42,0-.69,0-.86l0-.27c.35,0,.84-.11,1-.44a.68.68,0,0,0,.11-.41c0-.28-.14-.75-1.14-.75h-.06v0c0-.08,0-.6-.07-3.23l0-2.6h.09A9,9,0,0,1,22.6,50.47Z" style="fill:#1d1d1b"/><path d="M33.27,49.63c-.15-.15-.4-.21-.89-.21s-1,0-1.46,0a28.2,28.2,0,0,0-3.92.18.64.64,0,0,0-.52.67.65.65,0,0,0,.38.61,4,4,0,0,0,1.54.14h.83l0,4.32q0,3.15,0,6.43c0,2.38.08,2.47.16,2.58a.74.74,0,0,0,.62.32c.1,0,.42,0,.54-.19s.18-.18.21-7.09c0-4.19,0-5.81,0-6.41H31l1.19-.07a3.2,3.2,0,0,0,.82-.09.83.83,0,0,0,.49-.52A.68.68,0,0,0,33.27,49.63Z" style="fill:#1d1d1b"/></g></svg>