<svg version="1.1" xmlns="http://www.w3.org/2000/svg" viewBox="0 0 169.8622589111328 172.79098510742188" width="339.7245178222656" height="345.58197021484375">
  <rect x="0" y="0" width="169.8622589111328" height="172.79098510742188" fill="#ffffff"></rect><g stroke-linecap="round" transform="translate(10 10) rotate(0 74.9311294555664 76.39549255371094)"><path d="M73.99 -0.58 C84.48 -1.83, 97.02 2.73, 107.09 7.61 C117.16 12.49, 127.69 19.89, 134.42 28.7 C141.15 37.51, 145.23 49.65, 147.47 60.46 C149.7 71.26, 150.13 82.8, 147.85 93.52 C145.57 104.24, 140.77 116.21, 133.79 124.78 C126.81 133.34, 116.14 140.07, 105.98 144.89 C95.82 149.71, 83.61 153.64, 72.83 153.67 C62.05 153.7, 50.87 150.42, 41.3 145.06 C31.73 139.7, 22.16 130.39, 15.41 121.53 C8.67 112.66, 3.11 102.72, 0.8 91.87 C-1.51 81.02, -1.23 67.41, 1.56 56.43 C4.34 45.44, 10.08 34.3, 17.52 25.95 C24.97 17.6, 35.75 10.73, 46.24 6.32 C56.74 1.91, 74.24 0.33, 80.49 -0.49 C86.74 -1.32, 84.07 -0.01, 83.74 1.36 M60.41 0.98 C70.37 -2.35, 83.99 -1.53, 94.74 1.18 C105.5 3.89, 116.62 9.6, 124.92 17.25 C133.22 24.9, 140.23 36.74, 144.55 47.08 C148.86 57.42, 151.66 68.44, 150.82 79.27 C149.99 90.11, 145.09 102.03, 139.52 112.09 C133.95 122.15, 126.15 132.82, 117.41 139.65 C108.67 146.47, 97.94 151.28, 87.08 153.04 C76.21 154.8, 62.48 153.51, 52.22 150.22 C41.97 146.94, 33.16 140.8, 25.57 133.33 C17.97 125.87, 11.1 116.06, 6.67 105.44 C2.23 94.83, -1.46 81.09, -1.06 69.65 C-0.66 58.2, 3.56 46.42, 9.05 36.77 C14.55 27.13, 23.57 17.58, 31.92 11.78 C40.26 5.98, 54.37 3.54, 59.13 1.97 C63.89 0.41, 59.87 1.23, 60.47 2.38" stroke="#000000" stroke-width="1" fill="none"></path></g><g transform="translate(55.77153015136719 71.45162963867188) rotate(0 0.0000152587890625 0)" stroke="none" fill="#000000"><path d="M 0.00,-2.22 Q 0.00,-2.22 0.35,-2.16 0.70,-2.10 1.02,-1.93 1.34,-1.76 1.59,-1.50 1.83,-1.24 1.98,-0.92 2.13,-0.59 2.17,-0.23 2.21,0.12 2.14,0.47 2.06,0.82 1.87,1.12 1.69,1.43 1.41,1.67 1.14,1.90 0.81,2.03 0.47,2.16 0.11,2.18 -0.24,2.20 -0.58,2.11 -0.93,2.01 -1.22,1.81 -1.52,1.61 -1.74,1.32 -1.96,1.03 -2.07,0.69 -2.19,0.35 -2.19,-0.00 -2.19,-0.35 -2.07,-0.70 -1.96,-1.04 -1.74,-1.32 -1.52,-1.61 -1.22,-1.81 -0.93,-2.01 -0.58,-2.11 -0.23,-2.20 0.11,-2.18 0.47,-2.16 0.81,-2.03 1.14,-1.90 1.41,-1.66 1.69,-1.43 1.87,-1.12 2.06,-0.82 2.14,-0.47 2.21,-0.11 2.17,0.23 2.13,0.59 1.98,0.92 1.83,1.24 1.59,1.50 1.34,1.76 1.02,1.93 0.70,2.10 0.35,2.16 -0.00,2.22 -0.00,2.22 0.00,2.22 -0.26,2.18 -0.53,2.15 -0.78,2.06 -1.03,1.96 -1.25,1.81 -1.47,1.66 -1.65,1.46 -1.82,1.26 -1.95,1.02 -2.07,0.78 -2.14,0.52 -2.20,0.26 -2.20,-0.00 -2.20,-0.26 -2.14,-0.52 -2.07,-0.78 -1.95,-1.02 -1.82,-1.26 -1.64,-1.46 -1.47,-1.66 -1.25,-1.81 -1.03,-1.96 -0.78,-2.06 -0.53,-2.15 -0.26,-2.18 0.00,-2.22 0.00,-2.22 L 0.00,-2.22 Z"></path></g><g transform="translate(136.4912567138672 72.83770751953125) rotate(0 0.0000152587890625 0)" stroke="none" fill="#000000"><path d="M 0.00,-2.22 Q 0.00,-2.22 0.35,-2.16 0.70,-2.10 1.02,-1.93 1.34,-1.76 1.59,-1.50 1.83,-1.24 1.98,-0.92 2.13,-0.59 2.17,-0.23 2.21,0.12 2.14,0.47 2.06,0.82 1.87,1.12 1.69,1.43 1.41,1.67 1.14,1.90 0.81,2.03 0.47,2.16 0.11,2.18 -0.24,2.20 -0.58,2.11 -0.93,2.01 -1.22,1.81 -1.52,1.61 -1.74,1.32 -1.96,1.03 -2.07,0.69 -2.19,0.35 -2.19,-0.00 -2.19,-0.35 -2.07,-0.70 -1.96,-1.04 -1.74,-1.32 -1.52,-1.61 -1.22,-1.81 -0.93,-2.01 -0.58,-2.11 -0.23,-2.20 0.11,-2.18 0.47,-2.16 0.81,-2.03 1.14,-1.90 1.41,-1.66 1.69,-1.43 1.87,-1.12 2.06,-0.82 2.14,-0.47 2.21,-0.11 2.17,0.23 2.13,0.59 1.98,0.92 1.83,1.24 1.59,1.50 1.34,1.76 1.02,1.93 0.70,2.10 0.35,2.16 -0.00,2.22 -0.00,2.22 0.00,2.22 -0.26,2.18 -0.53,2.15 -0.78,2.06 -1.03,1.96 -1.25,1.81 -1.47,1.66 -1.65,1.46 -1.82,1.26 -1.95,1.02 -2.07,0.78 -2.14,0.52 -2.20,0.26 -2.20,-0.00 -2.20,-0.26 -2.14,-0.52 -2.07,-0.78 -1.95,-1.02 -1.82,-1.26 -1.64,-1.46 -1.47,-1.66 -1.25,-1.81 -1.03,-1.96 -0.78,-2.06 -0.53,-2.15 -0.26,-2.18 0.00,-2.22 0.00,-2.22 L 0.00,-2.22 Z"></path></g><g transform="translate(55.92082214355469 70.42578125) rotate(0 0.019256591796875 0.1026458740234375)" stroke="none" fill="#000000"><path d="M 0,-2.42 Q 0,-2.42 0.45,-2.47 0.91,-2.52 1.50,-2.58 2.09,-2.64 2.41,-2.60 2.72,-2.56 3.02,-2.45 3.32,-2.34 3.58,-2.16 3.85,-1.98 4.06,-1.74 4.27,-1.50 4.42,-1.22 4.57,-0.93 4.64,-0.62 4.72,-0.31 4.72,0.00 4.72,0.31 4.64,0.62 4.57,0.93 4.42,1.22 4.27,1.50 4.06,1.74 3.85,1.98 3.58,2.16 3.32,2.34 3.02,2.45 2.72,2.56 2.41,2.60 2.09,2.64 1.16,3.77 0.23,4.91 -1.26,4.85 -2.76,4.79 -3.87,3.58 -4.99,2.38 -5.00,0.82 -5.01,-0.73 -3.87,-1.93 -2.73,-3.14 -1.98,-4.21 -1.23,-5.27 -0.80,-4.33 -0.36,-3.38 0.18,-3.35 0.73,-3.32 1.24,-3.12 1.76,-2.91 2.18,-2.56 2.60,-2.20 2.88,-1.72 3.16,-1.25 3.28,-0.71 3.40,-0.17 3.34,0.36 3.28,0.91 3.05,1.41 2.81,1.91 2.43,2.31 2.05,2.71 1.57,2.97 1.08,3.23 0.53,3.31 -0.00,3.40 -0.54,3.31 -1.09,3.22 -1.57,2.96 -2.06,2.71 -2.44,2.30 -2.82,1.90 -3.05,1.40 -3.28,0.90 -3.34,0.35 -3.40,-0.18 -3.28,-0.72 -3.16,-1.26 -2.87,-1.73 -2.59,-2.21 -2.17,-2.56 -1.75,-2.92 -1.24,-3.12 -0.72,-3.32 -0.17,-3.35 0.37,-3.38 0.90,-3.23 1.43,-3.09 1.89,-2.78 2.34,-2.47 2.68,-2.03 3.01,-1.59 3.18,-1.06 3.36,-0.54 3.36,0.00 3.36,0.55 3.18,1.07 3.00,1.60 2.67,2.03 2.33,2.47 1.88,2.78 1.42,3.09 0.89,3.24 0.36,3.38 0.36,3.38 0.36,3.38 0.75,2.11 1.14,0.84 1.80,-0.27 2.46,-1.39 2.14,-0.33 1.82,0.71 0.78,1.64 -0.25,2.56 -0.16,0.94 -0.07,-0.67 -1.31,-0.39 -2.55,-0.12 -1.20,-0.92 0.14,-1.72 1.12,-2.18 2.09,-2.64 2.41,-2.60 2.72,-2.56 3.02,-2.45 3.32,-2.34 3.58,-2.16 3.85,-1.98 4.06,-1.74 4.27,-1.50 4.42,-1.22 4.57,-0.93 4.64,-0.62 4.72,-0.31 4.72,-0.00 4.72,0.31 4.64,0.62 4.57,0.93 4.42,1.22 4.27,1.50 4.06,1.74 3.85,1.98 3.58,2.16 3.32,2.34 3.02,2.45 2.72,2.56 2.41,2.60 2.09,2.64 1.50,2.58 0.91,2.52 0.45,2.47 0,2.42 -0.29,2.39 -0.58,2.35 -0.85,2.25 -1.12,2.15 -1.37,1.98 -1.61,1.81 -1.80,1.59 -1.99,1.38 -2.13,1.12 -2.27,0.86 -2.34,0.57 -2.41,0.29 -2.41,-0.00 -2.41,-0.29 -2.34,-0.57 -2.27,-0.86 -2.13,-1.12 -1.99,-1.38 -1.80,-1.59 -1.61,-1.81 -1.36,-1.98 -1.12,-2.15 -0.85,-2.25 -0.58,-2.35 -0.29,-2.39 0.00,-2.42 0.00,-2.42 L 0,-2.42 Z"></path></g><g transform="translate(136.4842987060547 72.24557495117188) rotate(0 -2.0684661865234375 -0.1026153564453125)" stroke="none" fill="#000000"><path d="M 0,2.42 Q 0,2.42 -0.75,2.47 -1.50,2.53 -1.99,2.58 -2.48,2.62 -2.79,2.59 -3.10,2.55 -3.40,2.44 -3.70,2.32 -3.96,2.14 -4.22,1.96 -4.43,1.73 -4.64,1.49 -4.79,1.21 -4.93,0.93 -5.01,0.62 -5.09,0.31 -5.09,-0.00 -5.09,-0.31 -5.01,-0.62 -4.93,-0.93 -4.79,-1.21 -4.64,-1.49 -4.43,-1.73 -4.22,-1.96 -3.96,-2.14 -3.70,-2.32 -3.40,-2.44 -3.10,-2.55 -2.79,-2.59 -2.47,-2.62 -3.50,-1.73 -4.53,-0.84 -3.89,-1.74 -3.24,-2.64 -2.19,-2.96 -1.14,-3.27 0.23,-2.56 1.60,-1.86 1.71,-0.24 1.82,1.37 0.75,2.47 -0.32,3.56 -1.75,3.42 -3.18,3.27 -4.33,2.22 -5.49,1.17 -5.60,0.09 -5.72,-0.98 -5.01,-2.49 -4.30,-3.99 -3.13,-4.59 -1.96,-5.19 -0.15,-4.48 1.64,-3.78 2.02,-2.73 2.40,-1.69 2.14,-0.49 1.89,0.70 1.26,2.01 0.63,3.31 -0.28,4.06 -1.19,4.80 -2.65,4.65 -4.11,4.49 -5.30,3.70 -6.48,2.92 -6.94,2.16 -7.39,1.40 -7.47,0.98 -7.55,0.55 -7.52,0.13 -7.50,-0.29 -7.37,-0.70 -7.24,-1.11 -7.02,-1.48 -6.80,-1.84 -6.49,-2.15 -6.19,-2.45 -5.82,-2.67 -5.46,-2.89 -5.05,-3.02 -4.64,-3.15 -4.21,-3.18 -3.78,-3.20 -3.36,-3.12 -2.94,-3.05 -2.55,-2.87 -2.16,-2.70 -1.82,-2.43 -1.48,-2.17 -1.22,-1.83 -0.95,-1.49 -0.78,-1.10 -0.60,-0.71 -0.43,-1.91 -0.26,-3.11 0.23,-3.07 0.74,-3.03 1.20,-2.83 1.67,-2.64 2.05,-2.30 2.42,-1.96 2.67,-1.52 2.92,-1.09 3.02,-0.59 3.12,-0.09 3.05,0.40 2.99,0.90 2.76,1.35 2.54,1.81 2.19,2.17 1.83,2.53 1.38,2.75 0.93,2.98 0.42,3.05 -0.07,3.12 -0.56,3.03 -1.06,2.93 -1.50,2.69 -1.94,2.44 -2.28,2.06 -2.62,1.69 -2.82,1.23 -3.03,0.76 -3.07,0.26 -3.11,-0.24 -2.99,-0.73 -2.87,-1.22 -2.60,-1.65 -2.33,-2.07 -1.94,-2.39 -1.54,-2.71 -1.07,-2.89 -0.60,-3.06 -0.09,-3.08 0.40,-3.09 0.89,-2.95 1.37,-2.80 1.78,-2.51 2.20,-2.21 2.49,-1.80 2.79,-1.40 2.94,-0.91 3.09,-0.43 3.08,0.07 3.07,0.57 2.90,1.05 2.72,1.52 2.41,1.92 2.09,2.31 1.67,2.59 1.24,2.86 0.75,2.99 0.26,3.11 0.26,3.11 0.26,3.11 -3.56,2.25 -7.39,1.40 -7.47,0.98 -7.55,0.55 -7.52,0.13 -7.50,-0.29 -7.37,-0.70 -7.24,-1.11 -7.02,-1.48 -6.80,-1.84 -6.49,-2.15 -6.19,-2.45 -5.82,-2.67 -5.46,-2.89 -5.05,-3.02 -4.64,-3.15 -4.21,-3.18 -3.78,-3.20 -3.36,-3.12 -2.94,-3.05 -2.55,-2.87 -2.16,-2.70 -1.82,-2.43 -1.48,-2.17 -1.22,-1.83 -0.95,-1.49 -0.78,-1.10 -0.60,-0.71 -1.20,-0.87 -1.80,-1.03 -3.35,-0.68 -4.90,-0.32 -4.44,-1.43 -3.97,-2.54 -3.79,-1.20 -3.61,0.13 -2.15,0.59 -0.69,1.05 -0.26,-0.08 0.16,-1.22 -1.18,-1.44 -2.52,-1.67 -2.79,-0.25 -3.06,1.16 -1.68,1.00 -0.30,0.84 -1.39,1.73 -2.47,2.62 -2.79,2.59 -3.10,2.55 -3.40,2.44 -3.70,2.32 -3.96,2.14 -4.22,1.96 -4.43,1.73 -4.64,1.49 -4.79,1.21 -4.93,0.93 -5.01,0.62 -5.09,0.31 -5.09,0.00 -5.09,-0.31 -5.01,-0.62 -4.93,-0.93 -4.79,-1.21 -4.64,-1.49 -4.43,-1.73 -4.22,-1.96 -3.96,-2.14 -3.70,-2.32 -3.40,-2.44 -3.10,-2.55 -2.79,-2.59 -2.48,-2.62 -1.99,-2.58 -1.50,-2.53 -0.75,-2.47 0,-2.42 0.29,-2.38 0.58,-2.35 0.85,-2.25 1.12,-2.14 1.36,-1.98 1.60,-1.81 1.80,-1.59 1.99,-1.37 2.13,-1.11 2.26,-0.85 2.33,-0.57 2.40,-0.29 2.40,0.00 2.40,0.29 2.33,0.57 2.26,0.85 2.13,1.11 1.99,1.37 1.80,1.59 1.60,1.81 1.36,1.98 1.12,2.14 0.85,2.25 0.57,2.35 0.28,2.38 -0.00,2.42 -0.00,2.42 L 0,2.42 Z"></path></g><g stroke-linecap="round"><g transform="translate(45.13029479980469 59.87109375) rotate(0 4.868450467931112 -1.5681339548760889)"><path d="M-0.05 1.08 C1.35 0.78, 7.46 -2, 8.94 -2.63 M-1.54 0.61 C0.21 0.06, 9.13 -3.36, 11.27 -4.22" stroke="#000000" stroke-width="1" fill="none"></path></g></g><g stroke-linecap="round"><g transform="translate(131.8494873046875 62.179473876953125) rotate(27.367462972538934 5.122669213660998 -1.3557533308863583)"><path d="M-0.82 0.96 C0.77 0.18, 7.11 -2.76, 8.8 -3.67 M0.95 0.41 C2.98 0.36, 9.82 -1.47, 11.07 -2.14" stroke="#000000" stroke-width="1" fill="none"></path></g></g><g transform="translate(85.15458679199219 94.84695434570312) rotate(27.34090889543556 11.697395324707031 -5.0903778076171875)" stroke="none" fill="#000000"><path d="M 0.80,-1.85 Q 0.80,-1.85 2.18,-1.29 3.56,-0.73 4.94,-0.31 6.32,0.10 7.52,0.22 8.72,0.35 10.35,0.34 11.98,0.34 13.76,-0.03 15.54,-0.41 17.14,-1.41 18.74,-2.41 19.55,-4.38 20.36,-6.35 20.59,-7.77 20.82,-9.19 20.37,-10.51 19.92,-11.83 19.76,-12.07 19.61,-12.32 19.54,-12.61 19.48,-12.89 19.50,-13.19 19.53,-13.48 19.65,-13.75 19.77,-14.01 19.97,-14.23 20.16,-14.44 20.42,-14.59 20.68,-14.73 20.97,-14.78 21.25,-14.83 21.54,-14.79 21.83,-14.74 22.10,-14.61 22.36,-14.48 22.56,-14.27 22.77,-14.06 22.89,-13.79 23.02,-13.53 23.06,-13.24 23.09,-12.95 23.03,-12.66 22.98,-12.37 22.83,-12.12 22.68,-11.87 22.46,-11.67 22.24,-11.48 21.97,-11.37 21.70,-11.26 21.41,-11.24 21.11,-11.22 20.83,-11.29 20.55,-11.36 20.30,-11.53 20.06,-11.69 19.88,-11.92 19.69,-12.15 19.60,-12.42 19.50,-12.70 19.50,-12.99 19.49,-13.29 19.58,-13.56 19.67,-13.84 19.84,-14.08 20.02,-14.32 20.26,-14.48 20.50,-14.65 20.78,-14.73 21.06,-14.82 21.35,-14.81 21.65,-14.79 21.92,-14.69 22.19,-14.59 22.42,-14.40 22.65,-14.21 22.65,-14.21 22.64,-14.21 23.46,-11.37 24.27,-8.52 23.83,-6.77 23.39,-5.02 22.15,-2.36 20.91,0.30 18.73,1.81 16.56,3.32 14.33,3.95 12.09,4.59 10.09,4.66 8.09,4.73 6.55,4.45 5.02,4.17 3.45,3.64 1.89,3.11 0.54,2.48 -0.80,1.85 -1.02,1.73 -1.23,1.61 -1.40,1.44 -1.58,1.26 -1.70,1.06 -1.83,0.85 -1.91,0.62 -1.99,0.38 -2.00,0.14 -2.02,-0.09 -1.98,-0.33 -1.94,-0.57 -1.84,-0.80 -1.74,-1.02 -1.59,-1.22 -1.45,-1.41 -1.26,-1.56 -1.07,-1.72 -0.84,-1.82 -0.62,-1.92 -0.38,-1.97 -0.14,-2.02 0.09,-2.01 0.34,-1.99 0.57,-1.92 0.80,-1.85 0.80,-1.85 L 0.80,-1.85 Z"></path></g></svg>