<?xml version="1.0" encoding="utf-8"?>
<svg xmlns="http://www.w3.org/2000/svg" viewBox="0 0 680.14 687.51"><title>logo PP small yellow border</title><g id="Calque_1" data-name="Calque 1"><path d="M678.06,318.82c-.3-3.21-.49-6.52-.68-9.72a161.1,161.1,0,0,0-1.61-17.24c-2.48-14.88-6.64-30.55-13.09-49.32-4.72-13.72-9-26.08-13.67-38.4-1.13-3-2.2-6.07-3.23-9.08-3.07-8.9-6.25-18.12-11.52-25.93-4.5-6.65-8.73-13.67-12.83-20.47-7.33-12.14-14.92-24.7-24.37-35.94-9.15-10.88-16.77-17.91-25.49-23.5a75.61,75.61,0,0,1-17.26-14.55,129.69,129.69,0,0,0-42.84-33.15c-18-8.64-37.24-17.6-57.36-23.92-2.26-.71-4.55-1.49-6.78-2.24C441,13.22,434.52,11,427.58,9.92c-8.59-1.35-18.7-3-28.55-5.31A187.49,187.49,0,0,0,363.9.1a229.57,229.57,0,0,0-25.26.84c-4.49.32-9.13.65-13.68.81C317.59,2,310.4,2.4,303.51,4c-11.26,2.63-22.84,4.69-34,6.69l-3,.54c-2.43.43-4.93.83-7.34,1.21a156,156,0,0,0-17.54,3.45c-6,1.65-11.82,3.85-17.46,6-3.58,1.35-7.29,2.76-11,4-15,5-30.56,12.1-49.11,22.41a350,350,0,0,0-59.64,41.79C96.84,96.68,89.69,105,82.58,115.36c-4.26,6.21-8.29,12.69-12.19,19-3.22,5.16-6.55,10.5-10,15.63a355.77,355.77,0,0,0-31.57,59.34L27,213.75c-4.59,10.89-9.33,22.16-13.28,33.55C8.06,263.56,5.58,280,3.14,298.18c-1,7.8-1.34,15.65-1.62,23.24-.21,5.54-.43,11.27-.94,16.86C-.61,351.39,0,365.69,2.51,382c.37,2.4.71,4.81,1.05,7.22,1.2,8.45,2.44,17.19,4.76,25.66A397.08,397.08,0,0,0,32.61,481c11.61,24.32,26,47.18,38.55,66.7a341.35,341.35,0,0,0,27,36.56A116.13,116.13,0,0,0,129,609.68c5,2.88,10,5.94,14.82,8.9,5.33,3.27,10.86,6.65,16.4,9.83,4.59,2.63,9.19,5.44,13.65,8.17,12,7.33,24.35,14.91,38.16,19.82,4.59,1.64,9.2,3.59,13.67,5.48,8.44,3.57,17.18,7.27,26.53,9.18,3.77.78,7.6,1.37,11.31,1.94,2.2.35,4.4.69,6.6,1.06a106.8,106.8,0,0,0,11.55,1.16c3.62.24,7.36.48,10.94,1.08,9.85,1.67,19.88,2,29.58,2.28,5.67.18,11.53.36,17.25.81,3.76.3,7.58.45,11.5.45a203,203,0,0,0,35.27-3.42c4.55-.8,9.27-1.32,13.82-1.84,7.23-.81,14.71-1.65,22-3.59,4.6-1.23,9.16-2.75,13.57-4.21,3.13-1,6.37-2.12,9.56-3.07a243.74,243.74,0,0,0,45-18.18c8.82-4.7,17.5-9.91,25.89-14.95,9.73-5.84,19.79-11.88,30-17.1,4.86-2.47,10.43-5.64,15-10.4,12.17-12.69,26.45-27.86,40-44.17,10.42-12.52,21.27-26.06,29.45-41.6,2.29-4.35,4.39-8.86,6.42-13.23a200.25,200.25,0,0,1,9.41-18.54c11.63-19.45,25.3-62.62,25.3-62.76,2.69-8.3,4.41-17.48,5.43-28.86.33-3.78.79-7.62,1.24-11.33a179.35,179.35,0,0,0,1.78-24.06C679.91,344.4,679.24,331.41,678.06,318.82Zm-123,48.24c-.29,2.43-.59,4.94-.82,7.44a80.18,80.18,0,0,1-3.36,17.92c-.2.63-8.72,27.57-16,39.74a135.82,135.82,0,0,0-6.26,12.32c-1.3,2.78-2.64,5.66-4.07,8.39-5.12,9.74-12,18.31-18.61,26.25-8.7,10.46-17.87,20.21-25.7,28.37a32,32,0,0,1-8.7,6c-6.74,3.43-13.3,7.37-19.64,11.18-5.39,3.23-11,6.58-16.58,9.57A154,154,0,0,1,407,545.7c-2.12.63-4.24,1.33-6.29,2-2.8.93-5.69,1.89-8.55,2.65a93.31,93.31,0,0,1-13.68,2.23c-3,.33-6.11.68-9.16,1.22-11.24,2-20.56,2.57-29.31,1.88-3.78-.3-7.62-.42-11.33-.54A138.69,138.69,0,0,1,310,553.74a71.47,71.47,0,0,0-7.45-.75,63.82,63.82,0,0,1-7.08-.7c-1.44-.25-2.88-.47-4.33-.69-2.35-.37-4.79-.75-7.13-1.23-5.69-1.16-11.17-3.48-16.46-5.72-2.93-1.24-6-2.52-9-3.62-8.56-3-16.4-7.84-24-12.49-2.9-1.77-5.9-3.61-8.92-5.33-3.54-2-7.08-4.2-10.51-6.3-3.14-1.92-6.4-3.91-9.65-5.8a71.36,71.36,0,0,1-19-15.64,217.32,217.32,0,0,1-17.14-23.24C161.26,459.7,152,445,144.63,429.51a252.33,252.33,0,0,1-15.47-42.11,130.74,130.74,0,0,1-3-16.13c-.22-1.57-.44-3.14-.68-4.71a112.87,112.87,0,0,1-1.22-27.36c.34-3.72.48-7.47.62-11.1.18-4.82.37-9.81,1-14.67,1.55-11.58,3.12-22,6.65-32.17,2.51-7.25,5.56-14.48,8.5-21.47l1.22-2.88a226.15,226.15,0,0,1,20.08-37.75c2.23-3.36,4.4-6.84,6.49-10.2,2.5-4,5.09-8.17,7.8-12.12a81.1,81.1,0,0,1,13.49-15.65,223,223,0,0,1,37.93-26.57c11.79-6.55,21.68-11.07,31.12-14.22,2.44-.81,4.88-1.74,7.23-2.63,3.57-1.35,7.25-2.74,11-3.76a98.15,98.15,0,0,1,10.93-2.15c1.58-.25,3.22-.5,4.83-.79l1.93-.35c7.29-1.3,14.83-2.64,22.2-4.36A70.42,70.42,0,0,1,330.43,125c3-.11,6-.32,9-.53,4.21-.3,8.52-.6,12.81-.6q1.56,0,3.12.06a117.1,117.1,0,0,1,22,2.83c6.48,1.48,13.09,2.59,18.71,3.48a73.85,73.85,0,0,1,12.16,3.36c1.46.5,3,1,4.47,1.48,12.77,4,25.07,9.74,36.58,15.27a80.07,80.07,0,0,1,26.49,20.49,52.2,52.2,0,0,0,12,10.13c5.3,3.4,10,7.72,15.64,14.46,5.93,7,10.75,15,15.42,22.77,2.67,4.42,5.44,9,8.39,13.38,3.14,4.65,5.11,10.37,7,15.9.68,2,1.38,4,2.12,6,3,7.92,5.77,15.89,8.81,24.72a193.89,193.89,0,0,1,8.31,31.29,104.23,104.23,0,0,1,1,10.75c.12,2.1.24,4.27.44,6.41.75,8.05,1.19,16.35,1.32,25.39A110.4,110.4,0,0,1,555.1,367.06Z" style="fill:#fee77b"/><path d="M608.27,315.33A124.92,124.92,0,0,0,607,301.92c-2-11.74-5.26-24.14-10.39-39-3.8-11-7.26-21-11-30.84-.94-2.45-1.81-5-2.66-7.45-2.39-6.9-4.85-14-8.78-19.84-3.69-5.46-7.16-11.17-10.5-16.69-5.83-9.65-11.87-19.62-19.29-28.41-7.08-8.4-12.93-13.79-19.57-18a65.17,65.17,0,0,1-15-12.63,100.44,100.44,0,0,0-33.13-25.57c-14.4-6.89-29.8-14-45.77-19-1.88-.58-3.77-1.22-5.59-1.84a92.5,92.5,0,0,0-15.21-4.19c-7-1.11-15.3-2.49-23.41-4.34a147.13,147.13,0,0,0-27.56-3.54c-1.3,0-2.6-.07-3.91-.07-5.35,0-10.76.38-16,.75-3.67.26-7.47.52-11.23.66a87.82,87.82,0,0,0-16.46,1.7c-9.23,2.14-18.66,3.82-27.77,5.44l-2.42.43c-2,.36-4.06.68-6,1A121.29,121.29,0,0,0,261.65,83c-4.64,1.27-9.25,3-13.71,4.7C245,88.85,242,90,238.89,91c-11.81,3.92-24.18,9.56-38.93,17.73a278.81,278.81,0,0,0-47.45,33.15,101.75,101.75,0,0,0-16.88,19.52c-3.39,4.93-6.62,10.11-9.75,15.12-2.62,4.2-5.33,8.54-8.13,12.73a282.41,282.41,0,0,0-25.12,47.09L91.11,240c-3.68,8.72-7.49,17.74-10.63,26.77-4.42,12.71-6.39,25.7-8.33,40.14-.81,6.07-1.05,12.29-1.27,18.3-.17,4.53-.35,9.22-.77,13.85-.93,10.19-.44,21.36,1.52,34.14.3,1.95.58,3.91.86,5.87a162.56,162.56,0,0,0,3.73,20.12,314,314,0,0,0,19.36,52.54c9.27,19.37,20.8,37.66,30.88,53.28a271.27,271.27,0,0,0,21.44,29,89.36,89.36,0,0,0,23.81,19.51c4.07,2.36,8.14,4.84,12.08,7.24,4.28,2.62,8.72,5.33,13.14,7.86,3.78,2.15,7.53,4.44,11.16,6.65,9.48,5.8,19.29,11.78,30,15.58,3.84,1.37,7.64,3,11.31,4.52,6.62,2.79,13.47,5.68,20.58,7.13,2.94.6,6,1.07,8.93,1.53,1.81.28,3.61.56,5.41.87a86,86,0,0,0,8.86.88,88.78,88.78,0,0,1,9.32.92c7.66,1.29,15.61,1.54,23.3,1.78,4.64.14,9.44.29,14.17.67,10.95.86,22.6.12,36.67-2.35,3.82-.67,7.7-1.1,11.46-1.52a119.22,119.22,0,0,0,17.1-2.77c3.59-1,7.2-2.16,10.71-3.32,2.56-.85,5.22-1.73,7.87-2.52a193,193,0,0,0,35.51-14.32c7-3.73,14-7.9,20.74-11.93,7.93-4.76,16.14-9.67,24.57-14A39.78,39.78,0,0,0,515.48,549c9.8-10.18,21.27-22.34,32.16-35.38,8.26-9.91,16.87-20.61,23.27-32.75,1.8-3.41,3.47-7,5.09-10.47A171.06,171.06,0,0,1,583.84,455c9.1-15.18,19.75-48.78,20-49.58a99.54,99.54,0,0,0,4.21-22.35c.28-3.12.65-6.25,1-9.28A140,140,0,0,0,610.48,355c-.17-11.27-.72-21.63-1.66-31.67C608.57,320.66,608.42,318,608.27,315.33Z" style="fill:#b8d9e5"/><path d="M305.09,397.94c-34.9-15.88-47.17-25.58-58-10.33-.84,1.18,1.3,11.35,1.3,11.35s70.8,29.35,106.63,37.42c28.15,6.34,91.3.83,91.3.83l52.93-.16s25.2-5.17,36.26-14.07c6.11-4.92,20.6-.06,26.12-19.27,2.4-8.33-124.08-33.36-143.09-30.78s-67.24-5.84-75.47-5.82-38.93,5.59-39.6,12.49S307.9,399.22,305.09,397.94Z" style="fill:#aeadad"/><path d="M323,368.83c-5.4,2.48-87.86,3.2-98.18,2.75s-.84,13.24,4.25,14.15c3.09.56,133.4-4,155.27-3.06,22.11.95,66.65,7.61,80.43,7.09,18.38-.69,42,20,57.58,18.08,12-1.49,40.89-3.68,44.3-11.87,2.76-6.65,5.29-50.29,4.39-66.46s-25.69-44.34-28.93-61.65c-5.21-27.89-17.58-25.58-32.78-25.49-10.1,0-43.46-5.07-48.21-5.38s-23.92-2.86-26.77-1.71S417,223.5,404.94,217.42c-19.63-9.92-48.92-21-62.83-15.07-12.27,5.2-48.15,15.8-57.66,14.88s-20.58,1-35.19.11-59.58.18-59.58.18c-4.27.1,2.71,16.69,3.19,19.9s41.25,3.18,65,2S327,254.87,333.7,257.66c-8.5,18.54-1.95,25.21-2.2,43.29s-2.61,17.65-3.17,23.25c-.59,6,7.32,10,7.33,13.79S328.36,366.36,323,368.83Z" style="fill:#fff"/><path d="M295.13,248.42s3.49,13.87,4.81,20.21-.72,20.82-2.27,33.54-1,17.09-.05,19.63,1.95,18.83,2,22.95,5.3,9.65,6.06,18.53,8.5,5.28,13.5,5,9.15-6,13.85-19.92-2.19-15.95-5-20.84c-1.83-3.21-2.71-3.13,1.06-13.33s0-15.35-.63-23.27,3.31-33.44,3.31-33.44Z" style="fill:#aeadad"/><path d="M622.78,322c-.22-2.44-.37-5-.51-7.49a137.37,137.37,0,0,0-1.43-14.93c-2.08-12.5-5.57-25.62-11-41.28-3.85-11.15-7.34-21.2-11.16-31.25-.82-2.15-1.63-4.47-2.4-6.71l-.12-.35c-2.56-7.4-5.46-15.78-10.41-23.1-3.54-5.23-6.89-10.76-10.12-16.1-6.11-10.1-12.43-20.54-20.57-30.19s-14.83-15.76-22.73-20.81a52,52,0,0,1-11.88-9.92,114.23,114.23,0,0,0-37.74-29.12C467.9,83.66,452,76.28,435.12,71c-1.64-.51-3.34-1.08-5-1.64l-.31-.1-.06,0a104.29,104.29,0,0,0-17.46-4.75c-6.76-1.06-14.73-2.39-22.46-4.15a160.82,160.82,0,0,0-30.14-3.88c-1.4-.05-2.86-.08-4.45-.08-5.89,0-11.79.42-17,.78-3.54.25-7.2.51-10.75.64a98.83,98.83,0,0,0-19.13,2.05c-8.88,2.06-18.11,3.71-27.05,5.3l-2.42.43c-1.9.34-3.86.64-5.76.94a135.36,135.36,0,0,0-15.21,3c-5.23,1.43-10.12,3.28-14.84,5.06l-.1,0c-2.82,1.06-5.73,2.16-8.53,3.09-12.65,4.21-25.78,10.18-41.3,18.78a291.89,291.89,0,0,0-49.84,34.82,115.24,115.24,0,0,0-19.26,22.18C120.52,158.66,117.2,164,114,169.1l-.11.17c-2.54,4.06-5.16,8.25-7.81,12.23A296.67,296.67,0,0,0,79.7,230.93l-1.51,3.58c-3.76,8.91-7.65,18.12-11,27.61-4.85,13.95-6.93,27.68-9,42.89-.91,6.74-1.16,13.29-1.4,19.64-.16,4.33-.33,8.81-.72,13.09-1,11.34-.5,23.62,1.63,37.54.27,1.76.52,3.52.77,5.28l.07.45a176.64,176.64,0,0,0,4.08,21.85,328.84,328.84,0,0,0,20.24,54.88c9.64,20.13,21.44,38.86,31.75,54.84a284.82,284.82,0,0,0,22.55,30.48,103.12,103.12,0,0,0,27.47,22.57c4,2.32,8.14,4.84,11.77,7.06l.21.13c4.31,2.63,8.77,5.35,13.31,7.94,3.59,2,7.25,4.28,10.79,6.44,9.62,5.87,20.52,12.53,32.62,16.83,3.44,1.22,7,2.74,10.53,4.21,6.94,2.93,14.77,6.24,23.26,8,3.24.67,6.44,1.16,9.53,1.64h.06c1.7.26,3.46.53,5.18.83a95.27,95.27,0,0,0,10.21,1h.1a77.74,77.74,0,0,1,7.89.76c8.62,1.45,17,1.71,25.21,2,4.44.14,9,.28,13.49.63,3.29.26,6.66.39,10,.39a174.26,174.26,0,0,0,30.15-2.89c3.44-.61,7.08-1,10.61-1.41A130.21,130.21,0,0,0,408.8,616c4-1.06,7.77-2.32,11.43-3.53l.09,0c2.33-.77,5-1.64,7.45-2.39a206.49,206.49,0,0,0,38.1-15.37c7.25-3.86,14.3-8.07,21.11-12.14l.24-.15c7.71-4.62,15.67-9.39,23.73-13.48a53.43,53.43,0,0,0,14.64-10.25c10-10.37,21.68-22.77,32.81-36.12,8.75-10.48,17.87-21.83,24.91-35.19,2-3.71,3.71-7.46,5.4-11.07a155,155,0,0,1,7.16-14.1c9-14.93,18.54-43.83,21.27-52.33l0-.12A113.82,113.82,0,0,0,622,384.3c.26-2.94.62-5.94,1-8.84a150,150,0,0,0,1.51-20.67C624.32,343.15,623.76,332.43,622.78,322ZM290.27,605.52l0-.12,0,.12Zm318.8-231.74c-.37,3-.74,6.16-1,9.28a99.54,99.54,0,0,1-4.21,22.35c-.25.8-10.9,34.4-20,49.58A171.06,171.06,0,0,0,576,470.36c-1.62,3.47-3.29,7.06-5.09,10.47-6.4,12.14-15,22.84-23.27,32.75-10.89,13-22.36,25.2-32.16,35.38a39.78,39.78,0,0,1-10.88,7.47c-8.43,4.28-16.64,9.19-24.57,14-6.75,4-13.71,8.2-20.74,11.93a193,193,0,0,1-35.51,14.32c-2.65.79-5.31,1.67-7.87,2.52-3.51,1.16-7.12,2.36-10.71,3.32a119.22,119.22,0,0,1-17.1,2.77c-3.76.42-7.64.85-11.46,1.52a160,160,0,0,1-27.74,2.69c-3,0-6-.11-8.93-.34-4.73-.38-9.53-.53-14.17-.67-7.69-.24-15.64-.49-23.3-1.78a75.45,75.45,0,0,0-7.69-.81,2.3,2.3,0,0,0,.09-1.47c-4.06-13.85-9-33.89-10.77-48.6-.44-3.65-.88-7.3-1.35-10.95A305.69,305.69,0,0,0,277,511.26l-.8-3.27c-2-8.06-4-16.38-5.54-24.67-.52-2.79-1-5.67-1.42-8.45-1.09-6.93-2.21-14.09-4.57-20.94-.35-1-.68-2.06-1-3.09A170.29,170.29,0,0,1,259.87,434l-.46-2.39c-.87-4.56-1.89-9.15-2.88-13.59-.5-2.25-1-4.5-1.48-6.75-.22-1-.65-3.26-1.21-6.3.62.2,1.34.43,1.67.58a31.84,31.84,0,0,0,3.19,1.2c.47.15.95.31,1.41.48,1.88.69,3.79,1.3,5.48,1.84,2,.64,3.79,1.22,5.52,1.88a70.94,70.94,0,0,1,6.88,3.22,71.94,71.94,0,0,0,8.52,3.88c1.61.58,3.22,1.13,4.82,1.67l.28.09a88.11,88.11,0,0,1,15,6.13c1,.56,2.07,1.13,3.15,1.68a129.68,129.68,0,0,0,27.42,9.91c4.28,1.1,8.61,2,12.86,2.66a98.73,98.73,0,0,0,23.34,1.13c7.8-.65,17.74-.36,27.45-.08,8.21.24,16,.47,22.76.17,2.82-.13,6.08,0,9.53.08h.11a116.08,116.08,0,0,0,12.4-.05,26.65,26.65,0,0,1,5.33,0,71.36,71.36,0,0,0,11.66.09c2.63-.14,6.07,0,9.41.06,3.72.11,7.58.22,10.84,0a44.42,44.42,0,0,1,6.12.1h.1c1.44.1,2.76.19,4.24.19h.1a38.28,38.28,0,0,0,4.49-.29,106.52,106.52,0,0,0,11.5-2.09l4-.95,1.93-.46A36.58,36.58,0,0,0,520.7,436l.65-.29.92-.42a79.6,79.6,0,0,0,7.8-3.91c1.48-.82,3.15-1.74,5-2.65.6-.29,1.21-.56,1.81-.81a27.51,27.51,0,0,1,6.71-1.77,27,27,0,0,0,13-5.25,24.12,24.12,0,0,0,4.56-4.64,59.92,59.92,0,0,0,8.42-14.43l.27-.7c0-.08.06-.16.08-.23,4.48-11.72,6.63-21.68,6.56-30.45a100.85,100.85,0,0,0-1.1-15.91,63.36,63.36,0,0,1,.65-18c1.24-7.91-2.55-15.12-5.9-21.5l-.06-.11c-.89-1.68-1.72-3.27-2.41-4.79-1.32-2.88-2.64-5.27-3.82-7.39a58.33,58.33,0,0,1-5-11,59.15,59.15,0,0,0-2.42-6.15c-.24-.54-.47-1.07-.7-1.62a31.11,31.11,0,0,0-7.89-11.75c-.84-.79-.89-3.56-.92-5.6v-.5c-.1-4.77-.57-10.38-3.26-15.88-4.15-8.48-11.06-12.83-20.54-12.91-3.71,0-6.81,0-9.83.07-4.58.08-8.91.15-14.59-.1h-.21a17.45,17.45,0,0,1-5.84-1.06c-9.83-4.43-17.74-4.31-26.17-4.18a81.16,81.16,0,0,1-15.37-.78c-.25,0-1-.12-3.77-.43-3.94-.43-13.13-1.43-14.45-1.74-8.46-2.94-15.58-8.38-23.11-14.15l-1.87-1.44c-8.68-6.61-18.94-10.18-27.82-12.8-13.86-4.09-28.43-4.9-44.54-2.48-11,1.66-21.41,4.88-31.52,8l-.24.08c-4.26,1.31-8.67,2.67-13,3.87a58,58,0,0,1-14.43,2.13c-7.12.12-14.41-.28-21.45-.67a260.54,260.54,0,0,0-27.6-.49l-4.15.22c-2.05.11-3.28.15-4.33.19-1.55.06-2.78.11-5.71.32l-.36,0-.33.13a3.38,3.38,0,0,1-.41.09c-1.23-6.34-3.65-17-4.8-20.56a2.49,2.49,0,0,1,.68-2.65,20.17,20.17,0,0,0,2.48-3.2c.37-.56.72-1.08,1.07-1.55,4.35-5.64.94-12.75-1.46-19.45a20.69,20.69,0,0,0-15.23-13.28C184.21,149,173.7,153,168,161.49c-2.6,3.88-1.85,8.53-1.2,12.65.08.46.15.92.22,1.37,1.51,10.19,8.86,16,16.58,20.69,3.38,2.07,4,3.74,4.07,5,.09.91.84,7.23,1.42,11.77a5.89,5.89,0,0,1-.71-.13l-.73-.27-.76.19a5.22,5.22,0,0,0-1.38.54,4.93,4.93,0,0,0-2.49,4.11,23.29,23.29,0,0,0,1.06,7.71,28.54,28.54,0,0,1,.91,4.45c.46,3.83,1.84,10.53,5.93,12.34a24.55,24.55,0,0,0,4.27,1.34c2.36,8.86,3.94,18,5.42,26.92l.3,1.77h0c.46,2.75.92,5.5,1.42,8.24q2.31,12.9,4.69,25.82c.31,1.71.6,3.42.89,5.13.69,4.12,1.41,8.38,2.48,12.53,3.69,14.28,6.73,29,9.46,42.71.1.5.14,1,.2,1.56-3.22,1.39-4.23,3.41-4.41,5.06-1.57,7.66,1.33,13.38,8.5,17.11.94,3.29,1.76,6.65,2.48,10.28.43,2.13,1,4.2,1.65,6.2l.22.76a50,50,0,0,1,1.51,6.05c2.54,15.5,6.58,30.73,10.5,45a285.88,285.88,0,0,1,6.66,33.79c1,6.47,2.2,13,3.38,19.32.59,3.1,1.17,6.22,1.73,9.33.46,2.6.93,5.21,1.39,7.81l.29,1.6c2.23,12.46,4.54,25.36,6.74,38,2,11.74,5.39,24,8.13,33.9-6.69-1.51-13.14-4.2-19.39-6.83-3.67-1.55-7.47-3.15-11.31-4.52-10.71-3.8-20.52-9.79-30-15.58-3.63-2.21-7.38-4.5-11.16-6.65-4.42-2.53-8.86-5.24-13.14-7.86-3.94-2.4-8-4.88-12.08-7.24A89.36,89.36,0,0,1,147.9,534a271.27,271.27,0,0,1-21.44-29c-10.08-15.62-21.61-33.91-30.88-53.28a314,314,0,0,1-19.36-52.54A162.56,162.56,0,0,1,72.49,379c-.28-2-.56-3.92-.86-5.87-2-12.78-2.45-24-1.52-34.14.42-4.63.6-9.32.77-13.85.22-6,.46-12.23,1.27-18.3,1.94-14.44,3.91-27.43,8.33-40.14,3.14-9,7-18.05,10.63-26.77l1.52-3.6a282.41,282.41,0,0,1,25.12-47.09c2.8-4.19,5.51-8.53,8.13-12.73,3.13-5,6.36-10.19,9.75-15.12a101.75,101.75,0,0,1,16.88-19.52A278.81,278.81,0,0,1,200,108.75c14.75-8.17,27.12-13.81,38.93-17.73,3.06-1,6.1-2.17,9.05-3.28,4.46-1.69,9.07-3.43,13.71-4.7a121.29,121.29,0,0,1,13.67-2.67c2-.32,4-.64,6-1l2.42-.43c9.12-1.62,18.54-3.3,27.77-5.44A87.82,87.82,0,0,1,328,71.8c3.76-.14,7.56-.4,11.23-.66,5.25-.37,10.65-.75,16-.75,1.31,0,2.61,0,3.91.07A147.13,147.13,0,0,1,386.72,74c8.11,1.85,16.38,3.23,23.41,4.34a92.5,92.5,0,0,1,15.21,4.19c1.82.62,3.71,1.26,5.59,1.84,16,5,31.37,12.16,45.77,19A100.44,100.44,0,0,1,509.83,129a65,65,0,0,0,15,12.63c6.64,4.25,12.49,9.64,19.57,18,7.42,8.79,13.46,18.76,19.29,28.41,3.34,5.52,6.81,11.23,10.5,16.69,3.93,5.81,6.39,12.94,8.78,19.84.85,2.45,1.72,5,2.66,7.45,3.75,9.88,7.21,19.81,11,30.84,5.13,14.89,8.44,27.29,10.39,39a124.92,124.92,0,0,1,1.26,13.41c.15,2.62.3,5.33.55,8,.94,10,1.49,20.4,1.66,31.67A140,140,0,0,1,609.07,373.78ZM237,384.3l-.79-2.37a37.19,37.19,0,0,1-4.09,1l-.33-.11c-6-2-7-3.93-6.89-6.28h0l.35-.07,1.54-.17a92.6,92.6,0,0,1,13.75-.87,37.09,37.09,0,0,1,5.5.57c12.54,2.27,25,1.19,37.06.15,6.3-.54,12.81-1.1,19.12-1.15l3.64,0c1.94,0,3.95,0,6,0a41.34,41.34,0,0,0,11.28-1.75c2.39-.76,5.68-1.79,7.4-5.58,2.14-4.65,4.23-9.39,6.25-14l1.6-3.62c4.23-9.59,3.5-13.79-3.7-21.42l-.55-.55-.14-.14-.25-.25a21.52,21.52,0,0,1-2-2.32,2.78,2.78,0,0,0-.26-.34c0-.1-.08-.19-.12-.29l-.06-.12c0-.07,0-.79,1.65-3.43a25.19,25.19,0,0,0,3.67-15.27,73.29,73.29,0,0,0-1.31-11.9,58.9,58.9,0,0,1-.81-19.83,67.47,67.47,0,0,1,2.53-11.4c1.1.37,1.63.71,3.61,2.82a4.9,4.9,0,0,0,3.56,1.54h0a4.88,4.88,0,0,0,3.55-8.22c-3.58-3.82-5.34-4.67-8.23-5.59l-.38-.12c-1.35-.44-2.72-.85-4.06-1.22-6.34-1.8-12.77-3.11-17.66-4.06-4.69-.91-9.48-2.13-14.11-3.32l-.51-.13c-1.68-.43-3.35-.86-5-1.27-.57-.14-2.37-.64-4.26-1.15l-1.27-.35a14.09,14.09,0,0,0-1.83-.56l-3.82-.93a141.67,141.67,0,0,0-18.47-3.67c-10.49-1.15-21.1-1.26-31.41-1.38-2.54,0-5.81-.17-9-.31-4.63-.19-9-.38-11.56-.26-1.13,0-1.65.09-2,.12-.53,0-.71.05-2.44.05h-2.19l-2.88,0c-1.15,0-2.33,0-3.5-.13a36.28,36.28,0,0,1-7.44-1.27,25.41,25.41,0,0,1-1.17-4.93,36.18,36.18,0,0,0-1.07-5.41,22.41,22.41,0,0,0,4.09,0c2.58-.28,5.19-.52,7.75-.72,6.12-.48,12.55-.81,18.22-1.11l4.17-.22a252.5,252.5,0,0,1,26.55.5c7.2.39,14.65.78,22.13.67a67.65,67.65,0,0,0,16.88-2.48c4.44-1.23,8.89-2.6,13.18-3.92l.36-.11c9.76-3,19.86-6.12,30.08-7.66,14.66-2.2,27.85-1.49,40.32,2.19,8,2.36,17.24,5.54,24.66,11.2l1.86,1.42c5.36,4.11,17.64,11.38,25,15.73,2.68,1.59,5.22,3.1,5.79,3.48a43.82,43.82,0,0,0,4.52,3.54l1.17.85a92.37,92.37,0,0,1,7.18,6.07c3.67,3.31,7.46,6.74,11.2,8.79l.62.34c2.22,1.21,4.43,2.43,6.65,3.63a4.83,4.83,0,0,0,2.33.59h0a4.9,4.9,0,0,0,4.28-2.55,4.91,4.91,0,0,0-2-6.63l-5.4-2.94-1.83-1c-3.23-1.78-6.81-5-10.27-8.11-1.37-1.24-2.76-2.49-4.16-3.68l.55.09a90.37,90.37,0,0,0,17.18.92c7.89-.13,14.12-.23,22,3.31a26.53,26.53,0,0,0,9.54,1.92c6,.27,10.5.2,15.28.12,3-.05,6-.1,9.58-.08,5.86.06,9.29,2.21,11.85,7.45,1.86,3.79,2.19,8.08,2.27,11.78v.49c.06,3.76.15,8.91,4,12.52a21.91,21.91,0,0,1,5.58,8.42c.25.62.52,1.21.8,1.85a49.9,49.9,0,0,1,2,5.17,67.1,67.1,0,0,0,5.83,12.77c1.13,2,2.3,4.15,3.43,6.64.84,1.84,1.8,3.65,2.71,5.39,2.78,5.27,5.64,10.71,4.9,15.44a72.68,72.68,0,0,0-.68,20.74,91.37,91.37,0,0,1,1,14.73c.07,7.56-1.87,16.37-5.91,26.91-.14,0-.31.07-.52.1a44.4,44.4,0,0,1-5.65.23c-5.36,0-12,.05-18.25,2.77A37.58,37.58,0,0,1,522.29,403h0c-2,0-5.83-1.58-7.87-2.43l-1,2.31.86-2.36c-.83-.34-1.48-.62-2.06-.82-5.79-2-9.94-3.73-13.6-5.24l-.09,0a90.57,90.57,0,0,0-11.7-4.23A143.83,143.83,0,0,0,466.92,386a213.92,213.92,0,0,0-23.56-1.07c-10.48-.06-21.61-1.34-35-4-13-2.6-26.21-3.4-38.57-3.88-10.76-.42-21.63.11-32.21.63l-.3,0c-4.57.22-9.29.46-13.91.6-3.86.12-7.72.21-11.58.3l-2.28,0-6,.14-1.79,0c-1.71.05-3.47,0-5.34-.11h-.16c-4.6-.2-9.36-.41-14.18,1.09a10.29,10.29,0,0,1-4.75.25l-.82-.08c-.8-.06-1.66-.13-2.67-.14h-.67a61.82,61.82,0,0,0-6.85.14c-1.19.13-2.42.23-3.77.29-2.69.12-5.5.08-8.27.05-3.36,0-6.82-.09-10.33.15a37.71,37.71,0,0,0-7.5,1.49Zm53.65-65c.15,1.51.36,3,.64,4.44A50.09,50.09,0,0,1,292.65,336a21.29,21.29,0,0,0,.05,2.33,62.86,62.86,0,0,0,1.27,9.4,76,76,0,0,0,4.68,14.37,13,13,0,0,1,.89,3.19c-5.82.16-11.6.66-17.22,1.14-11.42,1-23.22,2-34.48,0-1-.18-2.11-.21-3.16-.33-.57-3.06-1.16-6.13-1.76-9.1-.53-2.54-1-5.08-1.53-7.63q-1.08-5.57-2.18-11.12c-2.35-11.86-4.77-24.12-6.51-36.27-.76-5.36-2-10.65-3.17-15.76-.53-2.28-1.08-4.65-1.58-7-.43-2-.84-4.09-1.25-6.13a172.69,172.69,0,0,0-4.86-19.94c-.29-.88-.6-1.76-.9-2.64s-.51-1.45-.75-2.17a36,36,0,0,1-1.05-3.77c5.88.25,11.81.33,17.59.4,10,.11,20.41.22,30.46,1.31a135.44,135.44,0,0,1,17.23,3.46l1.81.45,2.58.7c-.07,3.52,1.21,6.38,2.35,8.92a22.2,22.2,0,0,1,1.42,3.68l.06.31c1.34,6.91.95,13.81.53,21.12l-.15,2.65c-.19,3.66-.7,7.45-1.19,11.12C290.94,305.3,290,312.18,290.69,319.29ZM325.86,296A64.15,64.15,0,0,1,327,306.37a15.56,15.56,0,0,1-2.24,9.67c-2.22,3.62-4.4,7.9-2.12,12.8a4.57,4.57,0,0,0,.65,1,4.17,4.17,0,0,0,.54,1,29.58,29.58,0,0,0,2.86,3.45l.62.63a3.23,3.23,0,0,1,.33.32c4.54,4.81,4.54,4.81,1.9,10.8L327.78,350c-1.94,4.39-3.94,8.93-6,13.34-.38.17-1.24.44-1.64.57a31.42,31.42,0,0,1-8.6,1.28c-.74,0-1.49,0-2.22,0,0-.43-.08-.85-.14-1.25a22.32,22.32,0,0,0-1.6-5.77,66.92,66.92,0,0,1-4.1-12.55h0a53.91,53.91,0,0,1-1.08-7.95c0-.32-.05-.93,0-1.28a58.35,58.35,0,0,0-1.48-14.56c-.22-1.14-.39-2.31-.5-3.49-.58-6,.23-12,1.09-18.43.52-3.86,1.05-7.84,1.27-11.9l.15-2.69c.44-7.91.86-15.38-.71-23.51l-.1-.49a30.29,30.29,0,0,0-2.06-5.61c-.33-.75-.66-1.47-.92-2.17l1.87.48c4.78,1.22,9.71,2.49,14.68,3.45,3.37.65,7.63,1.51,12,2.6a76.76,76.76,0,0,0-2.81,12.81A68.55,68.55,0,0,0,325.86,296ZM190.29,177.29h-2.75c-2.29,0-3-.14-3.94-1.26s-.78-3.57,0-5.05a6,6,0,0,1,1.58-2.24c.94-.71,2-1.52,3.21-2.23a1.5,1.5,0,0,1,.71-.26h.23a9.72,9.72,0,0,1,1,.07,9.83,9.83,0,0,1,6.33,2.77,4.23,4.23,0,0,1,.51.61,6.19,6.19,0,0,1,.16,1.37,7.09,7.09,0,0,1-3.64,6A22.07,22.07,0,0,1,190.29,177.29ZM562.91,399l-2.34-.89v0h0ZM300,391.49a28.23,28.23,0,0,0-5.92-1.49l-1-.11a18.5,18.5,0,0,1-4.75-1.48,53.91,53.91,0,0,1,7.41,0c1.21.05,2.43.1,3.68.13v0l0,.19C299.61,389.7,299.8,390.64,300,391.49ZM254.15,390h.19c2.79,0,5.68.06,8.58-.07,1.61-.07,3.07-.18,4.43-.34,1.07-.12,3.15-.11,4.76-.09a8,8,0,0,0,1.17.75h0c1,.65,3,2,5.67,3.4,3.68,2,9,4.51,13.14,4.93h.13l.49.07c3.67.49,6.9,1.07,9.3,3a2,2,0,0,0,.23.18l.27.18c.14.08.27.16.4.22l.29.14.27.1.44.13.3.07a5.47,5.47,0,0,0,.9.08,4.72,4.72,0,0,0,1.25-.18,2.67,2.67,0,0,0,.34-.11,4.81,4.81,0,0,0,.87-.4l.32-.2a4,4,0,0,0,.59-.5l.25-.15.25-.39a4.79,4.79,0,0,0,.44-.71l.17-.34c0-.1.08-.21.11-.31l.05-.15c1.19-3.27.48-6.61-.15-9.57-.1-.51-.21-1-.3-1.45l2,0c4.12-.1,8.23-.19,12.35-.32,4.65-.15,9.38-.38,13.94-.6l.58,0c10.27-.5,20.9-1,31.21-.62,11.94.46,24.69,1.23,37,3.7,14.07,2.81,25.8,4.15,36.9,4.21a206.47,206.47,0,0,1,22.47,1,134.21,134.21,0,0,1,18.6,3.93,80.92,80.92,0,0,1,10.46,3.81c3.38,1.4,8,3.32,14.21,5.48.37.13.9.35,1.53.62l.1,0c3,1.26,7.62,3.18,11.62,3.18h.11A47,47,0,0,0,540,409.59l.25-.1c4.4-1.95,9.74-2,14.45-2h.79c-.8,1.17-1.48,2.07-1.94,2.64a16.93,16.93,0,0,1-2.55,2.74,17.79,17.79,0,0,1-9,3.61,36.73,36.73,0,0,0-8.81,2.37c-.79.33-1.58.68-2.35,1.05-2,1-3.76,1.94-5.48,2.89a68.49,68.49,0,0,1-6.86,3.47c-.32.13-.76.33-1.26.56l-.66.3c-2.69,1.24-3.38,1.49-3.5,1.53l-1.47.35-4.35,1A98.88,98.88,0,0,1,496.73,432a27.28,27.28,0,0,1-3.32.21c-1.21,0-2.37-.07-3.63-.16a53.27,53.27,0,0,0-7.48-.12c-2.81.17-6.45.06-10,0s-7.16-.21-10.2-.06a62.06,62.06,0,0,1-10.32-.06,34.49,34.49,0,0,0-6.93,0c-3.36.26-7.47.13-11.45,0-3.48-.1-7.08-.21-10.26-.07-6.4.28-14,.06-22-.17-9.9-.29-20.14-.59-28.55.11a89.4,89.4,0,0,1-21-1c-3.93-.62-7.95-1.45-11.94-2.48a120.15,120.15,0,0,1-25.4-9.15c-1-.5-1.93-1-2.85-1.52a97.57,97.57,0,0,0-16.67-6.85q-2.44-.82-4.9-1.69a62.77,62.77,0,0,1-7.28-3.34l-.12-.07a78.28,78.28,0,0,0-7.83-3.63c-1.93-.74-3.88-1.36-5.76-2l-.46-.15c-1.61-.51-3.29-1.05-4.84-1.62-.53-.21-1.09-.39-1.64-.57l-.14-.05a20.93,20.93,0,0,1-2.16-.79,28.46,28.46,0,0,0-3.27-1.16c-.77-.24-1.72-.54-2.1-.71a17.32,17.32,0,0,0-1.8-.68L252,394a1.32,1.32,0,0,0-.18-.22q-.36-2-.66-3.75Z" style="fill:#141414"/></g></svg>