<?xml version="1.0" encoding="utf-8"?>
<!-- Generator: Adobe Illustrator 22.1.0, SVG Export Plug-In . SVG Version: 6.00 Build 0)  -->
<svg version="1.1" id="Layer_1" xmlns="http://www.w3.org/2000/svg" xmlns:xlink="http://www.w3.org/1999/xlink" x="0px" y="0px"
	 viewBox="0 0 476.8 190.4" enable-background="new 0 0 476.8 190.4" xml:space="preserve">
<path fill="#FFFFFF" d="M1.5,82.1c-2.4,15.6-1.7,12.5-1.5,29s5.1,32.3,12,43.4c6.5,10.5,13,19.8,32.5,27.1
	c19.1,7.1,38.3,10.7,68.3,8.3c30.1-2.4,52.3-5.6,65-8.4c26.5-5.9,45.3-8.7,86.3-8.7c84,0,64.7,12.8,154.9-5
	c17.8-3.5,40.7-30.2,44.9-37.2s15.2-27.4,12.2-67.1S435.8,5.7,409,2.9s-92-5.5-150.3,6.8c-61.4,12.9-66.9,4.5-110.2,3.6
	c-39.4-0.8-62.7-5.5-102,11C24.3,33.5,8.6,35.9,1.5,82.1z"/>
</svg>
