<?xml version="1.0" encoding="utf-8"?>
<!-- Generator: Adobe Illustrator 22.1.0, SVG Export Plug-In . SVG Version: 6.00 Build 0)  -->
<svg version="1.1" id="Layer_1" xmlns="http://www.w3.org/2000/svg" xmlns:xlink="http://www.w3.org/1999/xlink" x="0px" y="0px"
	 viewBox="0 0 476.8 408.2" enable-background="new 0 0 476.8 408.2" xml:space="preserve">
<path fill="#FFFFFF" d="M1.5,175.5c-2.4,33.5-1.7,26.7-1.5,62.1s5.1,69.3,12,93c6.5,22.5,13,42.5,32.5,58.1
	c19.1,15.3,38.3,23,68.3,17.9c30.1-5.1,52.3-11.9,65-18c26.5-12.7,45.3-18.6,86.3-18.6c84,0,64.7,27.4,154.9-10.8
	c17.8-7.5,40.7-64.8,44.9-79.9s15.2-58.8,12.2-143.9S435.8,11.7,409,5.6S317-6.3,258.7,20.1c-61.4,27.8-66.9,9.7-110.2,7.7
	C109,26,85.7,16.1,46.5,51.4C24.3,71.3,8.6,76.5,1.5,175.5z"/>
</svg>
