<svg xmlns="http://www.w3.org/2000/svg" viewBox="0 0 325.86 322.3"><defs><style>.cls-1{fill:#f9cacb;}.cls-2{fill:#f29195;}.cls-3{fill:#fff;}.cls-4{fill:#141414;}</style></defs><title>map icon machine</title><g id="Calque_1" data-name="Calque 1"><path class="cls-1" d="M290.82,148a60.8,60.8,0,0,0-.61-6.61,118.44,118.44,0,0,0-5.11-19.22c-1.87-5.43-3.56-10.32-5.41-15.19-.46-1.21-.89-2.46-1.3-3.67a42.2,42.2,0,0,0-4.31-9.77c-1.82-2.69-3.52-5.5-5.16-8.22a109.13,109.13,0,0,0-9.47-14,42.32,42.32,0,0,0-9.62-8.89,32,32,0,0,1-7.35-6.22A49.36,49.36,0,0,0,226.2,43.59a172.26,172.26,0,0,0-22.48-9.38c-.92-.29-1.84-.6-2.74-.91a45.11,45.11,0,0,0-7.47-2.06C190.06,30.69,186,30,182,29.1a72.67,72.67,0,0,0-13.53-1.74c-.64,0-1.28,0-1.92,0-2.63,0-5.29.19-7.87.37-1.8.13-3.66.26-5.51.33a42,42,0,0,0-8.08.84c-4.54,1.05-9.17,1.88-13.64,2.68l-1.19.21-3,.49a62.09,62.09,0,0,0-6.71,1.31c-2.28.63-4.55,1.49-6.74,2.32-1.44.54-2.94,1.11-4.44,1.61a112.7,112.7,0,0,0-19.12,8.74A136.77,136.77,0,0,0,67,62.54a49.83,49.83,0,0,0-8.3,9.62c-1.66,2.42-3.25,5-4.78,7.44-1.29,2.07-2.62,4.21-4,6.27a139.64,139.64,0,0,0-12.33,23.19l-.75,1.78c-1.81,4.29-3.68,8.73-5.22,13.18-2.17,6.26-3.14,12.66-4.09,19.77-.4,3-.52,6.05-.63,9-.08,2.23-.17,4.54-.38,6.82a69.92,69.92,0,0,0,.75,16.82c.15,1,.29,1.92.42,2.89a80,80,0,0,0,1.84,9.91A155,155,0,0,0,39,215.11a243.44,243.44,0,0,0,15.17,26.25,133.42,133.42,0,0,0,10.53,14.27,43.87,43.87,0,0,0,11.69,9.62c2,1.16,4,2.38,5.94,3.56,2.1,1.29,4.28,2.63,6.45,3.87,1.86,1.06,3.7,2.19,5.48,3.28,4.66,2.85,9.47,5.8,14.73,7.67,1.89.67,3.76,1.46,5.56,2.22a53.57,53.57,0,0,0,10.11,3.52c1.44.29,2.94.53,4.39.75l2.65.43a43,43,0,0,0,4.35.43,45.53,45.53,0,0,1,4.58.46,86.25,86.25,0,0,0,11.44.87c2.28.07,4.64.15,7,.33a70.5,70.5,0,0,0,18-1.15c1.88-.33,3.78-.55,5.63-.75a58.36,58.36,0,0,0,8.4-1.37c1.76-.47,3.54-1.06,5.26-1.63,1.26-.42,2.56-.85,3.86-1.24a95.32,95.32,0,0,0,17.45-7.05c3.45-1.84,6.87-3.9,10.18-5.88,3.9-2.34,7.93-4.76,12.07-6.87a19.67,19.67,0,0,0,5.34-3.68c4.81-5,10.45-11,15.79-17.43,4.07-4.88,8.29-10.14,11.44-16.12.88-1.68,1.7-3.45,2.5-5.16a81.62,81.62,0,0,1,3.85-7.57c4.46-7.48,9.69-24,9.82-24.42a49.32,49.32,0,0,0,2.07-11c.13-1.53.32-3.08.5-4.57a69.53,69.53,0,0,0,.69-9.25c-.09-5.55-.35-10.65-.81-15.59C291,150.58,290.9,149.25,290.82,148Z"/><path class="cls-2" d="M319.29,150.15c-.14-1.52-.23-3.08-.32-4.6a75.89,75.89,0,0,0-.76-8.17A144.88,144.88,0,0,0,312,114c-2.23-6.5-4.26-12.36-6.48-18.2-.53-1.4-1-2.88-1.53-4.3-1.45-4.22-3-8.59-5.46-12.29-2.13-3.15-4.13-6.48-6.08-9.7-3.47-5.75-7.07-11.71-11.55-17a52.76,52.76,0,0,0-12.08-11.13,36,36,0,0,1-8.18-6.9,61.42,61.42,0,0,0-20.3-15.71c-8.53-4.1-17.65-8.34-27.19-11.34-1.07-.33-2.16-.7-3.21-1.06a57,57,0,0,0-9.36-2.58c-4.07-.64-8.87-1.44-13.53-2.51A89.09,89.09,0,0,0,170.4-.9a107.74,107.74,0,0,0-12,.4c-2.13.15-4.33.3-6.49.38A53.59,53.59,0,0,0,141.78,1C136.44,2.19,131,3.17,125.64,4.12l-1.42.25c-1.15.21-2.34.39-3.48.58a75.21,75.21,0,0,0-8.31,1.63c-2.84.78-5.6,1.83-8.28,2.84-1.7.64-3.45,1.31-5.19,1.89A137,137,0,0,0,75.68,21.93,165.68,165.68,0,0,0,47.42,41.74a61.93,61.93,0,0,0-10.36,12c-2,3-3.92,6-5.77,9-1.53,2.45-3.11,5-4.72,7.41a169,169,0,0,0-15,28.12l-.89,2.12c-2.17,5.16-4.42,10.5-6.29,15.9-2.67,7.7-3.85,15.48-5,24.11-.5,3.7-.64,7.42-.78,11-.09,2.62-.2,5.34-.44,8A85.85,85.85,0,0,0-.88,180.1c.17,1.14.33,2.28.49,3.42a98,98,0,0,0,2.26,12.16A188.26,188.26,0,0,0,13.38,227c5.5,11.53,12.32,22.36,18.27,31.61A161.19,161.19,0,0,0,44.43,276,55.13,55.13,0,0,0,59.08,288c2.36,1.37,4.73,2.82,7,4.22,2.53,1.55,5.14,3.15,7.77,4.65,2.18,1.25,4.36,2.59,6.47,3.88,5.67,3.47,11.54,7.07,18.08,9.39,2.18.78,4.37,1.7,6.49,2.6a66.64,66.64,0,0,0,12.57,4.35c1.79.37,3.6.65,5.36.92,1,.16,2.09.32,3.13.5a49,49,0,0,0,5.47.55c1.72.11,3.49.23,5.19.51a102.69,102.69,0,0,0,14,1.09c2.68.08,5.46.17,8.17.38,1.78.14,3.59.21,5.45.21A96.18,96.18,0,0,0,181,319.64c2.15-.38,4.39-.63,6.55-.87a71.57,71.57,0,0,0,10.42-1.7c2.18-.58,4.34-1.3,6.43-2,1.48-.49,3-1,4.53-1.45A116.23,116.23,0,0,0,230.24,305c4.18-2.23,8.29-4.7,12.27-7.09,4.61-2.76,9.38-5.63,14.24-8.1a25.67,25.67,0,0,0,7.1-4.93c5.77-6,12.54-13.2,19-20.93,4.93-5.94,10.08-12.35,13.95-19.72,1.09-2.06,2.09-4.2,3.05-6.27a96.62,96.62,0,0,1,4.46-8.79c5.51-9.21,12-29.68,12-29.74a61.76,61.76,0,0,0,2.57-13.68c.16-1.79.38-3.61.59-5.37a85.3,85.3,0,0,0,.84-11.4C320.17,162.28,319.85,156.12,319.29,150.15Zm-27.62,26.74c-.18,1.5-.36,3-.5,4.58a49.6,49.6,0,0,1-2.07,11.05c-.13.39-5.38,17-9.86,24.5a82.21,82.21,0,0,0-3.86,7.6c-.8,1.72-1.63,3.49-2.51,5.17-3.16,6-7.4,11.29-11.47,16.19-5.37,6.44-11,12.45-15.85,17.48a19.77,19.77,0,0,1-5.36,3.7c-4.16,2.11-8.2,4.54-12.11,6.89-3.33,2-6.76,4.05-10.22,5.9a94.88,94.88,0,0,1-17.5,7.07c-1.31.39-2.62.83-3.88,1.25-1.73.57-3.51,1.16-5.28,1.64a58.54,58.54,0,0,1-8.43,1.37c-1.85.2-3.76.42-5.65.75a71,71,0,0,1-18.07,1.16c-2.33-.19-4.69-.26-7-.33a85.07,85.07,0,0,1-11.48-.88,46.21,46.21,0,0,0-4.6-.46,43.21,43.21,0,0,1-4.36-.43l-2.67-.43c-1.45-.23-3-.46-4.4-.76a53.85,53.85,0,0,1-10.14-3.52c-1.81-.77-3.68-1.56-5.58-2.23-5.28-1.88-10.11-4.84-14.78-7.7-1.79-1.1-3.64-2.23-5.5-3.29-2.18-1.25-4.37-2.59-6.48-3.88-1.94-1.19-3.94-2.42-6-3.58a44,44,0,0,1-11.73-9.65,133,133,0,0,1-10.57-14.32,243.44,243.44,0,0,1-15.22-26.34,154.88,154.88,0,0,1-9.54-26,80.59,80.59,0,0,1-1.84-10l-.42-2.9a69.29,69.29,0,0,1-.75-16.87c.2-2.29.29-4.6.38-6.84.11-3,.22-6.05.63-9.05C28,136.69,29,130.27,31.17,124c1.55-4.47,3.42-8.93,5.24-13.23l.75-1.78A138.37,138.37,0,0,1,49.54,85.71c1.38-2.08,2.71-4.22,4-6.29,1.54-2.48,3.14-5,4.81-7.48a50.08,50.08,0,0,1,8.32-9.65A137.33,137.33,0,0,1,90.05,45.91a112.94,112.94,0,0,1,19.19-8.76c1.5-.51,3-1.07,4.46-1.62,2.19-.84,4.47-1.7,6.75-2.33a62.66,62.66,0,0,1,6.74-1.32c1-.15,2-.31,3-.49l1.19-.21c4.49-.8,9.14-1.63,13.69-2.69a43.09,43.09,0,0,1,8.11-.84c1.85-.07,3.72-.2,5.53-.33,2.59-.18,5.25-.37,7.89-.37.65,0,1.29,0,1.93,0a72.25,72.25,0,0,1,13.58,1.75c4,.91,8.08,1.59,11.54,2.14a45.8,45.8,0,0,1,7.5,2.08c.89.3,1.82.61,2.75.9a172.71,172.71,0,0,1,22.56,9.42,49.52,49.52,0,0,1,16.32,12.63,32.33,32.33,0,0,0,7.39,6.25,42.05,42.05,0,0,1,9.64,8.91,108.24,108.24,0,0,1,9.51,14c1.65,2.73,3.35,5.55,5.17,8.25a41.94,41.94,0,0,1,4.33,9.81c.42,1.21.85,2.46,1.31,3.68,1.85,4.88,3.55,9.79,5.43,15.24a118.35,118.35,0,0,1,5.12,19.28,64.07,64.07,0,0,1,.62,6.63c.07,1.3.15,2.64.27,4,.47,5,.73,10.08.82,15.65A70,70,0,0,1,291.67,176.89Z"/><path class="cls-3" d="M196.17,130.08c-1-10.77,3.82-22.18,12.94-28s22.43-4.91,29.85,3c-4.43,4-8.92,8.83-13.36,12.8L233.91,130a1.07,1.07,0,0,0,.56.51,1.12,1.12,0,0,0,.86-.25c5-3.17,9.61-5.87,14.62-9a27.83,27.83,0,0,1,1.21,20.21c-2.28,6.52-7.68,12-14.36,13.81a27.2,27.2,0,0,1-11.33.2c-5.4-.9-10.76-2.87-14.83-6.52-15.26,8.83-32.57,16.28-47.83,25.12-5.05,2.92-10.09,5.84-15,8.94a248.87,248.87,0,0,0-23.53,16.75l-.2.55a30.66,30.66,0,0,1-10,28.18c-4.76,4.1-11,6.67-17.27,6.29s-12.43-2-15.15-7.69c7.33-4.48,14.13-10.93,21.47-15.41l-.2-.37c-4.83-5.67-10.28-10.76-14.52-16.89-6.84,6-14.34,12-21.26,17.84a27.34,27.34,0,0,1,6.58-37.59,32.92,32.92,0,0,1,7.44-3.94,23,23,0,0,1,8-1.71c4.6,0,9,1.92,12.75,4.65a65.52,65.52,0,0,1,9.84,9.65l.28,0c21.41-14.56,62.44-38.69,83.85-53.25Z"/><path class="cls-4" d="M112.1,186.57a3.23,3.23,0,0,1-1.82-5.9C121.05,173.36,137,163.5,152.33,154s31.16-19.31,41.81-26.55a3.22,3.22,0,1,1,3.63,5.33c-10.77,7.32-26.67,17.17-42.05,26.7S124.56,178.77,113.91,186A3.19,3.19,0,0,1,112.1,186.57Z"/><path class="cls-4" d="M196.18,133.41a3.23,3.23,0,0,1-3.18-2.7l0-.2v-.15c-1.1-12.34,4.69-24.8,14.42-31,10.75-6.84,25.65-5.29,33.93,3.52a3.23,3.23,0,0,1-4.7,4.42c-6.12-6.52-17.68-7.64-25.77-2.49-7.73,4.92-12.33,14.93-11.46,24.93v.07a3.23,3.23,0,0,1-2.68,3.54A3.17,3.17,0,0,1,196.18,133.41Z"/><path class="cls-4" d="M234.63,133.77a3.66,3.66,0,0,1-1.06-.15,4.2,4.2,0,0,1-2.33-1.8l-9.9-14.43,2.11-1.89c2.16-1.93,4.4-4.15,6.56-6.29s4.52-4.48,6.8-6.52a3.23,3.23,0,0,1,4.3,4.81c-2.15,1.93-4.39,4.15-6.56,6.29-1.54,1.53-3.12,3.09-4.71,4.59l5.53,8.06c1.92-1.2,3.8-2.35,5.64-3.47,2.33-1.43,4.75-2.91,7.22-4.47a3.23,3.23,0,0,1,3.45,5.46c-2.51,1.58-5,3.07-7.31,4.51s-4.82,2.95-7.31,4.53l0,0A4.56,4.56,0,0,1,234.63,133.77Z"/><path class="cls-4" d="M231.08,159.17a37.72,37.72,0,0,1-6.14-.54c-6.78-1.13-12.32-3.59-16.46-7.3a3.23,3.23,0,0,1,4.31-4.8c3.21,2.88,7.66,4.81,13.21,5.74a23.73,23.73,0,0,0,10-.14c5.37-1.43,10.14-6,12.13-11.76A24.54,24.54,0,0,0,247,122.54a3.23,3.23,0,1,1,5.9-2.62,31.08,31.08,0,0,1,1.3,22.58,24.75,24.75,0,0,1-16.57,15.86A25.33,25.33,0,0,1,231.08,159.17Z"/><path class="cls-4" d="M67.17,215.46a3.22,3.22,0,0,1-2.67-1.41,30.55,30.55,0,0,1,7.37-42A36,36,0,0,1,80,167.7a26.25,26.25,0,0,1,9.17-1.93h.11a24.84,24.84,0,0,1,14.57,5.28,67.53,67.53,0,0,1,10.35,10.12,3.22,3.22,0,1,1-4.83,4.27,63.32,63.32,0,0,0-9.34-9.19c-2.5-1.84-6.39-4-10.75-4h-.08a19.79,19.79,0,0,0-6.89,1.51,29.12,29.12,0,0,0-6.71,3.54,24.1,24.1,0,0,0-5.81,33.15,3.23,3.23,0,0,1-2.66,5Z"/><path class="cls-4" d="M67.17,215.46a3.22,3.22,0,0,1-2.09-5.68c2.86-2.43,5.86-4.92,8.77-7.32C78,199,82.31,195.46,86.3,192a3.23,3.23,0,1,1,4.25,4.86c-4.06,3.55-8.4,7.13-12.59,10.6-2.89,2.39-5.88,4.86-8.71,7.26A3.16,3.16,0,0,1,67.17,215.46Z"/><path class="cls-4" d="M103,214.52a3.23,3.23,0,0,1-2.46-1.14c-1.64-1.93-3.4-3.84-5.11-5.69a106.75,106.75,0,0,1-9.61-11.45,3.23,3.23,0,0,1,5.31-3.67,100.79,100.79,0,0,0,9,10.75c1.75,1.89,3.56,3.85,5.28,5.88a3.22,3.22,0,0,1-.36,4.55A3.26,3.26,0,0,1,103,214.52Z"/><path class="cls-4" d="M81.68,230.29a3.22,3.22,0,0,1-1.68-6,119.26,119.26,0,0,0,10.44-7.5,123.71,123.71,0,0,1,11-7.9,3.22,3.22,0,1,1,3.36,5.5,117.91,117.91,0,0,0-10.44,7.51,127.28,127.28,0,0,1-11,7.9A3.24,3.24,0,0,1,81.68,230.29Z"/><path class="cls-4" d="M98,238c-.47,0-.94,0-1.4,0-3.39-.21-13.7-.83-17.87-9.52a3.22,3.22,0,0,1,5.81-2.79c1.73,3.59,5.69,5.46,12.45,5.87A21.49,21.49,0,0,0,112,226a27.32,27.32,0,0,0,8.88-25.16,3.22,3.22,0,1,1,6.34-1.17,33.84,33.84,0,0,1-11,31.22A28.34,28.34,0,0,1,98,238Z"/><path class="cls-4" d="M124.25,203a3.22,3.22,0,0,1-2-5.74,249.22,249.22,0,0,1,23.84-17c5.08-3.19,10.42-6.28,15.12-9,7.72-4.47,16-8.63,24.09-12.66s16.2-8.09,23.74-12.46a3.22,3.22,0,1,1,3.23,5.58c-7.71,4.47-16,8.63-24.09,12.65s-16.19,8.1-23.73,12.47c-4.67,2.7-10,5.76-14.93,8.88a244.87,244.87,0,0,0-23.23,16.54A3.21,3.21,0,0,1,124.25,203Z"/></g></svg>