<svg xmlns="http://www.w3.org/2000/svg" viewBox="0 0 46.91 64.8"><title>icon plastic type pvc</title><g id="Calque_1" data-name="Calque 1"><path d="M36.82,16.94a10.14,10.14,0,0,0-.62-3.56A1,1,0,0,0,34.85,13a7.94,7.94,0,0,0-1,.48q-2.27-4.1-4.54-8.18C28.18,3.24,26.47-.12,23.65,0c-2.54.12-4.17,3.42-5.38,5.25a59.16,59.16,0,0,0-4.63,8.26C13,14.81,15,16,15.57,14.64A57.17,57.17,0,0,1,19.1,8.1q1-1.65,2.13-3.24c.53-.76,1.36-2.39,2.37-2.6s2.18,1.51,2.69,2.29c.7,1.07,1.29,2.2,1.91,3.31L32,14.71l-.39.27a1.47,1.47,0,0,0-.88.85,1.35,1.35,0,0,0,.61,1.63c1.07.86,2.24,1.66,3.38,2.42.57.37,1.42.75,2,.09S36.89,17.74,36.82,16.94Z" style="fill:#1d1d1b"/><path d="M46,35c-1.3-3-2.86-5.85-4.29-8.75-.64-1.29-2.57-.16-1.94,1.13q1.73,3.47,3.43,6.94a14.22,14.22,0,0,1,1.38,3.38,3,3,0,0,1,0,1.66c-.26.55-.89.61-1.42.73a59.37,59.37,0,0,1-12.85,1.84.58.58,0,0,0-.14,0l-.06-.86a1.49,1.49,0,0,0-.29-1.22,1.39,1.39,0,0,0-1.76-.29,31.57,31.57,0,0,0-4.12,1.84c-.57.32-1.19.93-.84,1.65s2,1.35,2.8,1.72A10.3,10.3,0,0,0,29.15,46c.66,0,.93-.4,1-1a8.09,8.09,0,0,0,.07-.86h.07a49.17,49.17,0,0,0,7.75-.69c1.26-.22,2.51-.49,3.76-.77a10.67,10.67,0,0,0,3.77-1.15C47.71,40.06,46.84,36.94,46,35Z" style="fill:#1d1d1b"/><path d="M13,40.89a37.34,37.34,0,0,1-6.76-.51,27,27,0,0,1-3-.51c-1.09-.29-1.11-1-.7-1.93a48.83,48.83,0,0,1,3.21-5.49q1.71-2.87,3.43-5.73l.51.21a1.5,1.5,0,0,0,1.11.29c.78-.1,1.07-.69,1.14-1.4A41.39,41.39,0,0,0,12,21.65c0-.65-.1-1.5-.87-1.68s-1.76.79-2.36,1.25a12.37,12.37,0,0,0-2.93,2.7.94.94,0,0,0,.33,1.4,5.41,5.41,0,0,0,.87.52c-1.39,2.32-2.77,4.64-4.16,7C1.81,34.67-.27,37.08,0,39.42s2.73,2.66,4.64,3a42.84,42.84,0,0,0,8.3.73C14.41,43.08,14.42,40.84,13,40.89Z" style="fill:#1d1d1b"/><path d="M25.82,25.59c-.21-.21-.64-.6-1.28-1.16l-.43-.36-.28-.25.26-.32a5.36,5.36,0,0,0,1.24-3.6,6.54,6.54,0,0,0-.1-1.15,3.26,3.26,0,0,0-1.64-2.65,3.23,3.23,0,0,0-1.28-.27,2.1,2.1,0,0,0-.7.11c-.58.21-.87.53-.87.94a.62.62,0,0,0,.29.52,1,1,0,0,0,.83.09,2.59,2.59,0,0,1,.64-.09c.29,0,1.2,0,1.2,2.5a5.25,5.25,0,0,1-.12,1.44A3,3,0,0,1,22.33,23c-.53.33-.79.65-.79,1s.35.69,1.16,1.12a4.52,4.52,0,0,1,2.81,4.28,3.61,3.61,0,0,1-2.59,3.75,4.43,4.43,0,0,1-1.34.15c-.88,0-1.12.11-1.24.23a.68.68,0,0,0,0,1,1,1,0,0,0,.79.39h.88a3.39,3.39,0,0,0,1.56-.38l.05,0a7.28,7.28,0,0,0,2.6-1.92,4.93,4.93,0,0,0,.82-3.05A5.63,5.63,0,0,0,25.82,25.59Z" style="fill:#1d1d1b;stroke:#1d1d1b;stroke-miterlimit:10;stroke-width:0.25px"/><path d="M14.11,49.26a4.76,4.76,0,0,0-2.48-1h-.16a.87.87,0,0,0-.72.75,3.13,3.13,0,0,0,0,.75c0,.87,0,2.07.1,3.56,0,.88.06,2.75.1,5.56.05,4.56.08,4.77.1,4.87a1,1,0,0,0,.23.52.75.75,0,0,0,.52.24,1.1,1.1,0,0,0,.74-.36l.11-.12,0-2.85V59.75c0-1,0-1.22,0-1.21a2.07,2.07,0,0,1,.53-.41c.36-.24.73-.51,1.11-.82a6.43,6.43,0,0,0,1.39-1.49,4.33,4.33,0,0,0,.61-1.62,3.77,3.77,0,0,0,.06-.78,5.07,5.07,0,0,0-.58-2.35A4.73,4.73,0,0,0,14.11,49.26Zm.57,4.26a3,3,0,0,1-.06.64,3.82,3.82,0,0,1-1.35,2l-.72.54c0-.46-.08-1.3-.14-2.84,0-.4,0-1-.07-1.8s0-1.31-.06-1.47V50l.15,0a3.55,3.55,0,0,1,2.1,2.24A4,4,0,0,1,14.68,53.52Z" style="fill:#1d1d1b"/><path d="M27.26,50.57a2.07,2.07,0,0,0-.22.68,15.07,15.07,0,0,1-.44,1.56c-1.39,4.53-2.34,7.55-2.83,9-.18-.46-.52-1.34-1.14-3-2.95-7.85-3.12-8-3.23-8.13a.79.79,0,0,0-.57-.26.68.68,0,0,0-.7.75,4.47,4.47,0,0,0,.4,1.25c.07.18.19.52.38,1l.37,1c.93,2.59,1.8,4.9,2.6,6.88,1.24,3,1.41,3.2,1.57,3.33a.82.82,0,0,0,.46.17.79.79,0,0,0,.73-.54c.09-.19.37-.75,3.27-10.43a12.85,12.85,0,0,0,.7-2.76,1,1,0,0,0-.21-.56A.76.76,0,0,0,27.26,50.57Z" style="fill:#1d1d1b"/><path d="M35.17,63a4.1,4.1,0,0,1-1.32-.32,2.22,2.22,0,0,1-.79-.72A9.21,9.21,0,0,1,32,56.87a16.32,16.32,0,0,1,.31-3.6,6.24,6.24,0,0,1,1.11-2.34,1.7,1.7,0,0,1,1-.74c.72-.16.87-.51.87-.77a.67.67,0,0,0-.29-.51.86.86,0,0,0-.53-.22l-.15,0a2.1,2.1,0,0,0-.4,0,3.37,3.37,0,0,0-2,1.71,9.11,9.11,0,0,0-1.39,4.29,20.41,20.41,0,0,0-.08,2.07A19.35,19.35,0,0,0,30.46,59,8.64,8.64,0,0,0,32,63.14a4.08,4.08,0,0,0,3.11,1.43h.13c.66,0,.9-.39.9-.75S36,63.12,35.17,63Z" style="fill:#1d1d1b"/></g></svg>