<?xml version="1.0" encoding="UTF-8"?>
<svg width="17px" height="19px" viewBox="0 0 17 19" version="1.1" xmlns="http://www.w3.org/2000/svg" xmlns:xlink="http://www.w3.org/1999/xlink">
    <!-- Generator: Sketch 52.4 (67378) - http://www.bohemiancoding.com/sketch -->
    <title>Shape</title>
    <desc>Created with Sketch.</desc>
    <g id="Symbols" stroke="none" stroke-width="1" fill="none" fill-rule="evenodd">
        <g id="Button/DeleteButton" transform="translate(-223.000000, -15.000000)" fill="#000000" fill-rule="nonzero">
            <path d="M233.956912,30.7383333 L233.956912,21.65 C233.956912,21.3016667 234.231598,21.0166667 234.567325,21.0166667 C234.903052,21.0166667 235.177738,21.3016667 235.177738,21.65 L235.177738,30.77 C235.177738,31.1183333 234.903052,31.4033333 234.567325,31.4033333 C234.231598,31.4033333 233.956912,31.0866667 233.956912,30.7383333 Z M228.463196,31.3716667 C228.798923,31.3716667 229.073609,31.0866667 229.073609,30.7383333 L229.073609,21.65 C229.073609,21.3016667 228.798923,21.0166667 228.463196,21.0166667 C228.127469,21.0166667 227.852783,21.3016667 227.852783,21.65 L227.852783,30.77 C227.852783,31.0866667 228.127469,31.3716667 228.463196,31.3716667 Z M240,18.7366667 C240,19.085 239.725314,19.37 239.389587,19.37 L238.748654,19.37 L237.741472,33.3983333 C237.710952,33.715 237.466786,34 237.131059,34 L225.868941,34 C225.563734,34 225.289048,33.7466667 225.258528,33.3983333 L224.251346,19.37 L223.610413,19.37 C223.274686,19.37 223,19.085 223,18.7366667 C223,18.3883333 223.274686,18.1033333 223.610413,18.1033333 L227.852783,18.1033333 L227.852783,15.6333333 C227.852783,15.285 228.127469,15 228.463196,15 L234.567325,15 C234.903052,15 235.177738,15.285 235.177738,15.6333333 L235.177738,18.1033333 L239.389587,18.1033333 C239.725314,18.1033333 240,18.3883333 240,18.7366667 Z M229.073609,18.1033333 L233.956912,18.1033333 L233.956912,16.2666667 L229.073609,16.2666667 L229.073609,18.1033333 Z M237.527828,19.37 L225.502693,19.37 L226.448833,32.7333333 L236.581688,32.7333333 L237.527828,19.37 Z M231.51526,31.3716667 C231.850987,31.3716667 232.125673,31.0866667 232.125673,30.7383333 L232.125673,21.65 C232.125673,21.3016667 231.850987,21.0166667 231.51526,21.0166667 C231.179533,21.0166667 230.904847,21.3016667 230.904847,21.65 L230.904847,30.77 C230.904847,31.0866667 231.179533,31.3716667 231.51526,31.3716667 Z" id="Shape"></path>
        </g>
    </g>
</svg>