<svg width="20" height="18" viewBox="0 0 20 18" fill="none" xmlns="http://www.w3.org/2000/svg">
  <path
    d="M15.8717 1.52584C16.3255 0.694521 17.3783 0.382252 18.2237 0.828395C19.069 1.27466 19.3866 2.31 18.9329 3.14135C18.5813 3.78543 18.3761 4.11518 16.9433 6.26391C15.4968 8.43319 13.0101 11.6932 11.4962 13.6322C10.7821 14.5663 10.1216 15.1916 9.916 15.5111C9.86334 15.593 9.67295 15.9084 9.56139 16.0584C9.48931 16.1553 9.30566 16.3943 8.9998 16.5873C8.61375 16.8309 8.14776 16.9323 7.6781 16.8559C7.21195 16.7802 6.88289 16.5471 6.7619 16.4588C6.60289 16.3428 6.45801 16.21 6.34113 16.0984C6.10658 15.8746 5.80031 15.5546 5.4419 15.1791C3.80919 13.4687 2.78132 12.4686 2.15376 11.8972C1.9306 11.6939 1.67616 11.5522 1.43607 11.2882C1.19599 11.0241 0.341059 9.90135 0.721778 9.09073C1.12414 8.23454 2.15669 7.86133 3.02754 8.25648C3.27417 8.3685 3.50463 8.53903 3.67737 8.6736C3.8877 8.83749 4.16094 9.06816 4.51552 9.39106C5.19461 10.0095 6.22046 11.0085 7.76293 12.6179C8.05446 12.2629 8.33322 12.0828 8.73098 11.5635L8.74117 11.5504C10.2566 9.60948 12.6035 6.54129 14.0376 4.39048C15.4854 2.21934 15.6046 2.01506 15.8717 1.52584Z"
    fill="white" stroke="#919191" stroke-width="1.25" stroke-linecap="round" />
</svg>