<svg width="19" height="19" viewBox="0 0 19 19" fill="none" xmlns="http://www.w3.org/2000/svg">
<path fill-rule="evenodd" clip-rule="evenodd" d="M16.7853 2.39555C17.1272 2.82925 17.0529 3.45803 16.6192 3.79997C11.8689 7.54525 7.72622 12.0006 3.76181 16.6625C3.40403 17.0832 2.77293 17.1343 2.3522 16.7765C1.93147 16.4187 1.88045 15.7876 2.23823 15.3669C6.23343 10.6688 10.4763 6.09632 15.3809 2.22941C15.8146 1.88747 16.4434 1.96185 16.7853 2.39555Z" fill="#1D1D1B"/>
<path fill-rule="evenodd" clip-rule="evenodd" d="M2.29719 2.30327C2.69007 1.91512 3.32322 1.91895 3.71138 2.31184C4.95913 3.5748 6.39667 4.9321 7.9159 6.36654C8.64776 7.05755 9.39857 7.76645 10.1563 8.49134C12.4686 10.7036 14.8218 13.0435 16.7676 15.3737C17.1216 15.7976 17.0649 16.4282 16.641 16.7822C16.217 17.1362 15.5864 17.0795 15.2324 16.6556C13.3621 14.4157 11.0766 12.1397 8.77367 9.93649C8.04007 9.23465 7.30217 8.53789 6.57633 7.85253C5.04162 6.40339 3.56084 5.00518 2.28862 3.71746C1.90047 3.32458 1.90431 2.69142 2.29719 2.30327Z" fill="#1D1D1B"/>
</svg>