<svg width="19" height="19" viewBox="0 0 19 19" fill="none" xmlns="http://www.w3.org/2000/svg">
<g clip-path="url(#clip0_929_24909)">
<path d="M18.7681 17.3407C17.101 15.181 15.1719 13.2455 13.027 11.5806C14.8486 9.06958 15.5728 5.37155 13.5795 2.86053C11.0486 -0.335302 5.54646 -1.12665 2.67966 1.89417C-0.067687 4.56498 -1.06808 8.99349 1.4329 12.1741C3.93388 15.3547 8.68948 15.5754 11.7131 12.9959L11.7504 12.9579C13.8955 14.5837 15.8121 16.5012 17.4467 18.6571C18.2231 19.6234 19.537 18.2614 18.7681 17.3407ZM2.34371 10.1273C1.15667 7.73799 2.18693 4.9987 3.98614 3.27904C6.00933 1.14087 10.1527 1.75721 12.0266 3.96386C14.0349 6.36073 12.3402 10.2566 10.1677 11.8469C7.56964 13.6959 3.85176 13.1405 2.35864 10.1273H2.34371Z" fill="#1D1D1B"/>
</g>
<defs>
<clipPath id="clip0_929_24909">
<rect width="19" height="19" fill="white"/>
</clipPath>
</defs>
</svg>