<svg xmlns="http://www.w3.org/2000/svg" viewBox="0 0 42.59 38.85"><title>icon how-to</title><g id="Calque_2" data-name="Calque 2"><polygon points="1.49 3.54 1.49 34.79 3.04 36.16 35.14 37.37 39.62 35.95 41.32 32.33 40.78 6.25 37.59 1.49 5.16 1.42 1.49 3.54" style="fill:#fff"/></g><g id="Calque_3" data-name="Calque 3"><polygon points="18.22 5.84 18 22.17 36.47 22.07 36.47 6.66 18.22 5.84" style="fill:#97cdeb"/><polygon points="18 28.5 17.8 37.6 37.42 36.88 37.14 27.7 18 28.5" style="fill:#97cdeb"/></g><g id="Calque_1" data-name="Calque 1"><path d="M38,22.37c-.07-5.24,0-10.48-.23-15.71a.51.51,0,0,0,0-.13,1,1,0,0,0-.89-1.07c-6.08-1.14-12.24.44-18.26-.82A1.34,1.34,0,0,0,17,5.85a101.08,101.08,0,0,0-.22,16.32,1.34,1.34,0,0,0,.25.66l.05.06h0a1.21,1.21,0,0,0,1.28.48c5.72-1.26,12.55,0,18.37.24a1.1,1.1,0,0,0,1-.46A1.17,1.17,0,0,0,38,22.37ZM19.14,20.7a101.6,101.6,0,0,1,.23-13.4C24.65,8,30,7,35.26,7.73c.2,4.44.15,8.88.19,13.33C30.19,20.75,24.35,19.91,19.14,20.7Z" style="fill:#1d1d1b"/><path d="M42.57,32.26c-.12-8.44-.38-16.88-.49-25.32A6.76,6.76,0,0,0,38.27.8a1.3,1.3,0,0,0-.52-.22,1.43,1.43,0,0,0-.39-.06C32.14-.37,26.91.13,21.64.23Q13.4.38,5.16.17a1.07,1.07,0,0,0-.45.07,6.38,6.38,0,0,0-3.88,2C0,3.2.1,4.48.08,5.66-.08,13,0,20.3.28,27.62c.1,2.89-1.24,8.76,2.43,9.75a1.22,1.22,0,0,0,.32,0H3c11.15,1,22.38,2,33.57,1.09a5.87,5.87,0,0,0,5-3.11A5.71,5.71,0,0,0,42.57,32.26ZM19.16,36.12a29.78,29.78,0,0,1,0-6.47c5.6-.26,11.2-.39,16.79-.65.13,2.32.26,4.63.38,7,0,0,0,0,0,.07A133.24,133.24,0,0,1,19.16,36.12ZM40,33a5.79,5.79,0,0,1-.57,1.24,4.32,4.32,0,0,1-.6.79l-.4-7.3a1.31,1.31,0,0,0-1.25-1.25c-6.37.32-12.76.43-19.14.75a1.21,1.21,0,0,0-.93.47,1.29,1.29,0,0,0-.32.78,45.08,45.08,0,0,0-.1,7.53c-4.44-.28-8.88-.66-13.31-1-1.11-.52-.71-12-.75-13.51-.11-5.26-.13-10.52,0-15.77,0-.5,0-1,0-1.52a.93.93,0,0,0,.06-.22,7,7,0,0,1,.88-.73,5,5,0,0,1,1.66-.52q7.41.19,14.82.08C25.7,2.67,31.5,2,37.09,3a4.18,4.18,0,0,1,2.49,4c.11,8.47.38,16.93.49,25.39,0,.06,0,.1,0,.15S40,32.82,40,33Z" style="fill:#1d1d1b"/><path d="M6.41,10.06c1.79-.14,3.58-.21,5.37-.2a1.25,1.25,0,0,0,0-2.5c-1.79,0-3.58.06-5.37.2-1.59.12-1.61,2.62,0,2.5Z" style="fill:#1d1d1b"/><path d="M7.34,12.1a7.82,7.82,0,0,1-.84,0l1.08.62h0l-.75,1.84c-.64.09,0,0,.2,0H8.28c1.57,0,3.14,0,4.71,0a1.25,1.25,0,0,0,0-2.5,41,41,0,0,0-6.83,0A1.25,1.25,0,0,0,5.42,14c.42.72,1.21.63,1.92.63a1.25,1.25,0,0,0,0-2.5Z" style="fill:#1d1d1b"/><path d="M6.87,19.31h4.54a1.25,1.25,0,0,0,0-2.5H6.87a1.25,1.25,0,0,0,0,2.5Z" style="fill:#1d1d1b"/><path d="M6.69,32.58l5.19-.13a1.25,1.25,0,0,0,0-2.5l-5.19.13a1.25,1.25,0,0,0,0,2.5Z" style="fill:#1d1d1b"/></g></svg>