<svg xmlns="http://www.w3.org/2000/svg" viewBox="0 0 195.76 195.09"><title>map cluster workspace</title><g id="Calque_1" data-name="Calque 1"><path d="M177.36,90.14a35.82,35.82,0,0,0-.37-4A72.2,72.2,0,0,0,173.9,74.5c-1.13-3.29-2.16-6.25-3.28-9.19-.27-.74-.53-1.49-.79-2.23a25.39,25.39,0,0,0-2.61-5.91c-1.1-1.63-2.13-3.34-3.12-5a65.33,65.33,0,0,0-5.74-8.47,25,25,0,0,0-5.82-5.38,19.56,19.56,0,0,1-4.45-3.77,29.92,29.92,0,0,0-9.86-7.63,105.4,105.4,0,0,0-13.61-5.68c-.56-.17-1.12-.36-1.66-.54a27.7,27.7,0,0,0-4.52-1.26c-2.09-.33-4.56-.74-7-1.29a42.91,42.91,0,0,0-8.19-1.05l-1.16,0c-1.6,0-3.2.12-4.77.23-1.09.07-2.22.15-3.34.19a26.46,26.46,0,0,0-4.89.51c-2.75.64-5.55,1.14-8.26,1.62l-.72.13c-.6.11-1.21.21-1.8.3a35.52,35.52,0,0,0-4.06.8c-1.38.38-2.75.89-4.08,1.4-.88.33-1.78.67-2.69,1a69.77,69.77,0,0,0-11.58,5.29,83.08,83.08,0,0,0-14.11,9.89,30,30,0,0,0-5,5.82c-1,1.47-2,3-2.9,4.51-.78,1.25-1.59,2.55-2.42,3.8a84.4,84.4,0,0,0-7.47,14l-.45,1.07c-1.1,2.6-2.23,5.29-3.16,8a60.13,60.13,0,0,0-2.48,12c-.24,1.81-.31,3.66-.38,5.46-.05,1.35-.1,2.74-.23,4.13a41.5,41.5,0,0,0,.46,10.18c.08.58.17,1.17.25,1.75a49.08,49.08,0,0,0,1.11,6,93.59,93.59,0,0,0,5.76,15.67,145.43,145.43,0,0,0,9.18,15.89,81.69,81.69,0,0,0,6.38,8.65,26.61,26.61,0,0,0,7.08,5.82c1.21.7,2.42,1.44,3.59,2.16s2.59,1.58,3.91,2.34c1.12.64,2.24,1.32,3.32,2a48.11,48.11,0,0,0,8.92,4.65c1.14.41,2.27.88,3.36,1.35a32.92,32.92,0,0,0,6.13,2.12c.87.18,1.78.32,2.65.46l1.61.26a24.66,24.66,0,0,0,2.63.26,26.71,26.71,0,0,1,2.78.28,52,52,0,0,0,6.93.53c1.38,0,2.8.08,4.21.2a43.25,43.25,0,0,0,10.9-.7c1.14-.2,2.3-.33,3.41-.46a35,35,0,0,0,5.09-.82c1.07-.29,2.14-.65,3.18-1,.77-.26,1.56-.52,2.35-.75a57.1,57.1,0,0,0,10.56-4.28c2.09-1.11,4.16-2.35,6.16-3.55,2.36-1.42,4.8-2.89,7.31-4.16a12.21,12.21,0,0,0,3.24-2.23c2.91-3,6.32-6.66,9.56-10.55a57.13,57.13,0,0,0,6.92-9.77c.54-1,1-2.09,1.52-3.12a48.26,48.26,0,0,1,2.33-4.59c2.7-4.52,5.87-14.55,6-14.78a30,30,0,0,0,1.25-6.67c.08-.93.19-1.86.3-2.77A41.18,41.18,0,0,0,178,102c-.05-3.36-.21-6.45-.49-9.44C177.45,91.73,177.41,90.92,177.36,90.14Z" style="fill:#cce6f5"/><path d="M194.6,91.47c-.08-.92-.14-1.87-.19-2.78a46.24,46.24,0,0,0-.46-5,88.62,88.62,0,0,0-3.76-14.16c-1.35-3.93-2.58-7.48-3.93-11-.32-.85-.62-1.74-.92-2.6A31.3,31.3,0,0,0,182,48.51c-1.29-1.91-2.5-3.92-3.68-5.87a79.69,79.69,0,0,0-7-10.32A32,32,0,0,0,164,25.58a21.53,21.53,0,0,1-4.95-4.18,37.36,37.36,0,0,0-12.3-9.51A125.78,125.78,0,0,0,130.33,5c-.65-.2-1.31-.42-2-.64a33.88,33.88,0,0,0-5.66-1.56c-2.47-.39-5.37-.87-8.2-1.52A53.37,53.37,0,0,0,104.44,0a66.86,66.86,0,0,0-7.25.24c-1.29.09-2.62.19-3.93.24a31.82,31.82,0,0,0-6.15.64c-3.23.75-6.56,1.35-9.77,1.92l-.86.16-2.11.34a45.57,45.57,0,0,0-5,1c-1.72.48-3.4,1.11-5,1.72-1,.39-2.1.79-3.15,1.15a82.62,82.62,0,0,0-14.09,6.43A100.69,100.69,0,0,0,30,25.82a37.51,37.51,0,0,0-6.27,7.26c-1.22,1.78-2.38,3.64-3.5,5.44-.92,1.48-1.88,3-2.86,4.49A102.85,102.85,0,0,0,8.28,60l-.54,1.28C6.43,64.44,5.07,67.68,3.93,71a73.07,73.07,0,0,0-3,14.6C.6,87.79.52,90,.44,92.22.38,93.81.31,95.45.17,97.06a52.16,52.16,0,0,0,.55,12.55c.11.69.2,1.38.3,2.07A59.79,59.79,0,0,0,2.39,119a113.67,113.67,0,0,0,7,19,177.33,177.33,0,0,0,11.06,19.15,96.85,96.85,0,0,0,7.74,10.49A33.61,33.61,0,0,0,37,175c1.43.83,2.87,1.71,4.26,2.56s3.11,1.9,4.71,2.82c1.31.75,2.63,1.56,3.91,2.34a59.73,59.73,0,0,0,11,5.69c1.32.47,2.65,1,3.93,1.57a40.25,40.25,0,0,0,7.61,2.64c1.08.22,2.18.39,3.25.55l1.89.31a31.62,31.62,0,0,0,3.32.33c1,.07,2.11.14,3.14.31a62.61,62.61,0,0,0,8.49.66c1.62.05,3.31.1,5,.23,1.08.08,2.17.13,3.3.13a58.29,58.29,0,0,0,10.12-1c1.3-.23,2.66-.39,4-.53a44.69,44.69,0,0,0,6.3-1c1.32-.36,2.63-.79,3.9-1.21.9-.3,1.83-.61,2.74-.88a70.07,70.07,0,0,0,12.9-5.22c2.54-1.35,5-2.85,7.44-4.29,2.79-1.68,5.68-3.41,8.62-4.91a15.81,15.81,0,0,0,4.3-3c3.49-3.64,7.59-8,11.49-12.68A69.75,69.75,0,0,0,181,148.44c.65-1.25,1.26-2.54,1.84-3.8a59,59,0,0,1,2.7-5.32c3.34-5.58,7.26-18,7.26-18a37.23,37.23,0,0,0,1.56-8.28c.1-1.09.23-2.19.36-3.25a54.15,54.15,0,0,0,.51-6.91C195.14,98.82,194.94,95.09,194.6,91.47Zm-16.72,16.19c-.11.91-.22,1.85-.31,2.78a29.68,29.68,0,0,1-1.25,6.69c-.08.24-3.26,10.29-6,14.84a47.35,47.35,0,0,0-2.34,4.6c-.48,1-1,2.11-1.52,3.13a57.52,57.52,0,0,1-7,9.8c-3.24,3.9-6.67,7.54-9.59,10.59a11.8,11.8,0,0,1-3.25,2.23c-2.52,1.28-5,2.75-7.33,4.18-2,1.2-4.09,2.45-6.19,3.57a57.22,57.22,0,0,1-10.6,4.28c-.79.24-1.58.5-2.35.76-1,.35-2.12.7-3.19,1a35.33,35.33,0,0,1-5.11.83c-1.12.12-2.28.26-3.42.46a43.55,43.55,0,0,1-10.94.7c-1.41-.12-2.84-.16-4.23-.2a52.32,52.32,0,0,1-7-.53,27.27,27.27,0,0,0-2.78-.28,24.75,24.75,0,0,1-2.65-.27l-1.61-.25c-.88-.14-1.79-.28-2.67-.46A33.33,33.33,0,0,1,70.54,174c-1.09-.46-2.23-.94-3.37-1.35a49.11,49.11,0,0,1-9-4.66c-1.08-.66-2.2-1.35-3.33-2-1.32-.76-2.64-1.57-3.92-2.35s-2.39-1.46-3.6-2.17a26.63,26.63,0,0,1-7.11-5.84,81.22,81.22,0,0,1-6.4-8.68A145.41,145.41,0,0,1,24.64,131a94.52,94.52,0,0,1-5.78-15.72,47.71,47.71,0,0,1-1.11-6c-.09-.58-.17-1.17-.26-1.75A42.85,42.85,0,0,1,17,97.26c.13-1.39.18-2.79.23-4.14.07-1.8.14-3.66.39-5.48a59.83,59.83,0,0,1,2.48-12c.94-2.71,2.07-5.41,3.17-8l.46-1.08a83.85,83.85,0,0,1,7.49-14.09c.84-1.26,1.65-2.56,2.43-3.81.93-1.5,1.9-3,2.91-4.53a30.55,30.55,0,0,1,5-5.84,83.24,83.24,0,0,1,14.16-9.92A68.3,68.3,0,0,1,67.41,23c.91-.3,1.82-.65,2.69-1,1.34-.5,2.71-1,4.1-1.41a40.83,40.83,0,0,1,4.08-.8c.59-.09,1.2-.18,1.8-.29l.72-.13c2.72-.49,5.54-1,8.29-1.63A25.76,25.76,0,0,1,94,17.29c1.12,0,2.26-.12,3.35-.2,1.57-.11,3.18-.22,4.78-.22l1.17,0A44,44,0,0,1,111.52,18c2.42.55,4.89,1,7,1.3a26.9,26.9,0,0,1,4.54,1.25c.54.19,1.1.38,1.66.55a104.2,104.2,0,0,1,13.66,5.7,29.89,29.89,0,0,1,9.89,7.66,19.72,19.72,0,0,0,4.47,3.78,25.54,25.54,0,0,1,5.84,5.39,64.9,64.9,0,0,1,5.76,8.51c1,1.65,2,3.36,3.13,5A25.46,25.46,0,0,1,170.08,63c.26.73.52,1.49.8,2.23,1.12,3,2.15,5.93,3.28,9.23a71.39,71.39,0,0,1,3.1,11.68,38.31,38.31,0,0,1,.38,4c0,.79.09,1.6.16,2.39.29,3,.45,6.11.5,9.48A41.35,41.35,0,0,1,177.88,107.66Z" style="fill:#97cdeb"/></g></svg>