<?xml version="1.0" encoding="UTF-8" standalone="no"?>
<svg
   viewBox="0 0 36.999999 37.000001"
   version="1.1"
   id="svg25"
   sodipodi:docname="map-collection-verified.svg"
   width="37"
   height="37"
   inkscape:version="1.1.2 (1:1.1+202202050942+0a00cf5339)"
   xmlns:inkscape="http://www.inkscape.org/namespaces/inkscape"
   xmlns:sodipodi="http://sodipodi.sourceforge.net/DTD/sodipodi-0.dtd"
   xmlns="http://www.w3.org/2000/svg"
   xmlns:svg="http://www.w3.org/2000/svg"
   xmlns:rdf="http://www.w3.org/1999/02/22-rdf-syntax-ns#"
   xmlns:cc="http://creativecommons.org/ns#"
   xmlns:dc="http://purl.org/dc/elements/1.1/">
  <sodipodi:namedview
     id="namedview27"
     pagecolor="#ffffff"
     bordercolor="#666666"
     borderopacity="1.0"
     inkscape:pageshadow="2"
     inkscape:pageopacity="0.0"
     inkscape:pagecheckerboard="0"
     showgrid="false"
     fit-margin-top="0"
     fit-margin-left="0"
     fit-margin-right="0"
     fit-margin-bottom="0"
     inkscape:zoom="2.3742281"
     inkscape:cx="152.26002"
     inkscape:cy="161.105"
     inkscape:window-width="1852"
     inkscape:window-height="1009"
     inkscape:window-x="0"
     inkscape:window-y="0"
     inkscape:window-maximized="1"
     inkscape:current-layer="svg25" />
  <defs
     id="defs4">
    <style
       id="style2">.cls-1{fill:#ded1e7;}.cls-2{fill:#baa0cc;}.cls-3{fill:#fff;}.cls-4{fill:#141414;}</style>
  </defs>
  <title
     id="title6">map icon collection</title>
  <metadata
     id="metadata29">
    <rdf:RDF>
      <cc:Work
         rdf:about="">
        <dc:title>map icon collection</dc:title>
      </cc:Work>
    </rdf:RDF>
  </metadata>
  <g
     id="g232">
    <g
       id="Calque_1"
       data-name="Calque 1"
       transform="matrix(0.11476454,0,0,0.11482585,0.00220673,-0.00262982)">
      <path
         class="cls-1"
         d="m 292.9,148.91 a 63.43,63.43 0 0 0 -0.62,-6.61 118.32,118.32 0 0 0 -5.1,-19.22 c -1.87,-5.43 -3.57,-10.32 -5.41,-15.19 -0.46,-1.21 -0.89,-2.46 -1.31,-3.67 a 41.78,41.78 0 0 0 -4.31,-9.77 c -1.81,-2.69 -3.51,-5.5 -5.16,-8.22 a 108.1,108.1 0 0 0 -9.47,-14 42.3,42.3 0 0 0 -9.61,-8.89 31.81,31.81 0 0 1 -7.36,-6.22 49.32,49.32 0 0 0 -16.27,-12.59 171.46,171.46 0 0 0 -22.48,-9.38 c -0.92,-0.29 -1.85,-0.6 -2.74,-0.91 a 45.22,45.22 0 0 0 -7.48,-2.06 c -3.45,-0.55 -7.51,-1.23 -11.49,-2.14 A 72.67,72.67 0 0 0 170.55,28.3 c -0.64,0 -1.28,0 -1.92,0 -2.63,0 -5.28,0.19 -7.86,0.37 -1.8,0.13 -3.67,0.26 -5.51,0.33 a 42.8,42.8 0 0 0 -8.09,0.83 c -4.53,1.06 -9.16,1.89 -13.64,2.68 l -1.19,0.22 -3,0.49 a 61.8,61.8 0 0 0 -6.72,1.31 c -2.28,0.63 -4.54,1.49 -6.73,2.32 -1.45,0.54 -2.94,1.11 -4.44,1.61 A 112.35,112.35 0 0 0 92.33,47.2 136.45,136.45 0 0 0 69.06,63.49 49.81,49.81 0 0 0 60.77,73.11 c -1.66,2.42 -3.25,5 -4.79,7.44 -1.29,2.07 -2.62,4.21 -4,6.27 A 138.94,138.94 0 0 0 39.65,110 l -0.74,1.78 c -1.81,4.29 -3.68,8.73 -5.23,13.18 -2.17,6.26 -3.13,12.66 -4.09,19.77 -0.4,3 -0.51,6 -0.62,9 -0.09,2.23 -0.17,4.54 -0.38,6.82 a 69.41,69.41 0 0 0 0.75,16.82 l 0.42,2.89 a 81.83,81.83 0 0 0 1.83,9.91 155,155 0 0 0 9.51,25.87 240.15,240.15 0 0 0 15.17,26.25 132.07,132.07 0 0 0 10.53,14.29 43.9,43.9 0 0 0 11.69,9.62 c 2,1.15 4,2.38 5.93,3.56 2.11,1.29 4.28,2.63 6.46,3.87 1.85,1.06 3.69,2.19 5.47,3.28 4.66,2.85 9.48,5.8 14.74,7.67 1.89,0.67 3.75,1.46 5.56,2.22 a 54.44,54.44 0 0 0 10.1,3.52 c 1.45,0.29 2.94,0.53 4.39,0.75 l 2.66,0.43 a 42.72,42.72 0 0 0 4.35,0.43 45.82,45.82 0 0 1 4.58,0.46 86.12,86.12 0 0 0 11.44,0.87 c 2.28,0.07 4.64,0.15 7,0.33 a 70.4,70.4 0 0 0 18,-1.15 c 1.88,-0.33 3.79,-0.55 5.64,-0.76 a 57,57 0 0 0 8.4,-1.36 c 1.76,-0.47 3.53,-1.06 5.25,-1.63 1.26,-0.42 2.57,-0.85 3.87,-1.24 a 94.93,94.93 0 0 0 17.44,-7.05 c 3.45,-1.84 6.87,-3.9 10.18,-5.88 3.9,-2.34 7.93,-4.76 12.07,-6.87 a 19.86,19.86 0 0 0 5.35,-3.68 c 4.81,-5 10.45,-11 15.79,-17.43 4.06,-4.88 8.29,-10.14 11.43,-16.12 0.88,-1.68 1.71,-3.45 2.5,-5.16 a 84.16,84.16 0 0 1 3.85,-7.57 c 4.47,-7.48 9.7,-24 9.82,-24.42 a 49.32,49.32 0 0 0 2.07,-11 c 0.14,-1.53 0.32,-3.08 0.5,-4.57 a 67.9,67.9 0 0 0 0.69,-9.25 c -0.08,-5.55 -0.35,-10.65 -0.81,-15.59 -0.16,-1.33 -0.21,-2.66 -0.31,-3.95 z"
         id="path8" />
      <path
         class="cls-2"
         d="m 321.37,151.1 c -0.15,-1.52 -0.24,-3.08 -0.32,-4.6 a 78.56,78.56 0 0 0 -0.77,-8.17 143.72,143.72 0 0 0 -6.2,-23.38 c -2.24,-6.5 -4.27,-12.36 -6.48,-18.2 -0.53,-1.41 -1,-2.88 -1.53,-4.3 -1.46,-4.22 -3,-8.59 -5.46,-12.29 -2.13,-3.15 -4.14,-6.48 -6.08,-9.7 -3.48,-5.76 -7.07,-11.71 -11.55,-17 -4.34,-5.15 -8,-8.48 -12.08,-11.13 a 35.56,35.56 0 0 1 -8.18,-6.9 61.56,61.56 0 0 0 -20.31,-15.71 c -8.53,-4.1 -17.65,-8.34 -27.18,-11.34 -1.07,-0.34 -2.16,-0.7 -3.22,-1.06 A 56.74,56.74 0 0 0 202.65,4.74 C 198.58,4.1 193.79,3.3 189.12,2.23 a 88.87,88.87 0 0 0 -16.65,-2.18 107.74,107.74 0 0 0 -12,0.4 c -2.13,0.15 -4.33,0.3 -6.49,0.38 A 53.67,53.67 0 0 0 143.85,1.9 C 138.51,3.14 133,4.12 127.71,5.07 l -1.42,0.25 c -1.15,0.21 -2.33,0.39 -3.48,0.57 a 75.73,75.73 0 0 0 -8.31,1.64 c -2.84,0.78 -5.6,1.83 -8.27,2.84 -1.7,0.64 -3.46,1.31 -5.2,1.89 a 137,137 0 0 0 -23.27,10.62 166.15,166.15 0 0 0 -28.27,19.81 62.25,62.25 0 0 0 -10.35,12 c -2,2.95 -3.93,6 -5.78,9 -1.52,2.45 -3.1,5 -4.72,7.41 a 168.94,168.94 0 0 0 -15,28.12 l -0.89,2.12 c -2.18,5.16 -4.42,10.5 -6.3,15.9 -2.67,7.7 -3.84,15.48 -5,24.11 -0.49,3.7 -0.64,7.42 -0.77,11 -0.1,2.62 -0.2,5.34 -0.44,8 a 85.3,85.3 0 0 0 0.91,20.72 c 0.17,1.14 0.34,2.28 0.5,3.42 A 99.79,99.79 0 0 0 3.9,196.65 188.28,188.28 0 0 0 15.46,228 c 5.5,11.53 12.31,22.36 18.26,31.61 A 163.94,163.94 0 0 0 46.5,276.9 55.17,55.17 0 0 0 61.16,289 c 2.36,1.37 4.73,2.82 7,4.22 2.53,1.55 5.15,3.15 7.78,4.65 2.17,1.25 4.35,2.59 6.46,3.88 5.68,3.47 11.55,7.06 18.09,9.39 2.18,0.78 4.36,1.7 6.48,2.6 a 66.64,66.64 0 0 0 12.57,4.35 c 1.79,0.37 3.61,0.65 5.36,0.92 1,0.16 2.09,0.32 3.13,0.5 a 49.13,49.13 0 0 0 5.48,0.55 c 1.71,0.11 3.48,0.23 5.18,0.51 a 102.69,102.69 0 0 0 14,1.09 c 2.69,0.08 5.47,0.17 8.18,0.38 1.78,0.14 3.59,0.21 5.45,0.21 a 96.17,96.17 0 0 0 16.71,-1.62 c 2.16,-0.38 4.39,-0.63 6.55,-0.87 A 71.57,71.57 0 0 0 200,318 c 2.18,-0.58 4.34,-1.3 6.43,-2 1.48,-0.49 3,-1 4.53,-1.45 A 116.23,116.23 0 0 0 232.31,306 c 4.18,-2.23 8.29,-4.7 12.27,-7.09 4.61,-2.76 9.38,-5.63 14.24,-8.1 a 25.67,25.67 0 0 0 7.1,-4.93 c 5.77,-6 12.54,-13.2 19,-20.93 4.94,-5.94 10.09,-12.35 14,-19.72 1.08,-2.06 2.08,-4.2 3,-6.27 a 96.62,96.62 0 0 1 4.46,-8.79 c 5.51,-9.21 12,-29.68 12,-29.74 a 61.76,61.76 0 0 0 2.57,-13.68 c 0.15,-1.79 0.37,-3.61 0.58,-5.37 a 83.79,83.79 0 0 0 0.85,-11.4 c -0.13,-6.75 -0.46,-12.91 -1.01,-18.88 z m -27.62,26.74 c -0.18,1.5 -0.37,3 -0.51,4.58 a 48.48,48.48 0 0 1 -2.07,11.05 c -0.12,0.39 -5.37,17 -9.86,24.5 a 84.77,84.77 0 0 0 -3.86,7.6 c -0.8,1.72 -1.62,3.49 -2.51,5.17 -3.15,6 -7.39,11.29 -11.47,16.19 -5.36,6.44 -11,12.45 -15.84,17.48 a 19.66,19.66 0 0 1 -5.37,3.7 c -4.15,2.11 -8.2,4.54 -12.11,6.89 -3.32,2 -6.76,4.05 -10.22,5.9 a 94.88,94.88 0 0 1 -17.5,7.07 c -1.31,0.39 -2.61,0.83 -3.88,1.25 -1.73,0.57 -3.51,1.16 -5.27,1.64 a 58.76,58.76 0 0 1 -8.43,1.37 c -1.86,0.2 -3.77,0.42 -5.65,0.75 a 71,71 0 0 1 -18.07,1.16 c -2.33,-0.19 -4.7,-0.26 -7,-0.33 a 85.2,85.2 0 0 1 -11.48,-0.88 45.73,45.73 0 0 0 -4.59,-0.46 43.12,43.12 0 0 1 -4.37,-0.43 l -2.66,-0.43 c -1.46,-0.23 -3,-0.46 -4.4,-0.76 a 53.94,53.94 0 0 1 -10.15,-3.52 c -1.81,-0.77 -3.68,-1.56 -5.57,-2.23 -5.28,-1.88 -10.12,-4.84 -14.79,-7.7 -1.79,-1.1 -3.64,-2.23 -5.49,-3.29 -2.19,-1.25 -4.37,-2.59 -6.49,-3.88 -1.93,-1.19 -3.94,-2.42 -6,-3.58 A 44,44 0 0 1 66.47,257 134.37,134.37 0 0 1 55.9,242.68 243.44,243.44 0 0 1 40.68,216.34 a 157,157 0 0 1 -9.54,-26 82.5,82.5 0 0 1 -1.84,-9.95 c -0.13,-1 -0.27,-1.93 -0.42,-2.9 a 69.79,69.79 0 0 1 -0.75,-16.87 c 0.21,-2.29 0.3,-4.6 0.38,-6.84 0.11,-3 0.23,-6 0.63,-9 0.95,-7.13 1.92,-13.55 4.1,-19.83 1.55,-4.47 3.43,-8.93 5.24,-13.24 l 0.75,-1.78 A 139.39,139.39 0 0 1 51.61,86.66 c 1.38,-2.08 2.72,-4.22 4,-6.3 1.54,-2.47 3.13,-5 4.8,-7.47 a 50.79,50.79 0 0 1 8.32,-9.65 137.41,137.41 0 0 1 23.4,-16.38 112.53,112.53 0 0 1 19.18,-8.76 c 1.51,-0.51 3,-1.07 4.46,-1.62 2.2,-0.84 4.47,-1.7 6.76,-2.33 a 62.19,62.19 0 0 1 6.74,-1.32 c 1,-0.15 2,-0.31 3,-0.49 l 1.19,-0.21 c 4.5,-0.8 9.14,-1.63 13.69,-2.69 a 43.09,43.09 0 0 1 8.11,-0.84 c 1.86,-0.07 3.73,-0.2 5.54,-0.33 2.59,-0.18 5.25,-0.37 7.89,-0.37 0.64,0 1.28,0 1.92,0 a 72.36,72.36 0 0 1 13.59,1.75 c 4,0.91 8.07,1.59 11.53,2.14 a 45.25,45.25 0 0 1 7.5,2.08 c 0.9,0.3 1.83,0.61 2.75,0.9 a 172.13,172.13 0 0 1 22.56,9.42 49.56,49.56 0 0 1 16.33,12.63 32.27,32.27 0 0 0 7.38,6.25 42.08,42.08 0 0 1 9.62,8.93 108.16,108.16 0 0 1 9.5,14 c 1.65,2.73 3.36,5.55 5.18,8.25 a 41.92,41.92 0 0 1 4.32,9.81 c 0.42,1.21 0.85,2.46 1.32,3.68 1.85,4.88 3.55,9.79 5.42,15.24 a 118.35,118.35 0 0 1 5.12,19.28 59,59 0 0 1 0.62,6.63 c 0.08,1.3 0.15,2.64 0.28,4 0.46,5 0.73,10.08 0.81,15.65 a 68.33,68.33 0 0 1 -0.69,9.3 z"
         id="path10" />
      <path
         class="cls-3"
         d="M 128.68,215.16 A 196.3,196.3 0 0 1 104.41,214 c -3.93,-0.45 -8,-1.06 -12.14,-1.83 0.35,-1.12 0.76,-2.28 1.25,-3.51 a 348.26,348.26 0 0 1 16.31,-33.89 q 2.27,0.65 4.59,1.08 c 1.86,0.34 7.29,1.83 7.35,0 0.2,-6.31 0.15,-18 -0.33,-23.67 0,-0.25 0,-0.52 -0.06,-0.83 -0.26,-3.6 0.83,-8.86 -4.63,-10.92 -5.63,-2.12 -28.68,20.69 -28.95,21 -1.19,1.41 6.24,5.2 7.71,6.43 -3,5.73 -5.75,11.18 -8.38,16.61 -0.78,1.62 -1.61,3.25 -2.49,5 -3.81,7.51 -7.75,15.28 -8.94,23.65 a 12,12 0 0 0 2.06,9.3 c 3.59,4.69 10.15,5.52 16,6.24 0.84,0.11 1.66,0.21 2.45,0.33 a 208.92,208.92 0 0 0 29.95,2.17 h 2.65 a 7.63,7.63 0 0 0 6.74,-3.92 8.51,8.51 0 0 0 -0.09,-8.38 7.55,7.55 0 0 0 -6.78,-3.7 z"
         id="path12" />
      <path
         class="cls-4"
         d="m 126.12,234.39 a 212.45,212.45 0 0 1 -30.41,-2.21 c -0.76,-0.11 -1.55,-0.21 -2.37,-0.31 -6.13,-0.77 -13.73,-1.72 -18.14,-7.49 -2.44,-3.19 -3.34,-7.13 -2.69,-11.72 1.26,-8.9 5.33,-16.91 9.26,-24.65 0.87,-1.71 1.68,-3.33 2.46,-4.93 2.25,-4.64 4.57,-9.27 7.07,-14.1 -4,-2.47 -6.42,-4.15 -6.81,-6.57 a 3.79,3.79 0 0 1 0.84,-3 c 0.3,-0.36 6.32,-6.31 12.86,-11.82 12.65,-10.66 16.94,-11.17 19.7,-10.14 6.59,2.48 6.63,8.4 6.66,11.94 0,0.64 0,1.25 0,1.77 0,0.3 0,0.55 0.06,0.79 0.52,6.2 0.53,18.15 0.34,24 a 4,4 0 0 1 -1.52,3 c -2,1.55 -5,1.06 -8.7,0.27 l -0.94,-0.2 c -0.78,-0.14 -1.57,-0.31 -2.35,-0.49 A 333.85,333.85 0 0 0 96.6,209.67 c 2.78,0.45 5.51,0.83 8.17,1.13 a 189.73,189.73 0 0 0 23.86,1.13 10.74,10.74 0 0 1 9.57,5.26 11.76,11.76 0 0 1 0.13,11.6 10.9,10.9 0 0 1 -9.51,5.58 h -2.69 z M 92.06,161.78 c 1,0.68 2.16,1.41 2.89,1.87 a 24.29,24.29 0 0 1 2.62,1.75 l 2,1.66 -1.21,2.31 c -3,5.72 -5.72,11.12 -8.34,16.53 -0.8,1.65 -1.63,3.29 -2.51,5 -3.69,7.27 -7.51,14.8 -8.62,22.64 a 8.79,8.79 0 0 0 1.42,6.89 c 2.77,3.62 8.38,4.32 13.81,5 0.88,0.12 1.7,0.22 2.51,0.34 a 205.26,205.26 0 0 0 29.48,2.14 v 0 h 2.61 a 4.41,4.41 0 0 0 4,-2.28 5.32,5.32 0 0 0 0,-5.16 4.3,4.3 0 0 0 -3.92,-2.1 v 0 a 196.85,196.85 0 0 1 -24.67,-1.17 c -4,-0.45 -8.16,-1.07 -12.37,-1.86 l -3.56,-0.66 1.07,-3.46 c 0.37,-1.21 0.81,-2.44 1.34,-3.76 A 355.49,355.49 0 0 1 107,173.26 l 1.23,-2.29 2.5,0.71 c 1.4,0.4 2.84,0.74 4.28,1 0.3,0.05 0.69,0.14 1.12,0.23 0.43,0.09 1.56,0.33 2.48,0.48 0.13,-6.72 0,-16.24 -0.37,-21 0,-0.26 0,-0.53 -0.07,-0.84 0,-0.75 -0.06,-1.5 -0.06,-2.22 0,-3.77 -0.34,-5.06 -2.3,-5.87 -0.59,0.08 -3.93,0.87 -14,9.4 -3.94,3.43 -7.61,6.87 -9.75,8.92 z"
         id="path14" />
      <path
         class="cls-3"
         d="m 242.39,198.6 -0.1,-0.26 c -2.47,-6.25 -5.06,-12.58 -7.55,-18.69 v -0.09 c -1.23,-3 -2.47,-6 -3.69,-9.06 a 8.11,8.11 0 0 0 -4.86,-4.68 8.91,8.91 0 0 0 -6.21,0.15 7.15,7.15 0 0 0 -4.07,9.61 l 8.64,21.42 c 0.32,0.8 0.65,1.59 1,2.39 v 0.08 c 1,2.47 2.07,5 2.93,7.53 l 0.28,0.75 a 35.75,35.75 0 0 1 1.42,4.63 l -0.89,0.11 c -0.48,0.06 -0.83,0.1 -1.13,0.16 -1.73,0.32 -3.5,0.63 -5.26,0.91 -4.18,0.66 -8.56,1.17 -13,1.53 -5.81,0.47 -11.9,0.65 -18.14,0.55 -0.26,-2.71 -1.14,-14.46 -6.83,-12.55 0,0 -30.52,18.14 -28.46,21.65 1.22,2.07 29,18.53 33.89,16.72 2.36,-0.88 2.48,-8.85 2.53,-9.82 a 197.4,197.4 0 0 0 24.08,-1.21 c 4.81,-0.55 9.5,-1.24 14,-2.06 l 1.34,-0.23 c 3.35,-0.56 7.93,-1.32 10.94,-4.79 6.1,-7.18 1.75,-18.18 -0.86,-24.75 z"
         id="path16" />
      <path
         class="cls-4"
         d="m 189.48,244.81 c -2.42,0 -7.42,-1.22 -19,-7.45 -3.67,-2 -7.55,-4.23 -10.64,-6.19 -5.32,-3.36 -5.82,-4.21 -6.18,-4.83 -2.08,-3.54 2.05,-7.06 4.26,-9 a 120,120 0 0 1 10.17,-7.5 c 7.36,-5 15.08,-9.56 15.16,-9.6 l 0.3,-0.18 0.32,-0.11 a 6.3,6.3 0 0 1 5.62,0.64 c 3.25,2.12 4.52,7.06 5.14,11.77 5.14,0 10.17,-0.18 15,-0.56 4.39,-0.36 8.69,-0.86 12.79,-1.51 1.22,-0.19 2.44,-0.4 3.66,-0.61 l -0.32,-0.91 c -0.12,-0.31 -0.22,-0.59 -0.29,-0.8 -0.84,-2.42 -1.88,-4.93 -2.88,-7.35 v -0.08 c -0.33,-0.8 -0.66,-1.6 -1,-2.41 l -8.68,-21.39 a 10.38,10.38 0 0 1 5.82,-13.74 12.22,12.22 0 0 1 8.49,-0.21 11.27,11.27 0 0 1 6.77,6.52 q 1.84,4.53 3.7,9.05 v 0.09 c 2.5,6.12 5.09,12.45 7.57,18.73 l 0.1,0.25 c 2.69,6.78 7.68,19.39 0.23,28 -3.77,4.35 -9.23,5.26 -12.85,5.86 h -0.05 l -1.24,0.21 c -4.53,0.83 -9.3,1.53 -14.18,2.09 a 198.55,198.55 0 0 1 -21.4,1.24 c -0.51,5.81 -1.86,8.65 -4.45,9.61 a 5.1,5.1 0 0 1 -1.94,0.37 z m -29,-21 a 145.62,145.62 0 0 0 13.12,7.85 c 8.76,4.71 13.43,6.31 15.23,6.6 a 23.86,23.86 0 0 0 0.84,-6.45 c 0,-0.19 0,-0.33 0,-0.42 l 0.18,-3.07 h 3.07 a 192.65,192.65 0 0 0 23.68,-1.19 c 4.74,-0.54 9.36,-1.22 13.75,-2 l 1.34,-0.23 h 0.05 c 3,-0.5 6.78,-1.13 9,-3.72 4.89,-5.67 1,-15.53 -1.34,-21.42 v 0 l -0.1,-0.26 c -2.47,-6.25 -5,-12.56 -7.54,-18.66 v -0.09 c -1.23,-3 -2.47,-6 -3.69,-9.07 a 4.87,4.87 0 0 0 -2.94,-2.85 5.74,5.74 0 0 0 -3.92,0.1 3.94,3.94 0 0 0 -2.3,5.41 l 8.67,21.39 1,2.37 v 0.08 c 1,2.51 2.1,5.1 3,7.7 0.07,0.18 0.15,0.42 0.25,0.7 a 39.8,39.8 0 0 1 1.56,5.07 l 0.72,3.41 -3.45,0.46 -0.94,0.11 c -0.41,0.05 -0.72,0.09 -0.91,0.13 -1.77,0.33 -3.57,0.64 -5.36,0.92 -4.26,0.68 -8.73,1.2 -13.28,1.57 -5.91,0.47 -12.11,0.65 -18.45,0.55 h -2.89 l -0.3,-3.2 c -0.69,-7.42 -2,-9.12 -2.43,-9.47 -1.61,1 -7,4.24 -12.57,7.93 -8.22,5.41 -11.67,8.33 -13.1,9.78 z M 159,222.7 Z"
         id="path18" />
      <path
         class="cls-3"
         d="m 161.92,83.91 a 20.16,20.16 0 0 1 2.64,-2.59 19.23,19.23 0 0 1 1.69,2.56 c 0.33,0.56 0.64,1.09 1,1.56 3.26,4.83 6.48,9.76 9.57,14.67 5,8 10,16.34 14.71,24.9 -2.21,1.94 -7,4.25 -6.33,8.29 1.23,7 30.08,21 32.18,19.08 5.16,-4.77 7.75,-34.49 0,-39.4 -3.41,-2.16 -10.25,2 -12.45,3.23 -5.69,-10.2 -11.67,-20.15 -17.78,-29.63 -0.73,-1.14 -1.52,-2.47 -2.35,-3.88 -4,-6.78 -9,-15.23 -16.73,-17.18 a 14.51,14.51 0 0 0 -11.33,2 c -8,4.82 -13.57,13.6 -18.47,21.36 l -1.82,2.85 c -6.21,9.64 -11.84,19.54 -16.53,28 a 7.72,7.72 0 0 0 -0.59,6.45 8.43,8.43 0 0 0 3.79,4.43 8.14,8.14 0 0 0 5.64,0.9 7.58,7.58 0 0 0 5,-3.84 c 1.08,-1.93 2.15,-3.88 3.23,-5.84 7.24,-13.14 14.72,-26.72 24.55,-37.5 z"
         id="path20" />
      <path
         class="cls-4"
         d="m 216.64,155.8 a 15,15 0 0 1 -4.52,-1 97.72,97.72 0 0 1 -17.5,-8.54 c -11.72,-7.19 -12.41,-11.13 -12.64,-12.43 -0.83,-4.77 2.76,-7.8 5.33,-9.71 C 183,116.48 178.55,109 174,101.82 c -3.06,-4.86 -6.25,-9.77 -9.5,-14.57 q -0.28,-0.41 -0.54,-0.84 l -0.07,0.08 c -9.58,10.51 -17,23.92 -24.12,36.9 -1.08,2 -2.15,3.92 -3.23,5.85 a 10.75,10.75 0 0 1 -7.18,5.42 11.29,11.29 0 0 1 -7.89,-1.24 11.72,11.72 0 0 1 -5.26,-6.14 10.93,10.93 0 0 1 0.81,-9.12 c 4.72,-8.46 10.38,-18.41 16.64,-28.12 0.59,-0.92 1.19,-1.87 1.8,-2.84 5.09,-8 10.87,-17.18 19.53,-22.4 4.58,-2.75 9.22,-3.56 13.79,-2.41 9,2.28 14.39,11.37 18.71,18.67 0.82,1.38 1.59,2.68 2.29,3.78 5.59,8.65 11.07,17.73 16.32,27 3.67,-1.89 9.05,-4 12.93,-1.59 3.39,2.15 5.46,7 6.15,14.52 0.85,9.31 -0.69,25.34 -5.69,30 a 4,4 0 0 1 -2.85,1.03 z M 165.1,77 167,79.23 a 23.3,23.3 0 0 1 2,3 c 0.3,0.52 0.58,1 0.84,1.38 3.29,4.87 6.53,9.83 9.63,14.76 5,8 10,16.44 14.8,25 l 1.27,2.28 -2,1.71 c -0.57,0.51 -1.21,1 -1.89,1.47 -2,1.44 -3.59,2.72 -3.39,3.84 0.2,1.12 4,5 12.81,9.89 a 72.17,72.17 0 0 0 14.61,6.56 c 1.94,-3.41 3.91,-14.2 3,-23.83 -0.55,-6 -2,-8.94 -3.17,-9.65 -0.2,-0.13 -1.17,-0.29 -3.27,0.44 a 35.11,35.11 0 0 0 -5.22,2.5 l -0.71,0.39 -2.8,1.52 -1.55,-2.78 c -5.65,-10.13 -11.6,-20 -17.67,-29.45 -0.77,-1.2 -1.57,-2.55 -2.42,-4 -3.71,-6.28 -8.33,-14.08 -14.74,-15.7 -2.88,-0.73 -5.79,-0.18 -8.88,1.68 C 151,74.76 145.66,83.2 141,90.65 q -0.93,1.48 -1.83,2.88 c -6.16,9.56 -11.76,19.4 -16.42,27.77 a 4.44,4.44 0 0 0 -0.38,3.79 5.25,5.25 0 0 0 2.33,2.7 4.9,4.9 0 0 0 3.4,0.56 4.34,4.34 0 0 0 2.89,-2.26 q 1.62,-2.88 3.22,-5.82 c 7.33,-13.3 14.91,-27 25,-38.12 l 0.36,-0.4 a 20.39,20.39 0 0 1 3.17,-3.06 z"
         id="path22" />
    </g>
    <g
       id="Group-14"
       transform="matrix(0.10416667,0,0,0.10869565,-0.01485189,21.925672)"
       style="fill:none;fill-rule:evenodd;stroke:none;stroke-width:1;opacity:0.7">
      <path
         d="m 73.142578,13.683817 16,-12.99999998 14.000002,6.49999998 4,17.5 h 20 l 4,6 -4,22 17,13 -1,10 -17,11 7,22.000003 -7,8 h -19 l -5.94336,20.14821 c -6.000001,1.23452 -9.333335,1.85179 -10.000001,1.85179 -0.666667,0 -7.01888,-3.33334 -19.056641,-10 l -15,10 -13,-4 c -3.924479,-10.46905 -6.238932,-16.08631 -6.943359,-16.85179 -0.704427,-0.76548 -7.704427,-1.14821 -21,-1.14821 l -5.056641,-8 6,-23.851789 -16.99999988,-10.148214 1.99999998,-11 15.9999999,-10 -7,-21 8,-9 20,2 7,-22 12,-2 z"
         id="Path-2"
         fill="#20b7eb" />
      <g
         id="Group"
         transform="translate(42.142578,44.383817)"
         fill-rule="nonzero"
         fill="#ffffff">
        <path
           d="m 19.510622,44.654212 c 3.358671,-4.897174 6.516666,-9.490648 9.822528,-14.160046 1.436412,-2.030998 4.108562,-4.745324 5.597784,-6.60549 2.619341,-3.264783 15.931637,-20.4437302 18.635472,-23.25296178 0,0 12.703093,7.12113438 12,7.99999998 -4,4.9999998 -22.821435,32.8113658 -27,37.9999998 -1.132466,1.406213 -2.465799,2.406213 -4,3 l 6,2"
           id="Shape" />
        <path
           d="m 23.460436,20.18413 c 0.851394,0.53201 4.029337,14.309593 4.983723,18.443495 1.090205,4.722195 2.347831,8.898767 3.817546,16.535609 0,0 -1.760148,0.929746 -9.327642,3.604869 -1.115686,0.394397 -4.133902,0.954386 -4.133902,0.954386 0,0 -2.426885,-7.353331 -2.756822,-8.797723 C 14.738592,45.300854 10.119721,28.410135 8.8327148,22.835499 8.5145859,21.457532 22.612388,19.654211 23.460436,20.18413 Z"
           id="path181"
           transform="rotate(-32,20.544559,39.905921)" />
      </g>
    </g>
  </g>
</svg>
