<?xml version="1.0" encoding="UTF-8" standalone="no"?>
<svg
   viewBox="0 0 37 37.000001"
   version="1.1"
   id="svg170"
   sodipodi:docname="map-community-verified.svg"
   width="37"
   height="37"
   inkscape:version="1.1.2 (1:1.1+202202050942+0a00cf5339)"
   xmlns:inkscape="http://www.inkscape.org/namespaces/inkscape"
   xmlns:sodipodi="http://sodipodi.sourceforge.net/DTD/sodipodi-0.dtd"
   xmlns="http://www.w3.org/2000/svg"
   xmlns:svg="http://www.w3.org/2000/svg"
   xmlns:rdf="http://www.w3.org/1999/02/22-rdf-syntax-ns#"
   xmlns:cc="http://creativecommons.org/ns#"
   xmlns:dc="http://purl.org/dc/elements/1.1/">
  <sodipodi:namedview
     id="namedview172"
     pagecolor="#ffffff"
     bordercolor="#666666"
     borderopacity="1.0"
     inkscape:pageshadow="2"
     inkscape:pageopacity="0.0"
     inkscape:pagecheckerboard="0"
     showgrid="false"
     fit-margin-top="0"
     fit-margin-left="0"
     fit-margin-right="0"
     fit-margin-bottom="0"
     inkscape:zoom="2.3735651"
     inkscape:cx="160.30738"
     inkscape:cy="161.14999"
     inkscape:window-width="1852"
     inkscape:window-height="1009"
     inkscape:window-x="0"
     inkscape:window-y="0"
     inkscape:window-maximized="1"
     inkscape:current-layer="svg170" />
  <defs
     id="defs134">
    <style
       id="style132">.cls-1{fill:#fff;}.cls-2,.cls-4{fill:#8ec685;}.cls-2{opacity:0.5;}.cls-3{fill:#141414;}</style>
  </defs>
  <title
     id="title136">map icon community</title>
  <metadata
     id="metadata174">
    <rdf:RDF>
      <cc:Work
         rdf:about="">
        <dc:title>map icon community</dc:title>
      </cc:Work>
    </rdf:RDF>
  </metadata>
  <g
     id="g319">
    <g
       id="Calque_2"
       data-name="Calque 2"
       transform="matrix(0.11476454,0,0,0.11483806,0.20304467,-0.01230817)">
      <path
         class="cls-1"
         d="m 291.13,149 a 60.8,60.8 0 0 0 -0.61,-6.61 118.44,118.44 0 0 0 -5.11,-19.22 c -1.86,-5.43 -3.56,-10.32 -5.4,-15.19 -0.46,-1.21 -0.89,-2.46 -1.31,-3.67 a 41.78,41.78 0 0 0 -4.31,-9.77 c -1.82,-2.69 -3.52,-5.5 -5.16,-8.22 a 108.1,108.1 0 0 0 -9.47,-14 42.07,42.07 0 0 0 -9.61,-8.89 31.81,31.81 0 0 1 -7.36,-6.22 A 49.32,49.32 0 0 0 226.52,44.62 170.67,170.67 0 0 0 204,35.25 c -0.93,-0.29 -1.85,-0.6 -2.74,-0.91 a 45.22,45.22 0 0 0 -7.48,-2.06 c -3.45,-0.55 -7.51,-1.23 -11.49,-2.14 A 71.94,71.94 0 0 0 168.75,28.4 c -0.64,0 -1.28,0 -1.92,0 -2.63,0 -5.28,0.19 -7.86,0.37 -1.81,0.13 -3.67,0.26 -5.52,0.33 a 42.78,42.78 0 0 0 -8.08,0.83 c -4.53,1.06 -9.16,1.89 -13.64,2.68 l -1.19,0.22 -3,0.48 a 62.13,62.13 0 0 0 -6.71,1.32 c -2.28,0.63 -4.54,1.49 -6.73,2.31 -1.45,0.55 -3,1.12 -4.45,1.62 A 112.57,112.57 0 0 0 90.6,47.25 137.38,137.38 0 0 0 67.3,63.58 49.46,49.46 0 0 0 59,73.2 c -1.67,2.42 -3.26,5 -4.79,7.44 -1.29,2.07 -2.62,4.2 -4,6.27 A 138.94,138.94 0 0 0 37.89,110.1 l -0.75,1.77 c -1.81,4.3 -3.68,8.74 -5.22,13.19 -2.17,6.26 -3.14,12.66 -4.09,19.77 -0.4,3 -0.51,6 -0.63,9 -0.08,2.23 -0.17,4.54 -0.37,6.82 a 68.91,68.91 0 0 0 0.75,16.82 l 0.42,2.89 a 80.28,80.28 0 0 0 1.83,9.91 154.14,154.14 0 0 0 9.51,25.87 240.64,240.64 0 0 0 15.16,26.25 133.62,133.62 0 0 0 10.5,14.28 43.68,43.68 0 0 0 11.69,9.61 c 2,1.16 4,2.39 5.93,3.57 2.1,1.29 4.28,2.62 6.46,3.87 1.85,1.06 3.69,2.19 5.47,3.28 4.66,2.85 9.48,5.8 14.74,7.67 1.88,0.67 3.75,1.46 5.55,2.22 a 54.53,54.53 0 0 0 10.16,3.52 c 1.45,0.29 2.94,0.53 4.39,0.75 0.88,0.14 1.77,0.27 2.66,0.43 a 42.72,42.72 0 0 0 4.35,0.43 42.61,42.61 0 0 1 4.57,0.46 86.4,86.4 0 0 0 11.45,0.87 c 2.28,0.07 4.63,0.14 7,0.33 a 70.88,70.88 0 0 0 18,-1.15 c 1.88,-0.33 3.79,-0.55 5.63,-0.76 a 56.77,56.77 0 0 0 8.4,-1.36 c 1.76,-0.47 3.54,-1.06 5.26,-1.63 1.26,-0.42 2.56,-0.86 3.87,-1.24 A 95.24,95.24 0 0 0 218,280.48 c 3.45,-1.83 6.87,-3.89 10.18,-5.87 3.9,-2.35 7.93,-4.76 12.07,-6.87 a 19.86,19.86 0 0 0 5.35,-3.68 c 4.81,-5 10.44,-11 15.79,-17.43 4.06,-4.88 8.28,-10.15 11.43,-16.13 0.88,-1.68 1.7,-3.44 2.5,-5.15 a 81.62,81.62 0 0 1 3.85,-7.57 c 4.47,-7.48 9.7,-24 9.82,-24.42 a 49.32,49.32 0 0 0 2.07,-11 c 0.14,-1.54 0.32,-3.08 0.5,-4.57 a 67.9,67.9 0 0 0 0.69,-9.25 c -0.08,-5.55 -0.35,-10.65 -0.81,-15.6 -0.15,-1.32 -0.23,-2.65 -0.31,-3.94 z"
         id="path138" />
      <path
         class="cls-2"
         d="m 291.13,149 a 60.8,60.8 0 0 0 -0.61,-6.61 118.44,118.44 0 0 0 -5.11,-19.22 c -1.86,-5.43 -3.56,-10.32 -5.4,-15.19 -0.46,-1.21 -0.89,-2.46 -1.31,-3.67 a 41.78,41.78 0 0 0 -4.31,-9.77 c -1.82,-2.69 -3.52,-5.5 -5.16,-8.22 a 108.1,108.1 0 0 0 -9.47,-14 42.07,42.07 0 0 0 -9.61,-8.89 31.81,31.81 0 0 1 -7.36,-6.22 A 49.32,49.32 0 0 0 226.52,44.62 170.67,170.67 0 0 0 204,35.25 c -0.93,-0.29 -1.85,-0.6 -2.74,-0.91 a 45.22,45.22 0 0 0 -7.48,-2.06 c -3.45,-0.55 -7.51,-1.23 -11.49,-2.14 A 71.94,71.94 0 0 0 168.75,28.4 c -0.64,0 -1.28,0 -1.92,0 -2.63,0 -5.28,0.19 -7.86,0.37 -1.81,0.13 -3.67,0.26 -5.52,0.33 a 42.78,42.78 0 0 0 -8.08,0.83 c -4.53,1.06 -9.16,1.89 -13.64,2.68 l -1.19,0.22 -3,0.48 a 62.13,62.13 0 0 0 -6.71,1.32 c -2.28,0.63 -4.54,1.49 -6.73,2.31 -1.45,0.55 -3,1.12 -4.45,1.62 A 112.57,112.57 0 0 0 90.6,47.25 137.38,137.38 0 0 0 67.3,63.58 49.46,49.46 0 0 0 59,73.2 c -1.67,2.42 -3.26,5 -4.79,7.44 -1.29,2.07 -2.62,4.2 -4,6.27 A 138.94,138.94 0 0 0 37.89,110.1 l -0.75,1.77 c -1.81,4.3 -3.68,8.74 -5.22,13.19 -2.17,6.26 -3.14,12.66 -4.09,19.77 -0.4,3 -0.51,6 -0.63,9 -0.08,2.23 -0.17,4.54 -0.37,6.82 a 68.91,68.91 0 0 0 0.75,16.82 l 0.42,2.89 a 80.28,80.28 0 0 0 1.83,9.91 154.14,154.14 0 0 0 9.51,25.87 240.64,240.64 0 0 0 15.16,26.25 133.62,133.62 0 0 0 10.5,14.28 43.68,43.68 0 0 0 11.69,9.61 c 2,1.16 4,2.39 5.93,3.57 2.1,1.29 4.28,2.62 6.46,3.87 1.85,1.06 3.69,2.19 5.47,3.28 4.66,2.85 9.48,5.8 14.74,7.67 1.88,0.67 3.75,1.46 5.55,2.22 a 54.53,54.53 0 0 0 10.16,3.52 c 1.45,0.29 2.94,0.53 4.39,0.75 0.88,0.14 1.77,0.27 2.66,0.43 a 42.72,42.72 0 0 0 4.35,0.43 42.61,42.61 0 0 1 4.57,0.46 86.4,86.4 0 0 0 11.45,0.87 c 2.28,0.07 4.63,0.14 7,0.33 a 70.88,70.88 0 0 0 18,-1.15 c 1.88,-0.33 3.79,-0.55 5.63,-0.76 a 56.77,56.77 0 0 0 8.4,-1.36 c 1.76,-0.47 3.54,-1.06 5.26,-1.63 1.26,-0.42 2.56,-0.86 3.87,-1.24 A 95.24,95.24 0 0 0 218,280.48 c 3.45,-1.83 6.87,-3.89 10.18,-5.87 3.9,-2.35 7.93,-4.76 12.07,-6.87 a 19.86,19.86 0 0 0 5.35,-3.68 c 4.81,-5 10.44,-11 15.79,-17.43 4.06,-4.88 8.28,-10.15 11.43,-16.13 0.88,-1.68 1.7,-3.44 2.5,-5.15 a 81.62,81.62 0 0 1 3.85,-7.57 c 4.47,-7.48 9.7,-24 9.82,-24.42 a 49.32,49.32 0 0 0 2.07,-11 c 0.14,-1.54 0.32,-3.08 0.5,-4.57 a 67.9,67.9 0 0 0 0.69,-9.25 c -0.08,-5.55 -0.35,-10.65 -0.81,-15.6 -0.15,-1.32 -0.23,-2.65 -0.31,-3.94 z"
         id="path140" />
    </g>
    <g
       id="Calque_1"
       data-name="Calque 1"
       transform="matrix(0.11476454,0,0,0.11483806,0.20304467,-0.01230817)">
      <path
         class="cls-1"
         d="M 281.75,216.54 277,241.08 264.38,263 250.88,273.13 244,279.48 212.84,292.81 198,301 h -22.6 l -20.68,5.06 -24.47,-4.22 L 109.57,294.4 84.63,283.28 56.39,268.51 A 88.6,88.6 0 0 0 45.81,252.05 59.73,59.73 0 0 1 36.1,234.8 l 5.53,-11.46 A 81.1,81.1 0 0 1 60,218.76 65,65 0 0 1 71.12,218.24 L 68.4,160.67 a 256.78,256.78 0 0 1 69.35,0 c 0,0 1,45.53 -1.24,53.58 0,0 16.53,-3.56 23.29,-2.14 l -1.51,-79 85.71,5.28 c 0,0 0.14,70.89 -2.16,76.17 32.68,1.17 39.62,1.96 39.91,1.98 z m -98.69,-5.7 c 0,0 32.33,0.83 29.61,-0.56 -2.72,-1.39 -5.62,-39.19 -5.62,-39.19 L 188.37,170 Z m -66.7,4.68 c 0.63,-5.8 3.64,-27.24 3.32,-30.74 C 119.36,181.28 92.82,184 92.82,184 l 0.32,29 c 0,0 22.6,8.33 23.22,2.52 z"
         id="path143" />
      <path
         class="cls-1"
         d="m 244,138.39 -85.67,-5.28 c 1,-0.93 43.93,-27.18 52.35,-29.33 -0.01,0 24.2,29.47 33.32,34.61 z"
         id="path145" />
      <path
         class="cls-1"
         d="m 212.67,210.28 c 2.72,1.39 -29.61,0.56 -29.61,0.56 l 5.31,-40.84 18.68,1.07 c 0,0 2.95,37.82 5.62,39.21 z"
         id="path147" />
      <path
         class="cls-1"
         d="m 103,124.73 34.74,35.94 a 256.78,256.78 0 0 0 -69.35,0 z"
         id="path149" />
      <path
         class="cls-1"
         d="m 119.68,184.78 c 0.32,3.5 -2.69,24.94 -3.32,30.74 -0.63,5.8 -23.22,-2.52 -23.22,-2.52 l -0.32,-29 c 0,0 26.55,-2.7 26.86,0.78 z"
         id="path151" />
      <path
         class="cls-3"
         d="m 281.75,219.76 h -0.22 -0.21 c -2.09,-0.2 -11.12,-0.93 -39.6,-2 a 3.24,3.24 0 0 1 -2.62,-1.5 3.21,3.21 0 0 1 -0.24,-3 c 1.3,-4 1.95,-40.28 1.91,-73.17 -9,-6.31 -25.83,-26.18 -31.16,-32.59 -10.65,4.35 -46.21,25.84 -49.24,28 a 3.23,3.23 0 0 1 -4.27,-4.83 c 1.55,-1.48 44.82,-27.83 53.77,-30.12 a 3.23,3.23 0 0 1 3.29,1.08 c 6.63,8.07 25.37,29.88 32.42,33.85 a 3.22,3.22 0 0 1 1.64,2.8 c 0,0.18 0,18 -0.22,36.16 -0.31,22.34 -0.84,32.28 -1.33,36.93 25.75,1 34.23,1.65 36.27,1.85 H 282 a 3.23,3.23 0 0 1 -0.26,6.44 z m -42.87,-6.49 z m -78.33,-77.83 -0.15,0.13 c 0.07,-0.05 0.11,-0.1 0.15,-0.13 z"
         id="path153" />
      <path
         class="cls-3"
         d="m 136.54,217.48 a 3.24,3.24 0 0 1 -3.11,-4.1 c 1.56,-5.57 1.53,-34.53 1.13,-52.64 a 3.23,3.23 0 0 1 6.45,-0.14 c 0.09,4.08 0.74,35.84 -0.6,49.61 a 92.27,92.27 0 0 1 16.13,-1.65 l -1.44,-75.39 a 3.22,3.22 0 0 1 3.42,-3.28 l 85.67,5.28 a 3.23,3.23 0 0 1 -0.4,6.44 l -82.18,-5.07 1.45,75.51 a 3.23,3.23 0 0 1 -3.89,3.22 c -5,-1.05 -17.54,1.19 -21.95,2.14 a 4,4 0 0 1 -0.68,0.07 z"
         id="path155" />
      <path
         class="cls-3"
         d="m 41.64,226.57 a 3.23,3.23 0 0 1 -1.23,-6.21 83.58,83.58 0 0 1 19.21,-4.8 70.11,70.11 0 0 1 8.14,-0.59 l -2.55,-54.15 a 3.23,3.23 0 0 1 6.45,-0.3 l 2.71,57.56 a 3.23,3.23 0 0 1 -0.94,2.43 3.27,3.27 0 0 1 -2.42,1 62.18,62.18 0 0 0 -10.57,0.5 79,79 0 0 0 -17.59,4.37 3.26,3.26 0 0 1 -1.21,0.19 z"
         id="path157" />
      <path
         class="cls-3"
         d="m 154.67,309.28 a 3.27,3.27 0 0 1 -0.54,0 L 129.65,305 a 3.29,3.29 0 0 1 -0.54,-0.14 l -20.68,-7.45 a 0.85,0.85 0 0 1 -0.22,-0.09 L 83.31,286.2 a 0.91,0.91 0 0 1 -0.17,-0.09 L 54.89,271.37 A 3.22,3.22 0 0 1 53.46,269.86 86.12,86.12 0 0 0 43.3,254.08 62.61,62.61 0 0 1 33,235.78 3.22,3.22 0 0 1 33.17,233.4 l 5.53,-11.46 a 3.23,3.23 0 0 1 5.81,2.81 L 39.6,235 a 58.46,58.46 0 0 0 8.72,15 94.7,94.7 0 0 1 10.5,16.12 l 27.18,14.25 24.69,11 20.3,7.31 23.53,4.06 20,-4.9 a 2.91,2.91 0 0 1 0.77,-0.1 h 21.77 l 14.22,-7.74 0.28,-0.13 30.66,-13.12 6.48,-6 a 2.43,2.43 0 0 1 0.25,-0.2 l 13,-9.73 12.05,-20.88 4.61,-24 a 3.23,3.23 0 0 1 6.34,1.22 l -4.71,24.54 a 3.28,3.28 0 0 1 -0.38,1 l -12.65,21.94 a 3.2,3.2 0 0 1 -0.86,1 l -13.38,10 -6.76,6.22 a 3.08,3.08 0 0 1 -0.92,0.59 l -31,13.27 -14.75,8.12 a 3.21,3.21 0 0 1 -1.55,0.39 h -22.25 l -20.3,5 a 3.31,3.31 0 0 1 -0.77,0.05 z"
         id="path159" />
      <path
         class="cls-3"
         d="m 68.43,163.9 a 3.23,3.23 0 0 1 -2.32,-5.47 l 34.61,-35.94 a 3.22,3.22 0 0 1 2.32,-1 v 0 a 3.22,3.22 0 0 1 2.32,1 l 34.74,35.94 a 3.23,3.23 0 0 1 -2.75,5.44 255.45,255.45 0 0 0 -68.38,0 3.29,3.29 0 0 1 -0.54,0.03 z m 34.14,-8.78 c 8,0 17,0.34 26.62,1.3 l -26.14,-27 -26,27 c 6.11,-0.69 14.95,-1.3 25.52,-1.3 z"
         id="path161" />
      <path
         class="cls-3"
         d="m 112.27,220.81 a 42.83,42.83 0 0 1 -10.42,-1.71 c -5.13,-1.34 -9.64,-3 -9.83,-3.06 a 3.21,3.21 0 0 1 -2.11,-3 L 89.59,184 a 3.24,3.24 0 0 1 2.91,-3.25 c 0.24,0 6,-0.6 12.27,-0.86 12.65,-0.52 15.21,0.68 16.62,1.84 a 4.07,4.07 0 0 1 1.51,2.77 c 0.24,2.67 -0.9,11.95 -2.4,23.81 -0.41,3.22 -0.76,6 -0.93,7.57 a 5,5 0 0 1 -2.42,3.81 8.72,8.72 0 0 1 -4.88,1.12 z m -15.93,-10.1 c 1.68,0.57 4.2,1.37 6.88,2.08 6.31,1.68 9,1.65 10,1.51 0.19,-1.67 0.5,-4.08 0.84,-6.82 0.78,-6.09 2.12,-16.73 2.35,-20.93 -3.33,-0.6 -12.17,-0.35 -20.37,0.34 z"
         id="path163" />
      <path
         class="cls-3"
         d="m 200.94,214.31 h -3.12 c -7.35,-0.05 -14.77,-0.24 -14.84,-0.24 a 3.22,3.22 0 0 1 -2.37,-1.13 3.26,3.26 0 0 1 -0.75,-2.51 l 5.31,-40.82 a 3.24,3.24 0 0 1 3.39,-2.8 l 18.68,1.07 a 3.22,3.22 0 0 1 3,3 c 1.19,15.5 3.28,33.7 4.68,37.12 a 3.34,3.34 0 0 1 1,3.29 c -0.7,2.74 -3.37,2.83 -7.8,3 -1.84,-0.01 -4.27,0.02 -7.18,0.02 z m -14.22,-6.61 c 8.32,0.17 16.78,0.22 21.48,0.07 -0.25,-1 -0.48,-2.22 -0.73,-3.64 -0.59,-3.38 -1.21,-8 -1.83,-13.61 -0.71,-6.43 -1.28,-12.83 -1.57,-16.37 l -12.89,-0.74 z"
         id="path165" />
      <path
         class="cls-4"
         d="m 319.6,151.19 c -0.14,-1.52 -0.23,-3.09 -0.31,-4.6 a 79,79 0 0 0 -0.77,-8.18 144.66,144.66 0 0 0 -6.2,-23.37 c -2.24,-6.5 -4.27,-12.36 -6.49,-18.2 -0.53,-1.41 -1,-2.88 -1.52,-4.3 -1.46,-4.22 -3,-8.59 -5.47,-12.29 -2.12,-3.16 -4.13,-6.48 -6.07,-9.7 -3.48,-5.76 -7.07,-11.71 -11.56,-17 -4.33,-5.15 -7.94,-8.48 -12.08,-11.13 a 36,36 0 0 1 -8.17,-6.9 61.56,61.56 0 0 0 -20.31,-15.71 C 232.12,15.71 223,11.47 213.47,8.47 212.39,8.13 211.31,7.77 210.25,7.41 A 56.74,56.74 0 0 0 200.89,4.83 C 196.82,4.19 192.03,3.39 187.36,2.32 a 89.81,89.81 0 0 0 -16.65,-2.19 110.2,110.2 0 0 0 -12,0.41 c -2.13,0.15 -4.33,0.3 -6.49,0.38 A 53.59,53.59 0 0 0 142.09,2 C 136.75,3.23 131.26,4.21 126,5.16 l -1.42,0.25 c -1.15,0.21 -2.33,0.39 -3.48,0.57 a 75.27,75.27 0 0 0 -8.31,1.64 c -2.84,0.78 -5.6,1.83 -8.27,2.84 -1.7,0.64 -3.46,1.31 -5.2,1.89 A 137,137 0 0 0 76,23 165.76,165.76 0 0 0 47.73,42.78 a 61.9,61.9 0 0 0 -10.35,12 c -2,3 -3.93,6 -5.78,9 -1.53,2.45 -3.1,5 -4.72,7.41 a 168.58,168.58 0 0 0 -15,28.12 L 11,101.4 c -2.18,5.16 -4.43,10.5 -6.3,15.9 -2.67,7.7 -3.85,15.48 -5,24.11 -0.5,3.7 -0.64,7.42 -0.77,11 -0.1,2.62 -0.2,5.34 -0.44,8 a 85.3,85.3 0 0 0 0.91,20.72 c 0.17,1.14 0.33,2.28 0.5,3.42 a 97.91,97.91 0 0 0 2.25,12.16 188.28,188.28 0 0 0 11.55,31.34 C 19.2,239.58 26,250.41 32,259.66 A 161.19,161.19 0 0 0 44.74,277 55,55 0 0 0 59.4,289.05 c 2.36,1.36 4.73,2.81 7,4.22 2.53,1.55 5.15,3.15 7.78,4.65 2.17,1.25 4.35,2.58 6.46,3.88 5.68,3.47 11.55,7.06 18.09,9.39 2.17,0.78 4.36,1.7 6.48,2.6 a 67.35,67.35 0 0 0 12.57,4.35 c 1.79,0.37 3.61,0.65 5.36,0.92 1,0.16 2.09,0.32 3.13,0.5 a 49.19,49.19 0 0 0 5.47,0.55 c 1.72,0.11 3.49,0.23 5.19,0.51 a 102.69,102.69 0 0 0 14,1.09 c 2.69,0.08 5.47,0.17 8.18,0.38 1.78,0.14 3.59,0.21 5.44,0.21 a 96.18,96.18 0 0 0 16.72,-1.62 c 2.16,-0.38 4.39,-0.63 6.55,-0.87 a 73,73 0 0 0 10.42,-1.7 c 2.18,-0.59 4.34,-1.31 6.43,-2 1.48,-0.49 3,-1 4.53,-1.45 A 116.23,116.23 0 0 0 230.55,306 c 4.18,-2.23 8.29,-4.7 12.27,-7.09 4.61,-2.77 9.38,-5.63 14.24,-8.1 a 25.89,25.89 0 0 0 7.1,-4.93 c 5.77,-6 12.54,-13.2 19,-20.93 4.94,-5.94 10.08,-12.35 14,-19.72 1.08,-2.06 2.08,-4.2 3,-6.27 a 95.33,95.33 0 0 1 4.46,-8.79 c 5.51,-9.22 12,-29.68 12,-29.74 a 61.18,61.18 0 0 0 2.57,-13.68 c 0.16,-1.8 0.38,-3.61 0.59,-5.37 a 85.54,85.54 0 0 0 0.85,-11.4 c -0.15,-6.66 -0.47,-12.82 -1.03,-18.79 z M 292,177.93 c -0.18,1.5 -0.37,3 -0.51,4.58 a 49.6,49.6 0 0 1 -2.07,11.05 c -0.13,0.39 -5.37,17 -9.86,24.5 a 84.77,84.77 0 0 0 -3.86,7.6 c -0.8,1.72 -1.62,3.49 -2.51,5.17 -3.15,6 -7.4,11.29 -11.47,16.19 -5.36,6.44 -11,12.45 -15.85,17.48 a 19.36,19.36 0 0 1 -5.36,3.69 c -4.16,2.12 -8.2,4.55 -12.11,6.9 -3.32,2 -6.76,4.05 -10.22,5.9 a 95.58,95.58 0 0 1 -17.5,7.07 c -1.31,0.39 -2.62,0.83 -3.88,1.25 -1.73,0.57 -3.51,1.16 -5.28,1.64 a 58.6,58.6 0 0 1 -8.42,1.36 c -1.86,0.21 -3.77,0.43 -5.66,0.76 a 71,71 0 0 1 -18.06,1.16 c -2.34,-0.19 -4.7,-0.26 -7,-0.33 a 85.07,85.07 0 0 1 -11.48,-0.9 45.73,45.73 0 0 0 -4.59,-0.46 43.12,43.12 0 0 1 -4.37,-0.43 c -0.89,-0.16 -1.78,-0.29 -2.67,-0.43 -1.45,-0.23 -3,-0.46 -4.4,-0.76 a 54.1,54.1 0 0 1 -10.14,-3.52 c -1.81,-0.77 -3.68,-1.56 -5.58,-2.23 -5.27,-1.88 -10.11,-4.84 -14.78,-7.7 -1.79,-1.1 -3.64,-2.23 -5.5,-3.29 -2.18,-1.25 -4.36,-2.59 -6.48,-3.88 -1.94,-1.19 -3.94,-2.42 -6,-3.58 a 44,44 0 0 1 -11.73,-9.65 133.51,133.51 0 0 1 -10.57,-14.33 242.3,242.3 0 0 1 -15.22,-26.33 155.21,155.21 0 0 1 -9.54,-26 82.5,82.5 0 0 1 -1.84,-9.95 c -0.14,-1 -0.27,-1.93 -0.42,-2.9 a 69.31,69.31 0 0 1 -0.75,-16.87 c 0.21,-2.29 0.29,-4.6 0.38,-6.84 0.11,-3 0.23,-6 0.63,-9 0.95,-7.13 1.92,-13.55 4.1,-19.83 1.55,-4.47 3.43,-8.93 5.24,-13.24 L 37.42,110 A 139.39,139.39 0 0 1 49.85,86.75 c 1.38,-2.08 2.71,-4.22 4,-6.3 C 55.4,78 57,75.42 58.66,73 A 50.13,50.13 0 0 1 67,63.33 137,137 0 0 1 90.37,47 112.53,112.53 0 0 1 109.55,38.24 c 1.51,-0.51 3,-1.08 4.46,-1.63 2.2,-0.83 4.47,-1.69 6.75,-2.32 a 62.66,62.66 0 0 1 6.74,-1.32 c 1,-0.15 2,-0.31 3,-0.49 l 1.19,-0.21 c 4.5,-0.8 9.14,-1.63 13.69,-2.69 a 43.09,43.09 0 0 1 8.11,-0.84 c 1.85,-0.07 3.73,-0.2 5.53,-0.33 2.59,-0.18 5.26,-0.37 7.9,-0.37 0.64,0 1.28,0 1.92,0 a 73.32,73.32 0 0 1 13.59,1.74 c 4,0.92 8.07,1.6 11.53,2.15 a 46.49,46.49 0 0 1 7.5,2.07 c 0.9,0.31 1.82,0.62 2.75,0.91 a 172.71,172.71 0 0 1 22.56,9.42 49.43,49.43 0 0 1 16.31,12.67 32,32 0 0 0 7.38,6.24 42.37,42.37 0 0 1 9.65,8.92 108.16,108.16 0 0 1 9.5,14 c 1.65,2.73 3.36,5.55 5.18,8.25 a 42,42 0 0 1 4.32,9.8 c 0.42,1.22 0.85,2.47 1.31,3.69 1.85,4.88 3.56,9.79 5.43,15.24 a 118.08,118.08 0 0 1 5.15,19.27 64.07,64.07 0 0 1 0.62,6.63 c 0.07,1.3 0.15,2.64 0.27,4 0.47,5 0.73,10.08 0.82,15.65 a 68.33,68.33 0 0 1 -0.71,9.24 z"
         id="path167" />
    </g>
    <g
       id="Group-14"
       transform="matrix(0.10416667,0,0,0.10869565,-0.01485189,21.925672)"
       style="fill:none;fill-rule:evenodd;stroke:none;stroke-width:1;opacity:0.7">
      <path
         d="m 73.142578,13.683817 16,-12.99999998 14.000002,6.49999998 4,17.5 h 20 l 4,6 -4,22 17,13 -1,10 -17,11 7,22.000003 -7,8 h -19 l -5.94336,20.14821 c -6.000001,1.23452 -9.333335,1.85179 -10.000001,1.85179 -0.666667,0 -7.01888,-3.33334 -19.056641,-10 l -15,10 -13,-4 c -3.924479,-10.46905 -6.238932,-16.08631 -6.943359,-16.85179 -0.704427,-0.76548 -7.704427,-1.14821 -21,-1.14821 l -5.056641,-8 6,-23.851789 -16.99999988,-10.148214 1.99999998,-11 15.9999999,-10 -7,-21 8,-9 20,2 7,-22 12,-2 z"
         id="Path-2"
         fill="#20b7eb" />
      <g
         id="Group"
         transform="translate(42.142578,44.383817)"
         fill-rule="nonzero"
         fill="#ffffff">
        <path
           d="m 19.510622,44.654212 c 3.358671,-4.897174 6.516666,-9.490648 9.822528,-14.160046 1.436412,-2.030998 4.108562,-4.745324 5.597784,-6.60549 2.619341,-3.264783 15.931637,-20.4437302 18.635472,-23.25296178 0,0 12.703093,7.12113438 12,7.99999998 -4,4.9999998 -22.821435,32.8113658 -27,37.9999998 -1.132466,1.406213 -2.465799,2.406213 -4,3 l 6,2"
           id="Shape" />
        <path
           d="m 23.460436,20.18413 c 0.851394,0.53201 4.029337,14.309593 4.983723,18.443495 1.090205,4.722195 2.347831,8.898767 3.817546,16.535609 0,0 -1.760148,0.929746 -9.327642,3.604869 -1.115686,0.394397 -4.133902,0.954386 -4.133902,0.954386 0,0 -2.426885,-7.353331 -2.756822,-8.797723 C 14.738592,45.300854 10.119721,28.410135 8.8327148,22.835499 8.5145859,21.457532 22.612388,19.654211 23.460436,20.18413 Z"
           id="path260"
           transform="rotate(-32,20.544559,39.905921)" />
      </g>
    </g>
  </g>
</svg>
