<svg width="27" height="28" viewBox="0 0 27 28" fill="none" xmlns="http://www.w3.org/2000/svg">
<path fill-rule="evenodd" clip-rule="evenodd" d="M14.0685 0.614868H12.2084C11.9184 0.614868 11.3472 0.850701 11.1542 1.06695C11.0711 1.16003 11.0513 1.3234 11.0343 1.46356C11.0287 1.50933 11.0235 1.55263 11.0164 1.5902C10.8832 2.29892 10.7683 3.00611 10.6866 3.72296C10.6852 3.73533 10.6837 3.74795 10.6823 3.76076C10.6612 3.94821 10.6353 4.17861 10.5571 4.34458C10.4451 4.58253 10.1971 4.74976 9.9726 4.86364C9.92384 4.88837 9.87075 4.91861 9.81495 4.9504C9.63356 5.05373 9.42346 5.1734 9.23985 5.1734C8.8769 5.1734 8.66469 4.97965 8.43636 4.77118C8.32764 4.67192 8.21526 4.56932 8.08122 4.48271C7.85111 4.33404 7.62676 4.17847 7.4027 4.0231C6.99203 3.73833 6.5823 3.4542 6.13973 3.21436C5.70101 2.97661 4.16231 4.27408 3.89762 4.59574C3.76514 4.75673 3.60431 4.90227 3.44276 5.04847C3.18633 5.28052 2.9281 5.5142 2.77866 5.81386C2.68276 6.00615 2.68263 6.31097 2.68263 6.51919C2.68263 7.01526 2.77084 7.40976 3.08762 7.79382C3.13496 7.85121 3.18351 7.90897 3.2325 7.96724C3.71066 8.536 4.23034 9.15415 4.06463 9.96635C4.01498 10.2097 3.90061 10.5312 3.67842 10.634C3.41585 10.7555 3.14482 10.8018 2.87313 10.8481C2.65987 10.8845 2.44619 10.921 2.23587 10.994C2.21245 11.0021 2.18927 11.0101 2.16632 11.0181C1.79273 11.147 1.48124 11.2545 1.19624 11.5403C1.06254 11.6743 1.0056 11.8385 0.962425 12.0217C0.876384 12.3866 0.811975 12.7567 0.751575 13.1268C0.658835 13.695 0.649461 14.2786 0.640145 14.8586C0.635495 15.1481 0.63086 15.4367 0.61588 15.7221C0.594421 16.1308 1.11278 16.1929 1.4647 16.235C1.50591 16.2399 1.54485 16.2446 1.58036 16.2495C1.96093 16.3021 2.34443 16.3143 2.72812 16.3265C3.01524 16.3357 3.30247 16.3448 3.58865 16.3709L3.59342 16.3713C4.02944 16.4111 4.13885 16.421 4.3903 16.7769C4.67677 17.1824 4.83936 17.8227 4.92891 18.2923C4.99132 18.6196 5.00803 18.9309 4.78486 19.2069C4.58245 19.4572 4.33055 19.6532 4.07962 19.8484C3.9165 19.9753 3.75379 20.1019 3.60535 20.2429C2.82327 20.9858 3.53831 21.7912 4.07992 22.4013C4.09161 22.4145 4.10322 22.4276 4.11473 22.4406C4.26036 22.6048 4.4224 22.7522 4.58417 22.8993C4.804 23.0992 5.02332 23.2986 5.2003 23.5394C5.29327 23.6659 5.41235 23.7622 5.5315 23.8586C5.62576 23.9348 5.72006 24.0111 5.80153 24.1024C5.96392 24.2844 6.07273 24.3354 6.30883 24.161C6.61079 23.9379 7.32389 23.5953 7.68874 23.5122C7.81805 23.4827 8.01128 23.386 8.2254 23.2789C8.66886 23.057 9.20193 22.7903 9.44228 22.9831C9.55868 23.0764 10.1365 23.4658 10.3484 23.5959C10.5671 23.751 10.6821 24.1625 10.7476 24.3973C10.7613 24.4461 10.7728 24.4872 10.7826 24.5168C10.8599 24.7493 10.9715 24.996 11.0811 25.2159C11.1382 25.3303 11.1806 25.4479 11.2228 25.5652C11.2737 25.7063 11.3244 25.8472 11.4005 25.9819C11.6432 26.4112 11.9957 26.8641 12.5237 26.9112C12.9145 26.946 13.3187 26.9722 13.7115 26.9468C13.7877 26.9419 13.8605 26.926 13.9326 26.9103C14.0137 26.8926 14.0939 26.8751 14.1771 26.8735C14.5085 26.8673 14.9028 26.7524 15.2167 26.6475C15.2476 26.6372 15.2801 26.6265 15.3137 26.6155C15.6027 26.5206 15.978 26.3974 16.1875 26.2121C16.6093 25.8389 16.6894 25.2718 16.7648 24.7379C16.7821 24.6155 16.7991 24.4948 16.82 24.3787C16.8332 24.3052 16.8436 24.2307 16.8541 24.1562C16.8928 23.8799 16.9316 23.6028 17.1123 23.3699L17.1233 23.3557C17.2873 23.1442 17.4016 22.9967 17.6467 22.855C17.6649 22.8445 17.6951 22.8213 17.7308 22.7939C17.8245 22.7222 17.9562 22.6213 18.0099 22.6415C18.0686 22.6635 18.1321 22.6985 18.1964 22.7339C18.2544 22.7659 18.3129 22.7981 18.369 22.8215C18.5781 22.9087 18.7827 23.0342 18.983 23.1571C19.0643 23.207 19.145 23.2566 19.2249 23.3029C19.385 23.3956 19.5527 23.4743 19.7204 23.5529C19.7773 23.5796 19.8342 23.6063 19.8909 23.6336C20.3043 23.8325 20.8742 24.0636 21.346 23.9098C22.1094 23.6611 22.7642 22.9166 23.2374 22.3129C23.5947 21.8569 23.8789 21.2814 24.1329 20.7641C24.3135 20.3965 24.3372 20.1427 24.3271 19.7364C24.3238 19.6047 24.2481 19.5377 24.1592 19.4591C24.1458 19.4472 24.1321 19.4351 24.1183 19.4225C24.0657 19.3743 24.0175 19.3204 23.9692 19.2664C23.8915 19.1796 23.8138 19.0926 23.7175 19.029C23.6524 18.986 23.5871 18.9443 23.5219 18.9027C23.4259 18.8415 23.33 18.7804 23.2353 18.715C22.7394 18.3733 22.7433 17.9162 22.7479 17.362C22.7484 17.3074 22.7489 17.2519 22.7489 17.1955C22.7489 16.7495 23.51 16.5102 24.0383 16.3441C24.2064 16.2912 24.3509 16.2458 24.4398 16.2035C24.5249 16.163 24.613 16.1292 24.7011 16.0953C24.7962 16.0588 24.8914 16.0223 24.9826 15.9774C25.2451 15.8483 25.4653 15.611 25.6423 15.3851C25.9019 15.0539 26.0018 14.6025 26.0927 14.1921C26.0985 14.1661 26.1042 14.1403 26.1099 14.1147C26.2269 13.5907 26.3187 13.0327 26.3187 12.4947C26.3187 12.4614 26.3195 12.4232 26.3204 12.3815C26.3268 12.0715 26.3373 11.5685 26.0536 11.444C25.6473 11.2658 25.1868 11.2292 24.726 11.1925C24.1841 11.1494 23.6418 11.1063 23.1873 10.8328C22.802 10.6011 22.7052 10.1357 22.5923 9.59341C22.5567 9.42233 22.5195 9.24362 22.4712 9.06218C22.3703 8.68345 22.6691 8.39083 22.9103 8.1547C22.9958 8.071 23.074 7.99441 23.1246 7.92359C23.1824 7.84272 23.2479 7.75521 23.3171 7.6627C23.6525 7.21445 24.0755 6.649 24.1371 6.15501C24.1693 5.89691 24.0591 5.74947 23.897 5.5627C23.7659 5.41155 23.6401 5.25517 23.5142 5.09874C23.3392 4.88119 23.1641 4.66353 22.9743 4.45969C22.7332 4.20069 22.4649 3.97686 22.197 3.75334C21.9881 3.57901 21.7794 3.40486 21.584 3.21436C21.2999 2.93747 20.9232 2.93615 20.5297 2.9925C20.314 3.0234 20.1272 3.13031 19.9414 3.23667C19.8516 3.28806 19.7621 3.33931 19.6696 3.3818C19.5473 3.43801 19.4286 3.49676 19.3114 3.55477C18.8443 3.78601 18.4009 4.00551 17.845 4.00551C17.8337 4.00551 17.8222 4.00552 17.8106 4.00553C17.3907 4.00591 16.8415 4.00639 16.6697 3.52412C16.5186 3.10008 16.4456 2.6312 16.374 2.17178C16.3464 1.99502 16.3191 1.81967 16.2877 1.64881C16.2799 1.6064 16.2737 1.56695 16.2678 1.52979C16.2407 1.35632 16.2213 1.23274 16.081 1.09207C15.8329 0.84339 14.4886 0.614868 14.0685 0.614868ZM13.9912 8.54834C13.7608 8.52953 13.5311 8.51078 13.2998 8.51078C13.2509 8.51078 13.2021 8.51021 13.1533 8.50964C12.9424 8.50718 12.7328 8.50473 12.525 8.54849C12.3257 8.59047 12.1451 8.68468 11.9654 8.77848C11.8932 8.81615 11.8211 8.85376 11.748 8.88789C10.5809 9.43278 9.73053 10.5901 9.47164 11.8419C9.34308 12.4636 9.22453 13.0692 9.22453 13.7065C9.22453 14.147 9.23425 14.5636 9.39835 14.9803C9.55608 15.3809 9.84443 15.7608 10.1125 16.0928C10.489 16.5591 10.9812 16.9144 11.5114 17.1864C11.5981 17.2308 11.6877 17.2828 11.7793 17.3359C12.02 17.4754 12.2749 17.6231 12.5292 17.6661C12.8061 17.713 13.0851 17.7127 13.3646 17.7123C13.3891 17.7123 13.4136 17.7122 13.438 17.7122C13.922 17.7122 14.3618 17.6606 14.8244 17.5321C15.3113 17.3967 15.8862 17.2138 16.3092 16.9371C16.8402 16.5897 17.2798 16.2377 17.6327 15.6905C17.9806 15.151 18.2787 14.4782 18.3552 13.849C18.398 13.497 18.4222 13.1647 18.4222 12.8098C18.4222 12.7748 18.4237 12.738 18.4252 12.7004C18.4298 12.586 18.4347 12.464 18.3992 12.3615C18.366 12.2655 18.3144 12.1732 18.2631 12.0812C18.2257 12.0143 18.1884 11.9475 18.1584 11.8796C17.8377 11.1556 17.3811 10.4544 16.8411 9.87256C16.8132 9.84247 16.7846 9.81066 16.7554 9.7781C16.6229 9.63051 16.4765 9.46746 16.3113 9.37813C16.2126 9.32475 16.116 9.2423 16.0187 9.1592C15.8863 9.04611 15.7524 8.93181 15.6097 8.88789C15.4845 8.84935 15.3621 8.8057 15.24 8.76217C15.0586 8.69752 14.8781 8.63315 14.6904 8.5862C14.4552 8.5862 14.2229 8.56724 13.9912 8.54834Z" fill="#AEADAD"/>
<path fill-rule="evenodd" clip-rule="evenodd" d="M11.6567 1.44479C11.6565 1.44588 11.6563 1.44699 11.6562 1.44811C11.6523 1.47393 11.6489 1.50128 11.6445 1.53774L11.6436 1.54469C11.6387 1.58519 11.6313 1.64611 11.6205 1.70386C11.4891 2.40299 11.3768 3.09485 11.2973 3.79268C11.2973 3.79268 11.2973 3.79268 11.2973 3.79268L11.2931 3.82956C11.2921 3.83844 11.2911 3.84792 11.29 3.85796C11.2716 4.02496 11.2363 4.34535 11.1132 4.60669C10.9086 5.04097 10.498 5.28664 10.2505 5.41216C10.2176 5.42884 10.1782 5.4511 10.119 5.48482L10.1098 5.49008C10.0247 5.53859 9.9025 5.60822 9.77391 5.66434C9.64468 5.72074 9.45518 5.78843 9.23955 5.78843C8.63539 5.78843 8.26622 5.44985 8.04659 5.24844C8.03798 5.24054 8.02959 5.23285 8.02144 5.2254C7.90795 5.12179 7.83166 5.05388 7.7472 4.99931C7.50864 4.84518 7.27738 4.68481 7.05584 4.53119L7.05198 4.52851C6.67577 4.26763 6.32644 4.02601 5.96058 3.81843C5.94159 3.82532 5.91836 3.83455 5.89068 3.84683C5.73459 3.9161 5.53096 4.03959 5.30864 4.19711C4.85347 4.51962 4.45369 4.8875 4.37218 4.98656C4.21065 5.18285 4.02111 5.35431 3.86846 5.49241L3.85509 5.50451C3.58054 5.75296 3.41723 5.91081 3.32867 6.08838C3.32919 6.08734 3.32909 6.08769 3.32851 6.08959C3.32599 6.09794 3.31444 6.13615 3.30657 6.2189C3.29773 6.31172 3.29728 6.41161 3.29728 6.51927C3.29728 6.92665 3.36512 7.16425 3.56173 7.40262C3.60692 7.4574 3.65359 7.51293 3.70291 7.5716C3.71885 7.59055 3.73523 7.60996 3.75199 7.62981C4.19274 8.15199 4.8929 8.9815 4.66687 10.0894C4.63545 10.2434 4.58021 10.4418 4.48462 10.6307C4.39425 10.8092 4.2285 11.057 3.93637 11.1922C3.59879 11.3484 3.25839 11.4064 3.00042 11.4503C2.9923 11.4517 2.98426 11.453 2.97631 11.4544C2.75555 11.4921 2.5918 11.5214 2.4372 11.575L2.36669 11.5994C1.9817 11.7323 1.80287 11.8027 1.63134 11.9746C1.62144 11.9846 1.59669 12.0101 1.56067 12.1629C1.4798 12.5059 1.41819 12.8584 1.3582 13.2259C1.27392 13.7423 1.26416 14.2806 1.25472 14.8686L1.25463 14.874C1.25095 15.1035 1.24714 15.3407 1.23772 15.5788C1.25416 15.5825 1.27235 15.5863 1.29242 15.59C1.3677 15.604 1.4468 15.6136 1.53748 15.6245L1.54041 15.6248C1.5795 15.6295 1.62317 15.6347 1.66429 15.6404C2.00731 15.6879 2.35826 15.6996 2.74739 15.712L2.75554 15.7122C3.03731 15.7212 3.33982 15.7308 3.64418 15.7586L3.64893 15.759C3.64896 15.759 3.6489 15.759 3.64893 15.759C3.66254 15.7602 3.67672 15.7615 3.69122 15.7628C3.86671 15.7782 4.10418 15.799 4.3171 15.8967C4.5839 16.019 4.75191 16.2235 4.89225 16.4222C5.26307 16.947 5.44314 17.7076 5.53268 18.1772C5.60127 18.5369 5.66785 19.0927 5.26272 19.5937C5.01529 19.8996 4.71538 20.1329 4.47676 20.3184L4.45696 20.3338C4.28969 20.464 4.15133 20.5723 4.02856 20.6889C3.91048 20.801 3.88534 20.8782 3.87812 20.9179C3.8699 20.9631 3.87235 21.0325 3.91665 21.1429C4.01772 21.3947 4.24943 21.6664 4.53951 21.9932L4.57458 22.0327C4.69461 22.1681 4.83176 22.2936 4.99759 22.4444L5.01412 22.4594C5.22358 22.6498 5.48183 22.8845 5.69552 23.1753C5.73389 23.2275 5.78916 23.2764 5.91794 23.3806L5.92896 23.3895C5.98118 23.4317 6.04756 23.4853 6.11703 23.549C6.29475 23.4376 6.50859 23.3246 6.71166 23.2284C6.98429 23.0993 7.3025 22.9695 7.55183 22.9127C7.54805 22.9135 7.5564 22.9118 7.58063 22.9027C7.60368 22.8941 7.63359 22.8816 7.67165 22.8644C7.74966 22.8291 7.83991 22.7841 7.94994 22.729L7.96936 22.7193C8.17773 22.615 8.45729 22.4751 8.72151 22.3901C8.8592 22.3459 9.02734 22.3046 9.20357 22.302C9.38226 22.2993 9.61854 22.3364 9.82674 22.5034C9.82664 22.5033 9.82752 22.5041 9.82963 22.5057L9.8381 22.5121C9.84199 22.515 9.8465 22.5184 9.85163 22.5221C9.85615 22.5255 9.86116 22.5291 9.86667 22.5331C9.89028 22.5502 9.9202 22.5715 9.9554 22.5961C10.0257 22.6453 10.1125 22.7048 10.2034 22.7662C10.3881 22.8909 10.5761 23.0144 10.6698 23.0719L10.6871 23.0826L10.7038 23.0943C10.9593 23.2755 11.0976 23.5529 11.1713 23.7268C11.2512 23.9152 11.3052 24.1085 11.3371 24.223L11.3396 24.2319C11.355 24.2869 11.3618 24.3108 11.3658 24.3229C11.43 24.5159 11.5273 24.7333 11.6311 24.9415C11.7045 25.0885 11.7572 25.2351 11.7972 25.3461L11.8011 25.3569C11.8545 25.5051 11.8891 25.5971 11.9356 25.6794C12.1744 26.1019 12.3883 26.2819 12.578 26.2988C12.963 26.3331 13.3282 26.3554 13.6715 26.3332C13.6942 26.3317 13.7225 26.3267 13.8014 26.3095C13.8053 26.3086 13.8094 26.3077 13.8137 26.3068C13.888 26.2905 14.0201 26.2615 14.1651 26.2588C14.3929 26.2545 14.7073 26.1693 15.0215 26.0643C15.0542 26.0534 15.0883 26.0422 15.1216 26.0313C15.2699 25.9826 15.4121 25.9356 15.5412 25.8811C15.6771 25.8239 15.7502 25.7777 15.7797 25.7516C16.0029 25.5542 16.0731 25.2362 16.1556 24.652L16.1564 24.6468C16.1731 24.528 16.1915 24.3977 16.2144 24.2701C16.2252 24.2102 16.234 24.1475 16.2448 24.071C16.2464 24.0595 16.248 24.0476 16.2497 24.0353C16.2849 23.7796 16.343 23.3579 16.6261 22.993C16.6261 22.993 16.6261 22.993 16.6261 22.993L16.637 22.9789L16.6486 22.964C16.8091 22.7569 16.9826 22.5329 17.3206 22.3332C17.3238 22.3308 17.3279 22.3278 17.333 22.3239L17.3566 22.3058L17.3633 22.3007C17.4059 22.2681 17.4837 22.2084 17.5623 22.1599C17.6029 22.1349 17.6683 22.0971 17.7471 22.0686C17.7983 22.05 17.9969 21.9798 18.2261 22.066C18.3276 22.1041 18.4261 22.1585 18.482 22.1894L18.4928 22.1954C18.5577 22.2311 18.5859 22.2459 18.6053 22.254C18.8592 22.3598 19.0986 22.5067 19.2879 22.623L19.3043 22.6331C19.3869 22.6838 19.4608 22.7291 19.5329 22.7708C19.6661 22.848 19.8095 22.9157 19.9812 22.9962C20.0377 23.0227 20.0974 23.0507 20.1573 23.0795C20.353 23.1737 20.554 23.2595 20.7457 23.3075C20.9412 23.3565 21.0726 23.3521 21.1552 23.3252C21.4202 23.2389 21.6992 23.0538 21.984 22.7919C22.2656 22.5329 22.5235 22.2265 22.753 21.9337C23.0638 21.5372 23.321 21.0219 23.5807 20.4931C23.6849 20.2809 23.7135 20.1445 23.7139 19.8862C23.7101 19.8828 23.7063 19.8794 23.7025 19.8759C23.627 19.8067 23.5612 19.7331 23.5165 19.6831L23.5106 19.6765C23.4233 19.5789 23.3968 19.5545 23.378 19.542C23.3179 19.5023 23.2569 19.4633 23.191 19.4213L23.1871 19.4188C23.0936 19.3592 22.9899 19.293 22.886 19.2214C22.5132 18.9645 22.3063 18.6393 22.2095 18.2769C22.1271 17.9686 22.1301 17.6423 22.1324 17.3906C22.1325 17.3792 22.1326 17.368 22.1327 17.3569C22.1332 17.3019 22.1336 17.249 22.1336 17.1956C22.1336 16.5896 22.6405 16.2634 22.9064 16.122C23.2135 15.9586 23.5812 15.8431 23.8323 15.7642L23.8536 15.7575C24.0423 15.6982 24.1351 15.6674 24.1753 15.6482C24.2821 15.5974 24.3893 15.5563 24.4726 15.5243L24.4804 15.5213C24.5799 15.4831 24.6488 15.4562 24.7109 15.4257C24.8435 15.3605 24.9931 15.2163 25.158 15.0059C25.3156 14.8048 25.394 14.502 25.492 14.0592L25.5095 13.9807C25.5095 13.9807 25.5095 13.9807 25.5095 13.9807C25.6221 13.4761 25.7034 12.968 25.7034 12.4948C25.7034 12.455 25.7044 12.4113 25.7052 12.3725L25.7052 12.3687C25.7069 12.2897 25.7084 12.2143 25.7063 12.1386C25.7044 12.0686 25.6996 12.0098 25.6921 11.9628C25.421 11.8694 25.0987 11.8392 24.6769 11.8056C24.6599 11.8043 24.6427 11.8029 24.6253 11.8015C24.1193 11.7617 23.4502 11.7089 22.87 11.3599C22.5274 11.1538 22.3356 10.8518 22.2175 10.5609C22.1098 10.2955 22.0477 9.99645 21.9955 9.7454L21.99 9.71876C21.9539 9.54545 21.92 9.38304 21.8767 9.22057C21.77 8.82 21.8878 8.47778 22.0384 8.23293C22.171 8.01719 22.353 7.83928 22.4648 7.73008C22.4699 7.72503 22.4749 7.72013 22.4798 7.71539C22.5244 7.67174 22.557 7.63967 22.5846 7.61068C22.5976 7.59692 22.6073 7.58626 22.6143 7.57805C22.6214 7.56974 22.6241 7.56595 22.624 7.5661C22.6858 7.47973 22.7546 7.38768 22.8221 7.29752L22.8244 7.29438C22.9954 7.06589 23.1656 6.83747 23.3021 6.60985C23.4416 6.37709 23.5104 6.20169 23.5261 6.08255C23.523 6.07771 23.5186 6.07139 23.5127 6.06341C23.495 6.0395 23.4708 6.01017 23.4323 5.96585C23.2936 5.80605 23.1618 5.6422 23.0382 5.4885L23.0348 5.48429C22.8574 5.26381 22.696 5.06366 22.5239 4.87878C22.3135 4.65277 22.0754 4.45305 21.8028 4.22559L21.7949 4.21901C21.5911 4.04894 21.367 3.86197 21.1544 3.6548C21.0945 3.5964 20.9893 3.54794 20.6166 3.60132C20.5363 3.61282 20.45 3.65401 20.2466 3.77046L20.2382 3.77525C20.1537 3.82362 20.0438 3.88657 19.9261 3.94066C19.8131 3.99255 19.7023 4.04736 19.5839 4.10597C19.5719 4.11193 19.5598 4.11795 19.5475 4.124C19.1014 4.34509 18.5457 4.62054 17.8447 4.62054L17.8109 4.62056C17.8027 4.62057 17.7943 4.62058 17.7856 4.6206C17.5911 4.62095 17.2743 4.62152 16.9785 4.53737C16.6358 4.43985 16.2611 4.21067 16.0901 3.73056C15.9195 3.25161 15.8389 2.73436 15.7701 2.29223L15.7661 2.26654C15.7383 2.08824 15.7123 1.92136 15.6826 1.76025C15.6733 1.70979 15.666 1.66355 15.6604 1.62747L15.66 1.62508C15.6538 1.58555 15.6499 1.5612 15.6462 1.5416C15.6171 1.52879 15.5769 1.51313 15.5244 1.49547C15.3881 1.44955 15.2091 1.40343 15.0125 1.36209C14.6073 1.2769 14.2149 1.22989 14.0682 1.22989H12.2082C12.2082 1.22989 12.2083 1.22989 12.2082 1.22989C12.2055 1.23007 12.1716 1.23235 12.104 1.25007C12.0386 1.2672 11.962 1.29334 11.8843 1.32622C11.8064 1.35918 11.7363 1.39513 11.6819 1.42869C11.6724 1.43451 11.6641 1.43989 11.6567 1.44479ZM17.3385 22.3227C17.3382 22.3229 17.3379 22.3231 17.3376 22.3233ZM6.02388 3.79977C6.0279 3.79913 6.02747 3.79948 6.02327 3.79987C6.02348 3.79983 6.02369 3.7998 6.02388 3.79977ZM11.405 0.193575C11.635 0.0962199 11.9405 0 12.2082 0H14.0682C14.3417 0 14.8315 0.0672565 15.2655 0.158502C15.4885 0.205376 15.7183 0.26301 15.9169 0.329882C16.016 0.363253 16.1175 0.402287 16.2108 0.448038C16.2956 0.489592 16.4144 0.555959 16.5161 0.657875C16.7983 0.940784 16.8438 1.23347 16.8725 1.41839C16.8734 1.42391 16.8742 1.42933 16.8751 1.43466C16.881 1.47257 16.886 1.50432 16.8921 1.53753C16.8921 1.53754 16.8921 1.53753 16.8921 1.53753C16.9251 1.71672 16.9536 1.89906 16.9807 2.07301L16.9813 2.07718C17.0547 2.54833 17.1205 2.95802 17.2487 3.31785C17.2508 3.32384 17.2526 3.32751 17.2536 3.32941C17.2527 3.3288 17.2523 3.32846 17.2523 3.32843C17.2523 3.32843 17.2526 3.32871 17.2531 3.32929C17.2537 3.32997 17.2542 3.33057 17.2544 3.33087C17.2547 3.33135 17.2544 3.33096 17.2536 3.32941C17.2582 3.3326 17.2752 3.34306 17.3151 3.35443C17.4287 3.38675 17.5813 3.39087 17.8098 3.39066L17.8447 3.39064C18.2363 3.39064 18.5562 3.24239 19.0383 3.00373L19.0417 3.00207C19.1567 2.94511 19.2821 2.88304 19.4125 2.8231C19.4759 2.79401 19.5416 2.75686 19.6356 2.70304C19.6436 2.69847 19.6519 2.69372 19.6604 2.68883C19.8313 2.59065 20.1078 2.43175 20.4422 2.38385C20.8565 2.32451 21.5047 2.27869 22.0129 2.77408C22.1885 2.94524 22.3788 3.10441 22.5907 3.28124L22.6029 3.29139C22.8631 3.50847 23.1565 3.75327 23.4241 4.04076C23.6291 4.26089 23.8158 4.49308 23.9868 4.7056L23.993 4.71335C24.1201 4.87129 24.2388 5.01867 24.3612 5.1597C24.4407 5.25132 24.5615 5.39173 24.6454 5.56904C24.7404 5.76957 24.7773 5.98889 24.747 6.23117C24.7003 6.60597 24.5267 6.95912 24.3569 7.24232C24.1852 7.5286 23.9799 7.80301 23.8167 8.02119L23.8092 8.03117C23.739 8.12502 23.6778 8.20688 23.6246 8.28123C23.5414 8.39771 23.4278 8.50861 23.3549 8.57988C23.3498 8.58484 23.3449 8.5896 23.3402 8.59416C23.278 8.6551 23.2271 8.70516 23.181 8.75602C23.1355 8.80622 23.1053 8.84573 23.086 8.87716C23.0755 8.89423 23.0701 8.90589 23.0674 8.9126C23.0667 8.90972 23.0659 8.90684 23.0651 8.90395C23.0651 8.90375 23.0651 8.90375 23.0651 8.90395C23.0652 8.90453 23.0656 8.90679 23.0657 8.91028C23.0658 8.91485 23.0653 8.91824 23.065 8.91943C23.065 8.91943 23.0655 8.9173 23.0674 8.9126C23.119 9.1075 23.1585 9.29703 23.1928 9.46199L23.1941 9.46821C23.2536 9.75412 23.2957 9.94706 23.3572 10.0984C23.412 10.2337 23.4613 10.2803 23.5039 10.306C23.8129 10.4918 24.2022 10.5341 24.7745 10.5796C24.7878 10.5807 24.8012 10.5817 24.8147 10.5828C25.2479 10.6171 25.798 10.6606 26.3003 10.8809C26.7439 11.0755 26.8622 11.518 26.901 11.7355C26.9438 11.9765 26.9384 12.2313 26.9352 12.378L26.9349 12.3944C26.934 12.438 26.9333 12.4692 26.9333 12.4948C26.9333 13.0975 26.8311 13.7055 26.7098 14.2488L26.6928 14.3252C26.6895 14.34 26.6862 14.3553 26.6828 14.3708C26.5992 14.7502 26.4734 15.3213 26.126 15.7645C25.9369 16.0058 25.6462 16.3363 25.2537 16.5293C25.1372 16.5866 25.0198 16.6317 24.9301 16.6661L24.9212 16.6695C24.8293 16.7048 24.7636 16.7303 24.7037 16.7588C24.5746 16.8203 24.3939 16.877 24.2504 16.922C24.2409 16.925 24.2316 16.9279 24.2225 16.9308C23.9454 17.0179 23.6807 17.1032 23.484 17.2078C23.4263 17.2385 23.3877 17.2641 23.3632 17.2829C23.3634 17.2544 23.3635 17.2252 23.3635 17.1956C23.3635 17.2697 23.3303 17.3115 23.3305 17.3117C23.3305 17.3117 23.3307 17.3114 23.3312 17.3109C23.3364 17.3052 23.3466 17.2956 23.3632 17.2829C23.363 17.3118 23.3628 17.34 23.3626 17.3672C23.36 17.6656 23.3629 17.8293 23.3977 17.9596C23.4218 18.0497 23.4609 18.124 23.584 18.2088C23.6682 18.2668 23.7548 18.3222 23.8523 18.3843C23.9168 18.4255 23.9864 18.4698 24.0564 18.5161C24.2206 18.6247 24.3449 18.7642 24.4155 18.8433C24.4196 18.8479 24.4235 18.8523 24.4272 18.8564C24.4791 18.9144 24.5072 18.9451 24.5336 18.9692C24.5427 18.9776 24.5524 18.9862 24.5664 18.9986C24.5664 18.9986 24.5664 18.9986 24.5664 18.9986C24.5702 19.002 24.5747 19.0059 24.5798 19.0102C24.6689 19.0875 24.9314 19.3148 24.9416 19.7212C24.9531 20.1828 24.9248 20.5462 24.6846 21.0352L24.6798 21.0451C24.4322 21.5493 24.1224 22.1802 23.7211 22.6923C23.4774 23.0032 23.1714 23.3709 22.8165 23.6972C22.4647 24.0207 22.0346 24.3322 21.5362 24.4946C21.147 24.6214 20.7576 24.5784 20.4468 24.5006C20.1323 24.4217 19.8416 24.2925 19.6239 24.1878C19.5705 24.1621 19.5163 24.1367 19.4589 24.1097L19.4492 24.1052C19.2878 24.0294 19.0997 23.9412 18.9164 23.8351C18.8296 23.7848 18.7432 23.7318 18.6639 23.6831L18.661 23.6813C18.4522 23.5532 18.2891 23.4546 18.1321 23.3892C18.0957 23.374 18.0598 23.3571 18.0265 23.3404C18.0578 23.3183 18.0848 23.2974 18.0985 23.2868C18.1009 23.285 18.1029 23.2834 18.1045 23.2822C18.1574 23.2417 18.188 23.219 18.2079 23.2068C18.208 23.2067 18.2082 23.2066 18.2083 23.2065C18.2119 23.2045 18.2121 23.2042 18.2083 23.2065C18.2025 23.2097 18.1878 23.2171 18.166 23.225C18.1502 23.2307 18.1196 23.2408 18.0778 23.2474C18.0697 23.2486 18.0612 23.2498 18.0523 23.2508C18.0194 23.2543 17.9709 23.2564 17.913 23.2481C17.8989 23.246 17.8842 23.2433 17.869 23.2399C17.8448 23.2344 17.8195 23.227 17.7932 23.2172C17.7932 23.2172 17.7932 23.2172 17.7932 23.2172C17.7941 23.2175 17.8024 23.221 17.8215 23.2307C17.8387 23.2395 17.8575 23.2496 17.8826 23.2634L17.9543 23.3874C17.8222 23.4638 17.7704 23.5244 17.6089 23.7326L17.5979 23.7469C17.5331 23.8303 17.5051 23.9396 17.4628 24.2416L17.4621 24.2463C17.4521 24.3178 17.4403 24.4022 17.425 24.4874C17.4065 24.5903 17.391 24.6994 17.3734 24.824C17.3706 24.844 17.3677 24.8647 17.3648 24.8858C17.2968 25.3748 17.1894 26.1467 16.5946 26.6728C16.4147 26.832 16.1954 26.9401 16.019 27.0144C15.8394 27.0901 15.6533 27.1512 15.5135 27.1971L15.5052 27.1998C15.4857 27.2062 15.4672 27.2123 15.4495 27.2181C15.4364 27.2225 15.4237 27.2267 15.4113 27.2308C15.0976 27.3356 14.6235 27.4802 14.1884 27.4884C14.1755 27.4887 14.154 27.4914 14.0633 27.5112L14.0532 27.5134C13.9863 27.528 13.8742 27.5525 13.7509 27.5605C13.3086 27.5891 12.8654 27.5591 12.4688 27.5238C11.6025 27.4466 11.1114 26.7207 10.8649 26.2846C10.7628 26.104 10.697 25.921 10.6491 25.788L10.644 25.7737C10.5999 25.6513 10.569 25.5675 10.5305 25.4904C10.4151 25.2589 10.2892 24.9829 10.1988 24.7109C10.184 24.6666 10.1689 24.6125 10.1573 24.5708L10.1551 24.5628C10.1211 24.4412 10.0855 24.3166 10.039 24.2068C10.0163 24.1534 9.99638 24.1166 9.9813 24.0939C9.98052 24.0927 9.97977 24.0916 9.97907 24.0906C9.99632 24.1015 10.0122 24.1113 10.0264 24.1201L10.3481 23.596L9.9924 24.0976C9.97724 24.0869 9.97046 24.0791 9.97053 24.0792C9.97059 24.0792 9.97357 24.0826 9.97907 24.0906C9.77511 23.9621 9.3751 23.6942 9.16354 23.5422C9.17262 23.54 9.18091 23.5381 9.18844 23.5366C9.21106 23.5321 9.22158 23.5317 9.22204 23.5317C9.22201 23.5317 9.20372 23.5321 9.17367 23.5237C9.14166 23.5148 9.09934 23.4966 9.05723 23.4629C9.08148 23.4823 9.11817 23.5096 9.16354 23.5422C9.14502 23.5467 9.12321 23.5529 9.09791 23.561C8.93294 23.614 8.73352 23.7122 8.50027 23.8289L8.49406 23.832C8.39168 23.8833 8.28068 23.9388 8.17829 23.9851C8.0802 24.0294 7.95295 24.0827 7.82507 24.1118C7.70955 24.1382 7.48879 24.2212 7.23816 24.3399C6.99023 24.4574 6.77784 24.5789 6.67392 24.6557C6.5202 24.7693 6.25474 24.9305 5.91948 24.8709C5.61425 24.8165 5.42218 24.6013 5.34285 24.5124L5.34243 24.5119C5.29968 24.464 5.24505 24.4181 5.14447 24.3368C5.13952 24.3328 5.13442 24.3287 5.12917 24.3244C5.01848 24.2351 4.84539 24.0954 4.70449 23.9036C4.56989 23.7205 4.39752 23.5611 4.17016 23.3543L4.1605 23.3455C4.00485 23.204 3.82204 23.0378 3.65431 22.8486L3.61975 22.8097C3.61065 22.7994 3.60136 22.789 3.5919 22.7783C3.33979 22.4947 2.9645 22.0725 2.77526 21.601C2.67087 21.3409 2.60735 21.0316 2.66809 20.6978C2.72984 20.3584 2.9086 20.0564 3.18156 19.7971C3.35212 19.6351 3.53511 19.4928 3.69194 19.3707L3.70169 19.3632C3.96188 19.1607 4.15592 19.0064 4.30642 18.8203C4.33479 18.7852 4.34695 18.7543 4.35203 18.7054C4.35858 18.6423 4.35229 18.553 4.32455 18.4075C4.23499 17.9379 4.08989 17.418 3.88776 17.1319C3.83974 17.0639 3.81014 17.0293 3.79527 17.0135C3.81469 17.0175 3.81391 17.019 3.80446 17.0146C3.79429 17.01 3.78748 17.0051 3.78479 17.003C3.7865 17.0045 3.78994 17.0078 3.79527 17.0135C3.78887 17.0121 3.78026 17.0105 3.76904 17.0087C3.71858 17.0006 3.65319 16.9944 3.53731 16.9838L3.53254 16.9834C3.2675 16.9592 2.9984 16.9505 2.70828 16.9413L2.69413 16.9408C2.31965 16.9289 1.90875 16.9158 1.49584 16.8587C1.46697 16.8547 1.43393 16.8508 1.39133 16.8457C1.38375 16.8448 1.37579 16.8438 1.36748 16.8428C1.20658 16.8238 0.914234 16.7892 0.661585 16.683C0.52116 16.6239 0.346765 16.5249 0.209152 16.3526C0.0602009 16.1661 -0.0114366 15.936 0.00148396 15.6899C0.0157779 15.4176 0.0203016 15.1403 0.024983 14.8488L0.0253091 14.8285C0.0343966 14.2619 0.0443634 13.6405 0.144365 13.0278C0.205175 12.6552 0.272377 12.2675 0.363593 11.8806C0.413913 11.6672 0.50306 11.3642 0.760553 11.1061C1.14682 10.7188 1.57603 10.571 1.93189 10.4484C1.94313 10.4445 1.95429 10.4407 1.96537 10.4368L2.03396 10.4131C2.29278 10.3233 2.5493 10.2796 2.75251 10.2449L2.76938 10.242C3.02918 10.1977 3.2114 10.1638 3.37654 10.095C3.36875 10.1083 3.36415 10.1137 3.36429 10.1136C3.36499 10.1128 3.38218 10.0934 3.41988 10.076C3.40554 10.0826 3.3911 10.089 3.37654 10.095C3.37963 10.0897 3.38324 10.0832 3.38725 10.0753C3.4168 10.0169 3.44357 9.93288 3.4618 9.8435C3.5586 9.36907 3.28257 8.98284 2.7615 8.36304L2.76052 8.36187C2.71217 8.30436 2.66208 8.24478 2.61293 8.18519C2.17598 7.65542 2.06738 7.10403 2.06738 6.51927L2.06738 6.51201C2.06738 6.41126 2.06736 6.25828 2.08221 6.10235C2.09657 5.95149 2.12936 5.73738 2.22805 5.53949C2.43011 5.13434 2.76396 4.83277 3.0012 4.61847C3.01092 4.60969 3.02047 4.60106 3.02985 4.59258C3.19809 4.44033 3.3238 4.32499 3.42248 4.20507C3.60566 3.98247 4.10757 3.54079 4.5976 3.19359C4.84788 3.01625 5.12773 2.83985 5.3918 2.72266C5.52306 2.66441 5.6746 2.60978 5.8321 2.58492C5.9819 2.56127 6.20979 2.55312 6.43243 2.67378C6.90479 2.92976 7.33787 3.23009 7.7406 3.50936L7.75282 3.51784C7.97824 3.67415 8.19438 3.82396 8.41465 3.96628C8.59226 4.08103 8.73696 4.21323 8.84033 4.30766L8.85069 4.31712C8.97395 4.42966 9.03694 4.48402 9.09854 4.52016C9.13865 4.5437 9.17353 4.55639 9.22547 4.55828C9.22259 4.5591 9.22121 4.55942 9.22122 4.55948C9.22124 4.55961 9.2277 4.55853 9.23955 4.55853C9.23472 4.55853 9.23003 4.55845 9.22547 4.55828C9.23311 4.55612 9.25129 4.5505 9.28196 4.53712C9.34494 4.50963 9.41426 4.47084 9.51028 4.41614L9.51618 4.41278C9.56766 4.38345 9.6319 4.34685 9.69415 4.31528C9.7823 4.27057 9.858 4.22369 9.91557 4.17623C9.97394 4.1281 9.99469 4.095 10.0005 4.08262C10.0264 4.02774 10.0464 3.91034 10.0709 3.69211L10.0753 3.6534C10.1592 2.91753 10.2768 2.19499 10.4118 1.47671C10.4144 1.46272 10.4173 1.44083 10.4235 1.38954C10.4239 1.38644 10.4243 1.38322 10.4247 1.37988C10.4325 1.31545 10.4456 1.20662 10.4725 1.09879C10.4997 0.989897 10.5564 0.812969 10.6951 0.657575C10.8848 0.445024 11.1796 0.288962 11.405 0.193575ZM17.9543 23.3874C17.9543 23.3874 17.9543 23.3874 17.9543 23.3874L17.8826 23.2634C17.8879 23.2663 17.8935 23.2694 17.8994 23.2727L17.908 23.2774C17.9384 23.2941 17.9798 23.317 18.0265 23.3404C18.0035 23.3567 17.9782 23.3735 17.9543 23.3874ZM13.1458 9.12463C12.9238 9.12203 12.7821 9.1228 12.6514 9.15032C12.5487 9.17195 12.4424 9.22312 12.2496 9.32373L12.2448 9.32623C12.1757 9.36231 12.0934 9.40526 12.0079 9.44518C11.032 9.90079 10.2967 10.8877 10.0736 11.9665C9.9443 12.5915 9.83918 13.14 9.83918 13.7066C9.83918 14.15 9.85358 14.4588 9.97024 14.7551C10.0897 15.0583 10.3213 15.373 10.5906 15.7065C10.8989 16.0884 11.3149 16.3946 11.7918 16.6393C11.8926 16.691 11.9938 16.7497 12.0811 16.8002L12.0874 16.8039C12.3536 16.9582 12.5081 17.039 12.6315 17.0599C12.8486 17.0966 13.0754 17.0978 13.3635 17.0974L13.4378 17.0974C13.874 17.0974 14.2576 17.0513 14.6595 16.9396C15.1471 16.8041 15.6375 16.6415 15.9723 16.4225C16.4722 16.0955 16.8302 15.7999 17.1156 15.3573C17.4322 14.8663 17.6828 14.2821 17.7445 13.7748C17.7849 13.4424 17.807 13.1354 17.807 12.8099C17.807 12.7624 17.8089 12.7149 17.8103 12.6803L17.8105 12.6759C17.8116 12.6462 17.8125 12.6236 17.8129 12.6021C17.8133 12.5812 17.8131 12.5661 17.8126 12.5547C17.8125 12.5521 17.8124 12.5498 17.8122 12.5479C17.7987 12.5142 17.775 12.4691 17.7259 12.3811L17.7215 12.3732C17.6869 12.3113 17.6376 12.2231 17.5958 12.1287C17.3018 11.4649 16.8823 10.8213 16.3901 10.291C16.3587 10.2572 16.3273 10.2222 16.2992 10.1909L16.2975 10.189C16.1457 10.0199 16.0715 9.94779 16.0185 9.91913C15.8607 9.83384 15.7202 9.71347 15.634 9.63974C15.6288 9.63529 15.6238 9.63101 15.6191 9.62692C15.5486 9.56675 15.5031 9.5285 15.4616 9.49901C15.4385 9.48259 15.4257 9.47568 15.4219 9.47367C15.2861 9.43167 15.1553 9.38503 15.0385 9.34337L15.0332 9.34149C14.8742 9.28483 14.7397 9.23723 14.6079 9.20057C14.3765 9.19689 14.1525 9.1786 13.9512 9.16216L13.9409 9.16132C13.7064 9.14218 13.5016 9.12581 13.2995 9.12581C13.2464 9.12581 13.194 9.12519 13.1458 9.12463ZM13.1389 7.89456C13.1461 7.89465 13.1532 7.89473 13.1602 7.89482C13.2096 7.89539 13.2548 7.89591 13.2995 7.89591C13.556 7.89591 13.8068 7.91639 14.0304 7.93465L14.0409 7.9355C14.2766 7.95474 14.4841 7.97134 14.6901 7.97134H14.7658L14.8393 7.98971C15.0563 8.04398 15.2608 8.11691 15.4352 8.17909L15.4462 8.18301C15.5703 8.22726 15.6801 8.26631 15.7903 8.30024C16.0599 8.38323 16.2827 8.57525 16.395 8.6721C16.4032 8.67914 16.4108 8.68568 16.4177 8.69163C16.5282 8.78593 16.5733 8.82096 16.6035 8.83729C16.8654 8.97892 17.0749 9.21327 17.1928 9.34511C17.1997 9.35289 17.2063 9.36031 17.2127 9.36734C17.2426 9.40066 17.2677 9.42859 17.2915 9.45429C17.8793 10.0876 18.373 10.8465 18.7203 11.6307C18.7369 11.6681 18.7597 11.7098 18.7997 11.7814C18.802 11.7856 18.8044 11.7899 18.8069 11.7943C18.8538 11.8781 18.9286 12.012 18.98 12.1605C19.0552 12.3778 19.0447 12.6068 19.0402 12.7056C19.0399 12.7128 19.0396 12.7193 19.0394 12.7251C19.0378 12.7653 19.0369 12.7894 19.0369 12.8099C19.0369 13.1943 19.0105 13.5518 18.9654 13.9233C18.874 14.6744 18.5284 15.4359 18.1492 16.0239C17.7289 16.6757 17.2075 17.0842 16.6455 17.4518C16.1343 17.7862 15.475 17.9895 14.9888 18.1246C14.4654 18.2701 13.9695 18.3273 13.4378 18.3273L13.3456 18.3273C13.0784 18.3277 12.7549 18.3282 12.4262 18.2725C12.0597 18.2105 11.7201 18.013 11.5028 17.8867C11.4918 17.8803 11.4811 17.8741 11.4707 17.868C11.3761 17.8132 11.3005 17.7696 11.2304 17.7336C10.6469 17.4342 10.0784 17.03 9.6337 16.4791C9.36697 16.1488 9.02192 15.7036 8.82587 15.2057C8.61434 14.6685 8.60929 14.1441 8.60929 13.7066C8.60929 12.9985 8.74126 12.3358 8.86914 11.7174C9.1638 10.2927 10.1292 8.96493 11.4876 8.33076C11.5463 8.30334 11.6063 8.27214 11.6806 8.23338C11.6876 8.22974 11.6947 8.22602 11.702 8.22222C11.8686 8.13506 12.1144 8.00654 12.3979 7.94683C12.6729 7.88892 12.9409 7.89217 13.1389 7.89456Z" fill="black"/>
</svg>
