<svg width="24" height="24" viewBox="0 0 24 24" fill="none" xmlns="http://www.w3.org/2000/svg">
<g clip-path="url(#clip0_169_56746)">
<path d="M0.668373 15.213C-0.238348 11.5191 -0.361945 7.60966 1.17881 5.66247C2.71956 3.71527 8.76227 -0.214803 11.9811 0.00918187C14.113 0.375832 16.4411 0.990352 18.4499 2.58315C21.2291 4.78689 24.0721 7.48949 23.9986 11.0187C23.9187 14.857 23.7284 16.9362 22.3774 18.434C20.8064 20.1757 17.4492 23.8437 14.6241 23.9558C12.9603 24.0217 11.2049 24.1383 9.09801 23.2387C5.28444 21.6103 1.58138 18.9325 0.668373 15.213Z" fill="#00C3A9"/>
<path d="M11.9814 0.00869313C14.1133 0.37535 16.4415 0.990189 18.4502 2.58291C21.2293 4.78659 24.0724 7.48936 23.999 11.0185L23.9609 12.3778C23.8525 15.3673 23.5597 17.123 22.3779 18.4335L21.709 19.1669C19.9753 21.0373 17.0958 23.8579 14.624 23.956L13.9951 23.9804C12.5158 24.0346 10.9411 24.0253 9.09765 23.2382C5.28424 21.6098 1.58093 18.9322 0.667962 15.2128C-0.238708 11.519 -0.362017 7.60916 1.1787 5.66201C2.71968 3.71476 8.76273 -0.215285 11.9814 0.00869313ZM11.8564 1.1044C11.2732 1.07469 10.4748 1.22437 9.51757 1.56143C8.55208 1.90143 7.50678 2.40133 6.49413 2.97744C4.42927 4.15221 2.67966 5.53751 2.04101 6.34463C1.48656 7.04535 1.1511 8.22635 1.10546 9.81436C1.06071 11.372 1.29944 13.1712 1.73632 14.9511C2.51901 18.1391 5.78747 20.6293 9.53027 22.2274C11.3796 23.017 12.897 22.9231 14.5801 22.8563C15.6013 22.8159 16.901 22.0898 18.2695 20.9579C19.5897 19.866 20.7744 18.5687 21.5605 17.6972C22.0642 17.1388 22.3833 16.4491 22.584 15.3974C22.7906 14.3141 22.8583 12.923 22.8984 10.996C22.9285 9.55332 22.3684 8.23106 21.415 6.96572C20.4536 5.68974 19.1394 4.5338 17.7666 3.44522C15.9939 2.03962 13.9104 1.46189 11.8564 1.1044Z" fill="black"/>
<path d="M17.1907 8.15575C17.5673 7.75196 18.1999 7.72954 18.6038 8.10594C19.0076 8.48254 19.03 9.11513 18.6536 9.51903C18.3506 9.84394 18.1807 10.0073 17.0042 11.0649C15.8169 12.1323 13.6596 14.0612 12.5433 15.0698C12.0118 15.5598 11.7659 15.8862 11.636 16.0727C11.6029 16.1203 11.4819 16.3044 11.4114 16.3921C11.3637 16.4514 11.2525 16.5841 11.0745 16.688C10.8567 16.815 10.6059 16.8617 10.3587 16.8247C10.1064 16.7868 9.92149 16.6689 9.84405 16.6167C9.74819 16.552 9.65903 16.4767 9.58527 16.4116C9.43801 16.2817 9.2453 16.0947 9.01788 15.8745C7.98416 14.8734 7.33276 14.2874 6.9339 13.9516C6.7343 13.7836 6.60477 13.684 6.52765 13.6284C6.46842 13.5857 6.4524 13.5787 6.46808 13.5874C6.00555 13.352 5.79616 12.7962 6.00031 12.31C6.21421 11.8011 6.79985 11.5623 7.3089 11.7759C7.4492 11.8348 7.58631 11.9269 7.69659 12.0063C7.82735 12.1005 7.99751 12.2342 8.22101 12.4224C8.66605 12.797 9.34911 13.412 10.39 14.4194C10.5885 14.1868 10.8479 13.9113 11.1956 13.5913L11.2025 13.5854C12.3198 12.576 14.4894 10.6365 15.6673 9.57762C16.8555 8.50947 16.9583 8.40494 17.1907 8.15575Z" fill="white"/>
</g>
<defs>
<clipPath id="clip0_169_56746">
<rect width="24" height="24" fill="white"/>
</clipPath>
</defs>
</svg>
