<svg width="25" height="26" viewBox="0 0 25 26" fill="none" xmlns="http://www.w3.org/2000/svg">
<path d="M4.94751 2.2594C4.92956 1.17166 5.77766 0.315972 6.82673 0.442364C7.91447 0.424415 8.77015 1.27252 8.64376 2.32158C8.65894 5.72915 8.92412 9.35841 10.7978 12.181C12.2101 14.4159 14.3932 16.0838 16.5376 17.896C16.463 15.8649 16.3884 13.8337 15.9865 11.8696C15.7006 9.47241 19.3968 9.53459 19.7214 11.7874C20.1413 14.8393 20.3782 17.9969 20.3263 21.0771C20.2877 21.2214 20.249 21.3658 20.2103 21.5101C20.4113 22.4922 19.7745 23.7139 18.5038 23.8375C15.0962 23.8527 11.6216 23.5405 8.30178 22.651C7.29139 22.3802 6.80174 21.3208 7.03379 20.4548C7.26585 19.5887 8.36396 18.9547 9.23001 19.1868C10.5291 19.5349 11.7225 19.6999 13.0602 19.9037C10.9158 18.0914 8.81012 16.1349 7.29213 13.717C5.32317 10.0953 4.991 6.13867 4.94751 2.2594Z" fill="black"/>
</svg>
