<svg width="24" height="24" viewBox="0 0 24 24" fill="none" xmlns="http://www.w3.org/2000/svg">
<g clip-path="url(#clip0_169_56748)">
<path d="M14.56 23.9191C11.5022 23.7876 6.81423 23.5399 4.22663 23.2614C-0.217369 22.783 -0.52095 22.5288 0.459147 18.0417C1.02345 15.4582 2.09722 13.622 3.28013 11.2459C3.86316 10.0653 7.63475 3.11675 8.22397 1.98338C8.80866 0.858732 10.0592 -0.754904 11.5549 0.395917C11.8592 0.630063 12.1413 0.86687 13.8943 3.13908C15.5548 5.29135 17.857 9.08428 19.6189 11.5802C21.3807 14.0762 23.5046 17.8682 23.7197 18.5353C24.6199 21.3264 23.3773 23.6857 19.6189 23.9446C18.9092 23.9934 17.6177 24.0506 14.56 23.9191Z" fill="#FFDE45"/>
<path d="M8.22365 1.98353C8.8083 0.858958 10.0592 -0.754688 11.5547 0.395634C11.859 0.629776 12.1416 0.866724 13.8945 3.13881C15.555 5.29108 17.8573 9.08427 19.6192 11.5802C21.3809 14.076 23.5043 17.8678 23.7197 18.5353C24.6199 21.3264 23.3773 23.6856 19.6192 23.9445L18.959 23.9797C18.153 24.0102 16.8529 24.0178 14.5596 23.9191C11.8841 23.8041 7.96058 23.6003 5.2881 23.3645L4.22658 23.2619C0.0605245 22.8135 -0.46678 22.5616 0.291031 18.8351L0.459 18.0422C1.02329 15.4587 2.09739 13.6223 3.28029 11.2463C3.71755 10.3608 5.94849 6.23108 7.28517 3.7433L8.22365 1.98353ZM10.5088 1.09974C10.447 1.10103 10.3395 1.12542 10.1778 1.23841C9.82251 1.4867 9.46406 1.98382 9.20021 2.49134C8.57858 3.68701 4.84889 10.5544 4.26662 11.7336L4.26466 11.7365C3.04672 14.183 2.06151 15.8625 1.5342 18.2765C1.28728 19.407 1.14151 20.1844 1.10744 20.7492C1.07324 21.3164 1.16752 21.466 1.19142 21.4982C1.21804 21.534 1.33886 21.6684 1.89455 21.8088C2.4447 21.9478 3.21912 22.047 4.34474 22.1682C6.89231 22.4424 11.5465 22.6889 14.6074 22.8205C17.636 22.9508 18.8849 22.8922 19.543 22.8469C21.2149 22.7317 22.0942 22.1705 22.5098 21.5666C22.9268 20.9604 23.0539 20.0546 22.6729 18.8732C22.6716 18.8699 22.6644 18.8497 22.6465 18.8078C22.6262 18.7603 22.5974 18.6977 22.5606 18.6203C22.4869 18.4656 22.387 18.2668 22.2627 18.0305C22.0144 17.5584 21.6813 16.9572 21.2979 16.2951C20.529 14.9676 19.5757 13.4263 18.7207 12.215C17.8257 10.9471 16.7941 9.35104 15.7988 7.83413C14.7918 6.29922 13.8237 4.84797 13.0235 3.81068C11.2556 1.51929 11.0563 1.40042 10.8838 1.26771C10.6758 1.10773 10.5564 1.09878 10.5088 1.09974Z" fill="black"/>
<path d="M10 14V8C10 7.44772 10.4477 7 11 7C11.5523 7 12 7.44772 12 8V14C12 14.5523 11.5523 15 11 15C10.4477 15 10 14.5523 10 14Z" fill="black"/>
<path d="M11.276 17.756C11.6067 17.7214 11.9159 17.8527 12.1227 18.0821C12.2571 18.1716 12.3721 18.2945 12.4528 18.4474C12.6854 18.8887 12.6643 19.4707 12.2565 19.881C11.919 20.2204 11.4935 20.2599 11.2731 20.254C10.9955 20.2465 10.7462 20.1654 10.5299 20.0421C10.4424 19.9922 10.2959 19.8987 10.1666 19.7628C10.1124 19.7058 9.97083 19.5496 9.89808 19.3077C9.85725 19.1718 9.82969 18.9791 9.88246 18.7608C9.93739 18.534 10.0611 18.3547 10.2028 18.2286C10.5354 17.9328 10.9496 17.7901 11.276 17.756ZM10.6832 19.38L11.0524 19.1847L10.6832 19.38ZM11.4059 18.9981L11.3053 19.0519L11.4059 18.9991V18.9981ZM11.4059 18.9981V18.9991L11.568 18.9142L11.8239 18.7784L11.4059 18.9981Z" fill="black"/>
</g>
<defs>
<clipPath id="clip0_169_56748">
<rect width="24" height="24" fill="white"/>
</clipPath>
</defs>
</svg>
