<svg width="24" height="24" viewBox="0 0 24 24" fill="none" xmlns="http://www.w3.org/2000/svg">
<path d="M7.50189 12.796C8.15573 12.6761 8.68318 12.6454 8.94826 12.63C10.1498 12.5604 11.3425 13.0504 12.5363 13.1461C12.8572 13.1718 12.9217 13.1852 13.0472 13.2382C13.3584 13.3695 13.5957 13.5039 13.758 13.5793C13.9898 13.6869 14.3198 13.8404 14.6654 14.0868C14.8407 14.2118 15.0083 14.3477 15.115 14.4482C15.2766 14.6004 15.4944 14.8593 15.7429 15.207C15.8431 15.3473 15.8877 15.4228 16.0099 15.6943C16.132 15.9657 16.3257 16.4193 16.5286 16.7714C16.7314 17.1235 16.9372 17.3666 17.0935 17.5594C17.2498 17.7521 17.3544 17.8895 17.4522 18.0247C17.6414 18.2863 17.8481 18.5829 17.9687 18.9411C18.0811 19.2751 18.1712 19.5232 18.1686 19.6936C18.1632 20.0391 18.5458 20.4189 18.5245 20.6572C18.5048 20.8773 18.0034 21.191 17.7199 21.3152C17.5456 21.3916 17.375 21.4523 17.1028 21.4557C16.8962 21.4582 16.5584 21.4521 16.2149 21.4756C15.8714 21.4991 15.5325 21.5506 15.2447 21.5371C14.8706 21.5196 14.5281 21.3466 14.1514 21.3937C13.983 21.4148 13.7411 21.455 12.0273 21.5026C10.3135 21.5501 7.22151 21.6033 5.50662 21.6523C3.79172 21.7014 3.46444 21.7559 3.17917 21.7647C2.59898 21.7825 1.10055 21.9139 0.712659 21.526C0.297822 21.1112 0.678178 19.9461 0.841698 19.4091C0.920108 19.1517 1.04153 18.6874 1.06945 18.5295C1.07949 18.4728 1.18485 18.2312 1.30327 17.8284C1.39859 17.5042 1.44214 17.3274 1.57378 17.1658C1.68658 17.0272 1.89341 16.7856 2.09265 16.4959C2.2919 16.2061 2.47966 15.8793 2.57542 15.704C2.68166 15.5095 2.70216 15.4544 2.87917 15.2704C3.03359 15.11 3.31924 14.8286 3.4683 14.6721C3.63843 14.4934 3.74798 14.3715 4.20425 14.0569C4.42409 13.9053 4.75862 13.6652 4.94613 13.54C5.1654 13.3935 5.23132 13.3596 5.67403 13.2373C6.08379 13.124 6.84805 12.9159 7.50189 12.796Z" fill="#E59697"/>
<path d="M9.16016 12.1926C9.3591 12.1882 9.76514 12.2437 10.3203 12.3381C10.8882 12.4348 11.4577 12.5268 12.0273 12.6135C12.6403 12.7069 13.2287 12.883 13.7891 13.1458C14.3519 13.4098 14.862 13.7534 15.3164 14.1741C15.776 14.5997 16.1484 15.0968 16.4336 15.6575C16.6851 16.152 16.9757 16.6229 17.3018 17.0725C17.6586 17.5645 17.963 18.0872 18.2119 18.6379C18.4716 19.2126 18.5978 19.7898 18.5781 20.3616C18.5665 20.6929 18.4635 21.0003 18.2393 21.2444C18.0198 21.4832 17.7194 21.6237 17.3867 21.6985C16.8017 21.8297 16.2026 21.8914 15.5947 21.886C15.0232 21.8809 14.4509 21.8822 13.8779 21.8889C13.3041 21.8957 12.7268 21.9065 12.1504 21.9231C11.5715 21.9398 10.9911 21.9585 10.4121 21.9739L6.93653 22.0549C6.35912 22.0671 5.77936 22.0808 5.20215 22.0999C4.62616 22.1189 4.04974 22.1447 3.47461 22.1741C2.87687 22.2046 2.28164 22.1932 1.68946 22.1399C1.33975 22.1084 1.01663 21.9972 0.766606 21.7698C0.513462 21.5394 0.3792 21.2307 0.334965 20.8879C0.258475 20.2945 0.308386 19.6912 0.477543 19.0823C0.638783 18.5019 0.845889 17.9413 1.09864 17.4016C1.34991 16.8653 1.64073 16.3447 1.96778 15.844C2.30174 15.333 2.68961 14.8663 3.13184 14.4456C3.5735 14.0255 4.0575 13.6588 4.57813 13.3459C5.10753 13.0278 5.67278 12.7901 6.27442 12.637C6.85349 12.4897 7.44074 12.3775 8.03321 12.304C8.59894 12.2337 8.98513 12.1966 9.16016 12.1926ZM9.17969 13.0579C9.0583 13.0607 8.72237 13.0981 8.14161 13.1702C7.58528 13.2393 7.03212 13.3404 6.48829 13.4788C5.96856 13.6111 5.48143 13.8152 5.02539 14.0891C4.55971 14.369 4.12804 14.6973 3.73243 15.0735C3.33821 15.4484 2.99195 15.8641 2.69434 16.3196C2.38946 16.7863 2.12046 17.27 1.88672 17.7688C1.65486 18.2637 1.46486 18.7789 1.31641 19.3127C1.17582 19.8188 1.1369 20.3064 1.19727 20.7756C1.22158 20.9642 1.28345 21.0681 1.35059 21.1292C1.42105 21.1929 1.54582 21.2547 1.76758 21.2747C2.31892 21.3243 2.87327 21.3334 3.43067 21.3049C4.01129 21.2753 4.59333 21.2528 5.17481 21.2336C5.75499 21.2145 6.33564 21.199 6.91602 21.1868C7.49492 21.1746 8.07535 21.1591 8.6543 21.1458C9.23236 21.1324 9.81069 21.1201 10.3887 21.1047C10.9673 21.0893 11.5475 21.0745 12.126 21.0579C12.7074 21.0411 13.2883 21.0266 13.8672 21.0198C14.4466 21.0129 15.0274 21.0117 15.6055 21.0168C16.1472 21.0216 16.6789 20.9671 17.1973 20.8508C17.415 20.8017 17.533 20.7239 17.5977 20.6536C17.6572 20.5885 17.7033 20.4937 17.709 20.3313C17.7234 19.9128 17.6304 19.4697 17.417 18.9973C17.1927 18.5012 16.9216 18.0294 16.5996 17.5852C16.2468 17.0986 15.9315 16.5863 15.6592 16.051C15.4203 15.5813 15.1094 15.1682 14.7256 14.8127C14.3371 14.453 13.9013 14.1601 13.4189 13.9338C12.9342 13.7066 12.4262 13.5528 11.8955 13.4719C11.3212 13.3845 10.7474 13.291 10.1748 13.1936C9.59017 13.0941 9.27696 13.0557 9.17969 13.0579Z" fill="black"/>
<path d="M2.56255 7.45022C2.56654 7.0031 2.45224 6.18619 2.60585 5.79517C3.08201 4.58307 3.44306 3.95777 4.42823 3.30027C5.28304 2.72977 6.00367 2.43638 7.0385 2.41609C7.44645 2.22894 8.29357 2.43555 8.7131 2.54223C9.46202 2.74115 10.0065 3.51163 10.4674 4.14864C11.1102 5.03697 11.4102 5.19403 11.3363 6.32081C11.3081 6.75149 11.3987 7.40774 11.3163 7.89358C11.2339 8.37942 11.1394 8.76623 11.0432 9.05792C10.775 9.87207 10.3494 10.6038 9.43451 10.7989C8.63668 10.9691 7.83735 11.1354 7.01914 11.1422C6.33368 11.1479 5.53668 11.2475 4.91916 10.8868C4.34838 10.5534 3.76508 10.0793 3.49693 9.72176C2.98016 9.03268 2.55463 8.33751 2.56255 7.45022Z" fill="#E59697"/>
<path d="M7.21582 2.00476C7.85922 1.97387 8.47607 2.09338 9.05567 2.36413C9.63261 2.63366 10.1243 3.02327 10.5254 3.52819C10.9114 4.01417 11.2162 4.54194 11.4385 5.10729C11.6653 5.68472 11.7731 6.29304 11.7676 6.92565C11.7621 7.53987 11.6839 8.14486 11.5293 8.73815C11.3662 9.3639 11.0674 9.91518 10.6367 10.3846C10.1917 10.8695 9.63472 11.1789 8.98047 11.3114C8.39286 11.4302 7.79744 11.508 7.19922 11.5419C6.57843 11.5769 5.96964 11.5181 5.37598 11.3651C4.75598 11.2051 4.20547 10.9029 3.73047 10.4657C3.26856 10.0403 2.89338 9.5472 2.61328 8.9862C2.48216 8.7235 2.37997 8.49299 2.30469 8.30065C2.23269 8.11656 2.1747 7.93472 2.15918 7.77819C2.13706 7.55402 2.13801 7.13953 2.15918 6.56921C2.18318 5.92964 2.34739 5.32239 2.64453 4.75378C2.93868 4.19134 3.33032 3.70601 3.81836 3.30163C4.29952 2.90307 4.8329 2.59299 5.41699 2.37487C5.99725 2.15822 6.59775 2.03457 7.21582 2.00476ZM7.25977 2.8739C6.73148 2.89928 6.21892 3.00416 5.72266 3.18933C5.22969 3.37338 4.77873 3.63277 4.37207 3.9696C3.97273 4.30046 3.65592 4.69719 3.41504 5.15808C3.17733 5.61299 3.04632 6.09288 3.02734 6.60339C3.00581 7.18373 3.00906 7.53762 3.02441 7.69323C3.02796 7.72718 3.04729 7.81897 3.11231 7.98522C3.17445 8.14391 3.26639 8.34658 3.39063 8.59558C3.6235 9.06214 3.93284 9.4739 4.31738 9.828C4.68863 10.1697 5.11388 10.3995 5.59375 10.5233C6.09933 10.6536 6.61808 10.7029 7.15137 10.6727C7.70822 10.6412 8.26058 10.5733 8.80762 10.4628C9.28752 10.3658 9.68115 10.1441 9.99902 9.79772C10.3313 9.43533 10.5604 9.00902 10.6885 8.51745C10.8247 7.99404 10.8936 7.46113 10.8984 6.91882C10.903 6.39452 10.8149 5.89657 10.6299 5.42565C10.44 4.9427 10.1766 4.49154 9.84277 4.07116C9.52379 3.66964 9.13817 3.36368 8.68555 3.15222C8.23607 2.94256 7.76268 2.84992 7.25977 2.8739Z" fill="black"/>
<path d="M18.6377 6.36564C19.3067 6.35553 19.9696 6.37239 20.5918 6.38517C21.2238 6.39815 21.8213 6.40767 22.4111 6.38614C23.101 6.36097 23.6808 6.89942 23.7061 7.58927C23.7312 8.27916 23.1918 8.85901 22.502 8.88419L22.0029 8.89591C21.5053 8.90263 21.0147 8.89492 20.54 8.88517C19.8973 8.87196 19.2884 8.85637 18.6748 8.86564C17.381 8.88517 15.9471 8.88517 14.5254 8.88517C13.8351 8.88517 13.2755 8.32545 13.2754 7.63517C13.2754 6.94481 13.835 6.38517 14.5254 6.38517C15.9519 6.38517 17.3663 6.38484 18.6377 6.36564Z" fill="black"/>
<path d="M17.5646 3.34058C17.5646 2.65022 18.1242 2.09058 18.8146 2.09058C19.5049 2.09058 20.0646 2.65022 20.0646 3.34058C20.0646 4.00575 20.065 4.66896 20.0822 6.04565L20.1691 11.6443L20.1642 11.7722C20.1105 12.4033 19.5866 12.9041 18.9396 12.9148C18.2926 12.9254 17.7524 12.4423 17.6779 11.8132L17.6691 11.6853L17.5822 6.07593C17.5648 4.68567 17.5646 4.01191 17.5646 3.34058Z" fill="black"/>
</svg>
