<svg width="78" height="60" viewBox="0 0 78 60" fill="none" xmlns="http://www.w3.org/2000/svg">
<path d="M13.2462 24.1049C12.0359 24.1049 10.5389 24.0612 10.1885 25.4627C9.89905 26.6206 9.66546 28.0744 10.797 28.8523C11.6517 29.4399 12.4391 29.4687 13.4474 29.4458C14.4052 29.424 14.8539 28.5716 15.283 27.8566C15.9692 26.7129 14.8938 25.4809 14.1514 24.7385" stroke="black" stroke-width="3" stroke-linecap="round"/>
<path d="M12.3408 31.2562C11.2514 32.2367 10.7114 33.2353 10.7114 34.6961C10.7114 36.2396 12.027 36.3502 13.3366 36.3255C15.3054 36.2884 16.2079 34.4717 16.0473 32.7046C16.0092 32.2862 15.4681 31.1524 15.0767 30.9645C14.9455 30.9016 14.9 30.7493 14.7749 30.6728C14.5842 30.5563 14.3522 30.4967 14.1513 30.3962C13.8494 30.2453 13.5814 30.1699 13.2461 30.1699" stroke="black" stroke-width="3" stroke-linecap="round"/>
<path d="M12.4316 37.7738C11.3214 37.7738 10.6255 39.7045 10.3696 40.6001C10.2476 41.0272 10.0977 41.9595 10.2791 42.3905C10.5537 43.0426 11.1823 43.1858 11.8029 43.341C12.7267 43.5719 13.9229 43.5665 14.8707 43.4717C15.9058 43.3682 16.3241 42.0132 16.3241 41.1735C16.3241 40.2261 16.0148 39.492 15.5546 38.674C15.208 38.0578 14.1592 37.1401 13.4273 37.1401" stroke="black" stroke-width="3" stroke-linecap="round"/>
<path d="M12.1602 43.4768C11.617 43.6743 11.1128 44.6204 10.8024 45.0861C10.4976 45.5433 10.0782 46.2917 10.0782 46.8463C10.0782 47.61 9.76053 48.599 10.0078 49.3407C10.1854 49.8736 10.9296 50.91 11.5316 50.9852C12.4509 51.1001 13.5129 51.0783 14.3328 50.6684C15.3552 50.1572 15.9061 49.2701 16.279 48.2343C16.5684 47.4306 16.4729 46.4898 16.098 45.7399C15.8273 45.1986 15.3337 44.3846 14.7854 44.1105" stroke="black" stroke-width="3" stroke-linecap="round"/>
<path d="M10.7117 51.3523C10.7117 52.7047 9.89697 53.9752 9.89697 55.3554C9.89697 55.9324 9.89501 56.2878 10.2138 56.7837C10.5965 57.379 11.5909 57.6745 12.2506 57.7593C13.2756 57.8911 14.1283 57.9396 15.0568 57.4174C16.1315 56.8128 16.8394 55.4448 17.0282 54.2491C17.2129 53.0795 16.6124 50.9656 15.3284 50.5376" stroke="black" stroke-width="3" stroke-linecap="round"/>
<path d="M66.9268 51.3525C65.4746 51.3525 64.1395 52.0578 63.1248 53.0725C62.3912 53.8061 62.3999 56.1724 63.4466 56.6481C64.253 57.0147 65.502 57.0175 66.3384 56.7387C67.4 56.3848 68.1799 55.7325 68.8278 54.8326C69.4276 53.9995 69.7979 52.3407 69.2351 51.4028C68.9545 50.9352 68.6376 50.8999 68.1036 50.8999" stroke="black" stroke-width="3" stroke-linecap="round"/>
<path d="M66.0215 44.5632C65.2392 44.5632 64.4289 44.4017 63.8489 45.0158C63.497 45.3884 63.4868 46.3391 63.4868 46.8263C63.4868 47.4604 63.4792 47.931 63.8489 48.4758C64.307 49.1508 64.8382 49.5628 65.4985 49.9946C66.2032 50.4554 67.9218 50.4819 68.5561 49.9745C69.2613 49.4103 69.7569 48.1795 69.5318 47.2789C69.4078 46.7831 69.1894 46.0324 68.8277 45.6495C68.5178 45.3214 68.2421 44.4727 67.7414 44.4727" stroke="black" stroke-width="3" stroke-linecap="round"/>
<path d="M67.1078 37.955C66.3637 37.955 65.8185 37.9069 65.1616 38.2718C64.4785 38.6513 64.2095 39.176 63.8088 39.8057C63.5205 40.2587 63.64 41.1624 63.668 41.6665C63.6986 42.2173 64.567 43.0078 65.0459 43.1852C65.9128 43.5063 66.964 43.6138 67.8823 43.4669C69.3431 43.2331 69.552 41.5092 69.552 40.3589C69.552 39.6342 69.5179 39.1059 69.0994 38.478C68.7543 37.9604 68.0215 37.4119 67.3794 37.4119" stroke="black" stroke-width="3" stroke-linecap="round"/>
<path d="M66.2027 31.4372C65.5377 31.4372 65.0592 31.5346 64.5933 32.0005C64.2266 32.3672 63.936 33.2448 63.844 33.7506C63.7492 34.2719 63.5936 35.0806 63.8993 35.5611C64.3754 36.3092 65.1114 36.4654 65.9311 36.6172C66.5933 36.7398 67.5855 37.0453 68.1238 36.4864C68.7974 35.7868 69.1899 34.6068 69.1899 33.6551C69.1899 32.7466 69.0848 32.2794 68.511 31.578C68.1556 31.1437 67.3724 30.9846 66.8363 30.9846" stroke="black" stroke-width="3" stroke-linecap="round"/>
<path d="M66.474 24.4671C66.051 24.4671 65.1428 24.5881 64.9351 25.0555C64.8386 25.2727 64.5299 25.4128 64.392 25.6238C64.2509 25.8395 64.1156 26.0909 63.9394 26.2775C63.4615 26.7835 63.5773 27.84 63.5773 28.4954C63.5773 29.3796 64.0189 29.5761 64.7541 29.9437C65.4872 30.3103 66.5337 30.457 67.2887 30.0795C68.1178 29.665 68.6341 28.6759 68.8729 27.8164C69.2551 26.4406 68.8774 24.6044 67.3792 24.105" stroke="black" stroke-width="3" stroke-linecap="round"/>
<path d="M14.4233 23.4712C15.6756 23.4712 16.9278 23.4712 18.1801 23.4712C19.8379 23.4712 21.4548 23.2902 23.1136 23.2902C23.8847 23.2902 24.6558 23.2902 25.4269 23.2902C26.5347 23.2902 27.7253 23.1634 28.8115 23.3807C31.7024 23.9588 34.7419 23.8333 37.6878 23.8333C41.9659 23.8333 46.2572 23.8375 50.522 23.7428C52.5347 23.698 54.5537 23.7428 56.567 23.7428C57.9382 23.7428 59.3095 23.7428 60.6807 23.7428C61.3685 23.7428 62.6931 23.9703 63.3059 23.5617" stroke="black" stroke-width="3" stroke-linecap="round"/>
<path d="M16.0527 30.3511C17.6051 30.3511 19.0967 30.4043 20.6242 30.5371C22.1959 30.6738 23.793 30.6226 25.3766 30.6226C28.5418 30.6226 31.7107 30.5321 34.8866 30.5321C39.9542 30.5321 45.0219 30.5321 50.0895 30.5321C52.5961 30.5321 55.1103 30.8037 57.623 30.8037C58.416 30.8037 59.2089 30.8037 60.0018 30.8037C60.4689 30.8037 61.038 30.8881 61.4954 30.7836C62.0936 30.6469 62.8708 30.6226 63.4869 30.6226" stroke="black" stroke-width="3" stroke-linecap="round"/>
<path d="M15.1475 57.5984C16.4451 57.5984 17.6479 57.7795 18.9494 57.7795C21.3332 57.7795 23.717 57.7795 26.1008 57.7795C29.9631 57.7795 33.8254 57.7795 37.6878 57.7795C38.8947 57.7795 40.1017 57.7795 41.3087 57.7795C41.9876 57.7795 42.6665 57.7795 43.3455 57.7795C43.9498 57.7795 44.6968 57.8967 45.2817 57.7342C45.6906 57.6206 46.1574 57.703 46.5792 57.6889C47.2954 57.6651 48.0098 57.5079 48.7316 57.5079C49.9439 57.5079 51.2449 57.5278 52.4431 57.347C53.4003 57.2025 54.4655 57.3269 55.4354 57.3269C56.4159 57.3269 57.2703 57.3603 58.2365 57.5481C58.9634 57.6895 59.8485 57.6889 60.5902 57.6889C61.2842 57.6889 61.9782 57.6889 62.6722 57.6889C63.2655 57.6889 63.811 57.6532 64.3921 57.5079C64.9263 57.3744 66.5722 57.2363 66.0216 57.2363" stroke="black" stroke-width="3" stroke-linecap="round"/>
<path d="M31.2604 56.8744C31.2604 53.3679 30.8877 49.7523 31.3308 46.263C31.4477 45.3424 31.509 44.3358 31.5319 43.4065C31.5582 42.3431 31.8035 41.2879 31.8035 40.2231C31.8035 39.4245 31.894 38.6175 31.894 37.8444C31.894 37.5382 32.0588 37.2514 32.0751 36.9592C32.0884 36.7191 32.0942 36.3092 32.2109 36.0993C32.4544 35.6608 32.6547 35.2393 33.2519 35.2393C34.6399 35.2393 36.0279 35.2393 37.4159 35.2393C39.1661 35.2393 40.9162 35.2393 42.6663 35.2393C43.2863 35.2393 43.9267 35.2026 44.522 35.3349C45.4131 35.5329 45.7441 36.1225 45.7441 36.9592C45.7441 38.3037 45.7441 39.6481 45.7441 40.9926C45.7441 42.8708 46.0833 44.8813 46.4683 46.7156C46.8257 48.4188 47.0114 50.2006 47.0114 51.9409C47.0114 53.4636 47.1019 55.0041 47.1019 56.5123" stroke="black" stroke-width="3" stroke-linecap="round"/>
<path d="M35.1528 44.2915V48.0935" stroke="black" stroke-width="3" stroke-linecap="round"/>
<path d="M46.1064 37.3213C47.1626 37.3213 48.2187 37.3213 49.2748 37.3213C50.0693 37.3213 50.8223 37.1581 51.6083 37.1402C52.264 37.1253 52.9046 36.9592 53.5746 36.9592C54.3695 36.9592 55.1706 36.8687 55.9735 36.8687C57.5358 36.8687 59.0982 36.8687 60.6606 36.8687C61.3471 36.8687 62.0931 36.9914 62.7627 37.1402C63.0708 37.2087 63.925 37.1873 64.0301 37.5023" stroke="black" stroke-width="3" stroke-linecap="round"/>
<path d="M47.1924 44.1106C50.302 44.1106 53.3381 43.8349 56.4308 43.6529C59.0539 43.4986 61.6586 43.5631 64.2108 44.2011" stroke="black" stroke-width="3" stroke-linecap="round"/>
<path d="M47.645 50.3567C49.9138 50.3567 52.1895 50.6916 54.4343 51.0105C56.0141 51.2349 57.5513 51.2619 59.1415 51.2619C60.0165 51.2619 60.8916 51.2619 61.7667 51.2619C62.1981 51.2619 62.9544 51.0558 63.034 51.5335" stroke="black" stroke-width="3" stroke-linecap="round"/>
<path d="M31.1701 37.3214C27.2097 37.3214 23.2477 37.2309 19.2914 37.2309C18.0593 37.2309 16.815 37.0498 15.6001 37.0498" stroke="black" stroke-width="3" stroke-linecap="round"/>
<path d="M16.2334 44.2915H30.5361" stroke="black" stroke-width="3" stroke-linecap="round"/>
<path d="M30.0835 51.0809C26.3117 51.0809 22.5399 51.0809 18.7681 51.0809C18.1406 51.0809 17.2113 51.2501 16.686 50.8999" stroke="black" stroke-width="3" stroke-linecap="round"/>
<path d="M40.0412 12.7895C39.3551 12.7895 38.7689 12.7024 38.1855 13.1063C37.6577 13.4717 36.9081 13.7399 36.5812 14.3284C36.4262 14.6074 36.149 14.8251 36.0582 15.1431C35.935 15.5742 35.8594 16.0148 35.7916 16.4557C35.6853 17.147 35.928 17.7415 36.3297 18.2913C37.5097 19.906 40.1746 19.3146 41.3789 18.1103C42.1204 17.3688 42.3948 16.4457 42.3948 15.4147C42.3948 14.9014 42.4865 14.3708 42.1936 13.9261C42.0051 13.6398 41.4947 12.699 41.0369 12.699" stroke="black" stroke-width="3" stroke-linecap="round"/>
<path d="M2.29297 22.7469C2.29297 23.1585 2.70823 23.4481 2.93669 23.7528C3.13645 24.0191 3.27715 24.3547 3.51503 24.5926C3.78371 24.8613 4.01631 25.2119 4.32974 25.4626C4.67844 25.7416 4.98962 26.73 5.46128 26.73C5.95115 26.73 5.93409 27.4196 6.38663 27.1625C7.50538 26.5268 8.6587 25.8693 9.62536 25.01C10.4655 24.2632 11.4724 23.7124 12.3461 23.0135C13.1587 22.3634 14.0944 21.8692 14.9662 21.2986C16.0761 20.5721 17.327 20.199 18.4765 19.5786C18.9574 19.3191 19.5187 19.2173 20.0355 19.0355C20.5562 18.8523 21.0226 18.5814 21.5241 18.3566C22.6253 17.8629 23.6554 17.1964 24.6975 16.5914C27.2468 15.1111 29.6305 13.2072 31.8941 11.3209C32.8457 10.5279 33.8211 9.69849 34.8361 8.99242C35.3571 8.62996 35.9772 8.33123 36.4655 7.95141C36.7999 7.69132 37.3159 7.57369 37.6876 7.37809C38.1414 7.13925 38.6395 6.75789 39.1359 6.63379" stroke="black" stroke-width="3" stroke-linecap="round"/>
<path d="M39.2266 6.3623C39.8537 6.3623 40.6733 7.17979 41.1678 7.58437C41.635 7.96664 42.1899 8.28151 42.6866 8.62539C43.7544 9.36464 44.8352 9.952 46.0158 10.5264C46.6809 10.85 47.3532 11.2364 47.9621 11.6579C48.6722 12.1495 49.5316 12.481 50.1799 13.061C50.6136 13.4491 51.1304 13.7183 51.5578 14.1272C52.2431 14.7826 53.0491 15.3399 53.7505 15.993C54.2925 16.4976 54.9851 16.7994 55.5208 17.3156C56.1306 17.9033 56.8712 18.3316 57.5978 18.759C58.656 19.3815 59.8044 20.016 60.7711 20.7756C61.8232 21.6022 63.0584 22.1217 64.1758 22.8426C66.1635 24.125 68.2389 25.2702 70.271 26.4132C70.4936 26.5384 70.6675 26.6665 70.9047 26.7703C71.1562 26.8803 71.4691 26.8622 71.7043 27.0016C72.0672 27.2167 72.8597 27.6402 73.0873 27.2229C73.4309 26.5931 73.9643 25.9894 74.42 25.4426C74.6506 25.1659 74.7584 24.7824 75.0285 24.5122C75.183 24.3577 75.2949 24.1258 75.3454 23.9238" stroke="black" stroke-width="3" stroke-linecap="round"/>
<path d="M75.5262 23.7429C75.1845 23.7429 74.9447 23.6536 74.6562 23.4613C73.9067 22.9616 73.2192 22.3679 72.4887 21.8419C71.4358 21.0839 70.4113 20.2151 69.2801 19.5788C68.7058 19.2558 68.2522 18.7674 67.7211 18.3819C67.0691 17.9087 66.3777 17.4762 65.7497 16.9738C63.7101 15.342 61.4643 13.9754 59.3678 12.4225C58.2773 11.6147 57.3151 10.7039 56.1542 9.97833C52.205 7.51008 48.6877 4.98805 44.2052 3.46568C42.3608 2.83929 40.8059 2.12622 38.8179 2.12622C33.3986 2.12622 27.5351 8.58486 22.3179 10.6264C15.3179 14.8012 11.3179 19.5788 2.56445 22.6566" stroke="black" stroke-width="3" stroke-linecap="round"/>
</svg>
