<svg width="17" height="17" viewBox="0 0 17 17" fill="none" xmlns="http://www.w3.org/2000/svg">
<g clip-path="url(#clip0_667_3614)">
<path fill-rule="evenodd" clip-rule="evenodd" d="M15.2523 1.23408C15.5126 1.49443 15.5126 1.91654 15.2523 2.17689L7.91895 9.51022C7.65861 9.77057 7.2365 9.77057 6.97615 9.51022C6.7158 9.24987 6.7158 8.82776 6.97615 8.56741L14.3095 1.23408C14.5698 0.973731 14.9919 0.973731 15.2523 1.23408Z" fill="#1B1B1B"/>
<path fill-rule="evenodd" clip-rule="evenodd" d="M15.2523 1.2341C15.4334 1.41519 15.4947 1.68401 15.4101 1.92574L10.7435 15.2591C10.6532 15.5171 10.4145 15.6938 10.1414 15.7049C9.86828 15.7161 9.61603 15.5594 9.50501 15.3096L6.94248 9.54391L1.17679 6.98138C0.927008 6.87036 0.770299 6.61811 0.781441 6.34499C0.792584 6.07188 0.96932 5.83323 1.22732 5.74293L14.5607 1.07626C14.8024 0.991661 15.0712 1.05301 15.2523 1.2341ZM3.25494 6.44591L7.71831 8.42963C7.86913 8.49666 7.98973 8.61726 8.05676 8.76808L10.0405 13.2315L13.6942 2.79215L3.25494 6.44591Z" fill="#1B1B1B"/>
</g>
<defs>
<clipPath id="clip0_667_3614">
<rect width="16" height="16" fill="white" transform="translate(0.114258 0.372192)"/>
</clipPath>
</defs>
</svg>
