<svg width="24" height="24" viewBox="0 0 24 24" fill="none" xmlns="http://www.w3.org/2000/svg">
<g clip-path="url(#clip0_39_419)">
<path fill-rule="evenodd" clip-rule="evenodd" d="M7.45608 9.70417C8.78993 8.91807 10.6144 8.76805 12.0507 8.97212C12.5974 9.04979 13.3812 9.27562 13.9511 9.65006C14.2338 9.83583 14.5191 10.094 14.6562 10.4423C14.8074 10.8268 14.7454 11.2347 14.4875 11.6117L14.4635 11.6468L14.4337 11.6769C13.9917 12.1235 13.4462 12.156 13.0096 12.116C12.8306 12.0996 12.6475 12.0686 12.4871 12.0414C12.4551 12.036 12.4241 12.0307 12.3942 12.0258C12.2018 11.9938 12.0463 11.9725 11.9107 11.9725C11.8558 11.9725 11.8016 11.9724 11.7478 11.9723C10.9027 11.9713 10.1905 11.9703 9.48458 12.2452C9.10789 12.3918 8.7609 12.643 8.36921 12.9303L8.34603 12.9472C7.61698 13.4818 6.92369 14.1059 6.2772 14.7591C5.64277 15.4001 5.00037 16.1891 4.79069 16.9658C4.55095 17.8539 5.10277 18.9247 5.95454 19.279C6.36458 19.4496 6.81919 19.4117 7.3184 19.2362C7.82247 19.0591 8.31428 18.7628 8.77884 18.4812L8.79993 18.4684C9.27014 18.1834 9.65632 17.8057 10.088 17.3694C10.2791 17.1763 10.4827 16.9875 10.6776 16.8067C10.7671 16.7237 10.8547 16.6425 10.9385 16.5632C11.1044 16.4062 11.2922 16.3604 11.4356 16.3482C11.5028 16.3426 11.5654 16.3439 11.6102 16.3453C11.6281 16.3459 11.6428 16.3464 11.6554 16.3469C11.6807 16.3478 11.6986 16.3485 11.7196 16.3485C11.9481 16.3485 12.257 16.363 12.563 16.411C12.8551 16.4569 13.2047 16.5419 13.4707 16.7176C13.6386 16.8286 13.7791 16.998 13.8136 17.2293C13.8449 17.439 13.7754 17.6162 13.7174 17.7271C13.6575 17.8413 13.5798 17.9412 13.522 18.0119C13.49 18.0511 13.4663 18.0792 13.4467 18.1023C13.4217 18.132 13.4034 18.1535 13.3837 18.1799C13.3062 18.2824 13.2267 18.3901 13.1448 18.5011C12.5849 19.2597 11.9105 20.1731 11.0011 20.6982C9.10828 21.7909 7.78957 22.5 5.50817 22.5C4.15092 22.5 3.13629 21.717 2.48151 20.722C1.8311 19.7337 1.5 18.4913 1.5 17.427C1.5 16.406 1.7103 15.5297 2.27511 14.6478C3.60535 12.5708 5.37519 10.9306 7.45608 9.70417ZM11.9211 9.90335C10.6088 9.71685 9.01716 9.87282 7.92507 10.5165C5.96006 11.6745 4.30128 13.2152 3.05655 15.1587C2.60356 15.8661 2.43076 16.5586 2.43076 17.427C2.43076 18.3181 2.71407 19.377 3.25657 20.2013C3.79469 21.019 4.55146 21.5596 5.50817 21.5596C7.53139 21.5596 8.66929 20.9613 10.5394 19.8817C11.2668 19.4617 11.8134 18.7256 12.3879 17.952C12.4722 17.8385 12.5571 17.7242 12.6432 17.6099C12.6716 17.5724 12.7022 17.5354 12.7282 17.5044C12.7361 17.4948 12.7437 17.4859 12.751 17.4772C12.7656 17.4599 12.7791 17.4438 12.7927 17.4273C12.6952 17.394 12.5698 17.3637 12.4202 17.3403C12.1741 17.3016 11.915 17.2889 11.7196 17.2889C11.6913 17.2889 11.6646 17.2882 11.6419 17.2874L11.6092 17.2862C11.5989 17.2858 11.5897 17.2855 11.5808 17.2852C11.5624 17.2846 11.5485 17.2844 11.5378 17.2844C11.4525 17.3647 11.3695 17.4416 11.2882 17.5171C11.1015 17.6901 10.9234 17.8553 10.7462 18.0343C10.3194 18.4655 9.85978 18.9226 9.27884 19.2748L9.2413 19.2975C8.79362 19.5689 8.22683 19.9126 7.62421 20.1244C7.00931 20.3405 6.30084 20.44 5.60016 20.1485C4.34127 19.6248 3.52197 18.0919 3.89273 16.7184C4.17165 15.6851 4.97345 14.7464 5.61905 14.0941C6.28975 13.4165 7.02031 12.7575 7.79925 12.1862C7.79926 12.1862 7.79924 12.1863 7.79925 12.1862L7.82241 12.1692C7.82926 12.1642 7.83614 12.1592 7.84303 12.1541C8.21192 11.8835 8.64948 11.5625 9.14992 11.3677C10.025 11.027 10.9048 11.0294 11.7155 11.0318C11.781 11.0319 11.8461 11.0321 11.9107 11.0321C12.1299 11.0321 12.352 11.0658 12.5449 11.0978C12.5816 11.1039 12.6172 11.1099 12.652 11.1158C12.8117 11.1428 12.9531 11.1667 13.0936 11.1795C13.4068 11.2082 13.5991 11.1695 13.7456 11.0403C13.8264 10.9072 13.8096 10.8364 13.7912 10.7896C13.757 10.7027 13.656 10.5779 13.4437 10.4384C13.0236 10.1624 12.3827 9.96893 11.9211 9.90335Z" fill="black"/>
<path fill-rule="evenodd" clip-rule="evenodd" d="M16.274 1.65734C17.9631 1.19712 20.2288 1.72733 21.1788 3.50156C21.4015 3.91742 21.5911 4.3375 21.7709 4.74718C21.8071 4.82959 21.8427 4.91134 21.8782 4.99257C22.0208 5.31965 22.1597 5.63809 22.3121 5.95548C22.5201 6.3887 22.5251 6.87327 22.4707 7.29082C22.4154 7.71393 22.2911 8.12477 22.1865 8.44148C21.4706 10.6117 19.768 12.7032 18.1472 14.197C17.7173 14.5933 17.2569 14.9885 16.7571 15.3323C15.9177 15.9097 14.9743 16.2317 13.9417 16.2317C13.8903 16.2317 13.825 16.233 13.753 16.2343C13.6223 16.2368 13.4698 16.2397 13.3397 16.2363C13.12 16.2306 12.8643 16.2079 12.62 16.1231C12.2595 15.9978 11.8921 15.8361 11.5552 15.6546C11.4117 15.5773 11.282 15.4875 11.1724 15.4102C11.1578 15.4 11.1436 15.39 11.1298 15.3802C11.0332 15.3119 10.9529 15.2552 10.8692 15.2048C10.6867 15.0948 10.4133 14.9275 10.2588 14.584C10.1629 14.3709 10.0716 14.0656 10.1299 13.742C10.1682 13.529 10.2936 13.3781 10.3525 13.3085C10.3679 13.2903 10.3836 13.2724 10.3961 13.2581L10.3996 13.2542C10.4138 13.2379 10.4243 13.2258 10.4337 13.2146C10.449 13.1963 10.4541 13.1885 10.4545 13.188C10.5389 13.0368 10.6316 12.9112 10.7514 12.7992C10.8669 12.6913 10.9928 12.6103 11.1198 12.5354C11.4524 12.3394 11.821 12.3986 12.0573 12.462C12.2467 12.5128 12.4463 12.5958 12.5817 12.652C12.6189 12.6674 12.6513 12.6809 12.6773 12.6911C12.9406 12.7945 13.2314 12.8891 13.5091 12.9285C13.7907 12.9685 14.0128 12.9451 14.1732 12.864C14.5171 12.6903 14.8495 12.448 15.2023 12.1723C15.2792 12.112 15.358 12.0497 15.4379 11.9862C15.7122 11.7687 16.0023 11.5386 16.296 11.3408C16.4069 11.266 16.5132 11.1783 16.6351 11.0746C16.6492 11.0626 16.6636 11.0504 16.6782 11.0379C16.7846 10.9471 16.9054 10.844 17.0336 10.7494C17.5466 10.3706 17.9518 9.93005 18.3968 9.44629C18.5716 9.2563 18.7525 9.05965 18.9484 8.85748C19.2441 8.55241 19.416 8.0772 19.416 7.6212C19.416 7.10077 19.3838 6.72896 19.2772 6.40239C19.1739 6.08618 18.9898 5.78042 18.6338 5.42078C18.4765 5.26186 18.2939 5.1239 18.0947 5.01047C17.4981 4.67075 16.7101 4.6339 16.0364 4.87897C15.5921 5.04054 15.1174 5.51253 14.7689 5.9732C14.5698 6.23632 14.3622 6.4922 14.1604 6.74076C14.1326 6.77505 14.1048 6.8092 14.0773 6.84321C13.8475 7.12661 13.6265 7.40261 13.4204 7.6874C13.1985 7.99416 12.8791 8.27656 12.585 8.47125C12.4904 8.53384 12.3959 8.55429 12.3399 8.56253C12.28 8.57131 12.2256 8.57138 12.1883 8.5703C12.1528 8.56928 12.1184 8.56661 12.0972 8.56497L12.0929 8.56464C12.0707 8.56293 12.0643 8.56264 12.0643 8.56259C12.0643 8.56257 12.0648 8.56258 12.0655 8.56258C11.8735 8.56258 11.3602 8.55875 10.8712 8.52748C10.6282 8.51195 10.3786 8.4889 10.1733 8.45345C10.0719 8.43593 9.96664 8.41297 9.87311 8.38094C9.80688 8.35827 9.64049 8.29862 9.52823 8.14894C9.27774 7.81504 9.40872 7.44053 9.50776 7.24603C9.61877 7.02798 9.79517 6.81567 9.96325 6.63736C10.2488 6.33456 10.5943 6.04487 10.7777 5.89103C10.8127 5.86168 10.8419 5.83728 10.8635 5.81868C11.4289 5.33317 11.8806 4.78533 12.3786 4.18143C12.4193 4.13211 12.4602 4.0824 12.5017 4.03233C13.4434 2.89269 14.9017 2.0312 16.274 1.65734ZM20.3601 3.949C19.6774 2.67389 17.9294 2.18029 16.5163 2.56527C15.3032 2.89577 14.0194 3.66298 13.2161 4.63503C13.1728 4.68746 13.1294 4.74007 13.0859 4.79281C12.5971 5.38611 12.0956 5.9947 11.4663 6.53519C11.4362 6.56109 11.3996 6.59172 11.3585 6.62637C11.1694 6.7853 10.8799 7.02859 10.6372 7.28596C10.5482 7.38036 10.4758 7.46623 10.4213 7.54071C10.5648 7.56093 10.7406 7.57688 10.9299 7.58899C11.3899 7.6184 11.8802 7.62221 12.0655 7.62221C12.0873 7.62221 12.1073 7.62317 12.1222 7.62407C12.1352 7.62484 12.1481 7.6258 12.1586 7.6266C12.3533 7.48552 12.5446 7.30446 12.6689 7.13256C12.8915 6.82486 13.1271 6.53124 13.3572 6.24738C13.3853 6.21273 13.4133 6.17826 13.4412 6.14392C13.6439 5.89411 13.8408 5.65153 14.0294 5.40217C14.4001 4.91218 15.0118 4.25217 15.7211 3.99419C16.6156 3.66886 17.6896 3.70037 18.5517 4.19127C18.8194 4.3437 19.0708 4.53241 19.2919 4.75584C19.7281 5.19642 20.0031 5.62409 20.1611 6.10775C20.3157 6.58106 20.3467 7.07558 20.3467 7.6212C20.3467 8.28553 20.1039 9.00939 19.6135 9.51538C19.4552 9.67869 19.2962 9.85154 19.1336 10.0284C18.6682 10.5344 18.1733 11.0726 17.5828 11.5086C17.4829 11.5824 17.3885 11.6628 17.2796 11.7557C17.2649 11.7682 17.2498 11.781 17.2346 11.794C17.1116 11.8986 16.9705 12.0166 16.8123 12.1232C16.5516 12.2988 16.3006 12.4978 16.0322 12.7105C15.9474 12.7777 15.8609 12.8463 15.7718 12.916C15.4123 13.1971 15.0196 13.4878 14.5895 13.7051C14.1932 13.9053 13.7565 13.9133 13.3796 13.8598C12.9989 13.8058 12.6316 13.6821 12.34 13.5675C12.2847 13.5458 12.2327 13.5243 12.1825 13.5034C12.0573 13.4516 11.9431 13.4043 11.8184 13.3708C11.6509 13.3259 11.5941 13.3459 11.589 13.3476C11.589 13.3477 11.5887 13.3477 11.589 13.3476C11.4794 13.4122 11.4233 13.4523 11.3834 13.4895C11.3482 13.5225 11.312 13.5659 11.2649 13.6504C11.225 13.7222 11.1786 13.7809 11.145 13.8211C11.1276 13.8419 11.1103 13.8616 11.0965 13.8774L11.0942 13.8801C11.0804 13.8958 11.0699 13.9078 11.0598 13.9196C11.0525 13.9284 11.0468 13.9353 11.0426 13.9408C11.0406 13.9996 11.0575 14.0868 11.1061 14.1948C11.1302 14.2485 11.1673 14.2894 11.3462 14.3973C11.461 14.4665 11.5712 14.5444 11.6651 14.6109C11.6787 14.6205 11.6919 14.6298 11.7047 14.6389C11.8133 14.7153 11.9032 14.7764 11.9932 14.8249C12.2868 14.983 12.609 15.1249 12.9226 15.2338C13.0343 15.2726 13.1796 15.2914 13.364 15.2963C13.4821 15.2994 13.5831 15.2972 13.6911 15.2948C13.7681 15.293 13.8486 15.2913 13.9417 15.2913C14.7719 15.2913 15.5349 15.0354 16.2333 14.555C16.681 14.2471 17.1045 13.8851 17.5199 13.5023C19.0868 12.0581 20.6594 10.0966 21.3036 8.14411C21.4041 7.83937 21.5048 7.49838 21.5479 7.16792C21.5918 6.83189 21.5684 6.56114 21.4746 6.36589C21.3141 6.0315 21.1667 5.69333 21.0234 5.36481C20.9887 5.28534 20.9543 5.20644 20.92 5.1283C20.742 4.72252 20.5644 4.33063 20.3601 3.949ZM10.1537 7.48296C10.154 7.48283 10.1582 7.48437 10.1652 7.48797C10.1568 7.48489 10.1534 7.48309 10.1537 7.48296ZM10.3142 7.72408C10.3132 7.72954 10.3122 7.73257 10.3119 7.73273C10.3116 7.73288 10.3121 7.73015 10.3142 7.72408Z" fill="black"/>
</g>
<defs>
<clipPath id="clip0_39_419">
<rect width="21" height="21" fill="white" transform="translate(1.5 1.5)"/>
</clipPath>
</defs>
</svg>
