<svg width="20" height="20" viewBox="0 0 20 20" fill="none" xmlns="http://www.w3.org/2000/svg">
<path fill-rule="evenodd" clip-rule="evenodd" d="M13.9713 0.152315C15.6002 -0.291483 17.8086 0.212442 18.7426 1.95537C18.9543 2.35077 19.1346 2.75011 19.3035 3.13496L19.4045 3.36588L19.6037 3.81905C19.6705 3.96841 19.7388 4.11704 19.8096 4.26452C20.0223 4.70789 20.0239 5.19577 19.9712 5.59998C19.9175 6.0113 19.7976 6.40834 19.6989 6.70741C19.0159 8.77766 17.3971 10.7609 15.8677 12.1705C15.4622 12.5441 15.0245 12.9201 14.5476 13.2481C13.7377 13.8052 12.8232 14.1178 11.8219 14.1178C11.7755 14.1179 11.7156 14.1194 11.6477 14.1207C11.526 14.1231 11.3791 14.1259 11.2532 14.1227C11.1901 14.121 11.123 14.117 11.0531 14.1111C11.1958 14.1588 11.3368 14.2208 11.462 14.3035C11.645 14.4245 11.8087 14.6164 11.8488 14.8847C11.8848 15.1258 11.804 15.3261 11.743 15.4427C11.6797 15.5635 11.5984 15.6662 11.5428 15.7342C11.512 15.772 11.4892 15.7999 11.4707 15.8218C11.447 15.8499 11.4323 15.8666 11.4168 15.8872C11.3448 15.9827 11.2705 16.0842 11.1936 16.1884C10.6719 16.8951 10.0218 17.779 9.13749 18.2897C7.35783 19.3171 6.09121 20.0004 3.90919 20.0004C2.57131 20.0004 1.57829 19.2267 0.945788 18.2656C0.318598 17.3126 2.09205e-05 16.118 0 15.0925C3.03777e-06 14.1108 0.203949 13.2601 0.751435 12.4052C2.01304 10.4354 3.69123 8.88025 5.66222 7.71862C6.95233 6.95842 8.70131 6.81813 10.0688 7.01241C10.5954 7.08722 11.3537 7.30454 11.9123 7.67147C12.1888 7.85319 12.4853 8.11681 12.6301 8.48449C12.7924 8.89722 12.7222 9.33105 12.4569 9.71892L12.4338 9.75163L12.4271 9.76318L12.3895 9.8007C11.9284 10.2665 11.3605 10.2947 10.9348 10.2558C10.7603 10.2398 10.5822 10.21 10.4325 10.1846L10.3459 10.1702C10.1656 10.1402 10.0306 10.1221 9.91682 10.1221C9.86528 10.1221 9.81425 10.1221 9.76384 10.1221C8.9658 10.1211 8.32631 10.1223 7.69427 10.3684C7.36217 10.4977 7.05172 10.72 6.68113 10.9918L6.659 11.0082C5.98295 11.504 5.33839 12.084 4.73568 12.6929C4.14224 13.2925 3.56504 14.0094 3.37905 14.698C3.27778 15.0732 3.3422 15.4954 3.53011 15.8661C3.71798 16.2365 4.02255 16.5428 4.38449 16.6935C4.72273 16.8342 5.10863 16.8083 5.55831 16.6502C6.01428 16.49 6.46319 16.2212 6.90146 15.9555L6.92167 15.943C7.34499 15.6863 7.69554 15.3447 8.10126 14.9347C8.28317 14.7509 8.47676 14.571 8.6593 14.4017C8.74323 14.3238 8.82488 14.2483 8.90272 14.1746C9.09067 13.9968 9.30382 13.9462 9.45884 13.9331C9.53062 13.9271 9.59634 13.9279 9.63973 13.9293C9.6565 13.9298 9.67068 13.9307 9.68302 13.9312C9.70679 13.9321 9.7213 13.9321 9.73786 13.9321C9.93445 13.9322 10.1936 13.9445 10.4585 13.9803C10.1374 13.8642 9.81205 13.7201 9.51272 13.5588C9.36981 13.4817 9.24137 13.3927 9.13845 13.3202C9.1251 13.3108 9.11092 13.3014 9.09804 13.2923C9.00674 13.2278 8.93527 13.1776 8.86231 13.1336C8.71125 13.0425 8.46751 12.8953 8.2985 12.614L8.23115 12.4851C8.13537 12.272 8.03741 11.9532 8.09933 11.6086C8.14267 11.3679 8.28362 11.1999 8.34083 11.1323C8.35608 11.1143 8.37196 11.0961 8.38317 11.0832L8.38798 11.0784C8.40041 11.0642 8.40922 11.0538 8.41684 11.0448L8.42742 11.0322L8.42935 11.0284C8.5123 10.8824 8.60595 10.7554 8.72761 10.6416C8.84777 10.5294 8.97723 10.4469 9.099 10.3751C9.46433 10.1598 9.86121 10.2286 10.0919 10.2904C10.2803 10.341 10.4772 10.423 10.6028 10.4752C10.6382 10.4898 10.6669 10.5019 10.6894 10.5108L10.8742 10.5791C11.0611 10.6445 11.2541 10.6983 11.437 10.7244C11.6851 10.7596 11.8591 10.7359 11.972 10.6791L11.9729 10.6782C12.2816 10.5222 12.5842 10.3028 12.9139 10.0451C12.9856 9.98898 13.0594 9.93033 13.1342 9.87094C13.3905 9.66772 13.6672 9.44825 13.9482 9.25901C14.0446 9.19408 14.1392 9.11641 14.2532 9.01944C14.2667 9.00798 14.2802 8.99631 14.2936 8.9848L14.4553 8.84914C14.5124 8.80214 14.5728 8.75376 14.6352 8.7077C15.1032 8.36217 15.4748 7.95941 15.8937 7.50406C16.0574 7.32606 16.2279 7.13916 16.4132 6.94794C16.6599 6.69337 16.8105 6.28686 16.8106 5.89151C16.8106 5.40729 16.7799 5.07713 16.6874 4.7937C16.599 4.52333 16.4407 4.25501 16.1198 3.93066C15.9823 3.7919 15.8212 3.66995 15.6454 3.56985C15.1281 3.27556 14.4341 3.24032 13.8376 3.45728C13.6543 3.5241 13.4544 3.65925 13.2574 3.83637C13.0617 4.0124 12.8746 4.22381 12.7157 4.43386C12.5272 4.68296 12.3313 4.92553 12.1423 5.15835C12.1162 5.19038 12.0901 5.2228 12.0643 5.25457C11.8489 5.52027 11.6431 5.77617 11.4524 6.03968C11.2317 6.34478 10.9181 6.62205 10.6307 6.81228C10.5168 6.88757 10.4037 6.91166 10.3402 6.921C10.2725 6.93087 10.2118 6.93078 10.1728 6.92966C10.1389 6.92867 10.1057 6.92551 10.0852 6.92389C10.0627 6.93438 10.0448 6.921 10.0448 6.921C9.85157 6.92078 9.3811 6.91799 8.93159 6.88925C8.70207 6.87457 8.46116 6.85261 8.26097 6.81805C8.16244 6.80102 8.05411 6.77758 7.95597 6.74397C7.89013 6.72141 7.6961 6.65276 7.56246 6.47457C7.27381 6.08898 7.43191 5.66421 7.52974 5.47201C7.64347 5.24871 7.82046 5.03717 7.98099 4.86682C8.25557 4.57563 8.58693 4.29865 8.7584 4.15484C8.79153 4.12704 8.81786 4.10419 8.8373 4.08749C9.35647 3.64163 9.77265 3.13731 10.2411 2.56922C10.279 2.52327 10.3177 2.47658 10.3565 2.42971C11.2619 1.3341 12.6583 0.510146 13.9713 0.152315ZM9.90528 8.17949C8.69401 8.00741 7.23808 8.15445 6.25202 8.73561C4.4267 9.81136 2.88734 11.2415 1.73282 13.0441C1.3255 13.6803 1.16901 14.3015 1.16901 15.0925C1.16903 15.9016 1.42749 16.8666 1.91948 17.6143C2.40606 18.3536 3.0756 18.8227 3.90919 18.8227C5.76615 18.8227 6.80516 18.2789 8.55635 17.2679C9.20724 16.8921 9.7021 16.2289 10.2459 15.4966L10.4835 15.1781L10.3719 15.157C10.1508 15.1222 9.91586 15.1108 9.73786 15.1108C9.70894 15.1108 9.68173 15.1095 9.65993 15.1089L9.62818 15.1079L9.62337 15.1069C9.55832 15.1679 9.495 15.2272 9.43286 15.2849C9.2574 15.4476 9.09239 15.6007 8.9287 15.766C8.52907 16.1698 8.08648 16.6113 7.52397 16.9523L7.48837 16.9735C7.07035 17.2269 6.52615 17.5578 5.94413 17.7624C5.34882 17.9717 4.64296 18.0754 3.93902 17.7827C2.69288 17.2642 1.88239 15.7531 2.25046 14.3892C2.52296 13.3797 3.30055 12.4756 3.90823 11.8616C4.54131 11.222 5.23237 10.5975 5.97107 10.0557C5.96167 10.0626 5.95485 10.0697 5.95086 10.074C5.9335 10.0925 5.9257 10.1113 5.92392 10.1153C5.92072 10.1226 5.91833 10.1288 5.91719 10.1326C5.91476 10.1408 5.91435 10.1503 5.91334 10.1605L5.95086 10.074L6.05862 10.0278C6.04457 10.0278 6.03011 10.0294 6.01629 10.0335C5.99948 10.0386 5.98553 10.0455 5.97492 10.0528L5.9932 10.0393C5.99981 10.0345 6.00634 10.0303 6.01244 10.0258L6.28569 9.82764C6.57344 9.62418 6.90504 9.41182 7.27285 9.26864C8.12366 8.93751 8.97652 8.94124 9.73402 8.94343L9.91682 8.94439C10.1358 8.9444 10.3552 8.97778 10.5364 9.00789C10.5706 9.01354 10.6032 9.01878 10.6355 9.02425C10.7866 9.04976 10.9154 9.0715 11.0406 9.08294C11.3034 9.10696 11.4317 9.07179 11.5226 9.0002C11.5413 8.96526 11.5469 8.94653 11.5477 8.93862L11.5438 8.91841C11.5277 8.8776 11.4617 8.78172 11.2744 8.65864C10.9041 8.41534 10.3247 8.23908 9.90528 8.17949ZM17.714 2.51534C17.115 1.39736 15.5567 0.940732 14.2763 1.28957C13.1639 1.59278 11.987 2.29773 11.2552 3.18307C11.2147 3.23214 11.1737 3.28185 11.133 3.33124C10.7326 3.81721 10.3166 4.32307 9.8158 4.78793L9.59547 4.98421L9.49348 5.0708C9.31524 5.22061 9.04952 5.4437 8.82864 5.67791C8.82224 5.68469 8.81558 5.69146 8.8094 5.69812C8.87167 5.70347 8.93803 5.70918 9.00567 5.71351C9.43179 5.74074 9.88778 5.74429 10.0611 5.7443C10.0755 5.7443 10.0898 5.74477 10.1016 5.74526C10.2601 5.62492 10.4105 5.48012 10.5076 5.34597C10.719 5.05374 10.9431 4.77524 11.159 4.50891C11.1852 4.47661 11.212 4.44358 11.2378 4.41173C11.4282 4.17717 11.6112 3.95137 11.7863 3.71995C12.1374 3.25572 12.7336 2.6064 13.4412 2.34889C14.3155 2.03091 15.3696 2.05976 16.2208 2.54421C16.4826 2.69333 16.7298 2.87879 16.9472 3.0984C17.369 3.52446 17.6409 3.94546 17.7977 4.4252C17.9502 4.89208 17.9796 5.37572 17.9796 5.89151C17.9795 6.54694 17.741 7.26515 17.2503 7.77154C17.1035 7.92308 16.9546 8.0836 16.8019 8.24972C16.3668 8.72285 15.8932 9.23855 15.326 9.65734C15.2372 9.72297 15.1528 9.79573 15.0499 9.88345L15.0075 9.91904C14.892 10.0173 14.7535 10.1335 14.5977 10.2385C14.3589 10.3994 14.1276 10.582 13.8751 10.7821C13.7957 10.845 13.7137 10.9098 13.6297 10.9755C13.3761 11.1738 13.1003 11.3813 12.8023 11.5614L12.4963 11.7317C12.0869 11.9384 11.6423 11.9438 11.2734 11.8914C10.9001 11.8384 10.5431 11.7178 10.2651 11.6086C10.212 11.5877 10.1609 11.5664 10.1141 11.547C9.99585 11.498 9.89662 11.4571 9.79078 11.4286C9.72495 11.4111 9.68508 11.407 9.6657 11.4065C9.62814 11.4291 9.59978 11.4473 9.57815 11.4623L9.52234 11.5056C9.50269 11.5241 9.47755 11.552 9.4396 11.6201C9.39554 11.6994 9.34437 11.7626 9.31067 11.8029C9.29347 11.8235 9.27642 11.844 9.26353 11.8587L9.26064 11.8616C9.25867 11.8639 9.25666 11.8663 9.25487 11.8683C9.25595 11.8744 9.25617 11.8816 9.25775 11.8886L9.29624 11.9982C9.2987 12.0038 9.30078 12.0103 9.31645 12.0242C9.33841 12.0435 9.38048 12.0727 9.46269 12.1224C9.57558 12.1904 9.68401 12.2673 9.77154 12.3292C9.78432 12.3383 9.79652 12.347 9.8081 12.3552C9.90958 12.4266 9.98832 12.4798 10.064 12.5207C10.3323 12.6652 10.6281 12.7955 10.9146 12.895C10.9979 12.9239 11.1171 12.9406 11.284 12.945C11.3904 12.9478 11.482 12.9462 11.5833 12.944C11.6554 12.9424 11.733 12.9402 11.8219 12.9402C12.5683 12.9402 13.2558 12.7106 13.8886 12.2753C14.3002 11.9922 14.6923 11.6576 15.0797 11.3007C16.5412 9.95349 17.9964 8.13292 18.5896 6.33506C18.6832 6.05121 18.7742 5.74233 18.8128 5.447C18.8523 5.14456 18.8271 4.92336 18.757 4.77734C18.6053 4.46112 18.4659 4.14102 18.3317 3.83348C18.2993 3.75913 18.2666 3.6841 18.2346 3.61122C18.0679 3.23133 17.9028 2.86787 17.714 2.51534ZM9.64935 11.4056L9.65031 11.4075L9.65608 11.4056L9.65897 11.4036C9.65635 11.4044 9.65279 11.4047 9.64935 11.4056ZM9.68687 11.3882L9.6888 11.3902C9.69248 11.388 9.69783 11.3866 9.70227 11.3834C9.70507 11.3813 9.7082 11.3762 9.71285 11.3719C9.70425 11.3797 9.69464 11.3837 9.68687 11.3882ZM6.14714 10.0566L6.14329 10.0537C6.14024 10.0516 6.13588 10.0508 6.13271 10.0489C6.1374 10.0517 6.14274 10.0534 6.14714 10.0566Z" fill="black"/>
</svg>
