<svg width="18" height="18" viewBox="0 0 18 18" fill="none" xmlns="http://www.w3.org/2000/svg">
<path d="M3.97918 14.7071C3.58866 15.0976 2.95549 15.0976 2.56497 14.7071C2.17445 14.3166 2.17445 13.6834 2.56497 13.2929L13.8787 1.97917C14.2692 1.58865 14.9024 1.58865 15.2929 1.97917C15.6834 2.3697 15.6834 3.00286 15.2929 3.39339L3.97918 14.7071Z" fill="black"/>
<path d="M14.0208 14.7071C14.4113 15.0976 15.0445 15.0976 15.435 14.7071C15.8256 14.3166 15.8256 13.6834 15.435 13.2929L4.12132 1.97917C3.7308 1.58865 3.09763 1.58865 2.70711 1.97917C2.31658 2.3697 2.31658 3.00286 2.70711 3.39339L14.0208 14.7071Z" fill="black"/>
</svg>
