<svg width="24" height="24" viewBox="0 0 24 24" fill="none" xmlns="http://www.w3.org/2000/svg">
<g clip-path="url(#clip0_169_56747)">
<path d="M8.78696 0.668373C12.4809 -0.238349 16.3903 -0.361946 18.3375 1.17881C20.2847 2.71956 24.2148 8.76227 23.9908 11.9811C23.6242 14.113 23.0096 16.4411 21.4169 18.4499C19.2131 21.2291 16.5105 24.0721 12.9813 23.9986C9.14296 23.9187 7.0638 23.7284 5.56604 22.3774C3.82433 20.8064 0.156274 17.4492 0.0442436 14.6241C-0.0217372 12.9603 -0.138333 11.2049 0.761313 9.09801C2.38968 5.28444 5.06745 1.58138 8.78696 0.668373Z" fill="#E9475A"/>
<path d="M23.9912 11.9814C23.6245 14.1133 23.0097 16.4415 21.417 18.4502C19.2133 21.2293 16.5105 24.0724 12.9814 23.999L11.622 23.9609C8.63258 23.8525 6.87687 23.5597 5.56638 22.3779L4.83298 21.709C2.96255 19.9753 0.14194 17.0958 0.043918 14.624L0.0195039 13.9951C-0.0347047 12.5158 -0.0254524 10.9411 0.761692 9.09765C2.39008 5.28424 5.06772 1.58093 8.78708 0.667961C12.4809 -0.238708 16.3907 -0.362017 18.3379 1.1787C20.2851 2.71968 24.2152 8.76273 23.9912 11.9814ZM22.8955 11.8564C22.9252 11.2732 22.7755 10.4748 22.4385 9.51757C22.0985 8.55208 21.5985 7.50678 21.0224 6.49413C19.8477 4.42927 18.4624 2.67966 17.6552 2.04101C16.9545 1.48656 15.7735 1.1511 14.1855 1.10546C12.6279 1.06071 10.8286 1.29943 9.0488 1.73632C5.8608 2.51901 3.37059 5.78747 1.77243 9.53027C0.982878 11.3796 1.07678 12.897 1.14353 14.5801C1.18402 15.6013 1.91005 16.901 3.04196 18.2695C4.13389 19.5897 5.43114 20.7744 6.30271 21.5605C6.86104 22.0642 7.5508 22.3833 8.60251 22.584C9.68581 22.7906 11.0769 22.8583 13.0039 22.8984C14.4466 22.9285 15.7688 22.3684 17.0342 21.415C18.3101 20.4536 19.4661 19.1394 20.5547 17.7666C21.9603 15.9939 22.538 13.9104 22.8955 11.8564Z" fill="black"/>
<path d="M16.3271 7.39621C16.8238 7.15512 17.4217 7.36241 17.663 7.8591C17.9041 8.35583 17.6968 8.95379 17.2001 9.19504C17.1203 9.23381 17.0649 9.25984 16.9286 9.35617C16.7707 9.46778 16.5131 9.66915 16.0575 10.0613C15.6021 10.4532 14.9692 11.0184 14.2987 11.6169C13.633 12.2111 12.9323 12.8363 12.3534 13.3366C11.1438 14.382 10.6348 14.7428 10.0165 15.3259C9.38598 15.9876 8.88606 16.5226 8.51358 16.9177C8.19585 17.2547 7.91341 17.5504 7.74796 17.695L7.74893 17.696C7.69359 17.7458 7.62588 17.8157 7.55069 17.9118C7.21033 18.3466 6.58226 18.423 6.14737 18.0827C5.7126 17.7424 5.63621 17.1143 5.97647 16.6794C6.12186 16.4936 6.26797 16.3385 6.41104 16.2097L6.42862 16.1941L6.44717 16.1794C6.44214 16.1835 6.48479 16.1454 6.61124 16.0154C6.72296 15.9004 6.8704 15.7441 7.05753 15.5456C7.42939 15.1512 7.9452 14.5998 8.59171 13.9216L8.61026 13.903L8.62882 13.8855C9.27764 13.2718 9.9772 12.7464 11.0458 11.823C11.6103 11.3352 12.2987 10.7219 12.9677 10.1247C13.632 9.53176 14.2804 8.95226 14.7528 8.54563C15.7071 7.72426 15.9985 7.55578 16.3271 7.39621Z" fill="white"/>
<path d="M7.12992 6.50884C7.31202 6.53271 7.47378 6.60765 7.50004 6.61919C7.57195 6.65079 7.65059 6.68891 7.72758 6.72856C7.88381 6.80904 8.07385 6.91502 8.27348 7.03227C8.66777 7.26388 9.14665 7.56823 9.51078 7.8477C9.82575 8.08948 10.2411 8.35432 11.169 9.14458C12.0877 9.92705 13.5631 11.2587 14.5723 12.2696C15.6682 13.3673 16.2651 14.0509 16.6299 14.5088C16.8131 14.7388 16.9337 14.9071 17.0186 15.0245C17.062 15.0845 17.0876 15.1189 17.1084 15.1456L17.1319 15.1749L17.1455 15.1885L17.1592 15.2032C17.2472 15.2993 17.3204 15.3908 17.3741 15.4581L17.5381 15.6631L17.5987 15.7452C17.8781 16.1681 17.7975 16.7427 17.3965 17.0704C16.9955 17.398 16.4163 17.3622 16.0577 17.004L15.9893 16.9288L15.8106 16.7051C15.7558 16.6364 15.7204 16.594 15.6836 16.5538V16.5528C15.5633 16.4261 15.4673 16.2928 15.3975 16.1963C15.3139 16.0808 15.2172 15.9453 15.0655 15.7549C14.7604 15.372 14.217 14.7451 13.1563 13.6827C12.1948 12.7196 10.7618 11.4248 9.87211 10.667C8.99159 9.9171 8.70971 9.75448 8.29301 9.43462C8.02174 9.2264 7.62212 8.96913 7.26078 8.75688C7.08294 8.65242 6.9261 8.56588 6.81156 8.50688C6.76007 8.48036 6.72433 8.46276 6.70316 8.45317C6.24678 8.31162 5.94464 7.86001 6.00883 7.37016C6.08062 6.82259 6.58235 6.43709 7.12992 6.50884Z" fill="white"/>
</g>
<defs>
<clipPath id="clip0_169_56747">
<rect width="24" height="24" fill="white"/>
</clipPath>
</defs>
</svg>
