<svg width="22" height="27" viewBox="0 0 27 27" fill="none" xmlns="http://www.w3.org/2000/svg">
<path d="M2.37537 3.32495H14.0127H17.8127L18.2876 5.93741L17.3377 6.6499L15.9127 22.7997L15.2002 25.8871H4.51284L3.08786 23.0372L1.90037 6.6499L0.950387 5.93741L0.712891 4.51243L2.37537 3.32495Z" fill="white"/>
<path fill-rule="evenodd" clip-rule="evenodd" d="M10.6144 1.57827C9.47706 1.41579 8.26754 1.31734 7.33245 1.62537C7.26135 1.64879 7.19777 1.67248 7.14618 1.6971C7.12347 1.70793 7.10785 1.71672 7.09818 1.72277C7.09064 1.73369 7.07425 1.76113 7.05313 1.81836C7.02569 1.89273 7.00631 1.96872 6.9781 2.07934C6.9721 2.10286 6.9657 2.12796 6.95873 2.15494C6.91617 2.31987 6.90291 2.3929 6.8964 2.45472C6.88905 2.52442 6.88775 2.60056 6.88775 2.78977C6.88775 3.18327 6.56876 3.50226 6.17526 3.50226C5.78176 3.50226 5.46277 3.18327 5.46277 2.78977V2.78582C5.46277 2.61417 5.46277 2.46181 5.47927 2.30529C5.49673 2.1397 5.53027 1.98754 5.57896 1.79887C5.58297 1.78331 5.58735 1.76597 5.5921 1.74714C5.61987 1.63713 5.66046 1.47629 5.71627 1.32504C5.78422 1.14091 5.89491 0.909329 6.09498 0.70925C6.35674 0.447499 6.73609 0.321512 6.88661 0.27193C8.1745 -0.152318 9.69223 0.00708133 10.816 0.167613C10.9424 0.185684 11.0576 0.195338 11.1885 0.206314C11.2329 0.210032 11.279 0.213901 11.3281 0.2183C11.5042 0.234108 11.7219 0.257298 11.9384 0.318907C12.1661 0.383712 12.4026 0.493207 12.619 0.686259C12.833 0.877155 12.9938 1.11988 13.1158 1.40471C13.2282 1.66693 13.2672 1.95337 13.2843 2.17551C13.3005 2.38576 13.3003 2.59584 13.3002 2.74898C13.3002 2.76307 13.3002 2.77669 13.3002 2.78977C13.3002 3.18327 12.9812 3.50226 12.5877 3.50226C12.1942 3.50226 11.8752 3.18327 11.8752 2.78977C11.8752 2.77819 11.8752 2.76662 11.8752 2.75508C11.8752 2.59403 11.8753 2.43726 11.8636 2.28494C11.8504 2.11424 11.8261 2.01274 11.8061 1.96604C11.7473 1.82882 11.6964 1.77283 11.6703 1.74958C11.6467 1.72848 11.6148 1.7084 11.5483 1.68946C11.4705 1.66733 11.3681 1.6526 11.2007 1.63758C11.1687 1.63471 11.1337 1.63178 11.0961 1.62866C10.9579 1.61713 10.7863 1.60283 10.6144 1.57827Z" fill="black"/>
<path fill-rule="evenodd" clip-rule="evenodd" d="M12.6937 2.63569C10.5541 2.43717 8.41861 2.45871 6.31334 2.47995C5.47839 2.48837 4.64819 2.49675 3.82439 2.49133C3.7338 2.49073 3.62485 2.48727 3.50477 2.48346C3.20701 2.474 2.8408 2.46237 2.5162 2.48685C2.02772 2.52369 1.45662 2.64453 0.966198 3.04064C0.954917 3.04975 0.935228 3.0649 0.910129 3.0842C0.830442 3.1455 0.696223 3.24874 0.603426 3.334C0.456977 3.46856 0.269293 3.67573 0.17143 3.97476C0.021229 4.43371 0.00462312 4.91614 0.00462312 5.28754C0.00462312 5.31386 0.00388005 5.34349 0.00273773 5.38519L0.00259181 5.39051C0.00155911 5.42811 0.000263842 5.47527 3.84233e-05 5.52358C-0.000419662 5.62171 0.0028046 5.76086 0.0324378 5.90791C0.0626368 6.05776 0.126533 6.24851 0.271174 6.42356C0.422764 6.60702 0.623824 6.72574 0.847023 6.78482C0.978279 6.81956 1.10838 6.84751 1.23661 6.87029C1.24826 8.12404 1.30026 9.35721 1.42468 10.6241C1.47706 11.1575 1.49512 11.6987 1.51018 12.263L1.51475 12.4372C1.52786 12.9411 1.54148 13.4646 1.57999 13.9867C1.62472 14.593 1.65109 15.2007 1.67801 15.8211L1.68616 16.0084C1.71591 16.6894 1.74852 17.3846 1.80943 18.0817L1.81951 18.1972C1.99324 20.1875 2.23188 22.9215 2.88558 24.9211C3.04606 25.4119 3.3968 25.7349 3.76773 25.9396C4.1296 26.1394 4.54401 26.2471 4.92643 26.3096C5.58047 26.4165 6.29057 26.411 6.74684 26.4075C6.81951 26.4069 6.88578 26.4064 6.94432 26.4064H14.1678C14.4696 26.4064 14.8358 26.3725 15.1861 26.2457C15.5434 26.1163 15.9197 25.8754 16.1553 25.4471C16.3777 25.0429 16.4342 24.5652 16.4681 24.2782L16.4715 24.2494C16.5199 23.8431 16.5393 23.4299 16.5573 23.0448C16.5632 22.9185 16.569 22.7949 16.5756 22.6759C16.5948 22.3301 16.6241 21.9653 16.6541 21.5906C16.7109 20.8826 16.7705 20.1393 16.7705 19.4221C16.7705 17.7745 16.9625 16.124 17.1788 14.4335C17.2009 14.2605 17.2233 14.087 17.2458 13.913C17.441 12.4005 17.6409 10.852 17.7084 9.29836C17.7225 8.97541 17.7598 8.64819 17.8005 8.29164L17.8166 8.15029C17.8591 7.77417 17.9019 7.36699 17.9068 6.95646C18.0503 6.93075 18.2022 6.88694 18.3461 6.81252C18.5266 6.71923 18.7027 6.57423 18.8282 6.35984C18.9522 6.14823 19 5.91491 19 5.68522V4.90136C19 4.28996 18.8875 3.75758 18.593 3.34559C18.2834 2.91242 17.8494 2.71764 17.4342 2.63808C17.0414 2.56282 16.62 2.58178 16.262 2.60672C16.1592 2.61388 16.0609 2.62157 15.9656 2.62903C15.6993 2.64986 15.4573 2.66879 15.2112 2.66879C14.966 2.66879 14.7288 2.67188 14.497 2.6749C13.8716 2.68304 13.2862 2.69065 12.6937 2.63569ZM16.4814 6.97678C15.5759 6.94788 14.6833 6.88317 13.7926 6.81466C12.9789 6.75207 12.1652 6.7537 11.3171 6.7554C11.1782 6.75567 11.0384 6.75595 10.8975 6.75595C9.88222 6.75595 8.86282 6.83725 7.809 6.92129C7.55551 6.94151 7.29994 6.96189 7.04205 6.98133C5.72969 7.08026 4.37175 7.15295 3.01371 7.02564C2.89091 7.01412 2.77668 7.00599 2.66303 6.99905C2.67692 8.17219 2.72811 9.31667 2.84284 10.4848C2.9007 11.074 2.9196 11.6608 2.93465 12.225L2.93922 12.3984C2.9525 12.9071 2.96525 13.3958 3.00111 13.8818C3.04752 14.5109 3.07481 15.1403 3.10156 15.7571L3.10978 15.9462C3.13955 16.6277 3.17109 17.2949 3.229 17.9576L3.23105 17.9811C3.41023 20.0318 3.63779 22.6361 4.24002 24.4783C4.2581 24.5336 4.30395 24.608 4.45631 24.6921C4.61775 24.7812 4.85334 24.8537 5.15628 24.9032C5.67921 24.9887 6.25032 24.9852 6.71541 24.9824C6.79507 24.9819 6.87165 24.9814 6.94432 24.9814H14.1678C14.3765 24.9814 14.5621 24.9561 14.7009 24.9058C14.8328 24.8581 14.8828 24.8039 14.9067 24.7604C14.9798 24.6276 15.0162 24.4201 15.0565 24.0809C15.0984 23.7298 15.1143 23.3902 15.1317 23.0199C15.1381 22.8838 15.1447 22.7434 15.1528 22.5969C15.1763 22.1736 15.2087 21.7745 15.2403 21.3863C15.2942 20.7226 15.3455 20.0904 15.3455 19.4221C15.3455 17.674 15.5491 15.9427 15.7653 14.2527C15.7875 14.0789 15.8099 13.9056 15.8322 13.7328C16.0284 12.2118 16.2201 10.7258 16.2848 9.23646C16.3012 8.85977 16.3447 8.4796 16.3848 8.12888L16.4006 7.9902C16.4417 7.62744 16.4754 7.29498 16.4814 6.97678ZM6.40247 3.90471C8.47823 3.88369 10.4997 3.86322 12.5621 4.05457C13.236 4.1171 13.932 4.10794 14.5797 4.09941C14.7965 4.09656 15.0079 4.09377 15.2112 4.09377C15.5184 4.09377 15.8402 4.06849 16.12 4.04652C16.2047 4.03986 16.2856 4.03351 16.361 4.02826C16.7174 4.00343 16.9733 4.00067 17.166 4.0376C17.3363 4.07022 17.3961 4.12155 17.4337 4.17426C17.4866 4.24816 17.575 4.44144 17.575 4.90136V5.56325C17.5355 5.56613 17.4892 5.56761 17.4346 5.56761C16.2598 5.56761 15.1036 5.48631 13.9019 5.39388C13.0275 5.32662 12.1513 5.32853 11.3063 5.33038C11.1692 5.33068 11.0329 5.33097 10.8975 5.33097C9.81976 5.33097 8.72966 5.41808 7.6715 5.50263C7.42405 5.5224 7.17832 5.54204 6.93494 5.56038C5.63306 5.65852 4.37699 5.72222 3.14671 5.60688C2.92873 5.58644 2.68659 5.57284 2.46432 5.56036C2.33234 5.55295 2.20732 5.54593 2.09858 5.53811C1.85763 5.52078 1.63666 5.4971 1.42632 5.45625L1.42723 5.42263C1.42828 5.38425 1.4296 5.3359 1.4296 5.28754C1.4296 4.94446 1.44952 4.65942 1.52151 4.43111C1.52706 4.42397 1.54039 4.40826 1.56754 4.38332C1.59726 4.35601 1.63432 4.32578 1.68592 4.28578C1.6977 4.27665 1.71174 4.26588 1.72715 4.25406C1.768 4.22272 1.81843 4.18403 1.86157 4.14919C2.03179 4.0117 2.27059 3.9344 2.62337 3.90779C2.87211 3.88903 3.09982 3.89671 3.35642 3.90536C3.49774 3.91012 3.64783 3.91518 3.81502 3.91628C4.69099 3.92204 5.55131 3.91333 6.40247 3.90471Z" fill="black"/>
<path fill-rule="evenodd" clip-rule="evenodd" d="M5.74877 9.30188C6.14226 9.30188 6.46126 9.62088 6.46126 10.0144C6.46126 10.2127 6.45959 10.4047 6.45796 10.5929C6.4546 10.9809 6.45137 11.3534 6.4631 11.7347C6.47743 12.2005 6.53983 12.6463 6.60825 13.135C6.6327 13.3098 6.65793 13.49 6.682 13.6786C6.82998 14.8377 6.9777 16.0071 7.10189 17.178C7.14516 17.586 7.173 17.9636 7.19987 18.3281C7.24176 18.8963 7.2813 19.4327 7.37334 20.0033C7.43711 20.3987 7.48043 20.8022 7.48043 21.2253C7.48043 21.6187 7.16143 21.9377 6.76793 21.9377C6.37444 21.9377 6.05545 21.6187 6.05545 21.2253C6.05545 20.8999 6.02224 20.5756 5.96654 20.2302C5.86742 19.6157 5.81726 18.9529 5.77008 18.3296C5.74347 17.978 5.71781 17.639 5.68485 17.3283C5.56247 16.1743 5.41656 15.0188 5.26849 13.859C5.24938 13.7092 5.2275 13.5533 5.20498 13.3928C5.13358 12.8838 5.05572 12.3288 5.03879 11.7785C5.0262 11.3691 5.02978 10.9486 5.03322 10.5453C5.03476 10.364 5.03628 10.1861 5.03628 10.0144C5.03628 9.62088 5.35527 9.30188 5.74877 9.30188Z" fill="black"/>
<path fill-rule="evenodd" clip-rule="evenodd" d="M9.66873 9.10596C10.0622 9.10596 10.3812 9.42496 10.3812 9.81845C10.3812 12.3906 10.4448 14.9527 10.6702 17.4974C10.7778 18.711 10.7757 19.9237 10.7737 21.1041C10.7735 21.2627 10.7732 21.4207 10.7732 21.5781C10.7732 21.9716 10.4542 22.2906 10.0607 22.2906C9.66722 22.2906 9.34823 21.9716 9.34823 21.5781C9.34823 21.418 9.34847 21.2586 9.34872 21.1001C9.35054 19.9129 9.3523 18.7682 9.25084 17.6231C9.02019 15.0202 8.95624 12.4119 8.95624 9.81845C8.95624 9.42496 9.27523 9.10596 9.66873 9.10596Z" fill="black"/>
<path fill-rule="evenodd" clip-rule="evenodd" d="M13.471 9.14514C13.8645 9.14514 14.1835 9.46413 14.1835 9.85763C14.1835 10.5734 14.1907 11.2971 14.1979 12.0255C14.2164 13.8914 14.2351 15.7881 14.1346 17.6615C14.1282 17.78 14.1222 17.9002 14.1162 18.0217C14.082 18.712 14.0455 19.4471 13.9207 20.1779C13.8484 20.6016 13.7915 21.0401 13.7915 21.4212C13.7915 21.8147 13.4725 22.1337 13.079 22.1337C12.6855 22.1337 12.3665 21.8147 12.3665 21.4212C12.3665 20.9184 12.4396 20.3858 12.5161 19.9381C12.6253 19.2984 12.6573 18.6599 12.692 17.9675C12.6983 17.8419 12.7047 17.7146 12.7116 17.5851C12.8096 15.7599 12.7915 13.9336 12.7732 12.0852C12.7659 11.3466 12.7585 10.6045 12.7585 9.85763C12.7585 9.46413 13.0775 9.14514 13.471 9.14514Z" fill="black"/>
</svg>
