<svg width="24" height="24" viewBox="0 0 24 24" fill="none" xmlns="http://www.w3.org/2000/svg">
<path d="M12.3633 1.00195C12.5358 1.00632 12.6851 1.02608 12.8008 1.05664C12.8969 1.08073 13.0629 1.14666 13.1719 1.20117C13.2833 1.25586 13.4668 1.37777 13.5977 1.48242C13.7242 1.58286 13.8922 1.73793 13.9707 1.8252C14.0493 1.91473 14.1783 2.07666 14.2568 2.18359C14.3355 2.29069 14.4689 2.49769 14.5518 2.6416C14.6325 2.78569 14.7391 2.99365 14.7871 3.10059C14.8546 3.25749 14.8745 3.32759 14.8789 3.4541C14.8833 3.57829 14.8945 3.61754 14.9229 3.63281C14.9451 3.64372 15.0211 3.6595 15.0928 3.66602C15.1647 3.67473 15.2867 3.68929 15.3652 3.7002C15.4438 3.71111 15.6013 3.73104 15.7148 3.74414C15.8282 3.75723 15.97 3.77716 16.0312 3.78809C16.0902 3.799 16.2782 3.83369 16.4463 3.86426C16.6144 3.89482 16.8506 3.94083 16.9707 3.96484C17.0908 3.99105 17.3021 4.03911 17.4395 4.07617C17.577 4.1111 17.809 4.17411 17.9531 4.21777C18.0972 4.25926 18.3368 4.33632 18.4873 4.38867C18.6378 4.44103 18.8825 4.52969 19.0332 4.59082C19.1838 4.64977 19.3308 4.70709 19.3613 4.71582C19.3922 4.7249 19.4752 4.77522 19.5469 4.8252C19.6339 4.88621 19.6971 4.95227 19.7363 5.02344C19.7691 5.08238 19.7979 5.15251 19.7979 5.17871C19.798 5.20745 19.8282 5.32927 19.8652 5.45117C19.9045 5.57561 19.9484 5.73557 19.9658 5.80762C19.9811 5.87987 19.9959 6.06059 19.998 6.21094C20.0002 6.41398 19.9893 6.51699 19.9609 6.61523C19.9391 6.68734 19.8847 6.82248 19.8389 6.91406C19.7799 7.03408 19.7102 7.12792 19.6055 7.23047C19.5247 7.31125 19.4044 7.40946 19.3389 7.45312C19.2734 7.4946 19.1557 7.55612 19.0771 7.58887C18.9986 7.62162 18.8871 7.66125 18.8281 7.67871C18.7693 7.69398 18.7149 7.71543 18.7061 7.72852C18.6973 7.74161 18.7015 7.88769 18.7168 8.05566C18.7343 8.22377 18.7628 8.59756 18.7803 8.88574C18.7977 9.17399 18.8236 9.78305 18.8389 10.2393C18.852 10.7239 18.8564 11.4138 18.8477 11.8984C18.8389 12.3547 18.8108 13.1759 18.7803 13.7217C18.7519 14.2675 18.7034 15.0141 18.6729 15.3809C18.6423 15.7475 18.6034 16.1992 18.5859 16.3848C18.5663 16.5703 18.5422 16.8108 18.5312 16.9199C18.5203 17.0291 18.5004 17.2125 18.4873 17.3281C18.4764 17.446 18.4552 17.6382 18.4443 17.7539L18.4404 17.79C18.4261 17.919 18.4007 18.1479 18.3789 18.3281L18.375 18.3564C18.3518 18.5484 18.325 18.7661 18.3125 18.8516C18.3016 18.941 18.2826 19.1028 18.2695 19.2119L18.1816 19.9111C18.1686 20.0201 18.1496 20.1746 18.1387 20.2598C18.1278 20.3427 18.1078 20.5002 18.0947 20.6094C18.0816 20.7185 18.06 20.876 18.0469 20.959C18.0338 21.042 18.0208 21.2292 18.0186 21.373C18.0164 21.5171 18.0048 21.6704 17.9961 21.7119C17.9874 21.7533 17.9632 21.8228 17.9414 21.8643C17.9196 21.9056 17.8678 21.9778 17.8242 22.0215C17.7806 22.0673 17.6993 22.1288 17.6426 22.1572C17.5835 22.1856 17.4152 22.2489 17.2646 22.2969C17.114 22.3471 16.8503 22.4276 16.6758 22.4756C16.5011 22.5236 16.2166 22.5982 16.042 22.6396C15.8673 22.6789 15.5921 22.738 15.4307 22.7686C15.2691 22.7991 15.0032 22.8432 14.8418 22.8672C14.6802 22.8912 14.444 22.9217 14.3174 22.9326C14.1907 22.9457 13.9701 22.9654 13.8262 22.9785C13.6818 22.9894 13.2933 23 12.9639 23C12.6343 23 12.2498 22.9887 12.1123 22.9756C11.9746 22.9625 11.6995 22.9341 11.501 22.9102C11.3024 22.8861 11.0082 22.8409 10.8467 22.8125C10.6852 22.782 10.41 22.7231 10.2354 22.6816C10.0607 22.6423 9.80034 22.5718 9.65625 22.5303C9.51211 22.4888 9.25683 22.4065 9.08887 22.3477C8.92076 22.2887 8.64984 22.1839 8.48828 22.1162C8.32675 22.0485 8.14757 21.9656 8.09082 21.9307C8.03258 21.894 7.98734 21.859 7.98633 21.8477C7.98851 21.8389 7.92348 21.7879 7.84277 21.7334C7.76203 21.6788 7.67176 21.6074 7.64551 21.5703C7.61943 21.5334 7.58299 21.4766 7.56543 21.4395C7.54796 21.4023 7.4621 21.1767 7.37695 20.9365C7.294 20.6964 7.17633 20.3276 7.11523 20.1182C7.05629 19.9086 6.96278 19.5547 6.9082 19.332C6.85581 19.1094 6.80141 18.8689 6.78613 18.7969C6.77305 18.7249 6.75309 18.6271 6.74219 18.5791C6.73127 18.5311 6.71134 18.4282 6.69824 18.3496C6.68514 18.271 6.66325 18.1639 6.65234 18.1094C6.64141 18.0546 6.61727 17.9022 6.59766 17.7715C6.57804 17.6407 6.55391 17.4684 6.54297 17.3896C6.53205 17.3111 6.51287 17.1599 6.50195 17.0508C6.48885 16.9416 6.46915 16.76 6.45605 16.6465C6.44513 16.5329 6.42497 16.3259 6.41406 16.1885C6.40315 16.051 6.38 15.6865 6.36035 15.3809C6.33852 15.0053 6.32715 14.4308 6.32715 13.623C6.32715 12.9616 6.33553 12.1384 6.34863 11.7891C6.36173 11.4398 6.38143 10.9704 6.39453 10.7412C6.40545 10.512 6.42561 10.1645 6.43652 9.96582C6.44744 9.76715 6.46738 9.41409 6.48047 9.18066C6.49356 8.94713 6.51252 8.59323 6.52344 8.39453C6.53435 8.19588 6.54992 7.90975 6.56738 7.47754L6.41895 7.43164C6.33828 7.40548 6.20311 7.3466 6.12012 7.30078C6.03723 7.25497 5.89744 7.16089 5.81445 7.08887C5.73149 7.019 5.59617 6.88317 5.51758 6.78711C5.43899 6.69323 5.3361 6.54704 5.28809 6.46191C5.24011 6.37683 5.16377 6.22017 5.12012 6.11328C5.07427 6.0063 5.02579 5.86139 5.0127 5.7959C4.99316 5.70012 4.99512 5.63448 5.02344 5.45801C5.04745 5.3161 5.08501 5.18935 5.13086 5.09766C5.16797 5.01909 5.23812 4.89722 5.28613 4.8252C5.33416 4.75315 5.44318 4.62174 5.52832 4.53223C5.61328 4.4451 5.73716 4.33182 5.80273 4.2793C5.86823 4.2269 5.9974 4.14569 6.08691 4.09766C6.17643 4.04963 6.3056 3.98909 6.37109 3.96289C6.43662 3.93669 6.56999 3.89263 6.66602 3.86426C6.76203 3.83593 6.9187 3.80314 7.01465 3.79004C7.11071 3.77694 7.37744 3.75724 7.60449 3.74414C7.83155 3.73104 8.19182 3.71134 8.40137 3.69824C8.61095 3.68732 8.91241 3.66814 9.06738 3.65723C9.22227 3.64415 9.4293 3.635 9.52539 3.63281C9.62135 3.63281 9.7392 3.62591 9.78516 3.61719C9.8703 3.60191 9.87281 3.59986 9.91211 3.44922C9.93394 3.36628 9.96887 3.24641 9.98633 3.1875C10.0038 3.12637 10.0498 2.99519 10.0869 2.89258C10.124 2.78997 10.2006 2.61346 10.2529 2.5C10.3075 2.38647 10.4052 2.20906 10.4707 2.10645C10.5384 2.00383 10.6566 1.84212 10.7373 1.74609C10.8181 1.65008 10.9619 1.51265 11.0557 1.43848C11.1517 1.36643 11.2768 1.27907 11.3379 1.24414C11.3969 1.21138 11.5104 1.15942 11.5889 1.12891C11.6674 1.10055 11.8134 1.057 11.916 1.03516C12.0578 1.00461 12.1649 0.995432 12.3633 1.00195ZM12.4951 7.31348C11.7266 7.30911 10.8814 7.31646 10.6172 7.3252C10.3529 7.33612 9.66931 7.36863 9.09961 7.40137C8.53137 7.43185 8.04575 7.46231 8.01953 7.4668C7.98024 7.47553 7.97322 7.50376 7.94922 7.83105C7.93394 8.02745 7.91671 8.28512 7.91016 8.40527C7.90361 8.52529 7.88809 8.78724 7.875 8.99023C7.86409 9.191 7.84708 9.51862 7.83398 9.72168C7.82307 9.92253 7.80314 10.2791 7.79004 10.5127C7.77694 10.7464 7.75723 11.1897 7.74414 11.4951C7.73105 11.801 7.71553 12.5277 7.70898 13.1104C7.70244 13.75 7.70737 14.4071 7.72266 14.7695C7.73575 15.0989 7.75763 15.4981 7.76855 15.6533C7.78165 15.8083 7.80135 16.0509 7.81445 16.1885C7.82537 16.326 7.85144 16.5686 7.87109 16.7236C7.88856 16.8786 7.91194 17.075 7.92285 17.1602C7.93377 17.2453 7.95197 17.3765 7.96289 17.4551C7.97598 17.5336 7.99571 17.6556 8.00879 17.7275C8.02187 17.7995 8.04083 17.913 8.05176 17.9785C8.06267 18.044 8.08065 18.1532 8.09375 18.2188C8.10467 18.2842 8.15486 18.5205 8.20508 18.7432C8.25528 18.9658 8.34665 19.3387 8.41211 19.5723C8.47761 19.8059 8.58736 20.1686 8.65723 20.376L8.7832 20.7559C9.23901 20.9391 9.50118 21.0372 9.65625 21.0918C9.81116 21.1463 10.0822 21.2293 10.2568 21.2773C10.4315 21.3254 10.716 21.393 10.8906 21.4258C11.0653 21.4607 11.3489 21.5114 11.5234 21.5332C11.698 21.5572 11.988 21.5902 12.167 21.6055C12.3809 21.6229 12.7089 21.6269 13.1172 21.6182C13.4599 21.6116 13.8138 21.5939 13.9033 21.583C13.9929 21.5721 14.2042 21.546 14.3721 21.5264C14.5402 21.5089 14.9098 21.4481 15.1914 21.3936C15.4729 21.339 15.9047 21.2383 16.1514 21.1729C16.3981 21.1074 16.6126 21.0417 16.6279 21.0264C16.6432 21.0127 16.6649 20.9386 16.6758 20.8604C16.6867 20.7817 16.7066 20.633 16.7197 20.5283C16.7307 20.4214 16.7518 20.258 16.7627 20.1621L16.8506 19.4414C16.8615 19.3453 16.8805 19.1903 16.8936 19.0986C16.9045 19.0047 16.9308 18.8059 16.9482 18.6553L16.9551 18.5996C16.9734 18.4418 17.0012 18.1986 17.0225 18.0225C17.0465 17.8238 17.0777 17.5592 17.0908 17.4326C17.1039 17.306 17.1229 17.1159 17.1338 17.0068C17.1447 16.8974 17.1752 16.6097 17.1992 16.3633C17.2232 16.1166 17.2715 15.5223 17.3086 15.042C17.3435 14.5618 17.3834 13.9725 17.3965 13.7324C17.4074 13.4923 17.4291 12.8442 17.4443 12.292C17.464 11.5148 17.464 11.0532 17.4443 10.2607C17.4291 9.69541 17.4067 9.07782 17.3936 8.88574C17.3805 8.69361 17.3529 8.34394 17.3311 8.11035L17.3301 8.10645C17.2912 7.68743 17.2914 7.68457 17.2305 7.63672C17.1868 7.60397 17.1121 7.58267 17.0029 7.56738C16.9134 7.55646 16.7369 7.53457 16.6104 7.52148C16.4837 7.50839 16.3021 7.48845 16.2061 7.47754C16.1096 7.4666 15.7558 7.4361 15.4199 7.41211C15.0837 7.3881 14.6015 7.35782 14.3506 7.34473C14.0995 7.33163 13.2635 7.31784 12.4951 7.31348ZM12.7783 4.91211C12.1061 4.90775 11.3752 4.91412 11.1523 4.92285C10.9297 4.93376 10.5433 4.95152 10.29 4.9668C10.0368 4.9799 9.6893 4.99983 9.51465 5.01074C9.33997 5.02166 9.0323 5.04159 8.82715 5.05469C8.6221 5.06778 8.308 5.08673 8.12891 5.09766C7.94988 5.11076 7.65903 5.12626 7.48438 5.13281C7.2639 5.14155 7.12162 5.15889 7.01465 5.18945C6.92953 5.21351 6.80956 5.26567 6.74414 5.30273C6.6787 5.33982 6.58713 5.41418 6.53906 5.46875C6.49351 5.52297 6.44571 5.58172 6.43652 5.59961C6.42342 5.62144 6.43675 5.67014 6.47168 5.74219C6.5022 5.80311 6.56288 5.88772 6.60645 5.93359C6.65011 5.97944 6.73155 6.04095 6.78613 6.06934C6.84073 6.0955 6.9343 6.12626 6.99316 6.13281C7.05429 6.14155 7.20541 6.13689 7.33203 6.12598C7.45868 6.11288 7.70253 6.09099 7.87695 6.08008C8.05161 6.06698 8.44533 6.0436 8.75098 6.02832C9.05665 6.01085 9.5545 5.98207 9.85352 5.9668C10.2052 5.94934 11.0089 5.93848 12.1133 5.93848C13.2308 5.93848 14.0059 5.94715 14.3398 5.9668C14.6215 5.98208 15.0059 6.00373 15.1914 6.01465C15.377 6.02775 15.6322 6.04768 15.7588 6.05859C15.8853 6.0695 16.1165 6.08944 16.2715 6.10254C16.4265 6.11564 16.6386 6.13534 16.7412 6.14844C16.8438 6.15935 17.0013 6.17854 17.0908 6.18945C17.1804 6.20038 17.3485 6.22031 17.4619 6.2334C17.5754 6.2465 17.7436 6.26816 17.833 6.28125C17.9223 6.29434 18.0331 6.32293 18.0791 6.34473C18.1228 6.36874 18.1931 6.38574 18.2324 6.38574C18.2696 6.38573 18.3375 6.37539 18.3789 6.3623C18.4204 6.34918 18.4879 6.3204 18.5293 6.30078C18.5686 6.28113 18.6102 6.24816 18.6211 6.22852C18.634 6.20428 18.6292 6.13853 18.6074 6.05371C18.59 5.97761 18.5641 5.90603 18.5488 5.89062C18.5335 5.87753 18.363 5.80521 18.1709 5.73535C17.9789 5.66335 17.6563 5.55406 17.4512 5.49512C17.246 5.43401 16.9226 5.34934 16.7305 5.30566L16.6748 5.29297C16.4991 5.25502 16.32 5.21692 16.2607 5.20508C16.1954 5.192 16.0976 5.17184 16.043 5.16309C15.9885 5.15218 15.8813 5.13516 15.8027 5.12207C15.7242 5.11116 15.593 5.09122 15.5078 5.07812C15.4228 5.06722 15.2767 5.04728 15.1807 5.03418C15.0847 5.02109 14.8924 5.00138 14.7549 4.98828C14.6279 4.9782 14.4239 4.95951 14.2852 4.94629L14.252 4.94336C14.1136 4.93027 13.4502 4.91647 12.7783 4.91211ZM12.1348 2.39551C12.0802 2.40641 11.9973 2.43649 11.9492 2.46484C11.9013 2.49316 11.8119 2.56937 11.7529 2.63477C11.6918 2.69804 11.6003 2.83611 11.5479 2.93652C11.4955 3.03913 11.4226 3.20501 11.3877 3.30762C11.3551 3.4099 11.3273 3.50576 11.3271 3.52148C11.3271 3.54113 11.5539 3.54785 12.3857 3.54785C13.3114 3.54785 13.4443 3.54303 13.4443 3.51465C13.4435 3.49578 13.3894 3.38102 13.3223 3.25977C13.2546 3.13532 13.1473 2.96698 13.084 2.88184C13.0207 2.79891 12.9291 2.69206 12.8789 2.64844C12.831 2.60272 12.7485 2.53964 12.6982 2.50684C12.6458 2.47627 12.5646 2.43618 12.5166 2.4209C12.4685 2.40564 12.3856 2.39108 12.3311 2.38672C12.2765 2.38018 12.1893 2.3846 12.1348 2.39551Z" fill="#EB1B1F"/>
<path d="M15.2413 8.93807C15.309 8.90314 15.4029 8.86603 15.4487 8.85511C15.4924 8.84419 15.5601 8.83546 15.595 8.83328C15.6321 8.83109 15.7129 8.84638 15.7762 8.86384C15.8548 8.88567 15.9203 8.92497 15.9836 8.98828C16.0426 9.04723 16.0906 9.12146 16.1146 9.19132C16.1343 9.25027 16.1714 9.47296 16.1954 9.68254C16.2194 9.89213 16.2543 10.2065 16.2696 10.3812C16.2871 10.5558 16.3111 10.8396 16.3242 11.0143C16.3373 11.189 16.3569 11.523 16.37 11.7566C16.3831 11.9902 16.4028 12.5207 16.4115 12.9355C16.4224 13.37 16.4224 14.5249 16.4115 15.6645C16.4028 16.7518 16.3897 17.7582 16.3853 17.9023C16.3788 18.1294 16.37 18.1796 16.322 18.2844C16.2893 18.352 16.2238 18.4394 16.1692 18.4874C16.119 18.5333 16.0229 18.59 15.9618 18.6118C15.8875 18.6402 15.7915 18.6555 15.6932 18.6555C15.595 18.6555 15.4989 18.6402 15.4269 18.6118C15.3636 18.59 15.2675 18.5333 15.2173 18.4874C15.1605 18.4394 15.0972 18.3542 15.0099 18.1643L15.0121 17.3893C15.0143 16.9635 15.0274 15.9462 15.0405 15.1296C15.0601 14.0053 15.0601 13.4311 15.0405 12.7609C15.0274 12.274 15.0055 11.7544 14.9946 11.6038L14.951 11.0034C14.9379 10.8222 14.9182 10.6017 14.9073 10.5122C14.8964 10.4226 14.8745 10.2502 14.8593 10.1301C14.844 10.01 14.8331 9.79389 14.8309 9.6498C14.8309 9.42929 14.8374 9.37471 14.8745 9.30048C14.8986 9.25464 14.9619 9.16731 15.0165 9.10836C15.071 9.04723 15.1715 8.973 15.2413 8.93807Z" fill="#EB1B1F"/>
<path d="M11.9993 9.04068C12.0429 9.0123 12.1303 8.973 12.1892 8.95554C12.2503 8.93589 12.3224 8.92061 12.3529 8.92061C12.3835 8.91842 12.4708 8.93152 12.5494 8.94899C12.628 8.96427 12.7241 8.99265 12.7634 9.01448C12.8005 9.03413 12.8747 9.0909 12.9228 9.14111C12.973 9.19351 13.0319 9.2721 13.0538 9.31577C13.0778 9.36161 13.104 9.46422 13.1171 9.545C13.128 9.62796 13.1476 9.91833 13.1607 10.1956C13.1738 10.4707 13.1935 10.8637 13.2044 11.0689C13.2153 11.2741 13.235 11.6256 13.2481 11.8548C13.259 12.0841 13.2786 12.4705 13.2917 12.7172C13.3048 12.9639 13.3288 13.3853 13.3463 13.656C13.3638 13.9267 13.39 14.3044 13.4031 14.4965C13.414 14.6886 13.4402 15.0227 13.4576 15.2388C13.4773 15.4549 13.5013 15.73 13.5122 15.8501C13.521 15.9702 13.5406 16.1819 13.5537 16.3195C13.5668 16.457 13.5865 16.6732 13.5974 16.7998C13.6083 16.9264 13.6105 17.0727 13.6039 17.1273C13.5974 17.1818 13.5734 17.2604 13.5537 17.3019C13.5341 17.3434 13.4729 17.4155 13.4205 17.4613C13.3681 17.505 13.2808 17.5574 13.2262 17.5748C13.1716 17.5945 13.0734 17.6076 13.0079 17.6076C12.9424 17.6076 12.8332 17.5923 12.7678 17.5748C12.7023 17.5574 12.6084 17.5181 12.5603 17.4897C12.5123 17.4613 12.4468 17.4089 12.4141 17.374C12.3813 17.3412 12.3311 17.2583 12.3005 17.1928C12.2678 17.1207 12.2351 16.9985 12.222 16.8871C12.2089 16.7845 12.1892 16.5924 12.1783 16.4614C12.1652 16.3304 12.1477 16.1186 12.1346 15.992C12.1237 15.8654 12.1041 15.6492 12.091 15.5117C12.0779 15.3742 12.0582 15.1318 12.0473 14.9768L12.0452 14.9472C12.034 14.7884 12.0161 14.5336 12.0058 14.3655C11.9927 14.1843 11.9731 13.8852 11.96 13.6996C11.9491 13.5141 11.9229 13.0818 11.9054 12.739C11.8879 12.3963 11.8617 11.9247 11.8508 11.6911C11.8377 11.4575 11.8181 11.0929 11.8071 10.8833C11.7962 10.6737 11.7744 10.2698 11.7613 9.98819C11.7373 9.51444 11.7373 9.46641 11.7722 9.35506C11.794 9.28957 11.8355 9.20224 11.8639 9.16294C11.8923 9.12583 11.9534 9.06906 11.9993 9.04068Z" fill="#EB1B1F"/>
<path d="M9.15455 9.15203C9.20258 9.12801 9.29646 9.09526 9.36196 9.07998L9.50386 9.0516C9.51696 9.0516 9.58683 9.0647 9.66324 9.08216C9.73747 9.09963 9.83571 9.13238 9.88156 9.15639C9.92522 9.17822 9.99508 9.2328 10.0344 9.27647C10.0715 9.32013 10.1195 9.38344 10.137 9.42056C10.1545 9.45549 10.1785 9.52754 10.1894 9.57775C10.2003 9.63015 10.22 10.0209 10.2331 10.4467C10.2483 10.8724 10.268 11.3636 10.2811 11.5383C10.292 11.7129 10.3116 11.9815 10.3226 12.1386C10.3357 12.2937 10.3597 12.6037 10.3771 12.8264C10.3946 13.049 10.4339 13.4704 10.4645 13.7651C10.495 14.0599 10.53 14.3939 10.5409 14.5074C10.5518 14.6209 10.5714 14.7978 10.5845 14.9004C10.5976 15.003 10.6173 15.1668 10.6282 15.265C10.6413 15.3654 10.661 15.5313 10.6741 15.6361C10.6862 15.7353 10.704 15.8738 10.7152 15.9613L10.7177 15.9811C10.7286 16.064 10.7439 16.2518 10.7505 16.3959C10.7614 16.6513 10.7592 16.6601 10.7003 16.767C10.661 16.8391 10.602 16.9002 10.53 16.9482C10.4688 16.9875 10.3684 17.029 10.3007 17.0421C10.2134 17.0596 10.1414 17.0596 10.0387 17.0399C9.96015 17.0268 9.84881 16.9941 9.78768 16.9635C9.72873 16.9351 9.63049 16.8609 9.56936 16.7954C9.48858 16.7081 9.45147 16.6448 9.42308 16.5487C9.40125 16.4767 9.37505 16.3479 9.36414 16.2649C9.35104 16.1798 9.33139 16.0182 9.31829 15.9047C9.30519 15.7911 9.28554 15.6274 9.27463 15.5444C9.26371 15.4593 9.24406 15.2977 9.23096 15.1842C9.21786 15.0707 9.20258 14.9462 9.19603 14.9113C9.18948 14.8742 9.17638 14.7519 9.16547 14.6384C9.15455 14.5249 9.1349 14.3328 9.1218 14.2127C9.1087 14.0926 9.07596 13.7586 9.04539 13.4704C9.01701 13.1822 8.98863 12.8635 8.98208 12.7609C8.97335 12.6582 8.95806 12.4574 8.94715 12.3133C8.93623 12.1692 8.91658 11.9138 8.90348 11.7457C8.89257 11.5776 8.87073 11.1802 8.85982 10.8615C8.84672 10.5427 8.8358 10.1214 8.83362 9.9227C8.83144 9.59303 8.83362 9.55373 8.87947 9.45331C8.90567 9.39218 8.95806 9.3114 8.99736 9.2721C9.03666 9.23062 9.10652 9.17822 9.15455 9.15203Z" fill="#EB1B1F"/>
</svg>
