<svg width="22" height="27" viewBox="0 0 22 27" fill="none" xmlns="http://www.w3.org/2000/svg">
<path d="M5.23547 5.20923H14.7177H17.814L18.201 7.3379L17.427 7.91845L16.2659 21.0775L15.6853 23.5932H6.97711L5.81602 21.2711L4.84843 7.91845L4.07437 7.3379L3.88086 6.1768L5.23547 5.20923Z" fill="white"/>
<path fill-rule="evenodd" clip-rule="evenodd" d="M11.9488 3.786C11.0221 3.65361 10.0365 3.57339 9.2746 3.82438C9.21667 3.84346 9.16486 3.86276 9.12283 3.88282C9.10432 3.89165 9.0916 3.89881 9.08372 3.90374C9.07757 3.91264 9.06422 3.93499 9.04701 3.98163C9.02465 4.04222 9.00886 4.10414 8.98587 4.19428C8.98098 4.21344 8.97577 4.23389 8.97009 4.25588C8.93541 4.39026 8.92461 4.44977 8.9193 4.50014C8.91331 4.55693 8.91225 4.61897 8.91225 4.77315C8.91225 5.09378 8.65234 5.35369 8.33171 5.35369C8.01108 5.35369 7.75116 5.09378 7.75116 4.77315V4.76993C7.75116 4.63006 7.75116 4.50592 7.7646 4.37838C7.77883 4.24346 7.80616 4.11948 7.84583 3.96575C7.8491 3.95307 7.85267 3.93894 7.85654 3.9236C7.87917 3.83396 7.91224 3.7029 7.95772 3.57966C8.01308 3.42963 8.10327 3.24093 8.26629 3.07791C8.47958 2.86463 8.78868 2.76197 8.91133 2.72157C9.96072 2.37589 11.1974 2.50577 12.1131 2.63657C12.216 2.6513 12.3099 2.65916 12.4166 2.66811C12.4527 2.67114 12.4903 2.67429 12.5303 2.67787C12.6738 2.69075 12.8512 2.70965 13.0276 2.75985C13.2131 2.81265 13.4058 2.90187 13.5822 3.05917C13.7565 3.21472 13.8876 3.41249 13.987 3.64458C14.0785 3.85824 14.1103 4.09163 14.1243 4.27264C14.1375 4.44395 14.1373 4.61513 14.1372 4.73991C14.1372 4.75139 14.1372 4.76249 14.1372 4.77315C14.1372 5.09378 13.8773 5.35369 13.5567 5.35369C13.236 5.35369 12.9761 5.09378 12.9761 4.77315C12.9761 4.76371 12.9761 4.75428 12.9761 4.74488C12.9761 4.61365 12.9762 4.48592 12.9667 4.3618C12.9559 4.22271 12.9361 4.14001 12.9198 4.10196C12.8719 3.99015 12.8304 3.94453 12.8091 3.92558C12.7899 3.90839 12.7639 3.89203 12.7097 3.8766C12.6463 3.85857 12.5629 3.84656 12.4265 3.83432C12.4004 3.83199 12.3719 3.8296 12.3413 3.82706C12.2287 3.81766 12.0889 3.80601 11.9488 3.786Z" fill="black"/>
<path fill-rule="evenodd" clip-rule="evenodd" d="M13.643 4.6476C11.8996 4.48585 10.1596 4.5034 8.44419 4.5207C7.76386 4.52757 7.0874 4.53439 6.41616 4.52998C6.34234 4.52949 6.25357 4.52667 6.15573 4.52356C5.91311 4.51586 5.61471 4.50638 5.35022 4.52633C4.9522 4.55634 4.48686 4.65481 4.08726 4.97756C4.07807 4.98499 4.06203 4.99733 4.04157 5.01306C3.97664 5.063 3.86728 5.14713 3.79167 5.2166C3.67234 5.32624 3.51941 5.49504 3.43967 5.7387C3.31729 6.11266 3.30375 6.50575 3.30375 6.80837C3.30375 6.82982 3.30315 6.85396 3.30222 6.88794L3.3021 6.89227C3.30126 6.92291 3.3002 6.96134 3.30002 7.0007C3.29965 7.08066 3.30227 7.19404 3.32642 7.31386C3.35103 7.43596 3.40309 7.59138 3.52094 7.73402C3.64446 7.8835 3.80829 7.98024 3.99015 8.02838C4.0971 8.05668 4.20311 8.07946 4.3076 8.09802C4.31709 9.11959 4.35946 10.1244 4.46084 11.1567C4.50352 11.5913 4.51823 12.0323 4.5305 12.4921L4.53423 12.634C4.54491 13.0446 4.55601 13.4712 4.58739 13.8966C4.62383 14.3906 4.64532 14.8858 4.66726 15.3913L4.6739 15.5439C4.69814 16.0988 4.72471 16.6652 4.77434 17.2332L4.78255 17.3274C4.92411 18.9491 5.11856 21.1768 5.6512 22.8061C5.78196 23.206 6.06775 23.4692 6.36999 23.636C6.66485 23.7988 7.00251 23.8865 7.31412 23.9375C7.84704 24.0246 8.42564 24.0201 8.79741 24.0172C8.85663 24.0167 8.91062 24.0163 8.95832 24.0163H14.8441C15.09 24.0163 15.3884 23.9887 15.6738 23.8854C15.965 23.78 16.2716 23.5837 16.4636 23.2347C16.6448 22.9053 16.6908 22.5161 16.7184 22.2822L16.7212 22.2588C16.7606 21.9277 16.7765 21.591 16.7911 21.2772C16.7959 21.1743 16.8007 21.0736 16.806 20.9767C16.8217 20.6949 16.8456 20.3977 16.87 20.0923C16.9163 19.5155 16.9648 18.9098 16.9648 18.3254C16.9648 16.9829 17.1213 15.6381 17.2975 14.2606C17.3155 14.1197 17.3338 13.9783 17.3521 13.8365C17.5112 12.6041 17.6741 11.3424 17.7291 10.0764C17.7405 9.8133 17.7709 9.54668 17.8041 9.25616L17.8172 9.14098C17.8518 8.83451 17.8867 8.50274 17.8907 8.16823C18.0076 8.14728 18.1314 8.11159 18.2487 8.05095C18.3957 7.97493 18.5392 7.85678 18.6415 7.6821C18.7425 7.50967 18.7815 7.31956 18.7815 7.13241V6.49371C18.7815 5.99553 18.6898 5.56174 18.4498 5.22604C18.1976 4.87309 17.8439 4.71438 17.5056 4.64955C17.1856 4.58823 16.8422 4.60368 16.5505 4.624C16.4667 4.62983 16.3866 4.6361 16.309 4.64218C16.092 4.65915 15.8948 4.67457 15.6943 4.67457C15.4945 4.67457 15.3012 4.67709 15.1124 4.67955C14.6028 4.68619 14.1258 4.69239 13.643 4.6476ZM16.7293 8.18479C15.9915 8.16124 15.2642 8.10851 14.5384 8.05269C13.8754 8.00169 13.2124 8.00302 12.5213 8.00441C12.4082 8.00463 12.2942 8.00485 12.1794 8.00485C11.3522 8.00485 10.5215 8.0711 9.66288 8.13957C9.45633 8.15605 9.24809 8.17266 9.03795 8.1885C7.96862 8.26911 6.86215 8.32833 5.7556 8.2246C5.65554 8.21521 5.56247 8.20859 5.46986 8.20293C5.48118 9.15883 5.52289 10.0914 5.61638 11.0432C5.66352 11.5233 5.67892 12.0014 5.69118 12.4611L5.69491 12.6024C5.70573 13.0169 5.71612 13.4151 5.74534 13.8111C5.78315 14.3237 5.80539 14.8365 5.82718 15.3391L5.83388 15.4932C5.85814 16.0485 5.88384 16.5921 5.93102 17.1321L5.9327 17.1513C6.07869 18.8222 6.26411 20.9442 6.75482 22.4453C6.76955 22.4903 6.80691 22.551 6.93105 22.6195C7.0626 22.6921 7.25456 22.7512 7.5014 22.7915C7.92749 22.8612 8.39284 22.8583 8.7718 22.856C8.83671 22.8556 8.89911 22.8552 8.95832 22.8552H14.8441C15.0142 22.8552 15.1654 22.8346 15.2785 22.7936C15.386 22.7548 15.4267 22.7106 15.4462 22.6751C15.5058 22.5669 15.5354 22.3979 15.5682 22.1215C15.6024 21.8354 15.6153 21.5587 15.6295 21.257C15.6347 21.1461 15.6401 21.0317 15.6467 20.9123C15.6659 20.5674 15.6923 20.2422 15.718 19.9259C15.7619 19.3851 15.8037 18.87 15.8037 18.3254C15.8037 16.901 15.9696 15.4904 16.1458 14.1133C16.1639 13.9717 16.1821 13.8305 16.2003 13.6897C16.3602 12.4504 16.5164 11.2395 16.5691 10.026C16.5824 9.71908 16.6179 9.40931 16.6506 9.12354L16.6634 9.01054C16.6969 8.71496 16.7244 8.44406 16.7293 8.18479ZM8.51682 5.68162C10.2082 5.66449 11.8553 5.64781 13.5358 5.80373C14.0849 5.85468 14.652 5.84722 15.1797 5.84026C15.3564 5.83794 15.5286 5.83567 15.6943 5.83567C15.9446 5.83567 16.2068 5.81507 16.4348 5.79717C16.5038 5.79174 16.5697 5.78657 16.6312 5.78229C16.9216 5.76206 17.1301 5.75981 17.2871 5.7899C17.4259 5.81648 17.4746 5.85831 17.5052 5.90125C17.5483 5.96147 17.6204 6.11896 17.6204 6.49371V7.03302C17.5882 7.03537 17.5504 7.03658 17.506 7.03658C16.5487 7.03658 15.6066 6.97033 14.6275 6.89502C13.915 6.84021 13.201 6.84177 12.5125 6.84328C12.4008 6.84352 12.2898 6.84376 12.1794 6.84376C11.3013 6.84376 10.413 6.91474 9.55084 6.98363C9.34921 6.99974 9.14899 7.01574 8.95068 7.03068C7.88989 7.11065 6.86642 7.16255 5.86397 7.06857C5.68636 7.05192 5.48906 7.04084 5.30795 7.03067C5.20041 7.02463 5.09854 7.01891 5.00994 7.01254C4.81361 6.99842 4.63356 6.97912 4.46217 6.94584L4.46292 6.91844C4.46377 6.88717 4.46485 6.84778 4.46485 6.80837C4.46485 6.52882 4.48108 6.29657 4.53974 6.11054C4.54426 6.10472 4.55512 6.09192 4.57724 6.0716C4.60146 6.04935 4.63166 6.02471 4.6737 5.99212C4.6833 5.98468 4.69474 5.97591 4.7073 5.96628C4.74058 5.94074 4.78167 5.90921 4.81682 5.88083C4.95552 5.7688 5.1501 5.70581 5.43755 5.68413C5.64023 5.66884 5.82577 5.6751 6.03485 5.68215C6.15 5.68603 6.27229 5.69015 6.40852 5.69105C7.12228 5.69574 7.82328 5.68864 8.51682 5.68162Z" fill="black"/>
<path fill-rule="evenodd" clip-rule="evenodd" d="M7.98419 10.0793C8.30481 10.0793 8.56473 10.3392 8.56473 10.6599C8.56473 10.8215 8.56337 10.9779 8.56205 11.1313C8.55931 11.4474 8.55668 11.7509 8.56623 12.0616C8.57791 12.4412 8.62875 12.8044 8.6845 13.2026C8.70443 13.345 8.72498 13.4919 8.7446 13.6455C8.86517 14.59 8.98554 15.5428 9.08673 16.4969C9.12199 16.8293 9.14467 17.137 9.16657 17.434C9.2007 17.897 9.23292 18.3341 9.30791 18.799C9.35987 19.1212 9.39517 19.4499 9.39517 19.7947C9.39517 20.1152 9.13524 20.3752 8.81461 20.3752C8.49399 20.3752 8.23407 20.1152 8.23407 19.7947C8.23407 19.5296 8.20701 19.2653 8.16163 18.9839C8.08087 18.4832 8.03999 17.9431 8.00155 17.4352C7.97987 17.1487 7.95896 16.8725 7.9321 16.6194C7.83239 15.6791 7.7135 14.7375 7.59285 13.7925C7.57728 13.6705 7.55945 13.5434 7.5411 13.4127C7.48292 12.9979 7.41948 12.5457 7.40569 12.0973C7.39543 11.7637 7.39834 11.4211 7.40115 11.0925C7.4024 10.9447 7.40364 10.7998 7.40364 10.6599C7.40364 10.3392 7.66356 10.0793 7.98419 10.0793Z" fill="black"/>
<path fill-rule="evenodd" clip-rule="evenodd" d="M11.1782 9.91968C11.4988 9.91968 11.7587 10.1796 11.7587 10.5002C11.7587 12.5961 11.8106 14.6837 11.9942 16.7571C12.0819 17.746 12.0802 18.7341 12.0785 19.6959C12.0784 19.8252 12.0781 19.9539 12.0781 20.0822C12.0781 20.4028 11.8182 20.6627 11.4976 20.6627C11.177 20.6627 10.9171 20.4028 10.9171 20.0822C10.9171 19.9517 10.9173 19.8218 10.9175 19.6927C10.9189 18.7253 10.9204 17.7926 10.8377 16.8596C10.6498 14.7387 10.5977 12.6134 10.5977 10.5002C10.5977 10.1796 10.8576 9.91968 11.1782 9.91968Z" fill="black"/>
<path fill-rule="evenodd" clip-rule="evenodd" d="M14.2764 9.9516C14.597 9.9516 14.8569 10.2115 14.8569 10.5321C14.8569 11.1154 14.8628 11.705 14.8687 12.2986C14.8837 13.8189 14.899 15.3644 14.8171 16.8909C14.8119 16.9874 14.807 17.0854 14.8021 17.1844C14.7742 17.7468 14.7445 18.3458 14.6428 18.9413C14.5839 19.2865 14.5375 19.6438 14.5375 19.9543C14.5375 20.2749 14.2776 20.5349 13.957 20.5349C13.6363 20.5349 13.3764 20.2749 13.3764 19.9543C13.3764 19.5446 13.436 19.1107 13.4983 18.7459C13.5873 18.2246 13.6134 17.7044 13.6416 17.1402C13.6468 17.0378 13.652 16.9341 13.6576 16.8286C13.7374 15.3414 13.7227 13.8533 13.7078 12.3472C13.7018 11.7454 13.6958 11.1407 13.6958 10.5321C13.6958 10.2115 13.9557 9.9516 14.2764 9.9516Z" fill="black"/>
</svg>
