<svg width="24" height="24" viewBox="0 0 24 24" fill="none" xmlns="http://www.w3.org/2000/svg">
<g clip-path="url(#clip0_682_18668)">
<path d="M6.8073 4.28459C9.84201 4.15782 11.4592 4.15782 11.5226 4.15782C12.5 4.15782 14 4.22169 15.4116 4.22168C17.6835 4.22168 19.3566 4.15724 19.7048 4.48146C19.9142 4.67641 20.1719 4.96756 20.3122 5.20076C21.2414 6.7446 21.5084 8.86143 21.4944 10.6488C21.4844 11.9363 21.8322 14.9364 20.5 15.8755C20.2282 16.0671 19.4168 16.1785 18.4006 16.1785C16.7118 16.1785 15.5 15.8005 13.4424 17.6042C12.7093 18.2468 8.6905 21.3119 8.68863 21.2679C8.67422 20.9294 8.90883 20.5031 8.99402 19.7611C9.05836 19.2007 9.29973 17.5746 8.83268 16.6405C8.48347 15.942 6.99249 16.3319 6.35834 16.3384C4.95124 16.3529 2.98781 16.5322 2.12608 15.0885C1.88647 14.6871 1.72692 13.1493 1.7429 11.9799C1.76519 10.3476 1.36443 6.55147 2.40122 5.32369C2.65667 5.02118 4.06542 4.39912 6.8073 4.28459Z" stroke="#808080" stroke-width="1.4" stroke-linecap="round"/>
<path d="M20.5801 -0.299652C20.7369 -0.298137 20.9015 -0.290964 21.0684 -0.275238L21.3203 -0.244965L21.3486 -0.240082L21.3779 -0.234222L21.6094 -0.188324L21.6426 -0.182465L21.6758 -0.173676C22.0034 -0.0905473 22.45 0.0764792 22.8418 0.436676L23.0059 0.602692L23.0322 0.631989L23.0566 0.663239L23.166 0.80191L23.1904 0.83609C23.5346 1.33468 23.6288 1.87871 23.5928 2.3439L23.5908 2.37808L23.5859 2.41129L23.5723 2.51675L23.5693 2.54214L23.5645 2.56851C23.5432 2.69291 23.5141 2.80826 23.4814 2.91226L23.3779 3.18863L23.3633 3.22379L23.3467 3.25797L23.2334 3.48453L23.2207 3.50894L23.207 3.53336C23.1439 3.64733 23.0828 3.76733 23.0195 3.89664L22.7656 4.42984C22.7743 4.43767 22.7834 4.44518 22.792 4.45328L22.8848 4.54703L22.9307 4.59683L22.9717 4.65054L23.0488 4.75308L23.0879 4.80484L23.1211 4.8605C23.1421 4.89515 23.1612 4.93075 23.1797 4.96597H23.7197L23.3379 5.37125C23.3834 5.54308 23.4043 5.71522 23.4043 5.88101L23.3994 6.03043C23.3835 6.27298 23.3309 6.48768 23.2666 6.66812L23.1855 6.86832L23.1738 6.89371L23.1611 6.9191L23.1025 7.03433L23.0879 7.06168L23.0723 7.08902C22.996 7.22269 22.9158 7.33738 22.8467 7.42886L22.8301 7.45035L22.8135 7.47086L22.6729 7.64175L22.6484 7.67105L22.623 7.69937L22.416 7.923L22.4102 7.92886L22.4043 7.9357L22.3584 7.98257L22.2607 8.0939C22.1468 8.25467 22.0362 8.42639 21.9209 8.61246L21.5322 9.25894L21.5332 9.25992L21.5254 9.27359L21.5176 9.28629C21.3232 9.61769 21.102 9.99505 20.8555 10.3712L20.8496 10.381L20.8428 10.3908L20.6094 10.7336L20.6035 10.7423L20.3066 11.1691L20.3076 11.1701C19.9972 11.6251 19.5763 12.2493 19.0371 12.8L19.0117 12.8253L18.8145 13.0158L18.7529 13.0773L18.7539 13.0783L18.7041 13.131L18.7021 13.1339C18.6593 13.1792 18.5973 13.243 18.5215 13.3127L18.4902 13.341L18.458 13.3673L18.3018 13.4933L18.2676 13.5207L18.2324 13.5451C18.2285 13.5478 18.1581 13.5989 18.0732 13.6476L18.0303 13.672L17.9854 13.6935L17.9014 13.7336L17.8613 13.7521L17.8203 13.7687C17.6704 13.8281 17.1984 13.998 16.6152 13.8244H16.6133C16.1282 13.6789 15.8014 13.3688 15.6035 13.0685L15.3184 13.0461V12.3273C15.2876 12.1353 15.2907 11.9843 15.2949 11.9103L15.2988 11.8439L15.3096 11.7775L15.3184 11.7228V11.6828L15.3379 11.5949L15.4648 10.4211L15.5869 10.4318V10.4289L15.5879 10.4279L15.6865 10.0343C15.7144 9.91598 15.7369 9.80685 15.7559 9.7023L15.8262 9.2482L15.8467 9.10953L15.8486 9.09781L15.9023 8.75601L15.9043 8.74527L15.9053 8.7355C15.9285 8.60158 15.9566 8.45701 15.9912 8.30777L15.999 8.27457L16.0674 8.00699C15.9846 7.99482 15.7463 7.95774 15.4834 7.83316H15.4814C15.3114 7.75225 14.4004 7.27424 14.4004 6.12027V5.97574L14.415 5.68082C14.4431 5.3993 14.5052 5.16078 14.5537 4.99625L14.5586 4.97867L14.5645 4.96109L14.6621 4.66129L14.666 4.65054L14.7168 4.49918L14.7188 4.49234L14.8105 4.22379L14.8154 4.20914L14.8213 4.19547C14.9341 3.88885 15.0613 3.59462 15.1631 3.35953L15.3281 2.97476L15.3311 2.96695L15.4648 2.65933L15.4707 2.64761L15.4766 2.63492C15.6259 2.31041 15.7872 2.00372 15.9414 1.72379L16.0527 1.4982L16.0645 1.47281L16.0703 1.46109L16.0762 1.44839L16.1602 1.27652L16.168 1.25992L16.1777 1.24234C16.2281 1.14659 16.29 1.0385 16.3652 0.927887L16.3828 0.902496L16.4736 0.781403L16.4893 0.759918L16.5059 0.73941L16.6338 0.593903C16.7741 0.445822 16.9527 0.293458 17.1777 0.164215L17.2188 0.140778L17.2607 0.12027L17.3965 0.0548401L17.4385 0.0353088L17.4805 0.0177307L17.7188 -0.0623474C17.9553 -0.128322 18.1885 -0.154144 18.4082 -0.154144L18.6211 -0.164886C18.7185 -0.172653 18.8459 -0.184581 19.0137 -0.201019L19.0195 -0.201996L19.5312 -0.249847L19.541 -0.250824L20.0576 -0.286957H20.0664L20.0742 -0.287933L20.3281 -0.297699H20.3398L20.3516 -0.298676L20.5801 -0.299652ZM20.124 1.01089C19.9668 1.01888 19.8076 1.0307 19.6523 1.0441L19.1406 1.09195C18.8295 1.12242 18.5827 1.14566 18.4082 1.14566C18.2508 1.14566 18.1005 1.1703 17.9609 1.22574L17.8252 1.29117C17.6944 1.36628 17.5935 1.46284 17.5137 1.5607L17.4404 1.65836C17.3982 1.72044 17.3606 1.7851 17.3281 1.84683L17.2441 2.01871L17.2197 2.07144L17.1064 2.30191C16.9517 2.58125 16.7967 2.87467 16.6572 3.17789L16.5234 3.4855L16.3564 3.87613C16.2519 4.11766 16.139 4.37746 16.041 4.64371L15.9492 4.91226L15.8984 5.06363L15.8008 5.36343C15.7505 5.53403 15.7003 5.7478 15.7002 5.97574V6.12027C15.7002 6.4776 15.9755 6.6276 16.04 6.65836C16.1303 6.70115 16.2186 6.71568 16.2607 6.72183L16.3877 6.73453L16.4072 6.7355C16.4123 6.73581 16.4166 6.73616 16.4219 6.73648C16.424 6.73663 16.4257 6.73545 16.4268 6.7355C16.6154 6.75951 16.8216 6.75315 16.9707 6.7482C17.0345 6.74608 17.0871 6.7443 17.1318 6.74429C17.1867 6.74429 17.2455 6.74223 17.3008 6.74039L17.4854 6.73648L17.6631 6.74332C17.6757 6.88736 17.6665 7.03938 17.6377 7.20523L17.585 7.44839L17.4385 7.95621L17.4277 7.99234C17.3988 8.0868 17.368 8.18625 17.3389 8.28824L17.2578 8.60074C17.2301 8.72023 17.2068 8.84029 17.1865 8.95718L17.1328 9.29898L17.1123 9.43765L17.0352 9.93472C17.0111 10.0672 16.9826 10.199 16.9512 10.3322L16.8486 10.7423L16.7578 11.1076C16.7069 11.3181 16.6516 11.5571 16.6221 11.8078L16.6182 11.8253V11.8273L16.5928 11.9845C16.5907 12.0208 16.5882 12.114 16.624 12.2209L16.6689 12.3224C16.728 12.4263 16.8301 12.5314 16.9863 12.5783C17.153 12.6279 17.2901 12.5802 17.3418 12.5597L17.4258 12.5197C17.4497 12.5059 17.4696 12.4917 17.4854 12.4806L17.6416 12.3546C17.6868 12.3131 17.7261 12.2729 17.7588 12.2384L17.8086 12.1857L17.9111 12.0802L18.1084 11.8898C18.5539 11.4347 18.9124 10.9072 19.2334 10.4367L19.5352 10.0011L19.7686 9.65836C19.9945 9.31366 20.1995 8.96389 20.3965 8.62808L20.4111 8.60172L20.8154 7.92691C20.9507 7.70859 21.0891 7.49597 21.2373 7.29019L21.4053 7.09879L21.4619 7.03922L21.6689 6.81558L21.8096 6.64468C21.8565 6.58254 21.9029 6.51546 21.9434 6.44449L22.002 6.32925C22.0585 6.20482 22.1045 6.05285 22.1045 5.88101C22.1044 5.76282 22.0747 5.64139 22.0098 5.53433L21.9326 5.43179C21.8536 5.34689 21.7652 5.2991 21.6953 5.27164L21.6328 5.25015C21.5742 5.23319 21.5133 5.22454 21.4619 5.21988L21.3467 5.21402H21.333L21.0664 5.19254C21.0128 5.18712 20.9524 5.18029 20.8877 5.17593C20.9175 5.12901 20.9453 5.08535 20.9697 5.048L21.0322 4.95035L21.1865 4.68277C21.3342 4.4145 21.4631 4.14487 21.584 3.88785L21.8516 3.32437C21.9219 3.18072 21.9939 3.04037 22.0703 2.9025L22.1836 2.67593C22.2242 2.58116 22.2626 2.46928 22.2832 2.34879L22.2969 2.24332C22.3135 2.0285 22.2699 1.79135 22.1201 1.57437L22.0361 1.46793C21.848 1.25709 21.5949 1.1466 21.3564 1.08609L21.125 1.04019C20.89 1.00456 20.6328 0.995945 20.3779 1.00113L20.124 1.01089ZM16.8838 11.8605C16.8128 11.8566 16.7608 11.8538 16.7227 11.8517L16.6475 11.8341L16.8838 11.8605ZM16.6406 11.8332L16.7197 11.8517C16.6239 11.8465 16.6185 11.8469 16.6182 11.8468V11.84C16.6184 11.8377 16.6188 11.8341 16.6191 11.8312L16.6406 11.8332ZM17.8945 11.6789C17.8457 11.7288 17.7952 11.7776 17.7441 11.8253C17.7968 11.7761 17.8479 11.7253 17.8984 11.674L17.8945 11.6789ZM18.0713 11.4904C18.0155 11.5531 17.9574 11.6141 17.8984 11.674L18.0713 11.4904ZM17.7715 11.1154C17.7556 11.1335 17.7388 11.1512 17.7227 11.1691C17.7901 11.0947 17.8563 11.0187 17.9199 10.9406L17.7715 11.1154ZM17.2422 10.4015C17.2322 10.444 17.2214 10.4868 17.2109 10.5294C17.2255 10.4702 17.2382 10.4108 17.252 10.3517L17.2422 10.4015ZM17.3301 9.98843C17.3079 10.1105 17.2801 10.2311 17.252 10.3517L17.3301 9.98843ZM20.4014 2.09683C20.6194 2.09251 20.813 2.09998 20.9727 2.12418L21.1123 2.1525C21.151 2.16256 21.1824 2.17358 21.207 2.18375C21.2171 2.18792 21.2253 2.19288 21.2324 2.19644C21.2292 2.20513 21.2273 2.21597 21.2227 2.22672L21.1572 2.35464C21.0706 2.51106 20.9898 2.66974 20.9131 2.82632L20.6934 3.28726L20.6377 3.4064C20.4774 3.74713 20.3237 4.06517 20.1416 4.36539C20.1406 4.36696 20.1386 4.36931 20.1367 4.37222C20.1326 4.37855 20.1269 4.38727 20.1201 4.39761L19.9893 4.60269L19.8203 4.88785C19.7722 4.97599 19.7166 5.0866 19.6738 5.20035L19.6357 5.31558C19.6163 5.38643 19.5875 5.51676 19.6104 5.66422L19.6455 5.79898C19.6638 5.84697 19.6898 5.89766 19.7256 5.94644L19.7852 6.01578C19.8491 6.0797 19.9244 6.12545 20.002 6.15347L20.1855 6.20914C20.3671 6.25339 20.5422 6.26578 20.7119 6.26578H20.7148L20.6543 6.33023C20.6136 6.37315 20.568 6.42089 20.5234 6.47183L20.3945 6.63297C20.2289 6.86289 20.0752 7.09842 19.9297 7.33316L19.5127 8.03043L19.5117 8.0314L19.502 8.04898C19.3009 8.39169 19.1074 8.72118 18.9004 9.03726L18.6875 9.34879L18.3545 9.83023C18.2481 9.98596 18.1431 10.137 18.0391 10.2834C18.0489 10.235 18.0615 10.1863 18.0703 10.1378L18.1553 9.5939L18.1738 9.46402L18.2227 9.15152C18.24 9.05125 18.2592 8.95367 18.2812 8.85855L18.3486 8.60074C18.3738 8.51265 18.4023 8.42108 18.4316 8.32535L18.5254 8.01285C18.5529 7.91882 18.5802 7.82197 18.6045 7.72476L18.6748 7.39664C18.7237 7.1133 18.7432 6.80561 18.6934 6.48355L18.6553 6.28824C18.5997 6.05981 18.4601 5.91566 18.3281 5.82828L18.2021 5.75894C18.1247 5.724 18.0445 5.69931 17.9678 5.68277L17.7539 5.65152C17.661 5.64314 17.5626 5.64058 17.4717 5.64078L17.2334 5.64566C17.1854 5.64723 17.1529 5.64859 17.1318 5.64859L16.8926 5.65347C16.8662 5.65439 16.841 5.65377 16.8174 5.65445C16.8382 5.58646 16.8599 5.52396 16.8838 5.45425L16.9492 5.25699L17.0254 5.03336C17.1069 4.81161 17.2032 4.59117 17.3057 4.35464L17.4922 3.91617L17.6074 3.65054C17.7297 3.38487 17.8703 3.1181 18.0195 2.84879L18.1709 2.54312L18.1924 2.49722L18.2529 2.37222C18.2701 2.33936 18.2853 2.31348 18.2998 2.29214L18.3281 2.25699C18.3323 2.25292 18.3345 2.25137 18.335 2.25113L18.3467 2.24722C18.3566 2.2448 18.3763 2.24136 18.4082 2.24136C18.6426 2.24136 18.9433 2.21176 19.2393 2.18277L19.3008 2.17691L19.7383 2.13589C19.8849 2.12322 20.0319 2.11195 20.1758 2.10464L20.4014 2.09683ZM17.9648 6.75015C17.9652 6.7552 17.9645 6.76072 17.9648 6.76578C17.9621 6.71922 17.9589 6.67237 17.9521 6.62613L17.9648 6.75015ZM21.6709 5.59781L21.7129 5.63589C21.6919 5.61341 21.6687 5.59697 21.6465 5.58316C21.6543 5.58807 21.6631 5.59193 21.6709 5.59781ZM21.627 5.57047C21.6335 5.57404 21.6398 5.57899 21.6465 5.58316C21.6371 5.57726 21.6283 5.57122 21.6191 5.56656L21.627 5.57047ZM21.5488 5.53824C21.5691 5.5441 21.5933 5.55346 21.6191 5.56656L21.5488 5.53824ZM19.9033 5.51871C19.9038 5.51093 19.9034 5.50278 19.9043 5.49527L19.9248 5.39468C19.9156 5.42817 19.9067 5.47146 19.9033 5.51871ZM19.0996 3.58804C19.0988 3.58908 19.0961 3.59235 19.0928 3.59683C19.0921 3.59811 19.0915 3.59946 19.0908 3.60074C19.0949 3.59519 19.0981 3.59011 19.0996 3.58804ZM20.1602 1.80582C19.8641 1.82085 19.5589 1.85083 19.2715 1.87906C19.4153 1.86493 19.5636 1.84997 19.7129 1.83707L20.1602 1.80582ZM21.6611 1.53726C21.6702 1.5433 21.6787 1.55042 21.6875 1.55679C21.6516 1.53064 21.6139 1.5063 21.5742 1.4855L21.6611 1.53726Z" fill="white"/>
<path fill-rule="evenodd" clip-rule="evenodd" d="M19.2102 1.88514C18.9098 1.91457 18.6249 1.94149 18.4082 1.94149C18.3025 1.94149 18.2339 1.96344 18.1856 1.99121C18.1369 2.01914 18.0947 2.06099 18.0522 2.12346C18.0078 2.18871 17.9679 2.26885 17.9201 2.37143C17.9132 2.38635 17.9061 2.40177 17.8987 2.41762C17.8582 2.50531 17.8116 2.60597 17.7571 2.70432C17.5561 3.06727 17.3665 3.43242 17.2143 3.80275C17.1531 3.95159 17.0909 4.09507 17.0299 4.23592C16.8941 4.54929 16.764 4.84958 16.6632 5.1665C16.641 5.2363 16.6199 5.29766 16.5996 5.35698C16.5722 5.43689 16.546 5.51306 16.5201 5.60098C16.4827 5.72764 16.4588 5.84027 16.4543 5.94155C16.4595 5.94187 16.4646 5.94218 16.4687 5.94246C16.4792 5.94312 16.4946 5.94422 16.5092 5.94619C16.6364 5.96351 16.7618 5.95915 16.9028 5.95424C16.9744 5.95177 17.0501 5.94913 17.132 5.94913C17.1592 5.94913 17.1976 5.94788 17.2433 5.94638C17.3732 5.94218 17.5628 5.93601 17.7273 5.9509C17.8417 5.96127 17.9688 5.98284 18.0788 6.0325C18.188 6.08184 18.3196 6.17809 18.3635 6.35951C18.4741 6.81562 18.4136 7.25165 18.3137 7.65221C18.2672 7.83819 18.2106 8.02271 18.1564 8.19915C18.1524 8.21219 18.1484 8.22515 18.1444 8.23812C18.0859 8.42908 18.031 8.61094 17.9892 8.79118C17.942 8.99464 17.9088 9.20356 17.877 9.42101C17.8707 9.4643 17.8644 9.50811 17.8581 9.55226C17.8331 9.72677 17.8072 9.90709 17.7749 10.0851C17.721 10.382 17.645 10.6809 17.572 10.9685C17.5429 11.0828 17.5144 11.1953 17.4878 11.3052C17.4763 11.3525 17.4652 11.3992 17.4546 11.4454C17.9012 11.0264 18.2468 10.5204 18.6025 9.99953C18.7104 9.84148 18.8193 9.68206 18.9322 9.52331C19.2327 9.10075 19.4935 8.65631 19.7605 8.20111L19.7711 8.18312C20.0401 7.72469 20.3159 7.25566 20.6378 6.80875C20.7044 6.71627 20.7903 6.62284 20.872 6.53661C20.8935 6.51387 20.9148 6.49151 20.9359 6.46943C20.9988 6.40359 21.0597 6.33991 21.1177 6.27411C21.1948 6.18666 21.2563 6.10702 21.2979 6.03411C21.3028 6.02562 21.3072 6.01745 21.3112 6.00963C21.2096 6.00665 21.1109 5.99655 21.0208 5.98736C21.0119 5.98646 21.0031 5.98559 20.9944 5.98469C20.8943 5.97455 20.8034 5.96622 20.7115 5.96622C20.5061 5.96622 20.3086 5.94564 20.1034 5.87155C20.0531 5.8534 20.0048 5.82012 19.9673 5.76909C19.9309 5.71943 19.9137 5.66518 19.9064 5.61866C19.8931 5.53298 19.9097 5.45123 19.9251 5.39525C19.9575 5.27747 20.0219 5.14569 20.084 5.03183C20.183 4.85042 20.3142 4.64997 20.3712 4.56287C20.385 4.54176 20.3944 4.52731 20.398 4.5214C20.5894 4.20593 20.749 3.87598 20.9097 3.53435C20.9282 3.49493 20.9468 3.45531 20.9654 3.41554C21.1069 3.1139 21.2525 2.80325 21.4201 2.50071C21.4801 2.39244 21.5269 2.29572 21.5419 2.20753C21.554 2.13703 21.546 2.07932 21.4878 2.01405C21.4188 1.93656 21.2701 1.86664 21.0179 1.82837C20.7752 1.79154 20.4785 1.78973 20.1601 1.8059C19.864 1.82094 19.5587 1.85092 19.2711 1.87916C19.2507 1.88117 19.2304 1.88316 19.2102 1.88514Z" fill="#FEE77B"/>
<path fill-rule="evenodd" clip-rule="evenodd" d="M20.3779 1.00154C20.6329 0.996352 20.89 1.00496 21.125 1.0406L21.3564 1.0865C21.595 1.14703 21.8479 1.25735 22.0361 1.46833L22.1201 1.57478C22.27 1.7919 22.3136 2.0288 22.2969 2.24372L22.2832 2.34919C22.2626 2.46984 22.2243 2.58149 22.1836 2.67634L22.0703 2.9029C21.9939 3.04088 21.922 3.18102 21.8516 3.32478L21.584 3.88826C21.463 4.14538 21.3343 4.4148 21.1865 4.68318L21.0322 4.95076L20.9697 5.04841C20.9453 5.08583 20.9175 5.12931 20.8877 5.17634C20.9524 5.1807 21.0128 5.18753 21.0664 5.19294L21.333 5.21443H21.3467L21.4619 5.22029C21.5133 5.22495 21.5742 5.23358 21.6328 5.25056L21.6953 5.27204C21.7652 5.29953 21.8535 5.34716 21.9326 5.4322L22.0098 5.53474C22.0748 5.64192 22.1045 5.7631 22.1045 5.88142C22.1045 6.05341 22.0586 6.20516 22.002 6.32966L21.9434 6.4449C21.9028 6.51597 21.8566 6.58288 21.8096 6.64509L21.6689 6.81599L21.4619 7.03962L21.4053 7.09919L21.2373 7.2906C21.089 7.49647 20.9508 7.70889 20.8154 7.92732L20.4111 8.60212L20.3965 8.62849C20.1994 8.96439 19.9945 9.31398 19.7686 9.65876L19.5352 10.0015L19.2334 10.4371C18.9124 10.9077 18.554 11.435 18.1084 11.8902L17.9111 12.0806L17.8086 12.1861L17.7588 12.2388C17.7261 12.2733 17.6868 12.3135 17.6416 12.3551L17.4854 12.481C17.4696 12.4921 17.4498 12.5063 17.4258 12.5201L17.3418 12.5601C17.2901 12.5806 17.153 12.6283 16.9863 12.5787C16.83 12.5318 16.728 12.4267 16.6689 12.3228L16.624 12.2213C16.5881 12.1143 16.5907 12.0212 16.5928 11.9849L16.6182 11.8277V11.8258L16.6221 11.8082C16.6516 11.5574 16.7069 11.3186 16.7578 11.108L16.8486 10.7427L16.9512 10.3326C16.9826 10.1993 17.0111 10.0678 17.0352 9.93513L17.1123 9.43806L17.1328 9.29939L17.1865 8.95759C17.2068 8.84057 17.2301 8.72077 17.2578 8.60115L17.3389 8.28865C17.368 8.18653 17.3987 8.08733 17.4277 7.99275L17.4385 7.95661L17.585 7.4488L17.6377 7.20564C17.6665 7.03963 17.6757 6.88789 17.6631 6.74372L17.4854 6.73689L17.3008 6.74079C17.2455 6.74264 17.1867 6.7447 17.1318 6.7447C17.0871 6.7447 17.0345 6.74648 16.9707 6.74861C16.8216 6.75356 16.6154 6.75992 16.4268 6.73591C16.4257 6.73584 16.4241 6.73704 16.4219 6.73689C16.4166 6.73656 16.4123 6.73622 16.4072 6.73591L16.3877 6.73494L16.2607 6.72224C16.2186 6.71609 16.1304 6.70158 16.04 6.65876C15.9757 6.62818 15.7002 6.4783 15.7002 6.12068V5.97615C15.7002 5.74806 15.7504 5.53454 15.8008 5.36384L15.8984 5.06404L15.9492 4.91267L16.041 4.64411C16.139 4.37774 16.2518 4.11818 16.3564 3.87654L16.5234 3.48591L16.6572 3.17829C16.7968 2.87496 16.9516 2.58177 17.1064 2.30232L17.2197 2.07185L17.2441 2.01911L17.3281 1.84724C17.3606 1.78541 17.3981 1.72096 17.4404 1.65876L17.5137 1.56111C17.5935 1.46316 17.6942 1.36675 17.8252 1.29158L17.9609 1.22615C18.1005 1.17067 18.2507 1.14607 18.4082 1.14607C18.5827 1.14607 18.8295 1.12283 19.1406 1.09236L19.6523 1.04451C19.8076 1.03111 19.9668 1.01929 20.124 1.0113L20.3779 1.00154ZM16.7227 11.8521C16.7608 11.8542 16.8128 11.857 16.8838 11.8609L16.6475 11.8345L16.7227 11.8521ZM16.6182 11.8404V11.8472C16.6185 11.8473 16.6238 11.8469 16.7197 11.8521L16.6406 11.8336L16.6191 11.8316C16.6188 11.8347 16.6184 11.8381 16.6182 11.8404ZM17.8945 11.6793C17.8456 11.7293 17.7953 11.7779 17.7441 11.8258C17.8582 11.7189 17.9675 11.6073 18.0713 11.4908L17.8945 11.6793ZM17.7715 11.1158C17.6708 11.2301 17.5656 11.3403 17.4541 11.4449C17.6216 11.2878 17.775 11.1187 17.9199 10.941L17.7715 11.1158ZM17.2422 10.4019C17.2321 10.4446 17.2214 10.4871 17.2109 10.5299C17.2552 10.3494 17.297 10.1707 17.3301 9.98884L17.2422 10.4019ZM20.1758 2.10505C20.0319 2.11236 19.8849 2.12362 19.7383 2.1363L19.3008 2.17732L19.2393 2.18318C18.9433 2.21217 18.6426 2.24177 18.4082 2.24177C18.3762 2.24177 18.3566 2.2452 18.3467 2.24763L18.335 2.25154C18.3345 2.25179 18.3324 2.25317 18.3281 2.2574L18.2998 2.29255C18.2853 2.31395 18.2702 2.33962 18.2529 2.37263L18.1924 2.49763L18.1709 2.54353L18.0195 2.84919C17.8703 3.11862 17.7297 3.38516 17.6074 3.65095L17.4922 3.91658L17.3057 4.35505C17.2031 4.5917 17.1069 4.81189 17.0254 5.03376L16.9492 5.2574L16.8838 5.45466C16.8598 5.52449 16.8382 5.58673 16.8174 5.65486C16.841 5.65417 16.8662 5.6548 16.8926 5.65388L17.1318 5.649C17.1529 5.649 17.1854 5.64763 17.2334 5.64607L17.4717 5.64119C17.5626 5.64099 17.661 5.64355 17.7539 5.65193L17.9678 5.68318C18.0445 5.69973 18.1247 5.72437 18.2021 5.75935L18.3281 5.82869C18.4602 5.91612 18.5998 6.05999 18.6553 6.28865L18.6934 6.48396C18.7432 6.80617 18.7238 7.1136 18.6748 7.39704L18.6045 7.72517C18.5802 7.82251 18.5529 7.91911 18.5254 8.01326L18.4316 8.32576C18.4022 8.42163 18.3739 8.51294 18.3486 8.60115L18.2812 8.85896C18.2592 8.9542 18.2401 9.05152 18.2227 9.15193L18.1738 9.46443L18.1553 9.59431L18.0703 10.1383C18.0615 10.1868 18.0489 10.2353 18.0391 10.2838C18.1432 10.1373 18.2481 9.98647 18.3545 9.83064L18.6875 9.34919L18.9004 9.03767C19.1075 8.7215 19.3008 8.3922 19.502 8.04939L19.5117 8.03181L19.5127 8.03083L19.9297 7.33357C20.0753 7.09873 20.2289 6.86339 20.3945 6.63337L20.5234 6.47224C20.5681 6.42121 20.6136 6.37363 20.6543 6.33064L20.7148 6.26619H20.7119C20.5422 6.26619 20.3671 6.2538 20.1855 6.20954L20.002 6.15388C19.9243 6.12586 19.8491 6.08014 19.7852 6.01619L19.7256 5.94685C19.6897 5.89799 19.6638 5.84747 19.6455 5.79939L19.6104 5.66462C19.5874 5.517 19.6162 5.3869 19.6357 5.31599L19.6738 5.20076C19.7166 5.08689 19.7722 4.97649 19.8203 4.88826L19.9893 4.6031L20.1201 4.39802C20.127 4.38755 20.1326 4.37902 20.1367 4.37263C20.1387 4.36957 20.1406 4.36742 20.1416 4.36579C20.3237 4.06549 20.4774 3.74765 20.6377 3.40681L20.6934 3.28767L20.9131 2.82673C20.9898 2.67004 21.0705 2.51158 21.1572 2.35505L21.2227 2.22712C21.2274 2.21625 21.2292 2.20563 21.2324 2.19685C21.2253 2.19328 21.2172 2.18835 21.207 2.18415C21.1824 2.17397 21.151 2.16299 21.1123 2.1529L20.9727 2.12458C20.813 2.10038 20.6195 2.09292 20.4014 2.09724L20.1758 2.10505ZM17.4297 9.34236C17.4229 9.38854 17.4157 9.43477 17.4092 9.48005L17.4297 9.34236ZM20.6377 6.80818C20.671 6.762 20.7091 6.71612 20.749 6.67048L20.6377 6.80818ZM17.9648 6.75056C17.976 6.91611 17.9627 7.08407 17.9326 7.2574C17.9703 7.04061 17.9821 6.83233 17.9521 6.62654L17.9648 6.75056ZM17.8164 6.46345C17.8525 6.47125 17.8823 6.48045 17.9053 6.49079L17.8164 6.46345C17.7803 6.45567 17.7382 6.44929 17.6895 6.4449L17.8164 6.46345ZM20.5586 5.96247C20.6094 5.96559 20.6604 5.96638 20.7119 5.96638L20.5586 5.96247C20.508 5.95938 20.4576 5.95406 20.4072 5.94685L20.5586 5.96247ZM21.7812 5.74958C21.7889 5.7704 21.795 5.79189 21.7988 5.81404L21.7812 5.74958C21.7736 5.72875 21.7644 5.709 21.7529 5.69001L21.7812 5.74958ZM21.627 5.57087C21.6554 5.58633 21.6856 5.60691 21.7129 5.6363L21.6709 5.59822C21.6274 5.56534 21.5823 5.54833 21.5488 5.53865L21.627 5.57087ZM19.9043 5.49568C19.9034 5.50331 19.9039 5.5112 19.9033 5.51911C19.9067 5.47171 19.9156 5.42867 19.9248 5.39509L19.9043 5.49568ZM16.833 4.69978C16.802 4.77659 16.7726 4.85373 16.7441 4.93122L16.833 4.69978C16.8952 4.54601 16.9624 4.39249 17.0303 4.23591L16.833 4.69978ZM20.9238 4.53865C20.8765 4.62462 20.8279 4.71057 20.7764 4.79548L20.9238 4.53865C20.9712 4.45239 21.0174 4.36559 21.0615 4.27888L20.9238 4.53865ZM21.1875 1.86286C21.2381 1.87599 21.2825 1.89086 21.3213 1.90681L21.1875 1.86286C21.1369 1.84967 21.0808 1.83828 21.0176 1.82869L21.1875 1.86286ZM19.7129 1.83747C19.5635 1.85038 19.4153 1.86534 19.2715 1.87947C19.5589 1.85124 19.8641 1.82126 20.1602 1.80622L19.7129 1.83747ZM21.6611 1.53767C21.7167 1.57484 21.7677 1.61826 21.8125 1.66853C21.7452 1.59317 21.6639 1.53291 21.5742 1.48591L21.6611 1.53767Z" fill="#808080"/>
<path d="M6 10.2579C6 10.3294 6.03574 10.4735 6.17926 10.6896C6.3778 10.9885 6.75714 11.0519 6.95536 11.0524C7.17143 11.053 7.26298 10.4778 7.2998 10.0083C7.26514 9.86042 7.12216 9.89616 6.99489 9.93245C6.86762 9.96874 6.76039 10.0045 6.43327 9.93299" stroke="#808080" stroke-width="1.3" stroke-linecap="round"/>
<path d="M9.51582 10.1171C9.51582 10.1886 9.55157 10.3684 9.64147 10.6386C9.72545 10.8911 9.94801 11.0194 10.182 11.0914C10.4488 11.1735 10.742 11.2003 10.9586 11.093C11.0752 11.0353 11.0323 10.7713 10.9786 10.6251C10.8178 10.4074 10.6001 10.2622 10.384 10.1182C10.2751 10.0456 10.1679 9.97411 10.0574 9.90046" stroke="#808080" stroke-width="1.3" stroke-linecap="round"/>
<path d="M13.2829 9.90046C13.2471 10.1518 13.2103 10.5493 13.3359 10.7475C13.6348 11.2189 14.2198 11.0919 14.4906 11.0205C14.6033 10.9907 14.5827 10.806 14.5469 10.6787C14.4397 10.4442 14.2946 10.2265 14.1326 10.0461C14.0422 9.97303 13.9349 9.93729 13.8245 9.90046" stroke="#808080" stroke-width="1.3" stroke-linecap="round"/>
</g>
<defs>
<clipPath id="clip0_682_18668">
<rect width="24" height="24" fill="white"/>
</clipPath>
</defs>
</svg>
