<svg width="24" height="24" viewBox="0 0 24 24" fill="none" xmlns="http://www.w3.org/2000/svg">
<mask id="path-1-inside-1_714_546" fill="white">
<path d="M14.625 6C9.26431 6 6.75 8.25 6.75 12.1875C6.75 15.9469 9.04197 18.1662 13.9149 18.3594C14.2369 18.3722 14.54 18.514 14.7629 18.7468C15.5957 19.6165 16.7365 20.4868 18.1641 20.8379C18.8456 21.0055 19.3843 20.3644 19.2588 19.6738L19.0674 18.6185C18.971 18.0873 19.2723 17.5731 19.7447 17.3119C21.6048 16.2837 22.5 14.5364 22.5 12.1875C22.5 8.25 19.9857 6 14.625 6Z"/>
</mask>
<path d="M14.625 6C9.26431 6 6.75 8.25 6.75 12.1875C6.75 15.9469 9.04197 18.1662 13.9149 18.3594C14.2369 18.3722 14.54 18.514 14.7629 18.7468C15.5957 19.6165 16.7365 20.4868 18.1641 20.8379C18.8456 21.0055 19.3843 20.3644 19.2588 19.6738L19.0674 18.6185C18.971 18.0873 19.2723 17.5731 19.7447 17.3119C21.6048 16.2837 22.5 14.5364 22.5 12.1875C22.5 8.25 19.9857 6 14.625 6Z" fill="#FFF4D9"/>
<path d="M14.625 6V4.875V6ZM18.1641 20.8379L17.8954 21.9303L17.8954 21.9303L18.1641 20.8379ZM19.2588 19.6738L18.1519 19.875L18.1518 19.8746L19.2588 19.6738ZM19.0674 18.6185L20.1743 18.4177L19.0674 18.6185ZM19.7447 17.3119L20.289 18.2965L19.7447 17.3119ZM13.9149 18.3594L13.8703 19.4835L13.9149 18.3594ZM14.7629 18.7468L15.5755 17.9688L14.7629 18.7468ZM14.625 6V7.125C12.0761 7.125 10.4044 7.66377 9.38646 8.49047C8.41028 9.28327 7.875 10.4728 7.875 12.1875H6.75H5.625C5.625 9.9647 6.34688 8.06048 7.96802 6.7439C9.54741 5.46123 11.8132 4.875 14.625 4.875V6ZM6.75 12.1875H7.875C7.875 13.8281 8.36584 14.9832 9.25177 15.7693C10.1672 16.5816 11.666 17.1444 13.9594 17.2353L13.9149 18.3594L13.8703 19.4835C11.2908 19.3813 9.20721 18.7378 7.75843 17.4523C6.28014 16.1405 5.625 14.3063 5.625 12.1875H6.75ZM14.7629 18.7468L15.5755 17.9688C16.3237 18.7502 17.2865 19.4635 18.4328 19.7455L18.1641 20.8379L17.8954 21.9303C16.1866 21.51 14.8676 20.4828 13.9503 19.5248L14.7629 18.7468ZM18.1641 20.8379L18.4327 19.7454C18.402 19.7379 18.3489 19.7355 18.2899 19.7548C18.2349 19.7728 18.1991 19.8016 18.1799 19.8229C18.1457 19.8606 18.1533 19.8824 18.1519 19.875L19.2588 19.6738L20.3657 19.4726C20.4898 20.1558 20.2908 20.8434 19.8483 21.3325C19.3899 21.839 18.6707 22.121 17.8954 21.9303L18.1641 20.8379ZM19.2588 19.6738L18.1518 19.8746L17.9604 18.8192L19.0674 18.6185L20.1743 18.4177L20.3657 19.4731L19.2588 19.6738ZM19.7447 17.3119L19.2005 16.3273C20.6369 15.5333 21.375 14.2076 21.375 12.1875H22.5H23.625C23.625 14.8652 22.5728 17.0341 20.289 18.2965L19.7447 17.3119ZM22.5 12.1875H21.375C21.375 10.4728 20.8397 9.28327 19.8635 8.49047C18.8456 7.66377 17.1739 7.125 14.625 7.125V6V4.875C17.4368 4.875 19.7026 5.46123 21.282 6.7439C22.9031 8.06048 23.625 9.9647 23.625 12.1875H22.5ZM19.0674 18.6185L17.9604 18.8192C17.7621 17.7256 18.3891 16.7758 19.2005 16.3273L19.7447 17.3119L20.289 18.2965C20.2343 18.3267 20.1996 18.367 20.1837 18.3965C20.1765 18.4099 20.1748 18.4179 20.1745 18.4196C20.1744 18.4205 20.1744 18.4204 20.1744 18.4195C20.1744 18.4191 20.1744 18.4187 20.1744 18.4183C20.1744 18.4179 20.1743 18.4177 20.1743 18.4177L19.0674 18.6185ZM13.9149 18.3594L13.9594 17.2353C14.5847 17.2601 15.1596 17.5345 15.5755 17.9688L14.7629 18.7468L13.9503 19.5248C13.9204 19.4936 13.889 19.4843 13.8703 19.4835L13.9149 18.3594Z" fill="black" mask="url(#path-1-inside-1_714_546)"/>
<mask id="path-3-inside-2_714_546" fill="white">
<path d="M9.9375 3C15.6811 3 18.375 5.45455 18.375 9.75C18.375 14.0455 15.6811 16.5 9.9375 16.5C9.71099 16.5 9.49571 16.5952 9.3416 16.7612C8.50078 17.6668 7.32404 18.5969 5.83594 18.9629C5.15438 19.1305 4.61569 18.4894 4.74121 17.7988L4.96706 16.5546C5.06065 16.0391 4.77926 15.5366 4.32839 15.2697C2.41931 14.1392 1.5 12.2589 1.5 9.75C1.5 5.45455 4.1939 3 9.9375 3Z"/>
</mask>
<path d="M9.9375 3C15.6811 3 18.375 5.45455 18.375 9.75C18.375 14.0455 15.6811 16.5 9.9375 16.5C9.71099 16.5 9.49571 16.5952 9.3416 16.7612C8.50078 17.6668 7.32404 18.5969 5.83594 18.9629C5.15438 19.1305 4.61569 18.4894 4.74121 17.7988L4.96706 16.5546C5.06065 16.0391 4.77926 15.5366 4.32839 15.2697C2.41931 14.1392 1.5 12.2589 1.5 9.75C1.5 5.45455 4.1939 3 9.9375 3Z" fill="#0FA958"/>
<path d="M5.83594 18.9629L6.10462 20.0553L6.10464 20.0553L5.83594 18.9629ZM4.74121 17.7988L5.84807 18L5.84812 17.9998L4.74121 17.7988ZM9.3416 16.7612L8.51717 15.9958L9.3416 16.7612ZM9.9375 3V4.125C12.674 4.125 14.4831 4.71328 15.5932 5.63119C16.6651 6.51753 17.25 7.8494 17.25 9.75H18.375H19.5C19.5 7.35514 18.738 5.31201 17.027 3.89722C15.3542 2.514 12.9446 1.875 9.9375 1.875V3ZM18.375 9.75H17.25C17.25 11.6506 16.6651 12.9825 15.5932 13.8688C14.4831 14.7867 12.674 15.375 9.9375 15.375V16.5V17.625C12.9446 17.625 15.3542 16.986 17.027 15.6028C18.738 14.188 19.5 12.1449 19.5 9.75H18.375ZM9.3416 16.7612L8.51717 15.9958C7.7584 16.813 6.76298 17.5763 5.56723 17.8705L5.83594 18.9629L6.10464 20.0553C7.8851 19.6174 9.24317 18.5207 10.166 17.5267L9.3416 16.7612ZM5.83594 18.9629L5.56726 17.8704C5.59799 17.8629 5.65112 17.8605 5.71009 17.8798C5.7651 17.8978 5.8009 17.9266 5.82012 17.9479C5.85431 17.9856 5.84673 18.0074 5.84807 18L4.74121 17.7988L3.63435 17.5976C3.51018 18.2808 3.70918 18.9684 4.15172 19.4575C4.61007 19.964 5.32931 20.246 6.10462 20.0553L5.83594 18.9629ZM4.74121 17.7988L5.84812 17.9998L6.07397 16.7556L4.96706 16.5546L3.86015 16.3537L3.6343 17.5979L4.74121 17.7988ZM4.32839 15.2697L4.90159 14.3016C3.40459 13.4152 2.625 11.9502 2.625 9.75H1.5H0.375C0.375 12.5677 1.43404 14.8633 3.7552 16.2377L4.32839 15.2697ZM1.5 9.75H2.625C2.625 7.8494 3.20992 6.51753 4.28181 5.63119C5.39188 4.71328 7.20098 4.125 9.9375 4.125V3V1.875C6.93042 1.875 4.52077 2.514 2.84799 3.89722C1.13703 5.31201 0.375 7.35514 0.375 9.75H1.5ZM4.96706 16.5546L6.07397 16.7556C6.26643 15.6954 5.68082 14.763 4.90159 14.3016L4.32839 15.2697L3.7552 16.2377C3.80582 16.2677 3.83735 16.3061 3.85163 16.3338C3.86387 16.3576 3.8587 16.3617 3.86015 16.3537L4.96706 16.5546ZM9.9375 16.5V15.375C9.39354 15.375 8.881 15.6039 8.51717 15.9958L9.3416 16.7612L10.166 17.5267C10.1104 17.5866 10.0284 17.625 9.9375 17.625V16.5Z" fill="black" mask="url(#path-3-inside-2_714_546)"/>
<circle cx="7.125" cy="9.75" r="0.75" fill="black"/>
<circle cx="9.75" cy="9.75" r="0.75" fill="black"/>
<circle cx="12.375" cy="9.75" r="0.75" fill="black"/>
</svg>
