<svg width="24" height="24" viewBox="0 0 24 24" fill="none" xmlns="http://www.w3.org/2000/svg">
<path d="M11.5229 3.45715C12.022 3.45716 12.652 3.47353 13.3208 3.48938C13.893 3.50294 14.4989 3.51483 15.0952 3.51868C15.0081 3.72156 14.9104 3.9546 14.8217 4.19543L14.8159 4.20911L14.811 4.22375L14.7192 4.49231L14.7173 4.49915L14.6665 4.65051L14.6626 4.66125L14.5796 4.91321C14.1382 4.90701 13.7012 4.8986 13.2876 4.88879C12.6096 4.87272 12.001 4.85755 11.5229 4.85754C11.4685 4.85754 9.86049 4.8572 6.83639 4.98352C5.512 5.03886 4.53022 5.21632 3.86471 5.40637C3.53148 5.50157 3.28496 5.59789 3.11862 5.67883C2.95581 5.7581 2.91363 5.80182 2.92624 5.78723C2.78628 5.96034 2.64986 6.28324 2.55124 6.78625C2.45356 7.2847 2.40676 7.88123 2.39108 8.51672C2.37549 9.14936 2.39145 9.79957 2.40964 10.4025C2.42748 10.9939 2.44867 11.5613 2.44284 11.9894C2.4353 12.5426 2.4693 13.1891 2.53366 13.7404C2.56586 14.016 2.60531 14.2581 2.64694 14.4464C2.6912 14.6465 2.72457 14.7241 2.72702 14.7296C3.01262 15.208 3.48968 15.4551 4.15671 15.5704C4.84942 15.6901 5.59747 15.6456 6.35104 15.6378C6.46396 15.6366 6.62996 15.6178 6.88425 15.589C7.11731 15.5626 7.40363 15.5308 7.68698 15.5245C7.96422 15.5184 8.29075 15.5348 8.59518 15.629C8.87058 15.7143 9.17268 15.8796 9.37741 16.1866L9.45846 16.3273L9.56393 16.5685C9.78312 17.1459 9.82201 17.8139 9.81296 18.3527C9.80448 18.8541 9.75008 19.3272 9.71335 19.6329C9.92101 19.4749 10.1424 19.3091 10.3657 19.1378C11.4706 18.2903 12.6359 17.3797 12.9809 17.0773C14.087 16.1078 15.02 15.6812 15.9428 15.5245C16.391 15.4485 16.8151 15.4398 17.2163 15.4474C17.6484 15.4556 17.976 15.4777 18.4008 15.4777C18.8865 15.4777 19.3093 15.4512 19.6313 15.4054C19.7924 15.3824 19.9176 15.356 20.0073 15.3302C20.0647 15.3137 20.0942 15.3012 20.104 15.297C20.2757 15.1728 20.4329 14.9551 20.5571 14.6075C20.6828 14.2556 20.7574 13.8197 20.7954 13.337C20.8744 12.3304 20.7886 11.3859 20.7944 10.6427C20.7949 10.5837 20.7917 10.5244 20.7915 10.465L20.8432 10.3907L20.8501 10.381L20.8559 10.3712C21.1024 9.99509 21.3237 9.6176 21.518 9.28625L21.5258 9.27356L21.5337 9.25989L21.5327 9.25891L21.9214 8.61243C21.9673 8.53834 22.0122 8.46636 22.0571 8.39661C22.1628 9.17631 22.2003 9.94773 22.1948 10.6534C22.1906 11.1974 22.2733 12.3978 22.1909 13.4474C22.148 13.9925 22.0593 14.5646 21.8755 15.0792C21.6918 15.593 21.3947 16.1011 20.9038 16.4474C20.7425 16.5611 20.5539 16.6299 20.394 16.6759C20.2236 16.7248 20.0309 16.7623 19.8286 16.7911C19.423 16.8489 18.9312 16.878 18.4008 16.8781C17.9815 16.8781 17.5241 16.8531 17.1899 16.8468C16.8248 16.8399 16.5001 16.8496 16.1772 16.9044C15.5576 17.0096 14.8551 17.2962 13.9038 18.13C13.5157 18.4702 12.3052 19.4137 11.2173 20.2482C10.6678 20.6696 10.1406 21.0712 9.74948 21.3644C9.55465 21.5104 9.39089 21.6318 9.27487 21.7159C9.21802 21.7572 9.16632 21.793 9.12741 21.8195C9.11042 21.831 9.08382 21.849 9.05612 21.8654C9.04816 21.87 9.00899 21.8933 8.95847 21.9142C8.94807 21.9185 8.85696 21.9579 8.73483 21.9659C8.67815 21.9696 8.50863 21.9755 8.32956 21.8683C8.09692 21.729 7.99813 21.4947 7.98972 21.297C7.97684 20.991 8.07507 20.6745 8.13034 20.4767C8.19631 20.2405 8.26246 19.993 8.29831 19.6808C8.33266 19.3818 8.4033 18.8781 8.41257 18.3282C8.42184 17.774 8.36285 17.2904 8.21823 16.9806C8.2099 16.977 8.19815 16.9712 8.18112 16.9659C8.08807 16.9371 7.9364 16.9191 7.71823 16.924C7.50609 16.9286 7.27806 16.9529 7.04245 16.9796C6.82833 17.0039 6.56975 17.0361 6.36569 17.0382C5.71227 17.0449 4.77456 17.0973 3.91843 16.9493C3.03678 16.797 2.10093 16.4115 1.52487 15.4464C1.40326 15.2423 1.32987 14.9748 1.27975 14.7482C1.22469 14.499 1.17862 14.2071 1.14304 13.9025C1.07185 13.2926 1.03502 12.5854 1.04343 11.9698C1.04871 11.5819 1.02884 11.0617 1.01022 10.4445C0.991945 9.83843 0.975078 9.15606 0.991668 8.48254C1.00821 7.81186 1.0578 7.12609 1.17721 6.51672C1.29338 5.92427 1.49197 5.31494 1.86667 4.87122L1.93112 4.80188C2.08932 4.64433 2.30251 4.51881 2.50534 4.42004C2.76063 4.29578 3.08673 4.17202 3.47995 4.05969C4.26798 3.83463 5.3614 3.64428 6.7778 3.58508C9.82293 3.45788 11.4506 3.45715 11.5229 3.45715Z" fill="black"/>
<path d="M7.24023 9.25395C7.35908 9.26462 7.52181 9.30564 7.6709 9.42973C7.82279 9.55619 7.89931 9.71771 7.93262 9.85942L7.95605 9.95805L7.94824 10.0586C7.92895 10.3046 7.89267 10.6145 7.82227 10.876C7.78839 11.0018 7.73408 11.164 7.64062 11.3086C7.5537 11.443 7.33516 11.7032 6.95312 11.7022C6.69285 11.7014 6.02212 11.6277 5.6377 11.0489C5.4591 10.7799 5.34961 10.5092 5.34961 10.2579C5.34964 9.94486 5.57157 9.68487 5.86621 9.62309C5.98056 9.41362 6.20011 9.27997 6.44141 9.28325L6.57227 9.29789L6.70898 9.32133C6.73788 9.32442 6.75112 9.32441 6.75391 9.32426C6.75391 9.32426 6.76573 9.32211 6.81641 9.30766C6.854 9.29694 7.04231 9.23624 7.24023 9.25395Z" fill="black"/>
<path d="M11.5012 10.2393L11.4084 10.1231C11.2173 9.90278 10.6985 9.54697 10.4641 9.39068C10.1802 9.20142 9.81027 9.20075 9.57149 9.47271C9.55305 9.47114 9.53467 9.46685 9.51582 9.46685C9.15684 9.46685 8.86543 9.75826 8.86543 10.1172C8.86546 10.2299 8.88897 10.3521 8.91133 10.4493C8.93698 10.5607 8.97452 10.6932 9.02461 10.8438C9.20817 11.3956 9.68411 11.6186 9.99043 11.7129C10.3082 11.8108 10.8043 11.8951 11.2473 11.6758C11.4832 11.559 11.5906 11.3568 11.6359 11.2188C11.6799 11.0848 11.6845 10.9584 11.6818 10.8721C11.6764 10.6975 11.6346 10.5256 11.5891 10.4014L11.5568 10.3135L11.5012 10.2393Z" fill="black"/>
<path d="M13.5524 9.31253C13.6975 9.2454 13.8664 9.22969 14.03 9.28421C14.0988 9.30716 14.2414 9.35013 14.3913 9.43753L14.5417 9.54104L14.5817 9.57327L14.6159 9.61136C14.7696 9.78247 14.9103 9.97931 15.028 10.1914L15.1384 10.4082L15.1589 10.4541L15.1726 10.503C15.1994 10.5984 15.2349 10.7579 15.2233 10.9297C15.214 11.0681 15.1387 11.521 14.6569 11.6485C14.511 11.687 14.2052 11.7634 13.8698 11.7354C13.5108 11.7053 13.0742 11.5491 12.7868 11.0957C12.622 10.8357 12.6017 10.5302 12.5993 10.3526C12.5966 10.1473 12.6198 9.94606 12.6394 9.80862C12.69 9.45335 13.0194 9.20632 13.3747 9.25686C13.4383 9.26593 13.4969 9.28709 13.5524 9.31253Z" fill="black"/>
<path d="M20.3775 1.00128C20.6322 0.996101 20.8896 1.00476 21.1245 1.04034L21.356 1.08624C21.5944 1.14674 21.8475 1.25733 22.0357 1.46808L22.1197 1.57452C22.2695 1.7915 22.313 2.02865 22.2964 2.24347L22.2827 2.34894C22.2621 2.46934 22.2237 2.58138 22.1831 2.67609L22.0699 2.90265C21.9935 3.04041 21.9214 3.18099 21.8511 3.32452L21.5835 3.888C21.4627 4.14493 21.3337 4.41476 21.1861 4.68292L21.0318 4.9505L20.9693 5.04816C20.9449 5.08542 20.9169 5.1293 20.8872 5.17609C20.9518 5.18043 21.0124 5.18728 21.0659 5.19269L21.3326 5.21417H21.3462L21.4615 5.22003C21.5127 5.22468 21.5739 5.23342 21.6324 5.25031L21.6949 5.27179C21.7647 5.29924 21.8532 5.34713 21.9322 5.43195L22.0093 5.53448C22.0742 5.64154 22.1039 5.76298 22.104 5.88116C22.104 6.05293 22.058 6.20501 22.0015 6.32941L21.9429 6.44464C21.9025 6.5155 21.856 6.58279 21.8091 6.64484L21.6685 6.81573L21.4615 7.03937L21.4048 7.09894L21.2368 7.29034C21.0887 7.49602 20.9502 7.70885 20.815 7.92706L20.4107 8.60187L20.396 8.62823L20.3921 8.63605C20.1966 8.96941 19.9922 9.31654 19.7681 9.65851L19.5347 10.0013L19.2329 10.4368L19.2242 10.4505C18.9056 10.9175 18.5491 11.4393 18.1079 11.89L17.9107 12.0804L17.8081 12.1859L17.7583 12.2386C17.7257 12.2729 17.6862 12.3134 17.6411 12.3548L17.4849 12.4808L17.481 12.4837C17.466 12.4942 17.4471 12.5073 17.4253 12.5198L17.3413 12.5599C17.2893 12.5804 17.152 12.6279 16.9859 12.5784C16.8298 12.5315 16.7275 12.4263 16.6685 12.3226L16.6236 12.221C16.5878 12.1144 16.5902 12.021 16.5923 11.9847L16.6177 11.8275L16.8482 10.7425L16.9507 10.3323C16.9821 10.1992 17.0106 10.0673 17.0347 9.93488L17.1118 9.43781L17.1324 9.29913L17.1861 8.95734C17.2063 8.84052 17.2297 8.72029 17.2574 8.60089L17.3384 8.28839C17.3675 8.18651 17.3983 8.08687 17.4273 7.99249L17.438 7.95636L17.5845 7.44855L17.6372 7.20538C17.666 7.03958 17.6752 6.88748 17.6626 6.74347L17.4849 6.73663L17.3003 6.74054H17.2935C17.2405 6.74232 17.1837 6.74445 17.1314 6.74445C17.0875 6.74446 17.0361 6.74629 16.9742 6.74835H16.9702C16.8212 6.7533 16.6148 6.75964 16.4263 6.73566L16.4214 6.73663L16.4068 6.73566L16.3872 6.73468L16.2603 6.72198C16.218 6.7158 16.1296 6.70116 16.0396 6.65851C15.9744 6.62742 15.6998 6.47706 15.6997 6.12042V5.97589C15.6998 5.74808 15.75 5.53414 15.8003 5.36359L15.898 5.06378L15.9488 4.91241L16.0406 4.64386C16.1363 4.38377 16.2466 4.12963 16.3492 3.89288L16.356 3.87628L16.523 3.48566L16.6568 3.17804C16.7962 2.87494 16.9513 2.58131 17.106 2.30206L17.2193 2.07159L17.2437 2.01886L17.3277 1.84698C17.3601 1.78536 17.3978 1.72049 17.44 1.65851L17.5132 1.56085C17.5929 1.46309 17.6941 1.3664 17.8247 1.29132L17.9605 1.22589C18.0999 1.17051 18.2505 1.14586 18.4077 1.14581C18.5822 1.14581 18.8293 1.12255 19.1402 1.0921L19.6519 1.04425C19.807 1.03086 19.9665 1.01903 20.1236 1.01105L20.3775 1.00128ZM20.9878 2.0257C20.7652 1.99197 20.4838 1.98929 20.1704 2.00519C19.8802 2.01994 19.5796 2.05014 19.2915 2.07843C19.2713 2.08042 19.2501 2.08232 19.23 2.08429C18.9328 2.1134 18.6372 2.14186 18.4087 2.14191C18.3335 2.14191 18.2996 2.15646 18.2857 2.16437C18.2708 2.17292 18.2491 2.19051 18.2183 2.23566C18.1841 2.28601 18.1499 2.35373 18.1021 2.45636C18.0954 2.47071 18.0878 2.4857 18.0806 2.50128C18.0405 2.58807 17.9906 2.69553 17.9322 2.80109C17.7325 3.16144 17.5478 3.51956 17.3999 3.87921C17.338 4.02986 17.2742 4.17531 17.2134 4.31573C17.0771 4.63032 16.9513 4.92147 16.854 5.22687C16.8311 5.29896 16.8098 5.36311 16.7896 5.42218C16.7621 5.50224 16.7369 5.57454 16.7124 5.65753C16.7021 5.69255 16.6946 5.72616 16.687 5.75714C16.7497 5.75805 16.8177 5.75694 16.896 5.75421C16.9672 5.75175 17.0466 5.74933 17.1324 5.74933C17.1555 5.74931 17.19 5.74793 17.2368 5.7464C17.3644 5.74227 17.5669 5.73513 17.7456 5.75128C17.8684 5.76244 18.0219 5.78682 18.1617 5.84991C18.3021 5.91345 18.4943 6.04939 18.5581 6.31281C18.6795 6.8141 18.6116 7.28686 18.5083 7.7005C18.4604 7.89241 18.4021 8.08259 18.3482 8.25812C18.3442 8.27119 18.3404 8.28443 18.3365 8.29718C18.2778 8.4884 18.2241 8.66386 18.1841 8.83624C18.139 9.03097 18.1073 9.23319 18.0757 9.44952C18.0695 9.49239 18.0625 9.53632 18.0562 9.58038C18.0313 9.75409 18.0053 9.93837 17.9722 10.1204C17.9356 10.3218 17.8876 10.5238 17.8394 10.72C18.0445 10.4592 18.2384 10.1793 18.438 9.88702C18.5457 9.72932 18.6559 9.568 18.7701 9.40753C19.0645 8.99345 19.3207 8.55623 19.5884 8.09991L19.5992 8.08234C19.8675 7.62507 20.148 7.14729 20.4761 6.69171C20.5513 6.58739 20.6456 6.48481 20.7271 6.39874L20.7915 6.33136C20.8412 6.27937 20.887 6.22954 20.9312 6.18097C20.8503 6.17314 20.7801 6.16635 20.7115 6.16632C20.4924 6.16629 20.2696 6.14425 20.0357 6.05988C19.9502 6.02899 19.8683 5.97151 19.8062 5.88702C19.7466 5.80565 19.7204 5.71913 19.7095 5.64972C19.6897 5.52259 19.7148 5.40801 19.7329 5.3421C19.7718 5.20111 19.8452 5.05225 19.9087 4.93585C20.0119 4.74675 20.147 4.53995 20.2036 4.45343C20.2104 4.44306 20.217 4.4346 20.2212 4.42804C20.2233 4.42486 20.2249 4.4212 20.2261 4.41925L20.2271 4.4173C20.4123 4.11193 20.5686 3.79063 20.729 3.44952C20.7474 3.41042 20.7661 3.37008 20.7847 3.33038L21.0034 2.87042C21.0796 2.71508 21.16 2.55822 21.2456 2.40363C21.3056 2.29546 21.3364 2.22516 21.3452 2.17413C21.3466 2.16611 21.3462 2.16039 21.3462 2.15753C21.3449 2.15554 21.3424 2.15036 21.3384 2.14581C21.3157 2.1214 21.224 2.06159 20.9878 2.0257Z" fill="black"/>
</svg>
