<svg width="18" height="18" viewBox="0 0 18 18" fill="none" xmlns="http://www.w3.org/2000/svg">
<mask id="path-1-inside-1_422_75" fill="white">
<path d="M10.9688 4.5C6.94823 4.5 5.0625 6.1875 5.0625 9.14062C5.0625 11.9604 6.78178 13.6243 10.4371 13.7688C10.6786 13.7784 10.906 13.8848 11.0731 14.0594C11.6975 14.712 12.5524 15.3656 13.623 15.6289C14.1342 15.7546 14.5385 15.2728 14.4443 14.7549L14.3006 13.9641C14.2282 13.5656 14.4541 13.1797 14.8086 12.9838C16.2036 12.2127 16.875 10.9023 16.875 9.14062C16.875 6.1875 14.9893 4.5 10.9688 4.5Z"/>
</mask>
<path d="M10.9688 4.5C6.94823 4.5 5.0625 6.1875 5.0625 9.14062C5.0625 11.9604 6.78178 13.6243 10.4371 13.7688C10.6786 13.7784 10.906 13.8848 11.0731 14.0594C11.6975 14.712 12.5524 15.3656 13.623 15.6289C14.1342 15.7546 14.5385 15.2728 14.4443 14.7549L14.3006 13.9641C14.2282 13.5656 14.4541 13.1797 14.8086 12.9838C16.2036 12.2127 16.875 10.9023 16.875 9.14062C16.875 6.1875 14.9893 4.5 10.9688 4.5Z" fill="#FFF4D9"/>
<path d="M10.9688 4.5V3.65625V4.5ZM13.623 15.6289L13.4216 16.4482L13.4215 16.4482L13.623 15.6289ZM14.4443 14.7549L13.6142 14.9058L13.6142 14.9058L14.4443 14.7549ZM14.3006 13.9641L15.1308 13.8132L14.3006 13.9641ZM14.8086 12.9838L14.4004 12.2454L14.8086 12.9838ZM10.4371 13.7688L10.4705 12.9258L10.4371 13.7688ZM11.0731 14.0594L11.6827 13.4761L11.0731 14.0594ZM10.9688 5.34375C9.05709 5.34375 7.8033 5.74783 7.03985 6.36785C6.30771 6.96245 5.90625 7.8546 5.90625 9.14062H4.21875C4.21875 7.47352 4.76016 6.04536 5.97601 5.05793C7.16056 4.09592 8.85989 3.65625 10.9688 3.65625V5.34375ZM5.90625 9.14062C5.90625 10.3712 6.27444 11.2373 6.93894 11.8267C7.62562 12.4358 8.74999 12.8577 10.4705 12.9258L10.4038 14.6119C8.4689 14.5354 6.90596 14.0531 5.81917 13.0892C4.7102 12.1055 4.21875 10.7298 4.21875 9.14062H5.90625ZM11.6827 13.4761C12.2442 14.0628 12.9655 14.5983 13.8246 14.8096L13.4215 16.4482C12.1394 16.1329 11.1508 15.3611 10.4635 14.6428L11.6827 13.4761ZM13.8245 14.8096C13.8012 14.8038 13.7612 14.8021 13.7169 14.8166C13.6757 14.8302 13.649 14.8517 13.6348 14.8675C13.6096 14.8953 13.6152 14.9112 13.6142 14.9058L15.2745 14.6039C15.3677 15.1165 15.2182 15.6322 14.8866 15.999C14.5432 16.379 14.0037 16.5914 13.4216 16.4482L13.8245 14.8096ZM13.6142 14.9058L13.4705 14.115L15.1308 13.8132L15.2745 14.604L13.6142 14.9058ZM14.4004 12.2454C15.4777 11.6499 16.0312 10.6556 16.0312 9.14062H17.7188C17.7188 11.1489 16.9296 12.7755 15.2168 13.7223L14.4004 12.2454ZM16.0312 9.14062C16.0312 7.8546 15.6298 6.96245 14.8977 6.36785C14.1342 5.74783 12.8804 5.34375 10.9688 5.34375V3.65625C13.0776 3.65625 14.7769 4.09592 15.9615 5.05793C17.1773 6.04536 17.7188 7.47352 17.7188 9.14062H16.0312ZM13.4705 14.115C13.3213 13.2945 13.7916 12.5819 14.4004 12.2454L15.2168 13.7223C15.1757 13.7449 15.1497 13.7752 15.1378 13.7973C15.1324 13.8074 15.1311 13.8134 15.1309 13.8146C15.1308 13.8153 15.1308 13.8152 15.1308 13.8145C15.1308 13.8142 15.1308 13.8139 15.1308 13.8137C15.1308 13.8134 15.1308 13.8132 15.1308 13.8132L13.4705 14.115ZM10.4705 12.9258C10.9394 12.9443 11.3708 13.1501 11.6827 13.4761L10.4635 14.6428C10.4413 14.6195 10.4178 14.6125 10.4038 14.6119L10.4705 12.9258Z" fill="black" mask="url(#path-1-inside-1_422_75)"/>
<mask id="path-3-inside-2_422_75" fill="white">
<path d="M7.45312 2.25C11.7608 2.25 13.7812 4.09091 13.7812 7.3125C13.7812 10.5341 11.7608 12.375 7.45312 12.375C7.28292 12.375 7.12118 12.4454 7.0054 12.5701C6.37492 13.2495 5.49311 13.9481 4.37695 14.2227C3.86578 14.3484 3.4615 13.8666 3.55566 13.3486L3.72494 12.4153C3.79506 12.0287 3.58406 11.652 3.24599 11.4518C1.81444 10.604 1.125 9.19403 1.125 7.3125C1.125 4.09091 3.14542 2.25 7.45312 2.25Z"/>
</mask>
<path d="M7.45312 2.25C11.7608 2.25 13.7812 4.09091 13.7812 7.3125C13.7812 10.5341 11.7608 12.375 7.45312 12.375C7.28292 12.375 7.12118 12.4454 7.0054 12.5701C6.37492 13.2495 5.49311 13.9481 4.37695 14.2227C3.86578 14.3484 3.4615 13.8666 3.55566 13.3486L3.72494 12.4153C3.79506 12.0287 3.58406 11.652 3.24599 11.4518C1.81444 10.604 1.125 9.19403 1.125 7.3125C1.125 4.09091 3.14542 2.25 7.45312 2.25Z" fill="#0FA958"/>
<path d="M4.37695 14.2227L4.57843 15.042L4.57846 15.042L4.37695 14.2227ZM3.55566 13.3486L4.3858 13.4996L4.38587 13.4992L3.55566 13.3486ZM7.0054 12.5701L6.38693 11.9962L7.0054 12.5701ZM7.45312 3.09375C9.50552 3.09375 10.8623 3.53496 11.6949 4.22339C12.4988 4.88815 12.9375 5.88705 12.9375 7.3125H14.625C14.625 5.51636 14.0535 3.98401 12.7703 2.92291C11.5157 1.8855 9.70844 1.40625 7.45312 1.40625V3.09375ZM12.9375 7.3125C12.9375 8.73795 12.4988 9.73685 11.6949 10.4016C10.8623 11.09 9.50552 11.5312 7.45312 11.5312V13.2188C9.70844 13.2188 11.5157 12.7395 12.7703 11.7021C14.0535 10.641 14.625 9.10864 14.625 7.3125H12.9375ZM6.38693 11.9962C5.81749 12.6098 5.07174 13.1829 4.17544 13.4033L4.57846 15.042C5.91448 14.7134 6.93234 13.8893 7.62387 13.1441L6.38693 11.9962ZM4.17548 13.4033C4.19882 13.3976 4.23885 13.3958 4.28309 13.4104C4.32432 13.4239 4.35102 13.4455 4.36524 13.4612C4.39042 13.4891 4.38482 13.505 4.3858 13.4996L2.72552 13.1977C2.63234 13.7102 2.7818 14.226 3.11338 14.5928C3.45679 14.9727 3.99628 15.1852 4.57843 15.042L4.17548 13.4033ZM4.38587 13.4992L4.55514 12.5659L2.89473 12.2648L2.72546 13.1981L4.38587 13.4992ZM3.67594 10.7258C2.55337 10.061 1.96875 8.96244 1.96875 7.3125H0.28125C0.28125 9.42562 1.0755 11.147 2.81605 12.1778L3.67594 10.7258ZM1.96875 7.3125C1.96875 5.88705 2.40744 4.88815 3.21136 4.22339C4.04391 3.53496 5.40073 3.09375 7.45312 3.09375V1.40625C5.19781 1.40625 3.39058 1.8855 2.13599 2.92291C0.852771 3.98401 0.28125 5.51636 0.28125 7.3125H1.96875ZM4.55514 12.5659C4.69934 11.7709 4.26023 11.0718 3.67594 10.7258L2.81605 12.1778C2.854 12.2003 2.87764 12.229 2.88835 12.2498C2.89752 12.2677 2.89365 12.2708 2.89473 12.2648L4.55514 12.5659ZM7.45312 11.5312C7.04889 11.5312 6.66282 11.6989 6.38693 11.9962L7.62387 13.1441C7.57953 13.1918 7.51696 13.2188 7.45312 13.2188V11.5312Z" fill="black" mask="url(#path-3-inside-2_422_75)"/>
<circle cx="5.34375" cy="7.3125" r="0.5625" fill="black"/>
<circle cx="7.3125" cy="7.3125" r="0.5625" fill="black"/>
<circle cx="9.28125" cy="7.3125" r="0.5625" fill="black"/>
</svg>
