<svg width="24" height="22" viewBox="0 0 24 22" fill="none" xmlns="http://www.w3.org/2000/svg">
<path d="M6.8073 3.98413C9.84201 3.85737 11.4592 3.85737 11.5226 3.85737C12.5 3.85737 14 3.92123 15.4116 3.92123C17.6835 3.92123 19.3566 3.85679 19.7048 4.18101C19.9142 4.37596 20.1719 4.6671 20.3122 4.90031C21.2414 6.44414 21.5084 8.56098 21.4944 10.3484C21.4844 11.6358 21.8322 14.6359 20.5 15.5751C20.2282 15.7667 19.4168 15.8781 18.4006 15.8781C16.7118 15.8781 15.5 15.5 13.4424 17.3037C12.7093 17.9463 8.6905 21.0115 8.68863 20.9674C8.67422 20.6289 8.90883 20.2026 8.99402 19.4607C9.05836 18.9003 9.29973 17.2741 8.83268 16.34C8.48347 15.6416 6.99249 16.0314 6.35834 16.038C4.95124 16.0525 2.98781 16.2318 2.12608 14.7881C1.88647 14.3866 1.72692 12.8489 1.7429 11.6794C1.76519 10.0472 1.36443 6.25101 2.40122 5.02323C2.65667 4.72072 4.06542 4.09867 6.8073 3.98413Z" stroke="black" stroke-width="1.4" stroke-linecap="round"/>
<mask id="path-2-outside-1_674_9734" maskUnits="userSpaceOnUse" x="13.7002" y="-1.30005" width="11" height="15" fill="black">
<rect fill="white" x="13.7002" y="-1.30005" width="11" height="15"/>
<path d="M20.3779 0.701336C20.6329 0.696151 20.89 0.704755 21.125 0.740398L21.3564 0.786296C21.595 0.846839 21.8479 0.957124 22.0361 1.16813L22.1201 1.27458C22.27 1.4917 22.3136 1.72861 22.2969 1.94352L22.2832 2.04899C22.2625 2.16961 22.2243 2.28132 22.1836 2.37614L22.0703 2.6027C21.9939 2.74066 21.9219 2.88083 21.8516 3.02458L21.584 3.58805C21.4631 3.84516 21.3343 4.11462 21.1865 4.38298L21.0322 4.65055L20.9697 4.74821C20.9453 4.78562 20.9175 4.82913 20.8877 4.87614C20.9524 4.8805 21.0128 4.88733 21.0664 4.89274L21.0908 4.89469L21.333 4.91423H21.3467L21.4619 4.92009C21.5133 4.92475 21.5742 4.93338 21.6328 4.95036L21.6953 4.97184C21.7652 4.99934 21.8535 5.04695 21.9326 5.132L22.0098 5.23454C22.0747 5.34172 22.1045 5.46291 22.1045 5.58122C22.1045 5.75318 22.0586 5.90499 22.002 6.02946L21.9434 6.14469C21.9028 6.21575 21.8566 6.2827 21.8096 6.34489L21.6689 6.51579L21.4619 6.73942L21.4053 6.79899L21.2373 6.9904C21.0891 7.19626 20.9508 7.4087 20.8154 7.62712L20.4111 8.30192L20.3965 8.32829C20.1994 8.66417 19.9945 9.01379 19.7686 9.35856L19.5352 9.70134L19.2334 10.1369C18.9124 10.6075 18.554 11.1349 18.1084 11.59L17.9111 11.7804L17.8086 11.8859L17.7588 11.9386C17.7261 11.9731 17.6868 12.0133 17.6416 12.0549L17.4854 12.1808C17.4696 12.1919 17.4498 12.2061 17.4258 12.2199L17.3418 12.2599C17.2901 12.2804 17.1529 12.3281 16.9863 12.2785C16.8301 12.2316 16.728 12.1265 16.6689 12.0226L16.624 11.9211C16.5881 11.8142 16.5907 11.7211 16.5928 11.6847L16.6182 11.5275V11.5256L16.6221 11.508C16.6516 11.2572 16.7069 11.0184 16.7578 10.8078L16.8486 10.4425L16.9512 10.0324C16.9826 9.89907 17.0111 9.76756 17.0352 9.63493L17.1123 9.13786L17.1328 8.99919L17.1865 8.65739C17.2068 8.54039 17.2301 8.42055 17.2578 8.30094L17.3389 7.98844C17.368 7.88635 17.3987 7.78711 17.4277 7.69255L17.4385 7.65641L17.585 7.1486L17.6377 6.90544C17.6665 6.73946 17.6757 6.58766 17.6631 6.44352L17.4854 6.43669L17.3008 6.44059C17.2455 6.44244 17.1867 6.4445 17.1318 6.4445C17.0871 6.4445 17.0345 6.44628 16.9707 6.44841C16.8216 6.45336 16.6154 6.45971 16.4268 6.43571C16.4257 6.43563 16.4241 6.43683 16.4219 6.43669C16.4166 6.43636 16.4123 6.43602 16.4072 6.43571L16.3877 6.43473L16.2607 6.42204C16.2186 6.41589 16.1304 6.40136 16.04 6.35856C15.9758 6.32802 15.7003 6.17805 15.7002 5.82048V5.67594C15.7002 5.44789 15.7505 5.23434 15.8008 5.06364L15.8984 4.76384L15.9492 4.61247L16.041 4.34391C16.139 4.07756 16.2518 3.81796 16.3564 3.57634L16.5234 3.18571L16.6572 2.87809C16.7968 2.57478 16.9517 2.28155 17.1064 2.00212L17.2197 1.77165L17.2441 1.71891L17.3281 1.54704C17.3606 1.48522 17.3981 1.42074 17.4404 1.35856L17.5137 1.26091C17.5935 1.16296 17.6943 1.06656 17.8252 0.991375L17.9609 0.925945C18.1005 0.870461 18.2507 0.845867 18.4082 0.845867C18.5827 0.845865 18.8295 0.82263 19.1406 0.792156L19.6523 0.744304C19.8076 0.730904 19.9668 0.719089 20.124 0.711101L20.3779 0.701336ZM17.709 11.5588C17.6673 11.5969 17.6311 11.6356 17.5889 11.6808L17.709 11.5597C17.7727 11.5014 17.8342 11.4407 17.8945 11.3791L17.709 11.5588ZM16.7227 11.5519C16.7608 11.554 16.8128 11.5568 16.8838 11.5607L16.6475 11.5343L16.7227 11.5519ZM16.6182 11.5402V11.547C16.6185 11.5471 16.6246 11.5467 16.7197 11.5519L16.6406 11.5334L16.6191 11.5314C16.6188 11.5345 16.6183 11.5379 16.6182 11.5402ZM17.7715 10.8156C17.7212 10.8727 17.6699 10.9288 17.6172 10.9836C17.7229 10.8737 17.8234 10.7592 17.9199 10.6408L17.7715 10.8156ZM17.3271 9.70134C17.2945 9.87877 17.2542 10.0534 17.2109 10.2297C17.2542 10.0534 17.2945 9.87883 17.3271 9.70134ZM20.1758 1.80485C20.0319 1.81216 19.8849 1.82342 19.7383 1.8361L19.3008 1.87712L19.2393 1.88298C18.9433 1.91197 18.6426 1.94157 18.4082 1.94157C18.3762 1.94157 18.3565 1.945 18.3467 1.94743L18.335 1.95134C18.3344 1.95168 18.3322 1.95313 18.3281 1.95719L18.2998 1.99235C18.2853 2.01374 18.2702 2.03944 18.2529 2.07243L18.1924 2.19743L18.1709 2.24333L18.0195 2.54899C17.8703 2.8184 17.7297 3.08498 17.6074 3.35075L17.4922 3.61637L17.3057 4.05485C17.2031 4.29148 17.1069 4.51171 17.0254 4.73356L16.9492 4.95719L16.8838 5.15446C16.8598 5.22426 16.8382 5.28654 16.8174 5.35466C16.841 5.35397 16.8662 5.3546 16.8926 5.35368L17.1318 5.3488C17.1529 5.3488 17.1854 5.34743 17.2334 5.34587L17.4717 5.34098C17.5626 5.34079 17.661 5.34335 17.7539 5.35173L17.9678 5.38298C18.0445 5.39953 18.1247 5.42416 18.2021 5.45915L18.3281 5.52848C18.4602 5.61593 18.5998 5.75978 18.6553 5.98844L18.6934 6.18376C18.7432 6.50595 18.7238 6.81342 18.6748 7.09684L18.6045 7.42497C18.5802 7.52229 18.5529 7.61893 18.5254 7.71305L18.4316 8.02555C18.4022 8.1214 18.3738 8.21276 18.3486 8.30094L18.2812 8.55876C18.2592 8.65398 18.2401 8.75134 18.2227 8.85173L18.1738 9.16423L18.1553 9.29411L18.0703 9.83805C18.0615 9.88661 18.0489 9.93509 18.0391 9.98356C18.1432 9.83714 18.2481 9.68625 18.3545 9.53044L18.6875 9.04899L18.9004 8.73747C19.1075 8.42132 19.3008 8.09198 19.502 7.74919L19.5117 7.73161L19.5127 7.73063L19.9297 7.03337C20.0752 6.79854 20.2289 6.56318 20.3945 6.33317L20.5234 6.17204C20.5681 6.12102 20.6136 6.07342 20.6543 6.03044L20.7148 5.96598H20.7119C20.5422 5.96598 20.3671 5.95359 20.1855 5.90934L20.002 5.85368C19.9244 5.82568 19.8491 5.7799 19.7852 5.71598L19.7256 5.64665C19.6897 5.59782 19.6638 5.54724 19.6455 5.49919L19.6104 5.36442C19.5874 5.21687 19.6162 5.08674 19.6357 5.01579L19.6738 4.90055C19.7166 4.78671 19.7722 4.67629 19.8203 4.58805L19.9893 4.3029L20.1201 4.09782C20.1269 4.08738 20.1326 4.07881 20.1367 4.07243C20.1387 4.0694 20.1405 4.06721 20.1416 4.06559C20.3237 3.7653 20.4774 3.44742 20.6377 3.10661L20.6934 2.98747L20.9131 2.52653C20.9898 2.36986 21.0705 2.21136 21.1572 2.05485L21.2227 1.92692C21.2274 1.91608 21.2292 1.90542 21.2324 1.89665C21.2253 1.89308 21.2172 1.88816 21.207 1.88395C21.1824 1.87377 21.151 1.86279 21.1123 1.8527L20.9727 1.82438C20.813 1.80018 20.6195 1.79272 20.4014 1.79704L20.1758 1.80485ZM17.8164 6.16325C17.8525 6.17105 17.8823 6.18025 17.9053 6.19059C17.9165 6.19569 17.9241 6.20024 17.9287 6.20329C17.9853 6.44914 17.9777 6.69713 17.9326 6.95719C17.9779 6.69692 17.9854 6.44844 17.9287 6.20231C17.924 6.19927 17.9162 6.19556 17.9053 6.19059C17.8593 6.1699 17.7865 6.15344 17.6895 6.14469L17.8164 6.16325ZM20.749 6.3693C20.7089 6.4149 20.671 6.46175 20.6377 6.50798L20.749 6.37028C20.7891 6.32452 20.8312 6.27967 20.8721 6.23649L20.749 6.3693ZM16.127 6.06266C16.1446 6.07482 16.1599 6.08278 16.1689 6.08708C16.151 6.0786 16.109 6.05611 16.0713 6.01384L16.127 6.06266ZM20.9941 5.68473C21.0027 5.68563 21.0117 5.68579 21.0205 5.68669L20.9941 5.68376C20.8943 5.67365 20.8035 5.6662 20.7119 5.66618L20.9941 5.68473ZM17.9043 5.67692C17.9122 5.67862 17.9199 5.68091 17.9277 5.68278C17.8604 5.66665 17.792 5.65641 17.7275 5.65055L17.9043 5.67692ZM16.7012 5.65837L16.9023 5.65348C16.7615 5.65839 16.6358 5.66298 16.5088 5.64567L16.7012 5.65837ZM21.7812 5.44938C21.785 5.45954 21.7872 5.47013 21.79 5.48063C21.7815 5.44868 21.77 5.41798 21.7529 5.38981L21.7812 5.44938ZM21.6699 5.29802C21.6844 5.30894 21.6992 5.32136 21.7129 5.3361L21.6709 5.29802C21.6562 5.28692 21.6415 5.27752 21.627 5.26969L21.6699 5.29802ZM19.9043 5.19548C19.9021 5.21451 19.9013 5.23452 19.9014 5.25505L19.9053 5.19548C19.9097 5.15738 19.9171 5.12287 19.9248 5.09489L19.9043 5.19548ZM20.8799 5.17692C20.934 5.18079 20.9863 5.18556 21.0361 5.19059L20.8799 5.17594C20.8256 5.17207 20.7694 5.1701 20.7119 5.17009L20.8799 5.17692ZM16.833 4.39958C16.802 4.47639 16.7726 4.55352 16.7441 4.63102L16.834 4.39958C16.8962 4.24578 16.9624 4.09231 17.0303 3.93571L16.833 4.39958ZM21.3125 3.46012C21.1514 3.80255 20.9829 4.15485 20.7764 4.49528C20.9828 4.15507 21.1515 3.80331 21.3125 3.4611V3.46012ZM21.0176 1.52848C21.2038 1.55675 21.3338 1.60239 21.417 1.65544C21.3341 1.60225 21.2041 1.55581 21.0176 1.52751C20.957 1.51833 20.893 1.51209 20.8262 1.507L21.0176 1.52848ZM20.1602 1.50505C19.8642 1.52008 19.5589 1.55006 19.2715 1.57829C19.2511 1.58029 19.2302 1.58314 19.21 1.58512L19.2715 1.57927C19.5589 1.55104 19.8641 1.52106 20.1602 1.50602C20.2398 1.50198 20.3181 1.49876 20.3945 1.49723C20.3181 1.49876 20.2398 1.501 20.1602 1.50505ZM21.8721 1.44352C21.8897 1.46894 21.9053 1.49463 21.9189 1.52067C21.8916 1.46822 21.8566 1.4168 21.8125 1.36735L21.8721 1.44352Z"/>
</mask>
<path d="M20.3779 0.701336C20.6329 0.696151 20.89 0.704755 21.125 0.740398L21.3564 0.786296C21.595 0.846839 21.8479 0.957124 22.0361 1.16813L22.1201 1.27458C22.27 1.4917 22.3136 1.72861 22.2969 1.94352L22.2832 2.04899C22.2625 2.16961 22.2243 2.28132 22.1836 2.37614L22.0703 2.6027C21.9939 2.74066 21.9219 2.88083 21.8516 3.02458L21.584 3.58805C21.4631 3.84516 21.3343 4.11462 21.1865 4.38298L21.0322 4.65055L20.9697 4.74821C20.9453 4.78562 20.9175 4.82913 20.8877 4.87614C20.9524 4.8805 21.0128 4.88733 21.0664 4.89274L21.0908 4.89469L21.333 4.91423H21.3467L21.4619 4.92009C21.5133 4.92475 21.5742 4.93338 21.6328 4.95036L21.6953 4.97184C21.7652 4.99934 21.8535 5.04695 21.9326 5.132L22.0098 5.23454C22.0747 5.34172 22.1045 5.46291 22.1045 5.58122C22.1045 5.75318 22.0586 5.90499 22.002 6.02946L21.9434 6.14469C21.9028 6.21575 21.8566 6.2827 21.8096 6.34489L21.6689 6.51579L21.4619 6.73942L21.4053 6.79899L21.2373 6.9904C21.0891 7.19626 20.9508 7.4087 20.8154 7.62712L20.4111 8.30192L20.3965 8.32829C20.1994 8.66417 19.9945 9.01379 19.7686 9.35856L19.5352 9.70134L19.2334 10.1369C18.9124 10.6075 18.554 11.1349 18.1084 11.59L17.9111 11.7804L17.8086 11.8859L17.7588 11.9386C17.7261 11.9731 17.6868 12.0133 17.6416 12.0549L17.4854 12.1808C17.4696 12.1919 17.4498 12.2061 17.4258 12.2199L17.3418 12.2599C17.2901 12.2804 17.1529 12.3281 16.9863 12.2785C16.8301 12.2316 16.728 12.1265 16.6689 12.0226L16.624 11.9211C16.5881 11.8142 16.5907 11.7211 16.5928 11.6847L16.6182 11.5275V11.5256L16.6221 11.508C16.6516 11.2572 16.7069 11.0184 16.7578 10.8078L16.8486 10.4425L16.9512 10.0324C16.9826 9.89907 17.0111 9.76756 17.0352 9.63493L17.1123 9.13786L17.1328 8.99919L17.1865 8.65739C17.2068 8.54039 17.2301 8.42055 17.2578 8.30094L17.3389 7.98844C17.368 7.88635 17.3987 7.78711 17.4277 7.69255L17.4385 7.65641L17.585 7.1486L17.6377 6.90544C17.6665 6.73946 17.6757 6.58766 17.6631 6.44352L17.4854 6.43669L17.3008 6.44059C17.2455 6.44244 17.1867 6.4445 17.1318 6.4445C17.0871 6.4445 17.0345 6.44628 16.9707 6.44841C16.8216 6.45336 16.6154 6.45971 16.4268 6.43571C16.4257 6.43563 16.4241 6.43683 16.4219 6.43669C16.4166 6.43636 16.4123 6.43602 16.4072 6.43571L16.3877 6.43473L16.2607 6.42204C16.2186 6.41589 16.1304 6.40136 16.04 6.35856C15.9758 6.32802 15.7003 6.17805 15.7002 5.82048V5.67594C15.7002 5.44789 15.7505 5.23434 15.8008 5.06364L15.8984 4.76384L15.9492 4.61247L16.041 4.34391C16.139 4.07756 16.2518 3.81796 16.3564 3.57634L16.5234 3.18571L16.6572 2.87809C16.7968 2.57478 16.9517 2.28155 17.1064 2.00212L17.2197 1.77165L17.2441 1.71891L17.3281 1.54704C17.3606 1.48522 17.3981 1.42074 17.4404 1.35856L17.5137 1.26091C17.5935 1.16296 17.6943 1.06656 17.8252 0.991375L17.9609 0.925945C18.1005 0.870461 18.2507 0.845867 18.4082 0.845867C18.5827 0.845865 18.8295 0.82263 19.1406 0.792156L19.6523 0.744304C19.8076 0.730904 19.9668 0.719089 20.124 0.711101L20.3779 0.701336ZM17.709 11.5588C17.6673 11.5969 17.6311 11.6356 17.5889 11.6808L17.709 11.5597C17.7727 11.5014 17.8342 11.4407 17.8945 11.3791L17.709 11.5588ZM16.7227 11.5519C16.7608 11.554 16.8128 11.5568 16.8838 11.5607L16.6475 11.5343L16.7227 11.5519ZM16.6182 11.5402V11.547C16.6185 11.5471 16.6246 11.5467 16.7197 11.5519L16.6406 11.5334L16.6191 11.5314C16.6188 11.5345 16.6183 11.5379 16.6182 11.5402ZM17.7715 10.8156C17.7212 10.8727 17.6699 10.9288 17.6172 10.9836C17.7229 10.8737 17.8234 10.7592 17.9199 10.6408L17.7715 10.8156ZM17.3271 9.70134C17.2945 9.87877 17.2542 10.0534 17.2109 10.2297C17.2542 10.0534 17.2945 9.87883 17.3271 9.70134ZM20.1758 1.80485C20.0319 1.81216 19.8849 1.82342 19.7383 1.8361L19.3008 1.87712L19.2393 1.88298C18.9433 1.91197 18.6426 1.94157 18.4082 1.94157C18.3762 1.94157 18.3565 1.945 18.3467 1.94743L18.335 1.95134C18.3344 1.95168 18.3322 1.95313 18.3281 1.95719L18.2998 1.99235C18.2853 2.01374 18.2702 2.03944 18.2529 2.07243L18.1924 2.19743L18.1709 2.24333L18.0195 2.54899C17.8703 2.8184 17.7297 3.08498 17.6074 3.35075L17.4922 3.61637L17.3057 4.05485C17.2031 4.29148 17.1069 4.51171 17.0254 4.73356L16.9492 4.95719L16.8838 5.15446C16.8598 5.22426 16.8382 5.28654 16.8174 5.35466C16.841 5.35397 16.8662 5.3546 16.8926 5.35368L17.1318 5.3488C17.1529 5.3488 17.1854 5.34743 17.2334 5.34587L17.4717 5.34098C17.5626 5.34079 17.661 5.34335 17.7539 5.35173L17.9678 5.38298C18.0445 5.39953 18.1247 5.42416 18.2021 5.45915L18.3281 5.52848C18.4602 5.61593 18.5998 5.75978 18.6553 5.98844L18.6934 6.18376C18.7432 6.50595 18.7238 6.81342 18.6748 7.09684L18.6045 7.42497C18.5802 7.52229 18.5529 7.61893 18.5254 7.71305L18.4316 8.02555C18.4022 8.1214 18.3738 8.21276 18.3486 8.30094L18.2812 8.55876C18.2592 8.65398 18.2401 8.75134 18.2227 8.85173L18.1738 9.16423L18.1553 9.29411L18.0703 9.83805C18.0615 9.88661 18.0489 9.93509 18.0391 9.98356C18.1432 9.83714 18.2481 9.68625 18.3545 9.53044L18.6875 9.04899L18.9004 8.73747C19.1075 8.42132 19.3008 8.09198 19.502 7.74919L19.5117 7.73161L19.5127 7.73063L19.9297 7.03337C20.0752 6.79854 20.2289 6.56318 20.3945 6.33317L20.5234 6.17204C20.5681 6.12102 20.6136 6.07342 20.6543 6.03044L20.7148 5.96598H20.7119C20.5422 5.96598 20.3671 5.95359 20.1855 5.90934L20.002 5.85368C19.9244 5.82568 19.8491 5.7799 19.7852 5.71598L19.7256 5.64665C19.6897 5.59782 19.6638 5.54724 19.6455 5.49919L19.6104 5.36442C19.5874 5.21687 19.6162 5.08674 19.6357 5.01579L19.6738 4.90055C19.7166 4.78671 19.7722 4.67629 19.8203 4.58805L19.9893 4.3029L20.1201 4.09782C20.1269 4.08738 20.1326 4.07881 20.1367 4.07243C20.1387 4.0694 20.1405 4.06721 20.1416 4.06559C20.3237 3.7653 20.4774 3.44742 20.6377 3.10661L20.6934 2.98747L20.9131 2.52653C20.9898 2.36986 21.0705 2.21136 21.1572 2.05485L21.2227 1.92692C21.2274 1.91608 21.2292 1.90542 21.2324 1.89665C21.2253 1.89308 21.2172 1.88816 21.207 1.88395C21.1824 1.87377 21.151 1.86279 21.1123 1.8527L20.9727 1.82438C20.813 1.80018 20.6195 1.79272 20.4014 1.79704L20.1758 1.80485ZM17.8164 6.16325C17.8525 6.17105 17.8823 6.18025 17.9053 6.19059C17.9165 6.19569 17.9241 6.20024 17.9287 6.20329C17.9853 6.44914 17.9777 6.69713 17.9326 6.95719C17.9779 6.69692 17.9854 6.44844 17.9287 6.20231C17.924 6.19927 17.9162 6.19556 17.9053 6.19059C17.8593 6.1699 17.7865 6.15344 17.6895 6.14469L17.8164 6.16325ZM20.749 6.3693C20.7089 6.4149 20.671 6.46175 20.6377 6.50798L20.749 6.37028C20.7891 6.32452 20.8312 6.27967 20.8721 6.23649L20.749 6.3693ZM16.127 6.06266C16.1446 6.07482 16.1599 6.08278 16.1689 6.08708C16.151 6.0786 16.109 6.05611 16.0713 6.01384L16.127 6.06266ZM20.9941 5.68473C21.0027 5.68563 21.0117 5.68579 21.0205 5.68669L20.9941 5.68376C20.8943 5.67365 20.8035 5.6662 20.7119 5.66618L20.9941 5.68473ZM17.9043 5.67692C17.9122 5.67862 17.9199 5.68091 17.9277 5.68278C17.8604 5.66665 17.792 5.65641 17.7275 5.65055L17.9043 5.67692ZM16.7012 5.65837L16.9023 5.65348C16.7615 5.65839 16.6358 5.66298 16.5088 5.64567L16.7012 5.65837ZM21.7812 5.44938C21.785 5.45954 21.7872 5.47013 21.79 5.48063C21.7815 5.44868 21.77 5.41798 21.7529 5.38981L21.7812 5.44938ZM21.6699 5.29802C21.6844 5.30894 21.6992 5.32136 21.7129 5.3361L21.6709 5.29802C21.6562 5.28692 21.6415 5.27752 21.627 5.26969L21.6699 5.29802ZM19.9043 5.19548C19.9021 5.21451 19.9013 5.23452 19.9014 5.25505L19.9053 5.19548C19.9097 5.15738 19.9171 5.12287 19.9248 5.09489L19.9043 5.19548ZM20.8799 5.17692C20.934 5.18079 20.9863 5.18556 21.0361 5.19059L20.8799 5.17594C20.8256 5.17207 20.7694 5.1701 20.7119 5.17009L20.8799 5.17692ZM16.833 4.39958C16.802 4.47639 16.7726 4.55352 16.7441 4.63102L16.834 4.39958C16.8962 4.24578 16.9624 4.09231 17.0303 3.93571L16.833 4.39958ZM21.3125 3.46012C21.1514 3.80255 20.9829 4.15485 20.7764 4.49528C20.9828 4.15507 21.1515 3.80331 21.3125 3.4611V3.46012ZM21.0176 1.52848C21.2038 1.55675 21.3338 1.60239 21.417 1.65544C21.3341 1.60225 21.2041 1.55581 21.0176 1.52751C20.957 1.51833 20.893 1.51209 20.8262 1.507L21.0176 1.52848ZM20.1602 1.50505C19.8642 1.52008 19.5589 1.55006 19.2715 1.57829C19.2511 1.58029 19.2302 1.58314 19.21 1.58512L19.2715 1.57927C19.5589 1.55104 19.8641 1.52106 20.1602 1.50602C20.2398 1.50198 20.3181 1.49876 20.3945 1.49723C20.3181 1.49876 20.2398 1.501 20.1602 1.50505ZM21.8721 1.44352C21.8897 1.46894 21.9053 1.49463 21.9189 1.52067C21.8916 1.46822 21.8566 1.4168 21.8125 1.36735L21.8721 1.44352Z" fill="black"/>
<path d="M20.3779 0.701336L20.3515 -0.598396L20.3397 -0.598156L20.328 -0.597704L20.3779 0.701336ZM21.125 0.740398L21.3779 -0.534769L21.349 -0.540495L21.3199 -0.544908L21.125 0.740398ZM21.3564 0.786296L21.6762 -0.473766L21.643 -0.4822L21.6093 -0.488871L21.3564 0.786296ZM22.0361 1.16813L23.0567 0.362898L23.0324 0.332113L23.0063 0.302847L22.0361 1.16813ZM22.1201 1.27458L23.19 0.536161L23.1664 0.501964L23.1407 0.469344L22.1201 1.27458ZM22.2969 1.94352L23.5861 2.11064L23.5904 2.07755L23.593 2.04427L22.2969 1.94352ZM22.2832 2.04899L23.5645 2.26843L23.569 2.24235L23.5724 2.21611L22.2832 2.04899ZM22.1836 2.37614L23.3463 2.95752L23.3634 2.92346L23.3784 2.88845L22.1836 2.37614ZM22.0703 2.6027L23.2075 3.23265L23.2208 3.20864L23.2331 3.18408L22.0703 2.6027ZM21.8516 3.02458L20.684 2.45293L20.6806 2.45991L20.6772 2.46693L21.8516 3.02458ZM21.584 3.58805L20.4097 3.0304L20.4076 3.03474L21.584 3.58805ZM21.1865 4.38298L22.3127 5.03238L22.3191 5.02126L22.3253 5.01002L21.1865 4.38298ZM21.0322 4.65055L22.1272 5.35132L22.1434 5.326L22.1584 5.29996L21.0322 4.65055ZM20.9697 4.74821L22.0583 5.45901L22.0647 5.44898L20.9697 4.74821ZM20.8877 4.87614L19.7899 4.1799L18.6189 6.02632L20.8004 6.1732L20.8877 4.87614ZM21.0664 4.89274L20.9359 6.18617L20.9493 6.18753L20.9627 6.1886L21.0664 4.89274ZM21.0908 4.89469L21.1953 3.5989L21.1945 3.59883L21.0908 4.89469ZM21.333 4.91423L21.2285 6.21002L21.2807 6.21423H21.333V4.91423ZM21.3467 4.91423L21.4127 3.6159L21.3797 3.61423H21.3467V4.91423ZM21.4619 4.92009L21.5794 3.62541L21.5537 3.62307L21.5279 3.62176L21.4619 4.92009ZM21.6328 4.95036L22.0554 3.72097L22.0251 3.71055L21.9944 3.70164L21.6328 4.95036ZM21.6953 4.97184L22.1711 3.76205L22.1447 3.75167L22.1179 3.74245L21.6953 4.97184ZM21.9326 5.132L22.9714 4.35042L22.9308 4.29638L22.8847 4.24685L21.9326 5.132ZM22.0098 5.23454L23.1215 4.56071L23.0877 4.50501L23.0486 4.45296L22.0098 5.23454ZM22.1045 5.58122L23.4045 5.58144L23.4045 5.5812L22.1045 5.58122ZM22.002 6.02946L23.1608 6.61868L23.1735 6.59353L23.1852 6.56784L22.002 6.02946ZM21.9434 6.14469L23.0725 6.78889L23.088 6.76176L23.1022 6.73392L21.9434 6.14469ZM21.8096 6.34489L22.8134 7.17091L22.8304 7.15022L22.8466 7.12885L21.8096 6.34489ZM21.6689 6.51579L22.6229 7.39894L22.6487 7.3711L22.6728 7.34181L21.6689 6.51579ZM21.4619 6.73942L22.404 7.6352L22.41 7.62892L22.4159 7.62257L21.4619 6.73942ZM21.4053 6.79899L20.4632 5.90321L20.4453 5.92202L20.4282 5.94152L21.4053 6.79899ZM21.2373 6.9904L20.2602 6.13293L20.2189 6.17995L20.1824 6.23072L21.2373 6.9904ZM20.8154 7.62712L19.7104 6.94233L19.7053 6.95062L19.7003 6.95898L20.8154 7.62712ZM20.4111 8.30192L19.296 7.63379L19.285 7.65201L19.2747 7.67059L20.4111 8.30192ZM20.3965 8.32829L21.5178 8.98608L21.5255 8.97294L21.5329 8.95962L20.3965 8.32829ZM19.7686 9.35856L20.8431 10.0902L20.8495 10.0808L20.8558 10.0712L19.7686 9.35856ZM19.5352 9.70134L20.6038 10.4417L20.6097 10.433L19.5352 9.70134ZM19.2334 10.1369L18.1648 9.39652L18.1595 9.40432L19.2334 10.1369ZM18.1084 11.59L19.0113 12.5253L19.0245 12.5126L19.0373 12.4995L18.1084 11.59ZM17.9111 11.7804L17.0082 10.8451L16.9934 10.8595L16.979 10.8742L17.9111 11.7804ZM17.8086 11.8859L16.8765 10.9797L16.8699 10.9865L16.8635 10.9933L17.8086 11.8859ZM17.7588 11.9386L18.702 12.8333L18.7039 12.8313L17.7588 11.9386ZM17.6416 12.0549L18.4576 13.0669L18.4902 13.0405L18.5211 13.0122L17.6416 12.0549ZM17.4854 12.1808L18.2322 13.2449L18.2676 13.22L18.3013 13.1929L17.4854 12.1808ZM17.4258 12.2199L17.9852 13.3934L18.0301 13.3719L18.0733 13.3472L17.4258 12.2199ZM17.3418 12.2599L17.8203 13.4686L17.8614 13.4524L17.9012 13.4334L17.3418 12.2599ZM16.9863 12.2785L16.613 13.5237L16.6155 13.5245L16.9863 12.2785ZM16.6689 12.0226L15.48 12.5485L15.5065 12.6083L15.5388 12.6651L16.6689 12.0226ZM16.624 11.9211L15.3917 12.335L15.4108 12.392L15.4351 12.4469L16.624 11.9211ZM16.5928 11.6847L15.3094 11.4775L15.2987 11.5435L15.2949 11.6103L16.5928 11.6847ZM16.6182 11.5275L17.9015 11.7348L17.9182 11.6318V11.5275H16.6182ZM16.6182 11.5256L15.3491 11.2435L15.3182 11.3829V11.5256H16.6182ZM16.6221 11.508L17.8911 11.79L17.9055 11.7255L17.9132 11.6598L16.6221 11.508ZM16.7578 10.8078L15.4962 10.4941L15.4942 10.5023L16.7578 10.8078ZM16.8486 10.4425L15.5874 10.1272L15.5871 10.1288L16.8486 10.4425ZM16.9512 10.0324L18.2124 10.3477L18.2145 10.3392L18.2165 10.3308L16.9512 10.0324ZM17.0352 9.63493L18.3142 9.86734L18.3172 9.85086L18.3198 9.83431L17.0352 9.63493ZM17.1123 9.13786L18.397 9.33724L18.3983 9.32804L17.1123 9.13786ZM17.1328 8.99919L15.8485 8.79737L15.8468 8.809L17.1328 8.99919ZM17.1865 8.65739L15.9056 8.43528L15.9039 8.44542L15.9023 8.45558L17.1865 8.65739ZM17.2578 8.30094L15.9995 7.97456L15.9952 7.99088L15.9914 8.0073L17.2578 8.30094ZM17.3389 7.98844L16.0889 7.63138L16.0845 7.64667L16.0805 7.66206L17.3389 7.98844ZM17.4277 7.69255L18.6706 8.07377L18.6738 8.06301L17.4277 7.69255ZM17.4385 7.65641L18.6846 8.02689L18.6875 8.01672L17.4385 7.65641ZM17.585 7.1486L18.834 7.50891L18.8462 7.46688L18.8554 7.42412L17.585 7.1486ZM17.6377 6.90544L18.9082 7.18096L18.9139 7.15459L18.9185 7.128L17.6377 6.90544ZM17.6631 6.44352L18.9582 6.33063L18.8586 5.18854L17.713 5.14448L17.6631 6.44352ZM17.4854 6.43669L17.5353 5.13765L17.4966 5.13616L17.4578 5.13698L17.4854 6.43669ZM17.3008 6.44059L17.2733 5.14088L17.2653 5.14105L17.2574 5.14132L17.3008 6.44059ZM17.1318 6.4445V5.1445H17.1317L17.1318 6.4445ZM16.9707 6.44841L17.0139 7.74769L17.014 7.74768L16.9707 6.44841ZM16.4268 6.43571L16.5908 5.14611L16.5564 5.14173L16.5218 5.13919L16.4268 6.43571ZM16.4219 6.43669L16.5078 5.13951L16.5011 5.1391L16.4219 6.43669ZM16.4072 6.43571L16.4851 5.13798L16.4721 5.13733L16.4072 6.43571ZM16.3877 6.43473L16.2583 7.72828L16.2905 7.7315L16.3228 7.73311L16.3877 6.43473ZM16.2607 6.42204L16.073 7.70842L16.1021 7.71266L16.1314 7.71559L16.2607 6.42204ZM16.04 6.35856L15.4816 7.53252L15.4835 7.53339L16.04 6.35856ZM15.7002 5.82048H14.4002V5.82078L15.7002 5.82048ZM15.8008 5.06364L14.5647 4.66101L14.559 4.67843L14.5538 4.696L15.8008 5.06364ZM15.8984 4.76384L14.6659 4.35034L14.6624 4.3612L15.8984 4.76384ZM15.9492 4.61247L14.7191 4.19198L14.7167 4.19899L15.9492 4.61247ZM16.041 4.34391L14.821 3.89506L14.8158 3.90919L14.8109 3.92344L16.041 4.34391ZM16.3564 3.57634L17.5494 4.09289L17.5518 4.08735L16.3564 3.57634ZM16.5234 3.18571L15.3313 2.66722L15.3281 2.6747L16.5234 3.18571ZM16.6572 2.87809L15.4762 2.33479L15.4705 2.34714L15.4651 2.35961L16.6572 2.87809ZM17.1064 2.00212L18.2436 2.63206L18.2591 2.60418L18.2731 2.57557L17.1064 2.00212ZM17.2197 1.77165L18.3864 2.3451L18.3931 2.33153L18.3994 2.31781L17.2197 1.77165ZM17.2441 1.71891L16.0761 1.14818L16.0702 1.1604L16.0644 1.17275L17.2441 1.71891ZM17.3281 1.54704L16.1773 0.942471L16.1684 0.959262L16.1601 0.976304L17.3281 1.54704ZM17.4404 1.35856L16.4004 0.578562L16.3824 0.602543L16.3656 0.627328L17.4404 1.35856ZM17.5137 1.26091L16.5059 0.439647L16.4894 0.459951L16.4737 0.480906L17.5137 1.26091ZM17.8252 0.991375L17.2607 -0.179684L17.2185 -0.159333L17.1779 -0.135994L17.8252 0.991375ZM17.9609 0.925945L17.4808 -0.282141L17.438 -0.265122L17.3965 -0.245113L17.9609 0.925945ZM18.4082 0.845867V2.14587H18.4082L18.4082 0.845867ZM19.1406 0.792156L19.0196 -0.50221L19.0139 -0.501651L19.1406 0.792156ZM19.6523 0.744304L19.5406 -0.550913L19.5313 -0.550049L19.6523 0.744304ZM20.124 0.711101L20.0741 -0.587938L20.0661 -0.587631L20.0581 -0.587225L20.124 0.711101ZM17.709 11.5588L18.5872 12.5173L18.6004 12.5051L18.6134 12.4926L17.709 11.5588ZM17.5889 11.6808L16.6386 10.7937L18.5118 12.5963L17.5889 11.6808ZM17.709 11.5597L16.831 10.601L16.808 10.6221L16.786 10.6442L17.709 11.5597ZM17.8945 11.3791L18.8236 12.2884L16.9902 10.4452L17.8945 11.3791ZM16.7227 11.5519L16.4267 12.8178L16.5379 12.8438L16.6518 12.85L16.7227 11.5519ZM16.8838 11.5607L16.813 12.8588L17.0279 10.2687L16.8838 11.5607ZM16.6475 11.5343L16.7916 10.2424L16.3515 12.8002L16.6475 11.5343ZM16.6182 11.5402L15.3221 11.4392L15.3182 11.4896V11.5402H16.6182ZM16.6182 11.547H15.3182V12.786L16.5557 12.8455L16.6182 11.547ZM16.7197 11.5519L16.6489 12.85L17.0166 10.2863L16.7197 11.5519ZM16.6406 11.5334L16.9375 10.2677L16.8489 10.2469L16.7583 10.2387L16.6406 11.5334ZM16.6191 11.5314L16.7368 10.2368L15.4665 10.1213L15.3269 11.3892L16.6191 11.5314ZM17.7715 10.8156L18.7469 11.675L18.7547 11.6661L18.7624 11.6571L17.7715 10.8156ZM17.6172 10.9836L16.6805 10.0821L18.5536 11.8853L17.6172 10.9836ZM17.9199 10.6408L18.9275 11.4622L16.929 9.79933L17.9199 10.6408ZM17.3271 9.70134L18.6057 9.93644L16.0486 9.46621L17.3271 9.70134ZM17.2109 10.2297L15.9484 9.91979L18.4734 10.5397L17.2109 10.2297ZM20.1758 1.80485L20.1308 0.50563L20.1203 0.505993L20.1098 0.506525L20.1758 1.80485ZM19.7383 1.8361L19.6263 0.540901L19.6169 0.541777L19.7383 1.8361ZM19.3008 1.87712L19.1794 0.582791L19.1775 0.582973L19.3008 1.87712ZM19.2393 1.88298L19.116 0.588827L19.1125 0.589171L19.2393 1.88298ZM18.4082 1.94157V3.24157H18.4082L18.4082 1.94157ZM18.3467 1.94743L18.0359 0.685116L17.9852 0.697611L17.9356 0.714141L18.3467 1.94743ZM18.335 1.95134L17.9239 0.718047L17.7862 0.763921L17.6621 0.839004L18.335 1.95134ZM18.3281 1.95719L17.4143 1.03258L17.3619 1.08433L17.3157 1.14167L18.3281 1.95719ZM18.2998 1.99235L17.2874 1.17682L17.2539 1.21842L17.2239 1.26262L18.2998 1.99235ZM18.2529 2.07243L17.101 1.46985L17.0917 1.48765L17.083 1.50572L18.2529 2.07243ZM18.1924 2.19743L17.0224 1.63072L17.0186 1.63849L17.015 1.64631L18.1924 2.19743ZM18.1709 2.24333L19.3359 2.82023L19.3422 2.80741L19.3483 2.79445L18.1709 2.24333ZM18.0195 2.54899L19.1567 3.17895L19.1712 3.15275L19.1845 3.1259L18.0195 2.54899ZM17.6074 3.35075L16.4264 2.80735L16.4205 2.8203L16.4148 2.83337L17.6074 3.35075ZM17.4922 3.61637L16.2995 3.09898L16.2959 3.1075L17.4922 3.61637ZM17.3057 4.05485L18.4985 4.57167L18.5019 4.56373L17.3057 4.05485ZM17.0254 4.73356L15.8051 4.28529L15.7998 4.29979L15.7948 4.31441L17.0254 4.73356ZM16.9492 4.95719L15.7186 4.53803L15.7153 4.54793L16.9492 4.95719ZM16.8838 5.15446L18.1135 5.57638L18.1177 5.56372L16.8838 5.15446ZM16.8174 5.35466L15.574 4.97505L15.0454 6.70645L16.855 6.65411L16.8174 5.35466ZM16.8926 5.35368L16.8661 4.05395L16.8567 4.05414L16.8473 4.05447L16.8926 5.35368ZM17.1318 5.3488V4.0488H17.1186L17.1053 4.04907L17.1318 5.3488ZM17.2334 5.34587L17.2068 4.04614L17.1989 4.0463L17.191 4.04656L17.2334 5.34587ZM17.4717 5.34098L17.4689 4.04099L17.457 4.04101L17.445 4.04126L17.4717 5.34098ZM17.7539 5.35173L17.9419 4.06539L17.9064 4.06021L17.8707 4.05699L17.7539 5.35173ZM17.9678 5.38298L18.2419 4.1122L18.1991 4.10297L18.1557 4.09664L17.9678 5.38298ZM18.2021 5.45915L18.829 4.32025L18.7839 4.29546L18.7371 4.2743L18.2021 5.45915ZM18.3281 5.52848L19.046 4.44466L19.0016 4.41526L18.955 4.38959L18.3281 5.52848ZM18.6553 5.98844L19.9312 5.73963L19.9256 5.71073L19.9187 5.68211L18.6553 5.98844ZM18.6934 6.18376L19.9781 5.98502L19.9742 5.95989L19.9693 5.93494L18.6934 6.18376ZM18.6748 7.09684L19.9459 7.36923L19.9514 7.34377L19.9558 7.31811L18.6748 7.09684ZM18.6045 7.42497L19.8658 7.73996L19.8711 7.71874L19.8756 7.69736L18.6045 7.42497ZM18.5254 7.71305L19.7706 8.08662L19.7731 8.07791L18.5254 7.71305ZM18.4316 8.02555L19.6745 8.40676L19.6768 8.39911L18.4316 8.02555ZM18.3486 8.30094L17.0987 7.94357L17.0946 7.95785L17.0909 7.97221L18.3486 8.30094ZM18.2812 8.55876L17.0235 8.23003L17.0189 8.24755L17.0148 8.26519L18.2812 8.55876ZM18.2227 8.85173L16.9418 8.62972L16.9399 8.64037L16.9382 8.65104L18.2227 8.85173ZM18.1738 9.16423L16.8894 8.96354L16.8881 8.97195L16.8869 8.98038L18.1738 9.16423ZM18.1553 9.29411L19.4397 9.49473L19.441 9.48635L19.4422 9.47796L18.1553 9.29411ZM18.0703 9.83805L19.3493 10.0706L19.3522 10.0547L19.3547 10.0387L18.0703 9.83805ZM18.0391 9.98356L16.765 9.72537L19.0986 10.7369L18.0391 9.98356ZM18.3545 9.53044L17.2853 8.7909L17.281 8.79726L18.3545 9.53044ZM18.6875 9.04899L19.7567 9.78853L19.7608 9.78248L18.6875 9.04899ZM18.9004 8.73747L19.9737 9.47095L19.9809 9.46044L19.9879 9.44978L18.9004 8.73747ZM19.502 7.74919L20.6232 8.407L20.631 8.39385L20.6384 8.38052L19.502 7.74919ZM19.5117 7.73161L18.5925 6.81237L18.4637 6.94111L18.3753 7.10027L19.5117 7.73161ZM19.5127 7.73063L20.4319 8.64987L20.5458 8.53603L20.6284 8.39787L19.5127 7.73063ZM19.9297 7.03337L18.8247 6.34845L18.8193 6.35725L18.814 6.36613L19.9297 7.03337ZM20.3945 6.33317L19.3794 5.52107L19.3588 5.54676L19.3396 5.57346L20.3945 6.33317ZM20.5234 6.17204L19.5452 5.31583L19.5263 5.33747L19.5083 5.35994L20.5234 6.17204ZM20.6543 6.03044L21.5982 6.9244L21.6018 6.92052L20.6543 6.03044ZM20.7148 5.96598L21.6623 6.85606L23.7197 4.66598H20.7148V5.96598ZM20.1855 5.90934L19.8084 7.15342L19.8428 7.16386L19.8778 7.17238L20.1855 5.90934ZM20.002 5.85368L19.5606 7.07647L19.5924 7.08795L19.6248 7.09776L20.002 5.85368ZM19.7852 5.71598L18.7991 6.56316L18.8313 6.60064L18.8663 6.63557L19.7852 5.71598ZM19.7256 5.64665L18.6776 6.4159L18.7071 6.45605L18.7395 6.49382L19.7256 5.64665ZM19.6455 5.49919L18.3876 5.82734L18.4055 5.89597L18.4308 5.96225L19.6455 5.49919ZM19.6104 5.36442L18.3258 5.56441L18.3359 5.62916L18.3524 5.69257L19.6104 5.36442ZM19.6357 5.01579L18.4014 4.60783L18.391 4.63935L18.3822 4.67135L19.6357 5.01579ZM19.6738 4.90055L18.4567 4.44372L18.4476 4.46798L18.4395 4.4926L19.6738 4.90055ZM19.8203 4.58805L18.7019 3.92542L18.6901 3.94522L18.6791 3.96543L19.8203 4.58805ZM19.9893 4.3029L18.8934 3.60361L18.8818 3.62175L18.8708 3.64026L19.9893 4.3029ZM20.1201 4.09782L19.032 3.38654L19.0281 3.39252L19.0242 3.39853L20.1201 4.09782ZM20.1367 4.07243L21.2271 4.78033L21.2272 4.78011L20.1367 4.07243ZM20.1416 4.06559L21.2304 4.7759L21.2421 4.75801L21.2531 4.73975L20.1416 4.06559ZM20.6377 3.10661L21.8141 3.65993L21.8155 3.65689L20.6377 3.10661ZM20.6934 2.98747L19.5198 2.42806L19.5156 2.43719L20.6934 2.98747ZM20.9131 2.52653L19.7456 1.95458L19.7396 1.96713L20.9131 2.52653ZM21.1572 2.05485L22.2944 2.68476L22.3048 2.66595L22.3146 2.64681L21.1572 2.05485ZM21.2227 1.92692L22.3801 2.51888L22.3985 2.48275L22.4147 2.44553L21.2227 1.92692ZM21.2324 1.89665L22.4534 2.34305L22.8523 1.25185L21.8126 0.733304L21.2324 1.89665ZM21.207 1.88395L21.7047 0.682984L21.7035 0.682497L21.207 1.88395ZM21.1123 1.8527L21.4399 0.59465L21.4055 0.585699L21.3707 0.578638L21.1123 1.8527ZM20.9727 1.82438L21.231 0.550318L21.1994 0.543901L21.1675 0.539063L20.9727 1.82438ZM20.4014 1.79704L20.3756 0.497294L20.366 0.497485L20.3564 0.497818L20.4014 1.79704ZM17.8164 6.16325L18.0909 4.89255L18.0479 4.88327L18.0044 4.87692L17.8164 6.16325ZM17.9053 6.19059L18.4419 5.00653L18.4391 5.00524L17.9053 6.19059ZM17.9287 6.20329L19.1956 5.9118L19.0785 5.40291L18.6419 5.11642L17.9287 6.20329ZM17.9326 6.95719L16.6517 6.73499L19.2134 7.18004L17.9326 6.95719ZM17.9287 6.20231L19.1955 5.91045L19.0775 5.39828L18.6367 5.11203L17.9287 6.20231ZM17.6895 6.14469L17.8062 4.84994L17.5015 7.43103L17.6895 6.14469ZM20.749 6.3693L19.7954 5.48579L19.784 5.49809L19.7729 5.51067L20.749 6.3693ZM20.6377 6.50798L19.5832 5.74771L21.6486 7.32531L20.6377 6.50798ZM20.749 6.37028L19.7708 5.51407L19.7541 5.53318L19.7381 5.55294L20.749 6.37028ZM20.8721 6.23649L21.8257 7.12L19.9282 5.34255L20.8721 6.23649ZM16.127 6.06266L15.2697 7.03995L15.3274 7.09055L15.3906 7.13401L16.127 6.06266ZM16.1689 6.08708L15.6127 7.26207L16.7255 4.91223L16.1689 6.08708ZM16.0713 6.01384L16.9286 5.03655L15.1008 6.87881L16.0713 6.01384ZM20.9941 5.68473L21.1289 4.39173L21.1042 4.38916L21.0794 4.38753L20.9941 5.68473ZM21.0205 5.68669L20.8891 6.98003L21.1641 4.39464L21.0205 5.68669ZM20.9941 5.68376L21.1377 4.39165L21.125 4.39037L20.9941 5.68376ZM20.7119 5.66618L20.7123 4.36618L20.6266 6.96338L20.7119 5.66618ZM17.9043 5.67692L18.1779 4.40605L18.1373 4.39729L18.0961 4.39115L17.9043 5.67692ZM17.9277 5.68278L17.6264 6.94736L18.2307 4.41857L17.9277 5.68278ZM17.7275 5.65055L17.8451 4.35588L17.5357 6.93633L17.7275 5.65055ZM16.7012 5.65837L16.6156 6.95555L16.6741 6.95941L16.7327 6.95798L16.7012 5.65837ZM16.9023 5.65348L16.9476 6.9527L16.8708 4.35387L16.9023 5.65348ZM16.5088 5.64567L16.5944 4.34849L16.3333 6.93378L16.5088 5.64567ZM21.7812 5.44938L23.001 4.99979L22.9806 4.94446L22.9553 4.89122L21.7812 5.44938ZM21.79 5.48063L20.5346 5.81816L23.0459 5.14483L21.79 5.48063ZM21.7529 5.38981L22.865 4.71651L20.5789 5.94798L21.7529 5.38981ZM21.6699 5.29802L22.4548 4.26169L22.4209 4.23599L22.3853 4.21257L21.6699 5.29802ZM21.7129 5.3361L20.8395 6.29904L22.665 4.45095L21.7129 5.3361ZM21.6709 5.29802L22.5443 4.33508L22.5014 4.29619L22.4552 4.26126L21.6709 5.29802ZM21.627 5.26969L22.244 4.12549L20.9115 6.35514L21.627 5.26969ZM19.9043 5.19548L18.6305 4.93577L18.6192 4.99132L18.6127 5.04764L19.9043 5.19548ZM19.9014 5.25505L18.6014 5.26045L21.1986 5.34011L19.9014 5.25505ZM19.9053 5.19548L18.6139 5.04602L18.6102 5.07815L18.6081 5.11041L19.9053 5.19548ZM19.9248 5.09489L21.1986 5.3546L18.6714 4.75008L19.9248 5.09489ZM20.8799 5.17692L20.9726 3.88023L20.9527 3.87881L20.9327 3.878L20.8799 5.17692ZM21.0361 5.19059L20.9148 6.48492L21.1667 3.89716L21.0361 5.19059ZM20.8799 5.17594L21.0012 3.88162L20.9868 3.88027L20.9724 3.87924L20.8799 5.17594ZM20.7119 5.17009L20.7122 3.87009L20.6591 6.46901L20.7119 5.17009ZM16.833 4.39958L15.6367 3.89083L15.632 3.90189L15.6275 3.91303L16.833 4.39958ZM16.7441 4.63102L15.5238 4.18289L17.956 5.10146L16.7441 4.63102ZM16.834 4.39958L15.6288 3.91226L15.6254 3.92067L15.6221 3.92914L16.834 4.39958ZM17.0303 3.93571L18.2266 4.44446L15.8374 3.4189L17.0303 3.93571ZM21.3125 3.46012H22.6125L20.1361 2.90682L21.3125 3.46012ZM20.7764 4.49528L19.6649 3.82096L21.8878 5.16962L20.7764 4.49528ZM21.3125 3.4611L22.4889 4.01442L22.6125 3.75157V3.4611H21.3125ZM21.0176 1.52848L21.2126 0.243199L21.1877 0.239412L21.1626 0.236597L21.0176 1.52848ZM21.417 1.65544L20.7179 2.75148L22.1188 0.561148L21.417 1.65544ZM21.0176 1.52751L21.2126 0.24222L21.2124 0.242183L21.0176 1.52751ZM20.8262 1.507L20.9249 0.21075L20.6812 2.79889L20.8262 1.507ZM20.1602 1.50505L20.0942 0.206719L20.0942 0.20672L20.1602 1.50505ZM19.2715 1.57829L19.3985 2.87207L19.3986 2.87206L19.2715 1.57829ZM19.21 1.58512L19.0832 0.291315L19.3332 2.87927L19.21 1.58512ZM19.2715 1.57927L19.3947 2.87341L19.3986 2.87304L19.2715 1.57927ZM20.1602 1.50602L20.0942 0.207696L20.0942 0.207697L20.1602 1.50602ZM20.3945 1.49723L20.4205 2.79697L20.3686 0.197492L20.3945 1.49723ZM21.8721 1.44352L22.9408 0.70344L22.9194 0.672408L22.8961 0.642676L21.8721 1.44352ZM21.9189 1.52067L20.7671 2.12341L23.0716 0.91944L21.9189 1.52067ZM21.8125 1.36735L22.7832 0.502581L20.7885 2.1682L21.8125 1.36735ZM20.3779 0.701336L20.4044 2.00107C20.6191 1.9967 20.7955 2.00529 20.9301 2.0257L21.125 0.740398L21.3199 -0.544908C20.9844 -0.595785 20.6466 -0.604398 20.3515 -0.598396L20.3779 0.701336ZM21.125 0.740398L20.8721 2.01557L21.1036 2.06146L21.3564 0.786296L21.6093 -0.488871L21.3779 -0.534769L21.125 0.740398ZM21.3564 0.786296L21.0367 2.04636C21.0585 2.0519 21.0754 2.05726 21.0879 2.06187C21.1005 2.06647 21.1069 2.0697 21.1085 2.07053C21.1099 2.0713 21.1056 2.06918 21.0976 2.06305C21.0893 2.05674 21.078 2.04697 21.0659 2.03342L22.0361 1.16813L23.0063 0.302847C22.5803 -0.174792 22.0505 -0.378776 21.6762 -0.473766L21.3564 0.786296ZM22.0361 1.16813L21.0155 1.97337L21.0995 2.07981L22.1201 1.27458L23.1407 0.469344L23.0567 0.362898L22.0361 1.16813ZM22.1201 1.27458L21.0502 2.01299C21.0313 1.98563 21.0163 1.95195 21.0078 1.91718C20.9998 1.8844 20.9995 1.85868 21.0008 1.84277L22.2969 1.94352L23.593 2.04427C23.6292 1.57866 23.5341 1.03473 23.19 0.536161L22.1201 1.27458ZM22.2969 1.94352L21.0077 1.7764L20.994 1.88187L22.2832 2.04899L23.5724 2.21611L23.5861 2.11064L22.2969 1.94352ZM22.2832 2.04899L21.0019 1.82955C21.0027 1.82444 21.0029 1.82534 21.0007 1.83252C20.9985 1.83962 20.9947 1.85009 20.9888 1.86383L22.1836 2.37614L23.3784 2.88845C23.4467 2.72919 23.522 2.51705 23.5645 2.26843L22.2832 2.04899ZM22.1836 2.37614L21.0208 1.79476L20.9076 2.02132L22.0703 2.6027L23.2331 3.18408L23.3463 2.95752L22.1836 2.37614ZM22.0703 2.6027L20.9331 1.97275C20.8435 2.13452 20.7614 2.29491 20.684 2.45293L21.8516 3.02458L23.0191 3.59623C23.0825 3.46675 23.1442 3.3468 23.2075 3.23265L22.0703 2.6027ZM21.8516 3.02458L20.6772 2.46693L20.4097 3.03041L21.584 3.58805L22.7583 4.1457L23.0259 3.58223L21.8516 3.02458ZM21.584 3.58805L20.4076 3.03474C20.2876 3.28999 20.1739 3.52686 20.0477 3.75593L21.1865 4.38298L22.3253 5.01002C22.4947 4.70239 22.6385 4.40034 22.7604 4.14137L21.584 3.58805ZM21.1865 4.38298L20.0603 3.73357L19.906 4.00115L21.0322 4.65055L22.1584 5.29996L22.3127 5.03238L21.1865 4.38298ZM21.0322 4.65055L19.9373 3.94978L19.8748 4.04744L20.9697 4.74821L22.0647 5.44898L22.1272 5.35132L21.0322 4.65055ZM20.9697 4.74821L19.8812 4.03744C19.852 4.08224 19.8205 4.13159 19.7899 4.1799L20.8877 4.87614L21.9855 5.57238C22.0145 5.52667 22.0386 5.489 22.0582 5.45898L20.9697 4.74821ZM20.8877 4.87614L20.8004 6.1732C20.8367 6.17565 20.863 6.17881 20.9359 6.18617L21.0664 4.89274L21.1969 3.59931C21.1626 3.59584 21.0682 3.58535 20.975 3.57908L20.8877 4.87614ZM21.0664 4.89274L20.9627 6.1886L20.9872 6.19055L21.0908 4.89469L21.1945 3.59883L21.1701 3.59688L21.0664 4.89274ZM21.0908 4.89469L20.9863 6.19049L21.2285 6.21002L21.333 4.91423L21.4375 3.61843L21.1953 3.5989L21.0908 4.89469ZM21.333 4.91423V6.21423H21.3467V4.91423V3.61423H21.333V4.91423ZM21.3467 4.91423L21.2807 6.21255L21.3959 6.21841L21.4619 4.92009L21.5279 3.62176L21.4127 3.6159L21.3467 4.91423ZM21.4619 4.92009L21.3444 6.21477C21.3444 6.21477 21.3432 6.21466 21.3409 6.21437C21.3386 6.21409 21.3348 6.21356 21.3294 6.21267C21.3198 6.21105 21.2995 6.20725 21.2713 6.19907L21.6328 4.95036L21.9944 3.70164C21.8262 3.65297 21.6755 3.63412 21.5794 3.62541L21.4619 4.92009ZM21.6328 4.95036L21.2102 6.17975L21.2727 6.20124L21.6953 4.97184L22.1179 3.74245L22.0554 3.72097L21.6328 4.95036ZM21.6953 4.97184L21.2195 6.18164C21.1619 6.15898 21.0682 6.11145 20.9805 6.01715L21.9326 5.132L22.8847 4.24685C22.6389 3.98245 22.3686 3.8397 22.1711 3.76205L21.6953 4.97184ZM21.9326 5.132L20.8938 5.91358L20.971 6.01612L22.0098 5.23454L23.0486 4.45296L22.9714 4.35042L21.9326 5.132ZM22.0098 5.23454L20.898 5.90836C20.8285 5.7937 20.8045 5.6777 20.8045 5.58124L22.1045 5.58122L23.4045 5.5812C23.4045 5.24813 23.3209 4.88974 23.1215 4.56071L22.0098 5.23454ZM22.1045 5.58122L20.8045 5.581C20.8045 5.51948 20.821 5.48586 20.8187 5.49108L22.002 6.02946L23.1852 6.56784C23.2961 6.32411 23.4044 5.98687 23.4045 5.58144L22.1045 5.58122ZM22.002 6.02946L20.8432 5.44024L20.7846 5.55547L21.9434 6.14469L23.1022 6.73392L23.1608 6.61868L22.002 6.02946ZM21.9434 6.14469L20.8142 5.5005C20.8094 5.50898 20.7973 5.5282 20.7725 5.56094L21.8096 6.34489L22.8466 7.12885C22.9159 7.0372 22.9963 6.92251 23.0725 6.78889L21.9434 6.14469ZM21.8096 6.34489L20.8057 5.51887L20.6651 5.68977L21.6689 6.51579L22.6728 7.34181L22.8134 7.17091L21.8096 6.34489ZM21.6689 6.51579L20.715 5.63264L20.5079 5.85627L21.4619 6.73942L22.4159 7.62257L22.6229 7.39894L21.6689 6.51579ZM21.4619 6.73942L20.5198 5.84364L20.4632 5.90321L21.4053 6.79899L22.3474 7.69477L22.404 7.6352L21.4619 6.73942ZM21.4053 6.79899L20.4282 5.94152L20.2602 6.13293L21.2373 6.9904L22.2144 7.84786L22.3824 7.65646L21.4053 6.79899ZM21.2373 6.9904L20.1824 6.23072C20.0108 6.46903 19.8553 6.70853 19.7104 6.94233L20.8154 7.62712L21.9205 8.3119C22.0463 8.10888 22.1674 7.92349 22.2922 7.75007L21.2373 6.9904ZM20.8154 7.62712L19.7003 6.95898L19.296 7.63379L20.4111 8.30192L21.5263 8.97005L21.9306 8.29525L20.8154 7.62712ZM20.4111 8.30192L19.2747 7.67059L19.2601 7.69695L20.3965 8.32829L21.5329 8.95962L21.5475 8.93326L20.4111 8.30192ZM20.3965 8.32829L19.2752 7.6705C19.0755 8.01085 18.8867 8.3326 18.6813 8.64591L19.7686 9.35856L20.8558 10.0712C21.1024 9.69499 21.3234 9.31748 21.5178 8.98608L20.3965 8.32829ZM19.7686 9.35856L18.694 8.62689L18.4606 8.96966L19.5352 9.70134L20.6097 10.433L20.8431 10.0902L19.7686 9.35856ZM19.5352 9.70134L18.4666 8.96099L18.1648 9.39654L19.2334 10.1369L20.302 10.8772L20.6037 10.4417L19.5352 9.70134ZM19.2334 10.1369L18.1595 9.40432C17.8278 9.89051 17.5315 10.321 17.1795 10.6805L18.1084 11.59L19.0373 12.4995C19.5765 11.9488 19.997 11.3244 20.3073 10.8694L19.2334 10.1369ZM18.1084 11.59L17.2055 10.6547L17.0082 10.8451L17.9111 11.7804L18.814 12.7157L19.0113 12.5253L18.1084 11.59ZM17.9111 11.7804L16.979 10.8742L16.8765 10.9797L17.8086 11.8859L18.7407 12.7921L18.8432 12.6866L17.9111 11.7804ZM17.8086 11.8859L16.8635 10.9933L16.8137 11.046L17.7588 11.9386L18.7039 12.8313L18.7537 12.7785L17.8086 11.8859ZM17.7588 11.9386L16.8156 11.044C16.7931 11.0678 16.7765 11.0842 16.7621 11.0975L17.6416 12.0549L18.5211 13.0122C18.5971 12.9423 18.6591 12.8784 18.702 12.8333L17.7588 11.9386ZM17.6416 12.0549L16.8256 11.0428L16.6694 11.1688L17.4854 12.1808L18.3013 13.1929L18.4576 13.0669L17.6416 12.0549ZM17.4854 12.1808L16.7385 11.1168C16.736 11.1185 16.7324 11.121 16.7316 11.1217C16.7299 11.1228 16.7293 11.1233 16.7289 11.1235C16.7284 11.1239 16.7305 11.1224 16.7342 11.1199C16.7417 11.1149 16.7571 11.1048 16.7783 11.0926L17.4258 12.2199L18.0733 13.3472C18.1582 13.2984 18.2283 13.2476 18.2322 13.2449L17.4854 12.1808ZM17.4258 12.2199L16.8663 11.0464L16.7824 11.0865L17.3418 12.2599L17.9012 13.4334L17.9852 13.3934L17.4258 12.2199ZM17.3418 12.2599L16.8633 11.0512C16.9099 11.0328 17.1073 10.9581 17.3571 11.0325L16.9863 12.2785L16.6155 13.5245C17.1985 13.698 17.6703 13.528 17.8203 13.4686L17.3418 12.2599ZM16.9863 12.2785L17.3596 11.0332C17.5887 11.1019 17.7296 11.258 17.7991 11.3801L16.6689 12.0226L15.5388 12.6651C15.7263 12.995 16.0714 13.3614 16.613 13.5237L16.9863 12.2785ZM16.6689 12.0226L17.8578 11.4968L17.8129 11.3952L16.624 11.9211L15.4351 12.4469L15.48 12.5485L16.6689 12.0226ZM16.624 11.9211L17.8564 11.5071C17.8962 11.6258 17.8928 11.7219 17.8906 11.7591L16.5928 11.6847L15.2949 11.6103C15.2886 11.7204 15.28 12.0026 15.3917 12.335L16.624 11.9211ZM16.5928 11.6847L17.8761 11.892L17.9015 11.7348L16.6182 11.5275L15.3348 11.3203L15.3094 11.4775L16.5928 11.6847ZM16.6182 11.5275H17.9182V11.5256H16.6182H15.3182V11.5275H16.6182ZM16.6182 11.5256L17.8872 11.8076L17.8911 11.79L16.6221 11.508L15.353 11.226L15.3491 11.2435L16.6182 11.5256ZM16.6221 11.508L17.9132 11.6598C17.9327 11.4935 17.9712 11.321 18.0214 11.1133L16.7578 10.8078L15.4942 10.5023C15.4426 10.7159 15.3704 11.0209 15.331 11.3561L16.6221 11.508ZM16.7578 10.8078L18.0194 11.1215L18.1102 10.7563L16.8486 10.4425L15.5871 10.1288L15.4962 10.4941L16.7578 10.8078ZM16.8486 10.4425L18.1098 10.7578L18.2124 10.3477L16.9512 10.0324L15.69 9.71709L15.5874 10.1272L16.8486 10.4425ZM16.9512 10.0324L18.2165 10.3308C18.2515 10.1824 18.285 10.028 18.3142 9.86734L17.0352 9.63493L15.7561 9.40251C15.7371 9.50708 15.7138 9.61575 15.6859 9.73403L16.9512 10.0324ZM17.0352 9.63493L18.3198 9.83431L18.3969 9.33724L17.1123 9.13786L15.8277 8.93848L15.7505 9.43555L17.0352 9.63493ZM17.1123 9.13786L18.3983 9.32804L18.4188 9.18937L17.1328 8.99919L15.8468 8.809L15.8263 8.94767L17.1123 9.13786ZM17.1328 8.99919L18.4171 9.201L18.4708 8.8592L17.1865 8.65739L15.9023 8.45558L15.8486 8.79738L17.1328 8.99919ZM17.1865 8.65739L18.4674 8.8795C18.4847 8.77956 18.5034 8.68451 18.5242 8.59459L17.2578 8.30094L15.9914 8.0073C15.9568 8.15658 15.9289 8.30122 15.9056 8.43528L17.1865 8.65739ZM17.2578 8.30094L18.5162 8.62733L18.5972 8.31483L17.3389 7.98844L16.0805 7.66206L15.9995 7.97456L17.2578 8.30094ZM17.3389 7.98844L18.5889 8.34551C18.6138 8.25833 18.6401 8.17307 18.6706 8.07375L17.4277 7.69255L16.1849 7.31134C16.1573 7.40114 16.1223 7.51437 16.0889 7.63138L17.3389 7.98844ZM17.4277 7.69255L18.6738 8.06301L18.6846 8.02688L17.4385 7.65641L16.1924 7.28595L16.1816 7.32208L17.4277 7.69255ZM17.4385 7.65641L18.6875 8.01672L18.834 7.50891L17.585 7.1486L16.3359 6.78829L16.1894 7.2961L17.4385 7.65641ZM17.585 7.1486L18.8554 7.42412L18.9082 7.18096L17.6377 6.90544L16.3672 6.62991L16.3145 6.87308L17.585 7.1486ZM17.6377 6.90544L18.9185 7.128C18.9623 6.87596 18.9825 6.6092 18.9582 6.33063L17.6631 6.44352L16.368 6.55641C16.3688 6.56612 16.3708 6.60296 16.3569 6.68288L17.6377 6.90544ZM17.6631 6.44352L17.713 5.14448L17.5353 5.13765L17.4854 6.43669L17.4354 7.73573L17.6131 7.74256L17.6631 6.44352ZM17.4854 6.43669L17.4578 5.13698L17.2733 5.14088L17.3008 6.44059L17.3283 7.7403L17.5129 7.7364L17.4854 6.43669ZM17.3008 6.44059L17.2574 5.14132C17.1954 5.14339 17.1604 5.1445 17.1318 5.1445V6.4445V7.7445C17.2129 7.7445 17.2955 7.74149 17.3442 7.73987L17.3008 6.44059ZM17.1318 6.4445L17.1317 5.1445C17.0605 5.14451 16.9833 5.14726 16.9274 5.14913L16.9707 6.44841L17.014 7.74768C17.0856 7.7453 17.1136 7.7445 17.1319 7.7445L17.1318 6.4445ZM16.9707 6.44841L16.9275 5.14912C16.8525 5.15162 16.7882 5.1535 16.7246 5.15296C16.6601 5.15242 16.6165 5.14937 16.5908 5.14611L16.4268 6.43571L16.2627 7.72531C16.5702 7.76444 16.8778 7.75221 17.0139 7.74769L16.9707 6.44841ZM16.4268 6.43571L16.5218 5.13919C16.456 5.13436 16.3968 5.13506 16.3461 5.1382C16.2955 5.14134 16.2512 5.14706 16.2146 5.15309C16.178 5.15913 16.1466 5.16593 16.1215 5.17197C16.0964 5.17803 16.0752 5.18393 16.0592 5.18864C16.0431 5.19335 16.03 5.19755 16.0211 5.20044C16.0124 5.20331 16.0055 5.20566 16.0027 5.20665C16.0011 5.20718 15.9999 5.2076 15.9997 5.20768C15.999 5.20791 15.9999 5.20761 16.0004 5.20742C16.0018 5.20693 16.0064 5.20536 16.0122 5.2034C16.024 5.19948 16.0457 5.19239 16.0732 5.18467C16.1012 5.17684 16.1372 5.16774 16.1797 5.15964C16.2223 5.15149 16.2719 5.14426 16.3273 5.14019C16.3829 5.1361 16.4434 5.13526 16.5078 5.13953L16.4219 6.43669L16.336 7.73385C16.4009 7.73815 16.4619 7.73731 16.518 7.73318C16.5739 7.72907 16.624 7.72177 16.6671 7.71353C16.7101 7.70533 16.7466 7.69613 16.775 7.68817C16.803 7.68032 16.8251 7.67311 16.8372 7.66905C16.8433 7.66702 16.848 7.66538 16.8496 7.66482C16.8503 7.6646 16.8512 7.66427 16.8507 7.66446C16.8505 7.66451 16.8494 7.6649 16.848 7.6654C16.8453 7.66632 16.8386 7.66861 16.83 7.67142C16.8214 7.67425 16.8084 7.6784 16.7925 7.68306C16.7767 7.68773 16.7557 7.69358 16.7307 7.69959C16.7058 7.7056 16.6745 7.71237 16.6381 7.71838C16.6016 7.72439 16.5575 7.73009 16.507 7.73322C16.4565 7.73635 16.3974 7.73705 16.3317 7.73223L16.4268 6.43571ZM16.4219 6.43669L16.5011 5.1391C16.5051 5.13935 16.5084 5.13958 16.5053 5.13937C16.5034 5.13924 16.495 5.13864 16.4851 5.13805L16.4072 6.43571L16.3293 7.73337C16.3245 7.73309 16.3208 7.73282 16.3236 7.73301C16.3253 7.73313 16.3333 7.7337 16.3427 7.73427L16.4219 6.43669ZM16.4072 6.43571L16.4721 5.13733L16.4526 5.13636L16.3877 6.43473L16.3228 7.73311L16.3423 7.73409L16.4072 6.43571ZM16.3877 6.43473L16.5171 5.14119L16.3901 5.12849L16.2607 6.42204L16.1314 7.71559L16.2583 7.72828L16.3877 6.43473ZM16.2607 6.42204L16.4484 5.13566C16.4469 5.13543 16.4636 5.13777 16.4867 5.1436C16.5084 5.14907 16.5474 5.16042 16.5966 5.18374L16.04 6.35856L15.4835 7.53339C15.7525 7.66087 15.9959 7.69716 16.073 7.70842L16.2607 6.42204ZM16.04 6.35856L16.5984 5.1846C16.6506 5.20939 16.7337 5.25455 16.8151 5.34551C16.9157 5.45807 17.0002 5.62977 17.0002 5.82017L15.7002 5.82048L14.4002 5.82078C14.4005 6.97426 15.3112 7.45143 15.4816 7.53252L16.04 6.35856ZM15.7002 5.82048H17.0002V5.67594H15.7002H14.4002V5.82048H15.7002ZM15.7002 5.67594H17.0002C17.0002 5.62922 17.0117 5.55335 17.0477 5.43128L15.8008 5.06364L14.5538 4.696C14.4892 4.91533 14.4002 5.26656 14.4002 5.67594H15.7002ZM15.8008 5.06364L17.0369 5.46627L17.1345 5.16647L15.8984 4.76384L14.6624 4.3612L14.5647 4.66101L15.8008 5.06364ZM15.8984 4.76384L17.1309 5.17732L17.1817 5.02595L15.9492 4.61247L14.7167 4.19899L14.6659 4.35035L15.8984 4.76384ZM15.9492 4.61247L17.1793 5.03295L17.2711 4.76439L16.041 4.34391L14.8109 3.92344L14.7191 4.19199L15.9492 4.61247ZM16.041 4.34391L17.2611 4.79276C17.3442 4.56667 17.442 4.34107 17.5494 4.09288L16.3564 3.57634L15.1635 3.05979C15.0617 3.29486 14.9338 3.58846 14.821 3.89506L16.041 4.34391ZM16.3564 3.57634L17.5518 4.08735L17.7188 3.69672L16.5234 3.18571L15.3281 2.6747L15.1611 3.06532L16.3564 3.57634ZM16.5234 3.18571L17.7156 3.70419L17.8494 3.39658L16.6572 2.87809L15.4651 2.35961L15.3313 2.66723L16.5234 3.18571ZM16.6572 2.87809L17.8383 3.42139C17.9589 3.15923 18.0967 2.89733 18.2436 2.63206L17.1064 2.00212L15.9693 1.37217C15.8066 1.66577 15.6347 1.99032 15.4762 2.33479L16.6572 2.87809ZM17.1064 2.00212L18.2731 2.57557L18.3864 2.3451L17.2197 1.77165L16.053 1.19819L15.9398 1.42866L17.1064 2.00212ZM17.2197 1.77165L18.3994 2.31781L18.4238 2.26507L17.2441 1.71891L16.0644 1.17275L16.04 1.22549L17.2197 1.77165ZM17.2441 1.71891L18.4122 2.28965L18.4961 2.11777L17.3281 1.54704L16.1601 0.976304L16.0761 1.14818L17.2441 1.71891ZM17.3281 1.54704L18.479 2.15161C18.4935 2.12408 18.5061 2.10336 18.5153 2.0898L17.4404 1.35856L16.3656 0.627328C16.2902 0.738134 16.2277 0.84636 16.1773 0.942471L17.3281 1.54704ZM17.4404 1.35856L18.4804 2.13856L18.5537 2.04091L17.5137 1.26091L16.4737 0.480906L16.4004 0.578562L17.4404 1.35856ZM17.5137 1.26091L18.5214 2.08216C18.5265 2.07591 18.5108 2.09679 18.4725 2.11874L17.8252 0.991375L17.1779 -0.135994C16.8778 0.0363283 16.6605 0.250002 16.5059 0.439647L17.5137 1.26091ZM17.8252 0.991375L18.3897 2.16243L18.5254 2.097L17.9609 0.925945L17.3965 -0.245113L17.2607 -0.179684L17.8252 0.991375ZM17.9609 0.925945L18.4411 2.13403C18.423 2.14123 18.4092 2.14437 18.4022 2.14559C18.3956 2.14675 18.397 2.14587 18.4082 2.14587V0.845867V-0.454133C18.1151 -0.454133 17.7979 -0.408163 17.4808 -0.282141L17.9609 0.925945ZM18.4082 0.845867L18.4082 2.14587C18.6608 2.14586 18.9807 2.11404 19.2674 2.08596L19.1406 0.792156L19.0139 -0.501651C18.6784 -0.468783 18.5046 -0.454134 18.4082 -0.454133L18.4082 0.845867ZM19.1406 0.792156L19.2617 2.08651L19.7734 2.03866L19.6523 0.744304L19.5313 -0.550049L19.0196 -0.502197L19.1406 0.792156ZM19.6523 0.744304L19.7641 2.03949C19.9094 2.02695 20.0525 2.01641 20.19 2.00943L20.124 0.711101L20.0581 -0.587225C19.881 -0.578232 19.7058 -0.565144 19.5406 -0.55088L19.6523 0.744304ZM20.124 0.711101L20.174 2.01014L20.4279 2.00038L20.3779 0.701336L20.328 -0.597704L20.0741 -0.587938L20.124 0.711101ZM17.709 11.5588L16.8308 10.6002C16.7461 10.6778 16.6768 10.7528 16.6386 10.7937L17.5889 11.6808L18.5392 12.5679C18.5614 12.5441 18.5722 12.5327 18.581 12.5236C18.5882 12.5161 18.5894 12.5152 18.5872 12.5173L17.709 11.5588ZM17.5889 11.6808L18.5118 12.5963L18.6319 12.4752L17.709 11.5597L16.786 10.6442L16.6659 10.7653L17.5889 11.6808ZM17.709 11.5597L18.587 12.5184C18.6738 12.4389 18.7531 12.3604 18.8236 12.2884L17.8945 11.3791L16.9654 10.4698C16.9153 10.5211 16.8715 10.5639 16.831 10.601L17.709 11.5597ZM17.8945 11.3791L16.9902 10.4452L16.8046 10.6249L17.709 11.5588L18.6134 12.4926L18.7989 12.3129L17.8945 11.3791ZM16.7227 11.5519L16.6518 12.85C16.6899 12.8521 16.742 12.8549 16.813 12.8588L16.8838 11.5607L16.9546 10.2626C16.8836 10.2588 16.8316 10.2559 16.7935 10.2539L16.7227 11.5519ZM16.8838 11.5607L17.0279 10.2687L16.7916 10.2424L16.6475 11.5343L16.5033 12.8263L16.7396 12.8527L16.8838 11.5607ZM16.6475 11.5343L16.3515 12.8002L16.4267 12.8178L16.7227 11.5519L17.0186 10.286L16.9434 10.2685L16.6475 11.5343ZM16.6182 11.5402H15.3182V11.547H16.6182H17.9182V11.5402H16.6182ZM16.6182 11.547L16.5557 12.8455C16.5758 12.8465 16.5916 12.8468 16.5984 12.8469C16.6061 12.847 16.6122 12.847 16.6146 12.847C16.6183 12.847 16.6231 12.847 16.6203 12.847C16.6179 12.847 16.6138 12.847 16.6089 12.847C16.5999 12.8469 16.5927 12.8468 16.5881 12.8467C16.5798 12.8465 16.5754 12.8462 16.5784 12.8464C16.5841 12.8466 16.6033 12.8475 16.6489 12.85L16.7197 11.5519L16.7905 10.2539C16.741 10.2512 16.7097 10.2496 16.6884 10.2487C16.678 10.2483 16.666 10.2478 16.6535 10.2475C16.6469 10.2473 16.6384 10.2472 16.6286 10.2471C16.6233 10.247 16.619 10.247 16.6164 10.247C16.6135 10.247 16.6182 10.247 16.6218 10.247C16.6242 10.2471 16.6303 10.2471 16.638 10.2472C16.6448 10.2473 16.6606 10.2476 16.6806 10.2485L16.6182 11.547ZM16.7197 11.5519L17.0166 10.2863L16.9375 10.2677L16.6406 11.5334L16.3437 12.799L16.4228 12.8176L16.7197 11.5519ZM16.6406 11.5334L16.7583 10.2387L16.7368 10.2368L16.6191 11.5314L16.5014 12.8261L16.5229 12.828L16.6406 11.5334ZM16.6191 11.5314L15.3269 11.3892C15.3275 11.3845 15.3279 11.3811 15.3279 11.3807C15.3279 11.3805 15.328 11.3802 15.3279 11.3809C15.3278 11.3814 15.3277 11.3827 15.3275 11.3841C15.3272 11.3868 15.3265 11.3931 15.3256 11.4009C15.3248 11.4082 15.3234 11.422 15.3221 11.4392L16.6182 11.5402L17.9142 11.6412C17.913 11.6572 17.9117 11.6697 17.9111 11.6757C17.9104 11.6821 17.9098 11.6869 17.9097 11.688C17.9096 11.6887 17.9095 11.6892 17.9096 11.6889C17.9096 11.6889 17.9097 11.6878 17.9098 11.6868C17.9101 11.6848 17.9107 11.6798 17.9113 11.6736L16.6191 11.5314ZM17.7715 10.8156L16.7961 9.95621C16.756 10.0017 16.7178 10.0433 16.6807 10.0819L17.6172 10.9836L18.5536 11.8853C18.622 11.8142 18.6864 11.7436 18.7469 11.675L17.7715 10.8156ZM17.6172 10.9836L18.5539 11.885C18.6872 11.7465 18.8112 11.6049 18.9275 11.4622L17.9199 10.6408L16.9123 9.81936C16.8355 9.91355 16.7586 10.0009 16.6805 10.0821L17.6172 10.9836ZM17.9199 10.6408L16.929 9.79933L16.7806 9.97413L17.7715 10.8156L18.7624 11.6571L18.9109 11.4822L17.9199 10.6408ZM17.3271 9.70134L16.0486 9.46621C16.0227 9.60707 15.9893 9.75345 15.9485 9.9196L17.2109 10.2297L18.4734 10.5397C18.5192 10.3533 18.5664 10.1505 18.6057 9.93646L17.3271 9.70134ZM17.2109 10.2297L18.4735 10.5395C18.5191 10.3535 18.5663 10.1506 18.6057 9.93644L17.3271 9.70134L16.0486 9.46623C16.0227 9.60705 15.9893 9.75331 15.9484 9.91979L17.2109 10.2297ZM20.1758 1.80485L20.1098 0.506525C19.9443 0.514935 19.7803 0.527612 19.6263 0.540935L19.7383 1.8361L19.8503 3.13127C19.9895 3.11923 20.1195 3.10939 20.2417 3.10318L20.1758 1.80485ZM19.7383 1.8361L19.6169 0.541777L19.1794 0.582792L19.3008 1.87712L19.4221 3.17144L19.8596 3.13043L19.7383 1.8361ZM19.3008 1.87712L19.1775 0.582973L19.116 0.588832L19.2393 1.88298L19.3625 3.17712L19.424 3.17126L19.3008 1.87712ZM19.2393 1.88298L19.1125 0.589171C18.7939 0.62038 18.5649 0.641569 18.4082 0.64157L18.4082 1.94157L18.4082 3.24157C18.7203 3.24157 19.0927 3.20356 19.366 3.17678L19.2393 1.88298ZM18.4082 1.94157V0.64157C18.2835 0.64157 18.1585 0.654936 18.0359 0.685116L18.3467 1.94743L18.6574 3.20974C18.5546 3.23506 18.4689 3.24157 18.4082 3.24157V1.94157ZM18.3467 1.94743L17.9356 0.714141L17.9239 0.718047L18.335 1.95134L18.7461 3.18462L18.7578 3.18072L18.3467 1.94743ZM18.335 1.95134L17.6621 0.839004C17.5457 0.909411 17.4629 0.984544 17.4143 1.03258L18.3281 1.95719L19.242 2.88181C19.2186 2.90489 19.189 2.9323 19.153 2.96156C19.1193 2.98894 19.0705 3.02574 19.0078 3.06367L18.335 1.95134ZM18.3281 1.95719L17.3157 1.14167L17.2874 1.17682L18.2998 1.99235L19.3122 2.80788L19.3405 2.77272L18.3281 1.95719ZM18.2998 1.99235L17.2239 1.26262C17.1737 1.33674 17.1334 1.40786 17.101 1.46985L18.2529 2.07243L19.4048 2.67501C19.4069 2.67101 19.3969 2.69075 19.3757 2.72208L18.2998 1.99235ZM18.2529 2.07243L17.083 1.50572L17.0224 1.63072L18.1924 2.19743L19.3624 2.76414L19.4229 2.63914L18.2529 2.07243ZM18.1924 2.19743L17.015 1.64631L16.9935 1.69221L18.1709 2.24333L19.3483 2.79445L19.3698 2.74855L18.1924 2.19743ZM18.1709 2.24333L17.0059 1.66642L16.8546 1.97208L18.0195 2.54899L19.1845 3.1259L19.3359 2.82023L18.1709 2.24333ZM18.0195 2.54899L16.8824 1.91903C16.7258 2.20171 16.5679 2.49989 16.4264 2.80735L17.6074 3.35075L18.7884 3.89415C18.8915 3.67006 19.0148 3.43509 19.1567 3.17895L18.0195 2.54899ZM17.6074 3.35075L16.4148 2.83337L16.2996 3.09899L17.4922 3.61637L18.6848 4.13376L18.8 3.86813L17.6074 3.35075ZM17.4922 3.61637L16.2959 3.1075L16.1094 3.54597L17.3057 4.05485L18.5019 4.56373L18.6884 4.12525L17.4922 3.61637ZM17.3057 4.05485L16.1128 3.53804C16.0149 3.7641 15.902 4.02148 15.8051 4.28529L17.0254 4.73356L18.2457 5.18183C18.3117 5.00193 18.3914 4.81885 18.4985 4.57166L17.3057 4.05485ZM17.0254 4.73356L15.7948 4.31441L15.7186 4.53805L16.9492 4.95719L18.1798 5.37634L18.256 5.15271L17.0254 4.73356ZM16.9492 4.95719L15.7153 4.54793L15.6499 4.7452L16.8838 5.15446L18.1177 5.56372L18.1831 5.36646L16.9492 4.95719ZM16.8838 5.15446L15.6542 4.73256C15.6329 4.7944 15.6028 4.88082 15.574 4.97505L16.8174 5.35466L18.0607 5.73426C18.0735 5.69226 18.0867 5.65412 18.1134 5.57636L16.8838 5.15446ZM16.8174 5.35466L16.855 6.65411C16.8489 6.65429 16.8453 6.65431 16.8464 6.6543C16.8483 6.65428 16.85 6.65428 16.8585 6.65425C16.8709 6.6542 16.9021 6.65414 16.9378 6.65289L16.8926 5.35368L16.8473 4.05447C16.8567 4.05414 16.8621 4.05422 16.8494 4.05426C16.8453 4.05428 16.8346 4.0543 16.8243 4.05439C16.8132 4.05449 16.7977 4.05468 16.7798 4.0552L16.8174 5.35466ZM16.8926 5.35368L16.9191 6.65341L17.1584 6.64853L17.1318 5.3488L17.1053 4.04907L16.8661 4.05395L16.8926 5.35368ZM17.1318 5.3488V6.6488C17.1653 6.6488 17.1971 6.6478 17.2142 6.64725C17.2244 6.64692 17.2353 6.64655 17.2449 6.64622C17.2551 6.64587 17.2651 6.64552 17.2758 6.64517L17.2334 5.34587L17.191 4.04656C17.1777 4.04699 17.1657 4.04741 17.1556 4.04775C17.145 4.04812 17.1375 4.04838 17.1309 4.04858C17.1244 4.04879 17.1215 4.04887 17.1206 4.04889C17.1194 4.04891 17.1239 4.0488 17.1318 4.0488V5.3488ZM17.2334 5.34587L17.26 6.64559L17.4983 6.64071L17.4717 5.34098L17.445 4.04126L17.2068 4.04614L17.2334 5.34587ZM17.4717 5.34098L17.4745 6.64098C17.5426 6.64083 17.598 6.64294 17.6371 6.64647L17.7539 5.35173L17.8707 4.05699C17.7241 4.04375 17.5826 4.04074 17.4689 4.04099L17.4717 5.34098ZM17.7539 5.35173L17.5659 6.63807L17.7798 6.66932L17.9678 5.38298L18.1557 4.09664L17.9419 4.06539L17.7539 5.35173ZM17.9678 5.38298L17.6937 6.65375C17.6935 6.65372 17.6917 6.65332 17.6879 6.65212C17.6842 6.65092 17.6771 6.64847 17.6672 6.644L18.2021 5.45915L18.7371 4.2743C18.5636 4.19597 18.3941 4.14503 18.2419 4.1122L17.9678 5.38298ZM18.2021 5.45915L17.5753 6.59804L17.7013 6.66738L18.3281 5.52848L18.955 4.38959L18.829 4.32025L18.2021 5.45915ZM18.3281 5.52848L17.6103 6.61231C17.58 6.59228 17.5357 6.55719 17.4919 6.50065C17.4454 6.44039 17.4098 6.36867 17.3919 6.29478L18.6553 5.98844L19.9187 5.68211C19.7668 5.05594 19.3753 4.6628 19.046 4.44466L18.3281 5.52848ZM18.6553 5.98844L17.3793 6.23726L17.4174 6.43257L18.6934 6.18376L19.9693 5.93494L19.9312 5.73963L18.6553 5.98844ZM18.6934 6.18376L17.4086 6.3825C17.4313 6.52928 17.4259 6.68972 17.3938 6.87558L18.6748 7.09684L19.9558 7.31811C20.0216 6.93711 20.0551 6.48261 19.9781 5.98502L18.6934 6.18376ZM18.6748 7.09684L17.4037 6.82446L17.3333 7.15258L18.6045 7.42497L19.8756 7.69736L19.9459 7.36923L18.6748 7.09684ZM18.6045 7.42497L17.3432 7.10998C17.325 7.18305 17.3032 7.26093 17.2776 7.3482L18.5254 7.71305L19.7731 8.07791C19.8027 7.97693 19.8354 7.86152 19.8658 7.73996L18.6045 7.42497ZM18.5254 7.71305L17.2802 7.3395L17.1865 7.652L18.4316 8.02555L19.6768 8.39911L19.7706 8.08661L18.5254 7.71305ZM18.4316 8.02555L17.1888 7.64436C17.1617 7.73268 17.1283 7.84009 17.0987 7.94357L18.3486 8.30094L19.5985 8.65832C19.6194 8.58543 19.6428 8.51012 19.6745 8.40675L18.4316 8.02555ZM18.3486 8.30094L17.0909 7.97221L17.0235 8.23003L18.2812 8.55876L19.539 8.88749L19.6064 8.62967L18.3486 8.30094ZM18.2812 8.55876L17.0148 8.26519C16.9861 8.38917 16.9623 8.51106 16.9418 8.62972L18.2227 8.85173L19.5036 9.07373C19.5178 8.99161 19.5323 8.91879 19.5477 8.85232L18.2812 8.55876ZM18.2227 8.85173L16.9382 8.65104L16.8894 8.96354L18.1738 9.16423L19.4582 9.36492L19.5071 9.05242L18.2227 8.85173ZM18.1738 9.16423L16.8869 8.98038L16.8683 9.11026L18.1553 9.29411L19.4422 9.47796L19.4608 9.34807L18.1738 9.16423ZM18.1553 9.29411L16.8708 9.09349L16.7859 9.63743L18.0703 9.83805L19.3547 10.0387L19.4397 9.49473L18.1553 9.29411ZM18.0703 9.83805L16.7913 9.60553C16.7922 9.60043 16.7922 9.60141 16.7871 9.62421C16.7853 9.632 16.7812 9.64988 16.778 9.66448C16.7743 9.68094 16.7697 9.70195 16.765 9.72537L18.0391 9.98356L19.3132 10.2418C19.3144 10.2358 19.3155 10.2309 19.3231 10.1975C19.3289 10.1718 19.3396 10.1242 19.3493 10.0706L18.0703 9.83805ZM18.0391 9.98356L19.0986 10.7369C19.208 10.5829 19.3177 10.4252 19.428 10.2636L18.3545 9.53044L17.281 8.79726C17.1785 8.9473 17.0783 9.0914 16.9796 9.23026L18.0391 9.98356ZM18.3545 9.53044L19.4237 10.27L19.7567 9.78851L18.6875 9.04899L17.6183 8.30947L17.2853 8.79092L18.3545 9.53044ZM18.6875 9.04899L19.7608 9.78248L19.9737 9.47095L18.9004 8.73747L17.8271 8.00398L17.6142 8.31551L18.6875 9.04899ZM18.9004 8.73747L19.9879 9.44978C20.2155 9.1023 20.4249 8.74511 20.6232 8.407L19.502 7.74919L18.3807 7.09138C18.1768 7.43886 17.9995 7.74033 17.8129 8.02516L18.9004 8.73747ZM19.502 7.74919L20.6384 8.38052L20.6481 8.36294L19.5117 7.73161L18.3753 7.10027L18.3655 7.11785L19.502 7.74919ZM19.5117 7.73161L20.431 8.65085L20.4319 8.64987L19.5127 7.73063L18.5935 6.81139L18.5925 6.81237L19.5117 7.73161ZM19.5127 7.73063L20.6284 8.39787L21.0454 7.7006L19.9297 7.03337L18.814 6.36613L18.397 7.0634L19.5127 7.73063ZM19.9297 7.03337L21.0346 7.71828C21.1697 7.5004 21.3064 7.29155 21.4494 7.09288L20.3945 6.33317L19.3396 5.57346C19.1514 5.83481 18.9808 6.09668 18.8247 6.34845L19.9297 7.03337ZM20.3945 6.33317L21.4097 7.14528L21.5386 6.98414L20.5234 6.17204L19.5083 5.35994L19.3794 5.52107L20.3945 6.33317ZM20.5234 6.17204L21.5017 7.02825C21.5257 7.00072 21.5511 6.97401 21.5981 6.92439L20.6543 6.03044L19.7104 5.13648C19.676 5.17282 19.6104 5.24132 19.5452 5.31583L20.5234 6.17204ZM20.6543 6.03044L21.6018 6.92052L21.6623 6.85606L20.7148 5.96598L19.7673 5.07591L19.7068 5.14036L20.6543 6.03044ZM20.7148 5.96598V4.66598H20.7119V5.96598V7.26598H20.7148V5.96598ZM20.7119 5.96598V4.66598C20.6052 4.66598 20.5411 4.65794 20.4933 4.64631L20.1855 5.90934L19.8778 7.17238C20.1931 7.24924 20.4792 7.26598 20.7119 7.26598V5.96598ZM20.1855 5.90934L20.5627 4.66527L20.3791 4.6096L20.002 5.85368L19.6248 7.09776L19.8084 7.15342L20.1855 5.90934ZM20.002 5.85368L20.4433 4.63089C20.5371 4.66476 20.6271 4.71949 20.7041 4.7964L19.7852 5.71598L18.8663 6.63557C19.0712 6.84032 19.3116 6.98659 19.5606 7.07647L20.002 5.85368ZM19.7852 5.71598L20.7712 4.86881L20.7116 4.79948L19.7256 5.64665L18.7395 6.49382L18.7991 6.56316L19.7852 5.71598ZM19.7256 5.64665L20.7736 4.8774C20.8141 4.93266 20.8416 4.9873 20.8602 5.03612L19.6455 5.49919L18.4308 5.96225C18.486 6.10718 18.5654 6.26297 18.6776 6.4159L19.7256 5.64665ZM19.6455 5.49919L20.9034 5.17104L20.8683 5.03627L19.6104 5.36442L18.3524 5.69257L18.3876 5.82734L19.6455 5.49919ZM19.6104 5.36442L20.8949 5.16443C20.9049 5.22875 20.9022 5.27862 20.8989 5.30778C20.8955 5.33747 20.8901 5.35724 20.8893 5.36022L19.6357 5.01579L18.3822 4.67135C18.3437 4.81138 18.2613 5.14999 18.3258 5.56441L19.6104 5.36442ZM19.6357 5.01579L20.8701 5.42375L20.9082 5.30851L19.6738 4.90055L18.4395 4.4926L18.4014 4.60783L19.6357 5.01579ZM19.6738 4.90055L20.8909 5.35739C20.8962 5.34344 20.9049 5.32261 20.918 5.29521C20.9309 5.26831 20.9456 5.23988 20.9615 5.21067L19.8203 4.58805L18.6791 3.96543C18.6172 4.07893 18.5298 4.24919 18.4567 4.44372L19.6738 4.90055ZM19.8203 4.58805L20.9388 5.25069L21.1077 4.96554L19.9893 4.3029L18.8708 3.64026L18.7019 3.92542L19.8203 4.58805ZM19.9893 4.3029L21.0852 5.00219L21.216 4.79711L20.1201 4.09782L19.0242 3.39853L18.8934 3.60361L19.9893 4.3029ZM20.1201 4.09782L21.2083 4.8091C21.212 4.80347 21.2217 4.78868 21.2271 4.78033L20.1367 4.07243L19.0464 3.36453C19.0435 3.36895 19.0419 3.37129 19.032 3.38654L20.1201 4.09782ZM20.1367 4.07243L21.2272 4.78011C21.2045 4.81508 21.1851 4.84101 21.1808 4.84671C21.1803 4.84741 21.1799 4.84794 21.1799 4.84798C21.1796 4.84831 21.1802 4.84755 21.1805 4.84714C21.1812 4.84619 21.1839 4.84255 21.1873 4.83797C21.1907 4.83332 21.1964 4.82561 21.2032 4.81598C21.2099 4.80641 21.2194 4.79268 21.2304 4.7759L20.1416 4.06559L19.0528 3.35529C19.0635 3.33891 19.0727 3.3256 19.0792 3.31648C19.0856 3.30729 19.0909 3.30003 19.094 3.29587C19.097 3.29176 19.0994 3.28863 19.0997 3.2882C19.0998 3.28805 19.1002 3.28756 19.0997 3.28816C19.0995 3.28847 19.0989 3.28927 19.0982 3.29026C19.0922 3.29821 19.0709 3.32675 19.0462 3.36475L20.1367 4.07243ZM20.1416 4.06559L21.2531 4.73975C21.4745 4.37475 21.6536 4.00103 21.8141 3.65992L20.6377 3.10661L19.4613 2.55329C19.3012 2.89381 19.1729 3.15585 19.0301 3.39144L20.1416 4.06559ZM20.6377 3.10661L21.8155 3.65689L21.8712 3.53775L20.6934 2.98747L19.5156 2.43719L19.4599 2.55633L20.6377 3.10661ZM20.6934 2.98747L21.8668 3.54686L22.0866 3.08593L20.9131 2.52653L19.7396 1.96713L19.5199 2.42807L20.6934 2.98747ZM20.9131 2.52653L22.0805 3.09845C22.1516 2.95328 22.2219 2.81568 22.2944 2.68476L21.1572 2.05485L20.02 1.42494C19.9192 1.60704 19.828 1.78644 19.7456 1.95462L20.9131 2.52653ZM21.1572 2.05485L22.3146 2.64681L22.3801 2.51888L21.2227 1.92692L20.0653 1.33497L19.9998 1.4629L21.1572 2.05485ZM21.2227 1.92692L22.4147 2.44553C22.453 2.35763 22.4736 2.28408 22.4788 2.26568C22.4796 2.26294 22.4802 2.26065 22.4806 2.25928C22.4808 2.25859 22.481 2.25797 22.481 2.25764C22.4812 2.2572 22.4812 2.25714 22.4812 2.25707C22.4814 2.25643 22.4802 2.26052 22.4787 2.266C22.4758 2.27589 22.4671 2.30542 22.4534 2.34305L21.2324 1.89665L20.0115 1.45025C20.0035 1.47211 19.9972 1.49112 19.9925 1.50592C19.9878 1.52066 19.9841 1.53295 19.9818 1.54111C19.9795 1.549 19.9776 1.55553 19.9771 1.55738C19.9761 1.56099 19.9769 1.55825 19.9774 1.55634C19.9789 1.55125 19.9842 1.53249 19.9923 1.50816C20.0007 1.48302 20.0131 1.44851 20.0306 1.40831L21.2227 1.92692ZM21.2324 1.89665L21.8126 0.733304C21.8212 0.737567 21.828 0.741103 21.8323 0.743354C21.8365 0.745564 21.8396 0.747205 21.8402 0.747507C21.8449 0.750069 21.8336 0.743952 21.8262 0.740089C21.8058 0.729373 21.7619 0.706705 21.7047 0.682984L21.207 1.88395L20.7094 3.08492C20.6623 3.0654 20.6275 3.0473 20.6155 3.04099C20.6125 3.03941 20.6103 3.03826 20.6101 3.03814C20.61 3.0381 20.61 3.03807 20.6107 3.03844C20.6111 3.03869 20.6123 3.03931 20.6136 3.03999C20.6174 3.04205 20.6329 3.05035 20.6522 3.05999L21.2324 1.89665ZM21.207 1.88395L21.7035 0.682497C21.6238 0.649545 21.536 0.619676 21.4399 0.59465L21.1123 1.8527L20.7847 3.11076C20.7661 3.1059 20.741 3.09799 20.7105 3.08541L21.207 1.88395ZM21.1123 1.8527L21.3707 0.578638L21.231 0.550318L20.9727 1.82438L20.7143 3.09845L20.8539 3.12677L21.1123 1.8527ZM20.9727 1.82438L21.1675 0.539063C20.9047 0.499233 20.629 0.49227 20.3756 0.497294L20.4014 1.79704L20.4271 3.09678C20.6099 3.09316 20.7213 3.10113 20.7778 3.1097L20.9727 1.82438ZM20.4014 1.79704L20.3564 0.497818L20.1308 0.50563L20.1758 1.80485L20.2208 3.10407L20.4464 3.09626L20.4014 1.79704ZM17.8164 6.16325L17.5419 7.43395C17.5297 7.4313 17.5095 7.42649 17.4831 7.41837C17.4574 7.41046 17.4187 7.39721 17.3718 7.37608L17.9053 6.19059L18.4388 5.0051C18.3052 4.94499 18.1808 4.91197 18.0909 4.89255L17.8164 6.16325ZM17.9053 6.19059L17.3683 7.37449C17.3115 7.34875 17.2603 7.31961 17.2155 7.29016L17.9287 6.20329L18.6419 5.11642C18.5878 5.08086 18.5215 5.04262 18.4423 5.00669L17.9053 6.19059ZM17.9287 6.20329L16.6618 6.49477C16.6683 6.52299 16.6773 6.5876 16.6517 6.73499L17.9326 6.95719L19.2135 7.1794C19.2781 6.80667 19.3022 6.37529 19.1956 5.9118L17.9287 6.20329ZM17.9326 6.95719L19.2134 7.18004C19.2784 6.80647 19.3024 6.37434 19.1955 5.91045L17.9287 6.20231L16.6619 6.49418C16.6684 6.52254 16.6774 6.58736 16.6519 6.73434L17.9326 6.95719ZM17.9287 6.20231L18.6367 5.11203C18.5705 5.06905 18.514 5.04098 18.4952 5.03165C18.4709 5.01968 18.4499 5.01016 18.4419 5.00653L17.9053 6.19059L17.3686 7.37466C17.3716 7.37599 17.36 7.37082 17.3435 7.3627C17.3345 7.35825 17.3195 7.3507 17.301 7.34057C17.2832 7.33084 17.2547 7.31471 17.2207 7.2926L17.9287 6.20231ZM17.9053 6.19059L18.4391 5.00524C18.2002 4.89765 17.9608 4.86388 17.8062 4.84994L17.6895 6.14469L17.5727 7.43945C17.5796 7.44006 17.5681 7.43948 17.542 7.43385C17.5209 7.42929 17.457 7.41446 17.3715 7.37594L17.9053 6.19059ZM17.6895 6.14469L17.5015 7.43103L17.6284 7.44958L17.8164 6.16325L18.0044 4.87692L17.8775 4.85836L17.6895 6.14469ZM20.749 6.3693L19.7729 5.51067C19.7103 5.58191 19.6452 5.66165 19.5832 5.74771L20.6377 6.50798L21.6922 7.26825C21.6968 7.26184 21.7076 7.24789 21.7251 7.22794L20.749 6.3693ZM20.6377 6.50798L21.6486 7.32531L21.7599 7.18762L20.749 6.37028L19.7381 5.55294L19.6268 5.69064L20.6377 6.50798ZM20.749 6.37028L21.7272 7.2265C21.7491 7.20148 21.776 7.17259 21.8159 7.13044L20.8721 6.23649L19.9282 5.34255C19.8863 5.38675 19.829 5.44755 19.7708 5.51407L20.749 6.37028ZM20.8721 6.23649L19.9184 5.35298L19.7954 5.48579L20.749 6.3693L21.7027 7.25281L21.8257 7.12L20.8721 6.23649ZM16.127 6.06266L15.3906 7.13401C15.4755 7.19239 15.553 7.23377 15.6124 7.26192L16.1689 6.08708L16.7255 4.91223C16.7668 4.93179 16.8137 4.95724 16.8633 4.99132L16.127 6.06266ZM16.1689 6.08708L16.7252 4.91209C16.7911 4.94328 16.9194 5.01161 17.0418 5.14886L16.0713 6.01384L15.1008 6.87881C15.2985 7.10061 15.511 7.21391 15.6127 7.26207L16.1689 6.08708ZM16.0713 6.01384L15.214 6.99112L15.2697 7.03995L16.127 6.06266L16.9842 5.08538L16.9286 5.03655L16.0713 6.01384ZM20.9941 5.68473L20.8594 6.97773C20.8803 6.97991 20.8975 6.98124 20.9086 6.98203C20.919 6.98277 20.9282 6.98331 20.9294 6.98338C20.9309 6.98347 20.9304 6.98344 20.9296 6.98339C20.9286 6.98333 20.9262 6.98318 20.923 6.98295C20.9167 6.98251 20.9046 6.98161 20.8891 6.98003L21.0205 5.68669L21.1519 4.39335C21.132 4.39132 21.1155 4.39006 21.1048 4.38931C21.0993 4.38893 21.0947 4.38863 21.0915 4.38844C21.0885 4.38825 21.0858 4.38808 21.085 4.38804C21.0837 4.38796 21.0844 4.388 21.0854 4.38806C21.0865 4.38814 21.0892 4.3883 21.0927 4.38855C21.0994 4.38903 21.1123 4.39001 21.1289 4.39173L20.9941 5.68473ZM21.0205 5.68669L21.1641 4.39464L21.1377 4.39171L20.9941 5.68376L20.8506 6.97581L20.8769 6.97874L21.0205 5.68669ZM20.9941 5.68376L21.125 4.39037C21.0148 4.37921 20.8714 4.36622 20.7123 4.36618L20.7119 5.66618L20.7116 6.96618C20.7357 6.96619 20.7738 6.9681 20.8632 6.97715L20.9941 5.68376ZM20.7119 5.66618L20.6266 6.96338L20.9089 6.98193L20.9941 5.68473L21.0794 4.38753L20.7972 4.36898L20.7119 5.66618ZM17.9043 5.67692L17.6307 6.9478C17.6166 6.94477 17.6054 6.94207 17.5983 6.94033C17.5947 6.93944 17.5919 6.93871 17.59 6.93824C17.5882 6.93777 17.587 6.93745 17.5869 6.93743C17.5868 6.93742 17.5869 6.93744 17.5873 6.93754C17.5875 6.93759 17.5884 6.93782 17.589 6.93798C17.5904 6.93835 17.5931 6.93905 17.5962 6.93987C17.6024 6.94148 17.6132 6.94423 17.6264 6.94736L17.9277 5.68278L18.2291 4.4182C18.2383 4.4204 18.2452 4.42216 18.2475 4.42276C18.2487 4.42307 18.2494 4.42326 18.2489 4.42313C18.2486 4.42303 18.2485 4.42301 18.2477 4.4228C18.2471 4.42265 18.2462 4.42241 18.2452 4.42214C18.2414 4.42117 18.2327 4.41889 18.222 4.41625C18.2111 4.41354 18.1959 4.40992 18.1779 4.40605L17.9043 5.67692ZM17.9277 5.68278L18.2307 4.41857C18.0925 4.38547 17.961 4.36641 17.8451 4.35588L17.7275 5.65055L17.6099 6.94522C17.6157 6.94574 17.6203 6.94635 17.6236 6.94687C17.6269 6.94739 17.6273 6.94759 17.6248 6.94699L17.9277 5.68278ZM17.7275 5.65055L17.5357 6.93633L17.7125 6.96269L17.9043 5.67692L18.0961 4.39115L17.9193 4.36478L17.7275 5.65055ZM16.7012 5.65837L16.7327 6.95798L16.9339 6.9531L16.9023 5.65348L16.8708 4.35387L16.6696 4.35875L16.7012 5.65837ZM16.9023 5.65348L16.8571 4.35427C16.7803 4.35695 16.7417 4.35814 16.7085 4.35793C16.6801 4.35775 16.6759 4.35642 16.6843 4.35757L16.5088 5.64567L16.3333 6.93378C16.5898 6.96871 16.8294 6.95681 16.9476 6.9527L16.9023 5.65348ZM16.5088 5.64567L16.4232 6.94285L16.6156 6.95555L16.7012 5.65837L16.7868 4.36119L16.5944 4.34849L16.5088 5.64567ZM21.7812 5.44938L20.5615 5.89898C20.5424 5.84727 20.5317 5.80671 20.5288 5.79572C20.5274 5.79055 20.5262 5.78561 20.5276 5.79107C20.5283 5.79376 20.5311 5.80498 20.5346 5.81816L21.79 5.48063L23.0455 5.14311C23.0476 5.15104 23.0491 5.15699 23.0484 5.15442C23.0484 5.15425 23.0476 5.15102 23.0469 5.1482C23.046 5.14494 23.0447 5.13995 23.0432 5.13404C23.0375 5.11258 23.0238 5.06166 23.001 4.99979L21.7812 5.44938ZM21.79 5.48063L23.0459 5.14483C23.0165 5.03473 22.9643 4.88055 22.865 4.71651L21.7529 5.38981L20.6409 6.06311C20.5757 5.95542 20.5465 5.86264 20.5342 5.81643L21.79 5.48063ZM21.7529 5.38981L20.5789 5.94798L20.6072 6.00755L21.7812 5.44938L22.9553 4.89122L22.927 4.83165L21.7529 5.38981ZM21.6699 5.29802L20.885 6.33434C20.8652 6.31932 20.8164 6.28112 20.7608 6.22125L21.7129 5.3361L22.665 4.45095C22.5819 4.3616 22.5035 4.29857 22.4548 4.26169L21.6699 5.29802ZM21.7129 5.3361L22.5862 4.37317L22.5443 4.33508L21.6709 5.29802L20.7975 6.26095L20.8395 6.29904L21.7129 5.3361ZM21.6709 5.29802L22.4552 4.26126C22.3875 4.21004 22.3168 4.16473 22.244 4.12549L21.627 5.26969L21.0099 6.4139C20.9661 6.3903 20.925 6.36381 20.8866 6.33477L21.6709 5.29802ZM21.627 5.26969L20.9115 6.35514L20.9545 6.38346L21.6699 5.29802L22.3853 4.21257L22.3424 4.18425L21.627 5.26969ZM19.9043 5.19548L18.6127 5.04764C18.6033 5.12984 18.6011 5.2028 18.6014 5.26045L19.9014 5.25505L21.2014 5.24965C21.2014 5.26623 21.2009 5.29918 21.1959 5.34332L19.9043 5.19548ZM19.9014 5.25505L21.1986 5.34011L21.2025 5.28054L19.9053 5.19548L18.6081 5.11041L18.6042 5.16998L19.9014 5.25505ZM19.9053 5.19548L21.1967 5.34493C21.1924 5.38136 21.1857 5.41249 21.1782 5.4397L19.9248 5.09489L18.6714 4.75008C18.6485 4.83325 18.6269 4.93339 18.6139 5.04602L19.9053 5.19548ZM19.9248 5.09489L18.651 4.83518L18.6305 4.93577L19.9043 5.19548L21.1781 5.45518L21.1986 5.3546L19.9248 5.09489ZM20.8799 5.17692L20.7872 6.47361C20.8251 6.47632 20.8642 6.47984 20.9056 6.48402L21.0361 5.19059L21.1667 3.89716C21.1084 3.89128 21.0429 3.88526 20.9726 3.88023L20.8799 5.17692ZM21.0361 5.19059L21.1575 3.89627L21.0012 3.88162L20.8799 5.17594L20.7585 6.47027L20.9148 6.48492L21.0361 5.19059ZM20.8799 5.17594L20.9724 3.87924C20.8861 3.87308 20.7991 3.8701 20.7122 3.87009L20.7119 5.17009L20.7116 6.47009C20.7397 6.47009 20.7651 6.47106 20.7874 6.47265L20.8799 5.17594ZM20.7119 5.17009L20.6591 6.46901L20.827 6.47585L20.8799 5.17692L20.9327 3.878L20.7648 3.87116L20.7119 5.17009ZM16.833 4.39958L15.6275 3.91303C15.5903 4.00524 15.5559 4.09553 15.5238 4.18289L16.7441 4.63102L17.9645 5.07915C17.9893 5.01151 18.0137 4.94755 18.0385 4.88613L16.833 4.39958ZM16.7441 4.63102L17.956 5.10146L18.0459 4.87002L16.834 4.39958L15.6221 3.92914L15.5322 4.16058L16.7441 4.63102ZM16.834 4.39958L18.0392 4.8869C18.0946 4.7499 18.1548 4.6102 18.2231 4.45252L17.0303 3.93571L15.8374 3.4189C15.77 3.57443 15.6978 3.74166 15.6288 3.91226L16.834 4.39958ZM17.0303 3.93571L15.834 3.42696L15.6367 3.89083L16.833 4.39958L18.0293 4.90833L18.2266 4.44446L17.0303 3.93571ZM21.3125 3.46012L20.1361 2.90682C19.9743 3.2508 19.8317 3.54603 19.6649 3.82094L20.7764 4.49528L21.8878 5.16962C22.1341 4.76367 22.3285 4.3543 22.4889 4.01343L21.3125 3.46012ZM20.7764 4.49528L21.8878 5.1696C22.1337 4.76438 22.328 4.35636 22.4889 4.01442L21.3125 3.4611L20.1361 2.90778C19.975 3.25027 19.8319 3.54576 19.6649 3.82096L20.7764 4.49528ZM21.3125 3.4611H22.6125V3.46012H21.3125H20.0125V3.4611H21.3125ZM21.0176 1.52848L20.8225 2.81377C20.8593 2.81934 20.867 2.82321 20.853 2.81864C20.8409 2.8147 20.7892 2.79696 20.7179 2.75148L21.417 1.65544L22.1161 0.559397C21.821 0.371219 21.4931 0.285767 21.2126 0.243199L21.0176 1.52848ZM21.417 1.65544L22.1188 0.561148C21.8255 0.373044 21.4983 0.285574 21.2126 0.24222L21.0176 1.52751L20.8226 2.81279C20.8576 2.81811 20.8642 2.82176 20.8494 2.81688C20.8365 2.81262 20.7854 2.79477 20.7152 2.74973L21.417 1.65544ZM21.0176 1.52751L21.2124 0.242183C21.1065 0.226144 21.0067 0.216981 20.9249 0.21075L20.8262 1.507L20.7275 2.80325C20.7793 2.80719 20.8075 2.81051 20.8228 2.81283L21.0176 1.52751ZM20.8262 1.507L20.6812 2.79889L20.8726 2.82037L21.0176 1.52848L21.1626 0.236597L20.9712 0.215112L20.8262 1.507ZM20.1602 1.50505L20.0942 0.20672C19.7624 0.223576 19.4264 0.256818 19.1444 0.284514L19.2715 1.57829L19.3986 2.87206C19.6914 2.8433 19.9659 2.81659 20.2261 2.80337L20.1602 1.50505ZM19.2715 1.57829L19.1445 0.284509C19.1198 0.286934 19.097 0.289652 19.0889 0.290604C19.0763 0.29208 19.0787 0.291763 19.0832 0.291315L19.21 1.58512L19.3367 2.87893C19.3615 2.87651 19.3844 2.87377 19.3924 2.87283C19.4049 2.87136 19.4028 2.87165 19.3985 2.87207L19.2715 1.57829ZM19.21 1.58512L19.3332 2.87927L19.3947 2.87341L19.2715 1.57927L19.1482 0.285121L19.0867 0.290981L19.21 1.58512ZM19.2715 1.57927L19.3986 2.87304C19.6914 2.84428 19.9659 2.81757 20.2261 2.80435L20.1602 1.50602L20.0942 0.207697C19.7624 0.224554 19.4264 0.257793 19.1444 0.28549L19.2715 1.57927ZM20.1602 1.50602L20.2261 2.80435C20.2982 2.80069 20.3621 2.79814 20.4205 2.79698L20.3945 1.49723L20.3686 0.197492C20.2741 0.199378 20.1814 0.203269 20.0942 0.207696L20.1602 1.50602ZM20.3945 1.49723L20.3686 0.197493C20.285 0.199164 20.1922 0.201747 20.0942 0.206719L20.1602 1.50505L20.2261 2.80337C20.2874 2.80026 20.3513 2.79836 20.4205 2.79697L20.3945 1.49723ZM21.8721 1.44352L20.8033 2.18361C20.7928 2.16847 20.7802 2.14841 20.7671 2.12341L21.9189 1.52067L23.0708 0.917937C23.0304 0.840844 22.9865 0.769413 22.9408 0.70344L21.8721 1.44352ZM21.9189 1.52067L23.0716 0.91944C22.9943 0.771388 22.8981 0.631548 22.7832 0.502581L21.8125 1.36735L20.8418 2.23212C20.8151 2.20206 20.7888 2.16504 20.7663 2.1219L21.9189 1.52067ZM21.8125 1.36735L20.7885 2.1682L20.848 2.24437L21.8721 1.44352L22.8961 0.642676L22.8365 0.566504L21.8125 1.36735Z" fill="white" mask="url(#path-2-outside-1_674_9734)"/>
<path d="M6 9.95748C6 10.029 6.03574 10.173 6.17926 10.3891C6.3778 10.6881 6.75714 10.7514 6.95536 10.752C7.17143 10.7526 7.26298 10.1774 7.2998 9.70781C7.26514 9.55996 7.12216 9.5957 6.99489 9.63199C6.86762 9.66828 6.76039 9.70402 6.43327 9.63253" stroke="black" stroke-width="1.3" stroke-linecap="round"/>
<path d="M9.51581 9.81663C9.51581 9.88812 9.55155 10.0679 9.64146 10.3382C9.72544 10.5906 9.94799 10.7189 10.182 10.7909C10.4488 10.8731 10.742 10.8998 10.9586 10.7926C11.0752 10.7349 11.0322 10.4709 10.9786 10.3246C10.8178 10.1069 10.6001 9.96178 10.384 9.81772C10.2751 9.74514 10.1679 9.67365 10.0574 9.6" stroke="black" stroke-width="1.3" stroke-linecap="round"/>
<path d="M13.2829 9.6C13.2471 9.85129 13.2103 10.2488 13.336 10.447C13.6348 10.9184 14.2198 10.7915 14.4906 10.72C14.6033 10.6902 14.5827 10.5055 14.5469 10.3783C14.4397 10.1437 14.2946 9.92603 14.1326 9.74568C14.0422 9.67257 13.935 9.63683 13.8245 9.6" stroke="black" stroke-width="1.3" stroke-linecap="round"/>
</svg>
