<svg width="24" height="24" viewBox="0 0 24 24" fill="none" xmlns="http://www.w3.org/2000/svg">
<path d="M16.3377 5.21317C16.9104 4.82769 17.6875 4.97941 18.0731 5.55204C18.4585 6.12467 18.3068 6.90184 17.7342 7.28739C17.6464 7.34649 17.5914 7.397 17.5477 7.44364C17.4964 7.49839 17.4512 7.55669 17.3631 7.67411L17.3436 7.70048L17.3221 7.72489C16.5241 8.68088 15.4472 9.89932 14.5867 10.5081C13.6293 11.3013 12.8397 12.0047 12.1541 12.886C11.7302 13.4306 10.945 13.5286 10.4002 13.1048C9.85545 12.6809 9.75766 11.8957 10.1815 11.3509C11.0515 10.2325 12.0295 9.38039 13.0223 8.55888L13.0682 8.52079L13.117 8.48759C13.6446 8.1293 14.5322 7.16586 15.3963 6.13114C15.5793 5.88775 15.8461 5.54415 16.3377 5.21317Z" fill="black"/>
<path d="M21.6867 5.7182C22.2034 5.35158 22.9238 5.42915 23.3497 5.91644C23.804 6.43622 23.7513 7.2258 23.2316 7.68011L22.6515 8.1762C22.5123 8.29327 22.41 8.37905 22.3204 8.45648C21.9979 8.7947 21.7023 9.14018 21.3126 9.58636C20.914 10.0428 20.4426 10.5738 19.8058 11.2309C18.8827 12.1833 18.0313 12.988 16.7462 14.1616C15.6945 15.122 14.4678 16.3641 13.5333 17.142C13.0595 17.5365 12.5231 17.9334 11.9874 18.1508C11.7128 18.2623 11.3498 18.3644 10.9445 18.3295C10.4976 18.291 10.0823 18.0919 9.76868 17.7426C9.58678 17.54 9.43083 17.3167 9.32435 17.1674C9.20423 16.999 9.11426 16.8754 9.01282 16.7621C8.42683 16.1078 7.72088 15.3059 5.70325 13.81L4.75501 13.1254L4.65443 13.0463C4.17623 12.6307 4.08123 11.9121 4.45423 11.3832C4.82734 10.8544 5.53609 10.703 6.08802 11.0141L6.19642 11.0825L7.20716 11.8129C9.36626 13.4153 10.1907 14.3309 10.8751 15.0951C11.0631 15.3051 11.2149 15.514 11.3302 15.6752C11.4848 15.5739 11.6852 15.427 11.9337 15.2201C12.8349 14.47 13.8221 13.4451 15.0597 12.3149C16.3303 11.1545 17.1389 10.3903 18.0099 9.49163C18.6043 8.87832 19.0442 8.38232 19.4298 7.94085C19.8096 7.50598 20.1651 7.09137 20.5548 6.68597L20.5919 6.64691L20.632 6.61175C20.7562 6.50288 20.8954 6.38652 21.0421 6.26312C21.193 6.13621 21.3684 5.98757 21.5861 5.7973L21.6867 5.7182Z" fill="black"/>
<path d="M1.6001 12.0394C1.63274 12.0394 1.7809 12.0386 1.96045 12.0912C2.10284 12.133 2.20767 12.1912 2.2583 12.2211C2.35185 12.2762 2.43311 12.3395 2.47607 12.3734C2.58348 12.4581 2.76031 12.6059 3.06299 12.8666C3.66786 13.3875 4.87771 14.447 5.51221 14.9965C6.22106 15.5807 6.46708 15.777 6.62354 15.9174H6.62451C6.6404 15.931 6.65659 15.9438 6.70947 15.9867L6.89795 16.1439L6.99072 16.2318C7.42793 16.6903 7.45544 17.414 7.03467 17.9056C6.58576 18.4301 5.79644 18.4913 5.27197 18.0424C5.21693 17.9953 5.17452 17.96 5.13525 17.9281C5.10106 17.9004 5.04596 17.8571 4.99561 17.8138L4.97803 17.7992L4.96143 17.7836C4.87322 17.7021 4.76249 17.6177 3.90576 16.9115L3.88232 16.892C3.22343 16.3214 2.04252 15.2876 1.43115 14.7611C1.28089 14.6317 1.16903 14.5366 1.08643 14.4672C1.02498 14.4155 0.983155 14.3799 0.95459 14.3568C0.593153 14.1377 0.350112 13.7429 0.350098 13.2894C0.350098 12.5991 0.909795 12.0395 1.6001 12.0394ZM1.48291 14.5336L1.6001 14.5394C1.55921 14.5394 1.51888 14.5364 1.479 14.5326C1.48026 14.5327 1.48165 14.5334 1.48291 14.5336Z" fill="black"/>
</svg>
