<svg width="24" height="24" viewBox="0 0 24 24" fill="none" xmlns="http://www.w3.org/2000/svg">
<g opacity="0.5">
<path fill-rule="evenodd" clip-rule="evenodd" d="M19.8691 2.02144C19.7762 2.00953 19.6071 2 19.488 2C19.369 2.00238 19.1784 2.01667 19.0593 2.03334C18.9403 2.05002 18.7712 2.08098 18.6783 2.10241C18.5854 2.12385 18.4568 2.17624 18.3877 2.21911C18.321 2.26198 17.9399 2.59542 17.5446 2.9622C17.1807 3.29774 16.8109 3.64126 16.6739 3.76845L16.6419 3.79817C16.6004 3.83667 16.533 3.89974 16.454 3.97363C16.3474 4.07342 16.2196 4.19295 16.1061 4.29832C15.9108 4.48171 15.675 4.70082 15.5821 4.78418C15.4892 4.86754 15.3177 5.02949 15.201 5.14143C15.1565 5.18325 15.0831 5.25198 14.994 5.33547C14.8445 5.47548 14.6507 5.65698 14.4746 5.82259C14.1936 6.08457 13.4957 6.73715 12.9265 7.27303C12.7177 7.4696 12.4967 7.67771 12.289 7.87338C11.9303 8.21111 11.6111 8.51178 11.4618 8.65202C11.4176 8.69438 11.369 8.74108 11.3177 8.79029C11.0978 9.0012 10.83 9.25819 10.6639 9.41654C10.4615 9.61422 10.1876 9.8762 10.0566 10C9.92561 10.1239 9.44451 10.5979 8.98485 11.0551C8.52756 11.51 8.07981 11.9649 7.98931 12.0673C7.90118 12.1674 7.76543 12.346 7.68445 12.4651C7.60585 12.5842 7.48915 12.7866 7.42485 12.9176C7.36054 13.0486 7.27242 13.251 7.22717 13.3701C7.18192 13.4892 7.1057 13.725 7.05807 13.8941C7.01044 14.0632 6.94613 14.3323 6.91517 14.4895C6.88183 14.6467 6.81276 15.0325 6.75798 15.3469C6.70558 15.6613 6.64366 15.9995 6.6246 16.0971C6.60555 16.1948 6.56744 16.3663 6.54125 16.4782C6.5079 16.6163 6.49361 16.7378 6.50076 16.8593C6.50552 17.0093 6.52219 17.0712 6.59602 17.2165C6.64366 17.3142 6.72225 17.4333 6.77465 17.4785C6.82467 17.5261 6.91279 17.5928 6.97233 17.6262C7.03187 17.6619 7.14857 17.7095 7.23431 17.731C7.32958 17.7572 7.47724 17.7715 7.61538 17.7715C7.73923 17.7715 7.94405 17.7524 8.0679 17.731C8.19175 17.7095 8.41086 17.6595 8.55614 17.6214C8.70143 17.5833 8.91578 17.519 9.03248 17.4809C9.14918 17.4428 9.35401 17.3713 9.485 17.3237C9.61599 17.2761 9.81367 17.1999 9.92561 17.1522C10.0375 17.107 10.1614 17.0546 10.1995 17.0379C10.2181 17.0298 10.2672 17.0075 10.3317 16.9782C10.3996 16.9475 10.4844 16.909 10.5687 16.8712C10.733 16.795 11.0974 16.6211 11.3784 16.4854C11.6595 16.3472 11.9334 16.1996 11.9858 16.1591C12.0358 16.1186 12.1668 15.9947 12.2716 15.8828C12.3787 15.7709 12.5502 15.5898 12.655 15.4779C12.7167 15.4104 12.833 15.2867 12.96 15.1515C13.0436 15.0625 13.1319 14.9686 13.2123 14.8825C13.2967 14.7931 13.3956 14.6889 13.4926 14.5866C13.6282 14.4436 13.7601 14.3045 13.8435 14.2156C13.9864 14.0656 14.265 13.7702 14.4627 13.5607C14.658 13.3511 14.9152 13.0772 15.0319 12.9533C15.1018 12.8807 15.1913 12.7859 15.2735 12.6989C15.3315 12.6375 15.3859 12.5799 15.4273 12.5365C15.4677 12.4931 15.5331 12.4236 15.6097 12.3421C15.718 12.2268 15.8488 12.0877 15.9632 11.9649C16.1585 11.7553 16.4157 11.4815 16.5348 11.3576C16.6538 11.2338 16.8301 11.0456 16.9277 10.9408C17.0254 10.836 17.2016 10.6479 17.3207 10.524C17.3607 10.4816 17.4079 10.4317 17.4566 10.3802C17.5502 10.2811 17.6495 10.1762 17.7137 10.1072C17.7669 10.0501 17.9947 9.80784 18.3104 9.47199C18.5743 9.19138 18.8995 8.84545 19.2356 8.48769C19.7685 7.92218 20.3113 7.34435 20.6449 6.98928C20.7749 6.85087 20.8731 6.7463 20.9266 6.68952C21.0411 6.56786 21.1917 6.40921 21.3294 6.26424C21.4208 6.16797 21.5064 6.07774 21.572 6.00836C21.7387 5.8345 21.8959 5.64396 21.9293 5.57966C21.9864 5.46772 21.9888 5.44867 21.9864 4.99853C21.9864 4.65557 21.9745 4.47694 21.9435 4.31975C21.9221 4.20305 21.8769 4.0149 21.8459 3.90296C21.8149 3.79102 21.7602 3.62668 21.7268 3.5338C21.6911 3.4433 21.6077 3.25991 21.541 3.1313C21.4601 2.97649 21.3648 2.83835 21.2624 2.72879C21.1766 2.63829 21.048 2.51682 20.9766 2.46205C20.9051 2.40965 20.798 2.33582 20.7384 2.30247C20.6789 2.26913 20.5622 2.21197 20.4764 2.17863C20.3907 2.1429 20.2573 2.10003 20.1787 2.08098C20.1001 2.06192 19.962 2.03573 19.8691 2.02144ZM9.78271 3.64097C9.40878 3.62907 8.55138 3.61954 7.87737 3.62192C7.20335 3.6243 6.4698 3.63383 6.24592 3.64336C6.02204 3.65526 5.64335 3.67908 5.40042 3.70052C5.15749 3.72195 4.8312 3.76006 4.67401 3.78626C4.51682 3.81246 4.30723 3.85533 4.20959 3.88152C4.11194 3.90534 3.94046 3.97203 3.82852 4.02681C3.69752 4.09111 3.5832 4.16971 3.50461 4.24592C3.43792 4.31261 3.36647 4.40311 3.34504 4.44598C3.32122 4.48647 3.29026 4.57936 3.2712 4.64842C3.25215 4.71511 3.22119 4.92232 3.19975 5.10571C3.1807 5.28909 3.15212 5.58919 3.13783 5.77257C3.12592 5.95596 3.10211 6.3418 3.08782 6.62998C3.07591 6.91816 3.05447 7.52311 3.04018 7.97563C3.02827 8.42814 3.0116 9.77379 3.00446 10.9646C2.99493 12.5985 2.99969 13.5368 3.02827 14.7753C3.04971 15.6803 3.07829 16.6592 3.0902 16.9545C3.10211 17.2499 3.12354 17.6786 3.13783 17.9072C3.15212 18.1359 3.18546 18.5717 3.21166 18.8718C3.23786 19.1719 3.27597 19.5268 3.29502 19.6577C3.31407 19.7887 3.34266 19.9435 3.35695 20.0031C3.36885 20.0626 3.41411 20.2008 3.45459 20.3127C3.52128 20.4866 3.55224 20.5366 3.68562 20.67C3.77136 20.7557 3.90473 20.8605 3.98333 20.901C4.08097 20.951 4.22626 20.9962 4.43584 21.0391C4.47018 21.0458 4.50575 21.0528 4.54132 21.0597C4.68342 21.0875 4.8255 21.1153 4.88836 21.1249C4.96696 21.1368 5.14797 21.163 5.29325 21.182C5.43853 21.2011 5.69575 21.2344 5.86485 21.2535C6.03395 21.2725 6.51267 21.3106 6.9247 21.3368C7.37007 21.3654 8.24653 21.3964 9.08011 21.4107C10.0899 21.4297 11.0021 21.4297 12.3192 21.4107C13.329 21.3964 14.4151 21.3749 14.7366 21.3606C15.0581 21.3464 15.6202 21.3202 15.987 21.3011C16.1342 21.2925 16.2967 21.2831 16.4511 21.2742C16.6816 21.2609 16.8942 21.2487 17.0111 21.2416C17.2088 21.2297 17.5017 21.2058 17.6661 21.1915C17.8304 21.1773 18.0924 21.1463 18.2496 21.1225C18.4068 21.0963 18.6163 21.0558 18.714 21.0296C18.8116 21.0058 19.0046 20.9439 19.1379 20.8915C19.3237 20.8224 19.4166 20.7748 19.5071 20.6914C19.5762 20.6319 19.6857 20.508 19.7524 20.4175C19.8191 20.327 19.9191 20.1722 19.9715 20.0745C20.0239 19.9769 20.1001 19.8006 20.1406 19.6816C20.1811 19.5625 20.2359 19.3767 20.2621 19.2648C20.2883 19.1528 20.3312 18.9218 20.3573 18.7527C20.3608 18.7286 20.3643 18.7032 20.368 18.677C20.3903 18.5201 20.4162 18.3366 20.4264 18.2407C20.4328 18.1804 20.4441 18.0856 20.4561 17.9846C20.4663 17.8979 20.4772 17.8067 20.486 17.7286C20.5074 17.5595 20.5384 17.238 20.5574 17.0141C20.5765 16.7902 20.605 16.3829 20.6193 16.109C20.6312 15.8352 20.6551 15.2707 20.667 14.8587C20.6789 14.4466 20.6908 13.5988 20.6908 12.9771C20.6884 12.3555 20.6789 11.7387 20.6693 11.6077C20.6566 11.4489 20.6344 11.3378 20.6027 11.2742C20.5765 11.2218 20.5098 11.1385 20.455 11.0909C20.4026 11.0408 20.3169 10.9837 20.2692 10.9646C20.2192 10.9432 20.112 10.9289 20.0311 10.9289C19.9263 10.9289 19.8429 10.9456 19.7572 10.9837C19.6881 11.0146 19.5952 11.0813 19.55 11.1337C19.5047 11.1837 19.4523 11.2647 19.4309 11.31C19.3999 11.3814 19.3952 11.6434 19.3904 13.1677C19.388 14.4395 19.3761 15.1445 19.3475 15.6565C19.3261 16.0495 19.2975 16.5163 19.2832 16.6926C19.2713 16.8688 19.238 17.2118 19.2141 17.4547C19.1879 17.6976 19.1522 18.0025 19.1332 18.1335C19.1141 18.2645 19.0808 18.4621 19.0617 18.5741C19.0403 18.686 18.9926 18.9051 18.9522 19.0623C18.9117 19.2195 18.8497 19.4124 18.814 19.491C18.7759 19.5696 18.7164 19.6577 18.6759 19.6863C18.6378 19.7125 18.5639 19.753 18.5115 19.7744C18.4592 19.7935 18.352 19.8268 18.2734 19.8459C18.1948 19.865 17.99 19.8983 17.8209 19.9197C17.6518 19.9412 17.1778 19.9674 16.7729 19.9793C16.368 19.9912 15.7345 20.0174 15.3677 20.0364C15.001 20.0555 14.2079 20.0841 13.6053 20.0984C13.0027 20.1126 11.3094 20.1269 9.84225 20.1293C7.8345 20.1317 7.08427 20.1269 6.80561 20.1031C6.60317 20.0864 6.30308 20.0555 6.13874 20.0364C5.97441 20.0174 5.73862 19.984 5.61477 19.965C5.49093 19.9459 5.24323 19.8983 5.06699 19.8602C4.89074 19.8221 4.71688 19.7816 4.68116 19.7673C4.64305 19.753 4.60018 19.7078 4.58113 19.6649C4.56207 19.622 4.53111 19.4791 4.50968 19.3481C4.49062 19.2171 4.46204 18.8837 4.45013 18.6098C4.43584 18.3359 4.40726 17.6214 4.38821 17.026C4.36916 16.4306 4.34772 15.8471 4.34058 15.728C4.33105 15.6089 4.31676 14.63 4.30723 13.5487C4.29533 12.4675 4.29533 10.7955 4.30723 9.83333C4.31676 8.87114 4.34296 7.68744 4.36439 7.20158C4.38345 6.71572 4.41679 6.07981 4.43584 5.78448C4.4549 5.48916 4.47633 5.22479 4.48348 5.19621C4.49062 5.16525 4.5192 5.12952 4.55016 5.11523C4.57874 5.10094 4.67878 5.07474 4.76928 5.05569C4.86216 5.03902 5.14558 5.00806 5.40042 4.989C5.65526 4.96757 6.14827 4.94137 6.49599 4.92708C6.84372 4.91517 7.55108 4.90326 8.0679 4.90326C8.58472 4.90326 9.39926 4.91517 9.87797 4.92708C10.3567 4.94137 11.0902 4.95566 11.5094 4.95804C12.1811 4.96281 12.2811 4.95804 12.3549 4.92232C12.4002 4.90088 12.4716 4.8461 12.5145 4.80323C12.5574 4.76036 12.6145 4.67224 12.6431 4.60555C12.6788 4.52458 12.6955 4.43884 12.6955 4.33166C12.6979 4.21258 12.6836 4.14589 12.636 4.04586C12.6002 3.97441 12.5359 3.87914 12.4883 3.83865C12.4383 3.7934 12.3502 3.74577 12.2787 3.72672C12.1858 3.7029 11.9191 3.68861 11.307 3.67908C10.8426 3.66955 10.1566 3.65288 9.78271 3.64097ZM17.285 13.1486C17.1588 13.0867 17.1397 13.0843 16.6658 13.0796C16.3966 13.0772 16.1299 13.0843 16.0703 13.0938C16.0108 13.1034 15.9155 13.1391 15.856 13.1701C15.7988 13.201 15.7107 13.2796 15.6631 13.3463C15.6107 13.4154 15.563 13.5154 15.5464 13.5845C15.5273 13.6726 15.5273 13.7417 15.5464 13.8465C15.5654 13.9465 15.5988 14.0251 15.6607 14.1084C15.7226 14.1918 15.7893 14.249 15.8917 14.299L16.0346 14.3704C17.1516 14.3704 17.154 14.3704 17.285 14.3061C17.3564 14.2728 17.4469 14.2085 17.485 14.1632C17.5232 14.1203 17.5756 14.0418 17.6017 13.9894C17.6375 13.9203 17.6518 13.8488 17.6518 13.7274C17.6518 13.6059 17.6375 13.5345 17.6017 13.4654C17.5756 13.413 17.5232 13.3344 17.485 13.2915C17.4469 13.2463 17.3564 13.182 17.285 13.1486ZM17.2612 16.1472C17.1564 16.0995 17.1135 16.0971 15.5821 16.0995C14.7175 16.0995 13.984 16.109 13.9506 16.1186C13.9173 16.1281 13.853 16.1591 13.8077 16.1853C13.7625 16.2138 13.6863 16.2758 13.6386 16.3258C13.5934 16.3782 13.5386 16.4615 13.5219 16.5139C13.5029 16.5663 13.4886 16.6735 13.4886 16.7521C13.491 16.8426 13.5076 16.9331 13.5386 17.0022C13.5648 17.0617 13.6386 17.1546 13.7029 17.2118C13.7673 17.2665 13.8673 17.3285 13.9268 17.3475C14.0173 17.3785 14.2793 17.3832 15.5773 17.3832C17.0468 17.3832 17.123 17.3809 17.2445 17.3356C17.3112 17.3118 17.4088 17.2499 17.4612 17.1999C17.5112 17.1498 17.5756 17.0617 17.6041 17.0022C17.6399 16.9236 17.6518 16.8498 17.6518 16.7283C17.6518 16.6068 17.6375 16.5354 17.6017 16.4663C17.5732 16.4139 17.5089 16.3305 17.4588 16.2829C17.4088 16.2353 17.3207 16.1734 17.2612 16.1472ZM19.2689 3.31217C19.1594 3.3217 19.057 3.33837 19.0379 3.35028C19.0189 3.3598 18.9403 3.42649 18.864 3.49794C18.8468 3.51415 18.8222 3.53722 18.7924 3.56527C18.6908 3.66085 18.5279 3.8142 18.3806 3.95046C18.19 4.1267 17.8947 4.4006 17.7256 4.55779C17.6824 4.59793 17.6352 4.64179 17.587 4.68661C17.4463 4.81731 17.2969 4.95609 17.2135 5.03412C17.1464 5.09696 17.0348 5.20089 16.9181 5.30948C16.8403 5.38199 16.7601 5.45657 16.6896 5.52237C16.5133 5.6867 16.2013 5.97727 15.9989 6.16542C15.7964 6.35595 15.5559 6.57983 15.463 6.66557C15.4011 6.72588 15.2577 6.8598 15.1001 7.00703C15.0274 7.07494 14.9517 7.14569 14.8795 7.21336C14.7857 7.30129 14.6863 7.39483 14.5953 7.48051C14.4644 7.60368 14.3508 7.71057 14.296 7.76114C14.2375 7.81654 14.1025 7.94352 13.9487 8.08812C13.8645 8.16733 13.7746 8.25183 13.6887 8.33274C13.5579 8.45701 13.4047 8.60239 13.2687 8.73139C13.1544 8.83975 13.0524 8.93655 12.9861 8.99961C12.9217 9.06074 12.8448 9.13346 12.7702 9.20406C12.679 9.29027 12.5912 9.37333 12.5336 9.42831C12.5028 9.45766 12.4427 9.51469 12.3621 9.59121C12.168 9.77551 11.8548 10.0729 11.5452 10.3691C11.1069 10.7883 10.3519 11.5242 9.86608 12.0053C9.3826 12.4888 8.92531 12.958 8.85386 13.0508C8.78241 13.1437 8.68476 13.2914 8.63713 13.3771C8.5895 13.4653 8.51567 13.6272 8.4728 13.7391C8.42992 13.8511 8.37515 14.0107 8.35133 14.0964C8.32513 14.1821 8.27988 14.3584 8.24892 14.4894C8.21796 14.6204 8.16794 14.8514 8.14174 15.0014C8.12571 15.0856 8.10968 15.1683 8.09785 15.2292C8.08859 15.277 8.08191 15.3115 8.07982 15.323C8.07267 15.3492 8.08696 15.3968 8.11078 15.4301C8.13698 15.4635 8.29417 15.5826 8.46327 15.6945C8.63237 15.8064 8.84672 15.9398 8.93722 15.9898L9.10394 16.0803C9.36354 15.9755 9.58266 15.885 9.7589 15.8088C9.93514 15.735 10.2257 15.604 10.402 15.5206C10.5782 15.4349 10.8258 15.3159 10.9497 15.2563L10.9497 15.2563C11.1546 15.1562 11.2022 15.1181 11.4499 14.8657C11.6023 14.7109 11.8953 14.4036 12.1049 14.1798C12.3144 13.9583 12.6741 13.5772 12.9027 13.3343C13.1314 13.0913 13.4267 12.7817 13.5601 12.6436C13.6199 12.5805 13.7115 12.4836 13.8141 12.3751C13.9361 12.2462 14.0735 12.1009 14.1912 11.9767C14.31 11.85 14.4844 11.6654 14.6617 11.4779C14.8043 11.327 14.9488 11.1742 15.0677 11.0479C15.3368 10.7668 15.7179 10.3643 15.9155 10.1547C15.9712 10.0957 16.0465 10.0159 16.1337 9.9235C16.3561 9.68783 16.6558 9.37027 16.9039 9.10679C17.0579 8.94336 17.2664 8.72252 17.4874 8.48849C17.7656 8.19387 18.0636 7.87836 18.2972 7.63015C18.7164 7.18716 19.1332 6.74178 19.2237 6.64414C19.3166 6.5441 19.488 6.36072 19.6071 6.23687C19.7238 6.11302 19.9549 5.86533 20.1192 5.68908C20.2835 5.51284 20.4669 5.31516 20.5265 5.24847C20.586 5.18417 20.6575 5.09843 20.686 5.05794C20.7265 5.00554 20.7408 4.95315 20.7384 4.86741C20.7384 4.8031 20.7218 4.66258 20.7027 4.55779C20.6813 4.45299 20.6384 4.28628 20.6051 4.18863C20.5717 4.09098 20.5003 3.92426 20.4479 3.81947C20.3955 3.71467 20.3359 3.6075 20.3145 3.58368C20.2907 3.55986 20.2216 3.5027 20.1549 3.46222C20.0906 3.41935 19.9763 3.36695 19.9048 3.3479C19.8334 3.32884 19.7048 3.30741 19.619 3.30264C19.5333 3.2955 19.3761 3.30026 19.2689 3.31217Z" fill="#141414"/>
</g>
</svg>
