<svg width="31" height="30" viewBox="0 0 31 30" fill="none" xmlns="http://www.w3.org/2000/svg">
<path d="M1.95098 18.8307C1.79492 18.5256 1.79598 16.3971 1.6711 15.0543C1.58116 14.0872 1.53158 12.5326 1.44303 11.2628C1.28877 9.05044 1.13155 7.99339 1.10721 7.79542C1.05442 7.36622 1.04889 7.03122 1.06691 6.69664C1.08727 6.31866 2.52844 6.19329 3.79492 6.02563C4.586 5.92091 5.37129 6.16912 8.39591 5.94337C11.4205 5.71763 16.3641 5.5403 18.9221 5.48877C21.4801 5.43724 21.5026 5.5169 21.515 5.73339C21.5273 5.94988 21.5289 6.30079 21.6525 7.11906C21.7762 7.93733 22.0219 9.21231 22.2069 10.4431C22.392 11.6738 22.5088 12.8217 22.5707 13.6685C22.6698 15.0245 22.7284 16.146 22.8751 17.0954C22.9302 17.4521 22.9563 17.5535 22.9328 17.631C22.7331 18.2885 20.7962 18.1421 19.2529 18.7512C18.5831 19.0155 17.9187 19.0829 16.9563 19.2932C16.263 19.4447 15.6761 19.5058 14.4973 19.6344C13.7185 19.7194 12.5616 19.715 11.8086 19.708C10.7373 19.698 10.1066 19.5935 9.43568 19.5404C8.65079 19.4783 8.10748 19.4197 7.13871 19.3565C6.28391 19.2952 4.69174 19.1746 3.81811 19.109C2.94449 19.0435 2.13104 19.1826 1.95098 18.8307Z" fill="#83CEEB"/>
<path d="M23.395 18.1411C22.9084 13.9974 22.2633 9.877 22.1332 5.69855C22.1317 5.52145 22.065 5.35147 21.9465 5.22267C21.8985 5.16518 21.8433 5.11444 21.7824 5.07178C19.1061 3.27272 15.6433 4.64813 12.6671 5.00214C8.94398 5.4432 5.21524 5.7856 1.47518 5.99452C1.31969 6.002 1.17077 6.06106 1.05082 6.16282C0.91849 6.25584 0.825477 6.39686 0.790545 6.55745C0.765605 6.65445 0.765605 6.75643 0.790545 6.85343C0.665822 10.8478 0.836054 14.8462 1.29978 18.8143C1.31023 18.9234 1.34508 19.0287 1.40163 19.1218C1.45329 19.2434 1.53771 19.3473 1.64496 19.4213C1.75221 19.4953 1.87783 19.5364 2.00705 19.5397C5.90554 19.766 9.83797 20.149 13.7478 20.1665C16.8598 20.1665 19.836 19.441 22.8744 18.8375C22.9505 18.8247 23.0235 18.7971 23.0894 18.7562C23.1979 18.7008 23.2861 18.6111 23.3411 18.5003C23.3961 18.3896 23.415 18.2636 23.395 18.1411ZM19.8699 5.83203C17.352 9.31407 14.1156 11.6935 10.7206 14.2005C8.03614 12.0949 5.49883 9.79887 3.12737 7.32931C5.60565 7.16681 8.08959 6.96369 10.5566 6.69674C12.8538 6.44719 17.1766 5.17624 19.8699 5.83203ZM12.6954 18.675C9.34571 18.5589 5.99607 18.3152 2.64643 18.0946C2.28973 14.8736 2.1291 11.6329 2.16548 8.39133C4.76824 10.9506 7.33706 13.5274 10.2963 15.6746C10.3539 15.7353 10.4237 15.7824 10.501 15.8125C10.5782 15.8425 10.6609 15.8549 10.7433 15.8487H10.8112C10.9299 15.8272 11.04 15.7707 11.128 15.6862C14.7153 13.0341 18.0706 10.5618 20.7469 6.9811C20.928 10.5212 21.4599 14.0264 21.8786 17.5491C18.8401 18.1701 15.8583 18.7968 12.6954 18.675Z" fill="#1D1D1B"/>
<path d="M4.95098 21.8307C4.79492 21.5256 4.79598 19.3971 4.6711 18.0543C4.58116 17.0872 4.53158 15.5326 4.44303 14.2628C4.28877 12.0504 4.13155 10.9934 4.10721 10.7954C4.05442 10.3662 4.04889 10.0312 4.06691 9.69664C4.08727 9.31866 5.52844 9.19329 6.79492 9.02563C7.586 8.92091 8.37129 9.16912 11.3959 8.94337C14.4205 8.71763 19.3641 8.5403 21.9221 8.48877C24.4801 8.43724 24.5026 8.5169 24.515 8.73339C24.5273 8.94988 24.5289 9.30079 24.6525 10.1191C24.7762 10.9373 25.0219 12.2123 25.2069 13.4431C25.392 14.6738 25.5088 15.8217 25.5707 16.6685C25.6698 18.0245 25.7284 19.146 25.8751 20.0954C25.9302 20.4521 25.9563 20.5535 25.9328 20.631C25.7331 21.2885 23.7962 21.1421 22.2529 21.7512C21.5831 22.0155 20.9187 22.0829 19.9563 22.2932C19.263 22.4447 18.6761 22.5058 17.4973 22.6344C16.7185 22.7194 15.5616 22.715 14.8086 22.708C13.7373 22.698 13.1066 22.5935 12.4357 22.5404C11.6508 22.4783 11.1075 22.4197 10.1387 22.3565C9.28391 22.2952 7.69174 22.1746 6.81811 22.109C5.94449 22.0435 5.13104 22.1826 4.95098 21.8307Z" fill="#83CEEB"/>
<path d="M26.395 21.1411C25.9084 16.9974 25.2633 12.877 25.1332 8.69855C25.1317 8.52145 25.065 8.35147 24.9465 8.22267C24.8985 8.16518 24.8433 8.11444 24.7824 8.07178C22.1061 6.27272 18.6433 7.64813 15.6671 8.00214C11.944 8.4432 8.21524 8.7856 4.47518 8.99452C4.31969 9.002 4.17077 9.06106 4.05082 9.16282C3.91849 9.25584 3.82548 9.39686 3.79055 9.55745C3.7656 9.65445 3.7656 9.75643 3.79055 9.85343C3.66582 13.8478 3.83605 17.8462 4.29978 21.8143C4.31023 21.9234 4.34508 22.0287 4.40163 22.1218C4.45329 22.2434 4.53771 22.3473 4.64496 22.4213C4.75221 22.4953 4.87783 22.5364 5.00705 22.5397C8.90554 22.766 12.838 23.149 16.7478 23.1665C19.8598 23.1665 22.836 22.441 25.8744 21.8375C25.9505 21.8247 26.0235 21.7971 26.0894 21.7562C26.1979 21.7008 26.2861 21.6111 26.3411 21.5003C26.3961 21.3896 26.415 21.2636 26.395 21.1411ZM22.8699 8.83203C20.352 12.3141 17.1156 14.6935 13.7206 17.2005C11.0361 15.0949 8.49883 12.7989 6.12737 10.3293C8.60565 10.1668 11.0896 9.96369 13.5566 9.69674C15.8538 9.44719 20.1766 8.17624 22.8699 8.83203ZM15.6954 21.675C12.3457 21.5589 8.99607 21.3152 5.64643 21.0946C5.28973 17.8736 5.1291 14.6329 5.16548 11.3913C7.76824 13.9506 10.3371 16.5274 13.2963 18.6746C13.3539 18.7353 13.4237 18.7824 13.501 18.8125C13.5782 18.8425 13.6609 18.8549 13.7433 18.8487H13.8112C13.9299 18.8272 14.04 18.7707 14.128 18.6862C17.7153 16.0341 21.0706 13.5618 23.7469 9.9811C23.928 13.5212 24.4599 17.0264 24.8786 20.5491C21.8401 21.1701 18.8583 21.7968 15.6954 21.675Z" fill="#1D1D1B"/>
<path d="M8.95098 24.8307C8.79492 24.5256 8.79598 22.3971 8.6711 21.0543C8.58116 20.0872 8.53158 18.5326 8.44303 17.2628C8.28877 15.0504 8.13155 13.9934 8.10721 13.7954C8.05442 13.3662 8.04889 13.0312 8.06691 12.6966C8.08727 12.3187 9.52844 12.1933 10.7949 12.0256C11.586 11.9209 12.3713 12.1691 15.3959 11.9434C18.4205 11.7176 23.3641 11.5403 25.9221 11.4888C28.4801 11.4372 28.5026 11.5169 28.515 11.7334C28.5273 11.9499 28.5289 12.3008 28.6525 13.1191C28.7762 13.9373 29.0219 15.2123 29.2069 16.4431C29.392 17.6738 29.5088 18.8217 29.5707 19.6685C29.6698 21.0245 29.7284 22.146 29.8751 23.0954C29.9302 23.4521 29.9563 23.5535 29.9328 23.631C29.7331 24.2885 27.7962 24.1421 26.2529 24.7512C25.5831 25.0155 24.9187 25.0829 23.9563 25.2932C23.263 25.4447 22.6761 25.5058 21.4973 25.6344C20.7185 25.7194 19.5616 25.715 18.8086 25.708C17.7373 25.698 17.1066 25.5935 16.4357 25.5404C15.6508 25.4783 15.1075 25.4197 14.1387 25.3565C13.2839 25.2952 11.6917 25.1746 10.8181 25.109C9.94449 25.0435 9.13104 25.1826 8.95098 24.8307Z" fill="#83CEEB"/>
<path d="M30.395 24.1411C29.9084 19.9974 29.2633 15.877 29.1332 11.6985C29.1317 11.5214 29.065 11.3515 28.9465 11.2227C28.8985 11.1652 28.8433 11.1144 28.7824 11.0718C26.1061 9.27272 22.6433 10.6481 19.6671 11.0021C15.944 11.4432 12.2152 11.7856 8.47518 11.9945C8.31969 12.002 8.17077 12.0611 8.05082 12.1628C7.91849 12.2558 7.82548 12.3969 7.79055 12.5575C7.7656 12.6545 7.7656 12.7564 7.79055 12.8534C7.66582 16.8478 7.83605 20.8462 8.29978 24.8143C8.31023 24.9234 8.34508 25.0287 8.40163 25.1218C8.45329 25.2434 8.53771 25.3473 8.64496 25.4213C8.75221 25.4953 8.87783 25.5364 9.00705 25.5397C12.9055 25.766 16.838 26.149 20.7478 26.1665C23.8598 26.1665 26.836 25.441 29.8744 24.8375C29.9505 24.8247 30.0235 24.7971 30.0894 24.7562C30.1979 24.7008 30.2861 24.6111 30.3411 24.5003C30.3961 24.3896 30.415 24.2636 30.395 24.1411ZM26.8699 11.832C24.352 15.3141 21.1156 17.6935 17.7206 20.2005C15.0361 18.0949 12.4988 15.7989 10.1274 13.3293C12.6057 13.1668 15.0896 12.9637 17.5566 12.6967C19.8538 12.4472 24.1766 11.1762 26.8699 11.832ZM19.6954 24.675C16.3457 24.5589 12.9961 24.3152 9.64643 24.0946C9.28973 20.8736 9.1291 17.6329 9.16548 14.3913C11.7682 16.9506 14.3371 19.5274 17.2963 21.6746C17.3539 21.7353 17.4237 21.7824 17.501 21.8125C17.5782 21.8425 17.6609 21.8549 17.7433 21.8487H17.8112C17.9299 21.8272 18.04 21.7707 18.128 21.6862C21.7153 19.0341 25.0706 16.5618 27.7469 12.9811C27.928 16.5212 28.4599 20.0264 28.8786 23.5491C25.8401 24.1701 22.8583 24.7968 19.6954 24.675Z" fill="#1D1D1B"/>
</svg>
