<svg width="25" height="25" viewBox="0 0 25 25" fill="none" xmlns="http://www.w3.org/2000/svg">
<path d="M2.03313 19.6153C1.87056 19.2975 1.87167 17.0802 1.74158 15.6815C1.6479 14.6742 1.59625 13.0547 1.50401 11.732C1.34332 9.4275 1.17955 8.32641 1.15419 8.12019C1.09921 7.6731 1.09345 7.32414 1.11222 6.97562C1.13343 6.58189 2.63465 6.45131 3.9539 6.27666C4.77794 6.16757 5.59595 6.42612 8.74659 6.19097C11.8972 5.95582 17.0468 5.7711 19.7114 5.71743C22.3759 5.66375 22.3994 5.74673 22.4123 5.97224C22.4252 6.19775 22.4268 6.56329 22.5556 7.41565C22.6844 8.26801 22.9403 9.59612 23.1331 10.8781C23.3258 12.1602 23.4476 13.3559 23.512 14.238C23.6152 15.6504 23.6763 16.8188 23.8291 17.8076C23.8865 18.1792 23.9137 18.2849 23.8892 18.3656C23.6812 19.0505 21.6636 18.8979 20.0559 19.5324C19.3582 19.8078 18.6661 19.8779 17.6637 20.097C16.9415 20.2549 16.3301 20.3185 15.1022 20.4525C14.2909 20.541 13.0859 20.5364 12.3014 20.5291C11.1855 20.5187 10.5286 20.4099 9.82969 20.3546C9.01209 20.2898 8.44614 20.2288 7.43701 20.1629C6.54659 20.0991 4.88808 19.9734 3.97806 19.9052C3.06803 19.837 2.22069 19.9819 2.03313 19.6153Z" fill="#CCCCCC"/>
<path d="M24.3697 18.8969C23.8628 14.5807 23.1909 10.2886 23.0554 5.936C23.0538 5.75152 22.9843 5.57446 22.8609 5.44029C22.8109 5.38041 22.7534 5.32756 22.6899 5.28312C19.9021 3.4091 16.295 4.84181 13.1948 5.21057C9.31661 5.67001 5.4325 6.02668 1.53661 6.24431C1.37464 6.25209 1.21951 6.31361 1.09456 6.41962C0.95672 6.51651 0.859831 6.66341 0.823444 6.83069C0.797464 6.93173 0.797464 7.03796 0.823444 7.139C0.693524 11.2998 0.870849 15.4648 1.3539 19.5982C1.36478 19.7119 1.40109 19.8216 1.45999 19.9186C1.51381 20.0452 1.60174 20.1534 1.71346 20.2305C1.82518 20.3076 1.95603 20.3504 2.09064 20.3538C6.15156 20.5896 10.2478 20.9886 14.3206 21.0067C17.5622 21.0067 20.6624 20.2511 23.8275 19.6224C23.9067 19.609 23.9827 19.5803 24.0514 19.5377C24.1644 19.48 24.2563 19.3865 24.3136 19.2712C24.3709 19.1558 24.3906 19.0246 24.3697 18.8969ZM20.6978 6.07504C18.075 9.70217 14.7037 12.1807 11.1673 14.7922C8.37094 12.5989 5.72791 10.2072 3.25764 7.63471C5.83918 7.46544 8.42662 7.25386 10.9964 6.97578C13.3893 6.71583 17.8923 5.39193 20.6978 6.07504ZM13.2243 19.4531C9.73507 19.3322 6.24586 19.0783 2.75665 18.8486C2.38509 15.4933 2.21777 12.1176 2.25567 8.74098C4.96688 11.4069 7.64273 14.091 10.7253 16.3277C10.7853 16.391 10.858 16.44 10.9385 16.4713C11.0189 16.5027 11.1051 16.5155 11.1909 16.5091H11.2616C11.3853 16.4866 11.5 16.4278 11.5917 16.3398C15.3284 13.5772 18.8235 11.0019 21.6114 7.27199C21.8 10.9596 22.354 14.6109 22.7901 18.2803C19.6251 18.9272 16.519 19.5801 13.2243 19.4531Z" fill="#1D1D1B"/>
<line x1="3.14351" y1="3.14351" x2="21.5448" y2="22.1986" stroke="black" stroke-width="1.5" stroke-linecap="round"/>
</svg>
