<svg width="24" height="24" viewBox="0 0 24 24" fill="none" xmlns="http://www.w3.org/2000/svg">
  <path
    d="M9.05472 1.61267C12.4408 0.781514 16.0245 0.668216 17.8094 2.08057C19.5943 3.49293 23.1969 9.03208 22.9916 11.9827C22.6555 13.9369 22.0922 16.071 20.6321 17.9124C18.612 20.46 16.1346 23.0661 12.8995 22.9987C9.38105 22.9255 7.47515 22.7511 6.1022 21.5127C4.50563 20.0725 1.14325 16.9951 1.04056 14.4054C0.980075 12.8803 0.873195 11.2712 1.69787 9.33984C3.19054 5.84407 5.64517 2.4496 9.05472 1.61267Z"
    fill="#E9475A" />
  <path
    d="M22.9916 11.9825C22.6555 13.9368 22.0923 16.0708 20.6322 17.9122C18.6121 20.4598 16.135 23.0664 12.8998 22.9991L11.6537 22.9649C8.91335 22.8655 7.3042 22.5962 6.10292 21.5128L5.43105 20.9005C3.71649 19.3113 1.13126 16.6714 1.0414 14.4053C0.984699 12.9756 0.886596 11.472 1.5541 9.6983L1.69863 9.3399C3.14473 5.95326 5.49329 2.66141 8.73867 1.6983L9.05507 1.61237C12.3351 0.807236 15.8009 0.675837 17.6371 1.95221L17.81 2.08112C19.595 3.49387 23.1967 9.03204 22.9916 11.9825ZM21.4975 11.8184C21.5145 11.3772 21.3995 10.7244 21.1049 9.88776C20.8054 9.03747 20.361 8.10666 19.8432 7.19635C18.7767 5.32188 17.5448 3.78356 16.8793 3.2569C16.3589 2.84516 15.4031 2.54557 13.9896 2.50494C12.6177 2.46553 11.014 2.67628 9.4125 3.0694C6.72765 3.72852 4.52903 6.52946 3.07753 9.92877C2.40266 11.5093 2.47791 12.7941 2.53945 14.3458C2.56963 15.107 3.13726 16.1892 4.16738 17.4346C5.14275 18.6138 6.30765 19.6776 7.10683 20.3985C7.53347 20.7833 8.07423 21.0464 8.97792 21.2188C9.92482 21.3995 11.1606 21.4622 12.931 21.4991C14.1095 21.5236 15.2157 21.0693 16.3187 20.2383C17.4366 19.3961 18.4654 18.2317 19.4574 16.9805C20.6618 15.4616 21.1741 13.6622 21.4975 11.8184Z"
    fill="black" />
  <path
    d="M7.25276 7.00801C7.41951 7.03034 7.56798 7.10018 7.59203 7.11093C7.65784 7.14037 7.73018 7.17603 7.80061 7.21294C7.94375 7.28798 8.11818 7.38694 8.301 7.4962C8.66236 7.71218 9.10151 7.99614 9.43518 8.2567C9.72386 8.48213 10.105 8.72948 10.9552 9.46623C11.3273 9.78868 11.7977 10.2124 12.2881 10.6648C12.393 10.5696 12.4986 10.4747 12.6032 10.3798C13.2121 9.82675 13.8065 9.28625 14.2395 8.90701C15.1141 8.14113 15.3815 7.9838 15.6825 7.83501C16.1377 7.61023 16.6859 7.80381 16.9071 8.26672C17.1281 8.73 16.9381 9.28768 16.4828 9.51268C16.4098 9.54879 16.3588 9.5732 16.234 9.66296C16.0892 9.76707 15.853 9.95496 15.4355 10.3205C15.018 10.6861 14.4379 11.2133 13.8233 11.7714C13.7608 11.8282 13.6974 11.8846 13.6344 11.9418C13.7884 12.0931 13.9368 12.2401 14.0748 12.3808C15.0792 13.4043 15.6266 14.0421 15.9609 14.4692C16.1287 14.6835 16.2395 14.8407 16.3172 14.9501C16.3569 15.0059 16.3805 15.0382 16.3996 15.063L16.4211 15.0903L16.4336 15.1031L16.4461 15.1168C16.5267 15.2063 16.594 15.2918 16.6431 15.3545C16.6947 15.4203 16.7388 15.4777 16.7935 15.5457C17.1133 15.9445 17.0554 16.5324 16.6637 16.8582C16.2718 17.1839 15.6941 17.1244 15.3737 16.7261C15.3103 16.6472 15.2575 16.5783 15.2099 16.5176C15.1598 16.4537 15.1272 16.4138 15.0935 16.3764C14.9834 16.2584 14.8952 16.133 14.8312 16.043C14.7547 15.9353 14.6658 15.8088 14.5269 15.6314C14.2473 15.2742 13.749 14.6894 12.7768 13.6987C12.6161 13.5349 12.4406 13.3608 12.2567 13.1813C12.1824 13.2473 12.1109 13.3131 12.0401 13.3753C10.9313 14.3502 10.4647 14.6868 9.89798 15.2306C9.32001 15.8477 8.86175 16.3467 8.52032 16.7152C8.22908 17.0295 7.97017 17.3053 7.81851 17.4402L7.8194 17.4411C7.76869 17.4875 7.70658 17.5528 7.63768 17.6424C7.32569 18.0479 6.74997 18.1191 6.35133 17.8018C5.95318 17.4842 5.88288 16.8984 6.19468 16.493C6.32793 16.3197 6.4619 16.175 6.59302 16.0549L6.60914 16.0403L6.62615 16.0266C6.62985 16.0229 6.67179 15.9832 6.77653 15.8736C6.87894 15.7665 7.01411 15.6206 7.18563 15.4355C7.52649 15.0677 7.99932 14.5534 8.59193 13.9209L8.60894 13.9036L8.62595 13.8872C9.22068 13.3149 9.86198 12.8249 10.8415 11.9636C10.8624 11.9452 10.8829 11.9259 10.9041 11.9071C10.485 11.5227 10.0878 11.1647 9.76639 10.8861C8.95949 10.1869 8.7007 10.0349 8.31891 9.73673C8.07034 9.54261 7.70384 9.30256 7.37272 9.10465C7.2099 9.00734 7.06589 8.92651 6.96094 8.87149C6.91406 8.84692 6.88102 8.83038 6.86157 8.82139C6.44326 8.68938 6.16632 8.26815 6.22511 7.81133C6.29092 7.30063 6.75083 6.9411 7.25276 7.00801Z"
    fill="white" />
</svg>