<svg xmlns="http://www.w3.org/2000/svg" xml:space="preserve" style="enable-background:new 0 0 700 700" viewBox="0 0 700 700"><path d="M433.5 335.4c-3.4-39.9-34-73.1-76.5-73.1-41.6 0-76.5 34.8-76.5 76.5 0 39.9 32.3 74.8 73.1 76.5 44.2 1.7 76.5-32.3 79.9-74.8v-5.1z"/><path d="M597.5 330.3c-31.5-34.6-71.9-65.7-116.2-87.3l-15.6 16.7c41.3 18.9 79.1 46.9 109.7 78.3-56.1 57.8-137.7 103.7-218.4 103.7-18.3 0-36.7-2.4-54.8-6.8l-16.9 18.2c23.6 6.8 47.7 10.6 71.7 10.6 90.1 0 180.2-52.7 240.5-118.1 2.5-2.5 2.5-5.1 2.5-7.6.1-2.6-.8-5.1-2.5-7.7zM239.2 411.5c-37.7-18.8-72.4-44.9-100.6-73.5 56.1-57.8 136.8-103.7 218.4-103.7 14.6 0 29.2 1.5 43.6 4.2l17.4-18.7c-20.1-5-40.6-7.7-61.1-7.7-90.1 0-180.2 52.7-240.5 118.1-4.3 4.3-4.3 10.2 0 15.3 29.4 31.9 66.4 61.1 107.3 82.5l15.5-16.5z"/><path d="m190 132 310 380" style="fill:none"/><path d="M196.5 519.7c-3.9 0-7.8-1.4-10.9-4.3-6.5-6-6.8-16.2-.8-22.6l321-344c6-6.5 16.2-6.8 22.6-.8s6.8 16.2.8 22.6l-321 344c-3.2 3.4-7.4 5.1-11.7 5.1z"/></svg>