<?xml version="1.0" encoding="UTF-8"?>
<svg id="Calque_1" data-name="Calque 1" xmlns="http://www.w3.org/2000/svg" viewBox="0 0 41 35">
  <defs>
    <style>
      .cls-1 {
        fill: #1d1d1b;
        stroke-width: 0px;
      }
    </style>
  </defs>
  <path class="cls-1" d="M2.31,13.94C7.22,8.22,13.58,2.56,21.61,2.69c7.39.13,12.7,6.51,17.08,11.72,1.04,1.23,2.8-.54,1.77-1.77C35.58,6.85,29.77.33,21.61.19,12.91.05,5.89,5.94.54,12.17c-1.04,1.21.72,2.99,1.77,1.77h0Z"/>
  <path class="cls-1" d="M.6,14.11c4.72,6.3,12.14,10.45,20.09,10.56s15.57-3.94,19.95-10.5c.9-1.34-1.27-2.6-2.16-1.26-3.89,5.83-10.8,9.36-17.79,9.27S6.93,18.42,2.76,12.85c-.95-1.27-3.12-.03-2.16,1.26h0Z"/>
  <path class="cls-1" d="M14.58,17.53c2.54,2.47,6.36,3.09,9.54,1.52,1.46-.72,2.76-1.94,3.53-3.38.44-.82.75-1.76.7-2.71s-.35-1.79-.69-2.64c-.69-1.68-1.62-3.2-3.07-4.32-1.32-1.02-2.91-1.57-4.57-1.63-3.02-.11-6.01,1.53-7.09,4.42s-.55,6.66,1.65,8.73c1.17,1.1,2.94-.66,1.77-1.77-1.25-1.18-1.62-3.42-1.32-5.14.18-1.03.49-1.77,1.17-2.42.75-.71,1.76-1.15,2.78-1.29,2.4-.33,4.56.92,5.73,2.99.56.98,1.3,2.39,1.13,3.55s-1.15,2.27-2.09,2.92c-2.3,1.6-5.39,1.33-7.4-.61-1.16-1.12-2.93.65-1.77,1.77h0Z"/>
</svg>