<svg width="58" height="54" viewBox="0 0 58 54" fill="none" xmlns="http://www.w3.org/2000/svg">
<path d="M10.8323 25.9406C9.59585 25.9901 8.36756 26.1984 7.13292 26.267C3.48354 26.4698 2.01904 25.1906 2.01904 28.2437C2.01904 28.9354 2.14656 29.7161 2.32128 30.3956C2.79559 32.2401 3.5689 34.0701 4.25561 35.8359C4.70094 36.981 5.1969 38.1824 5.9421 39.1605C8.89059 43.0304 11.7188 45.1724 15.8132 47.8045C16.7011 48.3753 17.7197 48.8303 18.6664 49.3036C23.3831 51.662 28.4937 52.048 33.7299 52.048C35.1884 52.048 36.7436 51.9263 38.1184 51.3951C39.3025 50.9377 40.4083 50.3199 41.564 49.8114C48.4777 46.7693 56.0956 37.6907 56.0956 29.8516C56.0956 28.8676 56.2436 27.7493 56.0714 26.7808C56.0223 26.5043 56.0177 25.6375 55.6362 25.6081C55.3464 25.5858 55.102 25.4417 54.8443 25.3845C52.4423 24.8507 49.9118 25.0641 47.4395 25.0641C42.2989 25.0641 37.1606 25.1729 32.0253 25.1729C29.3145 25.1729 26.5672 25.0479 23.8649 25.2575C20.9369 25.4847 17.998 25.5008 15.0758 25.7713C13.6542 25.903 12.2552 25.8837 10.8323 25.9406Z" stroke="black" stroke-width="3" stroke-linecap="round"/>
<path d="M7.351 24.7376C7.11802 24.7085 6.81489 24.0808 6.69212 23.9155C6.37988 23.4952 6.07263 23.0255 5.82771 22.5615C5.08305 21.1505 4.95727 19.9741 4.95727 18.3785C4.95727 17.5592 5.32687 16.9497 5.69473 16.2507C5.88029 15.8982 6.19824 15.6469 6.48055 15.3803C6.68716 15.1852 6.74275 15.2053 6.4745 14.9874C6.06145 14.6518 5.72819 14.1585 5.39249 13.7482C-1.59485 5.20813 12.4799 -1.68774 15.9406 4.65687C16.1268 4.99818 16.4094 5.33555 16.6479 5.64217C16.7784 5.81003 17.1583 5.2565 17.2765 5.04373C18.0452 3.66007 20.4403 3.24481 21.8222 3.09127C26.0759 2.61863 28.6266 9.32206 27.1295 12.8778C26.988 13.2139 26.1666 14.6713 26.4162 14.9209C28.0066 16.5113 29.1241 17.5158 30.0673 19.8172C30.6461 21.2296 30.4179 22.9094 30.4179 24.4112" stroke="black" stroke-width="3" stroke-linecap="round"/>
<path d="M10.2886 9.06958C12.5213 10.277 14.6446 12.4579 16.2185 14.395C16.8779 15.2066 17.7672 15.9995 18.5518 16.686C20.0325 17.9816 21.3929 19.4319 22.9161 20.6695C23.589 21.2163 24.2782 22.0594 24.7598 22.7549C24.9359 23.0094 25.3253 23.1568 25.4972 23.432C25.6557 23.6855 25.82 23.9008 26.0654 24.0848" stroke="black" stroke-width="3" stroke-linecap="round"/>
<path d="M19.8633 10.4841C19.8633 12.4426 19.8633 14.4011 19.8633 16.3597C19.8633 16.9912 20.0566 17.2815 19.4221 17.3449C18.5922 17.4279 17.7942 17.8691 16.98 18.0461C15.2655 18.4188 13.8017 19.0798 12.0293 19.0798" stroke="black" stroke-width="3" stroke-linecap="round"/>
<path d="M26.8271 5.69661C27.6381 5.69661 28.8701 4.93511 29.5715 4.49974C30.2219 4.09602 31.2011 3.53846 31.941 3.32706C33.3919 2.91253 34.9794 2.46061 36.5109 2.84348C38.0504 3.22836 39.3499 4.25952 40.4037 5.39437C41.2206 6.27415 42.1688 9.38712 42.1688 10.6262" stroke="black" stroke-width="3" stroke-linecap="round"/>
<path d="M31.0703 23.8673C31.0703 23.3265 31.5884 22.8383 31.8924 22.4407C34.7824 18.6615 39.0691 10.8362 43.9094 10.7018C44.8482 10.6757 45.6922 10.4603 46.6054 10.7864C47.8607 11.2347 49.0897 12.5595 49.7849 13.6637C50.6635 15.059 51.6346 16.4335 51.6346 18.1247C51.6346 18.6692 51.7995 19.4882 51.3928 19.9261C51.0729 20.2706 50.7354 20.6605 50.3531 20.9295C49.7151 21.3785 48.8218 21.7045 48.2617 22.2352C47.3838 23.0669 46.1272 23.6219 45.1063 24.3025" stroke="black" stroke-width="3" stroke-linecap="round"/>
<path d="M49.6763 12.4427C49.6763 11.8077 49.8132 11.2979 50.0571 10.7018C50.3523 9.98025 50.4116 9.17949 50.5225 8.41685C50.7324 6.97432 50.6555 5.41697 50.6555 3.95581" stroke="black" stroke-width="3" stroke-linecap="round"/>
<path d="M49.894 11.681C51.3972 11.681 52.9003 11.681 54.4034 11.681C54.7314 11.681 56.1718 11.5062 56.3136 11.7898" stroke="black" stroke-width="3" stroke-linecap="round"/>
</svg>
