<svg width="58" height="58" viewBox="0 0 58 58" fill="none" xmlns="http://www.w3.org/2000/svg">
<path fill-rule="evenodd" clip-rule="evenodd" d="M5.03526 31.3377C5.61211 31.1683 6.18505 31 7.03077 31H7.2345L7.42777 31.0628C9.12113 31.6126 10.0713 33.1716 10.5923 34.1866C10.9295 34.8437 11.0034 35.5373 10.9999 36.1179C10.9967 36.634 10.929 37.1532 10.8762 37.5573C10.8702 37.6034 10.8644 37.6479 10.8589 37.6908C10.7528 38.5178 10.2668 39.1874 9.77278 39.6492C9.26986 40.1193 8.63873 40.4894 8.01357 40.6811C6.75782 41.0662 4.93425 41.0913 3.70145 40.8168C2.67173 40.5875 1.80782 40.1883 1.1636 39.5946C0.505002 38.9877 0.140034 38.2349 0.0336506 37.431C-0.17009 35.8914 0.576887 34.3032 1.58352 33.0425C2.07203 32.4307 2.73625 32.087 3.28718 31.8713C3.71467 31.7039 4.18437 31.5755 4.53992 31.4782C4.63132 31.4533 4.71517 31.4303 4.78883 31.4093C4.87158 31.3857 4.95346 31.3617 5.03526 31.3377ZM5.76905 33.6776C5.68531 33.7018 5.59427 33.7282 5.49411 33.7567C5.36852 33.7925 5.24986 33.8251 5.1364 33.8563C4.80153 33.9483 4.51202 34.0278 4.22348 34.1407C3.85074 34.2867 3.65971 34.426 3.56544 34.5441C2.74472 35.572 2.44329 36.5094 2.52387 37.1183C2.55964 37.3887 2.67001 37.6159 2.88915 37.8179C3.12267 38.0331 3.5389 38.2717 4.26093 38.4325C5.10468 38.6203 6.47179 38.5897 7.2596 38.3481C7.49343 38.2764 7.79263 38.1104 8.03428 37.8845C8.28483 37.6503 8.35764 37.4639 8.36745 37.3875C8.37299 37.3443 8.37849 37.3017 8.38393 37.2597C8.43897 36.834 8.48692 36.4632 8.48911 36.1034C8.49147 35.7137 8.43576 35.4542 8.34654 35.2804C7.88561 34.3824 7.37892 33.7218 6.80733 33.4522C6.47869 33.4722 6.23885 33.5416 5.76905 33.6776Z" fill="black"/>
<path fill-rule="evenodd" clip-rule="evenodd" d="M23.1204 28.806C23.935 29.9783 24.2054 31.5686 23.8408 33.4036C23.2928 36.1623 20.9401 37.1912 19.0323 36.9713C17.0763 36.7458 15 35.1583 15 32.1688C15 30.4476 15.6397 29.0764 16.6246 28.1783C17.5821 27.3053 18.8104 26.9268 19.9694 27.0116C21.1312 27.0966 22.323 27.6583 23.1204 28.806ZM18.1748 30.3056C17.7673 30.6772 17.4535 31.2641 17.4535 32.1688C17.4535 33.378 18.2161 34.1182 19.2837 34.2412C20.3995 34.3698 21.2551 33.7679 21.4457 32.8083C21.6869 31.594 21.4582 30.8859 21.1832 30.4902C20.8911 30.0698 20.403 29.7937 19.8093 29.7503C19.2127 29.7066 18.6097 29.9091 18.1748 30.3056Z" fill="black"/>
<path fill-rule="evenodd" clip-rule="evenodd" d="M14.3168 42.1326C14.9271 42.4422 15.1744 43.1951 14.8693 43.8143C14.7169 44.1236 14.4834 44.3019 14.3881 44.371C14.2639 44.4611 14.1349 44.5318 14.0272 44.5853C13.8093 44.6937 13.5507 44.7943 13.2931 44.8851C12.7707 45.0693 12.1116 45.2617 11.4701 45.4401C11.1034 45.5421 10.7135 45.6473 10.352 45.7448C10.0944 45.8143 9.85129 45.8799 9.64137 45.9377C9.37674 46.0105 9.15191 46.0742 8.9763 46.1277C8.79293 46.1837 8.71817 46.2124 8.70954 46.2157C8.7089 46.2159 8.70862 46.216 8.7087 46.216C8.46737 46.3273 8.24961 46.4222 8.05079 46.5088C7.47976 46.7576 7.06489 46.9384 6.69617 47.2445C6.21353 47.6451 5.76036 48.1103 5.37803 48.5952C4.61919 49.5575 4.15902 50.7282 3.62819 52.0785C3.59389 52.1658 3.5593 52.2538 3.52432 52.3425C2.9141 53.8903 2.47087 55.2887 2.47087 56.7466C2.47087 57.4388 1.91774 58 1.23543 58C0.553122 58 0 57.4388 0 56.7466C0 54.7851 0.598443 53.0138 1.23018 51.4115C1.27244 51.3043 1.31517 51.195 1.35859 51.084C1.85833 49.8065 2.44873 48.2972 3.44861 47.0291C3.9399 46.4061 4.51549 45.8156 5.13152 45.3043C5.79953 44.7498 6.65133 44.383 7.27954 44.1126C7.42975 44.0479 7.56718 43.9888 7.68625 43.9338C7.96969 43.8031 8.5095 43.6517 8.99484 43.5182C9.23633 43.4517 9.48572 43.3845 9.74284 43.3152C10.0871 43.2223 10.4453 43.1258 10.8169 43.0224C11.4525 42.8457 12.0434 42.6718 12.4821 42.5171C12.6797 42.4475 12.8196 42.391 12.9082 42.3495C13.2746 41.9925 13.8365 41.889 14.3168 42.1326Z" fill="black"/>
<path fill-rule="evenodd" clip-rule="evenodd" d="M31.8417 33.5542C31.6792 33.6841 31.5082 33.9077 31.2364 34.2979C30.5517 35.2809 29.7785 36.1668 29.0155 36.9993C27.3183 38.8511 25.2085 39.7837 23.1653 40.5282C22.6229 40.7258 22.0206 40.9075 21.4642 41.0752C21.1496 41.1701 20.8496 41.2606 20.5835 41.347C20.1711 41.4809 19.7736 41.6008 19.404 41.7122L19.3901 41.7164C19.012 41.8305 18.6668 41.9347 18.3402 42.0424C17.6831 42.259 17.1684 42.4686 16.7475 42.7287C16.0066 43.1865 15.4053 43.8859 15.1024 45.5689C15.0803 45.6917 15.0447 45.8846 14.9987 46.134C14.7909 47.2601 14.3706 49.538 14.02 51.7172C13.8054 53.0506 13.6215 54.3198 13.5284 55.2507C13.4848 55.6863 13.4651 56.0103 13.4655 56.2196C13.5633 56.427 13.6055 56.6641 13.5752 56.9089C13.4908 57.5914 12.8747 58.0756 12.1991 57.9903C11.7128 57.9288 11.4192 57.6224 11.2816 57.4173C11.1526 57.225 11.0969 57.0366 11.0709 56.9324C11.0168 56.7153 11.0044 56.4902 11.001 56.3214C10.9938 55.96 11.0258 55.4967 11.0754 55.0002C11.1763 53.9914 11.3702 52.6613 11.5864 51.3176C11.9428 49.1027 12.3721 46.7767 12.5778 45.6621C12.6222 45.4218 12.6561 45.2377 12.6767 45.1233C13.0843 42.8585 14.0279 41.4895 15.461 40.6039C16.1272 40.1922 16.8567 39.9114 17.5755 39.6744C17.9369 39.5553 18.3125 39.442 18.6849 39.3297L18.6889 39.3285C19.0646 39.2152 19.4413 39.1016 19.8291 38.9757C20.2087 38.8524 20.5521 38.7496 20.8805 38.6512C21.3729 38.5037 21.8316 38.3663 22.3289 38.1851C24.2916 37.47 25.9288 36.7011 27.2064 35.307C27.9477 34.4982 28.6317 33.7093 29.2202 32.8644L29.2375 32.8395C29.473 32.5013 29.8335 31.9834 30.3116 31.6011C30.8649 31.1586 31.6191 30.8605 32.5374 31.0667C33.3139 31.241 33.7607 31.8757 33.9835 32.2619C34.2415 32.709 34.4314 33.235 34.5702 33.7147C34.8438 34.6596 35 35.7153 35 36.2397C35 36.8566 34.9646 37.5379 34.5103 38.2988C34.0341 39.0964 33.4203 40.0507 32.6462 40.8038C32.4596 40.9853 32.3142 41.1454 32.1466 41.3302C32.0272 41.4617 31.8964 41.6058 31.7313 41.779C28.3957 45.2784 24.7337 48.0073 19.2484 48.0073C18.5676 48.0073 18.0157 47.4497 18.0157 46.7619C18.0157 46.0741 18.5676 45.5165 19.2484 45.5165C23.7494 45.5165 26.8085 43.3527 29.9554 40.0513C30.036 39.9666 30.1353 39.8581 30.2444 39.7388C30.4588 39.5044 30.7112 39.2283 30.936 39.0096C31.4624 38.4975 31.9384 37.784 32.3991 37.0123C32.5003 36.8429 32.5345 36.721 32.5345 36.2397C32.5345 36.0189 32.4333 35.2063 32.2039 34.414C32.095 34.0379 31.9765 33.7359 31.8649 33.5364C31.8577 33.5416 31.85 33.5476 31.8417 33.5542ZM31.759 33.3791C31.759 33.3786 31.7627 33.382 31.7697 33.3903C31.7624 33.3836 31.7589 33.3795 31.759 33.3791Z" fill="black"/>
<path fill-rule="evenodd" clip-rule="evenodd" d="M23.6472 45C24.3944 45 25 45.5641 25 46.2599C25 48.1547 24.6546 50.0216 24.3344 51.7517L24.3331 51.7588C24.0053 53.5301 23.7055 55.155 23.7055 56.7401C23.7055 57.4359 23.0999 58 22.3528 58C21.6056 58 21 57.4359 21 56.7401C21 54.9337 21.335 53.1238 21.6496 51.4241C21.6554 51.393 21.6612 51.3619 21.6669 51.3309C21.9936 49.5651 22.2945 47.9066 22.2945 46.2599C22.2945 45.5641 22.9001 45 23.6472 45Z" fill="black"/>
<path fill-rule="evenodd" clip-rule="evenodd" d="M47.457 31H47.5044C48.9795 31 50.409 31.776 51.2385 32.8839C52.1151 34.0547 52.378 35.6997 51.2536 37.2065C50.4254 38.3165 49.5086 39.1988 48.2787 39.6576C47.0493 40.1161 45.6975 40.0808 44.1493 39.7488C42.1769 39.3259 40.9043 37.5778 41.0056 35.7203C41.0542 34.8291 41.297 34.1126 41.8186 33.5068C42.2587 32.9956 42.8537 32.6309 43.3617 32.3195C43.3853 32.305 43.4086 32.2907 43.4318 32.2765C44.5311 31.6015 46.1138 31.0997 47.4098 31.0035L47.457 31ZM47.548 33.3813C46.6544 33.4583 45.4933 33.8325 44.7564 34.285C44.1401 34.6634 43.8801 34.8379 43.7163 35.0282C43.6135 35.1476 43.4974 35.3325 43.4695 35.8455C43.4285 36.5971 43.9441 37.266 44.6845 37.4248C45.9965 37.7061 46.7981 37.6574 47.3892 37.437C47.9798 37.2167 48.5507 36.7545 49.2514 35.8155C49.6587 35.2696 49.5951 34.7543 49.2385 34.278C48.8442 33.7513 48.1575 33.3975 47.548 33.3813Z" fill="black"/>
<path fill-rule="evenodd" clip-rule="evenodd" d="M43.7307 43.1913C46.118 42.9507 48.6477 42.8369 51.1035 43.47C51.1563 43.4836 51.2287 43.501 51.3113 43.5209C51.4929 43.5646 51.7235 43.6201 51.9019 43.6726C52.9331 43.9764 53.7236 44.6797 54.32 45.4792C54.9153 46.2772 55.3686 47.2379 55.7197 48.1973C56.4214 50.1147 56.7917 52.2455 56.9956 53.612C57.0328 53.8611 57.1462 54.0927 57.3798 54.57C57.3963 54.6036 57.4133 54.6384 57.4309 54.6745C57.6604 55.1441 58 55.8584 58 56.7328C58 57.4326 57.4498 58 56.771 58C56.0923 58 55.5421 57.4326 55.5421 56.7328C55.5421 56.5162 55.4632 56.28 55.236 55.8151C55.2154 55.773 55.1928 55.7276 55.1685 55.679C54.9704 55.2821 54.6674 54.6749 54.5663 53.9974C54.3675 52.6652 54.0272 50.751 53.4201 49.0922C53.1168 48.2635 52.7662 47.5533 52.3717 47.0244C51.9784 46.4971 51.5932 46.2176 51.2267 46.1096C51.0952 46.0708 50.9891 46.0458 50.8581 46.0148C50.7615 45.9919 50.6513 45.9659 50.5074 45.9288C48.4796 45.406 46.3003 45.4788 43.9698 45.7137C43.3547 45.7757 42.7215 45.8504 42.0783 45.9262C40.3598 46.1288 38.5705 46.3397 36.8689 46.3397C36.78 46.3397 36.6604 46.3432 36.5347 46.3557C36.5084 46.3583 36.4829 46.3612 36.4584 46.3643C36.4554 46.507 36.4567 46.6 36.4631 46.6737C36.4728 46.7857 36.4886 46.8055 36.506 46.8272C36.5068 46.8282 36.5075 46.8291 36.5083 46.8301C36.7765 47.1682 37.226 47.4001 37.943 47.5231C38.5889 47.6339 39.2836 47.6321 40.0196 47.6303C40.1146 47.6301 40.2102 47.6298 40.3065 47.6298C41.2743 47.6298 42.1693 47.5278 43.1382 47.4172C43.6811 47.3553 44.2472 47.2908 44.8624 47.24C45.1753 47.2142 45.5332 47.1764 45.9078 47.1368C46.4863 47.0757 47.1044 47.0104 47.6564 46.9788C47.6994 46.9763 47.766 46.9709 47.8295 46.9625C48.1756 46.755 48.6131 46.7257 48.9979 46.9241C49.605 47.2371 49.8511 47.9983 49.5475 48.6242C49.4102 48.9074 49.2105 49.0717 49.095 49.1526C48.9711 49.2392 48.8531 49.2926 48.772 49.3247C48.6106 49.3888 48.4522 49.4239 48.3442 49.4443C48.1189 49.4867 47.8962 49.5034 47.7928 49.5094C47.2581 49.54 46.7845 49.5912 46.2814 49.6457C45.9032 49.6866 45.5084 49.7293 45.0584 49.7664C44.6002 49.8042 44.1087 49.8595 43.5984 49.9169C42.5392 50.036 41.399 50.1643 40.3065 50.1643C40.2197 50.1643 40.1288 50.1647 40.0342 50.1651C39.3216 50.168 38.4054 50.1717 37.5396 50.0232C36.5467 49.8528 35.4133 49.4525 34.606 48.435C34.198 47.9209 34.0565 47.3792 34.0149 46.8994C33.9915 46.6288 34.0011 46.2655 34.0075 46.0226C34.0097 45.9394 34.0116 45.8703 34.0116 45.8239C34.0116 45.2232 34.2891 44.7574 34.6307 44.4563C34.9361 44.1871 35.2851 44.0504 35.5412 43.9748C36.0581 43.8223 36.6036 43.8053 36.8689 43.8053C38.4208 43.8053 39.9942 43.6197 41.6593 43.4234C42.3332 43.3439 43.0221 43.2627 43.7307 43.1913ZM36.1594 46.4321C36.1594 46.4321 36.16 46.4318 36.1611 46.4312C36.16 46.4318 36.1594 46.4321 36.1594 46.4321Z" fill="black"/>
<path fill-rule="evenodd" clip-rule="evenodd" d="M44.2841 48C44.9805 48 45.5449 48.5281 45.5449 49.1795C45.5449 49.2873 45.5383 49.3948 45.5336 49.4703C45.533 49.4793 45.5324 49.4881 45.5319 49.4966C45.5273 49.5693 45.524 49.6218 45.5225 49.6737C45.5214 49.7095 45.5217 49.7344 45.5223 49.7509C45.6445 50.0614 45.8195 50.381 46.0387 50.7511C46.0876 50.8337 46.1402 50.921 46.1948 51.0119C46.3798 51.3192 46.5889 51.6669 46.7658 52.0106C46.9365 52.3422 47.4804 53.28 48.0856 54.1827C48.3871 54.6324 48.6879 55.0495 48.9516 55.3675C49.0838 55.5269 49.1933 55.6451 49.2774 55.7246C49.3143 55.7594 49.3383 55.7792 49.35 55.7884C49.9382 56.0928 50.17 56.78 49.8666 57.3477C49.5552 57.9304 48.7979 58.1665 48.1751 57.8752C47.8858 57.7399 47.6497 57.5396 47.4854 57.3842C47.305 57.2138 47.1272 57.016 46.9593 56.8135C46.6228 56.4077 46.2718 55.9171 45.9494 55.4362C45.3068 54.4776 44.7141 53.462 44.4939 53.034C44.3552 52.7646 44.2017 52.5093 44.0264 52.2176C43.9647 52.1151 43.9004 52.0082 43.8331 51.8945C43.59 51.4841 43.3224 51.0088 43.1262 50.4886C42.9947 50.1401 42.9964 49.7954 43.0018 49.6089C43.0045 49.517 43.0104 49.4252 43.0147 49.3572C43.0153 49.3484 43.0158 49.34 43.0163 49.332C43.0214 49.2513 43.0233 49.2088 43.0233 49.1795C43.0233 48.5281 43.5878 48 44.2841 48ZM45.524 49.7748C45.524 49.7748 45.5239 49.7742 45.5237 49.7729Z" fill="black"/>
<path fill-rule="evenodd" clip-rule="evenodd" d="M37.7227 48.0623C38.2763 47.8514 38.8747 48.1934 39.0592 48.8261C39.2822 49.5909 39.7152 50.8791 40.0046 51.5405C40.1074 51.7757 40.2061 51.9607 40.3236 52.1809C40.409 52.341 40.5043 52.5196 40.6183 52.7496C40.676 52.866 40.7434 52.9975 40.8162 53.1396C41.019 53.5355 41.2641 54.0139 41.4612 54.48C41.7343 55.1261 42 55.9302 42 56.7923C42 57.4593 41.527 58 40.9434 58C40.3599 58 39.8869 57.4593 39.8869 56.7923C39.8869 56.4714 39.7819 56.0592 39.5586 55.531C39.4005 55.157 39.2246 54.814 39.0371 54.4482C38.9535 54.2851 38.8675 54.1174 38.7798 53.9404C38.7321 53.8442 38.6658 53.7183 38.5913 53.5769C38.4363 53.2826 38.246 52.9212 38.1145 52.6207C37.7609 51.8124 37.2914 50.4023 37.0545 49.5899C36.87 48.9572 37.1692 48.2732 37.7227 48.0623Z" fill="black"/>
<path fill-rule="evenodd" clip-rule="evenodd" d="M32.5799 39.1969C33.1782 38.838 33.9865 38.9835 34.3854 39.5218C34.6522 39.882 34.8228 40.2799 34.9381 40.5489C34.9425 40.5592 34.9468 40.5692 34.951 40.5791C35.0875 40.8969 35.164 41.0639 35.2543 41.1882C35.4214 41.4182 35.5486 41.6502 35.6455 41.8321C35.6687 41.8755 35.6899 41.9157 35.7098 41.9534C35.7822 42.0903 35.8368 42.1936 35.9011 42.2986C35.9407 42.3632 35.9925 42.4445 36.0509 42.536C36.1919 42.7571 36.3711 43.0382 36.5093 43.2907C36.7196 43.6748 36.9436 44.1715 36.9954 44.7311C37.0551 45.3759 36.5227 45.9422 35.8061 45.9959C35.0896 46.0496 34.4603 45.5705 34.4005 44.9257C34.3882 44.7924 34.325 44.603 34.1735 44.3261C34.0698 44.1368 33.969 43.9795 33.8528 43.7981C33.7825 43.6883 33.7065 43.5696 33.6208 43.4297C33.5147 43.2566 33.4181 43.0734 33.3429 42.9307C33.3267 42.9001 33.3116 42.8714 33.2975 42.845C33.2075 42.676 33.1419 42.5626 33.0749 42.4704C32.8202 42.1198 32.6535 41.7305 32.5406 41.4666C32.5343 41.4518 32.5281 41.4374 32.5221 41.4234C32.388 41.1111 32.3097 40.9442 32.2188 40.8215C31.8199 40.2831 31.9816 39.5558 32.5799 39.1969Z" fill="black"/>
<path fill-rule="evenodd" clip-rule="evenodd" d="M18.6636 1.13362C19.2564 0.821656 19.9772 1.07456 20.2735 1.69849C20.3293 1.81585 20.3909 1.92285 20.4777 2.07365C20.5148 2.13813 20.5565 2.21062 20.6043 2.29535C20.7408 2.53691 20.9205 2.86963 21.0404 3.24826C21.0978 3.42964 21.1779 3.61495 21.2925 3.87558C21.2956 3.88267 21.2988 3.88981 21.302 3.89703C21.4058 4.13308 21.5398 4.43793 21.644 4.76687C21.7361 5.05782 21.8119 5.35182 21.8773 5.60549C21.8869 5.64264 21.8963 5.67892 21.9054 5.71421C21.9811 6.00593 22.0476 6.24924 22.1293 6.47774C22.5292 7.59658 22.8989 8.69405 23.2633 9.77537C24.0649 12.1545 24.8402 14.4554 25.8522 16.7338C26.8283 18.9314 27.6301 21.1981 28.4154 23.4179C28.5466 23.789 28.6775 24.1588 28.8085 24.5268C28.9469 24.9151 29.0524 25.3076 29.143 25.6443L29.1539 25.6847C29.2516 26.0479 29.3345 26.3507 29.4384 26.6358C29.5503 26.9428 29.6848 27.2505 29.839 27.5988C29.8478 27.6186 29.8566 27.6386 29.8655 27.6587C30.0077 27.9795 30.1663 28.3377 30.3063 28.7074C30.61 29.5097 31 30.5812 31 31.7369C31 32.4345 30.4627 33 29.8 33C29.1373 33 28.6 32.4345 28.6 31.7369C28.6 31.1238 28.3891 30.4675 28.0768 29.6424C27.963 29.3419 27.8311 29.044 27.6817 28.7066L27.6636 28.6658C27.5123 28.324 27.3436 27.941 27.1976 27.5404C27.0493 27.1334 26.9391 26.724 26.8452 26.3748L26.8447 26.3732C26.7459 26.0059 26.664 25.7019 26.5614 25.4138C26.4266 25.0356 26.2935 24.6592 26.1609 24.2846C25.3738 22.0604 24.6096 19.901 23.6781 17.8037C22.6157 15.4118 21.7763 12.922 20.9553 10.4866C20.6 9.4325 20.2481 8.38862 19.883 7.3673C19.7584 7.01874 19.667 6.67577 19.5902 6.37955C19.5798 6.33961 19.5698 6.30065 19.5599 6.26254C19.4929 6.00327 19.4362 5.78376 19.3672 5.56572C19.3093 5.38285 19.2288 5.19657 19.1144 4.93642C19.1111 4.92883 19.1077 4.92116 19.1043 4.91341C19.0008 4.67805 18.8672 4.37419 18.7636 4.0471C18.7302 3.9417 18.6646 3.80451 18.5413 3.58605C18.5199 3.5481 18.4946 3.50432 18.4669 3.45625C18.3653 3.27998 18.2303 3.04585 18.1269 2.82823C17.8306 2.20429 18.0708 1.44559 18.6636 1.13362Z" fill="black"/>
<path fill-rule="evenodd" clip-rule="evenodd" d="M21.1515 4.44421C21.6068 4.96797 21.533 5.74639 20.9866 6.18286C19.9212 7.03401 18.6681 7.27695 17.6558 7.41611C17.3797 7.45407 17.1258 7.48482 16.8892 7.51347C16.1654 7.60113 15.604 7.66913 15.0664 7.86361C14.3596 8.11929 13.6834 8.42497 12.953 8.75513C12.8382 8.80704 12.722 8.85955 12.6042 8.91257C11.7581 9.29326 10.8415 9.69234 9.84721 9.9916C9.44994 10.1112 9.08022 10.2146 8.72733 10.3133C7.99262 10.5189 7.33089 10.7041 6.64549 10.9718C4.10205 11.9651 3.6489 12.7294 3.58451 13.3931C3.5417 13.8343 3.64506 14.4384 3.97606 15.33C4.30426 16.2141 4.80797 17.2599 5.45773 18.5659C5.58602 18.8238 5.70484 19.072 5.81953 19.3115C6.09654 19.8902 6.34946 20.4185 6.6535 20.9112C6.67131 20.9241 6.73482 20.9686 6.89145 21.0372C7.00251 21.0859 7.11864 21.1298 7.2689 21.1866C7.28684 21.1934 7.30526 21.2004 7.32423 21.2076C7.48287 21.2677 7.69389 21.3482 7.8937 21.4461C7.91121 21.4547 7.93384 21.4654 7.96057 21.4781C8.11138 21.5496 8.39296 21.683 8.6245 21.8435C8.95185 22.0705 9.30004 22.4198 9.47126 22.957C9.5384 23.1677 9.63176 23.3806 9.70372 23.5091C9.73593 23.4988 9.77481 23.4843 9.82007 23.4639C9.91972 23.4191 10.0259 23.3571 10.127 23.2853C12.274 21.7594 14.7181 20.9521 16.9515 20.2391C17.0465 20.2088 17.141 20.1787 17.2351 20.1487C19.4175 19.453 21.3713 18.8302 23.0452 17.7501C23.2434 17.6222 23.4438 17.5134 23.5981 17.4295L23.6054 17.4256C23.7749 17.3334 23.8925 17.2692 23.9978 17.2019C24.5896 16.8237 25.3891 16.977 25.7836 17.5442C26.1781 18.1115 26.0182 18.878 25.4264 19.2562C25.2386 19.3762 25.046 19.4808 24.8969 19.5618L24.8753 19.5735C24.7092 19.6638 24.59 19.7295 24.4833 19.7983C22.5075 21.0732 20.2419 21.7938 18.1491 22.4594C18.0205 22.5003 17.8925 22.541 17.7652 22.5816C15.5046 23.3033 13.4352 24.0075 11.6608 25.2686C11.2527 25.5587 10.6465 25.8903 9.95124 25.9782C9.16616 26.0775 8.2795 25.8494 7.66977 25.0401C7.38433 24.6612 7.17308 24.1603 7.05063 23.806C7.03626 23.7983 7.01917 23.7893 6.99889 23.7791C6.96421 23.7615 6.92605 23.743 6.87849 23.7202C6.86983 23.7161 6.86066 23.7117 6.85108 23.7071C6.81196 23.6884 6.76617 23.6664 6.72159 23.6446C6.64677 23.6079 6.54468 23.567 6.37761 23.5037C6.36057 23.4973 6.34274 23.4905 6.32422 23.4835C6.18195 23.4298 5.99893 23.3607 5.82135 23.283C5.44503 23.1182 4.83741 22.8119 4.45878 22.2036C4.07028 21.5796 3.72393 20.8559 3.4228 20.2267C3.32104 20.0141 3.22444 19.8123 3.13313 19.6287C2.49064 18.3373 1.92925 17.1803 1.54968 16.1578C1.1729 15.1428 0.925837 14.1363 1.02013 13.1644C1.22995 11.0018 3.00115 9.72911 5.67378 8.68528C6.48522 8.36837 7.35456 8.1246 8.15095 7.9013C8.47415 7.81067 8.78534 7.72342 9.07576 7.63601C9.89091 7.39067 10.672 7.05458 11.51 6.67755C11.6198 6.62812 11.7311 6.57778 11.8436 6.52686C12.5678 6.19918 13.3462 5.84701 14.1571 5.55365C15.0102 5.24505 15.9806 5.13023 16.7562 5.03847C16.9476 5.01582 17.1272 4.99457 17.2902 4.97216C18.222 4.84406 18.8557 4.67136 19.3378 4.28616C19.8842 3.84969 20.6962 3.92046 21.1515 4.44421Z" fill="black"/>
<path fill-rule="evenodd" clip-rule="evenodd" d="M21.3661 8.89443C21.5339 9.52692 21.1258 10.1678 20.4545 10.326C20.2428 10.3758 20.0199 10.4901 19.6561 10.7169C19.6159 10.742 19.5727 10.7694 19.5266 10.7986C19.216 10.9954 18.7785 11.2725 18.2962 11.4571C17.9981 11.5712 17.7058 11.7183 17.3423 11.9021L17.3297 11.9085C16.9902 12.0801 16.584 12.2855 16.1438 12.4518C16.1407 12.4535 16.1186 12.4643 16.0698 12.4949C16.016 12.5286 15.9876 12.5478 15.9504 12.5729C15.9151 12.5967 15.8719 12.6259 15.7916 12.6779C15.7657 12.6946 15.7362 12.7136 15.7031 12.7342C15.7947 12.938 15.9009 13.1494 16.0005 13.3421C16.0436 13.4255 16.0661 13.4683 16.088 13.5103C16.1075 13.5475 16.1267 13.584 16.1596 13.6476L16.1607 13.6497C16.197 13.7199 16.2557 13.8333 16.294 13.9272C16.5227 14.4874 16.8744 15.0678 17.2745 15.6334C17.3263 15.6377 17.3949 15.6403 17.4821 15.6385C17.8378 15.6309 18.25 15.5576 18.5417 15.4965C18.7651 15.4497 18.9986 15.4175 19.1784 15.3927C19.2051 15.389 19.2307 15.3855 19.2549 15.3821C19.4665 15.3524 19.6082 15.3291 19.7232 15.299C19.8999 15.2528 20.0783 15.1757 20.3736 15.0436C20.3811 15.0402 20.3888 15.0368 20.3965 15.0334C20.6591 14.9159 21.0259 14.7517 21.4415 14.6455C22.2836 14.4301 23.0056 14.4303 23.6886 14.4305C23.7081 14.4305 23.7277 14.4305 23.7472 14.4305C24.4391 14.4305 25 14.959 25 15.6109C25 16.2629 24.4391 16.7914 23.7472 16.7914C23.0168 16.7914 22.5975 16.7962 22.0978 16.9239C21.919 16.9697 21.7383 17.0466 21.4478 17.1765C21.436 17.1818 21.424 17.1872 21.4118 17.1927C21.1545 17.3079 20.7955 17.4687 20.3938 17.5738C20.1141 17.647 19.8348 17.6877 19.6234 17.7173C19.5925 17.7217 19.563 17.7258 19.5346 17.7297C19.3464 17.7559 19.2125 17.7745 19.0853 17.8012C18.7603 17.8692 18.1505 17.9858 17.5384 17.9988C17.2338 18.0052 16.8643 17.9881 16.5018 17.8943C16.1439 17.8017 15.6661 17.6 15.3368 17.1478C14.8355 16.4595 14.3112 15.6441 13.9577 14.7803C13.9584 14.782 13.9588 14.7829 13.9587 14.783C13.9584 14.7831 13.9459 14.7566 13.9076 14.6826C13.901 14.6698 13.882 14.6335 13.8589 14.5891C13.8213 14.517 13.7727 14.4238 13.748 14.3761C13.6239 14.136 13.4648 13.8205 13.3294 13.5031C13.2059 13.2138 13.0526 12.8127 13.0114 12.4325C12.9924 12.2561 12.9752 11.912 13.1523 11.5599C13.3715 11.1239 13.7957 10.8528 14.2722 10.7928C14.2928 10.7815 14.3258 10.7623 14.3733 10.7316C14.4062 10.7103 14.4382 10.689 14.4783 10.6622C14.4873 10.6562 14.4966 10.65 14.5064 10.6434C14.5562 10.6102 14.6176 10.5695 14.6827 10.5288C14.8088 10.4498 14.9898 10.344 15.2077 10.2619C15.5046 10.15 15.7968 10.0042 16.1576 9.82172C16.1688 9.81607 16.1801 9.81038 16.1914 9.80466C16.5254 9.63572 16.9241 9.43406 17.3532 9.26981C17.579 9.18336 17.7825 9.05578 18.1127 8.84867C18.1631 8.81708 18.2164 8.78364 18.2732 8.74822C18.6501 8.51317 19.1831 8.19187 19.8468 8.03552C20.5181 7.8774 21.1983 8.26195 21.3661 8.89443ZM17.1582 15.6157C17.1582 15.6156 17.1594 15.616 17.1616 15.6167C17.1592 15.6161 17.1581 15.6157 17.1582 15.6157Z" fill="black"/>
<path fill-rule="evenodd" clip-rule="evenodd" d="M21.7878 0.499548C22.1747 1.01494 22.0178 1.71128 21.4375 2.05487C20.9198 2.36135 20.344 2.38709 20.0935 2.39829C20.085 2.39867 20.0769 2.39904 20.0691 2.39939C20.0318 2.40111 19.9995 2.40253 19.9708 2.40379C19.8717 2.40814 19.8173 2.41052 19.7602 2.41656C19.747 2.41796 19.7373 2.41926 19.7306 2.42026C18.6865 2.8253 17.2314 3 16.263 3C15.5654 3 15 2.49786 15 1.87844C15 1.25903 15.5654 0.756888 16.263 0.756888C17.0237 0.756888 18.115 0.603345 18.7327 0.359551C19.0055 0.251858 19.2666 0.209806 19.4614 0.189197C19.6155 0.172904 19.7792 0.166033 19.8851 0.161587C19.9049 0.160757 19.9227 0.160011 19.938 0.159304C20.0291 0.155101 20.084 0.149755 20.113 0.146464C20.684 -0.142309 21.4176 0.00653115 21.7878 0.499548Z" fill="black"/>
</svg>
