<svg width="56" height="56" viewBox="0 0 45 56" fill="none" xmlns="http://www.w3.org/2000/svg">
<path d="M32.0959 10.0942C33.8361 9.94357 35.3156 9.8155 36.8722 10.1268C37.6845 10.2893 38.4748 9.76246 38.6372 8.95012C38.7997 8.13778 38.2729 7.34754 37.4605 7.18507C35.4408 6.78112 33.4334 6.95973 31.6571 7.11778C31.2601 7.15311 30.8746 7.18741 30.5031 7.21394C30.0171 7.24865 29.4916 7.27132 28.9446 7.29492C27.854 7.34196 26.6782 7.39268 25.5605 7.54986C23.9731 7.77308 22.3856 7.74649 20.6795 7.71791C20.0862 7.70798 19.4786 7.6978 18.8517 7.6978C18.0233 7.6978 17.3517 8.36937 17.3517 9.1978C17.3517 10.0262 18.0233 10.6978 18.8517 10.6978C19.3633 10.6978 19.8976 10.707 20.4472 10.7164C22.212 10.7467 24.1357 10.7797 25.9783 10.5206C26.9685 10.3814 27.8687 10.3442 28.8514 10.3036C29.4325 10.2797 30.0424 10.2545 30.7168 10.2063C31.1969 10.172 31.6549 10.1324 32.0959 10.0942Z" fill="black"/>
<path d="M30.5375 15.8996C31.0238 15.8996 31.4809 15.8309 31.8219 15.7796L31.8551 15.7746C32.2341 15.7177 32.484 15.6828 32.723 15.6828C33.5514 15.6828 34.223 15.0113 34.223 14.1828C34.223 13.3544 33.5514 12.6828 32.723 12.6828C32.2407 12.6828 31.7857 12.7513 31.4464 12.8023L31.4097 12.8078C31.032 12.8645 30.7798 12.8996 30.5375 12.8996C26.3316 12.8996 22.1684 13.0435 17.9497 13.4483C17.125 13.5274 16.5207 14.2601 16.5998 15.0847C16.6789 15.9093 17.4116 16.5137 18.2362 16.4346C22.3356 16.0413 26.3994 15.8996 30.5375 15.8996Z" fill="black"/>
<path d="M17.9845 19.2934C17.1561 19.2934 16.4845 19.965 16.4845 20.7934C16.4845 21.6219 17.1561 22.2934 17.9845 22.2934H35.5406C36.369 22.2934 37.0406 21.6219 37.0406 20.7934C37.0406 19.965 36.369 19.2934 35.5406 19.2934H17.9845Z" fill="black"/>
<path d="M26.1183 27.0617C26.3437 27.0617 26.5452 27.0589 26.7294 27.0563C27.2766 27.0485 27.6715 27.0429 28.0896 27.1207C29.3435 27.354 31.0412 27.3387 32.3281 27.017C33.1318 26.816 33.6204 26.0016 33.4195 25.1979C33.2185 24.3942 32.4041 23.9056 31.6004 24.1065C30.7717 24.3137 29.5119 24.3339 28.6383 24.1713C27.8951 24.0331 27.103 24.0467 26.5062 24.0571C26.3648 24.0595 26.2345 24.0617 26.1183 24.0617H17.6593C16.8309 24.0617 16.1593 24.7333 16.1593 25.5617C16.1593 26.3902 16.8309 27.0617 17.6593 27.0617H26.1183Z" fill="black"/>
<path d="M18.243 30.1311C17.4149 30.1081 16.7249 30.7607 16.7019 31.5888C16.6789 32.4169 17.3316 33.1069 18.1597 33.1299C19.9037 33.1783 21.6366 33.3863 23.4498 33.604L23.8174 33.648C25.7385 33.8778 27.7472 34.1058 29.797 34.1058C30.4169 34.1058 31.1084 34.0753 31.7541 34.0468C32.168 34.0285 32.5631 34.0111 32.9084 34.0031C33.0063 34.0008 33.1112 33.9996 33.2222 33.9984C33.887 33.9909 34.7678 33.9811 35.6465 33.7174C36.44 33.4794 36.8903 32.6432 36.6523 31.8497C36.4142 31.0562 35.578 30.6059 34.7845 30.844C34.3404 30.9772 33.9307 30.9842 33.2616 30.9957C33.1313 30.9979 32.9907 31.0003 32.8386 31.0039C32.3367 31.0155 31.8988 31.0359 31.48 31.0554C30.9205 31.0814 30.3952 31.1058 29.797 31.1058C27.9481 31.1058 26.1036 30.9001 24.1738 30.6693L23.7778 30.6218C21.9938 30.4074 20.1306 30.1835 18.243 30.1311Z" fill="black"/>
<path d="M18.8517 35.6573C18.0233 35.6573 17.3517 36.3289 17.3517 37.1573C17.3517 37.9858 18.0233 38.6573 18.8517 38.6573C20.7721 38.6573 22.6956 38.6843 24.6306 38.7114L24.6374 38.7115C26.5665 38.7385 28.5076 38.7657 30.4474 38.7657C31.2758 38.7657 31.9474 38.0941 31.9474 37.2657C31.9474 36.4373 31.2758 35.7657 30.4474 35.7657C28.5298 35.7657 26.6077 35.7388 24.6726 35.7117L24.6698 35.7116C22.7394 35.6846 20.7955 35.6573 18.8517 35.6573Z" fill="black"/>
<path d="M18.5434 43.9675C21.9159 43.9296 25.2697 43.986 28.6587 44.043C29.3215 44.0541 29.9865 44.0653 30.6525 44.0758C30.7965 44.078 30.9571 44.0873 31.1663 44.0993L31.1753 44.0998C31.3761 44.1114 31.6169 44.125 31.8624 44.1283C32.3271 44.1345 32.9804 44.1102 33.6053 43.8603C34.3744 43.5526 34.7486 42.6797 34.4409 41.9105C34.1332 41.1413 33.2603 40.7672 32.4911 41.0749C32.4339 41.0978 32.2692 41.1335 31.9025 41.1286C31.7322 41.1263 31.5539 41.1166 31.3474 41.1048L31.3119 41.1027C31.1258 41.092 30.9082 41.0794 30.6997 41.0761C30.0403 41.0658 29.3805 41.0547 28.7201 41.0436C25.331 40.9865 21.9281 40.9293 18.5097 40.9677C17.6813 40.977 17.0173 41.6561 17.0266 42.4844C17.0359 43.3128 17.715 43.9768 18.5434 43.9675Z" fill="black"/>
<path d="M27.2082 48.7359C27.5755 48.7359 27.9017 48.7093 28.1771 48.6826C28.2638 48.6742 28.3411 48.6664 28.4122 48.6591C28.585 48.6415 28.7217 48.6276 28.8685 48.6189C29.2144 48.5983 29.4732 48.6184 29.8004 48.7442C30.5736 49.0416 31.4415 48.6559 31.7389 47.8827C32.0363 47.1095 31.6505 46.2416 30.8773 45.9442C30.036 45.6206 29.3215 45.5866 28.6902 45.6242C28.4751 45.637 28.2473 45.6602 28.0545 45.6799C27.9952 45.6859 27.9393 45.6916 27.888 45.6966C27.648 45.7198 27.4329 45.7359 27.2082 45.7359C26.7698 45.7359 26.3655 45.782 26.0272 45.8256C25.946 45.8361 25.8699 45.8461 25.7975 45.8557C25.5471 45.8889 25.3407 45.9163 25.1212 45.9327C24.0628 46.0121 22.9913 46.0005 21.8421 45.9881L21.7892 45.9875C20.6426 45.9752 19.4184 45.9634 18.1852 46.0662C17.3596 46.135 16.7461 46.86 16.8149 47.6855C16.8837 48.5111 17.6087 49.1246 18.4343 49.0558C19.5058 48.9665 20.593 48.9748 21.7568 48.9874L21.8619 48.9885C22.9728 49.0006 24.1568 49.0135 25.3456 48.9243C25.6591 48.9008 25.9735 48.859 26.2344 48.8242C26.2962 48.816 26.3552 48.8081 26.4103 48.801C26.7225 48.7608 26.9702 48.7359 27.2082 48.7359Z" fill="black"/>
<path fill-rule="evenodd" clip-rule="evenodd" d="M14.5737 6.36376C14.2496 5.71546 13.6589 5.31183 12.976 5.23567C12.4029 5.17175 11.9039 5.3514 11.582 5.50922C11.236 5.67887 10.9259 5.90616 10.6761 6.13795C10.4383 6.35864 10.1742 6.65851 9.99658 7.01379C9.98886 7.02921 9.97685 7.05154 9.96154 7.07998C9.85796 7.27242 9.60359 7.74503 9.51052 8.25692C9.42413 8.73203 9.43477 9.1636 9.50673 9.59537C9.59968 10.1531 9.90173 10.5372 10.1872 10.7779C10.3872 10.9465 10.6384 11.0834 10.6898 11.1114L10.6986 11.1162C10.8378 11.1962 10.9829 11.2725 11.1335 11.3434C11.0325 12.6496 10.9734 13.9846 11.0242 15.3313C11.0418 15.7967 10.9761 16.2712 10.8541 16.8555C10.4116 17.1831 10.0832 17.6384 9.83823 18.1358L9.76975 18.2748L9.73115 18.425C9.64533 18.7587 9.53659 19.216 9.53005 19.7326C9.5223 20.3447 9.68078 21.0366 10.2005 21.5931C10.2738 21.6717 10.3504 21.7433 10.4297 21.8085L10.4368 22.138C10.4421 22.3808 10.4473 22.6205 10.4516 22.8555C10.4586 23.2425 10.4377 23.5714 10.4133 23.9569C10.3981 24.1957 10.3815 24.4564 10.3694 24.766C10.3547 25.1399 10.3588 25.5067 10.363 25.835L10.3637 25.8899C10.3679 26.2072 10.3715 26.488 10.3639 26.7655C10.3493 27.2987 10.3194 27.886 10.2884 28.494L10.2821 28.6175C10.2187 28.6362 10.1371 28.6622 10.0499 28.6961C9.93305 28.7416 9.77085 28.8148 9.60207 28.933C9.34451 29.1133 9.19826 29.3278 9.13096 29.4368C9.05631 29.5576 9.0072 29.6684 8.98106 29.7302C8.96702 29.7634 8.95299 29.7988 8.94253 29.8257C8.92589 29.852 8.88784 29.9122 8.86116 29.9566C8.78986 30.0753 8.63013 30.3492 8.5637 30.7146L8.56108 30.729C8.53855 30.8526 8.49537 31.0897 8.47426 31.3406C8.45643 31.5526 8.42874 32.0078 8.59023 32.46C8.72169 32.8281 8.95248 33.0751 9.06532 33.1872C9.20186 33.323 9.34452 33.433 9.45729 33.5132C9.68394 33.6744 9.91552 33.8033 10.0539 33.8743C10.0866 33.891 10.1243 33.91 10.1665 33.9303C10.1561 34.7242 10.1459 35.5285 10.1459 36.3346L10.1459 36.38C10.1459 37.4167 10.1459 38.3735 10.0575 39.2932C9.93413 39.4176 9.81826 39.5678 9.72443 39.7475C9.58331 39.9635 9.48138 40.1885 9.41457 40.3463C9.31041 40.5924 9.21539 40.8635 9.13555 41.1221C8.99618 41.5735 8.83053 42.2191 8.82638 42.6847C8.82262 43.1055 8.86595 43.7749 9.31205 44.4129L9.32121 44.4261C9.3815 44.5126 9.53044 44.7263 9.7233 44.9222C9.88115 45.0825 10.345 45.5259 11.0614 45.56C11.0864 45.5612 11.1145 45.5627 11.1452 45.5644C11.4529 45.5813 12.0292 45.6131 12.5554 45.4551C13.3392 45.2198 13.8741 44.6548 14.1671 43.8953C14.5601 42.8763 14.7303 41.6261 14.44 40.4346C14.3897 40.2279 14.2785 39.7919 13.9808 39.4022C13.75 39.1 13.45 38.8764 13.1047 38.744C13.1463 37.9582 13.1461 37.19 13.1459 36.471L13.1459 36.3346C13.1459 35.514 13.1567 34.6922 13.1677 33.8589L13.1678 33.8536C13.171 33.6115 13.1742 33.3683 13.1772 33.1245C13.1958 33.0893 13.2134 33.0538 13.2299 33.0182C13.2934 32.8818 13.3466 32.7874 13.4216 32.6545C13.4726 32.5643 13.5336 32.4561 13.6145 32.3051C13.9347 31.708 13.978 31.1016 14.0004 30.7886C14.0022 30.7633 14.0039 30.74 14.0055 30.7187C14.0077 30.6908 14.0103 30.66 14.0131 30.6267C14.0361 30.3515 14.0733 29.9059 14.026 29.4644C14.0086 29.3018 13.9645 29.0502 13.8254 28.786C13.7013 28.5502 13.5251 28.349 13.3088 28.1967C13.3302 27.7688 13.3498 27.324 13.3628 26.8477C13.3721 26.5069 13.3677 26.1686 13.3637 25.8649L13.3628 25.7962C13.3585 25.4635 13.3559 25.1694 13.3671 24.8835C13.3735 24.7205 13.3852 24.5278 13.398 24.3182C13.4265 23.8501 13.4601 23.2972 13.4511 22.801C13.4466 22.5541 13.4414 22.3124 13.4361 22.0738C13.7312 21.9083 14.0781 21.6424 14.3178 21.2397C14.6174 20.7364 14.7253 20.1845 14.7606 19.7512C14.7972 19.3017 14.7657 18.8533 14.6933 18.4708C14.5961 17.9566 14.3146 17.4211 13.8782 17.0196C13.9772 16.4647 14.0465 15.8634 14.0221 15.2182C13.9783 14.0575 14.0256 12.8925 14.115 11.7021C14.5591 11.5292 14.8126 11.2045 14.9167 11.0506C14.9879 10.9453 15.0376 10.8488 15.0577 10.8097L15.0792 10.7676C15.4533 10.0979 15.4033 9.33196 15.389 9.11275C15.3877 9.09191 15.3866 9.07601 15.3863 9.0656C15.3525 7.96572 14.9011 7.01855 14.5737 6.36376ZM15.0792 10.7676L15.0707 10.7826L15.0766 10.7721C15.0792 10.7673 15.081 10.764 15.0792 10.7676Z" fill="black"/>
<path fill-rule="evenodd" clip-rule="evenodd" d="M42.2418 0.00359655C41.2993 -0.0148851 40.3754 0.0410705 39.5112 0.0981243L39.2851 0.113119C38.4887 0.166087 37.7455 0.215513 37.0014 0.220077C35.0688 0.231934 33.141 0.227988 31.2061 0.224027C30.2353 0.22204 29.2627 0.220049 28.2868 0.220049H19.581C19.0589 0.220049 18.5387 0.220646 18.0194 0.221241C16.9847 0.222428 15.9538 0.22361 14.9203 0.220058C14.8092 0.219677 14.6404 0.216331 14.4234 0.212033C13.2756 0.189297 10.7817 0.139897 8.38779 0.361524C6.96917 0.492861 5.47407 0.727193 4.25287 1.16472C3.14346 1.56219 1.68819 2.33361 1.34776 3.90263C-0.173294 10.9136 -0.163881 18.2254 0.207323 25.4779C0.333856 27.95 0.500963 30.4016 0.666858 32.8354C0.992629 37.6147 1.31373 42.3255 1.31373 46.9888C1.31373 47.7972 1.28755 48.6093 1.26033 49.4492L1.25991 49.4623C1.23308 50.29 1.20536 51.1453 1.20536 52.004C1.20536 52.7067 1.60009 53.1803 1.90208 53.4272C2.1903 53.6628 2.5111 53.7984 2.74753 53.8805C3.23389 54.0494 3.80358 54.138 4.28741 54.1885C4.79206 54.2411 5.30144 54.2617 5.71339 54.2625C5.91966 54.2629 6.11308 54.2583 6.27811 54.2488C6.34627 54.2449 6.45994 54.2381 6.58677 54.2207C13.6066 54.2237 19.4185 54.4751 24.9289 54.7277L25.7901 54.7673C31.0151 55.0076 36.0224 55.2379 41.5501 55.2379C41.5501 55.2379 41.5586 55.238 41.5801 55.2391C41.6032 55.2402 41.6313 55.242 41.6706 55.2447L41.6988 55.2467C41.7688 55.2515 41.8696 55.2585 41.9698 55.2624C42.0857 55.2667 42.2408 55.2688 42.4083 55.2541C42.5679 55.24 42.8062 55.2055 43.0605 55.1008C43.4252 54.9506 43.6392 54.7032 43.7415 54.5635C43.8508 54.4142 43.9172 54.2718 43.9556 54.1786C44.0322 53.9926 44.0754 53.809 44.1012 53.6818C44.1553 53.4145 44.1876 53.1114 44.2088 52.8571C44.2309 52.5919 44.2451 52.3269 44.2551 52.1198C44.2598 52.0214 44.2644 51.9176 44.2674 51.8538C44.2691 51.8182 44.2705 51.7904 44.2717 51.7689C44.2726 51.7526 44.2731 51.7446 44.2732 51.7425C45.1739 40.9344 44.8177 30.2648 44.4624 19.6232C44.2739 13.976 44.0857 8.33671 44.0857 2.68936L44.086 2.6473C44.0877 2.49781 44.0921 2.09406 44.0307 1.72749C43.9971 1.52719 43.9218 1.18018 43.711 0.845788C43.4654 0.45597 42.9778 0.018028 42.2418 0.00359655ZM37.0198 3.22002C37.8595 3.21487 38.6929 3.1593 39.4741 3.1072L39.7088 3.09161C40.1825 3.06033 40.6388 3.03208 41.0859 3.01546C41.0928 8.76734 41.2822 14.399 41.4699 19.9822C41.8234 30.4985 42.1711 40.8427 41.2835 51.4941C41.278 51.5607 41.2738 51.6465 41.2707 51.7128C41.2668 51.796 41.2635 51.8727 41.2585 51.9759C41.2545 52.0592 41.25 52.1475 41.2448 52.2376C35.9086 52.2294 31.0515 52.006 25.9114 51.7697L25.0663 51.7309C19.5164 51.4764 13.61 51.2207 6.46042 51.2207H6.26089L6.14915 51.2509C6.13747 51.2518 6.12309 51.2528 6.1058 51.2538C6.01446 51.259 5.88246 51.2628 5.71921 51.2625C5.3921 51.2618 4.98604 51.2451 4.59856 51.2047C4.45674 51.1899 4.32809 51.173 4.21389 51.1549C4.2238 50.6265 4.24105 50.0926 4.25875 49.5464L4.25908 49.5363C4.28594 48.7076 4.31373 47.8504 4.31373 46.9888C4.31373 42.2279 3.98072 37.3337 3.65112 32.4896C3.48726 30.0814 3.32424 27.6855 3.2034 25.3245C2.83596 18.1456 2.84505 11.1613 4.27629 4.55376C4.27661 4.55391 4.2778 4.55236 4.28007 4.5491C4.30534 4.51284 4.4727 4.27269 5.26472 3.98893C6.13133 3.67844 7.33141 3.47215 8.66436 3.34875C10.8588 3.14558 13.1106 3.18824 14.3057 3.21088C14.5575 3.21565 14.7624 3.21953 14.9099 3.22004C15.9501 3.22361 16.9931 3.22242 18.0321 3.22123C18.5497 3.22064 19.0663 3.22005 19.581 3.22005H28.2868C29.2492 3.22005 30.215 3.22202 31.1826 3.224C33.1251 3.22797 35.0755 3.23195 37.0198 3.22002ZM41.0691 2.20954C41.0692 2.20933 41.0703 2.21362 41.0719 2.22305C41.0697 2.21447 41.0689 2.20975 41.0691 2.20954ZM3.68848 51.0297C3.68795 51.0294 3.68851 51.0297 3.68848 51.0297C3.68841 51.0297 3.69036 51.0307 3.69456 51.0325C3.69205 51.0312 3.68944 51.0301 3.68848 51.0297Z" fill="black"/>
</svg>
