<svg width="26" height="26" viewBox="0 0 26 26" fill="none" xmlns="http://www.w3.org/2000/svg">
<path d="M12.9826 9.82761C14.2308 10.005 16.5105 10.8658 15.6058 12.1882C14.8723 12.9293 13.768 12.3837 12.8894 12.3837C11.7868 12.3837 10.7288 12.3514 9.6785 12.7603C9.12972 12.9739 8.63972 13.3333 8.16624 13.6806L8.13756 13.7016C7.20403 14.3862 6.32262 15.1805 5.5072 16.0043C4.71481 16.8049 3.82077 17.8745 3.51831 18.9949C3.14038 20.395 3.98916 22.0068 5.29577 22.5504C6.67094 23.1225 8.1758 22.2101 9.30837 21.5235L9.33448 21.5076C9.98517 21.1132 10.5088 20.5964 11.0403 20.0594C11.3772 19.719 11.7319 19.4034 12.0795 19.0746C12.2393 18.9234 12.4477 18.966 12.6529 18.966C13.1776 18.966 14.0592 19.0332 14.5056 19.328C14.934 19.6111 14.4579 20.029 14.2547 20.2984C13.4625 21.349 12.6391 22.5929 11.4775 23.2636C9.14802 24.6085 7.62727 25.4179 4.9625 25.4179C2.09758 25.4179 0.576184 22.14 0.576184 19.7191C0.576184 18.5494 0.813344 17.5783 1.44341 16.5945C3.03743 14.1056 5.15992 12.1365 7.66452 10.6603C9.16629 9.77527 11.281 9.58586 12.9826 9.82761Z" fill="#9EB1B7"/>
<path fill-rule="evenodd" clip-rule="evenodd" d="M7.3742 10.1575C9.02563 9.18423 11.2845 8.99849 13.0628 9.25115C13.7396 9.34731 14.7101 9.62691 15.4157 10.0905C15.7657 10.3205 16.1189 10.6402 16.2886 11.0714C16.4758 11.5474 16.3991 12.0525 16.0797 12.5192L16.0501 12.5626L16.0132 12.5999C15.4659 13.1528 14.7905 13.1931 14.25 13.1436C14.0284 13.1233 13.8017 13.0849 13.6031 13.0512C13.5635 13.0445 13.5251 13.038 13.488 13.0319C13.2498 12.9923 13.0573 12.9659 12.8894 12.9659C12.8215 12.9659 12.7544 12.9658 12.6878 12.9657C11.6414 12.9644 10.7597 12.9632 9.88567 13.3035C9.41929 13.4851 8.98968 13.796 8.50474 14.1517L8.47604 14.1727C7.57341 14.8346 6.71505 15.6073 5.91463 16.416C5.12915 17.2096 4.33379 18.1864 4.07419 19.1481C3.77737 20.2477 4.46057 21.5734 5.51515 22.0121C6.02281 22.2233 6.58567 22.1764 7.20373 21.9591C7.82782 21.7398 8.43673 21.373 9.0119 21.0243L9.03801 21.0085C9.62017 20.6556 10.0983 20.1879 10.6328 19.6478C10.8694 19.4087 11.1214 19.175 11.3628 18.9511C11.4735 18.8484 11.582 18.7478 11.6857 18.6496C11.8911 18.4553 12.1237 18.3985 12.3012 18.3835C12.3844 18.3765 12.4619 18.3781 12.5174 18.3799C12.5396 18.3806 12.5577 18.3812 12.5734 18.3818C12.6047 18.383 12.6268 18.3838 12.6529 18.3838C12.9357 18.3838 13.3182 18.4017 13.6971 18.4612C14.0587 18.518 14.4915 18.6232 14.8209 18.8408C15.0288 18.9782 15.2027 19.188 15.2454 19.4743C15.2842 19.7339 15.1981 19.9534 15.1263 20.0906C15.0522 20.232 14.9559 20.3557 14.8844 20.4433C14.8448 20.4918 14.8154 20.5266 14.7912 20.5552C14.7602 20.5919 14.7376 20.6186 14.7131 20.6512C14.6172 20.7782 14.5188 20.9115 14.4174 21.0489C13.7241 21.9881 12.8892 23.119 11.7633 23.7691C9.41978 25.122 7.78709 26 4.9625 26C3.28209 26 2.02588 25.0305 1.2152 23.7986C0.409931 22.575 0 21.0368 0 19.7191C0 18.455 0.260375 17.3701 0.959666 16.2782C2.60662 13.7067 4.79786 11.6759 7.3742 10.1575ZM12.9023 10.4041C11.2776 10.1732 9.30696 10.3663 7.95485 11.1632C5.52198 12.597 3.46825 14.5045 1.92716 16.9107C1.36631 17.7865 1.15237 18.6439 1.15237 19.7191C1.15237 20.8223 1.50314 22.1334 2.1748 23.154C2.84104 24.1663 3.778 24.8357 4.9625 24.8357C7.46744 24.8357 8.87627 24.0949 11.1916 22.7582C12.0922 22.2382 12.769 21.3269 13.4802 20.3691C13.5846 20.2286 13.6898 20.087 13.7964 19.9456C13.8315 19.8991 13.8694 19.8533 13.9016 19.8149C13.9114 19.8031 13.9208 19.792 13.9298 19.7813C13.9479 19.7598 13.9646 19.7399 13.9814 19.7195C13.8607 19.6782 13.7055 19.6407 13.5202 19.6117C13.2155 19.5638 12.8948 19.5481 12.6529 19.5481C12.6178 19.5481 12.5848 19.5472 12.5566 19.5463L12.5162 19.5448C12.5034 19.5443 12.492 19.5439 12.481 19.5435C12.4582 19.5428 12.441 19.5425 12.4277 19.5426C12.3222 19.642 12.2194 19.7372 12.1187 19.8307C11.8876 20.0449 11.6671 20.2494 11.4477 20.471C10.9193 21.0049 10.3502 21.5708 9.63094 22.0068C9.63094 22.0068 9.63095 22.0068 9.63094 22.0068L9.58447 22.035C9.0302 22.371 8.32846 22.7965 7.58236 23.0587C6.82105 23.3263 5.9439 23.4495 5.07639 23.0886C3.51776 22.4402 2.50339 20.5423 2.96243 18.8418C3.30776 17.5625 4.30046 16.4003 5.09978 15.5927C5.93017 14.7537 6.83467 13.9378 7.79907 13.2305C7.79909 13.2305 7.79906 13.2306 7.79907 13.2305L7.82774 13.2095C7.83623 13.2033 7.84474 13.1971 7.85328 13.1908C8.31 12.8557 8.85174 12.4583 9.47133 12.2171C10.5548 11.7953 11.644 11.7983 12.6478 11.8012C12.7289 11.8014 12.8095 11.8016 12.8894 11.8016C13.1608 11.8016 13.4358 11.8433 13.6747 11.883C13.7201 11.8905 13.7641 11.8979 13.8072 11.9052C14.0049 11.9386 14.18 11.9682 14.354 11.9841C14.7417 12.0196 14.9798 11.9717 15.1612 11.8117C15.2612 11.647 15.2404 11.5593 15.2177 11.5014C15.1753 11.3938 15.0503 11.2392 14.7874 11.0665C14.2673 10.7248 13.4738 10.4853 12.9023 10.4041Z" fill="black"/>
<path d="M13.4085 8.14413C13.333 8.19409 13.1692 8.16202 13.0811 8.16202C12.614 8.16202 10.596 8.1431 10.3989 7.88038C10.0098 7.36172 11.5899 6.11348 11.9661 5.79049C12.7689 5.10106 13.3955 4.31649 14.0634 3.50836C15.1437 2.20113 16.8411 1.19289 18.4416 0.756854C20.362 0.233633 22.8466 0.867426 23.8574 2.75511C24.3861 3.74249 24.7666 4.76568 25.249 5.77037C25.6225 6.54847 25.3192 7.64071 25.0653 8.41012C24.2233 10.9622 22.1958 13.4713 20.2225 15.29C19.6992 15.7723 19.152 16.2411 18.5655 16.6445C17.6136 17.2993 16.5572 17.6571 15.404 17.6571C14.9478 17.6571 14.3958 17.7073 13.955 17.5543C13.5376 17.4093 13.1107 17.2214 12.7205 17.0111C12.4313 16.8553 12.1764 16.6375 11.8953 16.468C11.6715 16.3331 11.4793 16.2042 11.3687 15.9583C11.2735 15.7468 11.2091 15.4964 11.2515 15.261C11.2867 15.0651 11.4952 14.9243 11.5877 14.758C11.7507 14.4653 11.9075 14.3384 12.2006 14.1657C12.609 13.925 13.2423 14.246 13.6297 14.3982C14.3169 14.6681 15.2591 14.9386 15.9483 14.5904C16.9067 14.1063 17.7439 13.2707 18.6385 12.6681C18.9716 12.4437 19.251 12.1587 19.5721 11.9216C20.5076 11.2309 21.2061 10.3507 22.0145 9.51654C22.5011 9.01445 22.7579 8.27217 22.7579 7.57863C22.7579 6.25876 22.6013 5.43342 21.6207 4.44267C21.3864 4.20598 21.1177 4.00375 20.8287 3.83917C19.9257 3.32498 18.773 3.28267 17.8022 3.63577C17.0881 3.89549 16.4156 4.59625 15.9704 5.18475C15.4243 5.90663 14.824 6.58355 14.2934 7.31712C14.0681 7.62869 13.7281 7.93259 13.4085 8.14413Z" fill="#9EB1B7"/>
<path fill-rule="evenodd" clip-rule="evenodd" d="M18.2916 0.194799C20.3829 -0.374991 23.188 0.281462 24.3642 2.47812C24.6399 2.993 24.8747 3.51309 25.0973 4.02032C25.1421 4.12235 25.1862 4.22357 25.2301 4.32414C25.4067 4.72909 25.5787 5.12335 25.7674 5.51631C26.0249 6.05268 26.0311 6.65262 25.9637 7.16959C25.8953 7.69344 25.7413 8.2021 25.6119 8.59421C24.7255 11.2811 22.6175 13.8706 20.6108 15.7201C20.0785 16.2107 19.5085 16.7001 18.8897 17.1257C17.8505 17.8406 16.6825 18.2392 15.404 18.2392C15.3404 18.2392 15.2595 18.2408 15.1704 18.2425C15.0086 18.2456 14.8198 18.2492 14.6587 18.245C14.3867 18.2379 14.0701 18.2098 13.7676 18.1048C13.3213 17.9497 12.8664 17.7495 12.4493 17.5248C12.2716 17.429 12.111 17.3178 11.9753 17.2222C11.9573 17.2095 11.9397 17.1971 11.9226 17.185C11.803 17.1005 11.7036 17.0303 11.6 16.9678C11.374 16.8316 11.0355 16.6245 10.8442 16.1992C10.7255 15.9354 10.6125 15.5574 10.6846 15.1568C10.732 14.8931 10.8873 14.7062 10.9602 14.6201C10.9793 14.5975 10.9987 14.5754 11.0142 14.5576L11.0185 14.5528C11.0361 14.5327 11.0491 14.5177 11.0608 14.5038C11.0797 14.4811 11.086 14.4715 11.0865 14.4709C11.191 14.2837 11.3058 14.1281 11.4541 13.9895C11.5971 13.8559 11.753 13.7556 11.9102 13.6629C12.322 13.4202 12.7784 13.4935 13.0709 13.572C13.3054 13.6349 13.5526 13.7376 13.7202 13.8072C13.7663 13.8263 13.8064 13.843 13.8386 13.8556C14.1646 13.9837 14.5246 14.1008 14.8684 14.1496C15.217 14.1991 15.492 14.1701 15.6906 14.0697C16.1164 13.8547 16.528 13.5547 16.9647 13.2133C17.06 13.1387 17.1575 13.0615 17.2565 12.9829C17.5961 12.7136 17.9552 12.4287 18.3189 12.1838C18.4562 12.0913 18.5878 11.9827 18.7387 11.8543C18.7562 11.8394 18.774 11.8243 18.7921 11.8088C18.9238 11.6964 19.0734 11.5688 19.2321 11.4516C19.8672 10.9827 20.3689 10.4372 20.9199 9.83826C21.1363 9.60304 21.3602 9.35957 21.6028 9.10926C21.9689 8.73156 22.1817 8.1432 22.1817 7.57863C22.1817 6.93429 22.1419 6.47395 22.0099 6.06963C21.882 5.67813 21.654 5.29957 21.2133 4.8543C21.0185 4.65754 20.7924 4.48673 20.5458 4.3463C19.8072 3.92569 18.8316 3.88007 17.9974 4.18349C17.4474 4.38353 16.8596 4.9679 16.4282 5.53825C16.1817 5.86402 15.9246 6.18082 15.6748 6.48856C15.6403 6.53101 15.606 6.57329 15.5719 6.6154C15.2874 6.96628 15.0137 7.30799 14.7586 7.66059C14.4839 8.04039 14.0884 8.39003 13.7243 8.63107C13.6072 8.70856 13.4902 8.73388 13.4208 8.74408C13.3467 8.75496 13.2793 8.75504 13.2331 8.7537C13.1892 8.75244 13.1466 8.74914 13.1203 8.7471L13.115 8.7467C13.0875 8.74458 13.0796 8.74422 13.0796 8.74416C13.0796 8.74414 13.0802 8.74415 13.0811 8.74415C12.8434 8.74415 12.2079 8.73941 11.6024 8.70069C11.3016 8.68146 10.9926 8.65293 10.7384 8.60903C10.6128 8.58734 10.4825 8.55892 10.3667 8.51926C10.2847 8.49119 10.0787 8.41734 9.93971 8.23202C9.62958 7.81862 9.79175 7.35494 9.91436 7.11413C10.0518 6.84417 10.2702 6.58131 10.4783 6.36054C10.8318 5.98564 11.2596 5.62698 11.4867 5.43651C11.53 5.40018 11.5661 5.36997 11.5929 5.34694C12.2929 4.74583 12.8522 4.06755 13.4687 3.31987C13.5191 3.2588 13.5698 3.19726 13.6211 3.13527C14.7871 1.72428 16.5926 0.657677 18.2916 0.194799ZM23.3506 3.0321C22.5053 1.45339 20.3411 0.842258 18.5916 1.31891C17.0897 1.7281 15.5002 2.67798 14.5056 3.88146C14.452 3.94638 14.3983 4.01152 14.3445 4.07681C13.7393 4.81137 13.1184 5.56487 12.3392 6.23404C12.3019 6.26611 12.2567 6.30404 12.2057 6.34694C11.9716 6.54371 11.6132 6.84492 11.3127 7.16357C11.2025 7.28045 11.1129 7.38676 11.0454 7.47898C11.2231 7.50401 11.4407 7.52376 11.6751 7.53875C12.2446 7.57516 12.8517 7.57988 13.0811 7.57988C13.1081 7.57988 13.1328 7.58107 13.1513 7.58218C13.1674 7.58313 13.1834 7.58433 13.1964 7.58532C13.4374 7.41065 13.6743 7.18647 13.8282 6.97365C14.1038 6.59268 14.3955 6.22915 14.6803 5.87771C14.7151 5.83481 14.7498 5.79213 14.7843 5.74962C15.0353 5.44033 15.2791 5.13999 15.5126 4.83126C15.9715 4.2246 16.7289 3.40745 17.6071 3.08805C18.7145 2.68526 20.0443 2.72427 21.1116 3.33205C21.443 3.52077 21.7543 3.75441 22.0281 4.03104C22.5681 4.57652 22.9086 5.10601 23.1042 5.70483C23.2956 6.29084 23.334 6.9031 23.334 7.57863C23.334 8.40113 23.0334 9.29734 22.4262 9.92381C22.2303 10.126 22.0334 10.34 21.8321 10.559C21.2559 11.1855 20.6431 11.8518 19.912 12.3916C19.7883 12.483 19.6715 12.5825 19.5366 12.6975C19.5184 12.713 19.4998 12.7288 19.4809 12.745C19.3286 12.8745 19.154 13.0206 18.9581 13.1525C18.6353 13.37 18.3246 13.6163 17.9923 13.8797C17.8873 13.9629 17.7802 14.0478 17.6699 14.1341C17.2247 14.4821 16.7386 14.842 16.206 15.1111C15.7154 15.3589 15.1747 15.3688 14.7081 15.3026C14.2367 15.2357 13.782 15.0826 13.4209 14.9407C13.3525 14.9139 13.2881 14.8872 13.2259 14.8614C13.0709 14.7972 12.9296 14.7387 12.7751 14.6972C12.5678 14.6416 12.4974 14.6663 12.4912 14.6685C12.4908 14.6686 12.4907 14.6687 12.4908 14.6686C12.3551 14.7486 12.286 14.7981 12.2366 14.8442C12.193 14.885 12.1482 14.9387 12.0899 15.0434C12.0405 15.1323 11.983 15.2049 11.9414 15.2547C11.9199 15.2804 11.8985 15.3049 11.8814 15.3244L11.8785 15.3277C11.8615 15.3472 11.8485 15.362 11.836 15.3767C11.8269 15.3875 11.8199 15.3961 11.8146 15.4029C11.8122 15.4757 11.8331 15.5837 11.8933 15.7174C11.9231 15.7839 11.969 15.8345 12.1905 15.9681C12.3327 16.0538 12.4691 16.1502 12.5854 16.2325C12.6022 16.2444 12.6185 16.256 12.6344 16.2672C12.7688 16.3618 12.8802 16.4374 12.9916 16.4975C13.3551 16.6933 13.754 16.8689 14.1423 17.0037C14.2806 17.0518 14.4604 17.0751 14.6887 17.0811C14.835 17.085 14.96 17.0822 15.0938 17.0793C15.1891 17.0771 15.2888 17.0749 15.404 17.0749C16.4319 17.0749 17.3766 16.7581 18.2412 16.1633C18.7955 15.7821 19.3199 15.3339 19.8342 14.86C21.7741 13.0719 23.7212 10.6434 24.5187 8.22604C24.6432 7.84874 24.7678 7.42657 24.8212 7.01742C24.8755 6.60139 24.8466 6.26617 24.7305 6.02444C24.5318 5.61043 24.3492 5.19174 24.1718 4.785C24.1289 4.68661 24.0863 4.58893 24.0438 4.49218C23.8234 3.98979 23.6036 3.50459 23.3506 3.0321ZM10.7141 7.40747C10.7145 7.40731 10.7197 7.40922 10.7283 7.41368C10.718 7.40986 10.7137 7.40763 10.7141 7.40747ZM10.9128 7.706C10.9116 7.71276 10.9104 7.71652 10.91 7.71671C10.9096 7.7169 10.9102 7.71352 10.9128 7.706Z" fill="black"/>
</svg>
