<?xml version="1.0" encoding="utf-8"?>
<!-- Generator: Adobe Illustrator 15.0.2, SVG Export Plug-In . SVG Version: 6.00 Build 0)  -->
<!DOCTYPE svg PUBLIC "-//W3C//DTD SVG 1.1//EN" "http://www.w3.org/Graphics/SVG/1.1/DTD/svg11.dtd">
<svg version="1.1" id="Layer_1" xmlns="http://www.w3.org/2000/svg" xmlns:xlink="http://www.w3.org/1999/xlink" x="0px" y="0px"
	 width="64px" height="63px" viewBox="0 0 64 63" enable-background="new 0 0 64 63" xml:space="preserve">
<title>OA Logo Black Background</title>
<desc>Created with Sketch.</desc>
<g id="Page-1">
	<g id="OA-Logo-Black-Background">
		<path id="Shape" fill="#currentColor" d="M14.1,30.07c-1.53-0.79-8.6-3.76-14.1-7.78c1.81-3.38,3.1-5.56,5-9.11
			c2.72,1.15,1.9,0.55,4.56,1.71c0.85,0.37,10.06,4.52,13.82,6.2c2.35,1.06,4.66,2.2,7,3.33L43,30.53l8.061,3.92
			c4,2,7.239,3.53,11.26,5.47c0.539,0.26-3.67,9.391-3.67,9.391c-1.68-0.561-3.92-1.771-5.53-2.48c-4.67-2.061-9-3.92-13.7-6
			c-4-1.76-6.71-2.91-10.77-4.51C25,34.891,17.14,31.65,14.1,30.07z"/>
		<path id="Shape_1_" fill="currentColor" d="M12.15,54.91c-0.776,0.611-1.602,1.157-2.47,1.63c-0.445-0.472-0.866-0.966-1.26-1.479
			c-0.29-1.16-2.26-4.94-2.68-6.17c-0.13-0.41-0.7-2.211-0.81-2.631c0,0,5-3.359,8.18-5.939c3.18-2.58,6.17-5,9.3-7.461
			c1.36-1.069,3.89-2.5,5.3-3.479c2.48-1.72,13-9.07,15.56-10.55c5.44-3.302,11.055-6.307,16.82-9c1.689,3.49,1.83,3,3.811,6.9
			c0,0-17.78,13.49-22.65,17.14c-3.773,2.84-7.55,5.67-11.33,8.489c-1.71,1.261-3.46,2.44-5.19,3.66"/>
		<path id="Shape_2_" fill="currentColor" d="M20.75,2.88l-0.2-0.81C25,0,31.21-0.26,31.37,0.19c0.4,1.12,0.9,2.22,1.25,3.36
			c1.36,4.36,2.659,8.74,4,13.1c0.44,1.42,2.76,10,2.851,10.5c0.549,2.8,1.17,5.581,1.649,8.39c0.79,4.67,1.409,8.61,2.33,13.271
			c0.62,3.14,1.319,6.31,2.3,11.279c0,0-5.79,1.36-7.471,1.811c-0.75,0.199-1.51,0.369-2.399,0.59c-0.26-1.07-0.229-1.17-0.45-2.11
			c-0.869-3.659-1.76-7.319-2.609-11c-1.49-6.42-3-12.851-4.43-19.28c-1.172-5.37-2.638-10.671-4.39-15.88
			c-1-3.12-1.77-6.34-2.66-9.52C21.08,3.8,21,3.78,20.75,2.88z"/>
	</g>
</g>
</svg>
