<?xml version="1.0" encoding="utf-8"?>
<!-- Generator: Adobe Illustrator 15.0.2, SVG Export Plug-In . SVG Version: 6.00 Build 0)  -->
<!DOCTYPE svg PUBLIC "-//W3C//DTD SVG 1.1//EN" "http://www.w3.org/Graphics/SVG/1.1/DTD/svg11.dtd">
<svg version="1.1" id="Layer_1" xmlns="http://www.w3.org/2000/svg" xmlns:xlink="http://www.w3.org/1999/xlink" x="0px" y="0px"
	 width="165px" height="131px" viewBox="0 0 165 131" enable-background="new 0 0 165 131" xml:space="preserve">
<title>Group 3</title>
<desc>Created with Sketch.</desc>
<g id="Page-1">
	<g id="Group-3" transform="translate(1.000000, 1.000000)">
		<polygon id="Path" fill="currentColor" points="100,107.853 44,107.853 0,64.853 14,19.853 81.5,-0.147 142,7.853 163,30.853 
			163,74.853 138,95.853 152,124.853 146.848,129.147 		"/>
		<g id="Group-2" transform="translate(35.000000, 59.000000)">
			<path id="o" fill="#FFFFFF" d="M11.792,0.286c-1.267,0-3.003,0.267-5.208,0.8c-3.989,0.966-5.983,3.017-5.983,6.15
				c0,1.566,0.985,2.949,2.956,4.15c1.971,1.199,4.153,1.799,6.546,1.799c0.798,0,70.776,0.135,71.386,0
				c1.642-0.299,9.854-12.152,2.815-12.899c-3.764-0.399-29.779-0.112-47.863,0C20.7,0.384,12.404,0.286,11.792,0.286z"/>
			<path id="o-copy-2" fill="#FFFFFF" d="M88.105,1.136c-1.268-0.566-2.557-0.85-3.871-0.85c-1.268,0-3.004,0.267-5.209,0.8
				c-3.988,0.966-5.982,3.017-5.982,6.15c0,1.566,0.985,2.949,2.956,4.15c1.971,1.199,4.153,1.799,6.546,1.799
				c0.798,0,1.502-0.066,2.111-0.199c1.643-0.301,3.262-1.041,4.857-2.225c1.595-1.184,2.533-2.326,2.814-3.426
				c0.047-0.166,0.07-0.416,0.07-0.75c0-1-0.41-2.025-1.23-3.075C90.346,2.461,89.326,1.669,88.105,1.136z"/>
		</g>
		<g id="Group" transform="translate(35.000000, 38.000000)">
			<path id="o-copy" fill="#FFFFFF" d="M9.433,0.27c-1,0-2.37,0.267-4.11,0.8C2.175,2.037,0.601,4.087,0.601,7.22
				c0,1.566,0.777,2.95,2.333,4.15c1.555,1.2,3.277,1.8,5.166,1.8c0.629,0,55.853,0.133,56.334,0c1.296-0.3,7.775-12.153,2.222-12.9
				c-2.97-0.399-23.5-0.112-37.771,0C16.462,0.368,9.915,0.27,9.433,0.27z"/>
			<path id="o-copy-3" fill="#FFFFFF" d="M69.654,1.12c-1-0.566-2.018-0.85-3.055-0.85c-1,0-2.37,0.267-4.11,0.8
				c-3.147,0.966-4.722,3.017-4.722,6.15c0,1.566,0.777,2.95,2.334,4.15c1.555,1.2,3.276,1.8,5.165,1.8
				c0.63,0,1.185-0.067,1.666-0.2c1.296-0.3,2.573-1.042,3.833-2.225c1.259-1.183,2-2.325,2.222-3.425
				c0.037-0.167,0.056-0.417,0.056-0.75c0-1-0.324-2.025-0.973-3.075C71.423,2.445,70.617,1.653,69.654,1.12z"/>
		</g>
	</g>
</g>
</svg>
