<svg xmlns="http://www.w3.org/2000/svg" viewBox="0 0 40.06 27.57"><title>icon email</title><g id="Calque_1" data-name="Calque 1"><path d="M40.05,24.08c-.86-7.14-2-14.24-2.23-21.44a1.21,1.21,0,0,0-.33-.82,1.48,1.48,0,0,0-.29-.26c-4.73-3.1-10.85-.73-16.11-.12C14.51,2.2,7.92,2.79,1.31,3.15a1.27,1.27,0,0,0-.75.29,1.12,1.12,0,0,0-.46.68,1,1,0,0,0,0,.51A136.47,136.47,0,0,0,1,25.24a1.23,1.23,0,0,0,.18.53,1.2,1.2,0,0,0,1.07.72c6.89.39,13.84,1.05,20.75,1.08,5.5,0,10.76-1.25,16.13-2.29a1.07,1.07,0,0,0,.38-.14A1,1,0,0,0,40.05,24.08ZM33.82,2.87c-4.45,6-10.17,10.1-16.17,14.42A127.82,127.82,0,0,1,4.23,5.45C8.61,5.17,13,4.82,17.36,4.36,21.42,3.93,29.06,1.74,33.82,2.87ZM21.14,25c-5.92-.2-11.84-.62-17.76-1A134.44,134.44,0,0,1,2.53,7.28c4.6,4.41,9.14,8.85,14.37,12.55a1,1,0,0,0,.79.3h.12a1.1,1.1,0,0,0,.56-.28c6.34-4.57,12.27-8.83,17-15,.32,6.1,1.26,12.14,2,18.21C32,24.13,26.73,25.21,21.14,25Z" style="fill:#1d1d1b"/></g></svg>