<svg xmlns="http://www.w3.org/2000/svg" viewBox="0 0 43 43.54"><title>icon V4 member</title><g id="Calque_3" data-name="Calque 3"><path d="M14.91,6.78c-4.74,1.35-8.36,5.64-9.62,10.45A21.49,21.49,0,0,0,7.06,31.76a9.61,9.61,0,0,0,2,3,10.93,10.93,0,0,0,3.36,1.94c3.6,1.53,7.5,2.89,11.36,2.25,2.26-.38,4.91-.55,6.93-1.63a16.89,16.89,0,0,0,3.47-2.86,11.9,11.9,0,0,0,2.91-4.83c.82-2.3,1.69-4,1.6-7.13a27.24,27.24,0,0,0-1.11-5.92,24.15,24.15,0,0,0-2.75-6.18c-.49-.66-1.56-2.65-2.25-3.09-5.36-3.45-11.79-3-17.66-.51" style="fill:#fff"/></g><g id="Calque_1" data-name="Calque 1"><path d="M20.19,15.5a90.39,90.39,0,0,0-4.12,11.15A28.52,28.52,0,0,1,12.5,16c-.25-1.59-2.66-.91-2.41.66a28.36,28.36,0,0,0,5.14,13.22,1.25,1.25,0,0,0,.78.5,1.31,1.31,0,0,0,1.67-.78c1.53-4.18,2.7-8.86,4.67-12.84C23.06,15.33,20.91,14.06,20.19,15.5Z" style="fill:#1d1d1b"/><path d="M29.64,21.25c0,1.13-.1,2.26-.14,3.38L26,24.84c0-2.64.13-5.26.36-7.89.14-1.6-2.36-1.59-2.5,0q-.41,4.56-.39,9.15a1.15,1.15,0,0,0,.74,1.11,1.22,1.22,0,0,0,.74.19l4.45-.26c0,.5,0,1-.07,1.51-.08,1.61,2.42,1.61,2.5,0q.2-3.69.32-7.4C32.19,19.64,29.69,19.64,29.64,21.25Z" style="fill:#1d1d1b"/><path d="M20.2,1.25l.32,3.62a1.28,1.28,0,0,0,1.25,1.25A1.26,1.26,0,0,0,23,4.87L22.7,1.25A1.28,1.28,0,0,0,21.45,0,1.26,1.26,0,0,0,20.2,1.25Z" style="fill:#1d1d1b"/><path d="M30.6,7.75l1.7-3.46C33,2.85,30.85,1.58,30.14,3l-1.7,3.46c-.7,1.43,1.45,2.7,2.16,1.26Z" style="fill:#1d1d1b"/><path d="M36.57,13l2.92-1.66a1.25,1.25,0,0,0-1.26-2.16l-2.92,1.66A1.25,1.25,0,0,0,36.57,13Z" style="fill:#1d1d1b"/><path d="M38.91,22.84a9.09,9.09,0,0,1,2.89-.39,1.25,1.25,0,0,0,0-2.5,11.23,11.23,0,0,0-3.55.48,1.25,1.25,0,0,0,.66,2.41Z" style="fill:#1d1d1b"/><path d="M35.63,32.25a10.09,10.09,0,0,0,2.29,1.59,1.28,1.28,0,0,0,1.71-.45,1.27,1.27,0,0,0-.45-1.71,7.63,7.63,0,0,1-1.78-1.2,1.29,1.29,0,0,0-1.77,0,1.27,1.27,0,0,0,0,1.77Z" style="fill:#1d1d1b"/><path d="M27.85,36.69l1.49,4.1c.55,1.5,3,.86,2.41-.66L30.26,36c-.54-1.5-3-.85-2.41.67Z" style="fill:#1d1d1b"/><path d="M19.5,42.63l.56-4a1.29,1.29,0,0,0-.87-1.54,1.26,1.26,0,0,0-1.54.87l-.56,4A1.29,1.29,0,0,0,18,43.5a1.26,1.26,0,0,0,1.54-.87Z" style="fill:#1d1d1b"/><path d="M9.26,38.73l2.56-2.5c1.15-1.12-.62-2.89-1.77-1.76L7.49,37c-1.16,1.13.61,2.89,1.77,1.77Z" style="fill:#1d1d1b"/><path d="M3.33,30.69a17.47,17.47,0,0,1,2.46-1.2A1.29,1.29,0,0,0,6.67,28a1.27,1.27,0,0,0-1.54-.88,20.54,20.54,0,0,0-3.07,1.46,1.25,1.25,0,0,0,1.27,2.15Z" style="fill:#1d1d1b"/><path d="M1.21,19.43l3.43.13c1.6.07,1.6-2.43,0-2.5l-3.43-.13c-1.61-.07-1.61,2.43,0,2.5Z" style="fill:#1d1d1b"/><path d="M3.2,9.57C4.12,10,5,10.5,5.92,11c1.41.79,2.67-1.37,1.27-2.15-.9-.5-1.8-1-2.72-1.43a1.29,1.29,0,0,0-1.71.45A1.26,1.26,0,0,0,3.2,9.57Z" style="fill:#1d1d1b"/><path d="M11.81,3.18l1.41,3.94c.54,1.51,3,.86,2.42-.66L14.22,2.51c-.53-1.5-3-.85-2.41.67Z" style="fill:#1d1d1b"/></g></svg>