<svg width="24" height="24" viewBox="0 0 24 24" fill="none" xmlns="http://www.w3.org/2000/svg">
  <path
    d="M12.0303 10.4572C12.5366 10.4572 12.947 10.8676 12.947 11.3739V16.8739C12.9467 17.3799 12.5364 17.7905 12.0303 17.7905C11.5244 17.7903 11.114 17.3798 11.1137 16.8739V11.3739C11.1137 10.8677 11.5243 10.4574 12.0303 10.4572Z"
    fill="black" />
  <path
    d="M11.7806 5.64023C12.0349 5.64713 12.2636 5.72231 12.4618 5.83538C12.542 5.88119 12.6764 5.96696 12.7948 6.0914C12.8448 6.14399 12.9744 6.2873 13.041 6.50855C13.0783 6.63313 13.1036 6.81002 13.0553 7.00986C13.0049 7.2176 12.8915 7.38225 12.7617 7.49773C12.4569 7.7688 12.0771 7.89967 11.7779 7.931C11.4754 7.96257 11.1922 7.84242 11.0027 7.6329C10.8791 7.55093 10.7733 7.43755 10.6992 7.29721C10.486 6.89273 10.5055 6.35914 10.8792 5.98308C11.1885 5.67198 11.5785 5.63481 11.7806 5.64023Z"
    fill="black" />
  <path fill-rule="evenodd" clip-rule="evenodd"
    d="M11.9829 1.00767C13.9369 1.34375 16.0713 1.90755 17.9124 3.36736C20.4598 5.38733 23.0658 7.86511 22.9987 11.0999L22.9638 12.346C22.8645 15.0863 22.596 16.6958 21.5128 17.897L20.8996 18.5693C19.3104 20.2839 16.671 22.8694 14.4052 22.9593L13.8287 22.9817C12.4727 23.0314 11.0292 23.0229 9.33948 22.3013C5.84405 20.8086 2.4493 18.3541 1.61245 14.9447C0.781447 11.5588 0.668384 7.97469 2.08062 6.18987C3.49326 4.4049 9.03248 0.802571 11.9829 1.00767ZM11.7761 2.83384C11.395 2.82529 10.7979 2.92738 9.99832 3.20892C9.17163 3.50005 8.25926 3.93511 7.36118 4.44606C5.49897 5.50553 4.00503 6.71255 3.51825 7.32765C3.172 7.76524 2.8778 8.63503 2.83793 10.0195C2.79959 11.3535 3.00486 12.9268 3.39293 14.5079C4.01242 17.0317 6.68232 19.1733 10.0601 20.6157C11.5625 21.2572 12.7752 21.1886 14.3327 21.1269C14.9753 21.1014 15.9822 20.6005 17.2214 19.5755C18.38 18.6172 19.4301 17.4692 20.1512 16.6698C20.4839 16.3009 20.7269 15.8225 20.8915 14.96C21.0661 14.0445 21.1285 12.8349 21.1654 11.0623C21.1879 9.98152 20.7733 8.9463 19.9713 7.88176C19.1556 6.79922 18.0188 5.7921 16.7729 4.80413C15.3232 3.65471 13.5952 3.15404 11.7761 2.83384Z"
    fill="black" />
</svg>