<svg width="24" height="24" viewBox="0 0 24 24" fill="none" xmlns="http://www.w3.org/2000/svg">
  <path
    d="M23.4053 12.0203C22.9188 15.0756 22.5069 16.8331 20.8983 18.7597C16.878 23.5748 10.4024 24.2378 5.67984 20.8821C4.90443 20.3312 3.98445 19.3398 3.20907 18.2094C2.43204 17.0765 1.72446 15.695 1.47131 14.3302C1.06128 12.1193 0.854717 10.0229 1.25353 8.08445C1.66173 6.10086 2.68786 4.35192 4.59729 2.82215C6.67441 1.15806 8.91986 1.17462 10.8583 0.962324C11.4073 0.902193 11.9011 1.29896 11.9613 1.84797C12.0211 2.39663 11.6253 2.88973 11.0767 2.95012C8.8611 3.19279 7.35932 3.1721 5.84787 4.38297C4.28376 5.63607 3.52212 6.98326 3.21259 8.48739C2.89387 10.0364 3.04035 11.8209 3.43797 13.965C3.62097 14.9518 4.16706 16.0693 4.85872 17.0778C5.55203 18.0886 6.31631 18.8811 6.8383 19.2521C10.7125 22.0047 16.0142 21.4888 19.363 17.4779C20.5999 15.9964 20.9513 14.7131 21.4302 11.7058C21.5171 11.1604 22.0296 10.7886 22.575 10.8755C23.1204 10.9624 23.4922 11.4749 23.4053 12.0203Z"
    fill="black" />
</svg>