<svg xmlns="http://www.w3.org/2000/svg" viewBox="0 0 37 37"><defs><style>.a{fill:#f090b3;}.b{fill:#f7c7d9;}.c{fill:#fff;}.d{fill:#141414;opacity:0.91;}</style></defs><title>Pins Optimisation</title><path class="a" d="M18.5,37A18.5,18.5,0,1,0,0,18.5,18.5,18.5,0,0,0,18.5,37Z"/><path class="b" d="M18.5,33.5a15,15,0,1,0-15-15A15,15,0,0,0,18.5,33.5Z"/><path class="c" d="M23.7,13.433a1.026,1.026,0,0,0-.776.242,2.957,2.957,0,0,0-.967,1.2l-.73,1.566c-.081.173-.242.211-.43.232a.554.554,0,0,1-.616-.405,2.316,2.316,0,0,1-.173-.89,18.08,18.08,0,0,0-.7-5.99,1.077,1.077,0,0,0-.052-.133c-.141-.3-.812-.218-.852.117-.222,1.838.277,3.741-.048,5.57-.3-.329-.62-4.622-1.27-6.173-.1-.243-.258-.521-.563-.472a.5.5,0,0,0-.408.411,11.068,11.068,0,0,0-.047,2.655l.243,3.816c-.127.116-.313-.068-.382-.233a14.621,14.621,0,0,1-1.38-4.423c-.036-.276-.116-.617-.4-.669a.371.371,0,0,0-.2-.008.377.377,0,0,0-.176.1,1.184,1.184,0,0,0-.166.8,21.7,21.7,0,0,0,.834,5.174,2.407,2.407,0,0,1,.032,1.266,5.972,5.972,0,0,1-2.673-2.991c-.139-.3-.437-.679-.714-.5-.16.107-.164.338-.144.529a7.336,7.336,0,0,0,.838,2.586,13.446,13.446,0,0,0,1.41,1.959c.6.737.976,1.472,1.577,2.2a4.124,4.124,0,0,1,.829,1.332,4.143,4.143,0,0,1,.133.716c.661,5.253.377,5.341.995,10.362a14.689,14.689,0,0,0,6.207-.554c-1.2-4.035-1.616-4.517-2.151-10.345l-.012-.5A1.786,1.786,0,0,1,21.238,21a6.306,6.306,0,0,0,2.088-3.558,6.089,6.089,0,0,1,.5-2.133c.09-.173.4-1.009.458-1.194A.567.567,0,0,0,23.7,13.433Z"/><path class="d" d="M23.054,13.188a3,3,0,0,0-1.3,1.324c-.17.313-.311.645-.464.969l-.257.545c-.056.116-.07.253-.2.285-.209.05-.267-.065-.325-.243a2.229,2.229,0,0,1-.125-.686v0a19.285,19.285,0,0,0-.606-5.764c-.116-.384-.221-.768-.654-.876a.958.958,0,0,0-.872.215.742.742,0,0,0-.2.5c-.028.244-.042.489-.048.733-.006.275.011.55.022.825-.019-.108-.034-.216-.054-.323-.076-.412-.158-.823-.264-1.228a4.152,4.152,0,0,0-.384-1.067.812.812,0,0,0-1.359-.147,1.677,1.677,0,0,0-.258.928,8.69,8.69,0,0,0-.036,1.07c.024,1.2.114,2.4.2,3.6-.02-.05-.042-.1-.062-.149-.169-.415-.327-.836-.464-1.266a11.655,11.655,0,0,1-.323-1.3,3.871,3.871,0,0,0-.276-1.246A.8.8,0,0,0,13.6,9.618c-.385.3-.363.854-.348,1.291a20.026,20.026,0,0,0,.33,2.867c.1.541.225,1.076.356,1.61a6.183,6.183,0,0,1,.23,1.171,4.755,4.755,0,0,1-1.128-1.008,6.681,6.681,0,0,1-.581-.863,9.794,9.794,0,0,0-.508-.942.848.848,0,0,0-.891-.427.782.782,0,0,0-.49.855,6.977,6.977,0,0,0,.645,2.328,9.928,9.928,0,0,0,1.359,2.089c.264.329.532.653.772,1s.464.7.7,1.037a5.732,5.732,0,0,1,1.264,2.057c.15.77.2,1.571.287,2.351.224,2.089.311,4.186.523,6.275.069.673.148,1.347.23,2.019.251.036.5.078.752.1-.179-1.455-.333-2.911-.437-4.374-.088-1.235-.169-2.468-.3-3.7-.045-.449-.1-.9-.148-1.347-.062-.516-.1-1.044-.206-1.557a7.766,7.766,0,0,0-1.558-2.524c-.29-.433-.573-.869-.9-1.277s-.662-.812-.965-1.237a7.289,7.289,0,0,1-1.2-2.693,3.293,3.293,0,0,1-.083-.609,1.319,1.319,0,0,1,.089.1c.256.414.436.868.708,1.276A5.689,5.689,0,0,0,14.3,17.505a.362.362,0,0,0,.157.046.357.357,0,0,0,.162-.026.366.366,0,0,0,.135-.094.375.375,0,0,0,.08-.143,3.639,3.639,0,0,0-.116-1.784c-.132-.52-.258-1.044-.366-1.568a18.916,18.916,0,0,1-.371-3.1,1.639,1.639,0,0,1,.06-.619.114.114,0,0,1,.047.016.4.4,0,0,1,.083.19c.116.485.151.991.267,1.48a17.708,17.708,0,0,0,1,2.806,2.173,2.173,0,0,0,.354.676.557.557,0,0,0,.714.116c.268-.178.164-.561.146-.834l-.06-.954c-.077-1.206-.2-2.42-.206-3.629a8.689,8.689,0,0,1,.039-.9c.009-.089,0-.516.16-.52s.274.507.314.637a15.959,15.959,0,0,1,.446,2.038c.139.812.252,1.635.382,2.452.046.289.093.58.158.866a1.259,1.259,0,0,0,.232.548.366.366,0,0,0,.607-.16c.286-1.686-.064-3.366.011-5.061a2.442,2.442,0,0,1,.042-.519l.077-.023a.258.258,0,0,1,.1,0,.024.024,0,0,1,.02.01,3.338,3.338,0,0,1,.162.547,13.938,13.938,0,0,1,.438,2.467,28.425,28.425,0,0,1,.086,2.9s0,.007,0,.012a2.257,2.257,0,0,0,.386,1.358.984.984,0,0,0,1.423.014,3.794,3.794,0,0,0,.418-.829c.155-.328.3-.662.464-.984a2.4,2.4,0,0,1,1.03-1.105.648.648,0,0,1,.451-.009c.174.09.109.22.058.365-.06.169-.123.336-.187.5s-.116.31-.175.432a6.007,6.007,0,0,0-.494,1.845,5.149,5.149,0,0,1-.385,1.605,6.079,6.079,0,0,1-.851,1.284c-.325.386-.724.727-1.013,1.142a3.851,3.851,0,0,0-.232,2.693,34.68,34.68,0,0,0,.812,5.1c.185.727.407,1.446.631,2.163q.205.659.408,1.317c.065.216.133.432.2.647.231-.065.458-.134.684-.21-.183-.559-.343-1.129-.516-1.687-.2-.654-.411-1.309-.593-1.973a29.661,29.661,0,0,1-.823-4.581q-.1-.909-.185-1.82c-.015-.155-.018-.308-.022-.464a1.048,1.048,0,0,1,.065-.464,3.641,3.641,0,0,1,.88-1.117,8.372,8.372,0,0,0,.953-1.264,4.722,4.722,0,0,0,.608-1.516,17.217,17.217,0,0,1,.308-1.835c.125-.409.331-.8.482-1.2s.357-.8.138-1.206A1.173,1.173,0,0,0,23.054,13.188Z"/></svg>