<svg xmlns="http://www.w3.org/2000/svg" viewBox="0 0 37 37"><defs><style>.a{fill:#97cdeb;}.b{fill:#cce6f5;}.c{fill:#fff;}.d{fill:#141414;}</style></defs><title>Pins Optimisation</title><path class="a" d="M18.5,37A18.5,18.5,0,1,0,0,18.5,18.5,18.5,0,0,0,18.5,37Z"/><path class="b" d="M18.5,33.5a15,15,0,1,0-15-15A15,15,0,0,0,18.5,33.5Z"/><path class="c" d="M31.4,19.224c.393-2-1.082-3.859-1.95-6.189-1.351-.162-4.016-.3-5.494-.562-6.273-4.165-4.26-.408-13.883-1.079-.652,2.607,5.24.256,5.974,1.877.577,1.967-.314,4.246.606,6.629-.009.213.089.26-.506.227-.362.215-5.8-.569-3.721.8,1.865,2.452,20.3,6.3,18.974-1.7Z"/><path class="d" d="M31.887,19.162a3.508,3.508,0,0,1,.036-1,2.06,2.06,0,0,0-.343-1.26l-.021-.041c-.024-.045-.046-.088-.067-.131s-.034-.068-.05-.1c-.073-.159-.144-.291-.217-.422a3.152,3.152,0,0,1-.278-.6,3.723,3.723,0,0,0-.138-.355c-.014-.031-.028-.061-.04-.091a1.864,1.864,0,0,0-.458-.687l-.007-.016a.992.992,0,0,1-.023-.249v-.029a2.189,2.189,0,0,0-.193-.93,1.288,1.288,0,0,0-1.226-.774H28.3c-.257,0-.5.008-.815,0h-.013a.469.469,0,0,1-.075,0,.766.766,0,0,1-.222-.048,3.227,3.227,0,0,0-1.507-.244,4.558,4.558,0,0,1-.858-.042c-.015,0-.048-.007-.2-.023-.2-.022-.731-.08-.822-.1a3.184,3.184,0,0,1-.751-.4c-.159-.108-.314-.229-.478-.352l-.155-.114a4.832,4.832,0,0,0-1.6-.738,5.453,5.453,0,0,0-1.7-.218,6.788,6.788,0,0,0-.843.076,12.154,12.154,0,0,0-1.791.458h-.017c-.239.073-.487.149-.728.217a3.15,3.15,0,0,1-.8.114c-.393,0-.8-.015-1.19-.036h-.023A14.724,14.724,0,0,0,12.153,11l-.229.013-.238.01a2.554,2.554,0,0,0-.33.018h-.032l-.031.012h-.007c-.072-.364-.2-.911-.261-1.1a.143.143,0,0,1,.038-.15,1.2,1.2,0,0,0,.146-.188c.02-.032.04-.062.06-.088.245-.319.052-.722-.083-1.1a1.166,1.166,0,0,0-.332-.489,1.18,1.18,0,0,0-.527-.264,1.414,1.414,0,0,0-1.512.573.971.971,0,0,0-.068.716.438.438,0,0,1,.013.078A1.692,1.692,0,0,0,9.7,10.207c.19.116.224.217.23.28,0,.047.039.345.069.59h0l-.065-.025-.067.018a.421.421,0,0,0-.091.036.359.359,0,0,0-.127.124.37.37,0,0,0-.051.171,1.42,1.42,0,0,0,.062.458A1.459,1.459,0,0,1,9.7,12.1c.026.229.114.641.379.76a1.31,1.31,0,0,0,.173.06c.033.009.068.01.1.017.12.482.227.967.3,1.458l.017.1c.025.155.051.311.08.465q.13.733.264,1.462c.019.1.035.193.051.291.039.232.079.474.14.71.208.813.38,1.639.533,2.417l0,.01c-.024.01-.05.014-.074.025a.424.424,0,0,0-.161.13.428.428,0,0,0-.078.191.886.886,0,0,0,.458,1.017c.038.021.079.032.118.051.045.164.088.33.124.511.024.121.059.238.093.351l.012.044a2.685,2.685,0,0,1,.085.343,25.405,25.405,0,0,0,.593,2.546,16,16,0,0,1,.376,1.913c.055.367.124.737.191,1.094.034.177.066.353.1.528l.079.442.016.091c.126.706.256,1.436.38,2.154a14.481,14.481,0,0,0,.382,1.639,11.484,11.484,0,0,0,1.533.354,18.425,18.425,0,0,1-.595-2.708l-.076-.62a17.713,17.713,0,0,0-.33-1.9l-.045-.186c-.114-.458-.229-.927-.312-1.395-.03-.159-.056-.322-.08-.48A7.1,7.1,0,0,0,14.27,24.8c-.019-.058-.038-.117-.055-.175A9.434,9.434,0,0,1,14,23.671l-.027-.135c-.048-.259-.106-.519-.161-.77q-.043-.191-.084-.381c-.01-.049-.031-.157-.055-.287l.054.018a1.771,1.771,0,0,0,.188.071l.078.027c.106.039.213.074.313.106s.208.066.307.1a3.978,3.978,0,0,1,.38.179,4.367,4.367,0,0,0,.49.229c.107.038.21.073.288.1h.017a4.96,4.96,0,0,1,.82.337c.057.032.114.064.18.1a7.434,7.434,0,0,0,1.563.573c.245.063.492.114.733.152a5.606,5.606,0,0,0,1.332.064h.028c.5-.025,1.012-.025,1.518,0,.257.008.531.015.789.016h.03c.168,0,.326,0,.472-.008s.328,0,.516,0h.007a6.091,6.091,0,0,0,.715,0,1.377,1.377,0,0,1,.287,0,4.1,4.1,0,0,0,.665,0c.141-.008.327,0,.507,0h.033c.206.006.422.012.6,0a2.369,2.369,0,0,1,.337,0c.068,0,.148.011.237.011a2.34,2.34,0,0,0,.277-.017,5.806,5.806,0,0,0,.656-.115l.207-.049.128-.031a1.929,1.929,0,0,0,.317-.128l.071,0,.027-.013a4.322,4.322,0,0,0,.441-.221h.007c.086-.048.177-.1.277-.146.03-.015.065-.031.1-.045a1.512,1.512,0,0,1,.362-.1A1.6,1.6,0,0,0,30.8,23a1.4,1.4,0,0,0,.272-.277,3.44,3.44,0,0,0,.43-.7l.009-.007a1.185,1.185,0,0,1,.064-.162V21.82a4.867,4.867,0,0,0,.375-1.749A6.012,6.012,0,0,0,31.887,19.162Zm-9.912,4.3a15.377,15.377,0,0,0-1.621.007,4.968,4.968,0,0,1-1.168-.059c-.219-.034-.443-.081-.667-.138s-.414-.115-.6-.175a5.809,5.809,0,0,1-.819-.343c-.056-.029-.114-.058-.159-.085a5.466,5.466,0,0,0-.953-.394l-.276-.095a3.541,3.541,0,0,1-.4-.188H15.3a4.01,4.01,0,0,0-.446-.207c-.114-.045-.229-.082-.343-.115l-.014-.019c-.088-.029-.179-.058-.266-.09l-.1-.034h-.014a1.051,1.051,0,0,1-.1-.038,1.473,1.473,0,0,0-.193-.068l-.02-.007c-.031-.01-.077-.024-.09-.03a.5.5,0,0,0-.058-.024l-.037-.014h-.013a.328.328,0,0,0-.094-.084v0h.662a2.205,2.205,0,0,0,.254-.019c.052-.007.155-.006.229-.006a.355.355,0,0,0,.053.032,3.252,3.252,0,0,0,.323.2,2.2,2.2,0,0,0,.767.287h.036a.963.963,0,0,1,.485.156l.016.013.028.017.015.008.015.008.045.024h.035a.326.326,0,0,0,.07.007.372.372,0,0,0,.087-.012l.026-.008v0a.343.343,0,0,0,.055-.025h.035l.065-.085c.01-.015.021-.03.03-.046l.034-.043v-.04a1.057,1.057,0,0,0-.009-.558H16.9c.229,0,.464-.01.7-.017.266-.01.534-.023.794-.036h.072c.363-.017.739-.035,1.107-.04.219,0,.416,0,.6.007a13.3,13.3,0,0,1,2.079.208,10.8,10.8,0,0,0,2.1.24,11.514,11.514,0,0,1,1.26.057,7.51,7.51,0,0,1,1.04.22,4.645,4.645,0,0,1,.581.213h.009c.2.084.458.189.8.309a.442.442,0,0,1,.079.032,1.92,1.92,0,0,0,.687.187,2.7,2.7,0,0,0,1.017-.181l.024-.009a1.116,1.116,0,0,1,.278-.078,2.837,2.837,0,0,1,.4-.026l-.012.025a.8.8,0,0,1-.6.331,2.154,2.154,0,0,0-.519.14l-.134.06c-.115.058-.216.115-.313.166-.123.067-.237.131-.38.193L28.5,23.2l-.041.02c-.038.017-.151.068-.185.08l-.076.018-.246.059a5.455,5.455,0,0,1-.584.107,1.331,1.331,0,0,1-.178.012,1.422,1.422,0,0,1-.2-.01,2.377,2.377,0,0,0-.271-.011h-.16c-.151.009-.343,0-.539,0H26c-.21-.007-.412-.011-.582,0a3.225,3.225,0,0,1-.573,0,2.056,2.056,0,0,0-.4,0,6.231,6.231,0,0,1-.627,0h-.029c-.191,0-.389-.011-.573,0C22.85,23.488,22.412,23.472,21.975,23.462Zm-3.61-12.513a5.09,5.09,0,0,1,2.243.115,6.483,6.483,0,0,1,.706.247,2.971,2.971,0,0,1,.661.374l.106.082c.3.235.972.631,1.414.893.139.079.282.167.321.194a2.445,2.445,0,0,0,.254.2l.07.051a5.023,5.023,0,0,1,.4.343,3.762,3.762,0,0,0,.645.507l.081.044.328.182a.352.352,0,0,0,.391-.032.352.352,0,0,0,.117-.376.343.343,0,0,0-.065-.122.336.336,0,0,0-.107-.087l-.407-.229a3.4,3.4,0,0,1-.565-.449c-.016-.014-.032-.028-.047-.043a5.676,5.676,0,0,0,.749.023h.014a4.316,4.316,0,0,1,.653.022,1.944,1.944,0,0,1,.554.159,1.608,1.608,0,0,0,.573.115c.346.015.61.007.866.007h.538a.579.579,0,0,1,.314.06.585.585,0,0,1,.233.219c.019.031.036.063.055.1a1.549,1.549,0,0,1,.12.634v.029a1.009,1.009,0,0,0,.25.762,1.034,1.034,0,0,1,.236.316c.02.041.04.085.06.136.012.026.023.053.036.079l.011.026a2.694,2.694,0,0,1,.115.285,3.874,3.874,0,0,0,.328.725v.008c.064.114.129.232.194.374.046.1.1.2.15.3v.007a1.514,1.514,0,0,1,.268.828,4.236,4.236,0,0,0-.038,1.2,5.062,5.062,0,0,1,.056.825c0,.08,0,.163-.01.244a4.566,4.566,0,0,1-.3,1.212c-.043,0-.086.007-.129.008h-.163a2.654,2.654,0,0,0-1.06.161,2.015,2.015,0,0,1-.764.134h0A1.6,1.6,0,0,1,28.4,21.7l-.023-.01c-.039-.016-.072-.03-.1-.039-.325-.114-.558-.211-.764-.295a5.024,5.024,0,0,0-.671-.243,8.033,8.033,0,0,0-1.137-.239,12.2,12.2,0,0,0-1.339-.061,8.5,8.5,0,0,1-.916-.058c-.326-.037-.669-.092-1.048-.169a13.87,13.87,0,0,0-2.189-.221c-.155-.008-.309-.008-.465-.008h0c-.449,0-.9.022-1.329.036h-.025c-.26.014-.535.028-.8.036l-.552.015h-.281l-.284.007h-.105c-.093,0-.189-.007-.292-.007h-.013a2.371,2.371,0,0,0-.826.065.522.522,0,0,1-.236.012l-.048-.006a.884.884,0,0,0-.156-.008H14.6c.244-.013.485-.033.724-.054.335-.03.714-.065,1.074-.065h.543c.076,0,.147-.007.217-.014a2.129,2.129,0,0,0,.441-.089,1.067,1.067,0,0,0,.213-.086.584.584,0,0,0,.25-.27c.122-.264.244-.536.358-.8l.085-.193a.962.962,0,0,0-.222-1.293l-.038-.04h-.007l-.009-.009a1.139,1.139,0,0,1-.105-.125v-.007a.806.806,0,0,1,.077-.145,1.515,1.515,0,0,0,.218-.907,4.186,4.186,0,0,0-.075-.688c-.022-.1-.039-.206-.051-.308a3.254,3.254,0,0,1,0-.789,3.717,3.717,0,0,1,.115-.545,1.1,1.1,0,0,1,.1.1.333.333,0,0,0,.116.084.34.34,0,0,0,.141.03.345.345,0,0,0,.239-.094.354.354,0,0,0,.017-.5,1,1,0,0,0-.5-.337l-.021-.007c-.068-.023-.144-.046-.229-.07-.364-.1-.742-.177-1-.229s-.532-.12-.793-.187l-.083-.022-.229-.058-.076-.02-.174-.047-.057-.016-.057-.02-.19-.047-.089-.021a7.941,7.941,0,0,0-1.046-.211c-.6-.065-1.2-.072-1.781-.078-.143,0-.328-.01-.507-.017-.263-.016-.51-.023-.658-.016l-.114.007q-.066,0-.132,0h-.285c-.061,0-.126-.007-.193-.007a1.887,1.887,0,0,1-.366-.059,1.356,1.356,0,0,1-.051-.229c-.009-.073-.021-.145-.037-.217.046,0,.093,0,.14,0,.142-.016.289-.03.436-.042.336-.025.679-.044,1.03-.061l.23-.013a14.229,14.229,0,0,1,1.489.027c.386.022.822.045,1.254.039a3.874,3.874,0,0,0,.974-.143c.121-.034.247-.07.361-.105l.388-.115.029-.009A14.006,14.006,0,0,1,18.054,11C18.163,10.982,18.265,10.964,18.365,10.949Zm-1.975,6.36c-.012-.063-.021-.127-.028-.191a4.584,4.584,0,0,1,.061-1.02v-.01c.03-.217.06-.446.072-.675l.009-.158a5.214,5.214,0,0,0-.042-1.344V13.88a1.67,1.67,0,0,0-.115-.312c.257.065.522.133.787.194.17.033.38.074.6.127a4.4,4.4,0,0,0-.138.662,3.986,3.986,0,0,0,.054,1.334,3.776,3.776,0,0,1,.062.572.819.819,0,0,1-.115.5.8.8,0,0,0-.125.793.362.362,0,0,0,.04.066.414.414,0,0,0,.031.059,1.779,1.779,0,0,0,.166.2l.031.032.028.028a.862.862,0,0,1,.185.239.843.843,0,0,1-.1.288l-.1.239c-.1.234-.21.48-.316.709l-.059.02a1.705,1.705,0,0,1-.466.068h-.055v-.009a1.366,1.366,0,0,0-.095-.343c-.031-.073-.055-.133-.075-.187a3.358,3.358,0,0,1-.152-.51,2.837,2.837,0,0,1-.059-.44c0-.021,0-.042,0-.064A3.448,3.448,0,0,0,16.39,17.309Zm-4.248,3.175a5.134,5.134,0,0,1,.764-.05,2.164,2.164,0,0,1,.3.031,5.49,5.49,0,0,0,1.145.075,1.67,1.67,0,0,1-.205.016h-.605c-.178,0-.316,0-.447.009a2.184,2.184,0,0,0-.44.087h-.011c-.064.017-.136.036-.2.048-.234-.078-.313-.147-.332-.219ZM9.918,9.145c-.129,0-.169-.008-.223-.071a.309.309,0,0,1-.036-.143A.313.313,0,0,1,9.7,8.787a.352.352,0,0,1,.09-.126c.054-.04.116-.087.181-.127a.073.073,0,0,1,.04-.013h.071a.548.548,0,0,1,.357.158.228.228,0,0,1,.029.033.339.339,0,0,1,.009.078.4.4,0,0,1-.205.343v0a1.4,1.4,0,0,1-.194.017Zm1.81,3.868c.308.013.616.018.916.022H12.7c.564,0,1.146.012,1.712.074a7.708,7.708,0,0,1,.963.194l.046.011.08.021.065.018a1.292,1.292,0,0,0,.139.478,1.129,1.129,0,0,1,.074.193v.015a4.747,4.747,0,0,1,.029,1.179l-.008.149c-.012.208-.04.429-.067.624a5.174,5.174,0,0,0-.065,1.186,2.488,2.488,0,0,0,.038.257,2.9,2.9,0,0,1,.073.675,1.09,1.09,0,0,0,0,.14,3.686,3.686,0,0,0,.074.544,4.307,4.307,0,0,0,.268.826.525.525,0,0,1,.027.079c-.3.011-.6.036-.884.062a7.3,7.3,0,0,1-1.925,0c-.036-.006-.085-.015-.135-.021-.025,0-.05,0-.075-.006-.028-.143-.055-.287-.083-.426s-.059-.291-.086-.436q-.06-.315-.122-.63c-.138-.672-.27-1.367-.367-2.054-.045-.3-.113-.6-.18-.892-.03-.13-.065-.28-.089-.394s-.047-.23-.071-.344a9.7,9.7,0,0,0-.274-1.128c-.016-.051-.035-.109-.05-.15s-.03-.082-.044-.123S11.74,13.061,11.728,13.013Z"/></svg>