<svg xmlns="http://www.w3.org/2000/svg" viewBox="0 0 37 37"><defs><style>.a{fill:#baa0cc;}.b{fill:#ded1e7;}.c{fill:#fff;}.d{fill:#141414;}</style></defs><title>Pins Optimisation</title><path class="a" d="M18.5,37A18.5,18.5,0,1,0,0,18.5,18.5,18.5,0,0,0,18.5,37Z"/><path class="b" d="M18.5,33.5a15,15,0,1,0-15-15A15,15,0,0,0,18.5,33.5Z"/><path class="c" d="M14.717,24.992a22.782,22.782,0,0,1-2.825-.136c-.458-.052-.932-.123-1.413-.213.04-.13.088-.265.145-.408a40.384,40.384,0,0,1,1.9-3.945q.264.075.534.126c.216.039.848.213.855,0,.024-.735.018-2.1-.038-2.756a.477.477,0,0,0-.007-.1c-.03-.419.1-1.032-.539-1.271-.655-.247-3.338,2.408-3.37,2.444-.138.164.727.605.9.749-.35.667-.67,1.3-.976,1.933-.091.189-.187.378-.29.582a9.063,9.063,0,0,0-1.04,2.753,1.384,1.384,0,0,0,.008.566,1.41,1.41,0,0,0,.231.517,2.63,2.63,0,0,0,1.863.726c.1.013.193.024.285.038a24.219,24.219,0,0,0,3.486.253h.309a.885.885,0,0,0,.455-.12.9.9,0,0,0,.33-.336.991.991,0,0,0-.011-.976.875.875,0,0,0-.789-.43Z"/><path class="d" d="M14.419,27.23a24.806,24.806,0,0,1-3.54-.257q-.133-.019-.276-.036a2.952,2.952,0,0,1-2.112-.872A1.762,1.762,0,0,1,8.178,24.7a9.336,9.336,0,0,1,1.078-2.869c.1-.2.2-.388.286-.574.262-.54.532-1.079.823-1.641-.465-.288-.747-.483-.792-.765a.428.428,0,0,1,.011-.185A.445.445,0,0,1,9.67,18.5c.035-.042.736-.735,1.5-1.376,1.473-1.241,1.972-1.3,2.294-1.18a1.283,1.283,0,0,1,.775,1.389v.206a.374.374,0,0,0,.007.092c.06.722.062,2.113.039,2.794a.464.464,0,0,1-.049.194.456.456,0,0,1-.127.155c-.233.181-.582.124-1.013.032l-.11-.023c-.09-.017-.182-.037-.273-.057a38.778,38.778,0,0,0-1.728,3.624c.324.053.642.1.951.132a22.038,22.038,0,0,0,2.778.131,1.269,1.269,0,0,1,.641.154,1.255,1.255,0,0,1,.473.459,1.366,1.366,0,0,1,.015,1.35,1.27,1.27,0,0,1-1.107.65H14.42Zm-3.965-8.452c.116.079.251.164.336.217a3,3,0,0,1,.305.2l.233.193-.141.269c-.349.666-.666,1.295-.971,1.924-.093.192-.189.383-.292.582a8.782,8.782,0,0,0-1,2.636,1.026,1.026,0,0,0,.165.8,2.352,2.352,0,0,0,1.608.582c.1.014.2.026.292.04a24.022,24.022,0,0,0,3.432.249h.3a.524.524,0,0,0,.271-.067.518.518,0,0,0,.195-.2.616.616,0,0,0,0-.6.5.5,0,0,0-.456-.245h0a22.958,22.958,0,0,1-2.872-.136c-.466-.052-.95-.125-1.44-.217l-.414-.076.124-.4c.043-.141.094-.284.156-.438a41.528,41.528,0,0,1,1.908-3.981l.143-.267.291.083c.163.047.331.086.5.117.035,0,.081.016.131.026s.181.039.288.056c.016-.782,0-1.89-.043-2.444a.427.427,0,0,0-.008-.1c0-.087-.007-.175-.007-.259,0-.438-.039-.589-.267-.683-.069.009-.458.1-1.63,1.094C11.13,18.139,10.7,18.539,10.454,18.778Z"/><path class="c" d="M27.954,23.064l-.012-.031c-.287-.727-.589-1.464-.879-2.175v-.011c-.143-.349-.287-.7-.429-1.054a.948.948,0,0,0-.566-.545,1.04,1.04,0,0,0-.723.017.833.833,0,0,0-.479.457.824.824,0,0,0-.066.332.833.833,0,0,0,.071.33l1.006,2.493c.037.094.076.186.116.279v.009c.117.288.241.582.342.877l.032.087a4.086,4.086,0,0,1,.165.539l-.1.013c-.056.007-.1.011-.132.018-.2.037-.407.074-.612.106-.487.077-1,.136-1.513.178-.677.055-1.386.076-2.112.064-.03-.315-.133-1.683-.795-1.461,0,0-3.553,2.112-3.313,2.521.142.241,3.376,2.157,3.945,1.946.275-.1.289-1.03.3-1.143a23.031,23.031,0,0,0,2.8-.141c.56-.064,1.106-.144,1.629-.24l.156-.027a2.031,2.031,0,0,0,1.274-.557C28.764,25.109,28.258,23.829,27.954,23.064Z"/><path class="d" d="M21.8,28.443a5.616,5.616,0,0,1-2.212-.867c-.427-.233-.879-.493-1.239-.721-.619-.391-.677-.49-.719-.562-.242-.412.239-.822.5-1.048a14.044,14.044,0,0,1,1.184-.873c.856-.582,1.755-1.113,1.764-1.117l.035-.021.038-.013a.734.734,0,0,1,.654.075,1.919,1.919,0,0,1,.6,1.37c.6,0,1.184-.021,1.746-.066.511-.041,1.012-.1,1.489-.175.142-.022.284-.047.426-.071l-.037-.106c-.014-.036-.026-.069-.034-.093-.1-.282-.219-.574-.335-.856V23.29c-.039-.093-.077-.187-.117-.281l-1.01-2.49a1.209,1.209,0,0,1-.1-.471A1.209,1.209,0,0,1,25.2,18.92a1.426,1.426,0,0,1,.989-.025,1.315,1.315,0,0,1,.788.759q.215.528.43,1.054v.01c.291.713.593,1.45.882,2.181l.011.029c.313.789.894,2.257.027,3.259a2.368,2.368,0,0,1-1.5.682h-.006l-.144.025c-.527.1-1.082.178-1.651.243a23.025,23.025,0,0,1-2.491.144c-.059.677-.216,1.007-.518,1.119a.6.6,0,0,1-.225.043ZM18.419,26a16.471,16.471,0,0,0,1.527.914,7.205,7.205,0,0,0,1.773.769,2.806,2.806,0,0,0,.1-.751v-.049l.021-.358H22.2a22.256,22.256,0,0,0,2.756-.138c.552-.063,1.09-.142,1.6-.233l.156-.027h.006a1.7,1.7,0,0,0,1.048-.433c.569-.66.116-1.807-.156-2.493l-.012-.03c-.288-.728-.582-1.462-.878-2.172v-.011c-.143-.349-.287-.7-.429-1.056a.574.574,0,0,0-.343-.332.674.674,0,0,0-.456.012.47.47,0,0,0-.165.1.48.48,0,0,0-.11.157.465.465,0,0,0,.007.375l1.01,2.49.116.276v.009c.116.292.244.594.349.9.008.021.018.049.029.082a4.471,4.471,0,0,1,.182.59l.084.4-.4.053-.109.013-.106.015c-.206.039-.416.075-.624.107-.5.08-1.016.14-1.546.183-.688.055-1.41.076-2.148.064h-.336l-.035-.372c-.08-.864-.233-1.062-.283-1.1-.187.117-.815.494-1.463.924A10.1,10.1,0,0,0,18.413,26Z"/><path class="c" d="M18.586,9.713a2.3,2.3,0,0,1,.307-.3,2.195,2.195,0,0,1,.2.3,1.759,1.759,0,0,0,.116.181c.38.562.755,1.136,1.114,1.708.582.931,1.164,1.9,1.713,2.9-.258.226-.815.5-.737.965.143.815,3.5,2.445,3.746,2.221.6-.555.9-4.014,0-4.586-.4-.251-1.193.233-1.449.376-.663-1.187-1.359-2.346-2.07-3.449-.085-.133-.177-.288-.274-.452-.465-.789-1.047-1.773-1.947-2a1.677,1.677,0,0,0-.684-.019,1.7,1.7,0,0,0-.635.252,7.336,7.336,0,0,0-2.15,2.487l-.212.331c-.723,1.123-1.378,2.275-1.924,3.26a.9.9,0,0,0-.117.368.908.908,0,0,0,.048.383.986.986,0,0,0,.441.515.947.947,0,0,0,.657.105.879.879,0,0,0,.582-.447c.126-.225.25-.452.376-.68a22.6,22.6,0,0,1,2.858-4.365Z"/><path class="d" d="M24.956,18.082a1.766,1.766,0,0,1-.527-.117,11.424,11.424,0,0,1-2.037-.994c-1.364-.837-1.444-1.3-1.471-1.447a1.183,1.183,0,0,1,.62-1.13c-.5-.89-1.019-1.76-1.549-2.6-.356-.566-.728-1.137-1.106-1.7-.022-.032-.043-.064-.063-.1l-.008.009a22.22,22.22,0,0,0-2.808,4.3c-.125.233-.25.456-.376.681a1.25,1.25,0,0,1-.348.407,1.266,1.266,0,0,1-.487.224,1.314,1.314,0,0,1-.919-.145,1.366,1.366,0,0,1-.612-.714,1.278,1.278,0,0,1-.07-.541,1.293,1.293,0,0,1,.164-.521c.55-.985,1.208-2.143,1.937-3.273.069-.107.139-.218.21-.331a7.673,7.673,0,0,1,2.273-2.607,2.057,2.057,0,0,1,1.605-.281c1.048.265,1.675,1.324,2.178,2.173.1.161.185.312.267.44.651,1.007,1.288,2.064,1.9,3.143a1.628,1.628,0,0,1,1.505-.185,2.146,2.146,0,0,1,.716,1.69c.1,1.084-.081,2.95-.663,3.493A.463.463,0,0,1,24.956,18.082Zm-6-9.173.221.259a2.728,2.728,0,0,1,.233.35c.035.06.067.116.1.16.383.567.76,1.144,1.121,1.718.582.932,1.164,1.914,1.723,2.911l.147.265-.232.2a2.461,2.461,0,0,1-.22.171c-.233.168-.418.317-.395.447s.466.582,1.491,1.151a8.407,8.407,0,0,0,1.7.764,6.086,6.086,0,0,0,.349-2.774c-.064-.7-.233-1.041-.369-1.123-.023-.015-.136-.034-.381.051a4.027,4.027,0,0,0-.607.291l-.083.045-.326.177-.18-.323c-.658-1.18-1.351-2.328-2.057-3.428-.09-.14-.183-.3-.282-.466-.432-.731-.97-1.639-1.716-1.828a1.312,1.312,0,0,0-1.033.2A7.229,7.229,0,0,0,16.151,10.5l-.213.335c-.718,1.113-1.369,2.258-1.912,3.233a.513.513,0,0,0-.044.441.613.613,0,0,0,.271.314.57.57,0,0,0,.4.065.5.5,0,0,0,.336-.263q.189-.334.375-.677a23.1,23.1,0,0,1,2.91-4.438l.042-.046a2.443,2.443,0,0,1,.369-.357Z"/></svg>