<svg xmlns="http://www.w3.org/2000/svg" viewBox="0 0 322.35 322.21"><defs><style>.cls-1{fill:#ded1e7;}.cls-2{fill:#baa0cc;}.cls-3{fill:#fff;}.cls-4{fill:#141414;}</style></defs><title>map icon collection</title><g id="Calque_1" data-name="Calque 1"><path class="cls-1" d="M292.9,148.91a63.43,63.43,0,0,0-.62-6.61,118.32,118.32,0,0,0-5.1-19.22c-1.87-5.43-3.57-10.32-5.41-15.19-.46-1.21-.89-2.46-1.31-3.67a41.78,41.78,0,0,0-4.31-9.77c-1.81-2.69-3.51-5.5-5.16-8.22a108.1,108.1,0,0,0-9.47-14,42.3,42.3,0,0,0-9.61-8.89,31.81,31.81,0,0,1-7.36-6.22,49.32,49.32,0,0,0-16.27-12.59,171.46,171.46,0,0,0-22.48-9.38c-.92-.29-1.85-.6-2.74-.91a45.22,45.22,0,0,0-7.48-2.06c-3.45-.55-7.51-1.23-11.49-2.14a72.67,72.67,0,0,0-13.54-1.74c-.64,0-1.28,0-1.92,0-2.63,0-5.28.19-7.86.37-1.8.13-3.67.26-5.51.33a42.8,42.8,0,0,0-8.09.83c-4.53,1.06-9.16,1.89-13.64,2.68l-1.19.22-3,.49a61.8,61.8,0,0,0-6.72,1.31c-2.28.63-4.54,1.49-6.73,2.32-1.45.54-2.94,1.11-4.44,1.61a112.35,112.35,0,0,0-19.12,8.74A136.45,136.45,0,0,0,69.06,63.49a49.81,49.81,0,0,0-8.29,9.62c-1.66,2.42-3.25,5-4.79,7.44-1.29,2.07-2.62,4.21-4,6.27A138.94,138.94,0,0,0,39.65,110l-.74,1.78c-1.81,4.29-3.68,8.73-5.23,13.18-2.17,6.26-3.13,12.66-4.09,19.77-.4,3-.51,6-.62,9-.09,2.23-.17,4.54-.38,6.82a69.41,69.41,0,0,0,.75,16.82l.42,2.89a81.83,81.83,0,0,0,1.83,9.91,155,155,0,0,0,9.51,25.87,240.15,240.15,0,0,0,15.17,26.25A132.07,132.07,0,0,0,66.8,256.58a43.9,43.9,0,0,0,11.69,9.62c2,1.15,4,2.38,5.93,3.56,2.11,1.29,4.28,2.63,6.46,3.87,1.85,1.06,3.69,2.19,5.47,3.28,4.66,2.85,9.48,5.8,14.74,7.67,1.89.67,3.75,1.46,5.56,2.22a54.44,54.44,0,0,0,10.1,3.52c1.45.29,2.94.53,4.39.75l2.66.43a42.72,42.72,0,0,0,4.35.43,45.82,45.82,0,0,1,4.58.46,86.12,86.12,0,0,0,11.44.87c2.28.07,4.64.15,7,.33a70.4,70.4,0,0,0,18-1.15c1.88-.33,3.79-.55,5.64-.76a57,57,0,0,0,8.4-1.36c1.76-.47,3.53-1.06,5.25-1.63,1.26-.42,2.57-.85,3.87-1.24a94.93,94.93,0,0,0,17.44-7.05c3.45-1.84,6.87-3.9,10.18-5.88,3.9-2.34,7.93-4.76,12.07-6.87a19.86,19.86,0,0,0,5.35-3.68c4.81-5,10.45-11,15.79-17.43,4.06-4.88,8.29-10.14,11.43-16.12.88-1.68,1.71-3.45,2.5-5.16a84.16,84.16,0,0,1,3.85-7.57c4.47-7.48,9.7-24,9.82-24.42a49.32,49.32,0,0,0,2.07-11c.14-1.53.32-3.08.5-4.57a67.9,67.9,0,0,0,.69-9.25c-.08-5.55-.35-10.65-.81-15.59C293.05,151.53,293,150.2,292.9,148.91Z"/><path class="cls-2" d="M321.37,151.1c-.15-1.52-.24-3.08-.32-4.6a78.56,78.56,0,0,0-.77-8.17,143.72,143.72,0,0,0-6.2-23.38c-2.24-6.5-4.27-12.36-6.48-18.2-.53-1.41-1-2.88-1.53-4.3-1.46-4.22-3-8.59-5.46-12.29-2.13-3.15-4.14-6.48-6.08-9.7-3.48-5.76-7.07-11.71-11.55-17-4.34-5.15-8-8.48-12.08-11.13a35.56,35.56,0,0,1-8.18-6.9,61.56,61.56,0,0,0-20.31-15.71c-8.53-4.1-17.65-8.34-27.18-11.34-1.07-.34-2.16-.7-3.22-1.06a56.74,56.74,0,0,0-9.36-2.58c-4.07-.64-8.86-1.44-13.53-2.51A88.87,88.87,0,0,0,172.47.05a107.74,107.74,0,0,0-12,.4c-2.13.15-4.33.3-6.49.38A53.67,53.67,0,0,0,143.85,1.9C138.51,3.14,133,4.12,127.71,5.07l-1.42.25c-1.15.21-2.33.39-3.48.57a75.73,75.73,0,0,0-8.31,1.64c-2.84.78-5.6,1.83-8.27,2.84-1.7.64-3.46,1.31-5.2,1.89A137,137,0,0,0,77.76,22.88,166.15,166.15,0,0,0,49.49,42.69a62.25,62.25,0,0,0-10.35,12c-2,2.95-3.93,6-5.78,9-1.52,2.45-3.1,5-4.72,7.41a168.94,168.94,0,0,0-15,28.12l-.89,2.12c-2.18,5.16-4.42,10.5-6.3,15.9-2.67,7.7-3.84,15.48-5,24.11-.49,3.7-.64,7.42-.77,11-.1,2.62-.2,5.34-.44,8a85.3,85.3,0,0,0,.91,20.72c.17,1.14.34,2.28.5,3.42a99.79,99.79,0,0,0,2.25,12.16A188.28,188.28,0,0,0,15.46,228c5.5,11.53,12.31,22.36,18.26,31.61A163.94,163.94,0,0,0,46.5,276.9,55.17,55.17,0,0,0,61.16,289c2.36,1.37,4.73,2.82,7,4.22,2.53,1.55,5.15,3.15,7.78,4.65,2.17,1.25,4.35,2.59,6.46,3.88,5.68,3.47,11.55,7.06,18.09,9.39,2.18.78,4.36,1.7,6.48,2.6a66.64,66.64,0,0,0,12.57,4.35c1.79.37,3.61.65,5.36.92,1,.16,2.09.32,3.13.5a49.13,49.13,0,0,0,5.48.55c1.71.11,3.48.23,5.18.51a102.69,102.69,0,0,0,14,1.09c2.69.08,5.47.17,8.18.38,1.78.14,3.59.21,5.45.21a96.17,96.17,0,0,0,16.71-1.62c2.16-.38,4.39-.63,6.55-.87A71.57,71.57,0,0,0,200,318c2.18-.58,4.34-1.3,6.43-2,1.48-.49,3-1,4.53-1.45A116.23,116.23,0,0,0,232.31,306c4.18-2.23,8.29-4.7,12.27-7.09,4.61-2.76,9.38-5.63,14.24-8.1a25.67,25.67,0,0,0,7.1-4.93c5.77-6,12.54-13.2,19-20.93,4.94-5.94,10.09-12.35,14-19.72,1.08-2.06,2.08-4.2,3-6.27a96.62,96.62,0,0,1,4.46-8.79c5.51-9.21,12-29.68,12-29.74a61.76,61.76,0,0,0,2.57-13.68c.15-1.79.37-3.61.58-5.37a83.79,83.79,0,0,0,.85-11.4C322.25,163.23,321.92,157.07,321.37,151.1Zm-27.62,26.74c-.18,1.5-.37,3-.51,4.58a48.48,48.48,0,0,1-2.07,11.05c-.12.39-5.37,17-9.86,24.5a84.77,84.77,0,0,0-3.86,7.6c-.8,1.72-1.62,3.49-2.51,5.17-3.15,6-7.39,11.29-11.47,16.19-5.36,6.44-11,12.45-15.84,17.48a19.66,19.66,0,0,1-5.37,3.7c-4.15,2.11-8.2,4.54-12.11,6.89-3.32,2-6.76,4.05-10.22,5.9a94.88,94.88,0,0,1-17.5,7.07c-1.31.39-2.61.83-3.88,1.25-1.73.57-3.51,1.16-5.27,1.64a58.76,58.76,0,0,1-8.43,1.37c-1.86.2-3.77.42-5.65.75a71,71,0,0,1-18.07,1.16c-2.33-.19-4.7-.26-7-.33a85.2,85.2,0,0,1-11.48-.88,45.73,45.73,0,0,0-4.59-.46,43.12,43.12,0,0,1-4.37-.43l-2.66-.43c-1.46-.23-3-.46-4.4-.76a53.94,53.94,0,0,1-10.15-3.52c-1.81-.77-3.68-1.56-5.57-2.23-5.28-1.88-10.12-4.84-14.79-7.7-1.79-1.1-3.64-2.23-5.49-3.29-2.19-1.25-4.37-2.59-6.49-3.88-1.93-1.19-3.94-2.42-6-3.58A44,44,0,0,1,66.47,257,134.37,134.37,0,0,1,55.9,242.68a243.44,243.44,0,0,1-15.22-26.34,157,157,0,0,1-9.54-26,82.5,82.5,0,0,1-1.84-9.95c-.13-1-.27-1.93-.42-2.9a69.79,69.79,0,0,1-.75-16.87c.21-2.29.3-4.6.38-6.84.11-3,.23-6,.63-9,.95-7.13,1.92-13.55,4.1-19.83,1.55-4.47,3.43-8.93,5.24-13.24l.75-1.78A139.39,139.39,0,0,1,51.61,86.66c1.38-2.08,2.72-4.22,4-6.3,1.54-2.47,3.13-5,4.8-7.47a50.79,50.79,0,0,1,8.32-9.65A137.41,137.41,0,0,1,92.13,46.86a112.53,112.53,0,0,1,19.18-8.76c1.51-.51,3-1.07,4.46-1.62,2.2-.84,4.47-1.7,6.76-2.33a62.19,62.19,0,0,1,6.74-1.32c1-.15,2-.31,3-.49l1.19-.21c4.5-.8,9.14-1.63,13.69-2.69a43.09,43.09,0,0,1,8.11-.84c1.86-.07,3.73-.2,5.54-.33,2.59-.18,5.25-.37,7.89-.37.64,0,1.28,0,1.92,0a72.36,72.36,0,0,1,13.59,1.75c4,.91,8.07,1.59,11.53,2.14a45.25,45.25,0,0,1,7.5,2.08c.9.3,1.83.61,2.75.9a172.13,172.13,0,0,1,22.56,9.42,49.56,49.56,0,0,1,16.33,12.63,32.27,32.27,0,0,0,7.38,6.25A42.08,42.08,0,0,1,261.87,72a108.16,108.16,0,0,1,9.5,14c1.65,2.73,3.36,5.55,5.18,8.25a41.92,41.92,0,0,1,4.32,9.81c.42,1.21.85,2.46,1.32,3.68,1.85,4.88,3.55,9.79,5.42,15.24a118.35,118.35,0,0,1,5.12,19.28,59,59,0,0,1,.62,6.63c.08,1.3.15,2.64.28,4,.46,5,.73,10.08.81,15.65A68.33,68.33,0,0,1,293.75,177.84Z"/><path class="cls-3" d="M128.68,215.16A196.3,196.3,0,0,1,104.41,214c-3.93-.45-8-1.06-12.14-1.83.35-1.12.76-2.28,1.25-3.51a348.26,348.26,0,0,1,16.31-33.89q2.27.65,4.59,1.08c1.86.34,7.29,1.83,7.35,0,.2-6.31.15-18-.33-23.67,0-.25,0-.52-.06-.83-.26-3.6.83-8.86-4.63-10.92-5.63-2.12-28.68,20.69-28.95,21-1.19,1.41,6.24,5.2,7.71,6.43-3,5.73-5.75,11.18-8.38,16.61-.78,1.62-1.61,3.25-2.49,5-3.81,7.51-7.75,15.28-8.94,23.65a12,12,0,0,0,2.06,9.3c3.59,4.69,10.15,5.52,16,6.24.84.11,1.66.21,2.45.33a208.92,208.92,0,0,0,29.95,2.17l2.65,0a7.63,7.63,0,0,0,6.74-3.92,8.51,8.51,0,0,0-.09-8.38A7.55,7.55,0,0,0,128.68,215.16Z"/><path class="cls-4" d="M126.12,234.39a212.45,212.45,0,0,1-30.41-2.21c-.76-.11-1.55-.21-2.37-.31-6.13-.77-13.73-1.72-18.14-7.49-2.44-3.19-3.34-7.13-2.69-11.72,1.26-8.9,5.33-16.91,9.26-24.65.87-1.71,1.68-3.33,2.46-4.93,2.25-4.64,4.57-9.27,7.07-14.1-4-2.47-6.42-4.15-6.81-6.57a3.79,3.79,0,0,1,.84-3c.3-.36,6.32-6.31,12.86-11.82,12.65-10.66,16.94-11.17,19.7-10.14,6.59,2.48,6.63,8.4,6.66,11.94,0,.64,0,1.25,0,1.77,0,.3,0,.55.06.79.52,6.2.53,18.15.34,24a4,4,0,0,1-1.52,3c-2,1.55-5,1.06-8.7.27l-.94-.2c-.78-.14-1.57-.31-2.35-.49A333.85,333.85,0,0,0,96.6,209.67c2.78.45,5.51.83,8.17,1.13a189.73,189.73,0,0,0,23.86,1.13,10.74,10.74,0,0,1,9.57,5.26,11.76,11.76,0,0,1,.13,11.6,10.9,10.9,0,0,1-9.51,5.58l-2.69,0ZM92.06,161.78c1,.68,2.16,1.41,2.89,1.87a24.29,24.29,0,0,1,2.62,1.75l2,1.66-1.21,2.31c-3,5.72-5.72,11.12-8.34,16.53-.8,1.65-1.63,3.29-2.51,5-3.69,7.27-7.51,14.8-8.62,22.64a8.79,8.79,0,0,0,1.42,6.89c2.77,3.62,8.38,4.32,13.81,5,.88.12,1.7.22,2.51.34a205.26,205.26,0,0,0,29.48,2.14h0l2.61,0a4.41,4.41,0,0,0,4-2.28,5.32,5.32,0,0,0,0-5.16,4.3,4.3,0,0,0-3.92-2.1h0a196.85,196.85,0,0,1-24.67-1.17c-4-.45-8.16-1.07-12.37-1.86l-3.56-.66,1.07-3.46c.37-1.21.81-2.44,1.34-3.76A355.49,355.49,0,0,1,107,173.26l1.23-2.29,2.5.71c1.4.4,2.84.74,4.28,1,.3.05.69.14,1.12.23s1.56.33,2.48.48c.13-6.72,0-16.24-.37-21,0-.26,0-.53-.07-.84,0-.75-.06-1.5-.06-2.22,0-3.77-.34-5.06-2.3-5.87-.59.08-3.93.87-14,9.4C97.87,156.29,94.2,159.73,92.06,161.78Z"/><path class="cls-3" d="M242.39,198.6l-.1-.26c-2.47-6.25-5.06-12.58-7.55-18.69l0-.09c-1.23-3-2.47-6-3.69-9.06a8.11,8.11,0,0,0-4.86-4.68,8.91,8.91,0,0,0-6.21.15,7.15,7.15,0,0,0-4.07,9.61L224.55,197c.32.8.65,1.59,1,2.39l0,.08c1,2.47,2.07,5,2.93,7.53l.28.75a35.75,35.75,0,0,1,1.42,4.63l-.89.11c-.48.06-.83.1-1.13.16-1.73.32-3.5.63-5.26.91-4.18.66-8.56,1.17-13,1.53-5.81.47-11.9.65-18.14.55-.26-2.71-1.14-14.46-6.83-12.55,0,0-30.52,18.14-28.46,21.65,1.22,2.07,29,18.53,33.89,16.72,2.36-.88,2.48-8.85,2.53-9.82a197.4,197.4,0,0,0,24.08-1.21c4.81-.55,9.5-1.24,14-2.06l1.34-.23c3.35-.56,7.93-1.32,10.94-4.79C249.35,216.17,245,205.17,242.39,198.6Z"/><path class="cls-4" d="M189.48,244.81c-2.42,0-7.42-1.22-19-7.45-3.67-2-7.55-4.23-10.64-6.19-5.32-3.36-5.82-4.21-6.18-4.83-2.08-3.54,2.05-7.06,4.26-9a120,120,0,0,1,10.17-7.5c7.36-5,15.08-9.56,15.16-9.6l.3-.18.32-.11a6.3,6.3,0,0,1,5.62.64c3.25,2.12,4.52,7.06,5.14,11.77,5.14,0,10.17-.18,15-.56,4.39-.36,8.69-.86,12.79-1.51,1.22-.19,2.44-.4,3.66-.61l-.32-.91c-.12-.31-.22-.59-.29-.8-.84-2.42-1.88-4.93-2.88-7.35l0-.08c-.33-.8-.66-1.6-1-2.41l-8.68-21.39A10.38,10.38,0,0,1,218.73,163a12.22,12.22,0,0,1,8.49-.21,11.27,11.27,0,0,1,6.77,6.52q1.84,4.53,3.7,9.05l0,.09c2.5,6.12,5.09,12.45,7.57,18.73l.1.25c2.69,6.78,7.68,19.39.23,28-3.77,4.35-9.23,5.26-12.85,5.86h-.05l-1.24.21c-4.53.83-9.3,1.53-14.18,2.09a198.55,198.55,0,0,1-21.4,1.24c-.51,5.81-1.86,8.65-4.45,9.61A5.1,5.1,0,0,1,189.48,244.81Zm-29-21a145.62,145.62,0,0,0,13.12,7.85c8.76,4.71,13.43,6.31,15.23,6.6a23.86,23.86,0,0,0,.84-6.45c0-.19,0-.33,0-.42l.18-3.07,3.07,0a192.65,192.65,0,0,0,23.68-1.19c4.74-.54,9.36-1.22,13.75-2l1.34-.23h.05c3-.5,6.78-1.13,9-3.72,4.89-5.67,1-15.53-1.34-21.42h0l-.1-.26c-2.47-6.25-5-12.56-7.54-18.66l0-.09c-1.23-3-2.47-6-3.69-9.07a4.87,4.87,0,0,0-2.94-2.85,5.74,5.74,0,0,0-3.92.1,3.94,3.94,0,0,0-2.3,5.41l8.67,21.39,1,2.37,0,.08c1,2.51,2.1,5.1,3,7.7.07.18.15.42.25.7a39.8,39.8,0,0,1,1.56,5.07l.72,3.41-3.45.46-.94.11c-.41.05-.72.09-.91.13-1.77.33-3.57.64-5.36.92-4.26.68-8.73,1.2-13.28,1.57-5.91.47-12.11.65-18.45.55l-2.89,0-.3-3.2c-.69-7.42-2-9.12-2.43-9.47-1.61,1-7,4.24-12.57,7.93C165.31,219.47,161.86,222.39,160.43,223.84ZM159,222.7Z"/><path class="cls-3" d="M161.92,83.91a20.16,20.16,0,0,1,2.64-2.59,19.23,19.23,0,0,1,1.69,2.56c.33.56.64,1.09,1,1.56,3.26,4.83,6.48,9.76,9.57,14.67,5,8,10,16.34,14.71,24.9-2.21,1.94-7,4.25-6.33,8.29,1.23,7,30.08,21,32.18,19.08,5.16-4.77,7.75-34.49,0-39.4-3.41-2.16-10.25,2-12.45,3.23-5.69-10.2-11.67-20.15-17.78-29.63-.73-1.14-1.52-2.47-2.35-3.88-4-6.78-9-15.23-16.73-17.18a14.51,14.51,0,0,0-11.33,2c-8,4.82-13.57,13.6-18.47,21.36l-1.82,2.85c-6.21,9.64-11.84,19.54-16.53,28a7.72,7.72,0,0,0-.59,6.45,8.43,8.43,0,0,0,3.79,4.43,8.14,8.14,0,0,0,5.64.9,7.58,7.58,0,0,0,5-3.84c1.08-1.93,2.15-3.88,3.23-5.84,7.24-13.14,14.72-26.72,24.55-37.5Z"/><path class="cls-4" d="M216.64,155.8a15,15,0,0,1-4.52-1,97.72,97.72,0,0,1-17.5-8.54c-11.72-7.19-12.41-11.13-12.64-12.43-.83-4.77,2.76-7.8,5.33-9.71C183,116.48,178.55,109,174,101.82c-3.06-4.86-6.25-9.77-9.5-14.57q-.28-.41-.54-.84l-.07.08c-9.58,10.51-17,23.92-24.12,36.9-1.08,2-2.15,3.92-3.23,5.85a10.75,10.75,0,0,1-7.18,5.42,11.29,11.29,0,0,1-7.89-1.24,11.72,11.72,0,0,1-5.26-6.14,10.93,10.93,0,0,1,.81-9.12c4.72-8.46,10.38-18.41,16.64-28.12.59-.92,1.19-1.87,1.8-2.84,5.09-8,10.87-17.18,19.53-22.4,4.58-2.75,9.22-3.56,13.79-2.41,9,2.28,14.39,11.37,18.71,18.67.82,1.38,1.59,2.68,2.29,3.78,5.59,8.65,11.07,17.73,16.32,27,3.67-1.89,9.05-4,12.93-1.59,3.39,2.15,5.46,7,6.15,14.52.85,9.31-.69,25.34-5.69,30A4,4,0,0,1,216.64,155.8ZM165.1,77,167,79.23a23.3,23.3,0,0,1,2,3c.3.52.58,1,.84,1.38,3.29,4.87,6.53,9.83,9.63,14.76,5,8,10,16.44,14.8,25l1.27,2.28-2,1.71c-.57.51-1.21,1-1.89,1.47-2,1.44-3.59,2.72-3.39,3.84s4,5,12.81,9.89a72.17,72.17,0,0,0,14.61,6.56c1.94-3.41,3.91-14.2,3-23.83-.55-6-2-8.94-3.17-9.65-.2-.13-1.17-.29-3.27.44a35.11,35.11,0,0,0-5.22,2.5l-.71.39-2.8,1.52-1.55-2.78c-5.65-10.13-11.6-20-17.67-29.45-.77-1.2-1.57-2.55-2.42-4-3.71-6.28-8.33-14.08-14.74-15.7-2.88-.73-5.79-.18-8.88,1.68C151,74.76,145.66,83.2,141,90.65q-.93,1.48-1.83,2.88c-6.16,9.56-11.76,19.4-16.42,27.77a4.44,4.44,0,0,0-.38,3.79,5.25,5.25,0,0,0,2.33,2.7,4.9,4.9,0,0,0,3.4.56,4.34,4.34,0,0,0,2.89-2.26q1.62-2.88,3.22-5.82c7.33-13.3,14.91-27,25-38.12l.36-.4a20.39,20.39,0,0,1,3.17-3.06Z"/></g></svg>