<svg xmlns="http://www.w3.org/2000/svg" viewBox="0 0 37 37"><defs><style>.a{fill:#8ec685;}.b{fill:#c6e3c2;}.c{fill:#fff;}.d{fill:#141414;}</style></defs><title>Pins Optimisation</title><path class="a" d="M18.5,37A18.5,18.5,0,1,0,0,18.5,18.5,18.5,0,0,0,18.5,37Z"/><path class="b" d="M18.5,33.5a15,15,0,1,0-15-15A15,15,0,0,0,18.5,33.5Z"/><path class="c" d="M5,25a14.989,14.989,0,0,0,27.341-.707c-.442-.048-1.4-.078-4.352-.184.267-.614.251-8.861.251-8.861h0c-1.061-.6-3.878-4.026-3.876-4.026a54.062,54.062,0,0,0-6.09,3.412h-.006l.176,9.19a10.023,10.023,0,0,0-2.709.249,53.718,53.718,0,0,0,.144-6.233h0l-4.041-4.181L7.809,17.839l.317,6.7a7.67,7.67,0,0,0-1.294.061A15.851,15.851,0,0,0,5,25Z"/><path class="d" d="M12.913,24.835a4.929,4.929,0,0,1-1.212-.2c-.6-.155-1.122-.349-1.144-.355a.384.384,0,0,1-.177-.136.372.372,0,0,1-.068-.213l-.037-3.379a.372.372,0,0,1,.1-.254.378.378,0,0,1,.242-.124c.028,0,.7-.07,1.427-.1,1.472-.06,1.77.079,1.934.214a.464.464,0,0,1,.12.144.487.487,0,0,1,.056.178,25.285,25.285,0,0,1-.28,2.77c-.047.375-.088.7-.108.881a.58.58,0,0,1-.088.255.588.588,0,0,1-.193.188,1.016,1.016,0,0,1-.568.13ZM11.06,23.66c.2.067.488.16.8.242a3.306,3.306,0,0,0,1.163.176c.023-.194.059-.475.1-.793.091-.709.247-1.947.274-2.435a12.911,12.911,0,0,0-2.37.039Z"/><path class="d" d="M23.229,24.079h-.363c-.855-.006-1.718-.028-1.727-.028a.374.374,0,0,1-.275-.131.376.376,0,0,1-.088-.292l.618-4.749a.378.378,0,0,1,.4-.326l2.173.125a.379.379,0,0,1,.24.109.374.374,0,0,1,.109.24,29.734,29.734,0,0,0,.544,4.318.388.388,0,0,1,.116.383c-.081.319-.392.329-.907.349C23.85,24.076,23.567,24.079,23.229,24.079Zm-1.655-.769c.968.02,1.952.026,2.5.008-.029-.116-.056-.258-.085-.423-.068-.393-.14-.931-.213-1.583-.082-.748-.148-1.493-.182-1.905l-1.5-.086Z"/><path class="d" d="M28.432,23.737c.057-.541.118-1.7.154-4.3.026-2.113.026-4.186.026-4.206a.372.372,0,0,0-.191-.326,27.146,27.146,0,0,1-3.771-3.938.381.381,0,0,0-.173-.118.375.375,0,0,0-.21-.008,50.417,50.417,0,0,0-6.255,3.5c-.009.009-.006.023-.014.032a.3.3,0,0,0-.1.221h0c0,.012-.007.024-.007.036l.167,8.77a10.744,10.744,0,0,0-1.876.192c.156-1.6.08-5.3.07-5.771,0-.008-.01-.013-.011-.021s.006-.018.005-.027a.377.377,0,0,0-.1-.2L12.109,13.4a.375.375,0,0,0-.123-.086.4.4,0,0,0-.147-.031.387.387,0,0,0-.147.031.375.375,0,0,0-.123.086L7.543,17.579c-.016.016-.018.04-.03.058a.338.338,0,0,0-.054.105c0,.011-.013.018-.015.029s0,.022,0,.034a.434.434,0,0,0-.009.052l.3,6.3a7.891,7.891,0,0,0-.947.069,9.74,9.74,0,0,0-1.94.465c.106.232.214.462.331.687a9.158,9.158,0,0,1,1.7-.4,7.227,7.227,0,0,1,1.23-.058.385.385,0,0,0,.153-.029.376.376,0,0,0,.128-.088.371.371,0,0,0,.11-.282l-.3-6.34a29.734,29.734,0,0,1,7.308,0,43.555,43.555,0,0,1-.138,5.792.376.376,0,0,0,.063.328.367.367,0,0,0,.132.109.373.373,0,0,0,.167.04.423.423,0,0,0,.079-.008,9.239,9.239,0,0,1,2.553-.249.376.376,0,0,0,.167,0,.386.386,0,0,0,.15-.075.391.391,0,0,0,.1-.133.383.383,0,0,0,.034-.164l-.169-8.784,9.209.568c0,3.785-.073,7.9-.223,8.357a.374.374,0,0,0-.029.178.382.382,0,0,0,.057.171.373.373,0,0,0,.131.125.393.393,0,0,0,.174.05c2.4.09,3.607.159,4.185.2.111-.244.213-.492.311-.743C32.042,23.9,30.953,23.835,28.432,23.737ZM11.784,17.194a27.025,27.025,0,0,0-2.969.151L11.84,14.2l3.041,3.141C13.762,17.233,12.715,17.194,11.784,17.194Zm7.657-2.865c1.384-.839,3.88-2.3,4.8-2.675a41.3,41.3,0,0,0,2.87,3.148Z"/></svg>