<svg xmlns="http://www.w3.org/2000/svg" viewBox="0 0 37 37"><defs><style>.a{fill:#f29195;}.b{fill:#f9cacb;}.c{fill:#fff;}.d{fill:#141414;}</style></defs><title>Pins Optimisation</title><path class="a" d="M18.5,37A18.5,18.5,0,1,0,0,18.5,18.5,18.5,0,0,0,18.5,37Z"/><path class="b" d="M18.5,33.5a15,15,0,1,0-15-15A15,15,0,0,0,18.5,33.5Z"/><path class="c" d="M23.309,14.537A3.494,3.494,0,0,1,24.8,11.306a2.8,2.8,0,0,1,3.445.346c-.511.462-1.029,1.019-1.542,1.477l.959,1.4a.125.125,0,0,0,.065.059.135.135,0,0,0,.053,0,.129.129,0,0,0,.046-.025c.577-.366,1.109-.678,1.688-1.039a3.217,3.217,0,0,1,.139,2.333A2.506,2.506,0,0,1,28,17.445a3.134,3.134,0,0,1-1.308.024,3.377,3.377,0,0,1-1.711-.753c-1.761,1.019-3.759,1.879-5.52,2.9-.583.337-1.164.674-1.731,1.032a28.733,28.733,0,0,0-2.716,1.933l-.023.063A3.541,3.541,0,0,1,13.835,25.9a2.855,2.855,0,0,1-1.993.726,1.886,1.886,0,0,1-1.748-.888c.846-.517,1.63-1.261,2.477-1.778l-.023-.043c-.557-.655-1.186-1.242-1.675-1.949-.79.692-1.655,1.385-2.454,2.058a3.157,3.157,0,0,1,.759-4.338,3.839,3.839,0,0,1,.859-.454,2.642,2.642,0,0,1,.923-.2,2.545,2.545,0,0,1,1.472.537,7.519,7.519,0,0,1,1.135,1.114H13.6c2.471-1.681,7.206-4.465,9.677-6.146Z"/><path class="d" d="M29.856,13.365a.375.375,0,0,0-.62-.114c-.257.161-.243.151-1.4.866l-.638-.93a8.776,8.776,0,0,0,1.41-1.513c-1.294-2.227-5.819-.915-5.667,2.65-2.1,1.417-6.321,3.936-9.293,5.887-1.645-3.467-8.772.218-5.224,4.18h0c.887-.463-.041.091,2.418-1.906.2.251.222.291,1.195,1.4-.179.362-.913.175-2.3,1.949,1.629,2.474,5.964.763,5.643-3.06,2.793-2.224,5.325-3.381,9.573-5.616C26.717,18.6,31.413,17.878,29.856,13.365Zm-.55,2.36c-.422,1.214-2.1,2.034-4.374.618-3.117,1.71-6.786,3.136-10.228,6.058-.005.014-.021,0-.04.059,0,.006-.011,0-.011.027.35,1.65-1.367,4.916-4.047,3.332.157-.367,1.5-.544,2.3-2.009,0-.007.005-.009-.013-.034,0,0,0-.011-.017-.031-1.129-.6-1.118-3.927-4.354-.3-1.149-2.189,1.752-6.143,5.054-2.4.035.007.023.02.119-.019,2.279-1.637,7.451-4.229,9.987-6.522C23.525,13,25.19,10.251,27.7,11.664c-.326.3-.4.411-1.485,1.409,1.284,1.214.529,2.876,3.106,1A2.824,2.824,0,0,1,29.306,15.725Z"/></svg>