<svg width="24" height="24" viewBox="0 0 24 24" fill="none" xmlns="http://www.w3.org/2000/svg">
<g clip-path="url(#clip0_169_56749)">
<path d="M6.3938 9.18823C7.41689 8.67337 8.78782 8.18208 9.84341 7.81029C10.899 7.43851 12.4116 6.82915 14.0682 6.18796C15.7248 5.54678 17.1701 4.71633 19.3519 3.84729C20.0768 3.55856 20.7415 5.44635 21.3012 6.59353C21.7451 7.50329 21.9512 8.66791 22.0786 10.041C22.2059 11.414 22.6109 14.5963 22.2751 16.0499C21.5625 19.135 21.4179 18.8602 19.8479 19.1328C18.2779 19.4054 16.4151 19.135 15.1283 18.4916C13.8415 17.8482 12.4987 17.3323 10.899 17.0143C9.29928 16.6963 7.07851 15.4651 6.39379 15.2536C4.81858 15.5233 1.66814 15.2477 1.66814 11.9878C1.66814 8.72789 4.81858 8.76313 6.3938 9.18823Z" fill="#FFDE45"/>
<path fill-rule="evenodd" clip-rule="evenodd" d="M21.7492 5.64745C21.8511 5.87227 21.9445 6.07848 22.0238 6.241C22.5352 7.28919 22.7503 8.57727 22.8792 9.96682C22.8961 10.149 22.9188 10.3707 22.9444 10.6207C23.0112 11.2746 23.0979 12.1221 23.1529 12.9628C23.2274 14.1012 23.2567 15.3731 23.0586 16.231C22.8804 17.0022 22.7303 17.5976 22.5784 18.0507C22.4291 18.4957 22.2518 18.8882 21.976 19.1894C21.6728 19.5204 21.3212 19.6669 20.9824 19.7508C20.7928 19.7977 20.5481 19.8358 20.3104 19.8728C20.1983 19.8903 20.0878 19.9075 19.9853 19.9253C18.2553 20.2257 16.2172 19.9355 14.7684 19.2111C13.532 18.5929 12.2576 18.1046 10.742 17.8033C9.84534 17.6251 8.81755 17.2033 7.9762 16.829C7.71159 16.7113 7.45372 16.5929 7.21991 16.4852C7.23664 16.8639 7.26353 17.1693 7.30275 17.4214C7.37587 17.8916 7.48238 18.1083 7.59031 18.2452C8.01851 18.7882 8.26837 19.0641 8.7429 19.3884C9.32659 19.7873 9.85527 19.9653 10.3302 20.1038C10.7566 20.2282 11.0015 20.6747 10.8771 21.1011C10.7527 21.5275 10.3062 21.7724 9.8798 21.648C9.34118 21.4909 8.62438 21.2558 7.83524 20.7164C7.16408 20.2577 6.79597 19.8356 6.32728 19.2413C5.98677 18.8095 5.81068 18.2946 5.71332 17.6686C5.6474 17.2448 5.61343 16.7403 5.5987 16.1344C4.82794 16.1529 3.92631 16.0449 3.11025 15.678C2.50754 15.407 1.93468 14.9862 1.51559 14.3575C1.09485 13.7262 0.863693 12.9371 0.863692 11.9879C0.863692 11.0406 1.09431 10.2592 1.53011 9.64834C1.96522 9.03847 2.55876 8.66323 3.17373 8.44739C4.23883 8.07356 5.43564 8.15076 6.30105 8.33855C7.33741 7.84641 8.61458 7.39048 9.57605 7.05184C10.3068 6.79448 11.2576 6.42231 12.3395 5.99885C12.7976 5.81951 13.2793 5.63097 13.7777 5.43805C14.5515 5.13857 15.2799 4.79524 16.0974 4.40994L16.1701 4.37568C17.0121 3.97887 17.9383 3.5447 19.0541 3.10025C19.6385 2.86751 20.1342 3.13938 20.4188 3.39319C20.6938 3.63854 20.9149 3.97857 21.0888 4.28695C21.3125 4.68353 21.5474 5.20202 21.7492 5.64745ZM5.58935 9.84383C4.97963 9.75663 4.28032 9.76373 3.70643 9.96515C3.33689 10.0949 3.04436 10.2955 2.83955 10.5826C2.63541 10.8687 2.47223 11.3054 2.47223 11.9879C2.47223 12.6688 2.63487 13.1365 2.85406 13.4653C3.0749 13.7967 3.38811 14.0392 3.7699 14.2109C4.33101 14.4632 5.00062 14.543 5.58934 14.5257L5.58935 9.84383ZM7.19787 14.7081C7.29511 14.7508 7.39505 14.796 7.49495 14.8415C7.60918 14.8936 7.72748 14.948 7.84997 15.0045C8.09306 15.1164 8.35269 15.236 8.62997 15.3593C9.47012 15.7331 10.3526 16.0859 11.0556 16.2256C12.7395 16.5604 14.1506 17.1038 15.4878 17.7724C16.6127 18.3348 18.3001 18.5853 19.7101 18.3405C19.9008 18.3074 20.0484 18.2848 20.1708 18.2662C20.3469 18.2393 20.4707 18.2203 20.5958 18.1894C20.7445 18.1526 20.7703 18.1243 20.7885 18.1043L20.7897 18.103C20.8354 18.0532 20.926 17.9188 21.0533 17.5392C21.1779 17.1676 21.3131 16.6404 21.4913 15.869C21.6289 15.2733 21.6237 14.2273 21.5478 13.0679C21.4948 12.2586 21.4138 11.4662 21.3476 10.8191C21.3209 10.5581 21.2966 10.3207 21.2776 10.1154C21.1517 8.75882 20.9545 7.71767 20.5782 6.94632C20.4538 6.69141 20.3403 6.43915 20.2296 6.19324C20.0525 5.79992 19.8828 5.42287 19.6878 5.07722C19.5842 4.89357 19.4975 4.76572 19.4303 4.68271C18.4607 5.07668 17.6378 5.46219 16.8558 5.83073C16.825 5.84525 16.7942 5.85975 16.7635 5.87423C15.9615 6.25232 15.1866 6.61756 14.3584 6.93814C13.8801 7.12324 13.4103 7.30712 12.9582 7.48411C11.8617 7.9133 10.8687 8.30195 10.1104 8.56902C9.20037 8.88954 8.10281 9.28315 7.19788 9.69534L7.19787 14.7081Z" fill="black"/>
<path d="M6.39365 15.2536L6.39366 9.18826C4.81844 8.76316 1.66801 8.72792 1.66801 11.9878C1.66801 15.2477 4.81844 15.5233 6.39365 15.2536Z" fill="black"/>
<path fill-rule="evenodd" clip-rule="evenodd" d="M7.19798 8.57234L7.19797 15.932L6.52942 16.0464C5.64586 16.1977 4.28888 16.2078 3.11035 15.6779C2.50763 15.4069 1.93478 14.9862 1.51569 14.3574C1.09495 13.7262 0.863789 12.937 0.863789 11.9879C0.863789 11.0405 1.09441 10.2591 1.53021 9.6483C1.96532 9.03843 2.55886 8.66319 3.17383 8.44735C4.36933 8.02775 5.73078 8.17638 6.60326 8.41184L7.19798 8.57234ZM2.83964 10.5825C2.63551 10.8686 2.47232 11.3053 2.47232 11.9879C2.47232 12.6687 2.63497 13.1365 2.85416 13.4653C3.075 13.7966 3.3882 14.0392 3.77 14.2109C4.3311 14.4632 5.00071 14.543 5.58944 14.5257L5.58944 9.84379C4.97972 9.75659 4.28041 9.76369 3.70653 9.96512C3.33699 10.0948 3.04446 10.2954 2.83964 10.5825Z" fill="black"/>
</g>
<defs>
<clipPath id="clip0_169_56749">
<rect width="24" height="24" fill="white"/>
</clipPath>
</defs>
</svg>
