<svg width="32" height="32" viewBox="0 0 32 32" fill="none" xmlns="http://www.w3.org/2000/svg">
<path d="M8.66876 13.2421C9.8424 12.6515 11.4151 12.0879 12.626 11.6614C13.8369 11.2349 15.5722 10.5359 17.4725 9.80031C19.3729 9.06477 21.0309 8.11212 23.5338 7.11519C24.3653 6.78398 25.1278 8.94957 25.7698 10.2656C26.279 11.3092 26.5156 12.6452 26.6616 14.2203C26.8077 15.7954 27.2723 19.4459 26.8871 21.1135C26.0696 24.6526 25.9037 24.3373 24.1027 24.65C22.3016 24.9627 20.1648 24.6526 18.6886 23.9145C17.2124 23.1764 15.6721 22.5846 13.8369 22.2198C12.0018 21.855 9.45423 20.4426 8.66875 20.2C6.86173 20.5094 3.2477 20.1932 3.2477 16.4536C3.2477 12.714 6.86174 12.7544 8.66876 13.2421Z" fill="#FFDE45"/>
<path fill-rule="evenodd" clip-rule="evenodd" d="M26.284 9.17996C26.4008 9.43787 26.508 9.67442 26.599 9.86086C27.1856 11.0633 27.4324 12.5409 27.5802 14.135C27.5996 14.344 27.6256 14.5983 27.655 14.8851C27.7317 15.6352 27.8311 16.6074 27.8942 17.5718C27.9796 18.8777 28.0133 20.3368 27.786 21.321C27.5816 22.2056 27.4094 22.8886 27.2351 23.4084C27.0639 23.919 26.8605 24.3691 26.5441 24.7147C26.1963 25.0944 25.793 25.2624 25.4043 25.3587C25.1868 25.4125 24.9061 25.4562 24.6334 25.4987C24.5048 25.5187 24.378 25.5385 24.2604 25.5589C22.2758 25.9035 19.9379 25.5706 18.2759 24.7396C16.8576 24.0304 15.3956 23.4702 13.657 23.1246C12.6283 22.9201 11.4493 22.4363 10.4842 22.007C10.1806 21.8719 9.88479 21.7361 9.61657 21.6126C9.63576 22.047 9.66662 22.3973 9.7116 22.6865C9.79549 23.2259 9.91767 23.4745 10.0415 23.6315C10.5327 24.2544 10.8193 24.5709 11.3637 24.943C12.0333 25.4006 12.6397 25.6047 13.1846 25.7636C13.6737 25.9063 13.9546 26.4185 13.8119 26.9077C13.6693 27.3969 13.1571 27.6777 12.6679 27.5351C12.05 27.3549 11.2277 27.0851 10.3225 26.4664C9.55253 25.9401 9.13025 25.456 8.59259 24.7742C8.20197 24.2789 7.99997 23.6882 7.88829 22.9701C7.81266 22.484 7.7737 21.9052 7.7568 21.2101C6.87261 21.2314 5.83831 21.1075 4.90216 20.6865C4.21075 20.3756 3.5536 19.893 3.07284 19.1717C2.59018 18.4476 2.325 17.5423 2.325 16.4535C2.325 15.3667 2.58956 14.4703 3.08949 13.7696C3.58863 13.07 4.26951 12.6395 4.97498 12.3919C6.19681 11.9631 7.56974 12.0516 8.5625 12.2671C9.75137 11.7025 11.2165 11.1795 12.3194 10.791C13.1577 10.4958 14.2484 10.0689 15.4895 9.58307C16.0151 9.37734 16.5677 9.16106 17.1394 8.93976C18.027 8.5962 18.8627 8.20235 19.8004 7.76035L19.8838 7.72105C20.8497 7.26585 21.9122 6.76778 23.1923 6.25793C23.8626 5.99094 24.4313 6.30282 24.7577 6.59398C25.0733 6.87544 25.3268 7.2655 25.5264 7.61925C25.783 8.07419 26.0525 8.66898 26.284 9.17996ZM7.74607 13.9939C7.04662 13.8938 6.2444 13.902 5.58607 14.133C5.16215 14.2818 4.82657 14.512 4.59162 14.8413C4.35744 15.1695 4.17024 15.6705 4.17024 16.4535C4.17024 17.2345 4.35682 17.7711 4.60827 18.1483C4.86161 18.5284 5.2209 18.8067 5.65888 19.0036C6.30256 19.293 7.0707 19.3846 7.74606 19.3647L7.74607 13.9939ZM9.5913 19.5739C9.70284 19.6229 9.81748 19.6748 9.93208 19.727C10.0631 19.7867 10.1988 19.8492 10.3394 19.9139C10.6182 20.0423 10.9161 20.1795 11.2341 20.321C12.1979 20.7497 13.2102 21.1545 14.0167 21.3148C15.9484 21.6988 17.5671 22.3221 19.1011 23.0892C20.3916 23.7344 22.3273 24.0217 23.9448 23.7409C24.1636 23.7029 24.3329 23.677 24.4732 23.6556C24.6752 23.6247 24.8173 23.603 24.9608 23.5675C25.1313 23.5253 25.161 23.4928 25.1818 23.4699L25.1833 23.4684C25.2356 23.4112 25.3396 23.2571 25.4856 22.8216C25.6286 22.3953 25.7837 21.7906 25.9881 20.9057C26.1459 20.2223 26.1399 19.0223 26.0529 17.6923C25.9921 16.764 25.8991 15.855 25.8232 15.1127C25.7926 14.8132 25.7647 14.5409 25.7429 14.3054C25.5986 12.7492 25.3723 11.5548 24.9406 10.67C24.7979 10.3775 24.6676 10.0882 24.5407 9.80607C24.3376 9.35488 24.1429 8.92234 23.9192 8.52582C23.8004 8.31515 23.7009 8.16849 23.6238 8.07326C22.5115 8.5252 21.5676 8.96745 20.6704 9.39022C20.6351 9.40687 20.5998 9.42351 20.5646 9.44012C19.6445 9.87384 18.7556 10.2928 17.8055 10.6606C17.2569 10.8729 16.718 11.0839 16.1992 11.2869C14.9414 11.7792 13.8023 12.2251 12.9324 12.5315C11.8885 12.8991 10.6294 13.3507 9.5913 13.8235L9.5913 19.5739Z" fill="black"/>
<path d="M8.66832 20.2L8.66832 13.2421C6.8613 12.7544 3.24726 12.714 3.24726 16.4536C3.24726 20.1932 6.8613 20.5094 8.66832 20.2Z" fill="black"/>
<path fill-rule="evenodd" clip-rule="evenodd" d="M9.59023 12.5353L9.59022 20.9779L8.82329 21.1092C7.80971 21.2828 6.25304 21.2944 4.90108 20.6865C4.20968 20.3756 3.55252 19.893 3.07176 19.1717C2.58911 18.4475 2.32393 17.5422 2.32393 16.4534C2.32393 15.3667 2.58849 14.4703 3.08841 13.7696C3.58756 13.0699 4.26844 12.6395 4.9739 12.3919C6.34533 11.9105 7.90713 12.081 8.908 12.3512L9.59023 12.5353ZM4.59054 14.8413C4.35636 15.1695 4.16917 15.6704 4.16917 16.4534C4.16917 17.2345 4.35575 17.771 4.60719 18.1483C4.86053 18.5284 5.21983 18.8066 5.65781 19.0035C6.30148 19.293 7.06962 19.3845 7.74498 19.3647L7.74499 13.9938C7.04555 13.8938 6.24333 13.9019 5.58499 14.133C5.16107 14.2818 4.8255 14.5119 4.59054 14.8413Z" fill="black"/>
<path d="M21.6953 7.53728C21.6953 10.6096 19.2047 13.1003 16.1323 13.1003C13.06 13.1003 10.5693 10.6096 10.5693 7.53728C10.5693 4.46493 13.06 1.9743 16.1323 1.9743C19.2047 1.9743 21.6953 4.46493 21.6953 7.53728Z" fill="#FF0000"/>
<path fill-rule="evenodd" clip-rule="evenodd" d="M16.1323 2.85994C13.5491 2.85994 11.455 4.95403 11.455 7.53721C11.455 10.1204 13.5491 12.2145 16.1323 12.2145C18.7155 12.2145 20.8096 10.1204 20.8096 7.53721C20.8096 4.95403 18.7155 2.85994 16.1323 2.85994ZM9.68359 7.53721C9.68359 3.97569 12.5708 1.08852 16.1323 1.08852C19.6938 1.08852 22.581 3.97569 22.581 7.53721C22.581 11.0987 19.6938 13.9859 16.1323 13.9859C12.5708 13.9859 9.68359 11.0987 9.68359 7.53721Z" fill="black"/>
</svg>
