<svg width="32" height="32" viewBox="0 0 32 32" fill="none" xmlns="http://www.w3.org/2000/svg">
<path d="M8.66876 13.2424C9.8424 12.6518 11.4151 12.0882 12.626 11.6617C13.8369 11.2352 15.5722 10.5362 17.4725 9.80066C19.3729 9.06512 21.0309 8.11247 23.5338 7.11554C24.3653 6.78433 25.1278 8.94992 25.7698 10.2659C26.279 11.3095 26.5156 12.6455 26.6616 14.2207C26.8077 15.7958 27.2723 19.4463 26.8871 21.1138C26.0696 24.6529 25.9037 24.3377 24.1027 24.6504C22.3016 24.9631 20.1648 24.653 18.6886 23.9149C17.2124 23.1768 15.6721 22.585 13.8369 22.2202C12.0018 21.8554 9.45423 20.443 8.66875 20.2004C6.86173 20.5098 3.2477 20.1936 3.2477 16.454C3.2477 12.7144 6.86174 12.7548 8.66876 13.2424Z" fill="#BFBFBF"/>
<path fill-rule="evenodd" clip-rule="evenodd" d="M26.284 9.18022C26.4008 9.43813 26.508 9.67468 26.599 9.86112C27.1856 11.0636 27.4324 12.5412 27.5802 14.1352C27.5996 14.3442 27.6256 14.5985 27.655 14.8853C27.7317 15.6354 27.8311 16.6077 27.8942 17.5721C27.9796 18.878 28.0133 20.3371 27.786 21.3212C27.5816 22.2059 27.4094 22.8889 27.2351 23.4086C27.0639 23.9192 26.8605 24.3694 26.5441 24.7149C26.1963 25.0946 25.793 25.2627 25.4043 25.3589C25.1868 25.4127 24.9061 25.4565 24.6334 25.499C24.5048 25.519 24.378 25.5388 24.2604 25.5592C22.2758 25.9037 19.9379 25.5708 18.2759 24.7398C16.8576 24.0307 15.3956 23.4705 13.657 23.1249C12.6283 22.9204 11.4493 22.4365 10.4842 22.0072C10.1806 21.8722 9.88479 21.7363 9.61657 21.6128C9.63576 22.0472 9.66662 22.3976 9.7116 22.6868C9.79549 23.2261 9.91767 23.4748 10.0415 23.6318C10.5327 24.2547 10.8193 24.5712 11.3637 24.9432C12.0333 25.4009 12.6397 25.605 13.1846 25.7639C13.6737 25.9066 13.9546 26.4188 13.8119 26.908C13.6693 27.3971 13.1571 27.678 12.6679 27.5353C12.05 27.3551 11.2277 27.0854 10.3225 26.4666C9.55253 25.9404 9.13025 25.4562 8.59259 24.7744C8.20197 24.2791 7.99997 23.6884 7.88829 22.9704C7.81266 22.4842 7.7737 21.9054 7.7568 21.2104C6.87261 21.2316 5.83831 21.1077 4.90216 20.6868C4.21075 20.3759 3.5536 19.8933 3.07284 19.172C2.59018 18.4478 2.325 17.5425 2.325 16.4537C2.325 15.367 2.58956 14.4706 3.08949 13.7699C3.58863 13.0702 4.26951 12.6398 4.97498 12.3922C6.19681 11.9634 7.56974 12.0519 8.5625 12.2673C9.75137 11.7028 11.2165 11.1797 12.3194 10.7913C13.1577 10.496 14.2484 10.0691 15.4895 9.58333C16.0151 9.3776 16.5677 9.16132 17.1394 8.94001C18.027 8.59646 18.8627 8.20261 19.8004 7.76061L19.8838 7.72131C20.8497 7.26611 21.9122 6.76804 23.1923 6.25819C23.8626 5.9912 24.4313 6.30308 24.7577 6.59424C25.0733 6.87569 25.3268 7.26576 25.5264 7.61951C25.783 8.07445 26.0525 8.66924 26.284 9.18022ZM7.74607 13.9941C7.04662 13.8941 6.2444 13.9022 5.58607 14.1333C5.16215 14.2821 4.82657 14.5122 4.59162 14.8416C4.35744 15.1698 4.17024 15.6707 4.17024 16.4537C4.17024 17.2348 4.35682 17.7713 4.60827 18.1486C4.86161 18.5287 5.2209 18.8069 5.65888 19.0038C6.30256 19.2933 7.0707 19.3848 7.74606 19.365L7.74607 13.9941ZM9.5913 19.5742C9.70284 19.6232 9.81748 19.675 9.93208 19.7272C10.0631 19.787 10.1988 19.8494 10.3394 19.9142C10.6182 20.0426 10.9161 20.1798 11.2341 20.3213C12.1979 20.75 13.2102 21.1547 14.0167 21.3151C15.9484 21.699 17.5671 22.3224 19.1011 23.0894C20.3916 23.7346 22.3273 24.022 23.9448 23.7411C24.1636 23.7031 24.3329 23.6773 24.4732 23.6558C24.6752 23.625 24.8173 23.6033 24.9608 23.5678C25.1313 23.5255 25.161 23.4931 25.1818 23.4702L25.1833 23.4686C25.2356 23.4115 25.3396 23.2573 25.4856 22.8219C25.6286 22.3956 25.7837 21.7908 25.9881 20.9059C26.1459 20.2226 26.1399 19.0226 26.0529 17.6926C25.9921 16.7643 25.8991 15.8553 25.8232 15.1129C25.7926 14.8135 25.7647 14.5412 25.7429 14.3056C25.5986 12.7494 25.3723 11.5551 24.9406 10.6702C24.7979 10.3778 24.6676 10.0884 24.5407 9.80633C24.3376 9.35514 24.1429 8.9226 23.9192 8.52608C23.8004 8.31541 23.7009 8.16875 23.6238 8.07352C22.5115 8.52546 21.5676 8.96771 20.6704 9.39048C20.6351 9.40713 20.5998 9.42376 20.5646 9.44038C19.6445 9.8741 18.7556 10.2931 17.8055 10.6609C17.2569 10.8732 16.718 11.0841 16.1992 11.2872C14.9414 11.7795 13.8023 12.2253 12.9324 12.5317C11.8885 12.8994 10.6294 13.3509 9.5913 13.8238L9.5913 19.5742Z" fill="#686868"/>
<path d="M8.66832 20.2L8.66832 13.242C6.8613 12.7543 3.24726 12.7139 3.24726 16.4535C3.24726 20.1932 6.8613 20.5093 8.66832 20.2Z" fill="#686868"/>
<path fill-rule="evenodd" clip-rule="evenodd" d="M9.59023 12.5355L9.59022 20.9782L8.82329 21.1095C7.80971 21.283 6.25304 21.2946 4.90108 20.6867C4.20968 20.3758 3.55252 19.8932 3.07176 19.1719C2.58911 18.4478 2.32393 17.5424 2.32393 16.4537C2.32393 15.3669 2.58849 14.4705 3.08841 13.7698C3.58756 13.0702 4.26844 12.6397 4.9739 12.3921C6.34533 11.9108 7.90713 12.0813 8.908 12.3514L9.59023 12.5355ZM4.59054 14.8415C4.35636 15.1697 4.16917 15.6706 4.16917 16.4537C4.16917 17.2347 4.35575 17.7712 4.60719 18.1485C4.86053 18.5286 5.21983 18.8068 5.65781 19.0038C6.30148 19.2932 7.06962 19.3847 7.74498 19.3649L7.74499 13.994C7.04555 13.894 6.24333 13.9022 5.58499 14.1332C5.16107 14.282 4.8255 14.5121 4.59054 14.8415Z" fill="#686868"/>
</svg>
