<svg width="59" height="56" viewBox="0 0 59 56" fill="none" xmlns="http://www.w3.org/2000/svg">
<path fill-rule="evenodd" clip-rule="evenodd" d="M11.1309 0.34759C19.7142 -0.20258 28.3964 0.389227 36.9373 0.971399C39.9093 1.17398 42.8641 1.37539 45.7917 1.52711C48.8861 1.68748 51.9667 1.72567 55.0898 1.72567C55.6406 1.72567 56.1756 1.73421 56.6054 1.82261C57.0961 1.92352 57.7186 2.18684 58.0495 2.8922C58.2845 3.3929 58.2686 3.95711 58.2599 4.26598L58.2594 4.28328C58.2555 4.42429 58.2498 4.56007 58.2439 4.6999C58.232 4.97993 58.2195 5.2762 58.2195 5.66315C58.2195 12.7013 58.414 19.7288 58.6092 26.7782L58.6095 26.7871C58.8044 33.8273 59 40.8892 59 47.9681C59 49.893 58.9715 51.8096 58.7767 53.7784C58.7084 54.4687 58.4663 55.3273 57.5895 55.7558C57.2406 55.9262 56.8928 55.97 56.652 55.9868C56.4507 56.0009 56.2247 56.0003 56.0388 55.9998C56.0061 55.9997 55.9746 55.9996 55.9447 55.9996H52.7174C46.1603 55.9996 39.612 55.9311 33.0709 55.8626C23.5948 55.7634 14.1338 55.6643 4.68299 55.7741C4.44335 55.7769 4.13048 55.7637 3.87342 55.7528C3.74393 55.7473 3.6286 55.7425 3.54392 55.7405C3.2051 55.7328 2.97942 55.7489 2.8143 55.7906C2.71547 55.8156 2.54246 55.8578 2.35614 55.8706C2.17726 55.8829 1.78042 55.8854 1.39047 55.6202C0.975211 55.3379 0.828839 54.9344 0.774889 54.7056C0.724114 54.4904 0.720468 54.2854 0.720468 54.1654C0.720468 53.1264 0.693129 52.0739 0.665173 50.9977C0.637373 49.9275 0.60897 48.8342 0.60897 47.7427C0.60897 42.4044 0.457822 37.0511 0.30613 31.6785C0.0640685 23.1051 -0.17938 14.4827 0.187746 5.7941C0.187546 5.3476 0.182652 4.96318 0.178098 4.60553C0.17517 4.37562 0.172384 4.15677 0.171076 3.93962C0.167925 3.41627 0.173504 2.91459 0.226506 2.47884C0.278919 2.04793 0.392209 1.53689 0.70693 1.08307C1.0512 0.586629 1.52798 0.309727 2.02388 0.165328C2.47853 0.0329407 2.98335 0.00135511 3.48049 4.0843e-05C3.99055 -0.00130765 4.59856 0.0308919 5.29441 0.0734678C5.48537 0.085152 5.68516 0.0977661 5.89436 0.110974C7.21625 0.194433 8.91356 0.301595 11.1309 0.34759ZM2.8193 4.53274C2.82409 4.91689 2.82958 5.3575 2.82958 5.82242V5.85094L2.82837 5.87944C2.46205 14.5176 2.70182 22.9428 2.94334 31.4294C3.09672 36.819 3.2508 42.2333 3.2508 47.7427C3.2508 48.7934 3.27815 49.8519 3.3061 50.9278L3.30655 50.9451C3.32483 51.6488 3.34331 52.3602 3.35373 53.0719C3.44067 53.0716 3.52419 53.0727 3.60351 53.0745C3.81684 53.0794 3.97907 53.0871 4.12237 53.0938C4.30758 53.1026 4.46117 53.1098 4.65259 53.1076C14.1139 52.9977 23.6445 53.0972 33.1566 53.1965C39.6952 53.2648 46.225 53.333 52.7174 53.333H55.9447C55.9881 53.333 56.0276 53.3331 56.0645 53.3331C56.1 53.3332 56.1332 53.3333 56.1653 53.3332C56.331 51.5636 56.3582 49.8124 56.3582 47.9681C56.3582 40.9297 56.1636 33.902 55.9684 26.8527L55.9682 26.843C55.7732 19.8031 55.5777 12.7415 55.5777 5.66315C55.5777 5.2203 55.5946 4.81315 55.6072 4.51152C55.6088 4.47203 55.6104 4.43435 55.6118 4.39863C55.4744 4.39458 55.3033 4.39234 55.0898 4.39234C51.9482 4.39234 48.8163 4.35403 45.6562 4.19026C42.6332 4.03359 39.6191 3.82825 36.6127 3.62343C28.1039 3.04374 19.6569 2.46826 11.244 3.01238L11.1886 3.01597L11.1331 3.01485C8.82919 2.96829 7.05984 2.85651 5.72573 2.77222C5.51827 2.75911 5.32134 2.74667 5.13456 2.73524C4.43262 2.6923 3.90289 2.6656 3.48741 2.66669C3.17762 2.66751 2.98281 2.68458 2.863 2.70436C2.85825 2.73213 2.85336 2.76507 2.84865 2.80381C2.81857 3.05109 2.80969 3.39796 2.81286 3.92341C2.81394 4.10296 2.8165 4.30821 2.8193 4.53274ZM4.35254 5.80327C5.00975 5.42191 5.92057 5.37813 6.64745 5.95346L6.71042 6.0033L6.76696 6.06044C7.22808 6.52644 7.34008 7.14844 7.36989 7.5182C7.40464 7.94924 7.35718 8.41332 7.23562 8.83747C7.12084 9.23792 6.89481 9.75884 6.4507 10.1439C5.91942 10.6046 5.18381 10.7659 4.44931 10.469C3.48428 10.0789 3.25811 9.19492 3.21613 8.69791C3.19536 8.45216 3.20837 8.22317 3.21858 8.07484C3.22125 8.03614 3.22407 7.99874 3.22647 7.96689C3.22901 7.93332 3.23109 7.90573 3.23282 7.88042C3.23453 7.8555 3.23562 7.83691 3.23627 7.82244L3.23686 7.80642C3.23691 7.80438 3.23695 7.80206 3.23695 7.80206L3.23696 7.80099C3.23696 6.93329 3.68094 6.19299 4.35254 5.80327ZM54.9234 6.89064C55.1456 7.31743 55.2093 7.79729 55.2093 8.24217C55.2093 8.58534 55.1634 9.15512 54.7802 9.64667C54.341 10.21 53.7143 10.3643 53.207 10.3643C52.7618 10.3643 52.2794 10.2927 51.8513 10.0484C51.3773 9.77786 51.0458 9.3344 50.9386 8.79535C50.842 8.30957 50.9509 7.87155 51.0805 7.56097C51.2144 7.24023 51.4098 6.95718 51.6222 6.72752C51.8338 6.49863 52.1013 6.28059 52.413 6.1252C52.7123 5.976 53.1601 5.83309 53.6703 5.93164C54.2432 6.0423 54.6757 6.41492 54.9234 6.89064ZM22.9484 7.33605C23.511 7.3499 24.1548 7.36573 24.9202 7.36573H24.9628L25.0053 7.36851C26.926 7.49374 32.9485 7.54516 36.1503 7.5725C36.7112 7.57729 37.1856 7.58134 37.5361 7.58492C38.5986 7.59576 39.353 8.02777 39.9229 8.5902C40.182 8.84589 40.3993 9.12422 40.5769 9.35975C40.6339 9.43533 40.6862 9.50553 40.7359 9.57235C40.8559 9.73354 40.9612 9.87508 41.0832 10.0251C41.5718 10.6256 42.0628 11.2251 42.5544 11.8252C45.3495 15.2379 48.1624 18.6722 50.6517 22.4457C52.2586 24.8816 52.8007 26.6781 52.2476 28.5663C51.9997 29.4129 51.552 30.1938 51.0926 30.9457C50.9752 31.1377 50.8556 31.3303 50.7335 31.5266C50.3557 32.1345 49.9554 32.7785 49.533 33.5546C48.7784 34.9412 48.0428 36.3887 47.2965 37.8573C45.8192 40.7644 44.2995 43.7548 42.5057 46.5217C42.1632 47.0499 41.6676 47.3968 41.1922 47.6302C40.7114 47.8663 40.1701 48.0265 39.6271 48.1397C38.5431 48.3656 37.2728 48.4397 36.0615 48.4485C34.8387 48.4573 33.6159 48.3993 32.6104 48.3407C32.2934 48.3222 32.006 48.3043 31.7493 48.2883C31.155 48.2513 30.7252 48.2245 30.4736 48.2245C30.2166 48.2245 29.9623 48.2243 29.7104 48.2241C26.7311 48.2213 24.0824 48.2189 21.2414 48.6069C20.7235 48.6776 19.9033 48.7667 19.1152 48.6314C18.3463 48.4994 17.3338 48.093 16.8629 46.9838C13.1747 40.8688 9.48744 34.5408 6.07111 28.3263C5.66439 27.5864 5.7929 26.7745 5.91346 26.3114C6.04927 25.7898 6.28543 25.2943 6.5169 24.9434C7.15711 23.9729 7.81666 22.9967 8.47226 22.0264C8.92479 21.3566 9.37543 20.6896 9.81653 20.0292C10.4928 19.0168 11.2128 18.0497 11.922 17.1119C12.0534 16.9382 12.1842 16.7657 12.3143 16.5942C12.8929 15.8314 13.4579 15.0865 14.0028 14.3234C14.6614 13.4012 15.2111 12.6098 15.6835 11.9275C15.7382 11.8484 15.792 11.7707 15.8449 11.6942C16.2457 11.1149 16.5953 10.6098 16.9047 10.1796C17.5795 9.24133 18.1823 8.48087 18.9165 7.99514C19.7273 7.45883 20.5572 7.34144 21.4549 7.32019C21.8879 7.30994 22.382 7.32211 22.9252 7.33548L22.9484 7.33605ZM17.849 13.455C17.3745 14.1403 16.8159 14.9444 16.1459 15.8827C15.5766 16.68 14.9833 17.4621 14.4035 18.2265C14.2755 18.3952 14.1482 18.5631 14.0219 18.73C13.317 19.6621 12.637 20.5768 12.007 21.5199C11.5471 22.2086 11.0912 22.8833 10.638 23.5538C9.99291 24.5085 9.35341 25.4549 8.71584 26.4214C8.63682 26.5412 8.5261 26.7681 8.46853 26.9892C8.45169 27.0539 8.44327 27.1036 8.43933 27.1382C11.8355 33.3118 15.5033 39.6038 19.1758 45.6906L19.2428 45.8017L19.2852 45.9179C19.3135 45.9355 19.3936 45.9742 19.5581 46.0024C19.9228 46.065 20.4015 46.0306 20.8872 45.9643C23.914 45.5509 26.737 45.5541 29.6856 45.5573C29.9472 45.5576 30.2098 45.5579 30.4736 45.5579C30.8122 45.5579 31.3777 45.5931 32.027 45.6336C32.2634 45.6483 32.5109 45.6638 32.7627 45.6784C33.7511 45.7361 34.9064 45.79 36.0426 45.7819C37.1902 45.7736 38.2597 45.7018 39.0929 45.5281C39.5086 45.4415 39.8203 45.3384 40.0365 45.2323C40.242 45.1313 40.296 45.0601 40.296 45.0601L40.2952 45.0615C42.0179 42.4041 43.4187 39.6444 44.852 36.8207C45.6136 35.3201 46.3844 33.8016 47.2176 32.2707C47.6807 31.4198 48.1366 30.6864 48.5207 30.0687C48.6355 29.8841 48.7438 29.7098 48.844 29.5459C49.3007 28.7984 49.5757 28.2832 49.7142 27.8103C49.9341 27.0596 49.9043 26.124 48.4528 23.9237C46.0457 20.2748 43.3315 16.9602 40.5343 13.5443C40.039 12.9394 39.541 12.3312 39.0417 11.7175C38.8803 11.5192 38.7235 11.3085 38.593 11.1331C38.5506 11.076 38.5109 11.0227 38.4748 10.9748C38.3107 10.7572 38.1897 10.6091 38.0761 10.497C37.9005 10.3237 37.7714 10.2541 37.5094 10.2514C37.1757 10.248 36.7177 10.2442 36.1716 10.2395C33.0186 10.2128 26.9289 10.1612 24.8781 10.0324C24.0982 10.0318 23.441 10.0156 22.8894 10.0021L22.884 10.0019C22.3112 9.98782 21.8793 9.97754 21.5169 9.98612C20.8114 10.0028 20.5679 10.0911 20.3646 10.2255C20.0849 10.4106 19.7331 10.786 19.0426 11.7462C18.7484 12.1553 18.414 12.6384 18.0099 13.2224C17.9575 13.2982 17.9038 13.3757 17.849 13.455ZM8.43646 27.1921L8.4363 27.1894ZM7.78868 46.7193C7.63188 46.3987 7.37107 46.1758 7.11469 46.0526C6.80156 45.9021 6.50212 45.8927 6.31859 45.9037C5.93282 45.9268 5.56554 46.0699 5.26588 46.2548C4.63657 46.6432 4.03134 47.3904 3.96383 48.4752C3.93834 48.7409 3.93181 49.1735 4.03979 49.6C4.09659 49.8244 4.21216 50.1577 4.4706 50.4563C4.76602 50.7977 5.20881 51.0416 5.74545 51.0416C7.11672 51.0416 7.8008 49.9274 8.02707 49.1689C8.23394 48.4755 8.26144 47.4971 7.78868 46.7193ZM51.4824 48.2171C51.9572 47.3183 52.9558 46.845 53.9755 46.913L54.1452 46.9243L54.3066 46.9787C55.2585 47.2993 55.4362 48.229 55.4653 48.5925C55.5021 49.0525 55.4111 49.5259 55.2625 49.92C55.1219 50.2931 54.8537 50.7958 54.3717 51.1321C54.1106 51.3143 53.7627 51.4617 53.349 51.4649C52.9317 51.4681 52.5637 51.3235 52.2687 51.1171C51.8177 50.8016 51.4563 50.3562 51.3033 49.7957C51.1498 49.2334 51.2403 48.6755 51.4824 48.2171Z" fill="black"/>
</svg>
