<svg width="100" height="100" viewBox="0 0 100 100" fill="none" xmlns="http://www.w3.org/2000/svg">
<path fill-rule="evenodd" clip-rule="evenodd" d="M45.5979 19.5633C45.5975 19.5659 45.597 19.5687 45.5966 19.5714C45.5871 19.6351 45.5788 19.7026 45.5681 19.7925L45.5661 19.8096C45.5541 19.9095 45.5362 20.0598 45.5099 20.2022C45.1907 21.9264 44.9179 23.6327 44.7247 25.3538L44.7145 25.4448C44.7121 25.4667 44.7095 25.49 44.7069 25.5148C44.6621 25.9267 44.5765 26.7168 44.2774 27.3614C43.7805 28.4324 42.7828 29.0383 42.1815 29.3479C42.1016 29.389 42.0059 29.4439 41.8622 29.527L41.8397 29.5401C41.6329 29.6597 41.3361 29.8315 41.0237 29.9698C40.7097 30.1089 40.2494 30.2758 39.7255 30.2758C38.2577 30.2758 37.3608 29.4409 36.8272 28.9441C36.8063 28.9246 36.7859 28.9056 36.7661 28.8873C36.4904 28.6317 36.305 28.4643 36.0999 28.3297C35.5203 27.9495 34.9584 27.5541 34.4202 27.1751L34.4108 27.1686C33.4968 26.5251 32.6482 25.9292 31.7593 25.4173C31.7132 25.4343 31.6568 25.4571 31.5895 25.4874C31.2103 25.6582 30.7156 25.9627 30.1755 26.3512C29.0696 27.1466 28.0984 28.054 27.9004 28.2983C27.508 28.7824 27.0475 29.2052 26.6766 29.5458L26.6441 29.5757C25.9771 30.1884 25.5804 30.5776 25.3652 31.0157C25.3665 31.013 25.3662 31.0139 25.3648 31.0186C25.3587 31.0392 25.3306 31.1334 25.3115 31.3376C25.29 31.5664 25.2889 31.8128 25.2889 32.0783C25.2889 33.083 25.4538 33.669 25.9314 34.2569C26.0412 34.392 26.1546 34.529 26.2744 34.6737C26.3132 34.7204 26.3529 34.7683 26.3936 34.8172C27.4645 36.1051 29.1654 38.1509 28.6163 40.8832C28.5399 41.2629 28.4058 41.7523 28.1735 42.2181C27.954 42.6585 27.5513 43.2696 26.8416 43.603C26.0215 43.9883 25.1945 44.1313 24.5677 44.2396C24.548 44.243 24.5285 44.2463 24.5092 44.2498C23.9728 44.3427 23.575 44.4149 23.1994 44.5472L23.0281 44.6074C22.0928 44.9352 21.6583 45.1086 21.2416 45.5327C21.2176 45.5572 21.1574 45.6201 21.0699 45.9969C20.8734 46.8429 20.7238 47.7122 20.578 48.6187C20.3733 49.8922 20.3496 51.2198 20.3266 52.67L20.3264 52.6833C20.3175 53.2494 20.3082 53.8345 20.2853 54.4216C20.3253 54.4308 20.3695 54.4401 20.4182 54.4493C20.6011 54.4837 20.7933 54.5075 21.0136 54.5343L21.0207 54.5352C21.1157 54.5467 21.2218 54.5596 21.3217 54.5737C22.155 54.6907 23.0076 54.7196 23.953 54.7501L23.9728 54.7507C24.6574 54.7729 25.3923 54.7965 26.1317 54.865L26.1433 54.8661C26.1763 54.8691 26.2108 54.8722 26.246 54.8753C26.6724 54.9133 27.2492 54.9648 27.7666 55.2056C28.4148 55.5073 28.8229 56.0117 29.1638 56.5016C30.0647 57.796 30.5023 59.6719 30.7198 60.8299C30.8864 61.7171 31.0482 63.0879 30.0639 64.3234C29.4628 65.078 28.7342 65.6532 28.1545 66.1109L28.1064 66.1489C27.6999 66.4698 27.3639 66.7369 27.0656 67.0245C26.7787 67.3011 26.7176 67.4915 26.7001 67.5894C26.6801 67.7008 26.6861 67.8721 26.7937 68.1443C27.0392 68.7653 27.6021 69.4353 28.3069 70.2413L28.3921 70.3386C28.6838 70.6726 29.0169 70.9821 29.4198 71.354L29.4599 71.3911C29.9688 71.8606 30.5962 72.4396 31.1154 73.1566C31.2086 73.2855 31.3429 73.406 31.6557 73.6629L31.6825 73.6848C31.8094 73.789 31.9707 73.9212 32.1395 74.0784C32.5712 73.8036 33.0908 73.525 33.5841 73.2878C34.2464 72.9693 35.0195 72.6491 35.6253 72.509C35.6161 72.5112 35.6363 72.5069 35.6952 72.4845C35.7512 72.4631 35.8239 72.4324 35.9163 72.3899C36.1058 72.303 36.3251 72.1919 36.5924 72.0561L36.6396 72.0321C37.1458 71.7748 37.825 71.4297 38.4669 71.2202C38.8014 71.111 39.21 71.0093 39.638 71.0028C40.0722 70.9962 40.6463 71.0879 41.152 71.4997C41.152 71.4997 41.1539 71.5012 41.1591 71.5052L41.1796 71.5211C41.1891 71.5283 41.2001 71.5366 41.2125 71.5459C41.2235 71.5541 41.2357 71.5631 41.2491 71.5729C41.3064 71.6151 41.3791 71.6675 41.4646 71.7283C41.6354 71.8496 41.8464 71.9963 42.0672 72.1477C42.5158 72.4554 42.9725 72.7598 43.2002 72.9016L43.2423 72.9279L43.2828 72.957C43.9035 73.4039 44.2396 74.0881 44.4186 74.5168C44.6127 74.9815 44.7438 75.4582 44.8215 75.7406L44.8275 75.7625C44.8648 75.8981 44.8816 75.9573 44.8912 75.987C45.0472 76.4631 45.2835 76.9992 45.5358 77.5126C45.7139 77.8753 45.8421 78.2366 45.9392 78.5106L45.9487 78.537C46.0783 78.9028 46.1624 79.1295 46.2754 79.3325C46.8556 80.3745 47.3752 80.8184 47.8361 80.86C48.7715 80.9446 49.6587 80.9997 50.4929 80.9449C50.5479 80.9413 50.6166 80.9289 50.8082 80.8865C50.8177 80.8844 50.8276 80.8822 50.8381 80.8798C51.0187 80.8396 51.3396 80.7681 51.6921 80.7613C52.2455 80.7507 53.0093 80.5407 53.7725 80.2818C53.8521 80.2548 53.9349 80.2273 54.0158 80.2003C54.3759 80.0803 54.7214 79.9643 55.0352 79.83C55.3653 79.6888 55.5428 79.575 55.6146 79.5106C56.1568 79.0237 56.3274 78.2394 56.5278 76.7986L56.5296 76.7858C56.5704 76.4928 56.6151 76.1714 56.6708 75.8568C56.6969 75.709 56.7184 75.5544 56.7445 75.3658C56.7483 75.3374 56.7523 75.3079 56.7564 75.2776C56.842 74.6472 56.9832 73.607 57.6708 72.7071L57.6973 72.6724L57.7255 72.6356C58.1153 72.1248 58.5371 71.5724 59.3581 71.08C59.3659 71.074 59.3758 71.0664 59.3881 71.0569L59.4617 70.9998C59.5653 70.9192 59.7544 70.772 59.9453 70.6525C60.0439 70.5907 60.203 70.4977 60.3942 70.4273C60.5188 70.3815 61.0011 70.2083 61.5579 70.4207C61.8046 70.515 62.0439 70.649 62.1798 70.7253L62.2059 70.7398C62.3635 70.828 62.432 70.8644 62.4793 70.8844C63.096 71.1454 63.6776 71.5079 64.1376 71.7946L64.1776 71.8195C64.3782 71.9445 64.5578 72.0563 64.7327 72.1592C65.0565 72.3495 65.4047 72.5164 65.822 72.7151C65.9592 72.7804 66.1042 72.8495 66.2497 72.9205C66.7252 73.1528 67.2137 73.3644 67.6793 73.4828C68.1542 73.6035 68.4735 73.5928 68.6741 73.5265C69.3181 73.3135 69.9958 72.857 70.6876 72.2112C71.372 71.5724 71.9984 70.8167 72.5561 70.0945C73.311 69.1166 73.9359 67.8459 74.5667 66.5417C74.8199 66.0183 74.8895 65.6819 74.8903 65.0449C74.8812 65.0366 74.8721 65.028 74.8627 65.0194C74.6795 64.8487 74.5194 64.6672 74.4109 64.5439L74.3966 64.5276C74.1845 64.2871 74.1201 64.2267 74.0744 64.196C73.9284 64.098 73.7802 64.002 73.6199 63.8983L73.6106 63.8922C73.3833 63.745 73.1314 63.582 72.879 63.4054C71.9733 62.7717 71.4707 61.9697 71.2355 61.076C71.0354 60.3155 71.0427 59.5107 71.0483 58.89C71.0485 58.8619 71.0488 58.8342 71.049 58.8069C71.0501 58.6714 71.0511 58.5409 71.0511 58.4091C71.0511 56.9144 72.2826 56.11 72.9286 55.7612C73.6747 55.3583 74.5679 55.0735 75.1781 54.8788L75.2297 54.8623C75.6882 54.716 75.9137 54.6401 76.0114 54.5929C76.271 54.4675 76.5312 54.3661 76.7336 54.2873L76.7525 54.2799C76.9944 54.1856 77.1618 54.1193 77.3127 54.044C77.6348 53.8831 77.9981 53.5275 78.3988 53.0086C78.7817 52.5127 78.9721 51.766 79.2103 50.6739L79.2527 50.4803C79.5265 49.2357 79.724 47.9826 79.724 46.8155C79.724 46.7174 79.7262 46.6098 79.7282 46.5139L79.7284 46.5047C79.7323 46.3097 79.7359 46.1239 79.7309 45.9373C79.7263 45.7645 79.7146 45.6196 79.6963 45.5034C79.0376 45.2733 78.2547 45.1987 77.2301 45.116C77.1888 45.1126 77.1469 45.1092 77.1046 45.1059C75.8753 45.0075 74.2498 44.8775 72.8402 44.0166C72.0078 43.5083 71.5419 42.7637 71.255 42.046C70.9934 41.3914 70.8424 40.654 70.7157 40.0349L70.7023 39.9691C70.6146 39.5417 70.5321 39.1412 70.427 38.7405C70.1677 37.7525 70.4539 36.9086 70.8198 36.3046C71.1421 35.7726 71.5843 35.3338 71.8557 35.0645C71.8683 35.0521 71.8804 35.04 71.8922 35.0283C72.0005 34.9207 72.0798 34.8415 72.1467 34.77C72.1785 34.7361 72.2019 34.7098 72.2189 34.6895C72.2363 34.6691 72.2426 34.6601 72.2426 34.6601C72.3926 34.4471 72.5599 34.2201 72.7237 33.9978L72.7295 33.99C73.1448 33.4265 73.5584 32.8631 73.8899 32.3018C74.229 31.7277 74.396 31.2951 74.4342 31.0013C74.4266 30.9893 74.4159 30.9737 74.4016 30.9541C74.3587 30.895 74.2998 30.8227 74.2064 30.7134C73.8694 30.3193 73.5492 29.9152 73.2487 29.5361L73.2405 29.5258C72.8096 28.982 72.4176 28.4883 71.9994 28.0324C71.4883 27.475 70.9097 26.9824 70.2475 26.4215L70.2283 26.4052C69.733 25.9858 69.1886 25.5247 68.6723 25.0138C68.5267 24.8697 68.2711 24.7502 67.3657 24.8819C67.1707 24.9102 66.961 25.0118 66.4667 25.299L66.4464 25.3108C66.2411 25.4301 65.974 25.5854 65.688 25.7187C65.4137 25.8467 65.1445 25.9819 64.8568 26.1264C64.8276 26.1412 64.7981 26.156 64.7684 26.1709C63.6847 26.7162 62.3344 27.3956 60.6314 27.3956H60.5493C60.5293 27.3956 60.5089 27.3957 60.4878 27.3957C60.0153 27.3966 59.2455 27.398 58.527 27.1904C57.6944 26.9499 56.7842 26.3847 56.3687 25.2006C55.9542 24.0194 55.7585 22.7437 55.5912 21.6533L55.5814 21.5899C55.514 21.1502 55.4507 20.7386 55.3787 20.3413C55.356 20.2168 55.3384 20.1028 55.3247 20.0138L55.3238 20.0079C55.3087 19.9104 55.2993 19.8504 55.2902 19.802C55.2195 19.7704 55.1218 19.7318 54.9944 19.6882C54.6631 19.575 54.2283 19.4612 53.7506 19.3593C52.7662 19.1492 51.8129 19.0333 51.4566 19.0333H46.9376C46.9312 19.0337 46.8489 19.0393 46.6845 19.083C46.5255 19.1253 46.3396 19.1897 46.1509 19.2708C45.9616 19.3521 45.7914 19.4408 45.659 19.5235C45.6361 19.5379 45.6158 19.5512 45.5979 19.5633ZM31.9132 25.3713C31.9229 25.3697 31.9219 25.3706 31.9116 25.3715L31.9132 25.3713ZM44.9863 16.4774C45.5452 16.2373 46.2874 16 46.9376 16H51.4566C52.121 16 53.311 16.1659 54.3653 16.3909C54.907 16.5065 55.4655 16.6487 55.948 16.8136C56.1887 16.8959 56.4352 16.9922 56.662 17.105C56.868 17.2075 57.1566 17.3711 57.4036 17.6225C58.0892 18.3202 58.1997 19.0421 58.2696 19.4981C58.2717 19.5118 58.2737 19.5251 58.2758 19.5383C58.2901 19.6318 58.3024 19.7101 58.3172 19.792C58.3974 20.2339 58.4664 20.6836 58.5323 21.1126L58.5339 21.1229C58.7122 22.2849 58.872 23.2953 59.1835 24.1827C59.1886 24.1975 59.1928 24.2066 59.1953 24.2113C59.1932 24.2098 59.1921 24.2088 59.1921 24.2088L59.1942 24.2109C59.1957 24.2126 59.1973 24.2148 59.1973 24.2148C59.1973 24.2148 59.1973 24.2151 59.1953 24.2113C59.2065 24.2191 59.2478 24.2449 59.3448 24.2729C59.6207 24.3527 59.9915 24.3628 60.5466 24.3623L60.6314 24.3623C61.5827 24.3623 62.3599 23.9966 63.5313 23.408L63.5393 23.4039C63.8189 23.2635 64.1235 23.1104 64.4404 22.9626C64.5943 22.8908 64.754 22.7992 64.9824 22.6665C65.0019 22.6552 65.0219 22.6435 65.0426 22.6314C65.4577 22.3893 66.1295 21.9974 66.942 21.8792C67.9485 21.7329 69.5232 21.6199 70.7579 22.8416C71.1845 23.2638 71.6469 23.6563 72.1617 24.0925L72.1913 24.1175C72.8233 24.6528 73.5362 25.2566 74.1864 25.9656C74.6842 26.5085 75.1381 27.0812 75.5534 27.6054L75.5686 27.6244C75.8773 28.0139 76.1656 28.3774 76.463 28.7252C76.6561 28.9512 76.9496 29.2975 77.1536 29.7348C77.3843 30.2293 77.4738 30.7703 77.4004 31.3678C77.2869 32.2921 76.8651 33.1631 76.4525 33.8616C76.0355 34.5676 75.5367 35.2444 75.1401 35.7825L75.122 35.8071C74.9514 36.0385 74.8027 36.2404 74.6736 36.4239C74.4713 36.7111 74.1954 36.9846 74.0181 37.1603C74.0059 37.1726 73.994 37.1843 73.9827 37.1956C73.8315 37.3459 73.7079 37.4693 73.5958 37.5948C73.4853 37.7186 73.412 37.816 73.365 37.8936C73.3395 37.9356 73.3263 37.9643 73.3198 37.9809C73.3179 37.9739 73.3161 37.9667 73.3143 37.9596C73.3143 37.9596 73.3154 37.9666 73.3156 37.9752C73.3159 37.9865 73.3147 37.9949 73.3141 37.9978C73.3141 37.9978 73.3152 37.9926 73.3198 37.9809C73.4452 38.4616 73.541 38.929 73.6244 39.3359L73.6275 39.3513C73.7721 40.0564 73.8745 40.5322 74.0238 40.9055C74.1571 41.2391 74.2767 41.3541 74.3804 41.4174C75.1308 41.8757 76.0766 41.98 77.4671 42.0922C77.4993 42.0948 77.532 42.0975 77.5649 42.1001C78.6173 42.1846 79.9537 42.292 81.1739 42.8354C82.2517 43.3153 82.5393 44.4065 82.6333 44.9431C82.7374 45.5373 82.7241 46.1657 82.7166 46.5274L82.7157 46.5681C82.7135 46.6755 82.712 46.7525 82.712 46.8155C82.712 48.3022 82.4636 49.8014 82.1689 51.1413L82.1276 51.3298C82.1197 51.3665 82.1115 51.404 82.1031 51.4423C81.9001 52.378 81.5945 53.7865 80.7506 54.8796C80.2911 55.4749 79.5848 56.2898 78.6314 56.7658C78.3482 56.9072 78.063 57.0184 77.845 57.1032L77.8234 57.1116C77.6003 57.1987 77.4408 57.2617 77.2952 57.3319C76.9814 57.4835 76.5426 57.6232 76.1937 57.7343C76.1708 57.7417 76.1481 57.7489 76.1259 57.756C75.453 57.9707 74.8097 58.1811 74.3318 58.4392C74.1917 58.5148 74.098 58.5782 74.0384 58.6244C74.0388 58.554 74.0391 58.482 74.0391 58.4091C74.0391 58.5918 73.959 58.6953 73.959 58.6953L73.9607 58.6936C73.9733 58.6794 73.998 58.6558 74.0384 58.6244C74.0379 58.6957 74.0374 58.7652 74.0368 58.8325C74.0308 59.5683 74.0377 59.9721 74.1223 60.2933C74.1808 60.5156 74.2758 60.6987 74.5748 60.9079C74.7794 61.0511 74.9897 61.1875 75.2266 61.3408C75.3833 61.4423 75.5525 61.5517 75.7226 61.6659C76.1214 61.9337 76.4235 62.2777 76.595 62.4728C76.6048 62.4841 76.6143 62.4948 76.6233 62.5051C76.7494 62.6482 76.8179 62.7238 76.8818 62.7834C76.904 62.8041 76.9275 62.8253 76.9615 62.8558C76.9708 62.8642 76.9818 62.8738 76.9941 62.8845C77.2107 63.075 77.8483 63.6355 77.873 64.6378C77.9009 65.7763 77.8322 66.6725 77.2488 67.8787L77.237 67.903C76.6355 69.1466 75.8829 70.7025 74.9078 71.9655C74.3159 72.7322 73.5724 73.639 72.7102 74.4439C71.8555 75.2417 70.8105 76.01 69.5998 76.4105C68.6542 76.7233 67.7082 76.6172 66.9531 76.4252C66.189 76.2308 65.4828 75.9121 64.9541 75.6537C64.8242 75.5903 64.6926 75.5276 64.5532 75.4612L64.5296 75.45C64.1372 75.2632 63.6804 75.0458 63.2351 74.7839C63.0241 74.6598 62.8144 74.5291 62.6217 74.4091L62.6146 74.4046C62.1074 74.0887 61.711 73.8455 61.3297 73.6842C61.2411 73.6467 61.1539 73.605 61.0732 73.5639C61.1491 73.5095 61.2147 73.4579 61.2481 73.4318C61.2539 73.4271 61.2588 73.4233 61.2625 73.4203C61.391 73.3205 61.4655 73.2644 61.5137 73.2343L61.5148 73.2336C61.5236 73.2286 61.524 73.2278 61.5148 73.2336C61.5006 73.2414 61.465 73.2597 61.4121 73.2792C61.3736 73.2933 61.2993 73.3181 61.1977 73.3344C61.178 73.3376 61.1574 73.3405 61.1358 73.3428C61.0557 73.3516 60.938 73.3568 60.7974 73.3361C60.763 73.3311 60.7274 73.3245 60.6905 73.316C60.6317 73.3025 60.5701 73.2843 60.5064 73.26C60.5084 73.2609 60.5287 73.2693 60.575 73.2932C60.6169 73.3149 60.6626 73.3401 60.7235 73.3739L60.8977 73.6798C60.5767 73.8682 60.4509 74.0176 60.0585 74.5312L60.0317 74.5663C59.8745 74.7721 59.8063 75.0416 59.7036 75.7864L59.7019 75.7981C59.6776 75.9744 59.6489 76.1825 59.6117 76.3927C59.5668 76.6465 59.5293 76.9155 59.4864 77.2228C59.4796 77.2723 59.4726 77.3231 59.4654 77.3754C59.3002 78.5812 59.0393 80.4849 57.5943 81.7825C57.1573 82.175 56.6245 82.4417 56.1959 82.6251C55.7597 82.8117 55.3075 82.9624 54.9679 83.0755L54.9477 83.0823C54.9003 83.0981 54.8555 83.113 54.8124 83.1274C54.7806 83.1381 54.7497 83.1485 54.7196 83.1587C53.9576 83.4173 52.8056 83.7738 51.7485 83.7941C51.7173 83.7947 51.6651 83.8014 51.4447 83.8501L51.4202 83.8556C51.2575 83.8917 50.9851 83.9522 50.6857 83.9718C49.6112 84.0424 48.5344 83.9684 47.5708 83.8812C45.4661 83.6909 44.2731 81.9007 43.6742 80.825C43.4262 80.3795 43.2662 79.9284 43.15 79.6003L43.1375 79.565C43.0304 79.2631 42.9553 79.0565 42.8619 78.8664C42.5813 78.2954 42.2755 77.6146 42.0559 76.944C42.0201 76.8347 41.9834 76.7013 41.9551 76.5985L41.9497 76.5787C41.8672 76.2788 41.7807 75.9715 41.6677 75.7007C41.6126 75.569 41.5642 75.4782 41.5275 75.4222C41.5256 75.4194 41.5238 75.4166 41.5222 75.4141C41.564 75.4409 41.6025 75.4653 41.637 75.4867L42.4187 74.1942L41.5545 75.4314C41.5177 75.4049 41.5014 75.386 41.5014 75.386C41.5014 75.386 41.5088 75.3943 41.5222 75.4141C41.0266 75.097 40.0549 74.4366 39.5408 74.0616C39.5629 74.056 39.5831 74.0515 39.6013 74.0478C39.6563 74.0367 39.683 74.0357 39.683 74.0357C39.683 74.0357 39.6384 74.0367 39.5654 74.0161C39.4876 73.994 39.3848 73.9491 39.2826 73.8659C39.3414 73.9138 39.4306 73.9811 39.5408 74.0616C39.4958 74.0727 39.4428 74.0879 39.3814 74.108C38.9806 74.2387 38.4961 74.4809 37.9294 74.7687L37.9144 74.7764C37.6656 74.9027 37.3959 75.0397 37.1472 75.1538C36.9089 75.2632 36.5997 75.3946 36.2891 75.4665C36.0084 75.5314 35.4721 75.7362 34.8632 76.029C34.2608 76.3187 33.7448 76.6185 33.4924 76.8078C33.1189 77.0878 32.474 77.4856 31.6595 77.3384C30.918 77.2044 30.4514 76.6736 30.2586 76.4544L30.2575 76.4532C30.1538 76.3351 30.021 76.2219 29.7767 76.0213C29.7646 76.0113 29.7522 76.0012 29.7394 75.9907C29.4705 75.7704 29.05 75.4258 28.7077 74.953C28.3807 74.5013 27.962 74.1081 27.4096 73.5982L27.3861 73.5765C27.008 73.2275 26.5638 72.8175 26.1563 72.351L26.0724 72.255C26.0503 72.2297 26.0277 72.2039 26.0047 72.1777C25.3922 71.4781 24.4805 70.4369 24.0207 69.2742C23.7671 68.6326 23.6128 67.8697 23.7604 67.0463C23.9104 66.2096 24.3447 65.4646 25.0078 64.8252C25.4222 64.4257 25.8668 64.0746 26.2478 63.7737L26.2715 63.755C26.9036 63.2556 27.375 62.875 27.7407 62.4161C27.8096 62.3295 27.8391 62.2532 27.8514 62.1327C27.8674 61.9772 27.852 61.7568 27.7847 61.398C27.5671 60.2398 27.2146 58.9574 26.7235 58.2519C26.6068 58.0843 26.5349 57.999 26.4988 57.9599C26.546 57.9699 26.5441 57.9735 26.5211 57.9628C26.4964 57.9513 26.4799 57.9393 26.4733 57.934C26.4775 57.9379 26.4858 57.946 26.4988 57.9599C26.4832 57.9567 26.4623 57.9526 26.4351 57.9482C26.3125 57.9283 26.1536 57.9129 25.8721 57.8868L25.8605 57.8857C25.2166 57.8261 24.5628 57.8046 23.858 57.7819L23.8236 57.7807C22.9138 57.7513 21.9156 57.7192 20.9124 57.5783C20.8423 57.5684 20.762 57.5587 20.6585 57.5461C20.6401 57.5438 20.6207 57.5415 20.6006 57.5391C20.2097 57.4922 19.4994 57.4068 18.8856 57.1448C18.5445 56.9992 18.1208 56.7549 17.7864 56.3299C17.4246 55.87 17.2505 55.3027 17.2819 54.6956C17.3167 54.0242 17.3276 53.3401 17.339 52.6213L17.3398 52.5711C17.3619 51.1738 17.3861 49.6412 17.629 48.1301C17.7768 47.2112 17.9401 46.2552 18.1617 45.3009C18.2839 44.7745 18.5005 44.0273 19.1261 43.3906C20.0645 42.4356 21.1072 42.071 21.9718 41.7687C21.9991 41.7591 22.0262 41.7496 22.0531 41.7401L22.2198 41.6816C22.8485 41.4602 23.4718 41.3523 23.9655 41.2668L24.0064 41.2597C24.6376 41.1504 25.0803 41.0667 25.4815 40.8971C25.4626 40.9299 25.4518 40.9428 25.4518 40.9428C25.4535 40.9409 25.4952 40.8933 25.5868 40.8502C25.552 40.8666 25.5169 40.8821 25.4815 40.8971C25.489 40.8841 25.4978 40.868 25.5075 40.8485C25.5793 40.7044 25.6443 40.4972 25.6887 40.2768C25.9238 39.1067 25.2532 38.1541 23.9873 36.6256L23.9849 36.6226C23.8674 36.4809 23.7458 36.3339 23.6264 36.187C22.5648 34.8804 22.301 33.5205 22.301 32.0783V32.0604C22.3009 31.812 22.3009 31.4346 22.337 31.0501C22.3719 30.6781 22.4515 30.15 22.6913 29.6619C23.1822 28.6628 23.9933 27.919 24.5696 27.3904C24.5932 27.3688 24.6165 27.3475 24.6392 27.3266C25.048 26.9511 25.3534 26.6667 25.5931 26.3708C26.0381 25.8219 27.2575 24.7326 28.448 23.8763C29.0561 23.4389 29.7359 23.0038 30.3776 22.7148C30.6964 22.5712 31.0646 22.4364 31.4472 22.3751C31.8111 22.3168 32.3648 22.2967 32.9057 22.5943C34.0533 23.2256 35.1055 23.9663 36.0838 24.6551L36.1135 24.676C36.6612 25.0615 37.1863 25.4309 37.7214 25.7819C38.1529 26.065 38.5045 26.3909 38.7556 26.6239L38.7808 26.6473C39.0803 26.9248 39.2333 27.0589 39.3829 27.1479C39.4804 27.206 39.5651 27.2373 39.6913 27.242C39.6842 27.244 39.681 27.2449 39.681 27.2449C39.681 27.2449 39.6967 27.2426 39.7255 27.2426C39.7137 27.2426 39.7024 27.2424 39.6913 27.242C39.7098 27.2366 39.7541 27.2228 39.8286 27.1898C39.9816 27.122 40.15 27.0263 40.3832 26.8914L40.3976 26.8831C40.5226 26.8108 40.6786 26.7206 40.8299 26.6427C41.0441 26.5324 41.228 26.4168 41.3679 26.2997C41.5097 26.181 41.5601 26.0994 41.5742 26.0689C41.637 25.9335 41.6856 25.644 41.7453 25.1058L41.7559 25.0103C41.9597 23.1954 42.2453 21.4135 42.5733 19.642C42.5797 19.6075 42.5868 19.5535 42.6019 19.427C42.6028 19.4194 42.6038 19.4114 42.6048 19.4032C42.6236 19.2443 42.6556 18.9759 42.7209 18.7099C42.787 18.4414 42.9247 18.005 43.2617 17.6218C43.7225 17.0976 44.4387 16.7127 44.9863 16.4774ZM60.8977 73.6798L60.7235 73.3739C60.7363 73.3812 60.7501 73.3888 60.7644 73.3969L60.7851 73.4084C60.859 73.4499 60.9597 73.5062 61.0732 73.5639C61.0172 73.604 60.9557 73.6456 60.8977 73.6798ZM49.2157 38.5039C48.6763 38.4975 48.332 38.4993 48.0145 38.5673C47.765 38.6205 47.5067 38.7467 47.0383 38.9949L47.0267 39.001C46.8587 39.0901 46.6588 39.196 46.451 39.2944C44.0802 40.4181 42.2938 42.852 41.7516 45.5128C41.4377 47.0541 41.1823 48.4069 41.1823 49.8042C41.1823 50.8978 41.2173 51.6594 41.5006 52.39C41.7908 53.138 42.3536 53.9139 43.0079 54.7367C43.757 55.6785 44.7674 56.4337 45.9261 57.0372C46.1711 57.1647 46.4168 57.3093 46.6288 57.434L46.6442 57.4431C47.2911 57.8237 47.6664 58.0229 47.9662 58.0745C48.4934 58.1651 49.0445 58.1679 49.7445 58.167L49.9249 58.1669C50.9848 58.1669 51.9168 58.0532 52.8929 57.7778C54.0776 57.4436 55.269 57.0425 56.0824 56.5024C57.2969 55.696 58.1667 54.9669 58.8602 53.8753C59.6294 52.6644 60.238 51.2237 60.3879 49.9725C60.486 49.1527 60.5398 48.3954 60.5398 47.5927C60.5398 47.4755 60.5444 47.3586 60.5478 47.273L60.5482 47.2623C60.5511 47.1891 60.5532 47.1334 60.5542 47.0803C60.5551 47.0286 60.5547 46.9913 60.5534 46.9634C60.5532 46.957 60.5529 46.9513 60.5526 46.9465C60.5198 46.8635 60.462 46.7521 60.3427 46.5351L60.332 46.5158C60.248 46.363 60.1282 46.1455 60.0267 45.9127C59.3124 44.2756 58.2933 42.6882 57.0975 41.3804C57.0213 41.2971 56.945 41.2108 56.8766 41.1336L56.8725 41.1289C56.5037 40.7119 56.3234 40.534 56.1947 40.4634C55.8114 40.2529 55.4699 39.9561 55.2607 39.7743C55.2481 39.7633 55.2359 39.7528 55.2243 39.7426C55.0531 39.5942 54.9426 39.4999 54.8418 39.4272C54.7856 39.3866 54.7547 39.3697 54.7454 39.3647C54.4154 39.2611 54.0976 39.1461 53.8137 39.0434L53.8009 39.0387C53.4147 38.899 53.0879 38.7815 52.7676 38.6911C52.2055 38.682 51.6614 38.6369 51.1723 38.5964L51.1473 38.5944C50.5776 38.5471 50.08 38.5068 49.5891 38.5068C49.4601 38.5068 49.3328 38.5053 49.2157 38.5039ZM49.1989 35.4702C49.2163 35.4704 49.2336 35.4706 49.2506 35.4708C49.3705 35.4722 49.4805 35.4735 49.5891 35.4735C50.2121 35.4735 50.8216 35.524 51.3648 35.569L51.3903 35.5711C51.9629 35.6186 52.4669 35.6595 52.9673 35.6595H53.1513L53.3299 35.7049C53.857 35.8386 54.3539 36.0185 54.7776 36.1719L54.8043 36.1816C55.1059 36.2907 55.3727 36.3871 55.6404 36.4707C56.2954 36.6753 56.8365 37.1489 57.1094 37.3878C57.1292 37.4051 57.1476 37.4213 57.1647 37.436C57.4329 37.6685 57.5426 37.755 57.616 37.7952C58.2523 38.1445 58.7613 38.7225 59.0475 39.0476C59.0644 39.0668 59.0806 39.0851 59.0959 39.1024C59.1685 39.1846 59.2296 39.2535 59.2875 39.3169C60.7156 40.8788 61.915 42.7504 62.7587 44.6845C62.7989 44.7767 62.8543 44.8797 62.9515 45.0563C62.9571 45.0665 62.963 45.0771 62.969 45.0881C63.0829 45.2947 63.2649 45.6248 63.3896 45.9911C63.5723 46.527 63.5469 47.0918 63.5359 47.3356C63.5351 47.3534 63.5344 47.3694 63.5338 47.3836C63.5299 47.4827 63.5278 47.5422 63.5278 47.5927C63.5278 48.5407 63.4637 49.4224 63.354 50.3386C63.1322 52.1912 62.2925 54.0691 61.3713 55.5193C60.35 57.1269 59.0834 58.1342 57.718 59.0409C56.4759 59.8657 54.8743 60.3671 53.693 60.7004C52.4216 61.059 51.2167 61.2001 49.9249 61.2001L49.701 61.2003C49.0519 61.2012 48.2659 61.2024 47.4674 61.0652C46.577 60.9121 45.7521 60.4251 45.2241 60.1135C45.1973 60.0977 45.1712 60.0824 45.146 60.0675C44.9161 59.9322 44.7325 59.8247 44.5621 59.736C43.1445 58.9977 41.7635 58.0005 40.683 56.6422C40.035 55.8273 39.1968 54.7293 38.7204 53.5014C38.2066 52.1766 38.1943 50.8833 38.1943 49.8042C38.1943 48.0578 38.5149 46.4234 38.8256 44.8985C39.5414 41.3846 41.8869 38.1099 45.187 36.546C45.3297 36.4784 45.4755 36.4014 45.6559 36.3058C45.6729 36.2969 45.6902 36.2877 45.7078 36.2783C46.1128 36.0633 46.7099 35.7463 47.3987 35.5991C48.0667 35.4562 48.7179 35.4642 49.1989 35.4702Z" fill="black"/>
</svg>
