<svg width="100" height="100" viewBox="0 0 100 100" fill="none" xmlns="http://www.w3.org/2000/svg">
<path d="M31.0743 19.6055C34.6516 19.2812 38.4271 19.6855 41.3825 21.0835C43.0189 21.8576 45.0372 22.7659 46.7434 24.2075C47.894 25.1797 48.9214 26.6678 49.5222 27.4165C49.526 27.4104 49.5308 27.4049 49.5346 27.3988C49.741 27.0661 49.9889 26.653 50.2593 26.2455C50.8153 25.4081 51.5397 24.4723 52.6175 23.6514C53.5798 22.9186 54.7771 21.9475 56.5939 21.1817C58.4165 20.4134 60.7857 19.8766 64.1689 19.7956C67.1642 19.7239 70.6822 20.2398 73.8583 21.5799C77.0376 22.9214 79.9817 25.1396 81.6005 28.5316C84.4622 34.5282 85.4678 42.3301 82.3833 48.9646C79.65 54.8438 75.6409 59.6992 71.2498 64.0837C66.9076 68.4191 62.0035 72.4653 57.6666 76.4662C57.0443 77.0402 55.7776 78.3513 54.5077 79.2557C53.8613 79.7162 53.0868 80.1694 52.2569 80.3788C51.384 80.5989 50.3541 80.5644 49.4343 79.8929C47.5096 78.4879 45.8706 76.9991 44.8022 75.9953C42.6117 73.937 37.525 68.8194 33.7828 64.5723C26.0264 55.7696 17.0391 49.3504 15.7379 35.3556L15.7285 35.2481L15.7339 35.1404C15.861 32.6232 15.785 30.1427 17.2941 27.3682C18.3067 25.5067 19.4614 24.0383 21.308 22.7754C23.9006 21.0023 27.4962 19.9299 31.0743 19.6055ZM31.3467 22.608C28.1142 22.9011 25.0576 23.8628 23.0097 25.2634C21.648 26.1947 20.7862 27.2575 19.9424 28.8087C18.8496 30.8179 18.8818 32.4758 18.7493 35.1721C19.963 47.8299 27.8041 53.2276 36.0444 62.5794C39.7169 66.7473 44.736 71.7971 46.8657 73.7982C47.9017 74.7718 49.4357 76.1622 51.2114 77.4585C51.2189 77.4641 51.2612 77.5211 51.5193 77.456C51.821 77.3799 52.2382 77.1704 52.7584 76.8C53.8219 76.0426 54.7895 75.018 55.6221 74.2499C60.1553 70.068 64.8077 66.2559 69.1192 61.951C73.3817 57.6951 77.124 53.1272 79.6499 47.6942C82.2536 42.0941 81.4723 35.2609 78.88 29.8292C77.6702 27.2944 75.4104 25.5061 72.6867 24.3568C69.9599 23.2062 66.875 22.7468 64.2414 22.8098C61.1477 22.8839 59.1658 23.3695 57.764 23.9604C56.3568 24.5537 55.4553 25.2789 54.4441 26.049C53.7368 26.5877 53.2302 27.2227 52.7719 27.9132C52.5354 28.2696 52.3299 28.6096 52.0951 28.9879C51.8717 29.3479 51.6227 29.7397 51.3418 30.103C51.0682 30.4566 50.6402 30.8195 50.0311 30.9271C49.438 31.0319 48.9374 30.847 48.6079 30.6624C48.02 30.3332 47.526 29.7451 47.1839 29.32C46.3387 28.2702 45.6599 27.2392 44.7975 26.5105C43.4523 25.374 41.8305 24.6301 40.0937 23.8085C37.7733 22.7109 34.5799 22.3149 31.3467 22.608Z" fill="black"/>
</svg>
