<svg width="24" height="24" viewBox="0 0 24 24" fill="none" xmlns="http://www.w3.org/2000/svg">
<path fill-rule="evenodd" clip-rule="evenodd" d="M19.713 6.88518C19.8006 7.07861 19.881 7.25602 19.9492 7.39585C20.3892 8.29771 20.5743 9.40591 20.6851 10.6014C20.6997 10.7582 20.7192 10.9489 20.7412 11.164C20.7987 11.7266 20.8733 12.4558 20.9206 13.1791C20.9847 14.1585 21.0099 15.2528 20.8395 15.9909C20.6862 16.6544 20.557 17.1667 20.4263 17.5565C20.2979 17.9394 20.1453 18.2771 19.908 18.5362C19.6472 18.821 19.3447 18.947 19.0532 19.0192C18.8901 19.0595 18.6795 19.0924 18.475 19.1243C18.3786 19.1393 18.2835 19.1541 18.1953 19.1694C16.7068 19.4278 14.9534 19.1781 13.7069 18.5549C12.6432 18.023 11.5467 17.6029 10.2427 17.3437C9.47119 17.1903 8.58694 16.8274 7.86311 16.5054C7.63541 16.4042 7.41356 16.3022 7.21239 16.2096C7.22678 16.5354 7.24993 16.7982 7.28366 17.0151C7.34658 17.4196 7.43822 17.6061 7.53109 17.7239C7.89949 18.191 8.11444 18.4284 8.52274 18.7074C9.02494 19.0507 9.47974 19.2038 9.88841 19.3229C10.2552 19.43 10.4659 19.8141 10.3589 20.181C10.2519 20.5478 9.86779 20.7585 9.50089 20.6515C9.03746 20.5163 8.42074 20.3141 7.74184 19.85C7.16436 19.4553 6.84765 19.0922 6.44441 18.5808C6.15144 18.2093 5.99994 17.7663 5.91618 17.2278C5.85946 16.8632 5.83024 16.4291 5.81756 15.9078C5.15442 15.9237 4.3787 15.8308 3.67658 15.5151C3.15803 15.2819 2.66516 14.92 2.30459 14.379C1.9426 13.8359 1.74371 13.1569 1.74371 12.3403C1.74371 11.5253 1.94213 10.853 2.31708 10.3274C2.69144 9.80266 3.2021 9.47986 3.7312 9.29416C4.64757 8.97256 5.67727 9.03894 6.42184 9.20049C7.31349 8.77711 8.41234 8.38479 9.23951 8.09349C9.86824 7.87201 10.6863 7.55184 11.6171 7.18751C12.0113 7.03321 12.4257 6.871 12.8545 6.70502C13.5202 6.44736 14.147 6.15197 14.8503 5.82047L14.9128 5.791C15.6372 5.4496 16.4341 5.07604 17.3942 4.69366C17.8969 4.49341 18.3234 4.72732 18.5682 4.94569C18.8049 5.15678 18.9951 5.44933 19.1448 5.71465C19.3372 6.05585 19.5393 6.50194 19.713 6.88518ZM5.80952 10.4956C5.28493 10.4206 4.68326 10.4267 4.18952 10.6C3.87158 10.7116 3.61989 10.8842 3.44368 11.1312C3.26804 11.3774 3.12764 11.753 3.12764 12.3403C3.12764 12.9261 3.26758 13.3285 3.45617 13.6115C3.64617 13.8965 3.91564 14.1052 4.24412 14.2529C4.72688 14.47 5.30299 14.5386 5.80951 14.5238L5.80952 10.4956ZM7.19344 14.6807C7.27709 14.7174 7.36307 14.7563 7.44902 14.7954C7.54729 14.8403 7.64906 14.8871 7.75451 14.9357C7.96361 15.032 8.18704 15.1349 8.42554 15.241C9.14839 15.5625 9.90761 15.866 10.5125 15.9863C11.9613 16.2743 13.1753 16.7418 14.3258 17.3171C15.2937 17.801 16.7454 18.0165 17.9586 17.8058C18.1227 17.7773 18.2496 17.758 18.3549 17.7419C18.5064 17.7188 18.6129 17.7025 18.7206 17.6759C18.8484 17.6441 18.8707 17.6198 18.8863 17.6027L18.8874 17.6015C18.9267 17.5586 19.0047 17.443 19.1142 17.1164C19.2214 16.7967 19.3377 16.3431 19.491 15.6794C19.6094 15.167 19.6049 14.267 19.5396 13.2695C19.494 12.5732 19.4243 11.8915 19.3674 11.3347C19.3444 11.1101 19.3235 10.9059 19.3071 10.7292C19.1989 9.56206 19.0292 8.66634 18.7054 8.00266C18.5984 7.78336 18.5007 7.56631 18.4055 7.35476C18.2532 7.01637 18.1071 6.69196 17.9394 6.39457C17.8503 6.23657 17.7756 6.12658 17.7178 6.05515C16.8836 6.39411 16.1757 6.7258 15.5028 7.04287C15.4763 7.05536 15.4498 7.06783 15.4234 7.0803C14.7333 7.40559 14.0667 7.71984 13.3541 7.99569C12.9426 8.15491 12.5385 8.31309 12.1494 8.46541C11.206 8.83464 10.3517 9.16899 9.69926 9.39879C8.91634 9.67456 7.97201 10.0132 7.19344 10.3679V14.6807Z" fill="black"/>
<path d="M6.50128 15.15V9.9315C5.14602 9.56572 2.43549 9.53542 2.43549 12.3401C2.43549 15.1449 5.14602 15.382 6.50128 15.15Z" fill="black"/>
<path fill-rule="evenodd" clip-rule="evenodd" d="M7.19271 9.40161L7.1927 15.7336L6.6175 15.8321C5.85732 15.9622 4.68981 15.9709 3.67584 15.515C3.15729 15.2818 2.66442 14.9199 2.30385 14.3789C1.94187 13.8358 1.74298 13.1568 1.74298 12.3403C1.74298 11.5252 1.9414 10.8529 2.31634 10.3273C2.6907 9.80263 3.20136 9.47976 3.73046 9.29406C4.75903 8.93308 5.93038 9.06096 6.68103 9.26353L7.19271 9.40161ZM3.44294 11.1311C3.2673 11.3773 3.12691 11.7529 3.12691 12.3403C3.12691 12.926 3.26685 13.3284 3.45543 13.6114C3.64543 13.8964 3.91491 14.1051 4.24339 14.2528C4.72614 14.4699 5.30225 14.5385 5.80877 14.5237L5.80878 10.4955C5.2842 10.4205 4.68253 10.4266 4.18878 10.5999C3.87084 10.7115 3.61916 10.8841 3.44294 11.1311Z" fill="black"/>
<circle cx="21.2346" cy="7.51538" r="2.98462" fill="#EF3C3C" stroke="white"/>
</svg>
