<svg width="100" height="100" viewBox="0 0 100 100" fill="none" xmlns="http://www.w3.org/2000/svg">
<path d="M63.9148 16.5197C68.3569 16.3663 75.4794 16.2021 79.2786 16.3326C81.3511 16.4038 82.8455 16.5144 83.9282 16.7627C85.0638 17.0232 85.9283 17.476 86.5447 18.3503C86.9675 18.9503 87.087 19.6467 87.2666 21.4882C87.4606 23.4775 87.7224 27.0582 87.8684 31.1059C88.0143 35.1465 88.0445 39.5453 87.9307 42.4219C87.8204 45.2093 87.6453 46.7345 87.2604 47.7424C86.7554 49.0642 85.954 50.0729 84.6565 50.6018C83.7087 50.9882 82.8455 51.0179 82.0579 51.0665C81.4349 51.1049 80.7297 51.155 79.7975 51.3421C79.8005 51.4025 79.8021 51.4674 79.8065 51.5367C79.8313 51.9352 79.8735 52.3961 79.9186 52.9232C79.9628 53.4394 80.0088 54.0056 80.0379 54.5732C80.0937 55.6606 80.0999 56.94 79.8153 57.968C79.6701 58.4925 79.4117 59.0959 78.9162 59.5537C78.3754 60.0535 77.6939 60.2501 76.9817 60.1785C76.4976 60.1298 76.1044 59.914 75.8458 59.7437C75.5801 59.5687 75.3343 59.3577 75.155 59.2027C74.4555 58.5982 73.6281 57.8317 72.8582 57.1132C72.0758 56.3831 71.3595 55.709 70.8471 55.2547C69.3656 53.9408 67.4011 51.5029 64.1081 51.3831C63.8771 51.3747 63.631 51.3687 63.3718 51.3617V54.2891C63.3718 56.857 63.3721 61.7308 63.338 64.376C63.2894 68.1468 62.8522 70.0566 62.106 71.5206C61.7128 72.2918 61.0619 72.8852 60.4821 73.3307C59.8873 73.7877 59.2104 74.2034 58.6598 74.5477C58.1325 74.8774 57.6447 75.0427 56.801 75.1399C56.0353 75.2281 54.8662 75.2721 52.933 75.3252C49.3324 75.4241 42.1762 75.4848 38.4569 75.5739C35.2267 75.6512 34.5707 75.7316 34.3707 75.7759C34.3679 75.7777 34.3648 75.7804 34.3618 75.7824C34.2812 75.8369 34.1611 75.9277 33.9959 76.0636C33.6667 76.3344 33.2256 76.7312 32.6793 77.2489C31.5898 78.2814 30.1424 79.7369 28.4444 81.493C27.2617 82.7162 27.0253 82.9791 26.8349 83.1653C26.7928 83.2064 26.6808 83.3166 26.5411 83.4158C26.4047 83.5125 26.1154 83.6925 25.7141 83.7128C24.7286 83.7625 24.28 82.9104 24.1633 82.6653C23.3143 80.8815 23.005 78.9163 22.8618 77.2657C22.7897 76.4353 22.7571 75.6501 22.7273 74.9983C22.6997 74.3923 22.6733 73.9404 22.6321 73.6073C22.5987 73.5926 22.5516 73.5738 22.4861 73.5532C22.1012 73.4324 21.5086 73.3838 20.7172 73.3782C20.0289 73.3733 19.0721 73.4053 18.3607 73.3754C17.9811 73.3595 17.5774 73.3246 17.2025 73.2422C16.8494 73.1647 16.3793 73.0162 15.9811 72.6724C15.3326 72.1123 14.9534 71.3642 14.6743 70.6239C14.3991 69.8942 14.1592 68.9921 13.8935 68.0344C12.8651 64.3268 12.4852 61.4416 12.398 60.2716C12.3405 59.5003 12.3083 58.7831 12.2822 58.1831C12.2553 57.562 12.236 57.1083 12.2048 56.7967C12.1707 56.4567 12.1431 55.2759 12.1122 53.5982C12.0803 51.8691 12.044 49.5039 12.0018 46.7013C11.9837 45.4974 12.1023 44.6003 12.3552 43.8642C12.6145 43.1097 12.985 42.626 13.241 42.285L13.2508 42.272C14.0502 41.2069 15.4245 40.6988 16.5527 40.4153C17.7544 40.1133 19.0677 39.9767 20.1163 39.9013C20.85 39.8399 21.8376 39.7977 25.6704 39.7169L39.6525 39.3641C39.5382 37.9663 39.4488 36.6521 39.4264 35.3509C39.393 33.4172 39.308 29.9335 39.4931 27.4279C39.6301 25.5743 39.7256 23.7101 39.9649 22.2881C40.0856 21.5716 40.2591 20.8533 40.548 20.2461C40.8411 19.6304 41.3254 18.9834 42.1246 18.692C45.1777 17.5793 49.1286 17.103 52.9997 16.8661C56.8671 16.6294 60.8717 16.6248 63.9148 16.5197ZM25.7319 42.5774H25.7283C21.8682 42.6587 20.97 42.7002 20.3344 42.7534H20.3264L20.3193 42.7543C19.313 42.8262 18.1739 42.9498 17.1919 43.1966C16.13 43.4634 15.5828 43.797 15.4016 44.0383L15.3918 44.0513C15.1453 44.3798 15.0258 44.5496 14.9289 44.8317C14.8255 45.1325 14.7215 45.6563 14.7366 46.6566C14.7788 49.4607 14.8143 51.8194 14.8461 53.5424C14.862 54.4041 14.8766 55.1036 14.8906 55.6179C14.8976 55.8752 14.9047 56.0827 14.9111 56.2389C14.9143 56.3168 14.9173 56.3788 14.92 56.426C14.9213 56.4495 14.9226 56.4676 14.9235 56.481C14.9243 56.4916 14.9244 56.4987 14.9244 56.4987C14.9662 56.9155 14.9892 57.4728 15.0143 58.0528C15.0404 58.6537 15.0702 59.329 15.1238 60.0491C15.1959 61.0164 15.5411 63.7093 16.5197 67.2374C16.8067 68.2718 17.0022 69.0031 17.2177 69.5746C17.4027 70.065 17.5563 70.2943 17.6753 70.4173C17.6956 70.4235 17.7242 70.4345 17.7643 70.4433C17.9233 70.4782 18.1541 70.5045 18.4702 70.5178C19.1511 70.5464 19.836 70.5114 20.7359 70.5178C21.5326 70.5235 22.4758 70.5638 23.2722 70.8139C24.0368 71.054 24.9871 71.6077 25.2716 72.7953L25.3196 73.0421L25.3704 73.4583C25.4141 73.8944 25.4376 74.3828 25.4595 74.8625C25.49 75.5329 25.5193 76.2504 25.585 77.0068C25.6705 77.9923 25.8144 78.9884 26.0737 79.9241C26.2049 79.7878 26.3529 79.6329 26.5215 79.4585C28.2282 77.6935 29.7089 76.2043 30.8427 75.1296C31.4078 74.5941 31.9024 74.1467 32.3045 73.8158C32.5045 73.6512 32.6986 73.5012 32.8778 73.3801C33.0261 73.2798 33.2765 73.1201 33.5642 73.0374L33.768 72.9843C34.2782 72.8665 35.1229 72.7927 38.3936 72.7143C42.2821 72.6212 49.1723 72.567 52.8617 72.4657C54.835 72.4116 55.875 72.3694 56.5019 72.2971C57.0501 72.2339 57.1396 72.1651 57.256 72.0923C57.8487 71.7216 58.3962 71.3846 58.8628 71.0262C59.3441 70.6565 59.5924 70.3712 59.6925 70.1751C60.1392 69.2988 60.5571 67.9225 60.6032 64.3379C60.637 61.7168 60.637 56.8663 60.637 54.2891V51.3105C58.216 51.2777 55.4332 51.2572 53.2312 51.195C49.9589 51.1025 48.3064 50.9637 47.1722 50.735C46.5628 50.6121 45.5834 50.4748 44.7802 50.2573C43.9107 50.0218 42.9483 49.6314 42.1309 48.8383C40.8342 47.5803 40.1766 45.7818 39.9898 43.3847C39.9589 42.9876 39.9247 42.5999 39.8928 42.2198C34.2343 42.3648 28.8123 42.5041 25.7319 42.5774ZM79.1886 19.1911C75.4912 19.0641 68.453 19.2247 64.0048 19.3783C60.8221 19.4882 56.9969 19.4871 53.16 19.7219C49.3534 19.9548 45.7482 20.4134 43.0807 21.3737C43.0633 21.3974 43.0335 21.4424 42.9962 21.5208C42.8799 21.7653 42.7623 22.1697 42.6588 22.7844C42.4498 24.0258 42.3657 25.6617 42.219 27.6476C42.0465 29.9827 42.1257 33.2972 42.1603 35.2997C42.2007 37.6492 42.4674 39.9644 42.7158 43.1528C42.8705 45.1384 43.3732 46.1424 43.9906 46.7414C44.3431 47.0834 44.8173 47.3125 45.4657 47.4882C46.1803 47.6817 46.8011 47.7476 47.6895 47.9268C48.5787 48.106 50.027 48.2428 53.3051 48.3355C56.4591 48.4247 61.6024 48.4299 64.2033 48.5245C68.6999 48.6881 71.5668 52.1426 72.6161 53.0731C73.1627 53.5578 73.9172 54.2676 74.6787 54.9782C75.4527 55.7004 76.2433 56.4327 76.8972 56.9977C77.0086 57.0941 77.097 57.1674 77.1705 57.225C77.1755 57.2086 77.183 57.1917 77.1883 57.1728C77.3327 56.651 77.3618 55.8009 77.3067 54.7268C77.2803 54.2139 77.2384 53.6911 77.1945 53.1783C77.1515 52.676 77.1055 52.166 77.0779 51.7229C77.0513 51.2967 77.0339 50.8345 77.0725 50.4455C77.0911 50.2587 77.1316 49.9812 77.2488 49.7042C77.3655 49.4287 77.6662 48.9201 78.3055 48.7564L78.885 48.6167C80.1857 48.3254 81.1381 48.2575 81.8967 48.2107C82.7739 48.1566 83.1881 48.1296 83.6629 47.936C84.098 47.7588 84.4273 47.4485 84.7206 46.6808C84.9044 46.1992 85.0853 45.1658 85.1986 42.3036C85.3083 39.5299 85.2797 35.2128 85.1354 31.2138C84.9913 27.2219 84.7337 23.7023 84.5461 21.7787C84.4509 20.803 84.3805 20.3243 84.3279 20.0785C84.3218 20.0498 84.3154 20.0272 84.3111 20.0096C84.2148 19.8871 84.0184 19.7121 83.3425 19.5571C82.5356 19.372 81.2752 19.2628 79.1886 19.1911ZM64.417 42.0289C65.1721 42.0289 65.7844 42.6693 65.7844 43.4591V44.4126C65.7844 45.2025 65.1721 45.8428 64.417 45.8428C63.6619 45.8427 63.0496 45.2024 63.0496 44.4126V43.4591C63.0496 42.6693 63.6619 42.029 64.417 42.0289ZM60.0859 27.59C62.0283 25.8686 64.6243 25.0341 66.9096 25.4986C68.0718 25.7349 69.1699 26.3155 70.0085 27.3059C70.8489 28.2985 71.3532 29.6139 71.473 31.1869C71.5754 32.533 71.0118 33.5697 70.3317 34.3425C69.6907 35.0706 68.8325 35.6891 68.1489 36.1973C67.4032 36.7516 66.801 37.2182 66.3701 37.7328C65.9704 38.2103 65.7844 38.6527 65.7844 39.1685C65.7843 39.9584 65.1721 40.5987 64.417 40.5987C63.6619 40.5986 63.0496 39.9583 63.0496 39.1685C63.0496 37.7776 63.6064 36.6919 64.3129 35.8481C64.9883 35.0413 65.8566 34.3924 66.5651 33.8657C67.3357 33.2929 67.9167 32.8635 68.3198 32.4057C68.6834 31.9925 68.769 31.704 68.7471 31.4141C68.6666 30.3573 68.3474 29.658 67.961 29.2017C67.5729 28.7437 67.0408 28.4397 66.3879 28.3069C65.0425 28.0334 63.2678 28.5195 61.854 29.7725C60.8518 30.6607 60.1548 31.3793 59.7005 31.8964C59.2155 32.4485 59.0639 32.7066 59.0764 32.6813C58.7257 33.3808 57.8988 33.6506 57.2301 33.2837C56.5616 32.9167 56.3044 32.0519 56.6551 31.3526C56.818 31.028 57.1781 30.5407 57.6868 29.9615C58.227 29.3465 59.0077 28.5456 60.0859 27.59Z" fill="black"/>
</svg>
