<svg width="100" height="100" viewBox="0 0 100 100" fill="none" xmlns="http://www.w3.org/2000/svg">
<path d="M56.4561 18.0147L56.4551 18.0157C59.3244 18.0465 60.5533 18.0787 61.3032 18.1256C62.2775 18.1398 64.6277 18.118 67.3314 18.882C68.1474 19.1127 68.8372 19.3312 69.383 19.5623C69.8285 19.7509 70.3331 20.0089 70.7263 20.4089L70.8874 20.5901L71.0171 20.7633C71.1447 20.9495 71.2656 21.1802 71.363 21.499C71.4704 21.8509 71.5442 22.2924 71.6057 22.8674C71.7298 24.0299 71.8345 26.0583 71.9221 29.7411C72.021 33.9012 72.1523 40.2403 72.2827 46.2342C72.4163 46.2404 72.5513 46.2633 72.6846 46.3075C72.8481 46.3617 72.9346 46.3836 73.0462 46.4015C73.1834 46.4234 73.3865 46.443 73.787 46.4658C74.4785 46.5052 75.6546 46.5484 77.1091 46.7342L77.7499 46.8234L77.7793 46.8273L77.8097 46.8332C79.5649 47.1697 81.1812 47.4575 82.3445 47.7491C82.9206 47.8935 83.4869 48.0632 83.9412 48.2809C84.168 48.3896 84.4407 48.5446 84.683 48.77C84.8986 48.9706 85.1556 49.2903 85.2667 49.7374L85.3049 49.9373L85.3669 50.4226C85.5031 51.5637 85.5678 52.8706 85.3983 56.3634C85.2209 60.0188 84.8315 66.8245 84.5906 70.5089C84.3517 74.1627 84.2735 74.8556 83.9352 76.1181C83.5725 77.4718 83.285 78.5548 83.0922 79.3094C82.9953 79.6884 82.9249 79.9732 82.8819 80.1629C82.8677 80.2259 82.8584 80.2709 82.8524 80.3005C82.8047 80.8965 82.4099 81.4335 81.8099 81.6273C81.0163 81.8834 80.166 81.4428 79.9115 80.6431C79.8379 80.4116 79.839 80.2158 79.8388 80.1728C79.8385 80.0967 79.8431 80.0332 79.8466 79.9965C79.8539 79.9215 79.8652 79.8533 79.8732 79.8074C79.8902 79.7104 79.9143 79.5978 79.94 79.4846C79.9926 79.2529 80.0706 78.9358 80.169 78.5509C80.3668 77.7771 80.6584 76.6777 81.0208 75.325C81.2687 74.4002 81.3372 74.0063 81.579 70.3088C81.8188 66.6413 82.2061 59.8528 82.3828 56.2149C82.5369 53.038 82.4859 51.8351 82.3847 50.9246C82.2009 50.8603 81.9487 50.7843 81.6154 50.7008C80.5661 50.4377 79.1 50.1761 77.2753 49.8265C75.7073 49.5932 74.4524 49.5503 73.6161 49.5026C73.0582 49.4709 72.6957 49.4359 72.3514 49.364C72.4186 52.3806 72.4838 55.1833 72.5431 57.415C72.7368 64.7125 72.8585 65.7498 73.0747 66.973C73.3083 68.2955 73.6404 69.76 73.843 70.7198C74.0106 71.5138 74.2152 72.3719 74.4217 73.2358C74.6262 74.0901 74.8333 74.9562 74.9976 75.7299C75.1586 76.4883 75.2958 77.2369 75.3366 77.84C75.3562 78.1305 75.3621 78.4924 75.2914 78.8411C75.2356 79.1154 75.0256 79.8975 74.1968 80.2292C73.5954 80.4697 72.93 80.53 71.1143 80.5629C69.3994 80.5941 66.3126 80.6278 63.3647 80.7897C60.4192 80.9514 57.694 81.2329 56.1308 81.3817C55.3476 81.4564 54.8703 81.496 54.4545 81.5303C54.0418 81.5644 53.6979 81.5926 53.1683 81.6431C52.0559 81.7494 50.2322 81.9427 45.7409 81.9888C41.2794 82.0345 34.3608 81.9382 30.0803 81.7412C25.8105 81.5447 24.1186 81.2889 22.9025 80.9788C22.1177 80.7787 21.3493 80.5915 20.7074 80.3798C20.0656 80.168 19.3844 79.8813 18.8198 79.3975C17.691 78.4297 16.3696 76.6481 15.6883 73.8596C15.3076 72.301 15.0713 71.1743 14.968 66.8671C14.8729 62.8963 14.7198 55.4457 14.632 47.7729C14.5447 40.1422 14.4125 32.4214 14.5819 28.2202C14.6774 25.8525 14.774 24.1737 14.968 23.0199C15.1513 21.9307 15.4946 20.7852 16.55 20.1702L17.0118 19.9118C17.532 19.6382 18.2292 19.3379 19.1057 19.2009C20.2881 19.0161 21.1581 18.8892 26.1234 18.891C31.1253 18.8928 36.1573 18.6384 41.2318 18.3998C46.2919 18.162 51.3907 17.9401 56.4561 18.0147ZM56.4118 21.0554C51.4509 20.9825 46.4382 21.2005 41.3723 21.4386C36.3207 21.6761 31.2103 21.9346 26.1224 21.9327C21.2121 21.9309 20.5226 22.0579 19.5685 22.207C19.0063 22.2949 18.5727 22.5101 18.1418 22.7575C18.1037 22.8402 18.0238 23.0565 17.9443 23.5289C17.7885 24.4557 17.6958 25.9309 17.5984 28.344C17.4332 32.4413 17.5624 40.0387 17.6505 47.7382C17.7381 55.3956 17.8906 62.8328 17.9856 66.7938C18.0851 70.9446 18.3041 71.8424 18.6194 73.1328C19.1528 75.316 20.1404 76.5361 20.7752 77.0805C20.8926 77.1811 21.1317 77.3196 21.6467 77.4895C22.1621 77.6594 22.7907 77.813 23.6424 78.0301C24.5517 78.2619 25.9941 78.508 30.2179 78.7025C34.4323 78.8964 41.2932 78.9933 45.7094 78.9479C50.0954 78.903 51.8317 78.7157 52.8834 78.6153C53.4353 78.5625 53.7985 78.5332 54.2089 78.4995C54.6164 78.4658 55.0803 78.4269 55.8468 78.3539C57.3846 78.2074 60.18 77.9187 63.1996 77.7528C66.2169 77.5871 69.3744 77.5528 71.0593 77.5222C71.5759 77.5127 71.9632 77.4996 72.2561 77.4856C72.2081 77.1758 72.138 76.801 72.0459 76.3666C71.8914 75.6394 71.6942 74.8156 71.4867 73.9487C71.2817 73.0912 71.0679 72.1931 70.8904 71.3524C70.7012 70.4563 70.3487 68.8956 70.1032 67.5067C69.8403 66.0182 69.718 64.7447 69.5255 57.4962C69.3324 50.2233 69.0717 36.8421 68.9045 29.8134C68.8168 26.1259 68.7139 24.2144 68.6048 23.1932C68.5668 22.8374 68.5281 22.6262 68.5026 22.506C68.4449 22.4738 68.3526 22.4262 68.2137 22.3674C67.8474 22.2123 67.3054 22.0341 66.5158 21.8109C64.2198 21.1621 62.2284 21.1818 61.2344 21.1663L61.1971 21.1654L61.1598 21.1634C60.5104 21.1209 59.375 21.0882 56.4178 21.0564L56.4118 21.0554ZM26.375 62.1974C29.5173 62.1974 35.259 62.1968 40.6019 62.4727C45.9472 62.7488 50.7187 63.302 53.6694 63.5966C56.6071 63.8898 57.662 63.9187 58.7534 63.9491C59.5862 63.9724 60.2429 64.6714 60.2204 65.5105C60.1973 66.3502 59.503 67.0119 58.6699 66.9888C57.5143 66.9567 56.3875 66.9245 53.3717 66.6235C50.3688 66.3237 45.6999 65.7819 40.4476 65.5105C35.193 65.2392 29.5249 65.2392 26.375 65.2392H22.0889C21.2554 65.2392 20.5796 64.5584 20.5796 63.7183C20.5798 62.8786 21.2555 62.1974 22.0889 62.1974H26.375ZM28.575 49.8017C33.2207 49.8103 42.3424 49.8269 48.2426 50.0185C54.137 50.2101 56.571 50.5763 58.0037 50.7691C59.6956 50.9504 60.203 50.973 60.9996 51.0048C61.6533 51.0156 62.7869 51.0146 63.9778 51.0146C64.8111 51.0148 65.4868 51.696 65.4871 52.5355C65.487 53.3753 64.8112 54.0562 63.9778 54.0564C62.7932 54.0564 61.6197 54.0562 60.9357 54.0445H60.919L60.9013 54.0435C60.0286 54.0088 59.4599 53.9842 57.6774 53.793L57.6568 53.791L57.6371 53.7881C56.2702 53.6047 53.9503 53.247 48.1453 53.0584C42.301 52.8685 33.2306 52.852 28.5691 52.8435C23.9146 52.8349 23.7117 52.8346 23.5087 52.8346C22.6752 52.8345 21.9995 52.1536 21.9995 51.3137C21.9997 50.474 22.6754 49.7928 23.5087 49.7928C23.7153 49.7928 23.9225 49.7931 28.575 49.8017ZM23.2051 37.4149C23.7741 37.4149 24.3419 37.4152 27.1826 37.4415C30.0192 37.468 35.1495 37.5205 39.7402 37.7634C44.3303 38.0062 48.2374 38.4385 51.9224 38.7704C55.6223 39.1035 59.0764 39.3322 61.1047 39.4556C63.1512 39.58 63.5643 39.5839 64.0839 39.5546C64.9161 39.5076 65.6291 40.1497 65.6758 40.9883C65.7223 41.8269 65.0851 42.5454 64.2529 42.5924C63.531 42.633 62.9471 42.6145 60.9229 42.4914C58.8792 42.3671 55.3939 42.1369 51.6541 41.8003C47.8998 41.4622 44.0985 41.0401 39.582 40.8012C35.0653 40.5623 29.9967 40.5098 27.1552 40.4833C24.3182 40.4569 23.7607 40.4566 23.2051 40.4566C22.3717 40.4564 21.6959 39.7756 21.6959 38.9358C21.6959 38.0958 22.3717 37.415 23.2051 37.4149Z" fill="black"/>
</svg>
