<svg width="100" height="100" viewBox="0 0 100 100" fill="none" xmlns="http://www.w3.org/2000/svg">
<path d="M44.8223 19.2192C46.4825 18.2088 48.5154 18 50.4208 18C51.4091 18 52.4546 18.206 53.3895 18.5295C54.7854 19.0126 56.31 19.3923 57.5162 20.2536C58.6073 21.0328 59.9583 22.0685 60.7312 23.1846C61.0784 23.6859 61.4196 24.1503 61.6675 24.724C61.9828 25.4541 62.3875 26.4139 62.8377 27.0638C63.3502 27.8039 63.434 28.8832 63.6999 29.7362C63.9478 30.5312 64.0572 31.438 64.0572 32.2731C64.0572 33.7369 64.192 35.4784 63.6753 36.8665C63.0052 38.667 62.4212 40.4561 61.4826 42.162C61.1851 42.7028 60.5734 43.2903 60.1276 43.7138C59.4019 44.403 58.4813 44.7431 57.6209 45.2162C56.5913 45.7823 55.4477 46.0656 54.3381 46.4353C53.1459 46.8327 52.1074 46.8171 50.8643 46.8171C49.2503 46.8171 47.7173 46.7851 46.1527 46.5954C40.7068 45.9355 36.2824 41.5347 35.2941 36.1708C34.9772 34.4508 35.221 32.3782 35.5097 30.6783C35.718 29.4524 36.1111 28.3922 36.4521 27.1993C36.6148 26.63 36.8729 26.1149 37.2281 25.6415C37.5199 25.2524 37.6431 24.7414 37.9549 24.373C38.5809 23.6334 39.4152 23.1114 40.0674 22.4211C40.7351 21.7143 41.6975 20.8587 42.5434 20.383C43.2896 19.9633 44.0981 19.6599 44.8223 19.2192Z" stroke="black" stroke-width="3" stroke-linecap="round"/>
<path d="M41.8669 52.3425C44.4705 51.8647 46.6266 51.5723 49.2669 51.5723C51.1371 51.5723 53.2534 51.308 55.0497 51.8534C56.7894 52.3818 58.4934 53.0414 60.2199 53.5528C60.6062 53.6673 60.9032 53.9114 61.249 54.1031C61.6645 54.3333 62.1341 54.4437 62.5599 54.6532C63.5043 55.1177 64.4405 55.5861 65.4023 56.0164C66.7276 56.6092 67.9238 57.6276 68.8205 58.7611C69.8823 60.1032 71.0353 61.2374 71.8161 62.7955C72.4815 64.1236 73.297 65.3724 73.9662 66.7078C74.5095 67.7924 75.181 68.8082 75.7978 69.8499C76.9089 71.7264 78.9281 73.6215 78.9281 75.9445C78.9281 77.2608 78.8298 78.4763 78.0459 79.6061C77.6356 80.1977 77.0457 80.4018 76.4043 80.6636C75.5799 81.0002 74.7176 80.9444 73.8805 81.171C72.5595 81.5285 71.1815 81.5011 69.8252 81.5011H58.131C52.7821 81.5011 47.349 81.2429 42.014 81.6355C38.8581 81.8679 35.7406 81.9412 32.5741 81.9412C29.9225 81.9412 27.1677 82.1398 24.5309 81.8067C23.3444 81.6568 22.2722 81.301 21.4252 80.4558C20.8512 79.8831 21.1495 78.5382 21.1495 77.7722C21.1495 75.2898 21.6021 72.4957 22.4972 70.18C23.4964 67.5947 24.38 64.6945 26.3932 62.6856C27.2693 61.8113 27.8679 60.6226 28.5923 59.6169C29.6742 58.1149 31.3744 57.3128 32.7885 56.1936C34.0442 55.1998 35.3467 54.3917 36.8009 53.7179C38.3667 52.9924 40.1742 52.6532 41.8669 52.3425Z" stroke="black" stroke-width="3" stroke-linecap="round"/>
</svg>
