<svg width="100" height="100" viewBox="0 0 100 100" fill="none" xmlns="http://www.w3.org/2000/svg">
<path d="M42.6827 16.6148C45.4696 16.0524 48.4097 15.7232 51.3936 16.1568C52.627 16.3361 53.7904 16.7376 54.8125 17.0953C55.878 17.4681 56.7956 17.7945 57.7315 17.9664C59.5907 18.3075 61.4133 18.9057 63.043 19.3443C64.8051 19.8184 66.8964 21.0432 68.5762 22.4C70.914 23.6518 71.877 25.1095 72.8594 26.1802C73.9235 27.3398 75.0783 28.8951 75.9278 30.1148C76.9694 31.6104 77.3073 32.2839 78.293 33.566C78.9926 34.4759 79.3406 35.4161 79.5977 36.2427C79.8717 37.1238 80.0156 37.7521 80.3252 38.4625C81.1267 40.3005 82.3672 42.5521 82.9151 44.9136C83.442 47.1856 83.2393 48.8026 83.2393 50.7291C83.2393 51.7869 82.914 53.1312 82.7618 53.8707C82.47 55.2874 82.2263 56.9339 81.6543 58.5562C81.4548 59.122 81.3029 59.6794 81.0977 60.356C80.9031 60.9977 80.6708 61.7058 80.3399 62.3951C79.8056 63.5076 79.2045 64.6471 78.6807 65.6939C78.1281 66.7982 77.4777 67.8105 76.8399 68.7584C76.1859 69.7303 75.5719 70.5974 74.9961 71.5269C73.0118 74.7304 71.3132 76.2822 68.7881 78.7339C66.7406 80.7219 64.1232 81.7157 61.7032 82.3472C59.8177 82.8392 56.8307 83.5917 54.5596 83.4732C53.9095 83.4395 53.1349 83.6071 52.0137 83.8072C51.0382 83.9812 49.7337 84.1915 48.5284 83.8912C46.0791 83.281 43.4618 82.7036 40.9346 81.7427C40.266 81.4885 39.6094 81.2136 38.9795 80.9498C38.3422 80.6828 37.7305 80.4261 37.1153 80.191C35.0381 79.3969 33.2765 78.0868 31.71 77.0142C30.6402 76.2818 29.5554 75.6498 28.3584 74.8931C27.2004 74.161 26.0012 73.3489 24.9121 72.3599C23.4628 71.0435 22.1329 69.3068 21.0928 67.8003C19.1494 64.9852 17.8459 61.7401 17.1533 58.44C16.515 55.3978 16.7744 52.1219 16.7744 49.4097C16.7745 46.29 17.0601 43.2051 17.5489 40.1509C18.3612 35.0755 21.1241 31.2181 24.0205 27.6177C24.6657 26.8158 25.3905 26.0929 26.2227 25.4547C27.1782 24.7219 27.9736 23.9511 29.0049 23.0591C30.7189 21.5769 32.6859 20.4873 34.6455 19.6304C37.0744 18.5684 39.7395 17.2089 42.6827 16.6148ZM54.2735 20.0836C54.1923 20.3525 54.0835 20.6718 53.9385 20.9888C53.7683 21.3609 53.4937 21.8579 53.0596 22.2457C52.5946 22.6609 52.1083 23.0056 51.4766 23.2867C50.872 23.5555 50.2094 23.5575 49.8311 23.5484C49.6181 23.5433 49.4005 23.5289 49.2412 23.5201C49.0634 23.5102 48.9496 23.5067 48.8682 23.5084C48.3291 23.5197 47.797 23.5762 47.2705 23.6744C47.1912 23.7681 47.0594 23.9156 46.876 24.0523C46.5723 24.2786 46.2526 24.4014 46.1123 24.4566C45.9147 24.5344 45.9182 24.5357 45.9307 24.5279C45.303 24.9203 44.7555 25.2463 44.2266 25.6168C44.13 25.6844 44.0494 25.7529 43.8682 25.8951C43.7449 25.9918 43.5735 26.1213 43.375 26.2447C43.3696 26.2523 43.3634 26.2611 43.3565 26.271C43.3354 26.3012 43.3139 26.3328 43.2842 26.3765C43.257 26.4165 43.2216 26.4679 43.1846 26.5201C43.114 26.6197 43.0044 26.7685 42.8623 26.9136C42.5151 27.2684 42.2101 27.6359 41.8086 28.0923C41.431 28.5217 40.9898 29.0028 40.4688 29.4332C40.2235 29.6358 40.0063 29.889 39.6602 30.2828C39.3516 30.6339 38.9286 31.1089 38.3858 31.4898C37.7664 31.9243 37.0968 32.1315 36.6299 32.2701C36.0948 32.4289 35.8103 32.5063 35.5557 32.6421C35.1487 32.8593 34.7506 32.9045 34.5215 32.9205C34.4044 32.9286 34.2904 32.9307 34.2227 32.9322C34.1418 32.934 34.1061 32.9351 34.0811 32.9371C33.4631 32.9852 32.7842 33.0378 32.1065 33.0494C31.8559 33.0537 31.6106 33.0591 31.3731 33.0679C31.6084 33.1234 31.9074 33.1396 32.3467 33.1275C32.8668 33.1131 33.7627 33.0408 34.6133 33.2144C35.7602 33.4489 36.6033 34.128 37.1914 34.7056C37.6918 35.1972 38.0614 35.7665 38.3457 36.2232C38.6044 36.6388 38.79 36.9513 38.9864 37.2281C38.9975 37.228 39.0101 37.2282 39.0225 37.2281C39.0785 37.2276 39.1573 37.2271 39.2334 37.2271C40.0713 37.2271 40.7692 37.2134 41.2989 37.066C41.8796 36.9042 42.9207 36.5517 44.0147 36.6646C44.7731 36.7431 45.372 37.1015 45.7784 37.4C46.1516 37.6742 46.5671 38.0648 46.7422 38.2154C47.1541 38.5694 47.4913 38.9701 47.7539 39.2886C48.0414 39.6372 48.2391 39.8849 48.459 40.1041C49.7703 41.4103 51.2844 42.1456 53.2032 42.6656C54.4573 43.0054 55.8475 43.4856 57.0811 44.2964L57.3262 44.4634L57.5244 44.6158C58.4703 45.4121 58.769 46.6793 58.6172 47.6636C58.432 48.8645 58.1979 50.0454 57.8711 51.2457C57.6039 52.227 57.3303 53.4258 56.918 54.5474C56.5587 55.5245 56.1141 56.3582 55.6914 57.1539L55.67 57.1939C55.379 57.7419 55.1746 58.3635 54.9346 59.1177C54.7975 59.5487 54.7173 59.9709 54.5762 60.5728C54.4475 61.1218 54.2738 61.7832 53.9561 62.4234C53.9 62.5363 53.8456 62.6557 53.7764 62.8072C53.7115 62.9494 53.6329 63.1202 53.545 63.2925C53.3696 63.6362 53.1186 64.0637 52.7295 64.4459C52.0838 65.0801 51.4787 65.6991 50.8897 66.3531C50.5856 66.6908 50.3542 67.1087 50.1202 67.6587C50.0016 67.9374 49.8937 68.2221 49.7676 68.5484C49.6503 68.852 49.5179 69.1858 49.3672 69.522C49.3661 69.5284 49.364 69.5389 49.3623 69.5533C49.3557 69.6119 49.3529 69.7014 49.3575 69.8345C49.3621 69.9704 49.3729 70.1087 49.3858 70.2876C49.3973 70.449 49.4121 70.6591 49.4121 70.8638C49.4122 71.123 49.459 71.8717 49.3994 72.4273C49.3328 73.0482 48.9895 73.6046 48.7256 73.9419C48.5719 74.1384 48.3833 74.3393 48.1661 74.5142C47.9635 74.6771 47.6514 74.8855 47.251 74.9839C46.9634 75.0545 46.701 75.0493 46.5811 75.0455C46.5159 75.0434 46.4459 75.0393 46.4141 75.0376C46.3796 75.0359 46.364 75.0349 46.3614 75.0347C45.4187 75.0346 44.7584 74.5376 44.3604 74.064C43.9923 73.6257 43.7678 73.1176 43.6426 72.8248C43.5207 72.5395 43.4629 72.3835 43.3702 72.1939C43.2989 72.0483 43.2558 71.9919 43.2481 71.982C42.9026 71.6425 42.6285 71.1624 42.5049 70.9244C42.2504 70.4339 41.8963 69.7816 41.6397 69.1392C41.5106 68.8162 41.3539 68.5073 41.1534 68.0884C40.9675 67.7003 40.7515 67.2302 40.5957 66.7203C40.3372 65.8737 40.267 65.0174 40.252 64.2535C40.2386 63.5741 40.2744 62.662 40.2744 62.1314C40.2743 61.9492 40.1778 61.6496 39.7959 61.1685C39.3855 60.6517 38.9699 60.2919 38.4229 59.7085C37.3094 58.521 36.4554 57.2695 35.9786 55.5669C35.5503 54.0373 35.3753 52.4822 35.1895 51.0855C35.1338 50.6666 35.0956 50.1645 35.0567 49.7437C35.015 49.2923 34.9667 48.868 34.8907 48.4761C34.7267 47.6321 34.4889 47.2651 34.2793 47.1187C33.3539 46.4736 31.9717 45.68 30.9834 44.3785C30.6115 43.8887 30.2251 43.434 29.7813 42.8853C29.3575 42.3613 28.9071 41.7812 28.5166 41.1519C28.1186 40.5103 27.9864 40.2533 27.7793 40.0816C27.4885 39.8408 27.1253 39.6435 26.6211 39.4029C25.9549 39.0853 25.0332 39.2911 23.709 39.858C23.0571 40.1371 22.5108 40.3535 21.9688 40.6197C21.6119 40.7949 21.2507 40.9406 20.8975 41.025C20.7635 41.0569 20.6078 41.0831 20.4395 41.0962C20.0171 43.863 19.7745 46.631 19.7744 49.4097C19.7744 52.4714 19.5356 55.1867 20.0889 57.8238C20.7095 60.7806 21.8704 63.6465 23.5616 66.0962C24.5586 67.5404 25.7344 69.0544 26.9287 70.1392C27.8225 70.9508 28.846 71.6521 29.961 72.357C31.0368 73.0371 32.2796 73.7686 33.4043 74.5386C35.1189 75.7126 36.5252 76.7541 38.1866 77.3892C38.8538 77.6443 39.5099 77.9197 40.1387 78.1832C40.775 78.4497 41.3866 78.7054 42.001 78.939C44.3136 79.8183 46.6915 80.3416 49.2539 80.98C49.7539 81.1045 50.4523 81.0387 51.4873 80.8541C52.3762 80.6954 53.6229 80.4213 54.7159 80.4781C56.435 80.5678 58.9494 79.9657 60.9453 79.4449C63.1795 78.8619 65.2018 78.0345 66.6983 76.5816C69.2505 74.1035 70.6837 72.7909 72.4453 69.9468C73.0606 68.9536 73.7476 67.9797 74.3506 67.0835C74.97 66.1631 75.5337 65.279 75.9981 64.3511C76.0143 64.3188 76.0308 64.2866 76.0469 64.2544C76.0035 64.231 75.9592 64.21 75.918 64.1861C75.2873 63.8188 74.7199 63.2588 74.2832 62.7173C73.8427 62.1709 73.4417 61.5253 73.2061 60.9029C72.7546 59.7097 72.5935 58.4835 72.4698 57.4205C72.3397 56.3027 72.2494 55.3766 71.9981 54.4947C71.9831 54.4422 71.9681 54.3861 71.9551 54.3394C71.9414 54.29 71.9278 54.2443 71.9151 54.2007C71.8895 54.1128 71.8679 54.0428 71.8467 53.9859C71.8348 53.9541 71.8227 53.9313 71.8155 53.9156C71.7736 53.8756 71.7183 53.823 71.6319 53.7437C71.527 53.6474 71.3842 53.5153 71.2452 53.3697C71.0114 53.1248 70.553 52.6088 70.4346 51.8863C70.319 51.1793 70.3193 50.4601 70.3389 49.8335C70.3605 49.1442 70.3984 48.6495 70.3985 48.1041C70.3985 47.9577 70.3901 47.587 70.4297 47.231C70.4566 46.99 70.5227 46.5588 70.7559 46.1363C70.7557 45.8726 70.754 45.747 70.7403 45.6402C70.73 45.561 70.7143 45.4996 70.6748 45.4175C70.4619 44.9755 70.3168 44.7099 70.1133 44.4576C70.0593 44.3906 70.0043 44.3211 69.959 44.2632C69.9112 44.2021 69.8699 44.1486 69.8291 44.0982C69.7947 44.0557 69.7632 44.0196 69.7364 43.9888C69.7336 43.9901 69.7304 43.9914 69.7276 43.9927C69.6414 44.0315 69.5537 44.0766 69.42 44.1441C69.2993 44.205 69.1374 44.2859 68.9639 44.3599C68.7762 44.44 68.5809 44.5363 68.3467 44.6539C68.1253 44.7651 67.8585 44.9006 67.586 45.023C67.0379 45.2691 66.3312 45.527 65.5059 45.5357C64.6177 45.545 63.3354 45.5333 62.1553 44.8824C61.5445 44.5452 61.2319 43.9945 61.085 43.7085C61.0031 43.549 60.9322 43.3877 60.8858 43.2828C60.8311 43.159 60.8047 43.1023 60.7852 43.066C60.6055 42.7317 60.4894 42.6493 60.3174 42.5816C59.7171 42.3453 59.0363 42.0522 58.3741 41.5767C57.7824 41.1517 57.4855 40.558 57.3262 40.1168C57.1649 39.6695 57.0887 39.2152 57.042 38.9166C56.7695 37.1711 57.0257 35.2049 57.2295 33.7515C57.4493 32.1842 58.3449 30.5976 60.1651 30.0074C60.6603 29.8469 61.176 29.8311 61.5088 29.8277C61.944 29.8232 62.1153 29.8366 62.3321 29.8209C62.7451 29.7908 63.0175 29.6762 63.1631 29.5543C63.965 28.8816 64.9934 28.1981 65.9297 27.7251C67.1604 27.1036 68.2458 27.6719 68.7051 27.9058C68.7402 27.9236 68.8618 27.9654 69.1944 27.9654C69.3541 27.9654 69.524 27.9573 69.7354 27.9459C69.9201 27.9358 70.149 27.9239 70.377 27.9224C70.3824 27.9223 70.3882 27.9216 70.3936 27.9214C69.3194 26.7125 68.7571 25.8707 67.0518 24.9849L66.9121 24.9127L66.7911 24.814C65.2811 23.5745 63.5106 22.5763 62.2637 22.2408C60.412 21.7425 58.8926 21.2298 57.1905 20.9175C56.1564 20.7278 55.1649 20.3948 54.2735 20.0836ZM50.9619 19.1256C48.9234 18.8293 46.8476 18.9528 44.7266 19.2945C44.5201 19.5185 44.2452 19.6836 43.9239 19.7486C41.3899 20.26 39.1544 21.4087 36.4942 22.5718C34.7026 23.3552 33.0255 24.3006 31.6143 25.5211C30.7411 26.2763 29.7383 27.228 28.6953 28.0279C28.0683 28.5088 27.5125 29.06 27.0049 29.691C26.246 30.6344 23.9601 33.7899 22.4727 36.3873C22.2799 36.7239 22.103 37.0444 21.9483 37.3443C22.151 37.2589 22.3467 37.1775 22.5274 37.1001C23.7326 36.5841 25.8816 35.7259 27.9131 36.6949C28.4447 36.9485 29.0974 37.2775 29.6934 37.771C30.389 38.3475 30.8588 39.236 31.0664 39.5709C31.3553 40.0364 31.7091 40.4989 32.1133 40.9986C32.4974 41.4735 32.9652 42.0269 33.3731 42.564C33.9893 43.3755 34.7647 43.7991 35.9952 44.6568C37.205 45.5004 37.6362 46.8756 37.836 47.9039C37.9416 48.4481 38.0002 48.9941 38.044 49.4673C38.0906 49.9712 38.118 50.3505 38.1631 50.69C38.3613 52.1798 38.5099 53.481 38.8672 54.7574C39.1771 55.8641 39.7198 56.7059 40.6114 57.6568C40.9292 57.9957 41.6431 58.6718 42.1446 59.3033C42.674 59.9701 43.2743 60.934 43.2744 62.1314C43.2744 62.957 43.2376 63.4662 43.252 64.1949C43.2647 64.8387 43.3231 65.3799 43.4649 65.8443C43.5502 66.1236 43.6812 66.4214 43.8594 66.7935C44.0229 67.1349 44.2483 67.5825 44.4258 68.0269C44.6123 68.4935 44.8713 68.9708 45.168 69.5425C45.2003 69.6048 45.2471 69.6873 45.2959 69.7613C45.3197 69.7972 45.3405 69.8252 45.3545 69.8433C45.3606 69.8511 45.3653 69.857 45.3653 69.857L45.4756 69.9722C45.7533 70.2815 45.9399 70.619 46.0655 70.8755C46.202 71.1547 46.336 71.4953 46.4004 71.646C46.4101 71.6687 46.4204 71.6912 46.4297 71.7125C46.4259 71.5061 46.4122 71.2667 46.4121 70.8638C46.4121 70.781 46.4058 70.6722 46.3936 70.5025C46.3827 70.3504 46.3665 70.1431 46.3594 69.9371C46.3467 69.5643 46.3458 68.926 46.6182 68.3238L46.794 67.9126C46.8516 67.7707 46.9094 67.6226 46.9698 67.4664C47.0862 67.1651 47.2161 66.8207 47.3594 66.4839C47.6491 65.803 48.0356 65.0389 48.6602 64.3453C49.3035 63.631 49.9554 62.9658 50.628 62.3052C50.6858 62.2483 50.763 62.145 50.8731 61.9293C50.9279 61.8218 50.9817 61.705 51.0479 61.5601C51.1098 61.4245 51.1863 61.2562 51.2686 61.0904C51.4252 60.7749 51.5376 60.3934 51.6563 59.8873C51.7626 59.434 51.8921 58.7874 52.0762 58.2085C52.3048 57.4901 52.5824 56.6107 53.0205 55.7857L53.042 55.7466C53.4764 54.9289 53.8244 54.2688 54.1026 53.5123C54.4552 52.553 54.6626 51.611 54.9766 50.4576C55.267 49.3908 55.479 48.3241 55.6514 47.2066C55.6547 47.1853 55.6567 47.1503 55.6524 47.107C55.648 47.0639 55.6384 47.0209 55.625 46.9839C55.6104 46.9435 55.5961 46.9205 55.5889 46.9107L55.5948 46.9136L55.2588 46.6929C54.4518 46.1995 53.4805 45.8488 52.419 45.5611C50.1653 44.9504 48.1298 44.0102 46.3418 42.2291C45.9901 41.8786 45.6738 41.4811 45.4395 41.1968C45.1805 40.8828 44.9851 40.6611 44.7871 40.4908C44.6504 40.3733 44.4615 40.2019 44.3536 40.107C44.2201 39.9896 44.1065 39.8947 44.002 39.8179C43.8051 39.6734 43.7165 39.6514 43.7061 39.649C43.3145 39.6087 42.9301 39.7264 42.1036 39.9566C41.107 40.2341 39.9802 40.2271 39.2334 40.2271C39.0905 40.2271 38.615 40.2488 38.2061 40.1646C37.6542 40.0507 37.149 39.7615 36.7471 39.2457C36.3706 38.7619 36.041 38.1981 35.7989 37.8091C35.527 37.3724 35.3152 37.0686 35.0889 36.8462C34.6555 36.4206 34.3202 36.2157 34.0137 36.1529C33.5998 36.0684 33.1958 36.1054 32.4297 36.1265C31.7574 36.1451 30.8208 36.1423 29.878 35.7144C29.4879 35.5373 28.9448 35.277 28.4532 34.9068C27.9594 34.5348 27.4007 33.9649 27.1524 33.1294C27.0762 32.873 26.9001 32.2457 27.167 31.5923C27.4841 30.8167 28.1732 30.5337 28.5791 30.4224L29.0284 30.314C30.0836 30.0907 31.1854 30.0652 32.0557 30.0503C32.6285 30.0405 33.2191 29.9958 33.8477 29.9468C33.9679 29.9375 34.0848 29.9347 34.1553 29.9332C34.2098 29.9319 34.2465 29.9304 34.2744 29.9293C34.8285 29.6564 35.4151 29.5014 35.7764 29.3941C36.2348 29.258 36.4812 29.1614 36.6631 29.0337C36.8784 28.8826 37.0904 28.6617 37.4063 28.3023C37.6849 27.9852 38.0835 27.5114 38.5577 27.1197C38.887 26.8477 39.2 26.5152 39.5557 26.1109C39.8047 25.8278 40.0975 25.4828 40.4063 25.1461L40.7051 24.8297C40.7078 24.826 40.7178 24.8123 40.7373 24.7847C40.7552 24.7595 40.7753 24.7304 40.8028 24.69C40.8278 24.6531 40.8618 24.603 40.8965 24.5533C40.9647 24.4556 41.0668 24.3149 41.1953 24.1744C41.3243 24.0335 41.5133 23.855 41.7705 23.7105C41.8133 23.6865 41.8821 23.6395 42.0157 23.5347C42.1189 23.4537 42.3194 23.2897 42.5049 23.1597C43.1193 22.7293 43.783 22.332 44.3399 21.984C44.4907 21.8897 44.6342 21.8222 44.7452 21.774C44.8486 21.729 44.9594 21.686 45.0137 21.6646C45.0283 21.6589 45.0414 21.6527 45.0528 21.648C45.0707 21.6254 45.0929 21.5981 45.1153 21.5709C45.2354 21.4248 45.6144 20.9609 46.2871 20.8111C47.1172 20.6265 47.9571 20.5261 48.8057 20.5084C49.0159 20.504 49.2356 20.5155 49.4073 20.525C49.5977 20.5355 49.7506 20.5457 49.9034 20.5494C50.0531 20.553 50.1609 20.549 50.2364 20.5406C50.2583 20.5381 50.2745 20.5346 50.2842 20.5328C50.5611 20.4064 50.785 20.2553 51.0616 20.0084C51.0436 20.0244 51.1085 19.9627 51.21 19.7408C51.2853 19.5761 51.3477 19.3867 51.4024 19.2037C51.2554 19.174 51.1084 19.1468 50.9619 19.1256ZM67.1358 30.48C66.4488 30.8434 65.6806 31.3583 65.0909 31.8531C64.3018 32.5148 63.3443 32.7552 62.5498 32.813C62.3544 32.8272 62.1587 32.829 61.9971 32.8287C61.8145 32.8283 61.6892 32.8252 61.5401 32.8267C61.4023 32.8281 61.2957 32.8335 61.211 32.8423C61.1299 32.8508 61.0944 32.8608 61.0909 32.8619C60.6673 32.9993 60.3105 33.3821 60.2002 34.1685C59.9883 35.68 59.8124 37.2143 60.0059 38.4537C60.0501 38.7365 60.0915 38.944 60.1475 39.0992C60.1605 39.1351 60.1744 39.1601 60.1827 39.1773C60.5208 39.4099 60.9041 39.5891 61.4161 39.7906C62.4209 40.1861 63.0113 40.8705 63.4278 41.6451C63.5116 41.801 63.584 41.9659 63.6299 42.0699C63.6807 42.1848 63.7139 42.2597 63.7461 42.3238C64.1498 42.4986 64.6763 42.5441 65.4746 42.5357C65.696 42.5333 65.961 42.4647 66.3575 42.2867C66.5571 42.197 66.757 42.0957 67.001 41.9732C67.2324 41.857 67.5035 41.7221 67.7871 41.6011C67.8612 41.5695 67.9442 41.5286 68.0674 41.4664C68.1777 41.4107 68.3354 41.3301 68.4971 41.2574C68.8252 41.1098 69.3073 40.9284 69.8936 40.9283C70.7577 40.9283 71.369 41.3878 71.7139 41.7173C72.0322 42.0217 72.3412 42.4418 72.4483 42.5748C72.8793 43.1093 73.1466 43.6354 73.378 44.1158C73.7741 44.9387 73.7569 45.6515 73.7569 46.1695V46.1714C73.7569 46.2039 73.7584 46.2138 73.7608 46.2974C73.7625 46.3583 73.7659 46.4854 73.752 46.6294C73.7368 46.7863 73.7004 46.9779 73.6162 47.1841C73.5607 47.3202 73.4903 47.4436 73.4121 47.5562C73.4119 47.5585 73.4114 47.5616 73.4112 47.564C73.4044 47.6246 73.4001 47.7011 73.3985 47.7964C73.3967 47.9006 73.3985 47.9815 73.3985 48.1041C73.3984 48.6948 73.3531 49.4111 73.3369 49.9273C73.3209 50.4389 73.3283 50.8758 73.376 51.2544C73.3873 51.2672 73.4008 51.2824 73.4161 51.2984C73.48 51.3654 73.557 51.4381 73.6602 51.5328C73.7478 51.6132 73.885 51.7379 74.001 51.856C74.361 52.2229 74.5516 52.6555 74.6573 52.939C74.763 53.223 74.8458 53.539 74.8838 53.6724C75.2179 54.8449 75.3325 56.0625 75.4502 57.0738C75.5743 58.1398 75.7053 59.0314 76.0118 59.8414C76.1062 60.0908 76.3193 60.4625 76.6192 60.8345C76.7934 61.0505 76.9688 61.2275 77.1231 61.3628C77.1623 61.2821 77.2059 61.1953 77.253 61.0972C77.481 60.6223 77.6605 60.0934 77.8448 59.4859C78.0184 58.9134 78.2135 58.2084 78.4424 57.5591C78.9243 56.1925 79.1046 54.9018 79.4414 53.2662C79.6391 52.3065 79.8564 51.392 79.8565 50.73C79.8565 48.4532 80.0347 47.4209 79.6104 45.5914C79.1455 43.5875 78.1597 41.8785 77.1934 39.6626C76.7959 38.751 76.5538 37.7878 76.3506 37.1343C76.1305 36.4264 75.9093 35.8856 75.5323 35.3951C74.8369 34.4907 74.3598 33.6856 73.9825 33.0298C73.5827 32.3351 73.3575 31.9316 73.1006 31.6177C72.8936 31.365 72.6986 31.2168 72.3955 31.1099C72.0438 30.986 71.4687 30.8919 70.4629 30.9205L70.4414 30.9214H70.42C70.2746 30.9215 70.1139 30.9293 69.8985 30.941C69.6984 30.9518 69.449 30.9653 69.1953 30.9654C68.7013 30.9654 68.0109 30.9184 67.3438 30.5787C67.2551 30.5335 67.1885 30.5032 67.1358 30.48Z" fill="black"/>
</svg>
