<svg width="100" height="100" viewBox="0 0 100 100" fill="none" xmlns="http://www.w3.org/2000/svg">
<path d="M51.3945 17.5062C53.6311 17.6996 56.1147 18.3756 58.7685 19.5658C60.2687 20.2258 64.0821 22.3118 69.6765 25.2071C72.0465 26.4336 73.4042 27.091 74.4821 27.5396C76.4207 28.3464 80.1083 29.7725 84.5929 32.2505C86.1538 33.1131 87.444 33.8656 88.3068 34.4579C88.7183 34.7404 89.1354 35.0547 89.4304 35.379C89.5616 35.5232 89.8113 35.8196 89.9313 36.2374C89.9984 36.4716 90.0391 36.7965 89.9437 37.1586C89.8446 37.5342 89.6314 37.827 89.3901 38.0304C89.0953 38.2788 88.6851 38.5125 88.285 38.7228C87.8509 38.9509 87.2971 39.2176 86.6326 39.5239C85.3023 40.1367 83.4514 40.9428 81.0639 41.9743C80.7753 42.099 80.4643 42.2323 80.1355 42.3742C80.1642 44.6946 80.1917 46.9943 80.1953 49.5982V49.6055C80.186 52.6192 80.1144 55.0077 79.9506 56.7084C79.8694 57.5516 79.7597 58.2896 79.6026 58.8726C79.5243 59.163 79.4192 59.4712 79.269 59.7537C79.1302 60.0147 78.8705 60.4105 78.4046 60.6717L78.3725 60.6902L78.3405 60.7055C77.3889 61.1833 74.8521 62.6459 72.4351 64.0955C72.5311 67.7005 72.5357 71.1453 72.5415 73.2325L72.5601 75.0593C72.5776 76.4002 72.595 76.5795 72.621 76.8337C72.658 77.0954 72.727 77.4914 72.809 77.8635C72.8894 77.922 72.9734 77.9857 73.06 78.0553L73.9802 78.7774C74.301 79.0274 74.6341 79.2869 74.9489 79.5374C75.4695 79.9518 76.0285 80.4101 76.4195 80.8042L76.5766 80.9682L76.7025 81.1077L76.7924 81.2719C77.1425 81.9136 77.5388 83.3932 77.0609 85.1809C76.8528 85.9588 76.6051 86.6992 76.2687 87.3143C75.932 87.9299 75.4236 88.5711 74.6236 88.9134C73.9339 89.2083 73.0632 89.4545 72.1841 89.5811C71.3258 89.7047 70.3086 89.7364 69.3915 89.4764C68.8987 89.3368 68.3392 89.1559 67.8331 88.9349C67.3904 88.7415 66.7425 88.4164 66.3066 87.8917C66.3732 87.972 65.8543 87.4475 65.5869 86.9255C65.255 86.2777 65.1248 85.4992 65.2295 84.5387C65.3253 83.6587 65.4774 82.537 65.7005 81.5601C65.811 81.0758 65.9513 80.5754 66.1311 80.1405C66.2749 79.7928 66.5753 79.1415 67.1886 78.7528L67.4716 78.5927C67.7638 78.445 68.0773 78.3324 68.3474 78.246C68.735 78.1223 69.1587 78.0162 69.561 77.9292C69.5688 77.9275 69.5768 77.9257 69.5846 77.924C69.5363 77.6574 69.498 77.4122 69.4721 77.2234L69.4659 77.1701C69.4115 76.6385 69.3938 76.3107 69.3688 73.2581V73.2499C69.364 71.5532 69.3602 69.0027 69.31 66.2136C68.443 66.8146 67.3525 67.5454 66.002 68.3778C62.4337 70.5774 58.749 72.7342 55.7218 73.7966C54.3138 74.2908 52.9085 74.8309 51.3996 74.2787C49.8752 73.7206 48.7736 73.2187 47.5959 72.692C46.4252 72.1683 45.1428 71.6036 43.1933 70.8826C41.9854 70.4359 39.1723 69.5088 33.826 67.3059C30.7864 66.0535 26.9732 64.3937 24.9329 63.2021C23.9022 62.6002 23.1941 62.0554 22.7299 61.4974C22.1976 60.8575 22.0557 60.2837 21.9967 59.8481C21.7803 58.2522 21.2747 56.3304 21.188 51.8025C21.1121 47.8349 21.0718 44.9486 21.0538 43.5599C20.817 43.4465 20.6168 43.3495 20.4413 43.2655C18.8571 42.5082 16.5233 41.8317 11.4686 38.015C11.2167 37.8248 10.9777 37.63 10.7756 37.4324C10.589 37.2501 10.3405 36.9758 10.1766 36.6139C9.98493 36.1904 9.90811 35.631 10.1591 35.0651C10.3713 34.5869 10.7329 34.3071 10.9419 34.1666L11.2373 33.9789C11.9621 33.5387 12.9467 33.0836 14.3191 32.4834C15.1224 32.1322 16.0938 31.7163 17.2645 31.2136C18.4377 30.7098 19.8192 30.1158 21.4534 29.4022C25.1995 27.7666 31.4082 24.9618 35.5467 23.1352C38.523 21.8215 40.7597 20.7682 42.5179 19.9504C44.2491 19.1452 45.586 18.5346 46.6789 18.1626C48.4514 17.5593 50.5139 17.5 51.2561 17.5H51.3253L51.3945 17.5062ZM71.4427 80.8021C71.1583 80.8353 70.7213 80.9023 70.2363 81.0072C69.9006 81.0799 69.5809 81.1623 69.3182 81.2463C69.2192 81.2779 69.1352 81.3093 69.0652 81.3365C68.9809 81.5405 68.8873 81.8506 68.7946 82.2566C68.6112 83.0603 68.4744 84.0443 68.3836 84.8783C68.3564 85.1278 68.367 85.2839 68.3805 85.3716C68.3931 85.4531 68.41 85.4879 68.4146 85.4968C68.4202 85.5077 68.4318 85.5279 68.4735 85.5758C68.4985 85.6047 68.5251 85.6325 68.5736 85.6845C68.6055 85.7186 68.6561 85.775 68.711 85.8384C68.719 85.8443 68.7349 85.8561 68.7605 85.8722C68.835 85.9188 68.9501 85.9805 69.1106 86.0506C69.4332 86.1915 69.8407 86.3271 70.2622 86.4466C70.572 86.5343 71.0863 86.5555 71.7287 86.463C72.332 86.376 72.9142 86.2057 73.3305 86.0321C73.355 86.0058 73.4088 85.9422 73.4813 85.8096C73.6384 85.5222 73.8092 85.0659 73.9947 84.3725C74.1234 83.8913 74.1245 83.4804 74.0875 83.1807C74.0725 83.0585 74.0507 82.962 74.0328 82.8925C73.8028 82.6783 73.4399 82.374 72.9649 81.996C72.6652 81.7576 72.3454 81.5084 72.022 81.2565C71.8282 81.1055 71.6333 80.9518 71.4427 80.8021ZM24.246 45.0585C24.2692 46.6297 24.3064 48.9082 24.3607 51.743C24.4428 56.03 24.8953 57.6192 25.1404 59.4286C25.1419 59.4388 25.1436 59.4469 25.1445 59.4532C25.1513 59.4626 25.1621 59.4749 25.1755 59.4912C25.2973 59.6375 25.6423 59.9613 26.5409 60.4861C28.3609 61.549 31.9711 63.1295 35.0426 64.395C40.3166 66.5681 43.0189 67.4557 44.3004 67.9296C46.3445 68.6856 47.6991 69.2825 48.8983 69.8189C50.0905 70.3522 51.0937 70.8087 52.4975 71.3226C52.6037 71.3614 52.7239 71.3864 53.02 71.3318C53.3813 71.2652 53.8523 71.1111 54.6642 70.8262C57.3166 69.8953 60.719 67.9258 64.3289 65.7007C65.9287 64.7146 67.1462 63.8816 68.049 63.2432C68.4761 62.941 68.8706 62.6544 69.2088 62.4133C69.1767 61.5203 69.1412 60.6302 69.0941 59.7619C68.8283 54.8609 68.3119 50.7606 68.05 48.5541C68.0081 48.2014 67.9753 47.8979 67.9456 47.6372C66.2276 48.3817 64.9881 48.9096 63.9427 49.3511C62.7652 49.8483 61.8472 50.2341 60.77 50.705C60.042 51.0232 59.2377 51.4003 58.3915 51.7994C57.5535 52.1947 56.6758 52.6109 55.8312 52.9872C54.9892 53.3623 54.1492 53.7123 53.3826 53.9749C52.6463 54.2272 51.8487 54.4447 51.1322 54.4662C50.4126 54.4879 49.6442 54.2934 48.9623 54.0754C48.2508 53.848 47.4572 53.5345 46.6479 53.2077C45.4177 52.711 42.838 51.7792 37.3014 49.7994C33.8061 48.5494 28.9317 46.8083 25.7983 45.5878C25.223 45.3637 24.7081 45.1552 24.244 44.9652C24.2444 44.9959 24.2456 45.0271 24.246 45.0585ZM76.9793 43.7353C74.9854 44.5946 72.8243 45.5288 70.9893 46.3222C71.0292 46.691 71.0918 47.2659 71.201 48.1859C71.4614 50.3798 71.9895 54.5766 72.2616 59.5927C72.2779 59.893 72.2896 60.1959 72.3039 60.5004C73.9795 59.5126 75.5782 58.5964 76.5249 58.0941C76.5282 58.0824 76.5337 58.0703 76.5373 58.0573C76.627 57.7244 76.7171 57.1889 76.7924 56.4078C76.9414 54.8607 77.0133 52.5965 77.0227 49.6034L77.0144 47.5212C77.0068 46.2168 76.9935 44.9718 76.9793 43.7353ZM51.1962 20.652C50.4897 20.6559 48.9237 20.7294 47.7075 21.1433C46.8093 21.449 45.6383 21.9784 43.8635 22.8039C42.1159 23.6168 39.847 24.6852 36.8355 26.0143C32.7599 27.8132 26.4648 30.6562 22.731 32.2865C21.0877 33.004 19.699 33.6014 18.5235 34.106C17.3454 34.612 16.3884 35.0219 15.5976 35.3677C14.9948 35.6313 14.5076 35.8522 14.1084 36.0396C18.3323 39.1371 20.1918 39.6495 21.817 40.4264C22.6276 40.814 23.9074 41.4665 26.9571 42.6543C30.0389 43.8547 34.8632 45.5787 38.3765 46.835C43.8741 48.801 46.5363 49.761 47.8428 50.2886C48.6605 50.6187 49.3508 50.8898 49.9342 51.0763C50.5468 51.2721 50.8848 51.3207 51.0362 51.3163C51.2564 51.3097 51.6825 51.2241 52.3477 50.9963C52.9826 50.7788 53.7232 50.4725 54.532 50.1121C55.3387 49.7527 56.1829 49.3528 57.0303 48.9531C57.8695 48.5574 58.7149 48.1602 59.4914 47.8208C60.5915 47.3398 61.5322 46.9451 62.7012 46.4515C63.4526 46.1342 64.3025 45.7705 65.3607 45.316C64.8495 45.0227 63.9965 44.542 62.2892 43.6215C59.6022 42.1728 54.9762 39.7275 52.385 38.4192C49.6941 37.0606 49.4173 37.0115 49.0542 36.9729C48.2991 36.8926 47.7149 36.8405 47.3181 36.8088C46.8792 36.7737 46.7323 36.7688 46.7893 36.7688C45.9135 36.7687 45.2032 36.0632 45.203 35.1933C45.203 34.3232 45.9134 33.618 46.7893 33.6179C46.932 33.6179 47.8687 33.6776 49.3909 33.8394C50.4551 33.9525 51.2952 34.3336 53.8225 35.6098C56.451 36.9369 61.105 39.399 63.8022 40.8532C66.5141 42.3152 67.1415 42.7029 67.5657 42.9435C68.093 43.2427 68.5349 43.4697 68.9041 43.6544C68.9513 43.6779 68.999 43.7015 69.0466 43.7252C72.3616 42.2901 77.0783 40.2602 79.7987 39.0849C82.1932 38.0504 84.0086 37.2594 85.2982 36.6652C85.4195 36.6094 85.5345 36.553 85.6453 36.5011C84.9662 36.0845 84.0957 35.5825 83.05 35.0046C78.7509 32.6291 75.243 31.2723 73.2562 30.4454C72.0468 29.9421 70.589 29.2328 68.2111 28.0021C62.4338 25.0122 58.8439 23.0435 57.4745 22.4428L57.462 22.4377C55.0983 21.3777 52.9908 20.8177 51.1962 20.652Z" fill="black"/>
</svg>
