<svg width="100" height="100" viewBox="0 0 100 100" fill="none" xmlns="http://www.w3.org/2000/svg">
<path d="M67.0072 15C67.1956 15 67.3755 15.0385 67.5398 15.1056C67.7654 15.0553 68.0067 15.0587 68.2441 15.1286C68.3997 15.1744 68.4629 15.1915 68.5544 15.2158L68.5554 15.2149C68.8986 15.3053 69.3804 15.4241 69.75 15.4876L69.7491 15.4885C70.0874 15.5443 70.7236 15.6406 71.2743 15.9054C71.3938 15.9629 71.5466 16.0247 71.7793 16.1203C71.9906 16.207 72.2558 16.3172 72.514 16.4453C72.7835 16.5791 73.1199 16.7469 73.4258 16.91C73.6999 17.0562 74.06 17.2552 74.3119 17.4536C74.6399 17.7121 75.1008 18.0923 75.5277 18.5196C76.0757 19.0684 76.6327 19.7016 77.006 20.167C77.2109 20.4224 77.501 20.7809 77.7645 21.132C78.0072 21.4556 78.3133 21.8833 78.4908 22.2652C78.6697 22.6502 78.8532 23.1113 79.0537 23.603C79.3204 24.257 79.6303 24.7561 80.0353 26.5965C80.1266 27.0114 80.4104 27.8106 80.432 29.2282C80.4472 30.2329 80.4439 31.1106 80.4228 31.8039C80.4029 32.4523 80.366 33.0552 80.2841 33.4347C80.148 34.0654 80.0545 34.58 79.7314 35.2795C79.1771 36.4788 78.5503 37.4759 78.1878 38.0884C77.916 38.5475 77.3693 39.572 76.3816 40.833C75.9849 41.3394 75.6184 41.6943 75.2732 42.035C74.9475 42.3567 74.6066 42.7234 74.1659 43.0754C73.9077 53.943 73.6565 70.2765 73.5102 75.5932C73.4365 78.2733 73.3887 79.6833 73.344 80.4424C73.3225 80.8078 73.2977 81.0903 73.2577 81.3065C73.2361 81.4232 73.2015 81.57 73.1365 81.7252C73.062 81.903 72.9749 82.027 72.9244 82.0944L72.8601 82.1807L72.783 82.2559C72.2723 82.7563 71.4777 83.1933 70.5067 83.4781C69.5336 83.7636 66.6988 84.2608 63.1075 84.7821C61.5788 85.0039 60.9132 85.0628 55.6614 84.929C50.4127 84.7952 40.7271 84.474 34.1891 83.9079C27.6154 83.3387 24.3003 82.5451 22.5054 82.076C22.1441 81.9815 21.4632 81.8263 20.9095 81.3451C20.3057 80.8201 20.0317 80.0967 19.8755 79.3185C19.5788 77.8387 19.5451 75.1913 19.5624 70.3959C19.5974 60.6602 19.8606 41.8079 20.6459 32.0931C21.0344 27.2876 21.553 24.5001 22.352 22.8455C22.7793 21.9608 23.318 21.3293 24.0067 20.9006C24.6535 20.4982 25.3371 20.3417 25.845 20.2285C27.9922 19.7498 30.849 19.3248 34.6703 19.1036C38.4742 18.8835 43.1116 18.8649 46.3458 18.8557C49.283 18.8473 53.4554 18.8544 55.5723 18.8557C55.642 18.7956 55.7119 18.7379 55.7826 18.6868C56.124 18.4399 56.7355 17.8567 58.0773 17.3048C58.7937 17.0101 59.7041 16.6041 60.495 16.3186C61.7968 15.8487 62.4486 15.5673 63.0542 15.4279C63.5428 15.3154 64.3674 15.2098 65.0917 15.135C65.8204 15.0597 66.5972 15.0001 67.0072 15ZM46.3541 21.6766C43.1051 21.6858 38.546 21.705 34.8329 21.9199C31.1369 22.1338 28.4335 22.5411 26.4584 22.9814C25.9363 23.0978 25.6901 23.1753 25.497 23.2954C25.3458 23.3896 25.1342 23.5706 24.8919 24.0723C24.3516 25.1911 23.8493 27.4755 23.4576 32.3209C22.6824 41.9106 22.4184 60.6562 22.3833 70.406C22.3654 75.353 22.4153 77.6369 22.6413 78.7639C22.6945 79.0292 22.7458 79.1604 22.7726 79.2156C22.8189 79.2327 22.9393 79.2741 23.2179 79.347C24.8673 79.778 28.0255 80.5424 34.4325 81.0971C40.8756 81.655 50.4841 81.9753 55.734 82.109C60.9802 82.2427 61.4336 82.1748 62.7025 81.9906C66.3568 81.4603 68.9714 80.9885 69.7124 80.7711C70.0704 80.6661 70.3336 80.5452 70.5149 80.4433C70.5183 80.3938 70.5241 80.3385 70.5278 80.2772C70.5694 79.5716 70.6162 78.2101 70.6903 75.5151C70.8301 70.4339 71.0632 55.5026 71.3092 44.6409C71.0629 44.7315 70.805 44.8104 70.5333 44.8696C69.86 45.0165 69.2652 45.2403 67.4526 45.269C65.4926 45.3002 64.1083 45.2739 63.7686 45.247C63.5873 45.2327 62.7799 45.2491 62.0937 44.989C61.2436 44.6667 60.4377 44.2819 59.9477 44.0359C59.5089 43.8155 58.8961 43.5617 57.7669 42.8266C56.8573 42.2343 56.3591 41.8997 55.9543 41.5198C55.6946 41.2762 55.0016 40.6938 54.5613 40.1397C54.3151 39.8298 53.9028 39.3279 53.5531 38.7587C53.1564 38.1132 52.936 37.7645 52.7386 37.4741C52.5676 37.2227 52.2441 36.7668 51.9958 36.2758C51.8533 35.9943 51.534 35.4561 51.3677 34.9094C51.2286 34.4518 51.1292 33.945 51.0389 33.4613C50.9764 33.1266 50.8154 32.5505 50.8222 31.6405C50.839 29.4167 50.8526 28.867 50.9756 28.1851C51.0984 27.5042 51.2663 26.4952 51.4669 25.8904C51.7507 25.0343 52.0582 24.3865 52.3062 23.8895C52.4458 23.6096 52.6221 23.2937 52.7744 23.0172C52.9358 22.7242 53.0809 22.4569 53.1959 22.2156C53.2484 22.1053 53.3421 21.9111 53.4603 21.6766C51.2827 21.6745 48.4922 21.6705 46.3541 21.6766ZM33.09 69.8844C39.9961 69.8844 46.9212 69.8847 51.9204 69.9707C56.9315 70.0571 59.8017 70.2296 61.5859 70.3233C63.3513 70.4161 63.9678 70.4257 64.6042 70.4363C65.383 70.4493 66.0037 71.0918 65.9908 71.8706C65.9777 72.6493 65.336 73.27 64.5574 73.2571C63.8897 73.246 63.2396 73.2352 61.4381 73.1405C59.6552 73.0469 56.8292 72.876 51.8727 72.7907C46.9034 72.7051 40.0059 72.7053 33.09 72.7053C32.311 72.7053 31.6796 72.0738 31.6795 71.2948C31.6795 70.5159 32.311 69.8844 33.09 69.8844ZM33.5169 61.1611C36.8554 61.1611 40.1999 61.1613 45.1043 61.218C50.0059 61.2747 56.365 61.3879 63.2323 61.5137C64.011 61.5281 64.6303 62.1712 64.6161 62.9498C64.6018 63.7287 63.9588 64.3488 63.18 64.3346C56.3106 64.2087 49.9616 64.0955 45.0712 64.0389C40.1841 63.9824 36.8532 63.982 33.5169 63.982C32.7383 63.9817 32.1066 63.3503 32.1065 62.5716C32.1065 61.7927 32.7382 61.1613 33.5169 61.1611ZM32.63 54.2357C36.4788 54.2357 40.3318 54.2361 44.2926 54.2549C47.2606 54.2691 50.2294 54.294 52.4861 54.3275L54.4796 54.3634L54.4933 54.3643H54.5081C57.2252 54.4822 58.2935 54.539 59.3454 54.5185C59.7269 54.506 59.8812 54.4906 60.5566 54.4065C61.3294 54.3104 62.034 54.8595 62.1304 55.6324C62.2264 56.405 61.678 57.1097 60.9055 57.2062C60.204 57.2936 59.9485 57.3207 59.4372 57.3376H59.4198C58.2491 57.3613 57.0614 57.2979 54.4025 57.1823C52.1581 57.1308 48.2281 57.0947 44.2789 57.0758C40.326 57.057 36.4798 57.0565 32.63 57.0565C31.851 57.0565 31.2195 56.4251 31.2195 55.6461C31.2196 54.8674 31.8511 54.2357 32.63 54.2357ZM59.3105 47.2386C60.0892 47.239 60.7208 47.8704 60.7209 48.6491C60.7209 49.4278 60.0892 50.0592 59.3105 50.0595H32.5758C31.7968 50.0595 31.1654 49.4281 31.1654 48.6491C31.1654 47.8701 31.7969 47.2386 32.5758 47.2386H59.3105ZM33.3747 41.7347C35.9188 41.7585 41.6378 41.8115 44.019 42.0056L44.4487 42.046L44.4762 42.0497C46.1181 42.2663 47.8575 42.4095 49.275 42.4794C49.9891 42.5054 50.7042 42.5125 51.4622 42.5208C52.2411 42.5293 52.8655 43.168 52.8571 43.9468C52.8486 44.7256 52.2099 45.35 51.431 45.3416C50.6782 45.3334 49.9265 45.3251 49.1694 45.2975H49.151C47.6725 45.225 45.8606 45.0753 44.1346 44.8484C42.2856 44.6417 36.1714 44.5819 33.3489 44.5555C32.5702 44.5482 31.9443 43.911 31.9514 43.1322C31.9586 42.3535 32.5959 41.7276 33.3747 41.7347ZM67.3112 17.7869C67.2133 17.8084 67.1115 17.8208 67.0072 17.8208C66.7569 17.8209 66.1089 17.866 65.3819 17.9411C64.6501 18.0167 63.9854 18.1075 63.6869 18.1762C63.3006 18.2652 63.0155 18.4073 61.4528 18.9714C60.7357 19.2303 59.9916 19.5673 59.1498 19.9135C58.2081 20.3009 57.9739 20.5829 57.4354 20.9723C57.433 20.9741 57.4232 20.982 57.4061 20.9971C57.3841 21.0164 57.3551 21.0429 57.3197 21.0779C57.3143 21.0832 57.3088 21.0888 57.3032 21.0944C57.2341 21.1892 57.1546 21.2757 57.0645 21.3506C56.873 21.5687 56.6687 21.826 56.4906 22.0641C56.3713 22.2234 56.2286 22.4637 56.0837 22.7381C55.9435 23.0036 55.8266 23.2533 55.7431 23.4286C55.588 23.7541 55.4052 24.088 55.2454 24.378C55.0766 24.6845 54.9373 24.934 54.8303 25.1485C54.6099 25.5902 54.3683 26.1035 54.1444 26.7784C54.0255 27.1372 53.8999 27.8621 53.7515 28.6855C53.6812 29.0746 53.6605 29.3422 53.643 31.6615C53.6389 32.223 53.7165 32.4329 53.812 32.9444C53.9038 33.4357 53.9784 33.7989 54.0664 34.0885C54.1378 34.3236 54.222 34.4264 54.5136 35.003C54.6597 35.292 54.8546 35.5692 55.071 35.8874C55.3089 36.2371 55.5592 36.6351 55.9561 37.2812C56.197 37.6732 56.4848 38.0263 56.7697 38.3849C57.0394 38.7244 57.4131 39.0207 57.8845 39.463C58.0708 39.6379 58.3385 39.8332 59.3059 40.463C60.2664 41.0883 60.6887 41.252 61.2131 41.5152C61.6596 41.7395 62.3702 42.0766 63.0936 42.3509C63.1432 42.3697 63.2148 42.3876 63.3563 42.3995C63.4309 42.4058 63.5112 42.4094 63.6208 42.4142C63.7219 42.4187 63.8543 42.4246 63.9908 42.4353C63.9908 42.4353 63.9936 42.435 63.9981 42.4353C64.0029 42.4357 64.0101 42.4367 64.0183 42.4372C64.0352 42.4381 64.0577 42.4388 64.0854 42.4399C64.1414 42.4423 64.2151 42.4449 64.3058 42.4472C64.4872 42.452 64.7304 42.4565 65.0284 42.4592C65.6246 42.4647 66.4351 42.4636 67.4076 42.4482C68.8856 42.4248 69.1922 42.2745 69.9328 42.1131C70.5353 41.9815 70.9504 41.7159 71.9593 41.1691C72.4324 40.9127 72.6515 40.6598 73.2917 40.0277C73.6526 39.6713 73.8915 39.4371 74.1603 39.0938C75.0068 38.0132 75.446 37.1842 75.7609 36.6522C76.1642 35.9707 76.6923 35.1303 77.1703 34.0958C77.3396 33.7296 77.3775 33.5308 77.5266 32.8397C77.5266 32.8397 77.5288 32.83 77.5312 32.8149C77.534 32.7978 77.5367 32.7742 77.5404 32.7442C77.548 32.6827 77.5564 32.6014 77.5643 32.5008C77.58 32.2989 77.5931 32.0371 77.6029 31.7185C77.6223 31.0812 77.6269 30.2487 77.612 29.2713C77.5961 28.2282 77.4258 27.868 77.2796 27.2035C76.9388 25.6542 76.7467 25.4147 76.4422 24.6682C76.2242 24.1339 76.075 23.7599 75.9326 23.4534C75.894 23.3708 75.7578 23.1569 75.5083 22.8244C75.2791 22.5188 75.024 22.2038 74.8059 21.9318C74.493 21.5417 74.0032 20.9856 73.5314 20.5131C73.2192 20.2006 72.8577 19.8997 72.5654 19.6693C72.5599 19.6654 72.5214 19.6374 72.4331 19.5848C72.3435 19.5314 72.2302 19.4684 72.0989 19.3984C71.8352 19.2578 71.5349 19.1085 71.2606 18.9723C71.102 18.8937 70.9207 18.8173 70.7078 18.7299C70.5164 18.6514 70.265 18.5508 70.0512 18.448C69.928 18.3889 69.7107 18.3409 69.2817 18.2699L69.2735 18.268C68.7744 18.1824 68.192 18.0364 67.8373 17.943L67.8346 17.9421C67.7562 17.9213 67.649 17.8944 67.4461 17.8346C67.4 17.821 67.3547 17.8047 67.3112 17.7869ZM35.6198 35.2537C36.9746 35.2537 38.8705 35.2532 40.2165 35.3088C41.604 35.3662 42.3677 35.4837 43.1999 35.6229C43.968 35.7514 44.4868 36.4782 44.3587 37.2463C44.2302 38.0147 43.5026 38.5337 42.7343 38.4052C41.9732 38.2778 41.3328 38.1787 40.0999 38.1279C38.8249 38.0752 36.9951 38.0746 35.6198 38.0746H32.5703C31.7914 38.0745 31.1598 37.4431 31.1598 36.6641C31.16 35.8854 31.7915 35.2538 32.5703 35.2537H35.6198ZM71.8822 25.9142C72.5285 25.4797 73.4053 25.6518 73.8399 26.2981C74.2745 26.9444 74.1032 27.8211 73.457 28.2558C73.347 28.3297 73.1796 28.4429 72.9924 28.5459L72.9666 28.5597L72.9391 28.5735C72.741 28.6717 72.1263 29.0024 71.0007 29.6819C70.0122 30.3364 69.2726 30.8137 68.7023 31.1758C68.1127 31.5502 67.7372 31.7829 67.4443 31.9765C66.8549 32.366 66.0536 32.92 65.3801 33.3135C65.0452 33.5091 64.6653 33.7125 64.3021 33.8405C64.1224 33.9039 63.8779 33.9738 63.6052 33.9893C63.3417 34.0043 62.8832 33.9765 62.4601 33.6532C62.1226 33.3953 61.8427 33.0824 61.6309 32.8323C61.3655 32.5189 61.2595 32.3738 61.0478 32.1326C60.8234 31.877 60.5853 31.5574 60.3995 31.3181C60.1942 31.0538 59.992 30.8055 59.7622 30.5698C59.3996 30.1978 58.3458 29.3528 57.9414 29.0712C57.3024 28.6261 57.1448 27.7471 57.5897 27.108C58.0347 26.4687 58.9146 26.3113 59.5539 26.7563C60.0404 27.0951 61.2491 28.0542 61.7815 28.6002C62.1223 28.9497 62.401 29.2963 62.6272 29.5873C62.873 29.9036 63.0179 30.1003 63.168 30.2713C63.3561 30.4855 63.6238 30.8197 63.7622 30.9848C63.8211 30.9525 63.8876 30.9193 63.9578 30.8783C64.5417 30.5371 65.2136 30.0697 65.8898 29.6231C66.2109 29.4109 66.6346 29.1466 67.19 28.7939C67.7567 28.434 68.4955 27.9608 69.4874 27.3036L69.5113 27.2871L69.537 27.2714C70.6244 26.6149 71.3049 26.2413 71.6325 26.0749C71.6915 26.0425 71.7553 25.9996 71.8822 25.9142Z" fill="black"/>
</svg>
