<svg width="100" height="100" viewBox="0 0 100 100" fill="none" xmlns="http://www.w3.org/2000/svg">
<path d="M17.2867 34.6611C18.4003 34.4902 19.0981 35.3258 19.1819 35.4133C19.7688 36.0249 20.4507 36.9152 21.4257 37.7939C21.8834 38.2065 22.2903 38.5001 22.6171 38.6568C22.7888 38.739 22.8835 38.7581 22.9209 38.7623C24.5997 38.1321 25.8749 37.6391 26.9709 36.9198C27.6986 36.4421 27.5675 36.551 28.0399 37.287C28.5121 38.0233 29.4086 39.1081 28.6809 39.586C27.2347 40.5351 25.6113 41.1435 23.9753 41.7576C22.957 42.1396 21.9761 41.8662 21.2723 41.5289C20.5545 41.185 19.8895 40.6659 19.3362 40.1674C18.6933 39.588 18.0321 38.8635 17.5557 38.3288C16.7982 39.3086 15.6808 41.0026 15.0081 42.0586C14.9539 42.1439 14.9063 42.2193 14.8639 42.2873C16.0628 43.4466 17.2829 44.5606 18.0395 45.3115C18.4339 45.703 18.8101 46.0989 19.0776 46.4598C19.2076 46.6356 19.372 46.8813 19.4836 47.1717C19.5852 47.4363 19.7523 48.0262 19.4498 48.6657C18.549 50.5696 17.8602 51.6463 17.567 53.2211C17.4268 53.9731 16.8828 54.3562 16.6384 54.5009C16.3554 54.6683 16.0501 54.7686 15.8038 54.834C15.2964 54.9687 14.6488 55.0558 13.9414 55.1206C12.5215 55.2506 10.5488 55.3127 8.22543 55.3544C8.3884 56.5826 8.55923 57.6748 8.71838 58.539C8.90306 59.5419 9.0473 60.1 9.10804 60.2534C9.11508 60.2715 9.1628 60.4185 9.63474 60.5493C10.121 60.6838 10.8011 60.7191 11.5984 60.6734C12.3766 60.6287 13.1488 60.5154 13.7982 60.4178C14.1052 60.3717 14.4196 60.3234 14.6655 60.2968C14.7863 60.2838 14.9398 60.2705 15.092 60.271C15.1676 60.2712 15.281 60.2746 15.4101 60.2947C15.4978 60.3085 15.7123 60.3466 15.9521 60.4748L16.0564 60.5358L16.1832 60.6216C16.8012 61.0715 17.1671 61.7771 17.388 62.276C17.6582 62.8865 17.8841 63.6056 18.0752 64.3153C18.4521 65.7147 18.7715 67.3815 19.0131 68.4619C19.2363 69.4609 18.6436 70.1572 18.3524 70.4319C18.0345 70.7318 17.6491 70.951 17.3726 71.096C17.0814 71.2489 16.7526 71.399 16.5217 71.5078C16.4187 71.5565 16.3336 71.5972 16.264 71.632C17.4809 73.8959 18.5361 75.1158 19.2862 75.7808C20.044 76.4528 20.5182 76.5986 20.8305 76.741C20.8984 76.7719 21.0967 76.8281 21.574 76.623C22.0534 76.4171 22.6104 76.0293 23.2053 75.5201C23.7897 75.0197 24.3303 74.4727 24.8048 73.994C25.0312 73.7657 25.2617 73.5332 25.4593 73.3505C25.5587 73.2587 25.6727 73.1588 25.7907 73.0681C25.884 72.9964 26.0867 72.8444 26.3522 72.7442C27.2114 72.4199 28.0602 72.7238 28.5408 72.9418C29.1094 73.1999 29.7024 73.593 30.2763 74.0396C32.0362 75.4088 32.3925 77.5154 32.4425 79.0512C32.4683 79.8478 32.4146 80.6074 32.3708 81.1918C32.348 81.4971 32.3286 81.7363 32.3187 81.9419C32.3139 82.0415 32.3123 82.1197 32.3126 82.1799C32.3129 82.2418 32.3156 82.2679 32.3156 82.2679C32.3172 82.2821 32.3172 82.2963 32.3187 82.3103C32.6033 82.3207 32.9832 82.3002 33.4519 82.244C34.0388 82.1737 34.6626 82.0626 35.2774 81.9533C35.8534 81.851 36.4843 81.7374 36.968 81.6978C37.122 81.6852 37.294 81.664 37.4446 81.6336C37.5187 81.6187 37.5747 81.6042 37.6123 81.5923C37.6186 81.5903 37.6235 81.5875 37.6277 81.586C37.7355 81.523 37.828 81.4281 37.8945 81.1432C37.9767 80.7907 37.9789 80.2853 37.8986 79.6193C37.8173 78.9437 37.6855 78.3238 37.5653 77.6194C37.5098 77.2943 37.456 76.9443 37.4323 76.6137C37.4104 76.3078 37.401 75.8778 37.5172 75.4508C37.7595 74.5605 38.3882 73.9733 38.9418 73.5988C39.5062 73.2172 40.1764 72.9323 40.8185 72.7049C42.0489 72.2693 43.6941 71.885 44.8215 71.5575C45.9845 71.2198 47.038 71.2195 47.9653 71.6072C48.8772 71.9885 49.4461 72.6551 49.8144 73.1984C49.997 73.4678 50.1506 73.7381 50.2675 73.9444C50.2751 73.9578 50.2827 73.9708 50.29 73.9837C50.348 73.9411 50.4116 73.8984 50.4761 73.8492C51.0442 73.4162 51.7555 72.8088 52.4745 72.1483C53.1916 71.4893 53.8921 70.7994 54.4402 70.2074C54.7148 69.9107 54.9395 69.6516 55.1049 69.4417C55.1454 69.3903 55.176 69.3433 55.2042 69.3052C55.2011 69.2994 55.1993 69.2926 55.1959 69.2865C55.0359 68.9922 54.7347 68.609 54.2857 68.1009C53.8891 67.6521 53.329 67.0542 52.8949 66.5272C52.466 66.0068 51.9567 65.323 51.7105 64.5698C51.6998 64.5369 51.6834 64.4931 51.6461 64.397C51.6138 64.3138 51.5649 64.1897 51.5193 64.0555C51.4262 63.7817 51.3189 63.394 51.3117 62.9309C51.2956 61.8991 51.7251 61.98 52.6506 61.1245C53.2911 60.5329 54.3317 59.5508 54.9167 60.1985C55.5019 60.8463 55.4568 61.8515 54.8165 62.4437C54.5777 62.6644 54.4919 62.8063 54.4647 62.8616C54.4592 62.8729 54.4555 62.8811 54.4535 62.8864C54.4554 62.9008 54.4627 62.9409 54.4903 63.0219C54.5104 63.081 54.5336 63.1422 54.5701 63.2361C54.6015 63.3171 54.6504 63.4427 54.6928 63.5724C54.7392 63.7145 54.9072 64.0065 55.3074 64.4921C55.7022 64.9712 56.1233 65.4111 56.6277 65.982C57.0798 66.4936 57.6 67.1131 57.9492 67.7553C58.2815 68.3668 58.6717 69.3946 58.1772 70.4722C58.0209 70.8126 57.7765 71.1503 57.5615 71.423C57.3268 71.7209 57.0418 72.0466 56.7331 72.3801C56.1144 73.0483 55.3506 73.7988 54.5864 74.501C53.8241 75.2015 53.0367 75.8768 52.3671 76.3871C52.0355 76.6399 51.7049 76.8731 51.4057 77.0513C51.257 77.14 51.0881 77.2316 50.9117 77.3059C50.7658 77.3672 50.4745 77.4792 50.1212 77.4848C48.9141 77.5041 48.2427 76.64 47.953 76.2102C47.7941 75.9744 47.6478 75.713 47.5409 75.5242C47.4211 75.3128 47.3258 75.1459 47.2238 74.9955C47.0231 74.6995 46.8811 74.5932 46.7647 74.5444C46.6632 74.5022 46.3694 74.4151 45.6887 74.6128C44.2658 75.0261 42.9995 75.2996 41.8566 75.7043C41.312 75.8971 40.929 76.078 40.6876 76.2412C40.6319 76.279 40.592 76.3103 40.5639 76.3344C40.5646 76.3489 40.5647 76.3651 40.5659 76.383C40.5782 76.5527 40.6098 76.7787 40.661 77.0793C40.7543 77.6261 40.9244 78.4585 41.018 79.2354C41.1127 80.0219 41.1627 80.9709 40.9526 81.8726C40.7296 82.8286 40.1934 83.7922 39.1188 84.3857C38.7467 84.5911 38.341 84.694 38.0593 84.7509C37.7519 84.8129 37.4512 84.8469 37.2217 84.8657C36.9187 84.8905 36.4577 84.9708 35.8205 85.0841C35.2224 85.1904 34.5105 85.317 33.8211 85.3996C33.1492 85.4801 32.3878 85.5332 31.7061 85.4472C31.1166 85.3728 30.0299 85.1255 29.4919 84.0774C29.3795 83.8583 29.3238 83.6508 29.2925 83.5032C29.2606 83.3525 29.2432 83.2123 29.2331 83.1079C29.2233 83.006 29.2168 82.8964 29.2117 82.8255C29.2058 82.7438 29.2002 82.6849 29.1943 82.6331C29.137 82.1319 29.2018 81.4396 29.2383 80.9518C29.2819 80.3681 29.3214 79.7622 29.3017 79.1558C29.2604 77.8851 28.9686 77.0317 28.3607 76.5589C27.9534 76.2419 27.6192 76.0291 27.3708 75.9008C27.2723 75.9979 27.1563 76.1109 27.0231 76.2454C26.5628 76.7096 25.9335 77.3485 25.2353 77.9463C24.5474 78.5352 23.7084 79.1585 22.8023 79.5479C21.8943 79.9378 20.716 80.1741 19.5408 79.6389C19.2945 79.5267 18.3823 79.2057 17.2151 78.1708C16.0762 77.1608 14.7334 75.5184 13.3073 72.7805C13.0453 72.2774 12.6568 71.4028 13.0373 70.4577C13.2148 70.0172 13.5007 69.7206 13.7164 69.5338C13.9236 69.3544 14.1577 69.2007 14.327 69.09C14.6085 68.9059 14.9456 68.7437 15.1943 68.6265C15.4163 68.5218 15.6019 68.4339 15.7731 68.3492C15.5531 67.3128 15.3232 66.1872 15.0439 65.1501C14.8695 64.5025 14.6941 63.966 14.5213 63.5755C14.514 63.5589 14.5048 63.5433 14.4978 63.5279C14.4247 63.5388 14.3453 63.5492 14.2595 63.562C13.6171 63.6585 12.7146 63.7928 11.7763 63.8466C10.8572 63.8992 9.77845 63.8842 8.80532 63.6148C7.8209 63.3422 6.70502 62.7323 6.19124 61.4349C5.99669 60.9435 5.80583 60.0775 5.62977 59.1215C5.44306 58.1076 5.24517 56.8303 5.06318 55.4155C5.03262 55.1779 4.98833 54.8272 5.00284 54.4875C5.01851 54.1213 5.10779 53.5833 5.50602 53.099C5.89616 52.6246 6.40511 52.4179 6.8059 52.3178C7.20231 52.2189 7.6444 52.186 8.08942 52.1782C10.4544 52.1362 12.3501 52.0755 13.6581 51.9557C14.0828 51.9168 14.4139 51.8712 14.6624 51.8285C15.0494 50.3904 15.691 49.1493 16.259 48.0129C16.1469 47.8925 16.008 47.7485 15.8386 47.5804C15.0452 46.793 14.0232 45.8727 12.66 44.5531C12.4352 44.3355 12.1716 44.0687 11.9676 43.7688C11.7386 43.4324 11.5342 42.9818 11.536 42.4198C11.5377 41.9068 11.7135 41.4846 11.8551 41.2019C11.9965 40.9196 12.1879 40.6173 12.3664 40.337C13.1048 39.1777 14.5543 36.9711 15.451 35.911C15.6854 35.6339 15.9299 35.3765 16.1873 35.1712C16.4368 34.9724 16.8063 34.735 17.2867 34.6611Z" fill="black"/>
<path d="M29.4444 49.5254C30.282 49.2967 31.144 49.7986 31.3701 50.6459C31.5961 51.4932 31.101 52.3653 30.2635 52.5941C29.7585 52.732 29.3953 53.075 29.0802 53.6267C28.712 54.2714 28.6017 54.7879 28.3183 55.4983C28.005 56.2834 27.9682 57.398 28.1495 58.6124C28.3268 59.7996 28.6808 60.874 28.9381 61.4473C29.1164 61.8443 29.4515 62.1619 30.0007 62.427C30.5684 62.7012 31.2553 62.8654 31.9735 62.995C33.8932 63.3415 34.9683 63.2684 35.6236 63.1182C36.3065 62.9615 36.5843 62.7394 37.2957 62.3825C38.7717 61.6422 39.2335 60.8325 39.8076 59.9254C40.2753 59.1862 41.2472 58.9711 41.9777 59.4443C42.7084 59.9175 42.9222 60.9006 42.4543 61.6397C41.8326 62.6221 40.9833 64.0809 38.6908 65.2309C38.3029 65.4255 37.4834 65.9507 36.319 66.2178C35.1267 66.4914 33.6027 66.5185 31.4213 66.1247C30.6419 65.9841 29.6117 65.7606 28.6476 65.295C27.6649 64.8204 26.654 64.0455 26.0775 62.7612C25.6992 61.9185 25.2627 60.5617 25.0425 59.0874C24.8264 57.6404 24.7845 55.8622 25.4045 54.3084C25.5085 54.0478 25.8508 52.9279 26.3597 52.0364C26.9224 51.0514 27.8626 49.9575 29.4444 49.5254Z" fill="black"/>
<path d="M48.3146 14.6517C51.461 14.1313 56.2249 15.0689 60.6086 16.8834C65.0027 18.7021 69.4605 21.5851 71.7481 25.3527C76.0268 32.3992 76.4124 42.4218 74.0514 50.2879C73.8291 51.0283 73.6672 51.9773 72.6001 53.9784C72.2298 54.6725 71.7176 55.4108 70.9115 56.2245C70.267 56.8752 69.2495 57.6904 68.0244 58.4211C67.2032 58.9108 66.6153 59.2625 65.5484 59.6273C64.2148 60.0834 62.2769 60.7742 61.8911 60.9321C56.4368 63.1636 49.5884 63.8404 43.4331 62.4674C37.2653 61.0915 31.5927 57.597 28.9084 51.3081C26.0524 44.6167 24.6139 36.626 28.3112 29.4291C30.3177 25.5231 33.0191 20.9698 36.9408 18.1901C39.2996 16.5183 41.8466 15.9583 44.2523 15.4215C45.6191 15.1165 46.9606 14.8757 48.3146 14.6517ZM59.4182 19.8248C55.2629 18.1049 51.1378 17.4057 48.8218 17.7887C47.4915 18.0087 46.2138 18.2385 44.9283 18.5253C42.451 19.0781 40.5139 19.5379 38.7429 20.7932C35.4985 23.093 33.0882 27.0212 31.098 30.8951C28.035 36.8581 29.0984 43.7357 31.7925 50.0479C33.9588 55.1235 38.5968 58.1338 44.1091 59.3635C49.6339 60.596 55.8362 59.9807 60.713 57.9854C61.2008 57.7858 63.233 57.0643 64.5421 56.6166C65.2842 56.3629 65.6395 56.1543 66.4289 55.6835C67.4529 55.0728 68.2547 54.4159 68.6923 53.9743C69.2827 53.3781 69.6114 52.8894 69.8357 52.4689C70.7215 50.8079 70.7937 50.2029 71.0455 49.364C73.2162 42.1326 72.7656 33.1002 69.0717 27.0164C67.2955 24.0914 63.5634 21.5405 59.4182 19.8248Z" fill="black"/>
<path d="M49.5146 20.1949C52.7237 20.1112 55.9593 21.1324 59.1958 22.976C61.8963 24.5143 64.0701 25.9283 65.6103 27.9721C67.1821 30.058 67.9741 32.6271 68.3307 36.2346C68.7817 40.7974 68.0697 43.0055 67.5033 45.3143C66.9237 47.6769 65.3309 50.1879 63.481 52.2162C61.6382 54.2368 59.3206 56.019 57.0931 56.6951C52.4572 58.1019 48.5013 57.4162 44.5463 56.3619C44.0462 56.2286 43.3119 55.967 42.7545 55.7091C42.4107 55.55 41.9602 55.3253 41.5088 55.0997C41.046 54.8684 40.5675 54.6295 40.1332 54.423C39.6791 54.2071 39.1832 53.9896 38.2453 53.3792C35.2458 51.4264 34.1362 48.1377 33.0519 45.5512C30.4417 39.3241 32.5898 32.749 35.6742 28.954C35.9058 28.6689 36.1781 28.3071 36.883 27.3855C37.3799 26.7359 38.2901 25.6857 39.0902 24.9386C39.622 24.442 39.9795 24.141 40.3501 23.8368C43.2175 21.4829 46.2807 20.2794 49.5146 20.1949ZM49.5955 23.3722C47.1385 23.4364 44.7283 24.3357 42.3301 26.3043C41.9957 26.5788 41.6915 26.8358 41.2214 27.2748C40.573 27.8803 39.7782 28.7933 39.3673 29.3306C38.6918 30.2137 38.3718 30.6395 38.1011 30.9725C35.5602 34.0989 33.9013 39.4373 35.9442 44.3107C37.1842 47.2687 37.9461 49.4053 39.9451 50.7067C40.6966 51.196 41.0327 51.3385 41.4689 51.5458C41.9365 51.7681 42.4438 52.0225 42.8997 52.2503C43.367 52.4838 43.7689 52.6845 44.0605 52.8194C44.4531 53.001 45.0189 53.2006 45.3472 53.288C49.1154 54.2926 52.3881 54.804 56.19 53.6502C57.6582 53.2047 59.5166 51.8759 61.1717 50.0611C62.8195 48.2543 64.0471 46.2053 64.4536 44.5487C65.013 42.2681 65.597 40.5243 65.2043 36.5512C64.8775 33.2457 64.1928 31.3331 63.1117 29.8986C61.999 28.422 60.3426 27.2769 57.6545 25.7457C54.7517 24.0921 52.0775 23.3074 49.5955 23.3722Z" fill="black"/>
<path d="M69.6635 53.3205C70.386 52.8346 71.3617 53.0333 71.8419 53.7643C71.8661 53.8011 71.883 53.8256 71.8941 53.8409C71.9013 53.8507 71.9061 53.8565 71.9084 53.8594L71.9136 53.8646L72.6274 54.5567L72.9598 54.8485C73.1089 54.9796 73.275 55.128 73.3933 55.2438C73.6383 55.4833 73.9829 55.8543 74.2157 56.3488L74.3088 56.5681L74.3885 56.8288C74.4687 57.1577 74.5164 57.6738 74.2371 58.2111C73.9146 58.8316 73.3834 59.3946 73.0252 59.7609C72.5105 60.287 71.9017 60.8193 71.6129 61.0883C71.1458 61.523 70.706 61.9181 70.0644 62.3153C69.6057 62.5994 69.1092 62.9299 68.7411 63.1275C68.3152 63.356 67.7416 63.5956 67.0269 63.5227C66.5446 63.4735 66.0906 63.2541 65.7517 62.874C65.4447 62.5298 64.9315 61.9885 64.4559 61.1782C64.1304 60.6239 63.8956 60.252 63.7368 60.0123C63.6576 59.8927 63.5979 59.8078 63.5569 59.7505C63.5364 59.722 63.5208 59.7009 63.5098 59.6863C63.5044 59.6792 63.5004 59.6735 63.4975 59.6698C63.4948 59.6663 63.4934 59.6646 63.4934 59.6646C62.945 58.9847 63.0453 57.9838 63.7174 57.4289C64.3896 56.8739 65.379 56.9754 65.9275 57.6555C66.0961 57.8644 66.4681 58.3817 67.1569 59.555C67.2901 59.7819 67.4239 59.9687 67.5638 60.1437C67.6075 60.1167 67.6561 60.0885 67.7081 60.0558C67.8952 59.9378 68.1474 59.7765 68.425 59.6047C68.7949 59.3756 69.0504 59.1541 69.4856 58.749C69.8892 58.3734 70.3435 57.9832 70.7916 57.5251C70.8611 57.4541 70.9234 57.3859 70.9818 57.3234C70.9586 57.3028 70.9355 57.2801 70.9103 57.2582C70.8019 57.1638 70.6536 57.0372 70.5226 56.9178L70.5011 56.897L70.4807 56.8764C70.1862 56.5869 69.9397 56.347 69.7811 56.1988L69.774 56.1914L69.7658 56.1842C69.6019 56.0268 69.4419 55.8536 69.2248 55.5231C68.745 54.7923 68.9414 53.8062 69.6635 53.3205Z" fill="black"/>
<path d="M74.1156 54.0102C74.3531 53.9305 74.7547 53.8429 75.2058 53.9274L75.4021 53.9751L75.8736 54.1323C76.3909 54.3224 77.0152 54.6058 77.4701 54.9414C77.9992 55.3319 78.0312 55.4138 79.1289 56.1974C79.3795 56.3763 79.89 56.7262 80.3848 57.1016C80.8699 57.4698 81.4599 57.9499 81.8924 58.4487C82.725 59.4094 83.3109 60.1592 83.8376 60.6338C83.9552 60.7398 84.1315 60.9341 84.2629 61.0777C84.4328 61.2632 84.6475 61.4991 84.9185 61.7937C85.4558 62.3773 86.1919 63.1662 87.0856 64.0728C87.9833 64.9834 88.2532 65.2538 88.5144 65.4933C88.7973 65.7529 89.1581 66.119 89.5627 66.5228C89.9826 66.9419 90.4953 67.4479 91.1305 68.0427C91.4975 68.3863 91.9255 68.7694 92.3455 69.1436C92.7555 69.5086 93.1687 69.8751 93.4716 70.1595C93.7922 70.4606 94.1427 70.7804 94.3817 71.0606C94.6533 71.3789 95.015 71.9051 94.9995 72.6519C94.9709 74.0119 94.6315 75.0984 93.9441 75.9761C93.6824 76.3102 93.4786 76.5967 93.2589 76.9021C93.0422 77.2031 92.8084 77.5243 92.5215 77.8695C92.0721 78.4099 91.3009 79.5703 89.5484 81.055C89.1514 81.3914 88.5796 81.8828 88.0103 82.281C87.7237 82.4814 87.3968 82.6876 87.0571 82.8469C86.7437 82.994 86.2718 83.1729 85.7368 83.1574C85.0151 83.1364 84.374 83.0902 83.8365 82.9628C83.2598 82.8262 82.6898 82.5697 82.2349 82.0545C81.9321 81.7114 81.6122 81.3491 80.8982 80.5274C80.6234 80.2109 80.2545 79.8118 79.8601 79.382C79.4832 78.9712 79.0765 78.5247 78.7822 78.1643C78.6032 77.945 77.8097 76.9801 76.6284 75.6978C75.9931 75.0082 75.8154 74.8393 75.5852 74.5939C75.4064 74.4032 74.4825 73.47 73.1511 72.2815C72.8049 71.9725 72.5375 71.7109 72.2655 71.4445C71.9945 71.1793 71.7167 70.906 71.3255 70.5423C69.8954 69.2123 68.7961 68.2799 68.4118 67.9444C67.8718 67.4728 67.3828 66.9587 67.0025 66.589C66.8162 66.408 66.3416 65.9798 66.036 65.6475C65.8727 65.4699 65.6574 65.2165 65.494 64.9202C65.3624 64.6814 65.0464 64.0275 65.3252 63.2587L65.3907 63.0972C65.5528 62.7259 65.7834 62.4054 65.946 62.194C66.149 61.9303 66.3777 61.6721 66.5188 61.5091C66.8452 61.1315 67.2683 60.7354 67.4842 60.5769C68.1865 60.0615 69.1685 60.2193 69.678 60.9297C70.1874 61.64 70.0312 62.6335 69.3292 63.1489C69.3652 63.1225 69.3702 63.1161 69.3282 63.1531C69.2969 63.1807 69.2529 63.2207 69.2014 63.27C69.096 63.3708 68.9796 63.4898 68.8833 63.6011C68.8138 63.6815 68.7475 63.7567 68.6849 63.8297C68.6924 63.8368 68.6997 63.8442 68.7074 63.8514C68.8423 63.9789 69.0309 64.1525 69.1789 64.2964C69.6933 64.7963 70.0047 65.1375 70.4644 65.5389C70.8204 65.8497 71.9746 66.8284 73.4518 68.202C73.8772 68.5976 74.1828 68.8995 74.4499 69.1611C74.7161 69.4217 74.9414 69.6398 75.2303 69.8978C76.6161 71.1348 77.6095 72.1343 77.8649 72.4066C77.985 72.5348 78.3162 72.8668 78.9274 73.5303C80.1649 74.8733 81.0005 75.8899 81.205 76.1405C81.4311 76.4176 81.7737 76.7962 82.1623 77.2197C82.5338 77.6245 82.9471 78.0704 83.2586 78.4292C83.9093 79.178 84.2275 79.539 84.5054 79.8538C84.5184 79.8575 84.534 79.8636 84.5535 79.8683C84.7505 79.915 85.0914 79.9535 85.707 79.9749C85.7153 79.9713 85.7255 79.9683 85.7357 79.9634C85.8501 79.9098 86.0131 79.8136 86.2235 79.6666C86.6485 79.3693 87.1001 78.9841 87.5316 78.6185C89.0082 77.3675 89.5135 76.5489 90.1171 75.8229C90.3275 75.5698 90.5056 75.3271 90.7184 75.0315C90.9281 74.7402 91.172 74.397 91.4813 74.0021C91.6223 73.8222 91.7752 73.5369 91.8331 72.9633C91.8189 72.9493 91.8046 72.9327 91.7882 72.9168C91.6675 72.8003 91.5258 72.6684 91.3341 72.4884C91.0694 72.2399 90.6954 71.9087 90.2694 71.5293C89.8536 71.1589 89.3963 70.7504 88.9962 70.3757C88.3258 69.7481 87.787 69.2151 87.3567 68.7856C86.9113 68.3409 86.6222 68.0488 86.4036 67.8482C86.0698 67.542 85.7344 67.2027 84.8613 66.317C83.934 65.3763 83.171 64.5594 82.6184 63.9591C82.3448 63.6617 82.1168 63.4106 81.9578 63.2369C81.7611 63.0222 81.721 62.9837 81.7471 63.0073C81.0276 62.3587 80.1895 61.3048 79.5298 60.5438C79.3246 60.3072 78.9554 59.991 78.4989 59.6447C78.0519 59.3056 77.6368 59.0221 77.3177 58.7943C76.3585 58.1096 75.7708 57.6214 75.6189 57.5093C75.524 57.4392 75.3372 57.3434 75.1219 57.2496C75.1119 57.2623 75.1022 57.2749 75.0933 57.2868C75.0509 57.3436 75.0384 57.3611 75.0268 57.379C75.0179 57.3926 75.002 57.4189 74.9757 57.471C74.5811 58.2525 73.6342 58.5621 72.8617 58.1632C72.0893 57.764 71.7832 56.8072 72.1775 56.0256C72.3408 55.7021 72.4814 55.5119 72.5876 55.3697L72.5886 55.3676C72.8268 55.0493 73.1851 54.6488 73.6123 54.2927L73.8383 54.1043L74.1156 54.0102Z" fill="black"/>
</svg>
