<svg width="100" height="100" viewBox="0 0 100 100" fill="none" xmlns="http://www.w3.org/2000/svg">
<path d="M42.9616 19.5C43.7944 19.5 44.4694 20.175 44.4694 21.0077C44.4694 21.8405 43.7944 22.5155 42.9616 22.5155C40.5005 22.5155 36.5585 22.5637 32.9993 22.6804C31.2188 22.7388 29.5461 22.8147 28.2071 22.9081C26.8 23.0064 25.9328 23.1153 25.6393 23.1997C25.2304 23.3172 24.9076 23.4607 24.694 23.611C24.325 23.8706 23.9702 24.4414 23.7909 25.5634C23.6158 26.6593 23.6511 28.0321 23.8174 29.5242C23.9821 31.0017 24.2653 32.5146 24.5438 33.8698C24.8123 35.1768 25.0988 36.4331 25.226 37.2347C25.4043 38.3584 25.5124 39.4677 25.6245 40.6262C25.7375 41.7932 25.856 43.0306 26.0555 44.4711C26.2843 46.1245 26.2398 47.6678 26.3823 53.1957C26.516 58.382 26.4416 67.6904 26.6513 72.761C26.756 75.293 26.9089 76.4682 27.0577 77.0173C27.0623 77.0344 27.0681 77.0498 27.0724 77.0644C27.4068 77.1737 28.1128 77.3047 30.4462 77.3795C33.2106 77.4681 38.0349 77.4764 43.0481 77.4845C43.8807 77.486 44.5542 78.1617 44.5529 78.9943C44.5515 79.8268 43.8757 80.5012 43.0431 80.5C38.0555 80.4919 33.1725 80.4835 30.35 80.3931C27.5631 80.3037 26.5958 80.1405 25.7472 79.7873C25.552 79.7061 25.1515 79.5338 24.7941 79.1218C24.464 78.7412 24.2749 78.2805 24.1462 77.8056C23.8976 76.8877 23.7425 75.3942 23.6387 72.8857C23.4315 67.8755 23.4944 58.1862 23.3678 53.2742C23.2197 47.5298 23.2665 46.315 23.0684 44.8844C22.8594 43.3744 22.7353 42.0795 22.6228 40.9167C22.5094 39.7453 22.4094 38.7264 22.2478 37.7079C22.1346 36.9946 21.8841 35.9072 21.5901 34.4764C21.306 33.0937 21.0007 31.474 20.8205 29.8579C20.642 28.2562 20.5762 26.5736 20.8137 25.0873C21.047 23.6274 21.6178 22.0887 22.9585 21.1452C23.5487 20.7299 24.2216 20.47 24.8059 20.302C25.4649 20.1125 26.6732 19.9919 27.9971 19.8995C29.389 19.8023 31.1033 19.7258 32.9002 19.6669C36.4962 19.5489 40.4716 19.5 42.9616 19.5Z" fill="black"/>
<path d="M77.3728 47.6576C78.2043 47.6144 78.9137 48.2534 78.9571 49.0848C79.0004 49.9163 78.3613 50.6257 77.5298 50.6692C71.5751 50.98 65.2166 51.7628 59.0569 51.7891C49.3548 51.8308 43.095 51.8305 43.0165 51.8305C42.1838 51.8305 41.5088 51.1554 41.5088 50.3227C41.5089 49.49 42.1838 48.815 43.0165 48.815C43.0919 48.815 49.3474 48.8153 59.0442 48.7736C65.1589 48.7475 71.0722 47.9864 77.3728 47.6576Z" fill="black"/>
<path d="M65.1281 33.4545C65.7139 32.8628 66.6694 32.8579 67.2611 33.4437C67.6084 33.7875 68.2415 34.5512 68.9367 35.4049C69.6553 36.2875 70.5306 37.3801 71.378 38.4273C73.0878 40.5404 74.819 42.4596 76.1849 44.0784C76.9129 44.9413 77.3976 45.4157 77.9969 46.1005C78.4676 46.6384 79.0727 47.3719 79.2564 48.2581C79.5903 49.8704 78.8749 51.468 78.0214 52.7764C77.1322 54.1397 75.8669 55.5286 74.5593 56.8344C73.2491 58.1429 71.8118 59.4488 70.5838 60.6008C69.319 61.7874 68.3035 62.786 67.6939 63.5712C67.1834 64.229 66.2354 64.3487 65.5777 63.8382C64.9201 63.3275 64.8012 62.3806 65.3116 61.7228C66.09 60.7199 67.2812 59.5647 68.5205 58.402C69.797 57.2045 71.1624 55.9645 72.4283 54.7004C73.6967 53.4336 74.7822 52.2224 75.4958 51.1283C76.2451 49.9795 76.3848 49.2613 76.3037 48.8696C76.3081 48.8914 76.3023 48.8399 76.2045 48.689C76.1067 48.538 75.9562 48.3466 75.7284 48.0863C75.3517 47.6558 74.5558 46.8237 73.88 46.023C72.6157 44.5246 70.7539 42.4495 69.0338 40.3237C68.169 39.2548 67.3166 38.1911 66.5985 37.3092C65.8571 36.3987 65.3433 35.7899 65.1388 35.5875C64.5472 35.0017 64.5422 34.0463 65.1281 33.4545Z" fill="black"/>
<path d="M42.9616 19.5C43.7944 19.5 44.4694 20.175 44.4694 21.0077C44.4694 21.8405 43.7944 22.5155 42.9616 22.5155C40.5005 22.5155 36.5585 22.5637 32.9993 22.6804C31.2188 22.7388 29.5461 22.8147 28.2071 22.9081C26.8 23.0064 25.9328 23.1153 25.6393 23.1997C25.2304 23.3172 24.9076 23.4607 24.694 23.611C24.325 23.8706 23.9702 24.4414 23.7909 25.5634C23.6158 26.6593 23.6511 28.0321 23.8174 29.5242C23.9821 31.0017 24.2653 32.5146 24.5438 33.8698C24.8123 35.1768 25.0988 36.4331 25.226 37.2347C25.4043 38.3584 25.5124 39.4677 25.6245 40.6262C25.7375 41.7932 25.856 43.0306 26.0555 44.4711C26.2843 46.1245 26.2398 47.6678 26.3823 53.1957C26.516 58.382 26.4416 67.6904 26.6513 72.761C26.756 75.293 26.9089 76.4682 27.0577 77.0173C27.0623 77.0344 27.0681 77.0498 27.0724 77.0644C27.4068 77.1737 28.1128 77.3047 30.4462 77.3795C33.2106 77.4681 38.0349 77.4764 43.0481 77.4845C43.8807 77.486 44.5542 78.1617 44.5529 78.9943C44.5515 79.8268 43.8757 80.5012 43.0431 80.5C38.0555 80.4919 33.1725 80.4835 30.35 80.3931C27.5631 80.3037 26.5958 80.1405 25.7472 79.7873C25.552 79.7061 25.1515 79.5338 24.7941 79.1218C24.464 78.7412 24.2749 78.2805 24.1462 77.8056C23.8976 76.8877 23.7425 75.3942 23.6387 72.8857C23.4315 67.8755 23.4944 58.1862 23.3678 53.2742C23.2197 47.5298 23.2665 46.315 23.0684 44.8844C22.8594 43.3744 22.7353 42.0795 22.6228 40.9167C22.5094 39.7453 22.4094 38.7264 22.2478 37.7079C22.1346 36.9946 21.8841 35.9072 21.5901 34.4764C21.306 33.0937 21.0007 31.474 20.8205 29.8579C20.642 28.2562 20.5762 26.5736 20.8137 25.0873C21.047 23.6274 21.6178 22.0887 22.9585 21.1452C23.5487 20.7299 24.2216 20.47 24.8059 20.302C25.4649 20.1125 26.6732 19.9919 27.9971 19.8995C29.389 19.8023 31.1033 19.7258 32.9002 19.6669C36.4962 19.5489 40.4716 19.5 42.9616 19.5Z" stroke="black" stroke-width="0.5"/>
<path d="M77.3728 47.6576C78.2043 47.6144 78.9137 48.2534 78.9571 49.0848C79.0004 49.9163 78.3613 50.6257 77.5298 50.6692C71.5751 50.98 65.2166 51.7628 59.0569 51.7891C49.3548 51.8308 43.095 51.8305 43.0165 51.8305C42.1838 51.8305 41.5088 51.1554 41.5088 50.3227C41.5089 49.49 42.1838 48.815 43.0165 48.815C43.0919 48.815 49.3474 48.8153 59.0442 48.7736C65.1589 48.7475 71.0722 47.9864 77.3728 47.6576Z" stroke="black" stroke-width="0.5"/>
<path d="M65.1281 33.4545C65.7139 32.8628 66.6694 32.8579 67.2611 33.4437C67.6084 33.7875 68.2415 34.5512 68.9367 35.4049C69.6553 36.2875 70.5306 37.3801 71.378 38.4273C73.0878 40.5404 74.819 42.4596 76.1849 44.0784C76.9129 44.9413 77.3976 45.4157 77.9969 46.1005C78.4676 46.6384 79.0727 47.3719 79.2564 48.2581C79.5903 49.8704 78.8749 51.468 78.0214 52.7764C77.1322 54.1397 75.8669 55.5286 74.5593 56.8344C73.2491 58.1429 71.8118 59.4488 70.5838 60.6008C69.319 61.7874 68.3035 62.786 67.6939 63.5712C67.1834 64.229 66.2354 64.3487 65.5777 63.8382C64.9201 63.3275 64.8012 62.3806 65.3116 61.7228C66.09 60.7199 67.2812 59.5647 68.5205 58.402C69.797 57.2045 71.1624 55.9645 72.4283 54.7004C73.6967 53.4336 74.7822 52.2224 75.4958 51.1283C76.2451 49.9795 76.3848 49.2613 76.3037 48.8696C76.3081 48.8914 76.3023 48.8399 76.2045 48.689C76.1067 48.538 75.9562 48.3466 75.7284 48.0863C75.3517 47.6558 74.5558 46.8237 73.88 46.023C72.6157 44.5246 70.7539 42.4495 69.0338 40.3237C68.169 39.2548 67.3166 38.1911 66.5985 37.3092C65.8571 36.3987 65.3433 35.7899 65.1388 35.5875C64.5472 35.0017 64.5422 34.0463 65.1281 33.4545Z" stroke="black" stroke-width="0.5"/>
</svg>
