<svg width="100" height="100" viewBox="0 0 100 100" fill="none" xmlns="http://www.w3.org/2000/svg">
<path d="M62.3242 50.7972C64.3578 50.746 67.7062 50.7292 70.3663 50.8248C73.031 50.9204 74.962 51.1228 76.006 51.2835C76.4833 51.3571 76.9058 51.4375 77.2304 51.5657C77.4034 51.6341 77.6826 51.7664 77.928 52.0305C78.1446 52.2634 78.2534 52.5089 78.3095 52.7004L78.35 52.872L78.3817 53.0506C78.4573 53.5245 78.5401 54.4905 78.4785 57.9956C78.415 61.6117 78.2403 68.2408 78.108 71.6269C78.0427 73.295 77.9862 74.2453 77.9112 74.7999C77.876 75.0605 77.8201 75.3854 77.68 75.6868C77.4786 76.12 77.1858 76.3442 77.013 76.4594C76.5472 76.7696 75.961 76.963 74.4238 77.3354C72.8101 77.7265 70.0037 78.3394 68.5025 78.6546C67.7609 78.8104 67.2501 78.9136 66.6496 78.9624C66.0704 79.0095 65.4311 79.0042 64.4241 78.99C62.3693 78.961 58.5667 78.8872 56.5796 78.8213C55.6007 78.7888 55.0187 78.7605 54.6596 78.7246C54.3053 78.6892 53.912 78.6295 53.5201 78.3616C53.1721 78.1236 52.6451 77.6989 52.3353 76.9586C52.0372 76.2462 51.8194 75.3503 51.776 71.2805C51.7362 67.5627 51.733 60.7269 51.7315 57.2822C51.7311 56.2268 51.7547 55.3245 51.8768 54.5947C52.0017 53.8472 52.2595 53.0855 52.8798 52.4882C53.4781 51.9123 54.2251 51.6757 54.8829 51.5351C55.5339 51.396 56.3638 51.3027 57.2556 51.1879L57.2793 51.1849L57.3031 51.1829C58.293 51.0867 59.63 50.865 62.3242 50.7972ZM34.2026 51.1711C35.7357 51.188 36.8905 51.2213 37.4933 51.2076C39.8964 51.1528 42.4109 51.1196 44.0026 51.2885C45.0281 51.3973 45.7847 51.5104 46.324 51.6437C46.5908 51.7097 46.8709 51.7965 47.1254 51.9239C47.3301 52.0264 47.6579 52.2236 47.9002 52.5859L47.998 52.7516L48.0741 52.9154C48.2408 53.3183 48.3316 53.8568 48.3983 54.5384C48.4815 55.3913 48.5423 56.6924 48.5445 58.6921C48.548 61.791 48.4704 66.9501 48.3815 69.7059C48.3374 71.0685 48.2989 71.8834 48.251 72.3944C48.2027 72.91 48.1322 73.2964 47.9259 73.6879C47.4409 74.6077 46.6232 75.6637 45.317 75.9384C44.797 76.0477 44.2884 76.1463 42.5303 76.6064C41.3196 76.9231 39.174 77.4812 38.0111 77.7716C37.4412 77.9138 37.016 78.0166 36.517 78.0695C36.0392 78.1201 35.5214 78.1219 34.7598 78.1198C33.2017 78.1155 30.2913 78.088 28.463 77.9827C27.6198 77.9341 26.8687 77.8973 26.2909 77.8002C25.6862 77.6984 24.9812 77.49 24.4271 76.8865C23.6055 75.9917 23.1075 75.1696 22.8153 74.1812C22.5505 73.2849 22.4734 72.2846 22.3687 71.2036C22.2005 69.4685 21.8693 66.1979 21.6957 62.906C21.522 59.6133 21.5073 56.4066 21.5 54.8177C21.4956 53.8327 22.0588 53.1356 22.6335 52.7131C23.1818 52.3102 23.8637 52.052 24.518 51.8715C25.8445 51.5059 27.5559 51.3308 29.2358 51.244C30.9391 51.1561 32.7122 51.1546 34.2026 51.1711ZM70.2575 53.8538C67.6753 53.7609 64.3905 53.777 62.4003 53.8271C59.8861 53.8904 58.7533 54.0829 57.643 54.1931L57.644 54.1941C56.6488 54.3222 56.009 54.3941 55.5183 54.4989C55.1479 54.5782 55.0215 54.6473 54.9916 54.6667C54.9727 54.6976 54.9188 54.8082 54.8711 55.0939C54.7954 55.5463 54.7668 56.2175 54.7673 57.2812C54.7688 60.733 54.7722 67.5494 54.8118 71.248C54.849 74.7378 55.028 75.5055 55.1063 75.7174C55.3817 75.7383 55.8543 75.765 56.6805 75.7924C58.6383 75.8573 62.4178 75.9302 64.4666 75.9591C65.5112 75.9738 65.997 75.9744 66.4035 75.9414C66.7884 75.9101 67.1244 75.847 67.8779 75.6888C69.3681 75.3758 72.1385 74.7695 73.7074 74.3894C74.296 74.2468 74.6809 74.14 74.9377 74.0638C74.9788 73.6021 75.0236 72.8262 75.0751 71.5085C75.2065 68.1492 75.3805 61.5425 75.4436 57.9423C75.4781 55.9861 75.4635 54.8868 75.4388 54.2631C74.5078 54.1261 72.7393 53.9429 70.2575 53.8538ZM34.169 54.202C32.6983 54.1858 31.0005 54.188 29.3929 54.271C27.7619 54.3553 26.3218 54.5186 25.3264 54.7929C24.9352 54.9008 24.6836 55.0074 24.5368 55.089C24.5449 56.7497 24.5678 59.7163 24.7275 62.7462C24.897 65.9587 25.2208 69.1588 25.3906 70.9115C25.5092 72.135 25.5656 72.7756 25.7276 73.3238C25.8575 73.7631 26.0704 74.176 26.6032 74.7692C26.64 74.7797 26.7016 74.7948 26.7959 74.8107C27.1659 74.8729 27.7001 74.9027 28.6379 74.9566C30.3722 75.0566 33.2047 75.0846 34.7688 75.0889C35.568 75.0911 35.9129 75.0854 36.1958 75.0554C36.4572 75.0277 36.6909 74.9759 37.2739 74.8304C38.4176 74.5448 40.5478 73.9914 41.7604 73.6741C43.5768 73.1988 44.1349 73.0896 44.6914 72.9726C44.669 72.9774 44.7139 72.9767 44.8229 72.872C44.9269 72.7719 45.056 72.6038 45.1974 72.349C45.2042 72.3056 45.2169 72.23 45.2281 72.1112C45.266 71.7065 45.3023 70.9821 45.3467 69.6082C45.4344 66.8884 45.5121 61.7627 45.5087 58.6951C45.5065 56.7424 45.4473 55.5498 45.3772 54.8335C45.3659 54.7172 45.3506 54.6165 45.3397 54.5306C44.989 54.4621 44.4604 54.3843 43.6814 54.3016C42.3247 54.1578 40.0253 54.1814 37.5625 54.2375C36.8933 54.2527 35.5964 54.2178 34.169 54.202ZM54.5459 21.003L55.4353 21.0405C56.4989 21.0781 58.1529 21.1191 61.0099 21.1776C64.8021 21.2552 70.558 21.3615 73.484 21.4637C74.9301 21.5143 75.7493 21.5644 76.2244 21.6265C76.4367 21.6543 76.7306 21.7012 77.0051 21.8219C77.1694 21.8942 77.3643 22.0085 77.5436 22.1918C77.6323 22.2825 77.6995 22.3734 77.7472 22.4464L77.8341 22.5944L77.9054 22.7473C78.0507 23.1006 78.0622 23.4396 78.0634 23.7695C78.065 24.176 78.0392 24.867 77.9735 26.091C77.8399 28.5832 77.5484 33.1675 77.3756 36.6972C77.2041 40.2043 77.1557 42.5255 77.1158 43.7733C77.0967 44.3677 77.0823 44.7682 77.0575 45.0263C77.0371 45.2377 76.989 45.8002 76.5228 46.2577C76.2758 46.4999 75.9437 46.7029 75.6562 46.8556C75.3344 47.0264 74.9411 47.2006 74.495 47.3568C73.7019 47.6344 72.7077 47.7749 69.2565 47.7761C66.3402 47.7771 61.0273 47.8263 58.0798 47.6439C56.3765 47.5385 55.2757 47.4435 54.5746 47.3311C54.2336 47.2765 53.8872 47.2033 53.5844 47.0785C53.2725 46.9499 52.8007 46.6812 52.5447 46.1146C52.2033 45.3582 52.0648 44.5183 52.018 40.7651C51.9732 37.156 51.92 30.3835 51.8936 26.9987C51.8908 26.6496 51.8636 26.2474 51.8401 25.6954C51.8187 25.1882 51.8042 24.5935 51.849 24.029C51.891 23.5008 51.9965 22.8037 52.3432 22.2066C52.5295 21.886 52.809 21.5543 53.2178 21.3157C53.5837 21.1024 53.982 21.0055 54.3769 21L54.5459 21.003ZM27.3423 21.1312C29.3643 21.1312 34.3633 21.2793 38.8392 21.441C41.0831 21.5221 43.2081 21.6067 44.7794 21.6788C45.5637 21.7148 46.2167 21.7484 46.6788 21.7765C46.9075 21.7904 47.1017 21.8033 47.245 21.8159C47.313 21.822 47.3911 21.8297 47.4624 21.8396C47.4935 21.844 47.5585 21.8541 47.6323 21.8712C47.6657 21.8789 47.7445 21.8977 47.8389 21.9333C47.8859 21.9512 47.9709 21.9856 48.0692 22.0429C48.1474 22.0885 48.356 22.2172 48.5356 22.4651L48.5771 22.5214L48.6127 22.5816C48.7437 22.803 48.8039 23.0208 48.8321 23.1351C48.8662 23.2738 48.8889 23.4171 48.9061 23.5524C48.9408 23.8247 48.9608 24.152 48.9665 24.5223C48.9779 25.2677 48.9356 26.2794 48.8103 27.5552C48.6779 28.9033 48.4751 30.2604 48.3636 33.3566C48.2492 36.5382 48.2362 41.154 48.17 43.6491C48.1384 44.8378 48.0947 45.5487 48.0257 45.9804C47.9959 46.1665 47.9343 46.5022 47.744 46.8171C47.6267 47.0113 47.4592 47.2024 47.2302 47.3518C47.0241 47.4863 46.829 47.542 46.8092 47.5481C46.5292 47.6363 46.2819 47.6556 45.9375 47.6597C45.5985 47.6636 45.0336 47.652 44.0422 47.6193C42.14 47.5563 38.2298 47.3964 35.0484 47.2897C31.7911 47.1805 28.9832 47.1145 27.2643 47.0262C26.4633 46.9851 25.7785 46.9592 25.2948 46.903C25.0469 46.8741 24.7552 46.8281 24.4746 46.7313C24.1828 46.6305 23.8064 46.4421 23.5081 46.0682C22.8665 45.2638 22.7115 44.4266 22.5456 43.5139C22.398 42.7023 22.1771 41.3763 22.0001 38.3133C21.8258 35.299 21.6295 30.658 21.6295 27.862C21.6295 26.5044 21.64 25.4049 21.7313 24.5617C21.8186 23.7554 22.0045 22.8632 22.6118 22.182C23.2682 21.4458 24.1412 21.2511 24.8471 21.1796C25.5286 21.1106 26.417 21.1312 27.3423 21.1312ZM54.875 24.2687C54.8455 24.6396 54.8524 25.0809 54.873 25.5671C54.8917 26.0088 54.9261 26.5587 54.9294 26.975C54.9558 30.3631 55.0091 37.1272 55.0538 40.7277C55.0801 42.8387 55.1458 43.8572 55.2041 44.3584C55.7623 44.4372 56.6992 44.5219 58.2675 44.6189C61.0911 44.7935 66.2542 44.7461 69.2555 44.7451C72.7702 44.744 73.2574 44.5783 73.491 44.4965C73.7132 44.4187 73.9033 44.3344 74.0592 44.2607C74.0653 44.1042 74.0734 43.913 74.081 43.6766C74.12 42.4574 74.1695 40.0902 74.3429 36.5492C74.515 33.0312 74.8129 28.3494 74.9426 25.9282C74.9739 25.3449 74.9935 24.9015 75.0069 24.5637C74.6183 24.5408 74.0907 24.5176 73.3774 24.4927C70.4802 24.3914 64.7609 24.2855 60.9475 24.2075C57.7089 24.1413 55.9815 24.0957 54.8987 24.0516C54.8902 24.1135 54.8816 24.1855 54.875 24.2687ZM27.3423 24.1621C26.269 24.1621 25.6333 24.1461 25.1535 24.1947C25.0149 24.2087 24.9254 24.2268 24.8708 24.2401C24.841 24.3273 24.7892 24.5182 24.7493 24.8873C24.6788 25.5381 24.6653 26.4675 24.6653 27.862C24.6653 30.5702 24.8567 35.1426 25.0299 38.1387C25.2003 41.0856 25.4077 42.2888 25.5319 42.9722C25.622 43.4676 25.6845 43.7378 25.7375 43.9006C26.0891 43.9355 26.5945 43.9569 27.4204 43.9992C29.1047 44.0858 31.8358 44.1496 35.1502 44.2607C38.5407 44.3745 42.0683 44.5218 44.142 44.5903C44.5295 44.6031 44.8428 44.6108 45.0956 44.6169C45.1088 44.3442 45.1236 44 45.1352 43.5681C45.1965 41.2609 45.217 36.381 45.3299 33.2479C45.4456 30.0306 45.6625 28.5403 45.7884 27.2592C45.8933 26.1911 45.9292 25.3647 45.9296 24.7719C45.5661 24.7526 45.1317 24.7293 44.64 24.7068C43.0821 24.6353 40.967 24.5508 38.7285 24.47C34.2391 24.3078 29.2988 24.1621 27.3423 24.1621Z" fill="black"/>
</svg>
