<svg width="25" height="25" viewBox="0 0 25 25" fill="none" xmlns="http://www.w3.org/2000/svg">
<path d="M16.1458 2.08329C15.2136 2.08329 10.5266 1.66611 8.05901 1.95185C7.60319 2.00464 7.29167 2.4052 7.29167 2.86406V7.29157H1.5625C1.73611 10.9374 2.08333 18.6457 2.08333 20.3124C2.08333 21.9791 3.81944 23.0902 4.6875 23.4374H20.8333L22.3958 20.3124V2.08329H16.1458Z" fill="white"/>
<path d="M18.7331 18.053C17.9921 17.8905 17.2608 17.9216 16.578 18.0146C15.9144 18.1051 15.2186 18.2678 14.6359 18.3771L14.6292 18.3787C14.1035 18.4827 13.6058 18.4951 13.0863 18.4783C12.5984 18.4624 11.9935 18.4132 11.4303 18.4131C11.145 18.4132 10.6483 18.4685 10.3507 18.8928L10.3049 18.971C10.1935 19.2094 10.1913 19.4867 10.1918 19.6178L9.9972 21.0853C9.99438 21.1066 9.99306 21.1282 9.99304 21.1497C9.99304 21.2338 9.96566 21.3756 9.90072 21.5742C9.84631 21.7406 9.29553 22.8603 9.21924 23.0407L18.7499 23.1769C18.8511 22.901 19.309 21.5344 19.3943 21.2439C19.6039 20.53 19.7674 19.7454 19.7528 19.1082L19.7353 18.8453L19.707 18.7059C19.616 18.4017 19.3617 18.2399 19.1672 18.1641C19.0642 18.1239 18.9638 18.1005 18.8944 18.0859C18.7991 18.0659 18.7877 18.0657 18.7439 18.0553L18.7331 18.053Z" fill="#8AB57F"/>
<path d="M7.245 1.27942C7.83814 0.867773 8.63776 0.845912 9.2673 0.884721C9.95412 0.927057 10.9467 0.978855 11.9783 1.03324C13.0071 1.08748 14.0737 1.14401 14.9019 1.196C16.602 1.30273 17.1465 1.37832 18.1428 1.4198C19.1188 1.46042 20.462 1.46103 21.1946 1.4554C21.5627 1.45257 21.7502 1.44821 21.8507 1.44319C21.8769 1.44188 21.8933 1.44093 21.9026 1.44014C21.9095 1.43829 21.9177 1.43528 21.927 1.43302C21.9564 1.42587 22.0121 1.41422 22.0816 1.41064C22.2489 1.40213 22.4598 1.44704 22.6381 1.60901C22.7833 1.7409 22.8459 1.89623 22.8741 1.98234C22.9051 2.07747 22.9217 2.17619 22.9331 2.26513C23.0464 3.15412 22.9821 4.3821 22.988 5.24568C22.9903 5.57791 23.031 5.98031 23.0307 8.3656C23.0304 10.7944 22.998 15.362 22.9656 17.7986C22.9495 19.0102 22.9344 19.6804 22.9076 20.0813C22.8791 20.5093 22.8336 20.6957 22.7439 20.9175C22.2843 22.0527 21.9645 22.3753 21.6544 22.9154C21.5613 23.0774 21.4643 23.2345 21.3594 23.368C21.255 23.5009 21.1126 23.65 20.9159 23.7526C20.752 23.8379 20.5757 23.8691 20.4367 23.8858C20.286 23.9039 20.1028 23.9123 19.8844 23.9153C19.4457 23.9214 18.7875 23.9057 17.8041 23.8736C15.276 23.7911 14.043 23.8444 11.4798 23.8746C9.70317 23.8956 7.19242 23.8753 5.28171 24.0994L5.28069 24.0984C4.97921 24.1392 4.09254 24.2239 3.33469 23.6691C3.09271 23.492 2.77875 23.2371 2.49545 22.9408C2.22491 22.6578 1.92093 22.2745 1.78439 21.8381C1.60908 21.2774 1.41891 20.6472 1.32968 18.7863C1.25555 17.2399 1.16121 14.4992 1.10995 12.4102C1.05864 10.3185 1.05066 8.91939 1.04688 8.21809C1.04501 7.87039 1.04285 7.69444 1.0418 7.60571C1.04134 7.56773 1.04147 7.53172 1.0418 7.50805C1.0419 7.5007 1.04188 7.48674 1.04281 7.47041C1.04344 7.45939 1.04541 7.41973 1.05502 7.37072C1.05947 7.34811 1.0899 7.17482 1.23609 7.01977C1.44051 6.8031 1.69078 6.79699 1.75184 6.79699L3.87892 6.79191C4.59592 6.79094 5.31907 6.79324 6.04261 6.80411C6.21572 6.80658 6.51529 6.80857 6.82488 6.81123C6.79998 6.39824 6.77784 6.01628 6.75774 5.71565C6.66496 4.32784 6.66323 3.95656 6.58074 3.57637C6.47639 3.09558 6.4599 2.64728 6.56853 2.24682C6.68194 1.82893 6.92088 1.50442 7.245 1.27942ZM2.46392 8.21199C2.46768 8.90979 2.47502 10.2977 2.52597 12.3746C2.57704 14.4561 2.67121 17.1856 2.74468 18.7182C2.82834 20.4633 2.99836 20.9737 3.13632 21.4149C3.17453 21.5371 3.29748 21.7286 3.51982 21.9612C3.72947 22.1805 3.97493 22.3816 4.17188 22.5258C4.42365 22.7099 4.75878 22.7233 4.99382 22.7038C4.99555 22.7016 4.99811 22.7 4.99993 22.6977C5.06938 22.6088 5.15585 22.4619 5.25526 22.2552C5.46091 21.8274 5.62942 21.3528 5.82085 20.8951C6.00486 20.4552 6.13884 20.0954 6.3366 19.6052C6.45437 19.3134 6.67606 18.864 6.81979 17.4517C6.96864 15.989 7.02969 13.556 7.04359 12.045C7.05727 10.5572 7.02295 10.0894 6.96221 9.0909C6.94637 8.83051 6.92852 8.53594 6.91033 8.22827L6.02125 8.22013C4.8281 8.2022 3.64545 8.20908 2.46392 8.21199ZM9.17982 2.2987C8.57007 2.26111 8.21456 2.33082 8.0527 2.44315C7.99955 2.48008 7.96081 2.52563 7.93572 2.61812C7.90588 2.7283 7.89067 2.93154 7.96522 3.27526C8.07714 3.79093 8.08672 4.34956 8.17172 5.62105C8.20418 6.10654 8.24493 6.79748 8.28565 7.48567C8.31757 8.02509 8.34936 8.56335 8.37619 9.00443C8.43791 10.0191 8.47474 10.5236 8.46062 12.0582C8.44672 13.5699 8.38481 16.061 8.22869 17.5951C8.06754 19.1786 7.8008 19.7612 7.64987 20.1352C7.47162 20.577 7.31287 20.9994 7.12802 21.4414C7.0102 21.723 6.84449 22.1604 6.67026 22.5614C7.33865 22.5227 8.02934 22.5025 8.70069 22.4891C8.76403 22.355 8.83391 22.2042 8.90109 22.0619C8.98453 21.8851 9.06639 21.7114 9.12997 21.5726C9.20233 21.4146 9.22867 21.3501 9.22763 21.3539C9.25405 21.273 9.26995 21.2132 9.27849 21.1728C9.28802 21.1277 9.28462 21.1239 9.2846 21.1494L9.29477 20.9928L9.48296 19.5645C9.48384 19.3948 9.49888 19.0226 9.66301 18.6714L9.67726 18.6419L9.69353 18.6134L9.73931 18.5351L9.75355 18.5096L9.77084 18.4862C10.2802 17.7601 11.0992 17.705 11.43 17.705C11.9989 17.705 12.6806 17.7562 13.1095 17.7701C13.602 17.786 14.0383 17.7722 14.4878 17.6836H14.4909L14.5051 17.6806C15.0419 17.5798 15.798 17.4067 16.4827 17.3134C17.2067 17.2147 18.0276 17.1743 18.8793 17.3601L18.8915 17.3622L18.9078 17.3662C18.9133 17.3675 18.9144 17.3679 18.9322 17.3713C18.9544 17.3756 18.9861 17.3813 19.0401 17.3927L19.2038 17.4324C19.27 17.4504 19.346 17.474 19.4246 17.5046C19.6958 17.6104 20.1444 17.8646 20.3482 18.3937L20.3859 18.5025L20.395 18.5341L20.4011 18.5656L20.4296 18.705L20.4388 18.7507L20.4418 18.7985L20.4601 19.0762L20.4612 19.0925C20.4782 19.8396 20.2897 20.7074 20.0736 21.4434C20.0262 21.6048 19.8764 22.0592 19.7297 22.4973C19.7774 22.4971 19.8226 22.4999 19.865 22.4993C20.0538 22.4967 20.1757 22.4895 20.2536 22.481C20.2934 22.4284 20.3478 22.3447 20.4255 22.2094C20.8607 21.4514 21.0149 21.4122 21.4306 20.3855C21.4476 20.3434 21.4718 20.3153 21.4937 19.9867C21.5174 19.6308 21.5334 19.0012 21.5496 17.7793C21.5819 15.3483 21.6144 10.7866 21.6147 8.36458L21.6086 6.90787C21.5974 5.80217 21.5745 5.62331 21.572 5.25484C21.5662 4.41094 21.6067 3.57035 21.5649 2.86429C21.4627 2.86577 21.3443 2.87137 21.2058 2.87243C20.4698 2.87809 19.097 2.87798 18.0838 2.83581C17.091 2.79448 16.4095 2.71019 14.8134 2.60998C13.9935 2.55851 12.9337 2.50156 11.903 2.44722C10.8751 2.39303 9.87454 2.34153 9.17982 2.2987ZM18.5803 18.7436C17.9526 18.6062 17.3135 18.6291 16.6739 18.7161C16.0396 18.8026 15.4109 18.9508 14.79 19.0681L14.7879 19.0691L14.7778 19.0712L14.7666 19.0732C14.1663 19.192 13.6086 19.2038 13.0637 19.1861C12.5167 19.1684 11.9874 19.122 11.43 19.122C11.3279 19.1221 11.2181 19.1324 11.1228 19.1647C11.0416 19.1923 10.9839 19.2303 10.9407 19.2858C10.9288 19.3162 10.9167 19.3615 10.9091 19.4221C10.9006 19.491 10.8998 19.5565 10.9 19.6154V19.6632L10.8939 19.711L10.6996 21.1789C10.6945 21.3713 10.6409 21.5881 10.5735 21.7943C10.5442 21.8839 10.4749 22.038 10.4178 22.1626C10.3759 22.2541 10.3264 22.3581 10.2754 22.4668C10.7016 22.4634 11.1026 22.4619 11.4636 22.4576C14.0018 22.4276 15.281 22.3748 17.8499 22.4586C17.9877 22.4631 18.1185 22.465 18.2425 22.4688C18.4141 21.9632 18.6581 21.2368 18.7145 21.0446C18.9176 20.3529 19.0562 19.6512 19.0441 19.1241L19.0319 18.942L19.0238 18.9043C19.0213 18.8991 19.0186 18.8907 19.0065 18.8799C18.9955 18.8702 18.9811 18.8599 18.9648 18.8504L18.9098 18.824C18.8608 18.8049 18.8044 18.791 18.7481 18.7792C18.707 18.7706 18.685 18.7664 18.6667 18.7629C18.6478 18.7593 18.6259 18.7544 18.5965 18.7477L18.5853 18.7456C18.5834 18.7452 18.5823 18.7441 18.5803 18.7436Z" fill="black"/>
<path d="M10.714 5.5382C10.4325 5.5382 10.151 5.57377 9.99011 5.71605C9.90967 5.82276 9.90967 5.96504 9.90967 6.07175V8.41934C9.90967 8.56162 9.90967 8.73947 9.99011 8.88175C10.2314 9.27302 10.9151 9.34416 11.438 9.34416H15.862C16.6262 9.34416 17.3904 9.34416 18.1545 9.27302C18.8382 9.20188 19.522 9.0596 19.9241 8.63276C20.2057 8.31264 20.2057 7.92137 20.2459 7.56567C20.2861 7.0677 20.2861 6.56972 20.3263 6.10731C20.3263 5.8939 20.3263 5.68048 20.1655 5.50263C20.0046 5.32478 19.7231 5.28921 19.4817 5.25364C17.9132 5.04022 16.3045 5.32478 14.7761 5.50263C13.3283 5.68048 12.0815 5.5382 10.714 5.5382Z" fill="#98CC98"/>
<path d="M14.6939 4.79725C16.0676 4.63739 17.6785 4.35896 19.2614 4.51344L19.5777 4.55006L19.5859 4.55107C19.6891 4.56628 19.8759 4.59091 20.0548 4.64364C20.2152 4.69095 20.4274 4.7763 20.6143 4.9478L20.6926 5.02613L20.8137 5.18279C21.0566 5.55435 21.0365 5.95451 21.0365 6.10747C21.0365 6.12801 21.0362 6.14906 21.0344 6.16952C21.016 6.38164 21.0059 6.60524 20.9958 6.8521C20.9858 7.09387 20.9755 7.35773 20.9541 7.62318C20.9535 7.63064 20.9529 7.63811 20.952 7.64556C20.9247 7.88732 20.9237 8.57233 20.4576 9.10226C20.4524 9.1082 20.4468 9.11379 20.4414 9.11955C19.8396 9.75821 18.8995 9.91027 18.2278 9.98015H18.2207C17.4183 10.0549 16.6204 10.0544 15.8617 10.0544H11.4377C11.1532 10.0544 10.7844 10.0359 10.4357 9.94862C10.1075 9.86641 9.65284 9.68762 9.38586 9.25485C9.38113 9.24717 9.37606 9.2393 9.37162 9.23145C9.2304 8.98156 9.20404 8.7075 9.19971 8.54277V5.97014C9.20473 5.81818 9.23841 5.53412 9.4235 5.28858C9.45207 5.25073 9.48462 5.21522 9.52014 5.1838C9.72802 5.00016 9.97134 4.91953 10.159 4.87965C10.3527 4.83854 10.5491 4.82777 10.7144 4.82777C12.1808 4.82778 13.2964 4.96942 14.6898 4.79827L14.6939 4.79725ZM10.6208 8.5092C10.6209 8.51093 10.6207 8.51263 10.6208 8.51429C10.6501 8.529 10.6995 8.55096 10.7805 8.57126C10.9644 8.61728 11.1995 8.63431 11.4377 8.63433H15.8617C16.439 8.63433 16.9951 8.6335 17.5432 8.60483L18.0885 8.56617C18.769 8.49475 19.1899 8.36251 19.3956 8.15418C19.4314 8.11088 19.4606 8.05705 19.4821 7.95989C19.4942 7.90487 19.5037 7.84133 19.5126 7.76051C19.5171 7.72003 19.5203 7.67886 19.5248 7.63233C19.5287 7.59218 19.5331 7.54747 19.538 7.50212C19.5565 7.27173 19.5666 7.03911 19.5767 6.79412C19.5862 6.56388 19.5957 6.32056 19.6154 6.08204C19.6153 6.04708 19.6152 6.02046 19.6143 5.99659C19.5947 5.99205 19.5717 5.98722 19.5441 5.98235C19.4941 5.9735 19.4445 5.96667 19.3783 5.95692H19.3773C17.9273 5.76147 16.4486 6.02237 14.8617 6.20716L14.8628 6.20818C13.3606 6.39267 11.9826 6.24889 10.7144 6.24887C10.6803 6.24887 10.6487 6.25066 10.6198 6.25192V8.41968C10.6198 8.45667 10.62 8.48356 10.6208 8.5092Z" fill="black"/>
<path d="M9.90975 14.3645C11.5916 14.3645 13.2732 14.3762 14.9574 14.3879C16.6422 14.3996 18.3299 14.4113 20.0284 14.4113C20.4206 14.4113 20.7384 14.7291 20.7384 15.1213C20.7383 15.5135 20.4206 15.8314 20.0284 15.8314C18.3241 15.8314 16.6314 15.8196 14.9472 15.808C13.2622 15.7963 11.5858 15.7846 9.90975 15.7846C9.5175 15.7846 9.19971 15.4668 9.19971 15.0745C9.19972 14.6823 9.51751 14.3645 9.90975 14.3645ZM19.8788 11.7613C20.2696 11.7283 20.6137 12.0186 20.6469 12.4093C20.6799 12.8001 20.3896 13.1442 19.9989 13.1774C16.6528 13.46 13.2986 13.5079 9.93925 13.2242C9.54851 13.191 9.25825 12.8469 9.29126 12.4561C9.3243 12.0653 9.66845 11.7751 10.0593 11.8081C13.3262 12.0841 16.5986 12.0384 19.8788 11.7613Z" fill="black"/>
</svg>
