<svg width="44" height="49" viewBox="0 0 44 49" fill="none" xmlns="http://www.w3.org/2000/svg">
<path d="M12.4027 5.87985C12.3597 6.09494 12.1008 6.27735 11.9642 6.42534C11.3311 7.11115 10.6944 7.81857 10.1459 8.5752C9.68289 9.21382 9.1418 9.75143 8.65382 10.3614C7.56884 11.7176 6.7308 13.2569 5.56808 14.5488C4.82857 15.3705 4.00591 16.3735 3.4717 17.3351C3.29375 17.6554 2.72409 18.1392 2.68021 18.4902C2.66055 18.6475 2.48768 18.7379 2.48768 18.9287C2.48768 19.5945 2.54578 20.2863 2.43955 20.9449C2.21814 22.3177 2.29516 23.7922 2.29516 25.1805C2.29516 27.0529 2.02723 28.9347 2.00637 30.8118C1.99204 32.1021 2.00637 33.3933 2.00637 34.6837C2.00637 35.2702 2.00637 35.8567 2.00637 36.4431C2.00637 37.1902 2.08969 37.5086 2.58929 38.1331C3.41037 39.1594 3.98162 40.3396 4.89424 41.3044C5.3127 41.7468 5.58337 42.3405 5.95313 42.8232C6.29865 43.2743 6.64408 43.6897 6.91575 44.1923C7.05268 44.4456 7.27473 44.6882 7.45054 44.9142C7.64605 45.1656 8.19559 44.8121 8.41317 44.7164C9.40734 44.2789 10.3939 43.7919 11.3385 43.2724C12.5095 42.6283 13.7924 42.1712 14.9537 41.4969C16.1274 40.8154 17.4566 40.1734 18.7025 39.6252C19.3064 39.3595 19.8844 39.1278 20.5101 38.9192C21.089 38.7263 21.6218 38.7264 21.8364 38.1277C22.1426 37.2735 22.7556 36.5463 23.2804 35.8174C24.0359 34.7681 24.83 33.7543 25.58 32.6996C26.7184 31.0987 27.8254 29.4128 29.0507 27.8811C29.4031 27.4407 30.1421 26.8909 30.3824 26.3837C30.6035 25.9169 30.3837 24.967 30.3289 24.4799C30.2422 23.7091 30.1716 22.9397 30.0936 22.1696C29.9396 20.6494 29.6886 19.1439 29.4893 17.6292C29.3931 16.8986 29.5025 16.1789 29.3021 15.4633C29.1939 15.077 29.1442 14.651 29.0561 14.2547C28.9276 13.6765 28.7673 13.1147 28.7673 12.522C28.7673 11.7437 27.5319 11.7428 26.9383 11.5593C24.7419 10.8804 22.5107 10.5367 20.3978 9.58595C18.9453 8.93231 17.3689 8.41855 16.0393 7.51631C15.0432 6.84039 14.0405 5.97657 12.884 5.59106" stroke="black" stroke-width="3" stroke-linecap="round"/>
<path d="M12.8844 5.59099C13.5512 5.59099 14.0206 4.82165 14.4567 4.4091C15.1174 3.78409 15.8347 3.19243 16.4408 2.5106C16.671 2.25153 16.8814 2.06609 17.1413 1.85815C17.2769 1.74972 17.7635 1.83676 17.9114 1.83676C18.6423 1.83676 19.3732 1.83676 20.1041 1.83676C22.7134 1.83676 25.3203 2.19287 27.9388 2.02394C28.417 1.99308 29.0845 1.78391 29.5592 1.9758C31.1345 2.61263 32.6187 3.56744 34.0621 4.45723C34.8418 4.93788 35.6484 5.42153 36.4687 5.83165C36.7479 5.97128 37.1558 6.08292 37.3832 6.26483C37.56 6.40629 37.6426 6.92876 37.7415 7.13119C38.0765 7.81689 38.3924 8.49993 38.6827 9.20618C39.149 10.3404 39.8578 11.3404 40.4154 12.4256C41.0101 13.5829 41.6042 14.6849 41.961 15.9338C42.0216 16.1461 42.0115 16.2008 41.9342 16.4793C41.5482 17.8719 41.1424 19.251 40.8219 20.6614C40.3441 22.7637 40.0691 24.8985 39.6667 27.0147C39.3936 28.4513 39.005 29.8712 38.8752 31.3305C38.8134 32.0267 38.4902 32.768 38.4902 33.4589C38.4902 33.7393 38.0946 33.9454 37.9233 34.1167C36.7188 35.3212 35.6345 36.6096 34.5434 37.9137C33.1842 39.5384 31.3732 40.7128 29.7517 42.053C28.1724 43.3584 26.4652 44.4004 24.8209 45.588C24.3607 45.9204 23.9596 46.3875 23.4733 46.6736C23.0024 46.9506 22.2135 46.7913 21.6657 46.7913C20.2467 46.7913 18.8277 46.7913 17.4087 46.7913C16.2009 46.7913 14.9937 46.8576 13.8256 46.5239C12.889 46.2563 11.8568 46.074 10.9538 45.6789C10.4805 45.4718 9.9876 45.3779 9.51522 45.1548C9.07711 44.9479 8.54992 44.866 8.07129 44.866" stroke="black" stroke-width="3" stroke-linecap="round"/>
<path d="M30.2114 26.7688C31.5063 26.7688 32.4542 27.4582 33.4843 28.2074C34.206 28.7322 34.9753 29.2566 35.7198 29.7529C36.1577 30.0449 36.5879 30.3539 36.9979 30.6728C37.2832 30.8947 37.9519 31.1797 38.1049 31.4857" stroke="black" stroke-width="3" stroke-linecap="round"/>
<path d="M28.96 11.848C30.024 11.848 31.0494 10.8104 31.9227 10.2864C32.7351 9.799 33.4945 9.19443 34.249 8.62856C34.8694 8.16329 35.4926 7.71784 36.1315 7.27554C36.4934 7.02497 36.9102 6.965 37.2385 6.74609" stroke="black" stroke-width="3" stroke-linecap="round"/>
</svg>
