<svg width="40" height="43" viewBox="0 0 40 43" fill="none" xmlns="http://www.w3.org/2000/svg">
<path d="M31.6764 30.6581L33.9381 29.3784L36.3686 29.3275L38.9204 32.0306L38.7281 35.9953L35.9078 39.721L33.4294 42.2894L28.3488 40.8113L24.3834 38.5909L22.8479 35.5475L24.1185 32.34L27.0444 31.2151L29.7025 32.1216L30.3762 32.6118L31.0884 31.5063L31.6764 30.6581Z" fill="#D61F30"/>
<path d="M39.1742 13.1175C39.1668 7.7547 34.9901 3.35948 30.0897 1.77359C24.0044 -0.195741 15.9785 0.0897038 10.1677 2.83137C3.12497 6.15481 0.912581 13.4348 0.830137 20.6954C0.76247 26.6648 1.35825 42.3872 10.2265 42.4992C16.8158 42.5828 17.797 34.0922 20.8459 30.003C23.0151 27.0938 25.8081 26.272 29.2462 25.4211C35.1554 23.9585 39.1828 19.295 39.1742 13.1175Z" fill="black"/>
</svg>
