<svg width="26" height="28" viewBox="0 0 26 28" fill="none" xmlns="http://www.w3.org/2000/svg">
<path d="M11.065 1.10978C11.739 0.699645 12.5642 0.614868 13.3377 0.614868C13.7388 0.614868 14.1633 0.698496 14.5428 0.829828C15.1094 1.02591 15.7283 1.18003 16.2179 1.5297C16.6608 1.84598 17.2093 2.26639 17.523 2.71948C17.6639 2.92295 17.8025 3.11147 17.9031 3.34436C18.0311 3.64073 18.1954 4.03034 18.3781 4.29418C18.5861 4.59462 18.6202 5.03275 18.7281 5.37898C18.8287 5.70173 18.8731 6.06977 18.8731 6.40879C18.8731 7.00298 18.9279 7.70994 18.7181 8.27344C18.4461 9.00432 18.209 9.73055 17.8281 10.423C17.7073 10.6426 17.459 10.8811 17.278 11.0529C16.9834 11.3327 16.6097 11.4708 16.2604 11.6628C15.8425 11.8926 15.3782 12.0076 14.9278 12.1577C14.4439 12.319 14.0223 12.3127 13.5177 12.3127C12.8625 12.3127 12.2402 12.2997 11.6051 12.2227C9.39444 11.9548 7.59845 10.1683 7.19726 7.991C7.06861 7.29279 7.16756 6.45145 7.28476 5.76141C7.36929 5.26379 7.52891 4.8334 7.66729 4.34917C7.73334 4.11808 7.83815 3.90896 7.98232 3.71679C8.10078 3.55888 8.15078 3.35142 8.27734 3.20189C8.53146 2.90164 8.87016 2.68977 9.1349 2.40953C9.40594 2.12263 9.79658 1.7753 10.14 1.58219C10.4429 1.41184 10.7711 1.28867 11.065 1.10978Z" fill="#E59697"/>
<path fill-rule="evenodd" clip-rule="evenodd" d="M10.7449 0.584531C11.5693 0.0828801 12.538 0 13.3373 0C13.8185 0 14.3113 0.0992104 14.7435 0.248774C14.8325 0.27959 14.9305 0.311213 15.0346 0.344847C15.5027 0.495992 16.0965 0.687743 16.5749 1.02933C17.0115 1.34113 17.6456 1.81695 18.0282 2.36946C18.0419 2.38929 18.0563 2.40986 18.0712 2.43116C18.1937 2.60646 18.3508 2.83126 18.4672 3.1006L18.4738 3.11599C18.6097 3.4307 18.7458 3.74564 18.8832 3.94417C19.0527 4.18886 19.1345 4.46281 19.1865 4.66912C19.2137 4.77711 19.2321 4.85984 19.2479 4.93142C19.2694 5.02839 19.2864 5.10491 19.3148 5.19603C19.4377 5.59035 19.4877 6.02215 19.4877 6.40887C19.4877 6.49046 19.489 6.58347 19.4905 6.68305C19.4936 6.89969 19.4973 7.14747 19.4883 7.37667C19.4748 7.72432 19.4321 8.11706 19.294 8.48802C19.2495 8.60777 19.205 8.73011 19.1598 8.8544C18.9409 9.45603 18.7056 10.1031 18.3664 10.7195C18.1959 11.0294 17.8828 11.3265 17.7172 11.4836C17.7117 11.4888 17.7063 11.494 17.7011 11.4989C17.4969 11.6928 17.2758 11.8275 17.0805 11.9325C16.991 11.9806 16.9007 12.0257 16.8197 12.0661L16.7997 12.0761C16.7104 12.1206 16.6317 12.1603 16.5563 12.2018C16.1759 12.4109 15.7459 12.5449 15.3907 12.6556C15.2948 12.6855 15.2044 12.7137 15.1218 12.7412C14.5585 12.9289 14.0595 12.9283 13.5931 12.9278C13.5677 12.9277 13.5425 12.9277 13.5173 12.9277C12.8562 12.9277 12.2038 12.9148 11.5307 12.8333C9.03739 12.5311 7.03909 10.5286 6.59207 8.10251C6.44212 7.2887 6.56003 6.35348 6.67808 5.65851C6.74594 5.25896 6.8634 4.87751 6.96945 4.53306C7.00719 4.41049 7.04349 4.29262 7.07559 4.18027C7.16268 3.87557 7.30166 3.59888 7.48998 3.34784C7.50473 3.32819 7.51976 3.29951 7.57147 3.19124C7.57252 3.18904 7.5736 3.18678 7.57469 3.18448C7.6157 3.09854 7.68923 2.94445 7.80752 2.80469C7.97201 2.61034 8.15698 2.45267 8.30634 2.32729C8.32055 2.31536 8.33443 2.30373 8.34798 2.29237C8.4883 2.17476 8.59438 2.08585 8.68746 1.98732L9.13448 2.40961L8.68746 1.98732C8.97771 1.68008 9.41751 1.2828 9.83813 1.04626C9.99467 0.958228 10.1562 0.881658 10.2953 0.815779C10.311 0.808333 10.3264 0.801023 10.3415 0.793849C10.4986 0.719209 10.628 0.655683 10.7449 0.584531ZM13.3373 1.2299C12.5896 1.2299 11.9079 1.31657 11.3843 1.63518C11.2073 1.74292 11.0256 1.83043 10.8694 1.90469C10.8545 1.91178 10.8398 1.91875 10.8253 1.92561C10.6803 1.99443 10.558 2.05247 10.441 2.11827C10.1748 2.26796 9.83333 2.56533 9.5815 2.83191C9.43588 2.98605 9.27314 3.12208 9.14184 3.23183C9.12647 3.24468 9.11153 3.25717 9.0971 3.26928C8.9474 3.39495 8.83595 3.49333 8.74632 3.59923C8.74632 3.59923 8.74066 3.60608 8.7291 3.62648C8.71642 3.64885 8.70271 3.67643 8.68127 3.72131C8.67829 3.72756 8.67505 3.73442 8.67154 3.74182C8.63452 3.82013 8.56857 3.95959 8.47381 4.0859C8.3738 4.21921 8.30315 4.36075 8.25815 4.51823C8.21105 4.68301 8.16567 4.8303 8.12315 4.96831C8.02622 5.2829 7.94415 5.54924 7.89061 5.86447C7.77424 6.54957 7.69425 7.29703 7.8016 7.87964C8.15697 9.80826 9.75064 11.3787 11.6786 11.6123C12.2758 11.6847 12.868 11.6978 13.5173 11.6978H13.5315C14.0443 11.6978 14.3626 11.6978 14.733 11.5744C14.8653 11.5303 14.9878 11.4919 15.1028 11.4559C15.4333 11.3522 15.7019 11.268 15.9637 11.124C16.063 11.0694 16.1619 11.0198 16.2502 10.9758L16.2669 10.9674C16.3515 10.9252 16.4258 10.8881 16.4981 10.8492C16.6507 10.7672 16.7637 10.693 16.8541 10.6071C17.0555 10.4159 17.2235 10.2455 17.2888 10.1267C17.578 9.60104 17.7753 9.05997 17.9934 8.46196C18.0413 8.33054 18.0903 8.19638 18.1414 8.05902C18.213 7.86648 18.2479 7.62399 18.2594 7.32874C18.2671 7.13059 18.2642 6.94562 18.2612 6.74979C18.2595 6.64088 18.2578 6.52862 18.2578 6.40887C18.2578 6.11755 18.2189 5.81328 18.1406 5.56209L18.7277 5.37906L18.1406 5.56209C18.1001 5.43198 18.0606 5.25865 18.0296 5.12237C18.0158 5.0619 18.0037 5.00872 17.9939 4.96986C17.95 4.79544 17.9107 4.7001 17.8721 4.64436C17.6619 4.34077 17.4823 3.92328 17.3634 3.6469C17.3546 3.62656 17.3462 3.60699 17.3381 3.58828C17.2738 3.43951 17.1893 3.31774 17.058 3.12869C17.0448 3.10972 17.0312 3.09007 17.017 3.06965C16.7721 2.71599 16.3093 2.35099 15.8601 2.03022C15.5519 1.81013 15.1913 1.69204 14.7413 1.54465C14.6152 1.50337 14.4822 1.4598 14.3413 1.41104C14.0145 1.29794 13.6583 1.2299 13.3373 1.2299Z" fill="black"/>
<path d="M9.86519 14.5557C10.922 14.3617 11.7973 14.243 12.8691 14.243C13.6282 14.243 14.4873 14.1357 15.2165 14.3572C15.9227 14.5717 16.6144 14.8394 17.3152 15.047C17.4721 15.0935 17.5926 15.1925 17.733 15.2703C17.9017 15.3638 18.0923 15.4087 18.2651 15.4937C18.6485 15.6823 19.0285 15.8724 19.419 16.047C19.9569 16.2877 20.4425 16.7011 20.8065 17.1612C21.2376 17.706 21.7056 18.1664 22.0225 18.7989C22.2926 19.338 22.6237 19.8449 22.8953 20.3871C23.1159 20.8273 23.3884 21.2397 23.6388 21.6625C24.0899 22.4243 24.9095 23.1935 24.9095 24.1365C24.9095 24.6709 24.8696 25.1642 24.5514 25.6229C24.3848 25.863 24.1454 25.9459 23.885 26.0522C23.5504 26.1888 23.2003 26.1662 22.8605 26.2581C22.3243 26.4032 21.7649 26.3921 21.2143 26.3921H16.4673C14.296 26.3921 12.0906 26.2873 9.92487 26.4467C8.64381 26.541 7.37827 26.5708 6.09291 26.5708C5.0165 26.5708 3.89829 26.6514 2.82792 26.5162C2.34626 26.4554 1.91103 26.3109 1.56718 25.9678C1.3342 25.7353 1.45528 25.1894 1.45528 24.8785C1.45528 23.8708 1.63899 22.7366 2.00235 21.7965C2.40799 20.7471 2.76665 19.5698 3.58387 18.7543C3.93951 18.3994 4.18252 17.9169 4.47658 17.5086C4.91573 16.8989 5.60591 16.5733 6.17995 16.119C6.68967 15.7156 7.2184 15.3875 7.80871 15.114C8.44433 14.8195 9.17803 14.6818 9.86519 14.5557Z" fill="#E59697"/>
<path fill-rule="evenodd" clip-rule="evenodd" d="M14.0551 13.6022C14.4775 13.6031 14.945 13.6322 15.3949 13.7689C15.7443 13.875 16.0889 13.9933 16.4208 14.1072L16.4672 14.1231C16.8172 14.2432 17.1536 14.3579 17.4896 14.4575C17.6403 14.5021 17.7609 14.5685 17.846 14.6194C17.9006 14.6521 17.9301 14.671 17.9532 14.6858C17.9785 14.702 17.9962 14.7134 18.0309 14.7326C18.0701 14.7544 18.1203 14.775 18.2111 14.8087C18.2192 14.8117 18.2279 14.8149 18.2369 14.8182C18.3153 14.8471 18.4277 14.8885 18.5363 14.942C18.5885 14.9676 18.6403 14.9932 18.6918 15.0186C19.024 15.1823 19.343 15.3396 19.6698 15.4858C20.3151 15.7744 20.8757 16.258 21.2885 16.7797L20.8063 17.1613L21.2885 16.7797C21.3792 16.8943 21.4809 17.0146 21.588 17.1414C21.9199 17.5342 22.304 17.9885 22.572 18.5235C22.6979 18.7748 22.8393 19.0211 22.9913 19.2856L22.9946 19.2914C23.1427 19.5491 23.301 19.8245 23.4448 20.1117C23.5887 20.3988 23.7496 20.6616 23.9249 20.948C24.003 21.0756 24.084 21.208 24.1677 21.3493C24.2644 21.5125 24.3847 21.6825 24.5257 21.8776C24.5408 21.8985 24.5562 21.9197 24.5718 21.9412C24.6962 22.1129 24.834 22.303 24.96 22.4985C25.2413 22.9351 25.5242 23.486 25.5242 24.1366C25.5242 24.6912 25.4887 25.3504 25.0564 25.9735C24.7912 26.3558 24.4037 26.5085 24.1788 26.597C24.1566 26.6058 24.1359 26.6139 24.1172 26.6216C23.8726 26.7214 23.6351 26.7576 23.4557 26.7815C23.4202 26.7863 23.3874 26.7905 23.3566 26.7945C23.2149 26.8128 23.1191 26.8252 23.0209 26.8518C22.437 27.0098 21.8367 27.0085 21.3359 27.0073C21.2946 27.0072 21.254 27.0072 21.2141 27.0072H16.467C15.8326 27.0072 15.2033 26.9986 14.5779 26.99C13.0233 26.9688 11.493 26.948 9.96974 27.0601C8.66877 27.1559 7.38719 27.1858 6.09264 27.1858C5.82801 27.1858 5.55039 27.1914 5.26467 27.1972C4.45465 27.2135 3.57951 27.2311 2.75058 27.1264C2.19712 27.0565 1.60995 26.8796 1.13253 26.4032C0.821039 26.0923 0.807485 25.6571 0.808651 25.4492C0.809367 25.3216 0.81909 25.1959 0.826655 25.0993C0.835139 24.9908 0.840059 24.9266 0.840059 24.8785C0.840059 23.8061 1.03408 22.5953 1.42848 21.5749C1.47952 21.4429 1.53113 21.304 1.58455 21.1603C1.92592 20.2421 2.34102 19.1256 3.14922 18.3191C3.28125 18.1873 3.40318 18.0207 3.53914 17.8138C3.57647 17.757 3.61707 17.6935 3.65986 17.6266C3.75828 17.4727 3.86836 17.3006 3.97732 17.1493C4.25488 16.7639 4.60067 16.484 4.91922 16.2557C5.06073 16.1543 5.18524 16.0702 5.3016 15.9916C5.47543 15.8742 5.63108 15.769 5.79804 15.6369C6.34453 15.2044 6.91442 14.8506 7.54993 14.5561C8.26733 14.2237 9.07819 14.0749 9.75172 13.9513L9.75391 13.9509C10.8294 13.7536 11.7452 13.6282 12.8688 13.6282C13.0427 13.6282 13.2239 13.6221 13.4203 13.6156L13.4329 13.6152C13.6304 13.6086 13.8422 13.6017 14.0551 13.6022ZM13.4525 14.8451C13.2628 14.8514 13.0635 14.8581 12.8688 14.8581C11.8489 14.8581 11.0141 14.9701 9.97592 15.1606C9.27556 15.2892 8.62001 15.4158 8.06696 15.6721C7.52184 15.9246 7.03427 16.227 6.56131 16.6013C6.36733 16.7548 6.13468 16.913 5.92829 17.0534C5.82048 17.1267 5.71983 17.1951 5.6356 17.2555C5.35577 17.456 5.13689 17.6437 4.9753 17.8681C4.88594 17.9921 4.80829 18.1138 4.72087 18.2507C4.67356 18.3248 4.62339 18.4034 4.56695 18.4893C4.41898 18.7144 4.24157 18.9665 4.01797 19.1897C3.41561 19.7907 3.10323 20.6207 2.75103 21.5566C2.69408 21.7079 2.63609 21.862 2.57566 22.0183C2.24336 22.878 2.06995 23.9356 2.06995 24.8785C2.06995 24.9778 2.06124 25.0882 2.05444 25.1744C2.05388 25.1815 2.05333 25.1884 2.0528 25.1952C2.04494 25.2956 2.03896 25.3792 2.03853 25.4561C2.03822 25.5104 2.04097 25.5483 2.04432 25.5733C2.24989 25.7571 2.52218 25.8579 2.90471 25.9062C3.63753 25.9987 4.37611 25.9839 5.15619 25.9683C5.46128 25.9622 5.77272 25.9559 6.09264 25.9559C7.3688 25.9559 8.61831 25.9264 9.87945 25.8335C11.4596 25.7172 13.0736 25.7392 14.6489 25.7606C15.2623 25.769 15.8697 25.7773 16.467 25.7773H21.2141C21.2429 25.7773 21.2714 25.7773 21.2997 25.7773C21.8383 25.7776 22.2812 25.7779 22.6996 25.6646C22.8868 25.614 23.0801 25.5895 23.2225 25.5715C23.2478 25.5683 23.2714 25.5653 23.2931 25.5624C23.4574 25.5405 23.5623 25.5197 23.6523 25.4829C23.6761 25.4732 23.698 25.4643 23.7182 25.4561C23.8288 25.4113 23.8916 25.3858 23.9505 25.3525C24.0035 25.3225 24.0273 25.2993 24.0459 25.2724C24.25 24.9782 24.2943 24.6507 24.2943 24.1366C24.2943 23.8443 24.1674 23.539 23.9262 23.1648C23.8195 22.9993 23.7023 22.8375 23.5755 22.6623C23.5602 22.6412 23.5447 22.6198 23.5291 22.5983C23.3896 22.4053 23.2383 22.1935 23.1094 21.9759C23.0457 21.8684 22.9765 21.7551 22.9046 21.6377C22.7178 21.3324 22.5137 20.9988 22.3453 20.6626C22.2186 20.4098 22.0768 20.1627 21.9249 19.8983L21.9203 19.8904C21.7727 19.6334 21.6152 19.3594 21.4724 19.0745L22.0222 18.799L21.4724 19.0745C21.2751 18.6807 21.0282 18.3883 20.7273 18.032C20.6023 17.8839 20.468 17.7248 20.324 17.5428L20.784 17.1789L20.324 17.5428C20.0088 17.1444 19.5982 16.8011 19.1676 16.6085C18.8181 16.4521 18.4765 16.2837 18.1458 16.1206C18.0947 16.0954 18.044 16.0704 17.9934 16.0456C17.9452 16.0218 17.8932 16.0025 17.8026 15.969L17.7834 15.9618C17.6935 15.9285 17.564 15.88 17.4346 15.8083C17.3847 15.7806 17.3396 15.7528 17.3041 15.7306C17.2935 15.7239 17.284 15.718 17.2754 15.7125C17.2516 15.6976 17.2337 15.6863 17.2141 15.6746C17.1646 15.6449 17.1464 15.6385 17.1403 15.6367C16.7756 15.5287 16.4156 15.4057 16.068 15.2864L16.0284 15.2728C15.691 15.157 15.3652 15.0452 15.0375 14.9457C14.7583 14.8609 14.4316 14.8329 14.0524 14.8321C13.8645 14.8317 13.6737 14.8378 13.4737 14.8444L13.4525 14.8451ZM2.05036 25.6043C2.05035 25.6043 2.05022 25.6039 2.05 25.6032C2.05025 25.6039 2.05037 25.6043 2.05036 25.6043Z" fill="black"/>
</svg>
