<svg width="24" height="24" viewBox="0 0 24 24" fill="none" xmlns="http://www.w3.org/2000/svg">
<path d="M5.49987 3.14075C5.4847 2.16491 6.20128 1.39725 7.08765 1.51064C8.0067 1.49454 8.72968 2.2554 8.62289 3.19654C8.63572 6.25356 8.85977 9.50946 10.4429 12.0417C11.6361 14.0467 13.4807 15.543 15.2925 17.1688C15.2295 15.3466 15.1665 13.5244 14.8269 11.7623C14.5853 9.61174 17.7083 9.66752 17.9826 11.6886C18.3373 14.4265 18.5375 17.2593 18.4937 20.0226C18.461 20.1521 18.4283 20.2816 18.3956 20.4111C18.5655 21.2921 18.0274 22.3882 16.9538 22.499C14.0747 22.5127 11.1389 22.2326 8.33395 21.4346C7.48025 21.1917 7.06654 20.2412 7.2626 19.4643C7.45867 18.6873 8.38648 18.1186 9.11822 18.3268C10.2158 18.6391 11.2242 18.7871 12.3544 18.9699C10.5426 17.3441 8.76345 15.5888 7.48088 13.4197C5.81727 10.1705 5.53662 6.62095 5.49987 3.14075Z" fill="#83CEEB"/>
<path d="M4.401 3.15183C4.38162 1.70589 5.48122 0.248494 7.14807 0.412575C8.64746 0.430016 9.8473 1.67966 9.72327 3.228C9.73739 6.18055 9.96504 9.04132 11.2477 11.2466L11.3756 11.4585L11.3824 11.4692L11.3883 11.479C12.0772 12.6365 13.004 13.6074 14.0699 14.5942C14.0064 13.6979 13.9113 12.8244 13.7467 11.9702L13.7389 11.9282L13.734 11.8852C13.6422 11.0679 13.867 10.3218 14.3981 9.78562C14.9062 9.27264 15.5846 9.0628 16.2086 9.06101C17.3607 9.05792 18.6725 9.78363 19.0172 11.2397L19.0729 11.5405L19.0739 11.5473C19.434 14.327 19.6382 17.2142 19.5934 20.0405L19.5914 20.1675L19.5602 20.2915C19.5443 20.3546 19.5283 20.4178 19.5123 20.4809C19.6204 21.7808 18.8256 23.4115 17.067 23.5932L17.0133 23.5991H16.9586C14.0084 23.613 10.9642 23.3266 8.03284 22.4927C6.50633 22.0582 5.88146 20.4409 6.19592 19.1948C6.3773 18.4764 6.87124 17.9215 7.41467 17.5884C7.8391 17.3282 8.38242 17.1514 8.95178 17.1889C8.06328 16.2182 7.2319 15.1606 6.53381 13.98L6.51721 13.9507L6.50159 13.9214C4.71495 10.432 4.43711 6.66286 4.40002 3.15281L4.401 3.15183ZM7.08752 1.51023C6.20123 1.39697 5.48447 2.16532 5.49963 3.14109C5.53639 6.62113 5.81758 10.1704 7.48108 13.4194C8.76365 15.5886 10.5423 17.3443 12.3541 18.9702C11.224 18.7874 10.2153 18.6389 9.1178 18.3266C8.38612 18.1188 7.45836 18.6875 7.26233 19.4643L7.23303 19.6118C7.12006 20.3572 7.53339 21.2072 8.33362 21.435C10.7879 22.1333 13.3427 22.4343 15.8717 22.4897L16.9537 22.4995C18.0274 22.3886 18.5659 21.2917 18.3961 20.4106L18.4938 20.0229C18.5321 17.6049 18.3834 15.1335 18.108 12.7192L17.983 11.6889C17.7088 9.66793 14.5854 9.61173 14.8268 11.7622C15.1663 13.5241 15.2296 15.3464 15.2926 17.1684C13.594 15.6443 11.8669 14.2339 10.6744 12.4116L10.443 12.0415C8.85998 9.50934 8.63552 6.25368 8.62268 3.19675C8.72947 2.25562 8.00657 1.49413 7.08752 1.51023Z" fill="black"/>
</svg>
