<svg width="24" height="24" viewBox="0 0 24 24" fill="none" xmlns="http://www.w3.org/2000/svg">
<path d="M4.40088 3.15183C4.3815 1.70589 5.4811 0.248494 7.14795 0.412575C8.64734 0.430016 9.84718 1.67966 9.72315 3.228C9.73727 6.18055 9.96492 9.04132 11.2476 11.2466L11.3755 11.4585L11.3823 11.4692L11.3882 11.479C12.0771 12.6365 13.0039 13.6074 14.0698 14.5942C14.0063 13.6979 13.9112 12.8244 13.7466 11.9702L13.7388 11.9282L13.7339 11.8852C13.6421 11.0679 13.8669 10.3218 14.398 9.78562C14.9061 9.27264 15.5845 9.0628 16.2085 9.06101C17.3606 9.05792 18.6724 9.78363 19.0171 11.2397L19.0728 11.5405L19.0738 11.5473C19.4339 14.327 19.6381 17.2142 19.5933 20.0405L19.5913 20.1675L19.5601 20.2915C19.5442 20.3546 19.5282 20.4178 19.5122 20.4809C19.6203 21.7808 18.8255 23.4115 17.0669 23.5932L17.0132 23.5991H16.9585C14.0083 23.613 10.9641 23.3266 8.03272 22.4927C6.50621 22.0582 5.88134 20.4409 6.1958 19.1948C6.37718 18.4764 6.87112 17.9215 7.41455 17.5884C7.83898 17.3282 8.3823 17.1514 8.95166 17.1889C8.06316 16.2182 7.23178 15.1606 6.53369 13.98L6.51709 13.9507L6.50147 13.9214C4.71483 10.432 4.43699 6.66286 4.3999 3.15281L4.40088 3.15183ZM7.0874 1.51023C6.20111 1.39697 5.48435 2.16532 5.49951 3.14109C5.53627 6.62113 5.81746 10.1704 7.48096 13.4194C8.76353 15.5886 10.5422 17.3443 12.354 18.9702C11.2239 18.7874 10.2152 18.6389 9.11768 18.3266C8.386 18.1188 7.45824 18.6875 7.26221 19.4643L7.23291 19.6118C7.11994 20.3572 7.53327 21.2072 8.3335 21.435C10.7878 22.1333 13.3426 22.4343 15.8716 22.4897L16.9536 22.4995C18.0273 22.3886 18.5658 21.2917 18.396 20.4106L18.4937 20.0229C18.532 17.6049 18.3833 15.1335 18.1079 12.7192L17.9829 11.6889C17.7087 9.66793 14.5853 9.61173 14.8267 11.7622C15.1662 13.5241 15.2295 15.3464 15.2925 17.1684C13.5939 15.6443 11.8668 14.2339 10.6743 12.4116L10.4429 12.0415C8.85986 9.50934 8.6354 6.25368 8.62256 3.19675C8.72935 2.25562 8.00645 1.49413 7.0874 1.51023Z" fill="black"/>
</svg>
