<svg width="24" height="24" viewBox="0 0 24 24" fill="none" xmlns="http://www.w3.org/2000/svg">
<g opacity="0.5">
<path fill-rule="evenodd" clip-rule="evenodd" d="M11.7395 2.73352C11.6996 2.75108 11.6358 2.79098 11.5959 2.81971C11.556 2.85004 11.4969 2.9075 11.4634 2.95059C11.4299 2.99209 11.3836 3.0703 11.3612 3.12297C11.3389 3.17564 11.3006 3.26503 11.2735 3.32249C11.2479 3.37995 11.1346 3.56989 11.0229 3.74546C10.9111 3.92103 10.793 4.10778 10.7627 4.16045C10.742 4.19455 10.6959 4.27145 10.6439 4.35826C10.6156 4.40555 10.5855 4.45577 10.5568 4.50362L10.5398 4.53253C10.4653 4.65912 10.3908 4.78576 10.3701 4.82284C10.3477 4.86274 10.3174 4.91222 10.303 4.93457C10.2871 4.95691 10.2216 5.06385 10.1562 5.17399C10.123 5.22843 10.0735 5.31018 10.0199 5.39861C9.96515 5.48904 9.90614 5.58646 9.8561 5.66878C9.75714 5.83159 9.66137 5.9896 9.64382 6.01993C9.62626 6.05026 9.54805 6.17954 9.46824 6.30723C9.4425 6.34926 9.41675 6.39112 9.39329 6.42928C9.34546 6.50704 9.30709 6.56942 9.29746 6.58655C9.28309 6.61209 9.15062 6.82757 9.00218 7.06539C8.85533 7.30321 8.71807 7.52188 8.69891 7.5522C8.67976 7.58253 8.54249 7.8012 8.39565 8.03902C8.24721 8.27684 8.11952 8.48434 8.10994 8.5019C8.10037 8.51945 8.07643 8.55776 8.05568 8.58649C8.03652 8.61362 8.02056 8.64076 8.02056 8.64555C8.02056 8.65033 7.89128 8.85783 7.73326 9.10842C7.57525 9.35901 7.44596 9.56651 7.44596 9.5713C7.44596 9.57608 7.4284 9.60322 7.40606 9.63195C7.38531 9.65908 7.36615 9.68781 7.36615 9.69579C7.36615 9.70218 7.3055 9.80433 7.23048 9.92244C7.15547 10.0406 7.09481 10.1411 7.09481 10.1459C7.09481 10.1507 7.06768 10.1954 7.03576 10.2465C7.00383 10.2959 6.89849 10.4667 6.80113 10.6247C6.70536 10.7828 6.51223 11.102 6.37177 11.335C6.23131 11.568 6.10203 11.7835 6.08447 11.8138C6.06851 11.8442 6.0302 11.9096 6.00147 11.9575C5.99422 11.9696 5.98321 11.9881 5.96952 12.0111C5.92894 12.0792 5.86482 12.1868 5.80515 12.2847C5.76133 12.3589 5.717 12.4332 5.68341 12.4894C5.65705 12.5336 5.6373 12.5666 5.62958 12.58C5.61202 12.6103 5.53062 12.7508 5.44762 12.8912C5.36462 13.0317 5.27204 13.1897 5.24331 13.2424C5.21458 13.295 5.17628 13.3637 5.15872 13.394C5.14276 13.4243 5.10126 13.4962 5.06774 13.5536C5.03422 13.6111 4.99272 13.6829 4.97676 13.7132C4.95921 13.7436 4.9209 13.8122 4.89217 13.8649C4.86344 13.9175 4.80757 14.0133 4.76927 14.0771C4.73096 14.1394 4.70063 14.1953 4.70063 14.2C4.70063 14.2048 4.67031 14.2607 4.632 14.3245C4.59369 14.3868 4.53783 14.4826 4.5091 14.5352C4.48037 14.5879 4.44366 14.6533 4.42929 14.6789C4.41631 14.702 4.36809 14.7929 4.31768 14.888L4.3016 14.9183C4.24734 15.0236 4.1819 15.1465 4.15795 15.1896C4.15468 15.1958 4.15077 15.203 4.14635 15.2113C4.11849 15.2633 4.07021 15.3533 4.03026 15.4291C3.98398 15.5168 3.92332 15.6318 3.89459 15.6844C3.86586 15.7371 3.8084 15.844 3.7669 15.9239C3.74423 15.9675 3.71441 16.0234 3.68603 16.0767C3.66247 16.121 3.63991 16.1633 3.62325 16.1952C3.58495 16.2654 3.4828 16.4633 3.3966 16.6341C3.30882 16.8049 3.18911 17.0379 3.13165 17.1529C3.07419 17.2678 2.99917 17.421 2.96406 17.496C2.94316 17.5407 2.91831 17.5943 2.89691 17.6406C2.88234 17.6721 2.86936 17.7001 2.86031 17.7195C2.83956 17.7674 2.78369 17.8871 2.73741 17.9828C2.69272 18.0786 2.54428 18.3819 2.40861 18.6532C2.27453 18.9246 2.14046 19.2119 2.11332 19.2917C2.08459 19.3715 2.05586 19.4609 2.04788 19.4912C2.03831 19.5215 2.02554 19.5933 2.01756 19.6508C2.00798 19.7083 2.0016 19.7721 2 19.7944C2 19.8168 2.00638 19.8742 2.01437 19.9221C2.02235 19.97 2.04629 20.0418 2.07023 20.0817C2.09257 20.1216 2.13567 20.1727 2.1644 20.1951C2.19473 20.2174 2.25538 20.2525 2.29847 20.2733C2.34317 20.294 2.41818 20.3164 2.46607 20.3228C2.51395 20.3307 2.66239 20.3483 2.79327 20.3611C2.83525 20.3651 2.88333 20.3698 2.93277 20.3746C3.03934 20.385 3.15226 20.396 3.22422 20.4026C3.2769 20.4066 3.34633 20.4121 3.41576 20.4177C3.48519 20.4233 3.55462 20.4289 3.60729 20.4329C3.65542 20.4365 3.73185 20.4425 3.81864 20.4493C3.92185 20.4574 4.03969 20.4666 4.14199 20.4744C4.33033 20.4888 4.62242 20.5047 4.78842 20.5127C4.95442 20.5191 5.34706 20.5382 5.65831 20.5542C6.14033 20.5797 6.48988 20.5845 7.99662 20.5845C9.44111 20.5845 9.91196 20.5797 10.5504 20.5542C10.9814 20.5382 11.548 20.5191 11.8113 20.5127C12.0747 20.5063 12.5057 20.4888 12.769 20.4728C13.0324 20.4584 13.4202 20.4409 13.6309 20.4329C13.7363 20.4289 13.8751 20.4233 14.014 20.4177C14.1529 20.4121 14.2917 20.4066 14.3971 20.4026C14.6077 20.393 15.0036 20.3738 15.2749 20.3595C15.5463 20.3451 15.9533 20.3275 16.1767 20.3212C16.4002 20.3132 16.82 20.2956 17.1105 20.2813C17.401 20.2669 17.8527 20.2493 18.116 20.2414C18.3794 20.2334 18.6747 20.2222 18.7704 20.2174C18.8662 20.2126 19.4695 20.1983 20.1112 20.1855C21.0944 20.1647 21.2875 20.1584 21.3482 20.136C21.3881 20.1216 21.4455 20.0977 21.4758 20.0817C21.5062 20.0674 21.562 20.0195 21.6003 19.9764C21.6387 19.9333 21.6833 19.8679 21.6993 19.8312C21.7169 19.7928 21.7376 19.7178 21.7472 19.6636C21.7552 19.6077 21.7631 19.5055 21.7631 19.4353C21.7631 19.3651 21.7552 19.2773 21.7472 19.2406C21.7376 19.2023 21.6977 19.0985 21.6578 19.0092C21.6179 18.9182 21.5764 18.824 21.5636 18.7969C21.5525 18.7697 21.5173 18.6931 21.4854 18.6261C21.4535 18.5574 21.428 18.4984 21.428 18.4936C21.428 18.4888 21.4088 18.4441 21.3865 18.3946C21.3702 18.36 21.3452 18.3055 21.3218 18.2546C21.3107 18.2305 21.2999 18.2072 21.2907 18.1871C21.2604 18.1233 21.2364 18.0674 21.2364 18.0627C21.2364 18.0579 21.1726 17.9238 21.0944 17.7642C21.0162 17.603 20.93 17.421 20.9012 17.3604C20.8741 17.2997 20.7065 16.9613 20.5309 16.6102C20.3554 16.259 20.1958 15.943 20.175 15.9079C20.1559 15.8728 20.1016 15.7722 20.0553 15.6844C20.009 15.5966 19.9484 15.4817 19.9196 15.4291C19.8909 15.3764 19.8302 15.2615 19.784 15.1737C19.7377 15.0859 19.6339 14.8991 19.5557 14.7587C19.4929 14.6481 19.4291 14.5337 19.3939 14.4704C19.3844 14.4533 19.3769 14.44 19.3722 14.4315C19.3671 14.4225 19.3616 14.4127 19.3559 14.4024C19.3362 14.3671 19.314 14.3273 19.3003 14.3038C19.2844 14.2735 19.2429 14.2016 19.2094 14.1442C19.1758 14.0867 19.1343 14.0149 19.1184 13.9846C19.1008 13.9542 19.0625 13.8856 19.0338 13.8329C19.0051 13.7803 18.9667 13.7116 18.9492 13.6813C18.9316 13.651 18.8407 13.4898 18.7465 13.3222C18.6523 13.1546 18.5135 12.9152 18.4368 12.7875C18.3602 12.6598 18.298 12.5544 18.2996 12.5528C18.2996 12.5497 18.2565 12.4794 18.2038 12.3964C18.1511 12.3134 18.108 12.2416 18.108 12.2368C18.108 12.232 18.0649 12.1602 18.0123 12.0772C17.9596 11.9942 17.9165 11.924 17.9165 11.9224C17.9165 11.9192 17.8447 11.7963 17.7553 11.6463C17.7265 11.5979 17.6981 11.5503 17.6722 11.507C17.6178 11.4159 17.5751 11.3443 17.5654 11.327C17.5577 11.3147 17.5411 11.2865 17.5201 11.2508C17.4975 11.2123 17.4698 11.165 17.4425 11.1195C17.3898 11.0317 17.2461 10.7987 17.1232 10.6008C17.0499 10.4812 16.9387 10.3014 16.8287 10.1237C16.7567 10.0074 16.6852 9.89197 16.6252 9.79475C16.4736 9.54895 16.3347 9.32869 16.3188 9.30474C16.3012 9.27921 16.2885 9.25686 16.2885 9.25207C16.2885 9.24728 16.1847 9.07809 16.057 8.87698C15.9293 8.67587 15.8256 8.50828 15.8256 8.50668C15.8272 8.50349 15.7155 8.32473 15.5782 8.10765C15.4425 7.88899 15.3308 7.70862 15.3308 7.70384C15.3308 7.69905 15.3164 7.6767 15.3005 7.65276L15.3004 7.6527L15.3004 7.65261C15.284 7.62647 15.1645 7.43527 15.0355 7.225C14.9562 7.09726 14.8651 6.94898 14.79 6.82677C14.7412 6.74741 14.6992 6.67905 14.6716 6.63444C14.6014 6.52111 14.5311 6.40459 14.5168 6.37906C14.505 6.35807 14.4447 6.26059 14.3749 6.14768C14.3597 6.12317 14.3441 6.09794 14.3284 6.0726C14.239 5.92895 14.1656 5.80924 14.1656 5.80445C14.1656 5.79966 14.1209 5.72624 14.0667 5.64165C14.0319 5.58647 13.9697 5.48551 13.9043 5.37937C13.8675 5.31971 13.8298 5.25843 13.7953 5.20272C13.7012 5.0463 13.6229 4.91541 13.6229 4.91063C13.6229 4.90584 13.5974 4.86274 13.5671 4.81486C13.5368 4.76698 13.5112 4.72388 13.5112 4.71909C13.5112 4.7143 13.4761 4.65365 13.4314 4.58342C13.3883 4.51319 13.3516 4.45254 13.3516 4.44775C13.3516 4.44296 13.3388 4.42062 13.3213 4.39668L13.3213 4.39666L13.3213 4.39664C13.3053 4.37109 13.2734 4.32004 13.2526 4.28016C13.2404 4.25838 13.1902 4.17285 13.1211 4.05527C13.0636 3.95747 12.9931 3.83748 12.9206 3.71354C12.7594 3.4406 12.6014 3.16447 12.5679 3.09903C12.5312 3.02561 12.4705 2.94261 12.4147 2.88675C12.3636 2.83567 12.279 2.77342 12.2263 2.74629C12.1386 2.70319 12.1162 2.7 11.971 2.7C11.8449 2.7 11.797 2.70798 11.7395 2.73352ZM11.9549 4.65988C11.9453 4.66626 11.8879 4.75405 11.8272 4.8546C11.8102 4.88354 11.793 4.91287 11.7766 4.94058C11.7363 5.00918 11.7018 5.06785 11.6915 5.08604C11.6772 5.11158 11.6277 5.19298 11.583 5.26481C11.5367 5.33823 11.5 5.40048 11.5 5.40526C11.5 5.41005 11.4633 5.4723 11.417 5.54413C11.3723 5.61755 11.3228 5.69895 11.3085 5.72449C11.2925 5.75003 11.1728 5.95114 11.0419 6.1714C11.0294 6.19198 11.0168 6.21293 11.0039 6.2341C10.8805 6.43787 10.7454 6.66099 10.6876 6.7492C10.6253 6.84816 10.5743 6.93275 10.5743 6.93754C10.5743 6.94233 10.4769 7.10194 10.3556 7.29188C10.2359 7.48341 10.1257 7.66218 10.1114 7.68771C10.097 7.71325 9.99167 7.88723 9.87675 8.07078C9.76183 8.25434 9.56231 8.57835 9.43303 8.78904C9.30374 8.99973 9.18084 9.19764 9.16168 9.22797C9.14253 9.2583 9.01963 9.45621 8.89034 9.6669C8.87502 9.69156 8.85866 9.71791 8.8415 9.74552C8.71207 9.95383 8.53777 10.2343 8.43066 10.4091C8.30776 10.607 8.19284 10.7938 8.17528 10.8241C8.15932 10.8544 8.13538 10.8911 8.12261 10.9039C8.11144 10.9167 8.10027 10.9326 8.10027 10.939C8.10027 10.947 8.02206 11.0763 7.92629 11.2263C7.91795 11.2397 7.90924 11.2538 7.90023 11.2683C7.80748 11.4176 7.68328 11.6175 7.61345 11.7339L7.61342 11.7339C7.53682 11.8616 7.45543 11.9972 7.43309 12.0371C7.41074 12.077 7.36126 12.1568 7.32296 12.2159C7.28465 12.2766 7.25432 12.326 7.25432 12.3276C7.25592 12.3308 7.17611 12.4649 7.07875 12.6277C6.98139 12.7905 6.90318 12.9246 6.90318 12.9262C6.90318 12.9294 6.82497 13.0603 6.7276 13.2183C6.63024 13.3763 6.55203 13.5088 6.55203 13.5136C6.55203 13.5183 6.53926 13.5407 6.5217 13.5646C6.50574 13.5902 6.46903 13.6524 6.4403 13.7051C6.41157 13.7578 6.37326 13.8264 6.35571 13.8567C6.33975 13.887 6.29825 13.9589 6.26473 14.0163C6.23121 14.0738 6.18971 14.1456 6.17375 14.1759C6.15619 14.2063 6.11788 14.2749 6.08915 14.3276C6.06042 14.3802 6.01733 14.4553 5.99339 14.4952C5.96945 14.5351 5.92635 14.6101 5.89762 14.6628C5.86889 14.7154 5.83058 14.7841 5.81303 14.8144C5.79706 14.8447 5.77632 14.8782 5.76993 14.8862C5.76355 14.8942 5.73482 14.9453 5.70609 14.9979C5.69435 15.0195 5.68022 15.0447 5.6662 15.0697C5.64588 15.106 5.62579 15.1419 5.61351 15.1655C5.60846 15.1745 5.60293 15.1845 5.59718 15.1947C5.57748 15.23 5.55528 15.2697 5.54169 15.2932C5.53399 15.3065 5.52414 15.3244 5.51375 15.3433C5.50046 15.3675 5.4863 15.3932 5.47465 15.4129C5.4555 15.448 5.4108 15.531 5.37569 15.5965C5.36036 15.6251 5.34259 15.6576 5.32572 15.6885C5.30394 15.7284 5.28363 15.7655 5.27194 15.788C5.2496 15.8279 5.2065 15.9061 5.17617 15.9636C5.14425 16.0211 5.07562 16.1503 5.02295 16.2509C5.01426 16.2675 5.00401 16.287 4.9926 16.3088C4.93482 16.4189 4.84724 16.5858 4.78193 16.7138C4.70213 16.867 4.52496 17.2197 4.38769 17.4959C4.25042 17.772 4.10997 18.0561 4.07804 18.1263C4.05675 18.171 4.02708 18.2349 3.99927 18.2948C3.9833 18.3293 3.96795 18.3623 3.95514 18.3897C3.92003 18.4647 3.86736 18.5764 3.83863 18.6371C3.82542 18.6666 3.80767 18.7048 3.78999 18.7429C3.77135 18.7831 3.75277 18.8231 3.73967 18.8526C3.71253 18.91 3.67423 18.9898 3.65348 19.0313C3.63273 19.0744 3.61517 19.1223 3.61517 19.1399C3.61517 19.1654 3.62634 19.1718 3.66625 19.1718C3.68899 19.1718 3.80577 19.1798 3.9469 19.1895C3.98403 19.192 4.02285 19.1947 4.06208 19.1973C4.25042 19.2117 4.54251 19.2293 4.70851 19.2356C4.87451 19.242 5.17298 19.2548 5.3709 19.2644C5.56882 19.2739 5.97423 19.2915 6.27271 19.3011C6.61428 19.3123 7.41872 19.3154 8.44343 19.3107C9.60381 19.3059 10.2614 19.2963 10.7339 19.2771C11.0978 19.2612 11.6197 19.2436 11.891 19.2356C12.1624 19.2277 12.4433 19.2165 12.5135 19.2117C12.5838 19.2069 12.9828 19.1878 13.3994 19.1686C13.816 19.1494 14.3235 19.1287 14.5246 19.1223C14.7258 19.1175 15.104 19.1 15.3626 19.084C15.6212 19.0696 16.0234 19.0505 16.2564 19.0441C16.4895 19.0361 16.9061 19.0186 17.1822 19.0042C17.4583 18.9882 17.9084 18.9707 18.1798 18.9643C18.2312 18.9631 18.2925 18.9617 18.3608 18.96C18.653 18.9532 19.0733 18.9433 19.3928 18.9356C19.7871 18.9244 20.135 18.9132 20.1637 18.9084C20.2084 18.9021 20.2132 18.8957 20.2052 18.8637C20.1989 18.8446 20.1414 18.7169 20.076 18.5812C20.0121 18.4456 19.9594 18.3322 19.9594 18.329C19.9594 18.3274 19.9131 18.2301 19.8573 18.1136C19.8014 17.9986 19.6482 17.6874 19.5173 17.424C19.3848 17.1607 19.2524 16.8989 19.222 16.8415C19.2099 16.8184 19.1928 16.7869 19.1741 16.7522C19.1461 16.7005 19.1144 16.6418 19.0895 16.5941C19.0559 16.5293 19.0075 16.4393 18.9716 16.3727C18.9633 16.3572 18.9557 16.343 18.9491 16.3307C18.914 16.2653 18.8453 16.136 18.7975 16.0434C18.7496 15.9508 18.6873 15.8327 18.6586 15.78C18.6299 15.7274 18.5692 15.6124 18.5229 15.5247C18.4766 15.4369 18.416 15.322 18.3873 15.2693C18.3585 15.2166 18.3138 15.1368 18.2883 15.0937C18.2801 15.0794 18.2698 15.0616 18.2586 15.0423C18.2349 15.0015 18.2073 14.9539 18.1877 14.9181C18.159 14.8655 18.1175 14.7904 18.0952 14.7505C18.0728 14.7106 18.0505 14.6707 18.0441 14.6628C18.0377 14.6548 18.017 14.6213 18.001 14.5909C17.9834 14.5606 17.9451 14.492 17.9164 14.4393C17.8877 14.3866 17.8318 14.2909 17.7935 14.227C17.7552 14.1648 17.7249 14.1105 17.7249 14.1073C17.7249 14.1058 17.6925 14.0481 17.6516 13.975L17.6435 13.9605C17.6137 13.9092 17.582 13.854 17.5585 13.813C17.5454 13.7902 17.5348 13.7718 17.5285 13.7609C17.5184 13.7434 17.5001 13.7107 17.4797 13.6743C17.465 13.6479 17.4491 13.6195 17.4344 13.5934C17.3993 13.5311 17.3578 13.4593 17.3418 13.4337C17.3274 13.4082 17.2476 13.2741 17.1662 13.1385C17.1221 13.0649 17.0788 12.9917 17.046 12.9361C17.0183 12.8893 16.998 12.8549 16.9907 12.8432C16.9763 12.8176 16.9268 12.7362 16.8821 12.6628C16.8358 12.591 16.7991 12.5287 16.7991 12.524C16.7991 12.5192 16.7081 12.3675 16.598 12.184C16.4863 12.002 16.3809 11.828 16.3634 11.7977C16.3458 11.7674 16.274 11.6477 16.2038 11.5344C16.1335 11.421 15.9532 11.1289 15.8047 10.8879C15.6547 10.6469 15.4105 10.2511 15.2621 10.0101C15.112 9.76905 14.871 9.3812 14.7274 9.14816C14.5821 8.91513 14.4512 8.70285 14.4369 8.67731C14.4225 8.65177 14.3124 8.47301 14.1927 8.28147C14.0713 8.09153 13.974 7.93192 13.974 7.92713C13.974 7.92234 13.8702 7.75316 13.7425 7.55204C13.6149 7.35093 13.5111 7.18175 13.5111 7.17696C13.5111 7.17217 13.4425 7.05884 13.3579 6.92477C13.2733 6.79229 13.0961 6.5018 12.9636 6.28313C12.8312 6.06287 12.7115 5.86175 12.6971 5.83622C12.6827 5.81068 12.6332 5.72928 12.5886 5.65585C12.5423 5.58403 12.5056 5.52178 12.5056 5.51699C12.5056 5.5122 12.4688 5.44996 12.4226 5.37653L12.4206 5.37343C12.3764 5.30229 12.3249 5.21966 12.3076 5.18819C12.3016 5.17819 12.2898 5.158 12.274 5.13091C12.2393 5.07156 12.1853 4.97909 12.1305 4.88812C12.0507 4.75564 11.9836 4.64711 11.9788 4.64711C11.974 4.64711 11.9629 4.65349 11.9549 4.65988Z" fill="#141414"/>
<path fill-rule="evenodd" clip-rule="evenodd" d="M10.6701 8.15861C10.6302 8.165 10.5488 8.19054 10.4865 8.21607C10.4243 8.24161 10.3429 8.2895 10.303 8.32142C10.2535 8.36132 10.2152 8.4124 10.1785 8.48741L10.1274 8.59755C10.137 9.45945 10.1481 9.70845 10.1657 9.8505C10.1801 9.96861 10.1992 10.1554 10.2072 10.2655C10.2152 10.3756 10.2327 10.5448 10.2471 10.6406C10.2615 10.7363 10.279 10.8656 10.287 10.9279L10.2988 11.0171C10.3054 11.0668 10.3125 11.12 10.3173 11.1593C10.3269 11.2248 10.346 11.3509 10.3604 11.4386C10.3703 11.4991 10.381 11.5724 10.3892 11.6294L10.3892 11.6294L10.3892 11.6294L10.3987 11.694C10.4051 11.7467 10.4227 11.8504 10.4386 11.9255C10.4546 12.0005 10.4721 12.1074 10.4785 12.1649C10.4865 12.2223 10.5104 12.3803 10.5344 12.516C10.5583 12.6517 10.5839 12.8097 10.5903 12.8672C10.5966 12.9246 10.6158 13.0348 10.6302 13.1146C10.6461 13.1944 10.6637 13.3045 10.6701 13.362C10.6764 13.4194 10.694 13.5296 10.71 13.6094C10.7243 13.6892 10.7435 13.8105 10.7499 13.8807C10.7563 13.9509 10.7706 14.0627 10.7802 14.1281C10.7898 14.1935 10.8089 14.3627 10.8233 14.5032C10.8304 14.5815 10.839 14.6742 10.8466 14.7561L10.8466 14.7564L10.8467 14.7565L10.8616 14.9182C10.868 15.006 10.8807 15.1001 10.8887 15.1257C10.8983 15.1512 10.9191 15.2023 10.9366 15.2374C10.9558 15.2725 10.9941 15.3252 11.0228 15.3539C11.0531 15.3827 11.1202 15.4337 11.1728 15.4656C11.2255 15.4976 11.2973 15.5295 11.3325 15.5391C11.3676 15.5471 11.6118 15.5566 11.8751 15.5598C12.2167 15.5646 12.3795 15.5614 12.4418 15.5471C12.4896 15.5359 12.5615 15.5119 12.6014 15.4912C12.6413 15.472 12.6955 15.4321 12.7227 15.4018C12.7514 15.3731 12.7897 15.3172 12.8089 15.2773C12.828 15.2374 12.8567 15.1656 12.8727 15.1177C12.8887 15.0698 12.911 14.9724 12.9206 14.9022C12.9302 14.832 12.9445 14.7059 12.9525 14.6229C12.9605 14.5399 12.986 14.3133 13.0084 14.1201C13.0323 13.927 13.0579 13.7003 13.0642 13.6173C13.0722 13.5343 13.0898 13.3827 13.1041 13.2822C13.1185 13.1816 13.1361 13.03 13.144 12.947C13.152 12.864 13.1696 12.706 13.1839 12.5958C13.1945 12.5146 13.2069 12.4098 13.2165 12.3285L13.2165 12.3284L13.2165 12.3284L13.2254 12.2527C13.2294 12.2128 13.235 12.1609 13.2406 12.109C13.2462 12.0571 13.2518 12.0053 13.2558 11.9654C13.2638 11.8856 13.2813 11.7355 13.2957 11.6302C13.31 11.5248 13.3276 11.3668 13.3356 11.279C13.3436 11.1912 13.3611 11.0364 13.3755 10.9359C13.3914 10.8353 13.409 10.6805 13.4154 10.5927C13.4218 10.5049 13.4473 10.2527 13.4713 10.0341C13.4952 9.81379 13.5207 9.56639 13.5271 9.48339C13.5335 9.40039 13.5511 9.21365 13.567 9.0684C13.591 8.85293 13.5926 8.78908 13.5782 8.71726C13.567 8.66937 13.5367 8.59755 13.5096 8.55764C13.4824 8.51774 13.4345 8.46666 13.4026 8.44432C13.3691 8.42197 13.318 8.39484 13.2877 8.38367C13.2574 8.37249 13.1568 8.35334 13.0642 8.34057C12.9717 8.3278 12.8136 8.31024 12.7131 8.30226C12.6125 8.29428 12.4402 8.27513 12.33 8.26236C12.2199 8.248 12.0363 8.23044 11.923 8.22246C11.8097 8.21607 11.5431 8.19852 11.3325 8.18415C11.2203 8.17736 11.1059 8.17011 11.0148 8.16433C10.9347 8.15926 10.8725 8.15532 10.8456 8.15383C10.7882 8.14904 10.71 8.15223 10.6701 8.15861ZM11.5559 15.8184C11.4937 15.8344 11.4123 15.8631 11.3724 15.8838C11.3325 15.9046 11.2686 15.9445 11.2287 15.9748C11.1888 16.0051 11.1202 16.0706 11.0771 16.1217C11.0324 16.1727 10.9861 16.2366 10.9733 16.2605C10.9606 16.2861 10.9382 16.3244 10.9238 16.3467C10.9095 16.3691 10.876 16.4409 10.8488 16.5063C10.8233 16.5718 10.7898 16.6659 10.7738 16.7138C10.7547 16.7777 10.7467 16.8591 10.7467 17.0091C10.7467 17.199 10.7515 17.2294 10.7962 17.365C10.8233 17.4448 10.8648 17.5454 10.8871 17.5885C10.9111 17.63 10.951 17.6922 10.9749 17.7274C10.9989 17.7625 11.0436 17.8167 11.0723 17.8487C11.101 17.879 11.1856 17.9476 11.2606 18.0003C11.3436 18.0593 11.4458 18.1152 11.524 18.1423C11.5942 18.1679 11.6916 18.195 11.7395 18.2014C11.7873 18.2094 11.8879 18.219 11.9629 18.2237C12.0459 18.2301 12.1321 18.2269 12.1864 18.2142C12.2343 18.2046 12.3428 18.1743 12.4258 18.1503C12.52 18.1216 12.6301 18.0721 12.7179 18.0194C12.8057 17.9668 12.9046 17.8886 12.978 17.8151C13.0419 17.7497 13.1265 17.6444 13.1648 17.5837C13.2031 17.523 13.2558 17.4113 13.2797 17.3363C13.3037 17.2613 13.3276 17.1496 13.3308 17.0889C13.3372 17.0155 13.3308 16.9373 13.3132 16.8623C13.2989 16.7984 13.2765 16.7154 13.2606 16.6787C13.2462 16.6404 13.2047 16.5638 13.168 16.5063C13.1313 16.4489 13.0658 16.3643 13.0227 16.3164C12.9796 16.2701 12.8903 16.1935 12.8248 16.1472C12.7594 16.1009 12.6588 16.0371 12.6014 16.0067C12.5439 15.9748 12.437 15.9269 12.3619 15.8982C12.2869 15.8711 12.1975 15.8423 12.1624 15.8359C12.1319 15.829 12.0737 15.8185 12.0244 15.8095L12.0242 15.8095L12.0241 15.8095L12.0028 15.8056C11.9501 15.796 11.8528 15.7881 11.7873 15.7897C11.7219 15.7897 11.6182 15.804 11.5559 15.8184ZM11.1937 9.43049C11.1992 9.52407 11.2075 9.665 11.2127 9.77872C11.2191 9.91918 11.2446 10.1953 11.2685 10.3932L11.2916 10.5833C11.307 10.7099 11.3201 10.8173 11.3244 10.8561C11.3308 10.9136 11.3484 11.0237 11.3643 11.1035C11.3787 11.1833 11.3978 11.2934 11.4042 11.3509C11.4106 11.4084 11.4298 11.5233 11.4441 11.6063C11.4585 11.6893 11.4776 11.8042 11.484 11.8617C11.4904 11.9191 11.5159 12.0835 11.5399 12.2288C11.5606 12.3543 11.5813 12.4917 11.5917 12.5607L11.5958 12.5879C11.6021 12.6406 11.6197 12.7443 11.6357 12.8193C11.6516 12.8943 11.6692 13.0013 11.6756 13.0587L11.6756 13.0588C11.6835 13.1162 11.6995 13.2311 11.7155 13.3141C11.7298 13.3971 11.7474 13.5264 11.757 13.6014C11.7627 13.6465 11.7696 13.7059 11.7759 13.7604L11.7759 13.7605L11.7759 13.7605L11.776 13.7606L11.776 13.7607C11.7802 13.7968 11.7841 13.8307 11.7873 13.8568C11.7953 13.9222 11.8128 14.0595 11.8288 14.1601C11.8431 14.2606 11.8575 14.3771 11.8607 14.4186C11.8655 14.4729 11.8735 14.4953 11.891 14.4953C11.9054 14.4953 11.9182 14.4745 11.923 14.4426C11.9277 14.4154 11.9389 14.3277 11.9453 14.2479C11.9533 14.168 11.9788 13.943 12.0028 13.7451C12.0267 13.5472 12.0522 13.3173 12.0586 13.2343C12.0666 13.1513 12.0842 12.9997 12.0985 12.8991C12.1129 12.7986 12.1305 12.6469 12.1384 12.5639C12.1464 12.481 12.164 12.3293 12.1783 12.2288C12.1927 12.1282 12.2103 11.9814 12.2166 11.9016C12.2246 11.8218 12.2502 11.5967 12.2741 11.3988C12.298 11.2009 12.3236 10.971 12.33 10.888C12.3379 10.805 12.3555 10.647 12.3699 10.5369C12.3842 10.4267 12.4018 10.2623 12.4098 10.1698C12.4178 10.0772 12.4353 9.91279 12.4481 9.80266C12.4624 9.69253 12.4784 9.5409 12.4848 9.46269C12.4928 9.38607 12.4944 9.32223 12.4896 9.32223C12.4848 9.32063 12.3922 9.31425 12.2821 9.30786C12.1719 9.29988 11.9676 9.28233 11.8272 9.26796C11.6867 9.2536 11.484 9.23764 11.3755 9.23285L11.1792 9.22487L11.1903 9.37331L11.1937 9.43049ZM11.7378 16.7586C11.7171 16.7745 11.6867 16.8224 11.6724 16.8655C11.6564 16.9086 11.6436 16.9692 11.6436 16.9996C11.6436 17.0315 11.6596 17.0874 11.6803 17.1273C11.6995 17.1656 11.7442 17.2198 11.7777 17.247C11.8336 17.2917 11.8511 17.2964 11.9772 17.3012C12.0794 17.306 12.1289 17.3012 12.1704 17.2821C12.2023 17.2677 12.2645 17.2214 12.3108 17.1799C12.3651 17.132 12.3986 17.0874 12.405 17.0554C12.4114 17.0203 12.4034 16.9964 12.3747 16.9597C12.3523 16.9341 12.2964 16.8878 12.2486 16.8575C12.2023 16.8272 12.1097 16.7857 12.0427 16.7649C11.9772 16.7458 11.891 16.7282 11.8495 16.7282C11.8032 16.7282 11.7633 16.7394 11.7378 16.7586Z" fill="#141414"/>
</g>
</svg>
