<svg width="24" height="24" viewBox="0 0 24 24" fill="none" xmlns="http://www.w3.org/2000/svg">
  <path
    d="M1.61268 14.9453C0.781514 11.5592 0.668217 7.97552 2.08057 6.19059C3.49293 4.40567 9.03208 0.803097 11.9826 1.00842C13.9369 1.34451 16.071 1.90782 17.9124 3.36789C20.46 5.38798 23.0661 7.86536 22.9987 11.1005C22.9255 14.619 22.7511 16.5248 21.5127 17.8978C20.0725 19.4944 16.9951 22.8567 14.4054 22.9594C12.8803 23.0199 11.2712 23.1268 9.33984 22.3021C5.84407 20.8095 2.4496 18.3548 1.61268 14.9453Z"
    fill="#00C3A9" />
  <path
    d="M11.9827 1.00889C13.937 1.34499 16.0711 1.90822 17.9124 3.36827C20.46 5.38836 23.0667 7.86553 22.9993 11.1007L22.9651 12.3468C22.8658 15.0871 22.5964 16.6963 21.513 17.8976L20.9007 18.5694C19.3115 20.284 16.6716 22.8692 14.4056 22.9591C12.9758 23.0158 11.4722 23.1139 9.69855 22.4464L9.34015 22.3019C5.95351 20.8558 2.66166 18.5072 1.69855 15.2618L1.61261 14.9454C0.807481 11.6654 0.676081 8.19962 1.95245 6.36338L2.08136 6.19053C3.49411 4.40553 9.03229 0.803762 11.9827 1.00889ZM11.8187 2.50303C11.3775 2.48599 10.7246 2.601 9.888 2.89561C9.03771 3.19504 8.1069 3.63944 7.19659 4.15733C5.32213 5.22378 3.78381 6.4557 3.25714 7.1212C2.8454 7.64155 2.54581 8.5974 2.50519 10.0108C2.46578 11.3828 2.67652 12.9865 3.06964 14.588C3.72876 17.2728 6.5297 19.4715 9.92902 20.923C11.5095 21.5978 12.7943 21.5226 14.346 21.461C15.1072 21.4309 16.1895 20.8632 17.4349 19.8331C18.6141 18.8577 19.6779 17.6928 20.3987 16.8937C20.7836 16.467 21.0466 15.9263 21.2191 15.0226C21.3997 14.0757 21.4625 12.8398 21.4993 11.0694C21.5239 9.89102 21.0695 8.78478 20.2386 7.68174C19.3964 6.56388 18.2319 5.53514 16.9808 4.54307C15.4618 3.33866 13.6624 2.8264 11.8187 2.50303Z"
    fill="black" />
  <path
    d="M16.2377 8.35361C16.5949 7.93239 17.2256 7.88033 17.6469 8.2374C18.0681 8.59453 18.1202 9.22533 17.7631 9.64658C17.4864 9.97293 17.3305 10.137 16.2612 11.1944C15.1816 12.262 13.2204 14.1907 12.2055 15.1993C11.7253 15.6864 11.5026 16.0113 11.3842 16.1983C11.3539 16.2462 11.2443 16.4309 11.1801 16.5187C11.1386 16.5754 11.0329 16.7153 10.8569 16.8282C10.6347 16.9708 10.3664 17.0301 10.0961 16.9854C9.82781 16.9411 9.63841 16.8047 9.56877 16.753C9.47725 16.6851 9.39386 16.6074 9.32658 16.5421C9.19158 16.411 9.0153 16.2238 8.80901 16.004C7.86926 15.0029 7.27764 14.4176 6.91643 14.0831C6.73596 13.916 6.62013 13.8176 6.55217 13.7638C6.50044 13.7228 6.48727 13.7166 6.50334 13.7267C6.0581 13.4719 5.87307 12.915 6.09221 12.4405C6.3238 11.9394 6.91811 11.721 7.41936 11.9522C7.56131 12.0178 7.69396 12.1176 7.79338 12.1964C7.91445 12.2923 8.07171 12.4273 8.2758 12.6163C8.66667 12.9783 9.25713 13.563 10.1449 14.505C10.3127 14.2972 10.5221 14.0579 10.7895 13.7872L10.7963 13.7804C11.8122 12.7708 13.7845 10.831 14.8549 9.77256C15.9354 8.70406 16.0275 8.60149 16.2377 8.35361Z"
    fill="white" />
</svg>