<svg width="45" height="60" viewBox="0 0 45 60" fill="none" xmlns="http://www.w3.org/2000/svg">
<path d="M25.7928 46.8568C23.6736 48.2425 21.3082 49.2231 18.7562 49.5233C17.5462 49.6657 16.3031 49.8404 14.9935 49.79C13.0707 49.716 11.1043 49.2064 9.41605 48.2567C7.35528 47.0976 5.3752 45.8605 4.09044 43.82C0.751255 38.5166 1.98887 32.3628 3.89046 26.6581C5.76326 21.0397 9.21515 15.1027 12.2974 10.0591C13.0031 8.90428 13.697 7.76778 14.4898 6.66667C15.5168 5.24029 17.0261 2.19287 18.0896 2.19287C18.6051 2.19287 20.8947 6.23243 21.719 7.39256C25.6348 12.9037 28.791 19.1189 31.7184 25.1989C32.0441 25.8754 32.3983 26.7027 32.622 27.421" stroke="black" stroke-width="3" stroke-linecap="round"/>
<path d="M7.29015 34.1912C7.29015 35.9197 7.16716 37.7917 7.89012 39.3983C8.2695 40.2413 8.69722 41.6364 9.56409 42.124C11.82 43.393 14.0883 43.3906 16.6229 43.3906" stroke="black" stroke-width="3" stroke-linecap="round"/>
<path d="M25.2225 46.0494C25.4433 45.3429 25.6587 44.6393 25.8521 43.9236C26.4284 41.7913 27.5169 39.4944 28.6223 37.5906C30.1227 35.0065 31.5555 30.6835 33.0219 27.6201C35.103 27.6201 37.8011 28.5856 39.829 28.9912C40.1901 29.0634 41.4842 29.0979 41.0808 29.7319C40.7847 30.1972 40.4007 30.6477 40.1549 31.1392C38.8251 33.7988 37.0378 36.2434 35.7922 38.9609C35.5091 39.5787 34.6808 40.7419 35.5848 41.0201C36.153 41.1949 36.7695 41.1238 37.3625 41.1238C39.1282 41.1238 40.8939 41.3904 42.6659 41.3904C43.4875 41.3904 42.5815 42.0918 42.2141 42.3903C41.4949 42.9747 40.884 43.7944 40.2216 44.4569C36.7106 47.9679 33.4663 52.1702 29.7556 55.397C29.1815 55.8962 28.6788 56.4843 28.1631 57.0413C28.0569 57.156 27.4992 57.8933 27.5631 57.382C27.645 56.7268 27.8637 55.9794 28.089 55.3599C28.8526 53.2599 29.6709 51.1984 30.5185 49.1233C30.6447 48.8144 32.0369 47.082 31.5555 46.8271C30.2304 46.1256 27.5315 46.7234 26.0891 46.7234C25.2262 46.7234 24.9605 46.8879 25.2225 46.0494Z" stroke="black" stroke-width="3" stroke-linecap="round"/>
</svg>
