<svg width="24" height="24" viewBox="0 0 24 24" fill="none" xmlns="http://www.w3.org/2000/svg">
  <path
    d="M14.3466 22.9259C11.5437 22.8053 7.24638 22.5782 4.87441 22.3229C0.800745 21.8844 0.522463 21.6514 1.42088 17.5382C1.93816 15.17 2.92245 13.4869 4.00679 11.3088C4.54123 10.2265 7.99852 3.85702 8.53864 2.8181C9.07461 1.78717 10.221 0.308004 11.592 1.36292C11.871 1.57756 12.1295 1.79463 13.7364 3.87749C15.2586 5.8504 17.3689 9.32725 18.984 11.6152C20.599 13.9032 22.5459 17.3792 22.7431 17.9907C23.5683 20.5492 22.4292 22.7119 18.984 22.9492C18.3334 22.994 17.1495 23.0464 14.3466 22.9259Z"
    fill="#FFDE45" />
  <path
    d="M8.53923 2.81874C9.07519 1.78781 10.2209 0.308768 11.592 1.36366C11.8709 1.57828 12.1296 1.79556 13.7365 3.87831C15.2586 5.85127 17.3696 9.32776 18.9845 11.6156C20.5992 13.9031 22.5454 17.378 22.7433 17.9906C23.5683 20.5489 22.4293 22.7122 18.9845 22.9496L18.3791 22.9818C17.7634 23.0051 16.8333 23.0133 15.3244 22.9633L14.3468 22.9262C11.8944 22.8207 8.29762 22.6335 5.84782 22.4174L4.87419 22.3236C1.05573 21.9126 0.572057 21.6811 1.26677 18.265L1.42107 17.5385C1.93832 15.1705 2.92277 13.4868 4.007 11.309C4.27433 10.7676 5.27216 8.90453 6.27067 7.04725L8.53923 2.81874ZM10.6115 2.53846C10.5149 2.60607 10.385 2.73016 10.2404 2.91932C10.0998 3.10339 9.97219 3.31226 9.86931 3.51014C9.28495 4.63409 5.88538 10.8924 5.35173 11.973L5.34978 11.9779C4.21772 14.2518 3.3537 15.7216 2.88689 17.8588C2.65972 18.8988 2.53461 19.5761 2.50603 20.0502C2.49555 20.2244 2.50274 20.3346 2.50993 20.3988C2.57012 20.4259 2.67718 20.4694 2.85759 20.515C3.32255 20.6325 3.99723 20.7197 5.03532 20.8314C7.35253 21.0809 11.6038 21.3074 14.4113 21.4281C17.1746 21.547 18.3008 21.4935 18.881 21.4535C20.3209 21.3543 20.9615 20.8802 21.2297 20.4906C21.4996 20.098 21.6339 19.4385 21.3156 18.4515C21.3239 18.4773 21.3104 18.4338 21.2375 18.2807C21.1737 18.1467 21.084 17.9705 20.9718 17.7572C20.7481 17.3318 20.4468 16.7864 20.0978 16.184C19.3971 14.9742 18.5311 13.5748 17.759 12.4808C16.9323 11.3098 15.9801 9.83645 15.0715 8.45155C14.1467 7.04204 13.2692 5.72783 12.549 4.79432C10.9232 2.68699 10.7771 2.62834 10.6779 2.55213C10.6619 2.53983 10.6457 2.53268 10.634 2.52479C10.6274 2.52897 10.6192 2.53305 10.6115 2.53846ZM11.3283 17.4115C11.6555 17.3774 11.9615 17.5059 12.1681 17.7308C12.2985 17.8198 12.4107 17.9399 12.4894 18.0892C12.7172 18.5215 12.698 19.096 12.2951 19.5014C11.9626 19.8357 11.5449 19.8732 11.3322 19.8676C11.0624 19.8603 10.8203 19.7815 10.6115 19.6625C10.5279 19.6148 10.3862 19.5245 10.2599 19.392C10.2071 19.3365 10.0666 19.1813 9.99431 18.9408C9.95367 18.8056 9.92605 18.6136 9.97868 18.3959C10.0335 18.1697 10.1569 17.9911 10.298 17.8656C10.6178 17.5812 11.0145 17.4443 11.3283 17.4115ZM11.0842 7.55116C11.6361 7.55138 12.084 7.99918 12.0842 8.55116V14.0512C12.0842 14.6033 11.6362 15.0509 11.0842 15.0512C10.5319 15.0512 10.0842 14.6034 10.0842 14.0512V8.55116C10.0844 7.99904 10.532 7.55116 11.0842 7.55116Z"
    fill="black" />
</svg>