<svg viewBox="0 0 871.2 870.7" xmlns="http://www.w3.org/2000/svg"><path d="m707.5 418.1-.6-7.9a133 133 0 0 0-1.3-13.9c-2.3-13.5-6-26.8-10.6-39.7-3.9-11-7.3-21-11-30.8-1-2.3-1.7-4.8-2.5-7.3-2.5-7.1-5-14.6-9.2-20.8-3.7-5.4-6.9-11-10.4-16.6-6-9.8-11.9-19.8-19.7-28.9a96.2 96.2 0 0 0-20.4-18.9 62.6 62.6 0 0 1-13.9-11.8 106.7 106.7 0 0 0-34.5-26.8 347.4 347.4 0 0 0-51.6-21 86 86 0 0 0-16-4.4c-6.9-1.2-15-2.5-22.9-4.2a139.2 139.2 0 0 0-48.7-2.9c-3.7.2-7.3.6-11 .6-5.8 0-11.6.6-17.3 1.7-9.1 2.1-18.3 3.7-27.4 5.4l-2.3.6-6 1a113 113 0 0 0-14.1 2.7c-4.8 1.3-9.4 3.1-14.1 4.8-2.9 1.2-6 2.3-8.9 3.3-13.7 4.8-27 10.8-39.5 17.9-17.1 9.6-33.3 21-48 33.9-6.7 6-12.5 12.9-17.5 20.4-3.5 5-6.7 10.2-9.8 15.2-2.5 4.2-5.2 8.5-8.1 12.5-10 15-18.5 31-25.4 47.8l-1.5 3.7c-3.7 8.7-7.5 17.9-10.8 27a196 196 0 0 0-8.5 41c-.8 6.4-1.2 12.5-1.3 18.7-.2 4.4-.4 9.1-.8 13.7-1 11.8-.4 23.5 1.5 35.3l.8 5.8c.8 6.9 2.1 13.9 3.9 20.6 5 18.3 11.6 36 19.7 53.2 9.2 19.7 21 38 31 53.8 6.6 10.2 13.9 20 21.8 29.3a88.9 88.9 0 0 0 24.9 20.4l11.9 7.1a212 212 0 0 0 13.3 7.9c3.7 2.1 7.3 4.4 11 6.6 9.6 6 19.7 11.9 30.6 16 3.7 1.3 7.3 2.9 11 4.4a104.7 104.7 0 0 0 30.5 9l5.4.8c3.1.6 6.2.8 9.2 1 2.9.2 6 .4 8.9 1 7.9 1.2 15.8 1.7 23.7 1.9 4.6.2 9.2.2 13.9.6 3.1.2 6.2.4 9.2.4 9.4 0 19.1-1 28.3-2.7 3.7-.6 7.5-1.2 11.2-1.5 6-.6 11.9-1.5 17.7-2.9 3.7-1 7.3-2.1 11-3.5l7.7-2.5a210.8 210.8 0 0 0 57-26.7c7.9-4.6 16-9.6 24.3-13.7a50 50 0 0 0 12.1-8.3 642.9 642.9 0 0 0 32.4-35.6 188 188 0 0 0 23.7-33.5c1.9-3.5 3.5-7.1 5-10.6 2.3-5 4.8-10 7.5-14.8 9.4-15.6 20.4-50.5 20.4-50.5a102 102 0 0 0 4.4-23.3c.2-3.1.6-6.2 1-9.1 1-6.4 1.3-12.9 1.3-19.5-.2-11.8-.8-22.2-1.6-32.4z" fill="#ea7657"/><path d="M647.8 309.2a17.3 17.3 0 0 0-19.3-15c-57.8 7.1-111 18.1-157.8 30.6l-7.5-45.3a17.3 17.3 0 0 0-34.1 5.5l8.1 49.1a952 952 0 0 0-99.4 35.8c-2.7-8.9-5.2-17.3-7.3-25.4-2.3-9.2-11.8-14.8-21-12.5s-14.8 11.8-12.5 21a522 522 0 0 0 9.1 31.4 426.8 426.8 0 0 0-36.6 19.8 17 17 0 0 0-5.4 23.7c3.3 5.2 8.9 8.1 14.6 8.1 3.1 0 6.4-.8 9.1-2.7 7.5-4.6 17.3-10.2 29.7-16.4 9.1 24.7 19.7 50.5 30.6 75.3a732.5 732.5 0 0 1-47.4 11.9 17.4 17.4 0 0 0-13.5 20.4 17.5 17.5 0 0 0 17 13.9c1.2 0 2.3-.2 3.5-.4 11.6-2.3 31.2-7.1 54.9-14.1 17.9 38.7 35.4 73.2 47.4 95.8a17.3 17.3 0 0 0 23.3 7c8.5-4.4 11.6-15 6.9-23.3a2091.2 2091.2 0 0 1-44.7-89.8 726.2 726.2 0 0 0 51.6-19.3l15.4-6.2 15.8 95.6a17 17 0 0 0 17 14.4c1 0 1.9 0 2.9-.2a17.3 17.3 0 0 0 14.3-19.8L495.6 477a465.3 465.3 0 0 1 74.9-17.1 17.4 17.4 0 0 0 15.2-19.1 17.4 17.4 0 0 0-19.1-15.2 477.3 477.3 0 0 0-76.7 17.1L476 358.9c46-12.5 98.6-23.5 156.4-30.4a17.3 17.3 0 0 0 15.4-19.3zM457.1 453.7a499 499 0 0 0-23.1 9.1 855.5 855.5 0 0 1-52.6 19.7 1317 1317 0 0 1-32.4-79.6 944.8 944.8 0 0 1 94-34.3z" fill="#fff"/><path d="M857.8 408.9c-.4-4-.6-8.1-.8-12.1a193 193 0 0 0-2-21.5 387.2 387.2 0 0 0-16.3-61.6c-5.9-17.1-11.2-32.6-17.1-48l-4-11.3a136.3 136.3 0 0 0-14.4-32.4 573.3 573.3 0 0 1-16-25.6c-9.2-15.2-18.6-30.9-30.5-44.9a135.7 135.7 0 0 0-31.8-29.3 92.7 92.7 0 0 1-21.5-18.2 162.7 162.7 0 0 0-53.5-41.4 546.3 546.3 0 0 0-71.6-29.9l-8.5-2.8c-7.9-2.7-16-5.4-24.7-6.8a555 555 0 0 1-35.7-6.6A231.4 231.4 0 0 0 434 12c-5.6.4-11.4.8-17.1 1-9.2.3-18.2.8-26.8 2.8-14.1 3.4-28.6 5.9-42.6 8.4l-3.8.7-9.2 1.5c-7.4 1-14.7 2.5-21.9 4.3-7.5 2.1-14.8 4.8-21.8 7.5-4.5 1.7-9.1 3.5-13.7 5a437.3 437.3 0 0 0-135.8 80.2A165 165 0 0 0 114 155c-5.3 7.8-10.3 15.9-15.2 23.7-4 6.4-8.2 13.1-12.4 19.5A449.4 449.4 0 0 0 47 272.3l-2.3 5.6A621.7 621.7 0 0 0 28 319.5 326.3 326.3 0 0 0 12.8 412c-.3 6.9-.5 14.1-1.2 21-1.5 16.4-.7 34.2 2.4 54.6l1.3 9c1.5 10.6 3 21.5 5.9 32a491 491 0 0 0 30.3 82.5 780 780 0 0 0 48.1 83.3 417 417 0 0 0 33.7 45.7c10.9 12.8 24 23.5 38.6 31.8 6.2 3.6 12.5 7.4 18.5 11.1a1010 1010 0 0 0 20.5 12.3c5.7 3.3 11.5 6.8 17 10.2 15 9.2 30.4 18.6 47.7 24.8 5.7 2 11.5 4.5 17.1 6.8a175 175 0 0 0 33.1 11.5c4.7 1 9.5 1.7 14.1 2.4l8.2 1.3c4.8.8 9.6 1.2 14.5 1.5 4.6.2 9.1.7 13.7 1.3 12.3 2.1 24.8 2.5 37 2.8 7.1.2 14.4.5 21.5 1 4.7.4 9.5.6 14.4.6 14.8-.1 29.5-1.6 44-4.3 5.7-1 11.6-1.7 17.3-2.3 9-1 18.4-2.1 27.4-4.5a237 237 0 0 0 16.9-5.3c3.9-1.3 8-2.7 11.9-3.8a310.4 310.4 0 0 0 56.2-22.7c11-5.9 21.8-12.4 32.3-18.7 12.2-7.3 24.7-14.8 37.5-21.4 6.1-3.1 13-7 18.7-13 15.2-15.8 33-34.8 50-55.2 13-15.6 26.6-32.5 36.8-52 2.9-5.4 5.5-11.1 8-16.5 3.5-7.9 7.4-15.6 11.8-23.2 14.5-24.3 31.6-78.2 31.6-78.4 3.3-10.4 5.5-21.8 6.8-36l1.5-14.1a213 213 0 0 0 2.2-30 514 514 0 0 0-2.3-49.2zm-153.6 60.2-1 9.3c-.5 7.6-2 15.1-4.2 22.4-.3.8-10.9 34.4-20 49.6-2.9 5-5.5 10.1-7.8 15.4-1.6 3.5-3.3 7.1-5.1 10.5-6.4 12.2-15 22.9-23.2 32.8a670.6 670.6 0 0 1-32.1 35.4A40.2 40.2 0 0 1 600 652c-8.4 4.3-16.6 9.2-24.5 14-6.7 4-13.7 8.2-20.7 12a195.2 195.2 0 0 1-35.5 14.3l-7.9 2.5a122 122 0 0 1-27.8 6.1l-11.5 1.5c-14 2.5-25.7 3.2-36.6 2.3-4.7-.4-9.5-.5-14.1-.7-7.7-.2-15.6-.5-23.3-1.8-3.1-.5-6.2-.8-9.3-.9a64 64 0 0 1-8.8-.9l-5.4-.9c-2.9-.5-6-.9-8.9-1.5-7.1-1.5-13.9-4.3-20.5-7.2-3.7-1.5-7.5-3.2-11.3-4.5-10.7-3.8-20.5-9.8-30-15.6a1084.3 1084.3 0 0 0-24.2-14.6l-12-7.2c-9-5.1-17-11.7-23.8-19.5a274.3 274.3 0 0 1-21.4-29 480.2 480.2 0 0 1-30.8-53.3c-8-16.9-14.5-34.5-19.3-52.6-1.7-6.6-2.9-13.4-3.7-20.1l-.9-5.9c-1.9-12.8-2.4-24-1.5-34.2.4-4.6.6-9.3.8-13.9.2-6 .5-12.2 1.3-18.3a200.1 200.1 0 0 1 18.9-67l1.5-3.6a283.3 283.3 0 0 1 25.1-47.1c2.8-4.2 5.5-8.5 8.1-12.7a483 483 0 0 1 9.7-15.1c4.8-7.2 10.4-13.8 16.9-19.6a278.3 278.3 0 0 1 86.3-51l9-3.3a107 107 0 0 1 27.4-7.4l6-1 2.4-.4a563 563 0 0 0 27.7-5.4 82.3 82.3 0 0 1 16.4-1.7c3.8-.1 7.5-.4 11.2-.7a209 209 0 0 1 19.9-.7c9.3.3 18.5 1.5 27.5 3.5 8.1 1.9 16.4 3.2 23.4 4.3 5.2 1 10.3 2.4 15.2 4.2l5.6 1.8c16 5 31.3 12.2 45.7 19.1a99.7 99.7 0 0 1 33.1 25.6c4.3 4.9 9.4 9.2 15 12.6a81.8 81.8 0 0 1 19.5 18.1c7.4 8.8 13.4 18.8 19.3 28.4a383 383 0 0 0 10.5 16.7c3.9 5.8 6.4 13 8.8 19.9l2.7 7.5c3.8 9.9 7.2 19.8 11 30.9 5.1 14.9 8.4 27.3 10.4 39.1a101 101 0 0 1 1.2 13.4l.6 8c.9 10 1.5 20.4 1.7 31.7-.5 6.4-1 12.7-1.9 18.9z" fill="#e95628"/><path d="m459.1 10.7 6.3.1c14.8.5 29.5 2.4 43.9 5.6 12.3 2.8 24.9 4.9 35.7 6.6 8.7 1.4 16.8 4.1 24.7 6.8l8.5 2.8a540.6 540.6 0 0 1 71.6 29.9c20.5 9.9 38.8 24 53.5 41.4a94.8 94.8 0 0 0 21.5 18.2c10.9 7 20.4 15.8 31.8 29.3 11.8 14 21.3 29.7 30.5 44.9a637 637 0 0 0 16 25.6c6.6 9.8 10.6 21.3 14.4 32.4l4 11.3c5.8 15.4 11.2 30.8 17.1 48 8 23.5 13.2 43 16.3 61.6a193 193 0 0 1 2 21.5l.8 12.1c1.5 15.7 2.3 32 2.6 49.6.2 10.2-1 20.3-2.2 30l-1.5 14.1a160.2 160.2 0 0 1-6.8 36c0 .2-17.1 54.1-31.6 78.4-4.3 7.5-8.2 15.2-11.8 23.2-2.5 5.5-5.2 11.1-8 16.5a306.6 306.6 0 0 1-36.8 52c-17 20.4-34.8 39.3-50 55.2a70.3 70.3 0 0 1-18.7 13 596.7 596.7 0 0 0-37.5 21.4c-10.5 6.3-21.3 12.8-32.3 18.7-17.9 9.4-36.7 17-56 22.7l-11.9 3.8c-5.5 1.8-11.2 3.7-16.9 5.3-9.1 2.4-18.4 3.5-27.5 4.5-5.7.6-11.6 1.3-17.3 2.3a260.3 260.3 0 0 1-44 4.3c-4.9 0-9.7-.2-14.4-.6-7.1-.6-14.5-.8-21.5-1-12.1-.4-24.6-.8-37-2.8-4.5-.7-9.1-1.2-13.7-1.4-4.8-.2-9.6-.7-14.4-1.5l-8.2-1.3a378 378 0 0 1-14.1-2.4c-11.7-2.4-22.6-7-33.1-11.5-5.6-2.4-11.3-4.8-17.1-6.8a256.6 256.6 0 0 1-47.7-24.8c-5.6-3.4-11.3-6.9-17-10.2-6.9-4-13.8-8.2-20.5-12.3-6-3.7-12.3-7.5-18.5-11.1-14.6-8.3-27.7-19-38.6-31.8a420.4 420.4 0 0 1-33.7-45.7 763.3 763.3 0 0 1-48.1-83.3 497.9 497.9 0 0 1-30.4-82.5c-2.9-10.6-4.4-21.5-5.9-32l-1.3-9a225.3 225.3 0 0 1-2.4-54.6c.6-7 .9-14.1 1.2-21 .4-9.5.7-19.3 2-29 3-22.8 6.1-43.2 13.2-63.5 4.9-14.2 10.9-28.3 16.6-41.9l2.4-5.6a442 442 0 0 1 39.4-74.1c4.3-6.4 8.4-13.1 12.4-19.5 4.9-7.8 9.9-15.9 15.2-23.7a165 165 0 0 1 27.3-31.6 439 439 0 0 1 135.8-80.2c4.6-1.5 9.2-3.3 13.7-5 7-2.7 14.3-5.4 21.8-7.5 7.2-1.8 14.5-3.3 21.9-4.3l9.2-1.5 3.8-.7c14-2.5 28.5-5.1 42.5-8.4 8.6-2 17.6-2.5 26.8-2.8a476 476 0 0 0 17.1-1c7.9-.6 16.4-1.2 24.9-1.2m-14.6 694.4c9.3-.1 18.6-1 27.7-2.7 3.8-.7 7.7-1.1 11.4-1.5 5.8-.5 11.5-1.4 17.1-2.8 3.6-1 7.2-2.2 10.7-3.3l7.9-2.5c12.3-3.6 24.1-8.4 35.5-14.3 7-3.7 14-7.9 20.7-12 7.9-4.8 16.1-9.7 24.5-14 4-1.9 7.7-4.4 10.9-7.5a712.9 712.9 0 0 0 32.1-35.4c8.3-9.9 16.8-20.6 23.2-32.8 1.8-3.4 3.5-7 5.1-10.5 2.3-5.3 4.9-10.4 7.8-15.4 9.1-15.2 19.7-48.8 20-49.6 2.2-7.3 3.7-14.8 4.2-22.4l1-9.3a131 131 0 0 0 1.4-18.8c-.2-11.3-.7-21.7-1.7-31.7l-.6-8c-.2-4.5-.6-9-1.2-13.4a237 237 0 0 0-10.4-39.1c-3.8-11-7.2-21-11-30.9l-2.7-7.5c-2.4-6.9-4.8-14-8.8-19.9a383 383 0 0 1-10.5-16.7 222 222 0 0 0-19.3-28.4 88.3 88.3 0 0 0-19.5-18.1 64.8 64.8 0 0 1-15-12.6 99.7 99.7 0 0 0-33.1-25.6 351.2 351.2 0 0 0-45.7-19.1l-5.6-1.8c-4.9-1.8-10-3.2-15.2-4.2-7-1.1-15.3-2.5-23.4-4.3-9-2-18.3-3.2-27.5-3.5l-3.9-.1c-5.4 0-10.7.4-16 .8l-11.2.7c-5.5 0-11 .6-16.4 1.7a563 563 0 0 1-27.7 5.4l-2.4.4-6 1a102.2 102.2 0 0 0-27.3 7.4l-9 3.3a278.3 278.3 0 0 0-86.3 51 104.8 104.8 0 0 0-16.9 19.5c-3.4 4.9-6.6 10.1-9.7 15.1-2.6 4.2-5.3 8.5-8.1 12.7a291.4 291.4 0 0 0-25.1 47.1l-1.5 3.6a200.1 200.1 0 0 0-18.9 67c-.8 6.1-1 12.3-1.3 18.3-.2 4.5-.4 9.2-.8 13.9-.9 10.2-.4 21.4 1.5 34.2l.9 5.9c.8 6.8 2.1 13.5 3.7 20.1a315.5 315.5 0 0 0 19.3 52.6 486.9 486.9 0 0 0 30.8 53.3 274.3 274.3 0 0 0 21.4 29 87.8 87.8 0 0 0 23.8 19.5c4.1 2.3 8.1 4.8 12 7.2l13.1 7.9 11.1 6.7c9.5 5.8 19.3 11.8 30 15.6 3.8 1.4 7.6 3 11.3 4.5a116 116 0 0 0 20.5 7.2c2.9.6 6 1.1 8.9 1.5l5.4.9c2.9.5 5.9.7 8.8.9l9.3.9c7.6 1.3 15.6 1.5 23.3 1.8 4.6.1 9.4.3 14.1.7 3.3.3 6.2.4 9.3.4M459.1.7c-8.9 0-17.5.6-25.9 1.2h-.3c-5.4.4-11 .8-16.4 1-9.7.4-19.2.9-28.7 3.1a755.6 755.6 0 0 1-41.9 8.2h-.1l-3.7.7-8.4 1.4-.6.1c-7.7 1.1-15.4 2.6-23 4.5a252 252 0 0 0-22.7 7.8c-4.4 1.7-9 3.4-13.3 4.8a447.7 447.7 0 0 0-139.2 82.1 175.3 175.3 0 0 0-29 33.5c-5.4 7.9-10.5 16.1-15.5 24l-.2.3c-3.9 6.3-8 12.8-12.1 19a451 451 0 0 0-40.3 75.8l-2.3 5.6a647.8 647.8 0 0 0-16.8 42.5 316 316 0 0 0-13.8 65.5 285.8 285.8 0 0 0-2.1 30c-.3 6.8-.5 13.8-1.1 20.5a230 230 0 0 0 2.5 57l1.3 8.9c1.5 10.9 3.2 22.1 6.2 33.3a506 506 0 0 0 31 84.2 755.5 755.5 0 0 0 48.8 84.4 422.8 422.8 0 0 0 34.5 46.7 156.9 156.9 0 0 0 41.2 34c6.2 3.6 12.6 7.5 18.3 11 6.7 4.1 13.6 8.4 20.7 12.4 5.6 3.2 11.3 6.7 16.8 10 15.4 9.4 31.3 19.2 49.5 25.7a271 271 0 0 1 16.1 6.5l.4.2a176 176 0 0 0 49.3 14.5h.3l.4.1 7.7 1.2c5.1.8 10.2 1.4 15.4 1.7h.2c4.2.3 8.6.6 12.5 1.2 12.9 2.2 25.8 2.6 38.2 3h.1c7 .2 14.2.4 21.1 1 4.9.4 10 .6 15.1.6 15.4-.1 30.7-1.6 45.8-4.4 5.3-.9 10.9-1.6 16.4-2.2h.3a177.8 177.8 0 0 0 46.3-10.2h.2c3.8-1.3 7.7-2.6 11.5-3.7a310.5 310.5 0 0 0 58-23.5c11.2-5.9 22-12.5 32.5-18.8l.3-.2c12-7.2 24.4-14.6 36.9-21 6.8-3.5 14.7-8 21.4-15a1118 1118 0 0 0 50.5-55.7 306.5 306.5 0 0 0 37.9-53.7c3-5.8 5.8-11.7 8.2-17l.1-.2c3.4-7.5 7.1-14.9 11.2-22.1a316 316 0 0 0 22-49.9 1151.8 1151.8 0 0 0 10.6-30.7c3.5-11 5.8-23.1 7.2-38 .4-4.4.9-9 1.5-13.4l.1-.5c1.2-9.6 2.5-20.4 2.3-31.4-.3-17.9-1.1-34.4-2.6-50.4-.4-3.9-.6-8.1-.8-11.8v-.1c-.3-7.6-1-15.1-2.1-22.6a387.2 387.2 0 0 0-16.8-63.2c-6-17.3-11.3-32.9-17.2-48.3a663 663 0 0 1-3.9-10.9l-.1-.2c-4-11.7-8.2-23.9-15.6-34.7-5.4-8-10.5-16.5-15.5-24.8l-.2-.4-.1-.1a347 347 0 0 0-31.3-46.1 146.3 146.3 0 0 0-34.1-31.3 85 85 0 0 1-19.3-16.2 170.3 170.3 0 0 0-56.8-43.9 544.7 544.7 0 0 0-73-30.4l-8.3-2.7h-.1c-8.2-2.8-16.7-5.7-26.2-7.2a475.4 475.4 0 0 1-35-6.5c-15-3.4-30.3-5.5-45.7-6-2.2.2-4.4.2-6.7.2zm-14.6 694.4c-2.8 0-5.5-.1-8.1-.3-5-.4-10.1-.6-14.6-.7a175 175 0 0 1-21.9-1.6c-3.4-.5-6.9-.8-10.3-1h-.1a225 225 0 0 1-21.7-3.1c-6.1-1.2-12.5-4-18.6-6.5-3.8-1.6-7.8-3.3-11.9-4.7-9.7-3.5-19.1-9.2-28.1-14.7-3.7-2.3-7.5-4.6-11.4-6.8l-12.7-7.6-.2-.1-12.3-7.4a79 79 0 0 1-21.2-17.4 255.1 255.1 0 0 1-20.6-28 488.5 488.5 0 0 1-30.2-52.2c-7.7-16.4-14-33.4-18.7-50.9-1.5-6.2-2.7-12.5-3.5-18.8l-.1-.5-.8-5.5c-1.8-12-2.3-22.4-1.4-31.8.4-4.9.6-9.7.8-14.4.2-5.8.4-11.8 1.2-17.4 1.9-13.9 3.7-26.4 7.9-38.2 3-8.8 6.8-17.6 10.4-26.2l1.5-3.6a267 267 0 0 1 24.2-45.4l8.2-12.8.1-.2c3.1-4.9 6.2-10 9.5-14.8a91.8 91.8 0 0 1 15.2-17.7 273.6 273.6 0 0 1 82.9-49l9.4-3.4h.1c4.2-1.6 8.5-3.2 12.7-4.4 4.1-1 8.3-1.9 12.6-2.4l6.2-1 2.4-.4c9.2-1.6 18.8-3.3 28.2-5.6a88 88 0 0 1 14.5-1.5c3.9-.1 7.8-.4 11.5-.7a193.5 193.5 0 0 1 18.8-.6c8.6.3 17.2 1.4 25.7 3.3a363 363 0 0 0 24 4.5c4.6.9 9.1 2.1 13.5 3.8h.1l.2.1 5.5 1.8a348.5 348.5 0 0 1 44.4 18.5 90.7 90.7 0 0 1 29.8 23.1c5 5.7 10.7 10.6 17.2 14.6a78 78 0 0 1 17.3 16.1c6.9 8.2 12.7 17.9 18.3 27.2 3.2 5.4 6.9 11.4 10.8 17.1 3.2 4.7 5.4 11.2 7.6 17.5l.1.4a335 335 0 0 0 2.6 7.4c3.7 9.7 7.1 19.6 10.9 30.6 4.9 14.4 8.1 26.3 10 37.5.6 4.1 1 8.2 1.1 12.4l.6 8.4c.9 9.8 1.5 19.9 1.6 30.9-.1 5.8-.5 11.7-1.3 17.5-.4 2.9-.8 6.3-1 9.6a86.8 86.8 0 0 1-3.8 20.2l-.1.2c-5 15.5-12.9 37.2-19 47.4-3 5.3-5.8 10.7-8.3 16.3-1.6 3.4-3.2 6.8-4.9 10a181.2 181.2 0 0 1-22.1 31 688.9 688.9 0 0 1-31.6 34.9 30.2 30.2 0 0 1-8.2 5.5c-8.8 4.5-17.1 9.5-25.2 14.3l-.2.1c-6.5 3.9-13.3 8-20 11.6-10.7 5.6-22 10.2-33.6 13.6l-8.2 2.6h-.1l-10 3.1c-5.1 1.2-10.4 2-15.6 2.5-3.7.4-7.9.9-12.1 1.6-8.6 1.6-17.3 2.4-26 2.5z" fill="#141414"/><path d="M300.5 783.5c-.5-.4-.8-.9-1-1.5s-.2-1.2 0-1.8c.2-.7.7-1.3 1.3-1.7.7-.4 1.4-.4 2.2-.2.4.1.8.4 1.1.6 3.5 3 7.5 5.3 11.9 6.7 7.6 2.4 12.1 1.1 13.7-3.9.4-1.2.3-2.6-.4-3.7a13 13 0 0 0-3-3.2l-5.5-3.7a80.9 80.9 0 0 1-7.7-5.3 15 15 0 0 1-4.4-5.6c-1-2.4-1.1-5.1-.2-7.5a12 12 0 0 1 4.1-6.1 14 14 0 0 1 7.2-3c3.3-.4 6.6 0 9.7 1.1a37 37 0 0 1 12.2 6.2c1 .7 1.5 2 1 3.2-.2.7-.7 1.3-1.3 1.6-.6.4-1.4.5-2.1.2a33 33 0 0 0-10.9-5.6 17 17 0 0 0-8.9-.7 6.3 6.3 0 0 0-4.9 4.5c-.5 1.4-.4 3 .3 4.3.8 1.4 1.8 2.5 3.1 3.5 1.8 1.3 3.7 2.6 5.7 3.7a62 62 0 0 1 7.5 5.1 15 15 0 0 1 4.2 5.5c1 2.5 1 5.2.1 7.7-.7 2.3-2.2 4.4-4.1 5.9a14.4 14.4 0 0 1-7.3 2.7c-3.1.3-6.2-.1-9.2-1.1a40.7 40.7 0 0 1-14.4-7.9z" fill="#141414"/><path d="M322.3 793.6c-2.6 0-5.1-.4-7.6-1.2a40.9 40.9 0 0 1-14.9-8.1c-.6-.5-1-1.2-1.3-2-.2-.7-.2-1.6 0-2.3a3.8 3.8 0 0 1 4.8-2.6l1.5.8c3.4 3 7.3 5.1 11.6 6.5s7.5 1.5 9.6.4a5.8 5.8 0 0 0 2.8-3.6c.3-1 .2-2-.3-2.9-.7-1.1-1.6-2.1-2.7-2.9-1.3-1-3.1-2.2-5.5-3.7a70.6 70.6 0 0 1-7.7-5.4c-2-1.6-3.6-3.6-4.7-5.9a10.8 10.8 0 0 1-.2-8.3c.8-2.5 2.3-4.8 4.4-6.5 2.2-1.8 4.9-2.9 7.8-3.2a23 23 0 0 1 10.1 1.1 40 40 0 0 1 12.5 6.4c1.4.9 2 2.7 1.3 4.3a4 4 0 0 1-1.7 2.1c-.9.6-2 .7-3 .3a33.5 33.5 0 0 0-10.8-5.7c-2.7-1-5.6-1.2-8.5-.7-2 .4-3.6 1.8-4.2 3.8-.4 1.2-.3 2.5.3 3.5.7 1.2 1.7 2.3 2.8 3.1 1.8 1.3 3.7 2.5 5.6 3.6 2.6 1.5 5.2 3.3 7.6 5.1 2 1.6 3.5 3.6 4.5 5.9 1.1 2.7 1.1 5.7.1 8.5-.8 2.5-2.3 4.7-4.5 6.3-2.3 1.7-5 2.6-7.8 2.9a4 4 0 0 1-1.9.4zm-21.2-10.9a40 40 0 0 0 14.2 7.7 22 22 0 0 0 8.8 1.1 14 14 0 0 0 6.8-2.5c1.8-1.3 3.1-3.2 3.8-5.3.9-2.3.8-4.8 0-7.1-.8-2-2.2-3.8-3.9-5.1a63.9 63.9 0 0 0-7.4-5c-2-1.1-3.9-2.4-5.8-3.8-1.4-1-2.5-2.3-3.4-3.8a6 6 0 0 1-.4-5.1c.8-2.6 3-4.6 5.7-5.1a18 18 0 0 1 9.5.7 34 34 0 0 1 10.2 5.2l.1.1.6.4c.4.2.9.1 1.2-.1.4-.2.7-.6.9-1.1.3-.8 0-1.6-.6-2a35.9 35.9 0 0 0-12-6.1 21 21 0 0 0-9.3-1c-2.5.3-4.8 1.2-6.7 2.8a11 11 0 0 0-3.7 5.6c-.8 2.3-.8 4.6.2 6.8.9 2 2.4 3.8 4.1 5.2 2.4 1.9 5 3.7 7.6 5.3 2.4 1.5 4.3 2.8 5.6 3.8 1.3.9 2.4 2.1 3.2 3.4.9 1.4 1 3 .5 4.6a8 8 0 0 1-3.8 4.8c-2.7 1.4-6.3 1.3-11.2-.3a32.6 32.6 0 0 1-12.3-6.9c-.2-.2-.5-.4-.8-.4-.5-.2-1-.1-1.4.1s-.7.6-.9 1.1v1.2l.6.8zM356.6 800.9c-.5-.6-.7-1.5-.6-2.3l6-41.2a3.1 3.1 0 0 1 3.5-2.7l15.3 2.2c3.6.4 7.1 1.6 10.1 3.7a13 13 0 0 1 4.9 6.4 16 16 0 0 1-2.1 14.5c-1.7 2.2-4 3.8-6.6 4.7a21.6 21.6 0 0 1-10.7.6l-12.2-1.8-2 14.4c-.1.8-.5 1.6-1.2 2-.7.5-1.5.7-2.3.6-.9 0-1.6-.4-2.1-1.1zm20.1-19.9c4.6.7 7.9.2 10.1-1.3A9.1 9.1 0 0 0 389 767l-.3-.3c-1.6-2-4.7-3.4-9.3-4l-11.6-1.7-2.7 18.3z" fill="#141414"/><path d="m359.1 803.1-.6-.1c-1-.1-2-.7-2.7-1.6s-.9-2-.8-3l6-41.2c.1-1.1.7-2.1 1.6-2.7.9-.7 2-1 3.1-.8L381 756c3.7.4 7.4 1.7 10.5 3.8a14 14 0 0 1 5.3 6.9c1.8 5.2.9 11-2.2 15.5a14.3 14.3 0 0 1-7.1 5 23.6 23.6 0 0 1-11.2.7l-11.2-1.7-1.9 13.4a3.5 3.5 0 0 1-1.7 2.7c-.7.6-1.5.8-2.4.8zm5.9-47.3c-.4 0-.9.1-1.2.4-.5.3-.7.9-.8 1.4l-6 41.2c-.1.6 0 1.1.4 1.5.3.4.8.7 1.4.8s1.1 0 1.6-.4c.5-.3.8-.8.8-1.3l2.2-15.4 13.2 2c3.4.6 7 .4 10.3-.6 2.4-.8 4.5-2.3 6.1-4.3 2.8-3.9 3.5-9 2-13.6-.9-2.4-2.5-4.4-4.6-5.9a22.3 22.3 0 0 0-9.6-3.5l-15.4-2.2-.4-.1zm15.6 26.5a29 29 0 0 1-4-.3l-12.6-1.9 3-20.3 12.6 1.8c4.9.7 8.1 2.2 9.9 4.4l.3.4a10 10 0 0 1-2.4 14.1c-1.7 1.3-3.9 1.8-6.8 1.8zm-3.7-2.3c4.3.6 7.4.3 9.3-1.1a8.1 8.1 0 0 0 1.9-11.3l-.2-.3c-1.4-1.8-4.3-3-8.6-3.7l-10.6-1.6-2.4 16.3zM410.7 807.3a3 3 0 0 1-.9-2.2c0-.5.1-.9.3-1.4l16.5-41.3a4.3 4.3 0 0 1 3.9-2.8h.7c.9 0 1.7.2 2.4.7s1.2 1.2 1.6 2l18.2 40.6.4 1.4c0 .8-.3 1.6-.8 2.2-.6.6-1.4 1-2.2.9a3 3 0 0 1-1.8-.5c-.5-.3-1-.8-1.2-1.4l-4.6-10.5-23.1.5-4.2 10.7c-.2.6-.6 1.1-1.2 1.4-.5.3-1.1.5-1.7.5-.9.1-1.7-.2-2.3-.8zm11.6-17.5 18.4-.4-9.6-21.9z" fill="#141414"/><path d="M412.7 809.2c-1 0-2-.4-2.7-1.1a3.8 3.8 0 0 1-1.2-2.9c0-.6.2-1.2.4-1.8l16.5-41.3a6 6 0 0 1 1.8-2.4c.9-.7 2-1.1 3.1-1.1h.6c1.1-.1 2.2.3 3 .9s1.5 1.4 1.9 2.4l18.2 40.6.5 1.7c.1 1.1-.3 2.2-1.1 3a4 4 0 0 1-2.9 1.3c-.8 0-1.6-.2-2.3-.6s-1.2-1.1-1.6-1.8l-4.4-9.9-21.8.5-4 10.1c-.3.8-.9 1.4-1.5 1.9-.7.5-1.5.7-2.3.7 0-.2-.1-.2-.2-.2zm17.8-48.6c-.7 0-1.3.2-1.7.6-.5.4-.9 1-1.2 1.6L411 804.2c-.2.3-.2.7-.2 1 0 .5.2 1 .6 1.4.4.4.9.6 1.5.6.5 0 .9-.1 1.2-.4.4-.2.6-.6.8-1l4.4-11.3 24.5-.5 4.9 11.1c.2.4.5.7.8.9l1.2.3c.6 0 1.1-.2 1.4-.6.4-.4.6-.9.5-1.5l-.3-1-18.2-40.6a4 4 0 0 0-1.3-1.6c-.5-.4-1.1-.6-1.8-.5zm-9.7 30.2 10.1-25.9 11.2 25.5zm10.3-20.7-7.3 18.6 15.4-.3zM486.1 800a21.4 21.4 0 0 1-10-6.7 28.6 28.6 0 0 1-5-25.4c1.2-3.9 3.6-7.4 6.7-10a28.8 28.8 0 0 1 27.4-4.1 3 3 0 0 1 2 2.3 2.6 2.6 0 0 1-2.2 3h-1.3a25.3 25.3 0 0 0-12.9-.7 19 19 0 0 0-9.3 4.3c-2.3 2-4 4.7-4.8 7.7a22.5 22.5 0 0 0 3.7 18.6c1.9 2.5 4.4 4.3 7.3 5.3a23.4 23.4 0 0 0 16.5-1.6c1.9-1 3.7-2.1 5.4-3.4 1-.7 2.2-.7 3.2-.1.6.4 1 1 1.1 1.7.3 1.1-.1 2.2-1 2.8a28.4 28.4 0 0 1-14.4 7.2c-4 .6-8.3.4-12.4-.9z" fill="#141414"/><path d="M493.5 802.1c-2.6 0-5.2-.4-7.7-1.2a22 22 0 0 1-10.4-7 30 30 0 0 1-5.2-26.3c1.3-4.1 3.7-7.7 7-10.5a26 26 0 0 1 11.9-5.5c2.8-.6 5.7-.8 8.6-.5 2.7.3 5.4.9 7.9 1.7 1.4.4 2.4 1.6 2.6 3.1.2.9 0 1.8-.6 2.6a4.2 4.2 0 0 1-4.2 1.6 23 23 0 0 0-12.4-.7c-3.3.5-6.4 1.9-8.9 4.1a15 15 0 0 0-4.5 7.1 21.8 21.8 0 0 0 3.5 17.8c1.7 2.3 4.1 4 6.9 4.9 3.1 1 6.5 1.2 9.7.4a27.2 27.2 0 0 0 11.3-5.3 4 4 0 0 1 4.3-.2 4 4 0 0 1 1.6 2.3c.3 1.4-.2 2.9-1.3 3.8-2 1.7-4.3 3.3-6.6 4.6a34.6 34.6 0 0 1-8.2 2.8c-1.7.2-3.5.4-5.3.4zm-7.1-3.1a27 27 0 0 0 19.7-2 39 39 0 0 0 6.3-4.3 2 2 0 0 0 .7-1.8c-.1-.5-.3-.8-.7-1.1-.6-.4-1.5-.3-2.1.1a26.3 26.3 0 0 1-12 5.7c-3.5.8-7.2.6-10.7-.5-3.1-1.1-5.8-3-7.8-5.6A23.7 23.7 0 0 1 476 770c.9-3.2 2.6-6 5.1-8.2a20 20 0 0 1 9.8-4.5 26.5 26.5 0 0 1 14 .8c.5-.1.9-.3 1.2-.7.2-.3.3-.8.2-1.2-.1-.7-.6-1.3-1.3-1.5a30.5 30.5 0 0 0-15.5-1.1c-4 .7-7.8 2.5-11 5.1-3 2.5-5.2 5.8-6.4 9.5a27.6 27.6 0 0 0 4.8 24.5c2.5 3 5.8 5.2 9.5 6.3zM539.1 788.4c-.7-.3-1.3-1-1.6-1.7L523 748c-.3-.8-.3-1.6.1-2.4a3 3 0 0 1 1.7-1.6l25.6-9.5a3 3 0 0 1 3.8 1.7v.1c.3.7.3 1.5-.1 2.2-.3.7-1 1.2-1.7 1.5l-22.6 8.4 5.3 14.1 20.3-7.6c.7-.3 1.5-.3 2.2.1.7.3 1.2.9 1.5 1.6s.3 1.5-.1 2.2c-.3.7-.9 1.2-1.7 1.5l-20.3 7.6 5.3 14.1 22.6-8.4c.7-.3 1.5-.3 2.2.1.7.3 1.2.9 1.5 1.6s.3 1.5-.1 2.2c-.3.7-.9 1.2-1.7 1.5l-25.6 9.5a3 3 0 0 1-2.1-.1z" fill="#141414"/><path d="M540.2 789.6a4 4 0 0 1-1.5-.3c-1-.4-1.8-1.3-2.1-2.3l-14.4-38.6c-.4-1-.4-2.1.1-3.1.4-1 1.3-1.8 2.3-2.1l25.5-9.5c1-.4 2-.3 3 .1s1.7 1.2 2.1 2.2.4 2.1-.1 3.1c-.5.9-1.3 1.7-2.3 2l-21.6 8.1 4.6 12.2 19.4-7.2c1-.4 2.1-.3 3 .1s1.7 1.2 2 2.2c.4.9.3 2-.1 3-.4.9-1.3 1.7-2.3 2l-19.3 7.3 4.6 12.2 21.7-8.1c1-.4 2.1-.3 3 .1s1.7 1.2 2 2.2c.4.9.3 2-.1 3-.5.9-1.3 1.7-2.3 2l-25.5 9.5c-.7-.2-1.2-.1-1.7-.1zm-.7-2.1c.5.2 1 .2 1.5 0l25.6-9.5c.5-.2.9-.5 1.1-1 .2-.4.2-.9.1-1.4-.2-.5-.5-.9-1-1.1s-1-.2-1.5-.1l-23.6 8.8-6-16 21.2-8c.5-.2.9-.5 1.1-1 .2-.4.2-.9.1-1.4-.2-.5-.5-.9-1-1.1s-1-.2-1.5-.1l-21.3 7.9-6-16 23.6-8.8c.5-.2.9-.5 1.1-1 .2-.4.2-.9.1-1.4-.2-.5-.6-.9-1-1.1s-1-.2-1.5 0l-25.6 9.5c-.5.2-1 .6-1.2 1.1s-.2 1.1 0 1.6l14.5 38.7c.3.7.7 1.1 1.2 1.4zM301 279.9l-.5.6.5-.6z" fill="#141414"/><g stroke="#141414" stroke-miterlimit="10"><path d="M186.9 241.5a3 3 0 0 1-2.4-.8l-34.2-28.8a3.3 3.3 0 0 1-1.2-2.3 3 3 0 0 1 .8-2.4l18.3-21.7a3.2 3.2 0 0 1 4.4-.4c.7.5 1 1.3 1.1 2.1s-.2 1.6-.8 2.3l-16.1 19.1 12.3 10.4 14.5-17.2a3.2 3.2 0 0 1 4.4-.4c.7.6 1 1.3 1.1 2.1s-.2 1.6-.8 2.3L173.8 223l14.9 12.6c.7.6 1.1 1.3 1.2 2.3.1.9-.2 1.7-.8 2.4s-1.3 1.1-2.2 1.2zM217.5 207.5c-.9 0-1.7-.4-2.3-1l-31.4-32.3c-.6-.7-1-1.5-1-2.4s.3-1.7 1-2.3 1.5-1 2.4-.9 1.7.4 2.4 1l31.4 32.3c.6.7 1 1.5.9 2.4 0 .9-.4 1.7-1 2.3-.8.6-1.5.9-2.4.9zM230.3 194.7c-.9-.1-1.5-.5-2-1.1s-.7-1.3-.7-2l.7-26.7-25.8-6.1c-.7-.2-1.3-.6-1.8-1.2-.6-.7-.8-1.5-.7-2.4s.5-1.6 1.3-2.1a3.8 3.8 0 0 1 2.9-.6l24.1 6.1.2-25c-.1-.9.3-1.7 1.2-2.4.7-.5 1.5-.8 2.3-.7.9.1 1.6.5 2.1 1.2.4.5.6 1.1.7 1.8l-.7 26.8 26 6.1a3 3 0 0 1 1.7 1.1c.6.7.8 1.5.7 2.4s-.5 1.6-1.3 2.2c-.8.7-1.8.8-2.9.5l-24.4-6-.2 25c0 1.1-.5 2-1.2 2.6-.6.4-1.3.6-2.2.5zM274.2 163.2a3 3 0 0 1-2-1.5L249.1 123c-.5-.8-.6-1.6-.4-2.5s.7-1.6 1.5-2c.8-.5 1.6-.6 2.5-.4s1.6.7 2.1 1.5l23.1 38.7c.5.8.6 1.6.4 2.5s-.8 1.6-1.5 2c-.9.4-1.7.6-2.6.4zM292.9 151.8c-.8-.3-1.4-.9-1.8-1.8l-17.2-40a5.2 5.2 0 0 1-.1-3.7 4.6 4.6 0 0 1 2.5-2.6l.9-.4c1.4-.6 2.9-.5 4.6.4l41.8 26.3-15.5-36.2c-.4-.9-.4-1.7-.1-2.6s.9-1.5 1.8-1.8a3 3 0 0 1 2.6 0c.9.3 1.5.9 1.8 1.8l17.2 40.1c.5 1.2.5 2.4 0 3.6s-1.4 2.1-2.6 2.6l-.8.3c-.7.3-1.5.4-2.2.4-.8-.1-1.5-.3-2.1-.6l-42-26.4 15.5 36.3c.4.9.4 1.7 0 2.5s-1 1.4-1.8 1.8-1.7.4-2.5 0zM355.4 126.4c-4.3-1.3-7.9-3.6-10.9-7s-5-7.6-6.1-12.5c-1.1-5-1.1-9.7.2-14.1s3.6-8.1 6.9-11.1 7.2-5 11.8-6c3.7-.8 7-1.1 10-.8s5.9.9 8.9 2c.4.1.8.4 1.2.8s.7.9.8 1.5c.2.8.1 1.6-.4 2.2-.4.7-1.1 1.1-2 1.3-.5.1-1 .1-1.6 0a27.8 27.8 0 0 0-14.9-.9c-3.6.8-6.7 2.3-9.2 4.5-2.6 2.2-4.3 4.9-5.3 8.2s-1 7-.1 11c.8 3.7 2.4 6.8 4.6 9.4s5 4.4 8.3 5.4 6.9 1.1 10.9.2c4.5-1 8.4-3 11.8-6l-2.9-12.9-11.7 2.7c-.8.2-1.6.1-2.3-.4-.7-.4-1.1-1.1-1.3-1.9s-.1-1.6.4-2.3 1.1-1.1 1.9-1.3l14-3.2c.9-.2 1.8-.1 2.6.4s1.3 1.2 1.5 2.2l3.7 16.2c.2 1 .2 1.9-.1 2.8s-.8 1.6-1.6 2.2a36.7 36.7 0 0 1-15.4 7.7c-4.8 1.1-9.4 1-13.7-.3zM423.7 117.6c-.6-.6-1-1.4-1-2.3l-1-44.7c0-.9.3-1.7.9-2.4s1.4-1 2.3-1l28.4-.6c.9 0 1.6.3 2.2.9s.9 1.3 1 2.2c0 .9-.3 1.6-.9 2.2s-1.3.9-2.2.9l-25 .6.4 16.1 22.5-.5c.9 0 1.6.3 2.2.9s.9 1.3 1 2.2c0 .9-.3 1.6-.9 2.2s-1.3.9-2.2.9l-22.5.5.4 19.5c0 .9-.3 1.7-.9 2.4-.6.6-1.4 1-2.3 1-1-.1-1.8-.4-2.4-1zM461.7 116.7c-.5-.7-.7-1.5-.6-2.4 0-.4.2-.9.5-1.4l23.8-41.4a5 5 0 0 1 1.9-1.9c.8-.5 1.7-.6 2.7-.5l.7.1c1 .1 1.8.5 2.5 1.1s1.1 1.4 1.4 2.3l13.2 45.9c.2.6.2 1.1.2 1.5-.1.9-.5 1.7-1.2 2.2s-1.5.8-2.5.7a3 3 0 0 1-1.8-.8c-.5-.4-.9-1-1.1-1.6l-3.3-11.9-24.6-3-6.1 10.7c-.4.6-.8 1-1.4 1.3s-1.2.4-1.9.3a3.3 3.3 0 0 1-2.4-1.2zm15-16.8 19.6 2.4-6.9-24.7zM518 122.8a3 3 0 0 1-1-1.6 3 3 0 0 1 0-1.9c.2-.8.7-1.4 1.4-1.8s1.5-.5 2.3-.3c.5.1.9.4 1.2.7 3.7 3.2 8 5.5 12.9 7 8.2 2.5 13 1 14.7-4.4.4-1.4.2-2.7-.5-4-.8-1.2-1.8-2.4-3.2-3.4l-6-3.9c-3.5-2.1-6.2-4-8.3-5.6s-3.6-3.6-4.8-5.9-1.2-5-.3-8c.8-2.7 2.2-4.9 4.3-6.6s4.6-2.8 7.7-3.3 6.6-.1 10.4 1c5.1 1.5 9.5 3.7 13.2 6.5 1.2.9 1.5 2 1.1 3.4-.2.7-.7 1.3-1.4 1.8s-1.5.5-2.3.3l-1-.6a35.7 35.7 0 0 0-10.7-5.3c-3.7-1.1-6.9-1.3-9.6-.6s-4.5 2.3-5.2 4.8c-.5 1.7-.4 3.2.4 4.6s1.9 2.6 3.4 3.7 3.5 2.4 6.2 3.9c3.4 2 6.1 3.8 8.1 5.3 2 1.6 3.5 3.5 4.6 5.9 1 2.3 1.1 5.1.1 8.3-.8 2.6-2.2 4.7-4.4 6.3a16 16 0 0 1-7.8 3c-3.1.3-6.4 0-9.9-1.1a40.3 40.3 0 0 1-15.6-8.2zM562.7 139.7c-.3-.9-.2-1.7.2-2.5l20.5-40.1c.4-.8 1.1-1.4 1.9-1.7.9-.3 1.7-.2 2.5.2s1.4 1.1 1.7 2 .2 1.7-.2 2.6l-8.9 17.3 24.6 12.6 8.9-17.3c.4-.8 1.1-1.4 1.9-1.7.9-.3 1.7-.2 2.5.2s1.4 1.1 1.7 2 .2 1.7-.2 2.6L599.3 156a3 3 0 0 1-1.9 1.6c-.9.3-1.7.2-2.5-.2s-1.4-1.1-1.6-1.9c-.3-.9-.2-1.7.2-2.5l8.9-17.3-24.6-12.6-8.9 17.3a3 3 0 0 1-1.9 1.6c-.9.3-1.7.2-2.5-.2-1-.7-1.5-1.3-1.8-2.1zM611.4 167.2c-.2-.9 0-1.7.6-2.5l25.8-36.9c.5-.8 1.2-1.2 2.1-1.4s1.7 0 2.5.5 1.2 1.3 1.4 2.2 0 1.8-.6 2.5l-25.8 36.9c-.5.8-1.2 1.2-2.1 1.3s-1.7-.1-2.5-.6c-.8-.4-1.2-1.1-1.4-2zM636.7 183.7c-1.3-4.3-1.4-8.5-.2-12.9a29.8 29.8 0 0 1 18.5-19.9c4.2-1.5 8.5-1.7 12.8-.7s8.4 3.2 12.1 6.7 6.2 7.3 7.5 11.6c1.3 4.2 1.3 8.5.2 12.9a30.4 30.4 0 0 1-6.8 12.2c-3.5 3.6-7.4 6.2-11.7 7.7s-8.5 1.7-12.9.7a28 28 0 0 1-19.5-18.3zm21 12.1c3.3.7 6.5.4 9.7-.8s6-3.2 8.6-5.9a22 22 0 0 0 5.3-9c1-3.2 1-6.5.1-9.7s-2.8-6.2-5.6-8.8c-2.9-2.7-6-4.4-9.2-5-3.3-.7-6.5-.4-9.7.8s-6 3.2-8.6 5.9a22 22 0 0 0-5.3 9c-1 3.2-1 6.5-.1 9.7s2.8 6.2 5.7 8.9c2.8 2.5 5.8 4.2 9.1 4.9zM671.9 221.4a3 3 0 0 1 1.3-2.1l35.3-25.6c1.1-.8 2.3-1.1 3.6-.9s2.4.8 3.1 1.9l.6.8a5 5 0 0 1 .6 4.5L700 246.6l31.9-23.2c.7-.5 1.6-.8 2.5-.6.9.1 1.6.6 2.2 1.3.5.7.7 1.6.6 2.5s-.6 1.6-1.3 2.2l-35.3 25.6c-1.1.8-2.2 1-3.6.8a4.8 4.8 0 0 1-3.1-1.9l-.5-.7c-.5-.6-.7-1.3-.8-2.1s-.1-1.5.2-2.2l16.4-46.8-31.9 23.2c-.7.5-1.6.7-2.5.6s-1.6-.6-2.2-1.4-.8-1.6-.7-2.5z"/></g></svg>