<?xml version="1.0" encoding="utf-8"?>
<!-- Generator: Adobe Illustrator 22.1.0, SVG Export Plug-In . SVG Version: 6.00 Build 0)  -->
<svg version="1.1" id="Layer_1" xmlns="http://www.w3.org/2000/svg" xmlns:xlink="http://www.w3.org/1999/xlink" x="0px" y="0px"
	 viewBox="0 0 476.8 303.4" style="enable-background:new 0 0 476.8 303.4;" xml:space="preserve">
<style type="text/css">
	.st0{fill:#FFFFFF;}
</style>
<path class="st0" d="M1.5,130.3c-2.4,24.9-1.7,19.9-1.5,46.2s5.1,51.4,12,69c6.5,16.7,13,31.5,32.5,43.1
	c19.1,11.3,38.3,17,68.3,13.2c30.1-3.8,52.3-8.9,65-13.3c26.5-9.4,45.3-13.9,86.3-13.9c84,0,64.7,20.4,154.9-8
	c17.8-5.5,40.7-48,44.9-59.2s15.2-43.6,12.2-106.8S435.8,8.8,409,4.3s-92-8.8-150.3,10.8c-61.4,20.5-66.9,7.2-110.2,5.7
	c-39.4-1.2-62.7-8.8-102,17.5C24.3,53,8.6,56.8,1.5,130.3z"/>
</svg>
