<svg xmlns="http://www.w3.org/2000/svg" viewBox="0 0 321.37 321.53"><defs><style>.cls-1{fill:#fff;}.cls-2,.cls-4{fill:#f090b3;}.cls-2{opacity:0.5;}.cls-3{fill:#141414;}</style></defs><title>map icon member</title><g id="Calque_2" data-name="Calque 2"><path class="cls-1" d="M292.9,148.82a63.43,63.43,0,0,0-.62-6.61,118.32,118.32,0,0,0-5.1-19.22c-1.87-5.43-3.57-10.32-5.41-15.19-.46-1.21-.89-2.46-1.31-3.67a41.78,41.78,0,0,0-4.31-9.77c-1.81-2.69-3.51-5.5-5.16-8.22a108.1,108.1,0,0,0-9.47-14,42.3,42.3,0,0,0-9.61-8.89A31.81,31.81,0,0,1,244.55,57a49.45,49.45,0,0,0-16.27-12.59,172.84,172.84,0,0,0-22.48-9.38c-.92-.29-1.85-.6-2.74-.9a44.31,44.31,0,0,0-7.48-2.07c-3.45-.55-7.51-1.23-11.49-2.14a72.67,72.67,0,0,0-13.54-1.74c-.64,0-1.28,0-1.92,0-2.63,0-5.28.19-7.86.37-1.8.13-3.67.26-5.51.33a42,42,0,0,0-8.09.84c-4.53,1.05-9.16,1.88-13.64,2.68l-1.19.21-3,.49a61.8,61.8,0,0,0-6.72,1.31c-2.28.63-4.54,1.49-6.73,2.32-1.45.54-2.94,1.11-4.44,1.61a112.35,112.35,0,0,0-19.12,8.74A136.45,136.45,0,0,0,69.06,63.4,49.81,49.81,0,0,0,60.77,73c-1.66,2.42-3.25,5-4.79,7.44-1.29,2.07-2.62,4.21-4,6.27a139.33,139.33,0,0,0-12.34,23.19l-.74,1.78c-1.81,4.29-3.68,8.73-5.23,13.18-2.17,6.26-3.13,12.66-4.09,19.77-.4,3-.51,6-.62,9-.09,2.23-.17,4.54-.38,6.82a69.41,69.41,0,0,0,.75,16.82l.42,2.89a81.83,81.83,0,0,0,1.83,9.91A155,155,0,0,0,41.1,216a240.15,240.15,0,0,0,15.17,26.25A132.07,132.07,0,0,0,66.8,256.49a43.71,43.71,0,0,0,11.69,9.62c2,1.16,4,2.38,5.93,3.56,2.11,1.29,4.28,2.63,6.46,3.87,1.85,1.06,3.69,2.19,5.47,3.28,4.66,2.85,9.48,5.8,14.74,7.67,1.89.67,3.75,1.46,5.56,2.23a54.4,54.4,0,0,0,10.1,3.51c1.45.3,2.94.53,4.39.75l2.66.43a42.72,42.72,0,0,0,4.35.43,45.82,45.82,0,0,1,4.58.46,84.47,84.47,0,0,0,11.44.87c2.28.07,4.64.15,7,.33a70.4,70.4,0,0,0,18-1.15c1.88-.33,3.79-.55,5.64-.75a58.36,58.36,0,0,0,8.4-1.37c1.76-.47,3.53-1.06,5.25-1.63,1.26-.42,2.57-.85,3.87-1.24a94.93,94.93,0,0,0,17.44-7.05c3.45-1.84,6.87-3.9,10.18-5.88,3.9-2.34,7.93-4.76,12.07-6.87a19.86,19.86,0,0,0,5.35-3.68c4.81-5,10.45-11,15.79-17.43,4.06-4.88,8.29-10.14,11.43-16.12.88-1.68,1.71-3.45,2.5-5.16a84.16,84.16,0,0,1,3.85-7.57c4.47-7.48,9.7-24,9.82-24.42a49.32,49.32,0,0,0,2.07-11c.14-1.53.32-3.08.5-4.57a67.9,67.9,0,0,0,.69-9.25c-.08-5.55-.35-10.65-.81-15.59C293.05,151.44,293,150.11,292.9,148.82Z"/><path class="cls-2" d="M292.9,148.82a63.43,63.43,0,0,0-.62-6.61,118.32,118.32,0,0,0-5.1-19.22c-1.87-5.43-3.57-10.32-5.41-15.19-.46-1.21-.89-2.46-1.31-3.67a41.78,41.78,0,0,0-4.31-9.77c-1.81-2.69-3.51-5.5-5.16-8.22a108.1,108.1,0,0,0-9.47-14,42.3,42.3,0,0,0-9.61-8.89A31.81,31.81,0,0,1,244.55,57a49.45,49.45,0,0,0-16.27-12.59,172.84,172.84,0,0,0-22.48-9.38c-.92-.29-1.85-.6-2.74-.9a44.31,44.31,0,0,0-7.48-2.07c-3.45-.55-7.51-1.23-11.49-2.14a72.67,72.67,0,0,0-13.54-1.74c-.64,0-1.28,0-1.92,0-2.63,0-5.28.19-7.86.37-1.8.13-3.67.26-5.51.33a42,42,0,0,0-8.09.84c-4.53,1.05-9.16,1.88-13.64,2.68l-1.19.21-3,.49a61.8,61.8,0,0,0-6.72,1.31c-2.28.63-4.54,1.49-6.73,2.32-1.45.54-2.94,1.11-4.44,1.61a112.35,112.35,0,0,0-19.12,8.74A136.45,136.45,0,0,0,69.06,63.4,49.81,49.81,0,0,0,60.77,73c-1.66,2.42-3.25,5-4.79,7.44-1.29,2.07-2.62,4.21-4,6.27a139.33,139.33,0,0,0-12.34,23.19l-.74,1.78c-1.81,4.29-3.68,8.73-5.23,13.18-2.17,6.26-3.13,12.66-4.09,19.77-.4,3-.51,6-.62,9-.09,2.23-.17,4.54-.38,6.82a69.41,69.41,0,0,0,.75,16.82l.42,2.89a81.83,81.83,0,0,0,1.83,9.91A155,155,0,0,0,41.1,216a240.15,240.15,0,0,0,15.17,26.25A132.07,132.07,0,0,0,66.8,256.49a43.71,43.71,0,0,0,11.69,9.62c2,1.16,4,2.38,5.93,3.56,2.11,1.29,4.28,2.63,6.46,3.87,1.85,1.06,3.69,2.19,5.47,3.28,4.66,2.85,9.48,5.8,14.74,7.67,1.89.67,3.75,1.46,5.56,2.23a54.4,54.4,0,0,0,10.1,3.51c1.45.3,2.94.53,4.39.75l2.66.43a42.72,42.72,0,0,0,4.35.43,45.82,45.82,0,0,1,4.58.46,84.47,84.47,0,0,0,11.44.87c2.28.07,4.64.15,7,.33a70.4,70.4,0,0,0,18-1.15c1.88-.33,3.79-.55,5.64-.75a58.36,58.36,0,0,0,8.4-1.37c1.76-.47,3.53-1.06,5.25-1.63,1.26-.42,2.57-.85,3.87-1.24a94.93,94.93,0,0,0,17.44-7.05c3.45-1.84,6.87-3.9,10.18-5.88,3.9-2.34,7.93-4.76,12.07-6.87a19.86,19.86,0,0,0,5.35-3.68c4.81-5,10.45-11,15.79-17.43,4.06-4.88,8.29-10.14,11.43-16.12.88-1.68,1.71-3.45,2.5-5.16a84.16,84.16,0,0,1,3.85-7.57c4.47-7.48,9.7-24,9.82-24.42a49.32,49.32,0,0,0,2.07-11c.14-1.53.32-3.08.5-4.57a67.9,67.9,0,0,0,.69-9.25c-.08-5.55-.35-10.65-.81-15.59C293.05,151.44,293,150.11,292.9,148.82Z"/></g><g id="Calque_1" data-name="Calque 1"><path class="cls-1" d="M173.7,136.84c.25-17.49-.5-35-6-51.62a9.61,9.61,0,0,0-.45-1.14c-1.22-2.58-7-1.88-7.34,1-1.92,15.84,2.38,32.24-.42,48-2.54-2.83-5.34-39.83-10.94-53.19-.89-2.1-2.22-4.49-4.85-4.07a4.34,4.34,0,0,0-3.52,3.54c-1.36,7.56-.88,15.25-.4,22.88l2.09,32.88c-1.09,1-2.7-.58-3.29-2-6-13.83-10-23.19-11.89-38.12-.31-2.38-1-5.31-3.44-5.76A3.22,3.22,0,0,0,120,90c-1.53,1.82-1.51,4.64-1.43,6.86.58,16.83,3,28.29,7.19,44.59a20.73,20.73,0,0,1,.27,10.91C115.38,147.24,108,137.34,103,126.58c-1.2-2.59-3.77-5.85-6.15-4.26-1.38.92-1.42,2.91-1.24,4.56a63.05,63.05,0,0,0,7.22,22.28c3.35,6.08,7.76,11.5,12.15,16.88,5.17,6.35,8.41,12.69,13.59,19,2.87,3.52,5.8,7.15,7.14,11.48a35.7,35.7,0,0,1,1.15,6.17c5.82,46.3,3.11,45.91,8.93,92.21l1.39,1.68,18,1.17,8.47-.09,10.48-1.65,6.28-.76,5.23-1.14,5.12-1.47-.85-2.09c-11.15-38-14.77-40.66-19.53-92.49l-.1-4.34a15.39,15.39,0,0,1,4-8.49c7.69-8.13,16.53-17.39,18-30.66.7-6.3,1.4-12.74,4.3-18.38.77-1.49,3.44-8.69,3.94-10.29.92-3-1.94-5.91-5-5.86-3.46.07-3.46.07-6.69,2.09-3.43,2.13-6.47,6.44-8.33,10.37L184.21,146c-.7,1.49-2.09,1.82-3.71,2a4.78,4.78,0,0,1-5.31-3.49C174.65,142.54,173.7,141.16,173.7,136.84Z"/><path class="cls-3" d="M176.83,136.84c.23-16.67-.44-33.63-5.22-49.71-1-3.31-1.9-6.62-5.63-7.55a8.26,8.26,0,0,0-7.52,1.85,6.42,6.42,0,0,0-1.73,4.3c-.24,2.1-.36,4.21-.41,6.32-.1,4,.08,8,.31,12,.53,9.35,1.46,18.85-.13,28.15l5.24-1.39c.07.09.54.77.28.34s0,.11.11.3c-.12-.34-.25-.67-.35-1-.27-.93-.48-1.89-.67-2.84-.59-2.89-1-5.81-1.49-8.72-1.15-7.51-2.2-15-3.58-22.52-.65-3.55-1.36-7.09-2.27-10.58a35.93,35.93,0,0,0-3.31-9.19c-2.58-4.38-8.31-5.43-11.71-1.27-1.83,2.23-1.95,5.28-2.23,8a76.64,76.64,0,0,0-.31,9.22c.29,14.16,1.66,28.36,2.56,42.5l1.55-2.71,1.6.12a.73.73,0,0,1-.27-.33,6.8,6.8,0,0,0-.62-1.27c-.41-.94-.81-1.89-1.21-2.83q-1.23-2.86-2.4-5.76c-1.46-3.58-2.82-7.21-4-10.91a100.23,100.23,0,0,1-2.78-11.24c-.64-3.48-.57-7.59-2.38-10.74s-6.66-4.63-9.78-2.21c-3.32,2.57-3.13,7.36-3,11.12A172.31,172.31,0,0,0,118.32,123c.88,4.66,1.94,9.27,3.07,13.87,1.23,4.95,2.83,9.62,1.66,14.74l4.6-1.87a41.42,41.42,0,0,1-14-11.46,57.36,57.36,0,0,1-5-7.44c-1.52-2.64-2.58-5.66-4.38-8.12s-4.49-4.59-7.68-3.68-4.43,4.32-4.22,7.37c.48,6.91,2.74,13.79,5.56,20.06,3,6.6,7.22,12.42,11.71,18,2.27,2.84,4.58,5.63,6.65,8.62s4,6,6,8.94c4,5.67,9.51,10.67,10.89,17.72,1.29,6.64,1.75,13.54,2.47,20.26,1.93,18,2.68,36.07,4.51,54.07.66,6.46,1.41,12.92,2.21,19.37a7.06,7.06,0,0,0,1.47,4.13,4.92,4.92,0,0,0,2.4,2,14,14,0,0,0,2.74.24c5.52.36,11.11,1,16.65,1a60.78,60.78,0,0,0,8.85-.2c3.07-.45,6.13-1,9.2-1.45.24,0,.95-.28,1.19-.18,0,0-1.17.14-.54.07l1.11-.13,4.8-.59a48.65,48.65,0,0,0,7.26-1.57l4.05-1.16c1.48-.43,2.83-2.26,2.18-3.85-2.63-6.47-4.26-13.46-6.34-20.14-1.75-5.64-3.54-11.28-5.11-17a256.21,256.21,0,0,1-7.09-39.48q-.87-7.83-1.59-15.68c-.13-1.34-.16-2.66-.19-4a9,9,0,0,1,.56-4c1.3-3.87,4.94-6.65,7.58-9.62a71.84,71.84,0,0,0,8.21-10.9A40.41,40.41,0,0,0,205,157.88c1-5.28,1.09-10.63,2.66-15.81,1.07-3.53,2.85-6.87,4.15-10.32s3.08-6.92,1.19-10.39c-2.48-4.56-8.64-5.5-13.07-3.43-4.95,2.32-8.68,6.68-11.25,11.41-1.46,2.7-2.68,5.56-4,8.35l-2.21,4.7c-.48,1-.6,2.18-1.75,2.45-1.8.43-2.3-.56-2.8-2.09a19.17,19.17,0,0,1-1.08-5.91c-.05-4-6.31-4-6.26,0,.05,3.7.79,8.78,3.32,11.7,3,3.44,9.27,3.67,12.27.12,1.66-2,2.52-4.85,3.6-7.14,1.33-2.83,2.59-5.71,4-8.48,2-3.78,5.07-7.94,8.87-9.52a5.57,5.57,0,0,1,3.89-.08c1.5.77.94,1.89.5,3.14-.52,1.46-1.06,2.9-1.61,4.35s-1,2.67-1.51,3.72a51.82,51.82,0,0,0-4.26,15.9c-.61,4.81-1.22,9.4-3.32,13.83A52.24,52.24,0,0,1,189,175.44c-2.8,3.33-6.24,6.27-8.73,9.84-4.79,6.86-2.78,15.5-2,23.21,1.51,14.74,3.31,29.52,7,43.91,1.59,6.27,3.51,12.46,5.44,18.64q1.77,5.67,3.51,11.35c1.13,3.72,2.09,7.52,3.55,11.12l2.19-3.85c-1.69.49-3.38,1-5.09,1.46-.7.18-1.41.31-2.12.47a12.13,12.13,0,0,0-3,.65c-.13.08,1.19-.14.28,0l-1.6.19-3.59.44c-1.52.19-3,.43-4.55.67-2.28.36-4.56.7-6.84,1.08-1.37.22,1,0-.35,0-1.08,0-2.18,0-3.26,0-3.19,0-6.27-.06-9.46-.27l-13.2-.86,2.21.92L148,292.73l.92,2.21c-1.68-13.4-3.11-26.81-4.06-40.28-.76-10.64-1.46-21.27-2.56-31.88-.39-3.87-.83-7.74-1.28-11.61-.53-4.45-.85-9-1.77-13.42-1.78-8.51-8.74-14.77-13.43-21.75-2.5-3.73-4.94-7.49-7.71-11s-5.71-7-8.32-10.66a62.73,62.73,0,0,1-10.33-23.21,28.31,28.31,0,0,1-.8-5.86v-.09c.18-.52.19-.63,0-.32a.41.41,0,0,0-.5.3c0,.17,1.15,1.29,1.35,1.61,2.21,3.57,3.76,7.48,6.1,11,4.79,7.21,11,13.5,18.85,17.36a3.17,3.17,0,0,0,4.6-1.87c1.22-5.37.34-10.12-1-15.37-1.14-4.48-2.22-9-3.15-13.51a163.4,163.4,0,0,1-3.2-26.73,14.09,14.09,0,0,1,.52-5.34c.21-.62-.32,0,0,0s.85.45.34,0a3.43,3.43,0,0,1,.78,1.78c1,4.18,1.3,8.54,2.3,12.75,2,8.36,5.25,16.3,8.61,24.18.85,2,1.53,4.23,3.05,5.83s4.09,2.41,6.15,1c2.31-1.54,1.41-4.84,1.26-7.19l-.52-8.22c-.66-10.39-1.7-20.85-1.77-31.27a74.1,74.1,0,0,1,.33-7.74c.08-.77,0-4.45,1.38-4.48s2.36,4.37,2.71,5.49A138.15,138.15,0,0,1,150.69,102c1.2,7,2.17,14.09,3.29,21.13.4,2.49.8,5,1.36,7.46a10.87,10.87,0,0,0,2,4.72c1.44,1.73,4.85.86,5.23-1.38,2.47-14.52-.55-29,.1-43.61a20.88,20.88,0,0,1,.38-4.75c-.09.32-.33.33-.08.3l.72-.22a2.44,2.44,0,0,1,.83,0c.22,0,.27.27.15,0a29,29,0,0,1,1.42,4.8,119.74,119.74,0,0,1,3.77,21.26,243.84,243.84,0,0,1,.74,25.07C170.52,140.87,176.78,140.87,176.83,136.84Z"/><path class="cls-4" d="M321.37,151c-.15-1.52-.24-3.08-.32-4.6a78.56,78.56,0,0,0-.77-8.17,143.72,143.72,0,0,0-6.2-23.38c-2.24-6.5-4.27-12.36-6.48-18.2-.53-1.4-1-2.87-1.53-4.3-1.46-4.22-3-8.59-5.46-12.29-2.13-3.15-4.14-6.48-6.08-9.7-3.48-5.75-7.07-11.71-11.55-17-4.34-5.16-8-8.49-12.08-11.14a35.56,35.56,0,0,1-8.18-6.9,61.56,61.56,0,0,0-20.31-15.71c-8.53-4.1-17.65-8.34-27.18-11.34-1.07-.33-2.16-.7-3.22-1.06a56.74,56.74,0,0,0-9.36-2.58c-4.07-.64-8.86-1.44-13.53-2.51A88.87,88.87,0,0,0,172.47,0a107.74,107.74,0,0,0-12,.4c-2.13.15-4.33.3-6.49.38a53.67,53.67,0,0,0-10.16,1.07C138.51,3.05,133,4,127.71,5l-1.42.25c-1.15.21-2.33.39-3.48.58a75.67,75.67,0,0,0-8.31,1.63c-2.84.78-5.6,1.83-8.27,2.84-1.7.64-3.46,1.31-5.2,1.89A137,137,0,0,0,77.76,22.79,166.15,166.15,0,0,0,49.49,42.6a62.25,62.25,0,0,0-10.35,12c-2,3-3.93,6-5.78,9-1.52,2.45-3.1,5-4.72,7.41a168.94,168.94,0,0,0-15,28.12l-.89,2.12c-2.18,5.16-4.42,10.5-6.3,15.9-2.67,7.7-3.84,15.48-5,24.11-.49,3.7-.64,7.42-.77,11-.1,2.62-.2,5.34-.44,8A85.3,85.3,0,0,0,1.19,181c.17,1.14.34,2.28.5,3.42a99.79,99.79,0,0,0,2.25,12.16,188.28,188.28,0,0,0,11.52,31.33c5.5,11.53,12.31,22.36,18.26,31.61A162.91,162.91,0,0,0,46.5,276.81a55.17,55.17,0,0,0,14.66,12.06c2.36,1.37,4.73,2.82,7,4.22,2.53,1.55,5.15,3.15,7.78,4.65,2.17,1.25,4.35,2.59,6.46,3.88,5.68,3.47,11.55,7.07,18.09,9.39,2.18.78,4.36,1.71,6.48,2.6A66.64,66.64,0,0,0,119.56,318c1.79.37,3.61.65,5.36.92l3.13.5a49.13,49.13,0,0,0,5.48.55c1.71.12,3.48.23,5.18.51a102.69,102.69,0,0,0,14,1.09c2.69.08,5.47.17,8.18.38,1.78.14,3.59.21,5.45.21a96.17,96.17,0,0,0,16.71-1.62c2.16-.38,4.39-.63,6.55-.87a71.57,71.57,0,0,0,10.42-1.7c2.18-.58,4.34-1.3,6.43-2,1.48-.49,3-1,4.53-1.45a116.23,116.23,0,0,0,21.31-8.62c4.18-2.23,8.29-4.7,12.27-7.09,4.61-2.76,9.38-5.63,14.24-8.1a25.67,25.67,0,0,0,7.1-4.93c5.77-6,12.54-13.2,19-20.93,4.94-5.94,10.09-12.35,14-19.72,1.08-2.06,2.08-4.2,3-6.27a96.62,96.62,0,0,1,4.46-8.79c5.51-9.21,12-29.68,12-29.74a61.76,61.76,0,0,0,2.57-13.68c.15-1.79.37-3.61.58-5.37a83.66,83.66,0,0,0,.85-11.4C322.25,163.14,321.92,157,321.37,151Zm-27.62,26.74c-.18,1.5-.37,3-.51,4.58a48.48,48.48,0,0,1-2.07,11c-.12.4-5.37,17-9.86,24.5a84.77,84.77,0,0,0-3.86,7.6c-.8,1.72-1.62,3.49-2.51,5.18-3.15,6-7.39,11.28-11.47,16.18-5.36,6.44-11,12.45-15.84,17.49a19.84,19.84,0,0,1-5.37,3.69c-4.15,2.11-8.2,4.54-12.11,6.89-3.32,2-6.76,4-10.22,5.9a94.19,94.19,0,0,1-17.5,7.07c-1.31.39-2.61.83-3.88,1.25-1.73.57-3.51,1.17-5.27,1.64a58.76,58.76,0,0,1-8.43,1.37c-1.86.2-3.77.42-5.65.75a71,71,0,0,1-18.07,1.16c-2.33-.19-4.7-.26-7-.33a85.2,85.2,0,0,1-11.48-.88,45.73,45.73,0,0,0-4.59-.46,43.12,43.12,0,0,1-4.37-.43l-2.66-.43c-1.46-.22-3-.46-4.4-.75a54.7,54.7,0,0,1-10.15-3.53c-1.81-.77-3.68-1.56-5.57-2.23-5.28-1.88-10.12-4.84-14.79-7.7-1.79-1.1-3.64-2.23-5.49-3.29-2.19-1.25-4.37-2.59-6.49-3.88-1.93-1.19-3.94-2.42-6-3.58a44,44,0,0,1-11.73-9.65A134.37,134.37,0,0,1,55.9,242.59a243.44,243.44,0,0,1-15.22-26.34,156.66,156.66,0,0,1-9.54-26,82.7,82.7,0,0,1-1.84-9.94q-.19-1.46-.42-2.91a69.79,69.79,0,0,1-.75-16.87c.21-2.29.3-4.6.38-6.84.11-3,.23-6,.63-9,.95-7.13,1.92-13.55,4.1-19.83,1.55-4.47,3.43-8.93,5.24-13.23l.75-1.78A139.1,139.1,0,0,1,51.61,86.57c1.38-2.08,2.72-4.22,4-6.29,1.54-2.48,3.13-5,4.8-7.48a50.39,50.39,0,0,1,8.32-9.64A137.46,137.46,0,0,1,92.13,46.77,112.53,112.53,0,0,1,111.31,38c1.51-.51,3-1.07,4.46-1.62,2.2-.83,4.47-1.7,6.76-2.32a59.91,59.91,0,0,1,6.74-1.33c1-.15,2-.31,3-.49l1.19-.21c4.5-.8,9.14-1.63,13.69-2.69a43.09,43.09,0,0,1,8.11-.84c1.86-.07,3.73-.2,5.54-.33,2.59-.18,5.25-.36,7.89-.36q1,0,1.92,0a72.36,72.36,0,0,1,13.59,1.75c4,.91,8.07,1.59,11.53,2.14a45.25,45.25,0,0,1,7.5,2.08c.9.3,1.83.61,2.75.9a172.13,172.13,0,0,1,22.56,9.42,49.56,49.56,0,0,1,16.33,12.63A32.27,32.27,0,0,0,252.22,63a42.08,42.08,0,0,1,9.65,8.91,108.85,108.85,0,0,1,9.5,14c1.65,2.73,3.36,5.55,5.18,8.25a42.11,42.11,0,0,1,4.32,9.81c.42,1.21.85,2.46,1.32,3.68,1.85,4.88,3.55,9.79,5.42,15.24a118.35,118.35,0,0,1,5.12,19.28,58.94,58.94,0,0,1,.62,6.64c.08,1.29.15,2.63.28,3.95.46,5,.73,10.08.81,15.65A68.33,68.33,0,0,1,293.75,177.75Z"/></g></svg>