<svg width="113" height="104" viewBox="0 0 113 104" fill="none" xmlns="http://www.w3.org/2000/svg">
<path d="M42.0995 37.5025C42.1502 36.5157 42.8064 36.1579 43.6375 35.6473C44.5102 35.1111 46.3975 36.3197 47.1354 35.4886C48.1463 34.3502 48.7411 33.5059 48.1582 31.8983C47.7729 30.8356 46.2354 30.4616 45.2205 30.4094" stroke="black" stroke-width="3" stroke-linecap="square"/>
<path d="M58.8056 43.3794C58.1961 41.7284 59.2233 39.383 60.786 38.5643C61.6364 38.1188 62.5935 37.7456 63.5372 37.5572C64.4226 37.3805 65.3208 37.535 66.2004 37.3806C67.158 37.2125 66.8358 36.3178 66.7771 35.5032C66.7005 34.4385 66.2638 33.4637 66.1872 32.4177C66.0932 31.1345 67.3474 29.8507 68.1661 28.9931C68.8053 28.3235 70.6106 26.8314 71.6543 27.3793C72.519 27.8332 73.6965 28.9652 74.1873 29.8247" stroke="black" stroke-width="3" stroke-linecap="square"/>
<path d="M85.674 33.0113C86.6897 30.9132 88.892 29.3506 91.1761 30.8818C92.2029 31.5701 92.8534 32.619 94.1893 32.8592C94.9912 33.0033 95.197 32.3155 95.5638 31.6824C95.712 31.4266 96.4521 30.547 96.2003 30.2199" stroke="black" stroke-width="3" stroke-linecap="square"/>
<path d="M57.8921 26.368C57.817 27.828 59.0997 26.4558 58.4857 26.1084" stroke="black" stroke-width="3" stroke-linecap="round"/>
<path d="M51.7171 53.683C51.4379 54.2339 51.9822 55.2396 52.1829 55.7532C52.4924 56.5451 53.2264 58.0143 54.2375 58.0453C54.7125 58.0599 55.113 57.3202 55.3597 57.0089C55.9864 56.2185 56.3138 55.2832 56.8899 54.4743C57.3355 53.8486 57.7021 53.4017 58.5528 53.5279C59.4095 53.6551 60.6937 54.8117 60.6631 55.6887C60.6476 56.1324 60.4949 56.5739 60.5013 57.0141C60.5064 57.3607 61.2742 57.805 61.5171 57.984C62.5597 58.7524 64.6364 57.8308 65.2407 56.8243C66.1883 55.2458 65.8139 52.571 65.8512 50.8571" stroke="black" stroke-width="3" stroke-linecap="square"/>
<path d="M43.354 72.8474C45.8475 75.0213 49.3571 71.2078 50.3302 69.1483C51.1179 67.4812 52.4211 66.5229 54.1307 65.8063C54.8433 65.5076 55.916 64.9632 56.6816 65.3602" stroke="black" stroke-width="3" stroke-linecap="square"/>
<path d="M62.3576 79.8341C62.8392 77.8147 64.4951 75.719 66.6069 77.6185C67.7883 78.6811 68.2667 79.2154 69.3055 77.8015C69.9484 76.9263 70.8585 76.8243 71.9004 77.0806C72.4429 77.214 72.9396 77.432 73.3469 77.818C73.6129 78.0701 73.6735 78.2526 74.0773 78.2224C74.9258 78.1591 75.507 77.7719 75.7492 76.9282C75.8282 76.6529 75.7519 76.3138 75.9971 76.1631" stroke="black" stroke-width="3" stroke-linecap="square"/>
<path d="M42.4917 47.8564C44.3302 46.9533 46.667 46.2341 48.0218 44.6558" stroke="black" stroke-width="3" stroke-linecap="square"/>
<path d="M53.6948 80.3355C53.4575 80.3529 53.4129 80.4661 53.6874 80.4802" stroke="black" stroke-width="3" stroke-linecap="round"/>
<path d="M98.5608 43.9424C95.855 43.8033 98.2055 45.209 98.2566 44.2169" stroke="black" stroke-width="3" stroke-linecap="round"/>
<path d="M81.2615 20.043C81.9648 19.9828 83.0883 20.4944 83.7355 20.6608C84.156 20.7689 84.3962 20.9701 84.5985 21.3345" stroke="black" stroke-width="3" stroke-linecap="square"/>
<path d="M90.1626 71.8305C90.9868 72.1024 91.4535 73.2593 91.5691 74.0345C91.6845 74.8088 91.5103 75.5751 91.416 76.3492C91.3394 76.9781 90.9765 78.1329 90.2923 78.288C89.4685 78.4749 88.3735 78.4915 87.631 78.8657" stroke="black" stroke-width="3" stroke-linecap="square"/>
<path d="M69.6019 65.544C72.0348 65.7604 73.2187 65.0738 74.5053 63.7944C76.402 61.9084 77.8509 60.1927 80.4532 62.222C82.1656 63.5574 83.5323 65.738 85.9873 64.5563C87.1843 63.9801 88.7687 62.417 89.4908 61.3115C90.8521 59.2272 90.7169 54.9283 94.1141 54.6953C95.5842 54.5945 97.9174 57.1922 98.7736 58.3334C99.6299 59.4746 100.685 61.2454 99.6218 62.3031C97.4945 64.4184 95.3483 61.7393 94.6203 60.4443C93.2699 58.0424 97.223 55.5597 98.4881 55.3826C99.8968 55.1855 101.409 55.5906 102.466 56.6543C103.524 57.7179 104.354 59.7772 104.576 60.9029" stroke="black" stroke-width="3" stroke-linecap="square"/>
<path d="M29.638 56.3614C31.4353 56.0527 34.4491 55.9508 35.919 57.2821C36.762 58.0456 39.4731 60.6054 38.306 61.9954C37.8945 62.4855 36.3157 62.5948 35.7722 62.4305C33.7455 61.8178 33.4649 56.6555 35.5987 55.9626C38.9136 54.8861 41.2795 56.5669 42.8186 59.4399" stroke="black" stroke-width="3" stroke-linecap="square"/>
<path d="M109.894 73.4312C107.413 74.0212 102.367 77.1096 100.649 73.701" stroke="black" stroke-width="3" stroke-linecap="square"/>
<path d="M66.5143 17.6097C69.5084 16.8796 72.7584 14.9914 74.0063 12.075" stroke="black" stroke-width="3" stroke-linecap="square"/>
<path d="M18.6925 68.2342C16.8942 70.4254 14.5641 72.0698 12.6679 75.6697C10.7718 79.2696 7.4619 84.6589 6.06682 88.4409C4.67174 92.2229 0.274473 97.8722 2.20316 100.17C4.13185 102.468 12.2513 99.5829 14.7459 98.7813C17.2299 97.9831 20.2445 96.7773 22.8023 95.936C25.3601 95.0947 29.7877 94.8584 33.2933 93.6583C36.7989 92.4581 37.2468 92.1304 40.7891 91.0823M18.6925 68.2342C19.4172 82.5034 31.2956 90.3075 40.7891 91.0823M18.6925 68.2342C31.1997 70.208 40.6677 83.7949 40.7891 91.0823" stroke="black" stroke-width="3" stroke-linecap="round"/>
<path d="M33.8184 78.1568C37.3943 82.2845 39.6061 86.8903 39.9827 90.2447C31.1497 89.132 20.6367 81.9307 19.5073 69.1454C25.1517 70.3182 30.1485 73.9206 33.8184 78.1568Z" stroke="black" stroke-width="1.5" stroke-linecap="round"/>
<path d="M49.0771 22.3982C45.6597 19.0695 49.018 14.4316 52.8651 13.2941C55.0576 12.6459 58.3455 12.3458 59.6337 10.1823C60.5563 8.63292 58.4954 4.6269 58.0144 3" stroke="black" stroke-width="3" stroke-linecap="square"/>
<path d="M72.8281 49.8812C73.5878 49.3748 74.2572 48.4379 74.6749 47.6468C75.6533 45.7936 74.3851 44.2673 73.3753 42.7448C72.5828 41.55 71.7438 40.4824 73.3183 39.5528C74.7433 38.7115 76.3543 38.5427 77.9581 38.39" stroke="black" stroke-width="3" stroke-linecap="square"/>
<path d="M82.0622 53.78C82.0622 51.3201 81.5337 48.0451 83.7722 46.3814C84.3526 45.95 87.0707 44.7134 87.6026 45.7772" stroke="black" stroke-width="3" stroke-linecap="square"/>
</svg>
