<?xml version="1.0" encoding="utf-8"?>
<!-- Generator: Adobe Illustrator 22.1.0, SVG Export Plug-In . SVG Version: 6.00 Build 0)  -->
<svg version="1.1" id="Layer_1" xmlns="http://www.w3.org/2000/svg" xmlns:xlink="http://www.w3.org/1999/xlink" x="0px" y="0px"
	 viewBox="0 0 500 500" enable-background="new 0 0 500 500" xml:space="preserve">
<path fill="#B8D7E3" d="M45.2,116.3c1.6-2.7,6-9.1,7-10.6c0.9-1.5,5.4-8.5,6.3-10s4.7-7.3,5.9-9c1.2-1.7,4.5-6.3,5.5-7.5
	s6.3-6.9,7.7-8.2c1.4-1.3,5.4-4.8,7.3-6.3c2-1.5,9.2-7.4,12.5-9.6c3.3-2.2,6.9-5,10.6-7.2s10.2-6.4,14-8.5s11.7-6.3,15.1-7.9
	s12.2-5.5,15.9-6.8c3.8-1.2,12.1-4.2,15.7-5.6c3.6-1.4,9.1-3.5,14.6-4.6s16.3-2.5,20.5-3.4c4.3-0.9,19.3-3.9,23.3-4.7
	s14.5-1.2,20.3-1.5s16.4-1.2,23.1-0.6s12.2,1.2,17.8,2.3s12.4,2.7,19.2,3.7c6.8,1,9,1.3,12.5,2.4s10.3,3.4,12.3,4.1
	s7.5,2.1,15.7,5.6s16.8,7.3,18.9,8.4s10.6,5,14.2,7.2s7.9,5.1,10.9,7.7s7.3,6.4,8.1,7.4c0.9,1,4.4,5,6.5,7.1c2,2.1,6.3,5.7,9.3,7.6
	s7,4.6,10.4,7.9s8.9,8.8,11,11.7s4.9,6.6,8.7,12.6c3.8,6,8,12.8,9.1,14.7c1.1,1.9,5.3,8.4,7,11.2c1.7,2.7,2.9,4.1,4.1,7.1
	s3.4,8.1,4.9,12.8c1.5,4.8,5.2,14.1,6.4,17.7c1.2,3.5,3.1,8.3,4.1,11.4c1,3.1,4.4,13.3,5.2,16.1c0.8,2.8,2.8,9.3,3.9,14.5
	s2.1,9.6,2.6,15c0.4,5.4,1.5,20,1.7,24.1s0.9,14.6,0.9,19.6s-2.1,22.1-2.3,24.5c-0.2,2.4-1.4,10.3-1.6,11.9
	c-0.3,1.6-2.3,8.6-2.4,9.2s0.1,1.8-0.3,3s-3.8,11.2-4.6,13.3c-0.8,2.1-5.5,13.6-6.6,16.2c-1.2,2.5-3.5,7-4.8,9.3s-4.4,7.8-5.3,9.8
	s-3.4,6.8-4.3,8.9s-3.3,7.5-5.8,11.5c-2.4,3.9-3.9,6.4-6.3,9.7s-5,7.1-8.7,11.5c-3.6,4.4-7.1,8.7-10,11.8s-8.7,9.8-10.5,11.8
	c-1.9,2.1-5.8,6.2-7.8,8.2s-3.2,3.8-5.3,5.6c-2.1,1.8-2.6,3-5.6,4.5s-11.7,6.2-14.6,7.8s-6.7,4-8.7,5.1s-10.1,6.2-11.6,7
	c-1.6,0.9-7.8,4.5-10.2,5.7c-2.4,1.2-5,2.5-9.1,4.5s-14.5,5.7-15.9,6.2c-1.5,0.5-8.3,2.6-11.1,3.5c-2.9,0.9-12.3,4-16.1,4.8
	c-3.8,0.8-11.7,1.8-15.9,2.2c-4.2,0.4-11.9,1.9-15.5,2.4s-10.5,1.2-16.5,1.2s-18.1-0.8-26.3-1.2c-8.3-0.4-22.9-2-22.9-2
	s-17.7-2.2-20.4-2.6s-8.1-1.4-15.5-4.5s-16.8-6.9-18.5-7.5c-1.6-0.7-8.6-3.7-12.5-6s-11.4-6.6-12.4-7.2c-1-0.7-8.1-5-10-6.1
	c-1.9-1-8.9-5.1-10.4-6.2c-1.6-1.1-11.2-6.9-12.6-7.7s-5.9-3.6-6.9-4.3c-1-0.8-4.6-3.3-6-4.6s-3.9-3.6-5.4-5.1s-6.1-7-7.4-8.6
	s-5.9-7.7-6.4-8.4c-0.5-0.8-5.9-8.5-8.9-13.1s-6.4-9.9-8-12.4s-9.3-15.4-10-16.8s-5.4-9.8-6.5-12.1s-6.1-12.6-7-14.6
	s-3.8-9-4.7-11.4s-4.4-12.2-4.9-13.9s-3.8-12.3-4.3-14.2c-0.5-1.9-1.9-7.3-2.3-10.3c-0.5-3-2.2-14.5-2.4-16.3
	c-0.2-1.8-1.3-11.7-1.4-13.9c-0.1-2.2-0.2-10.4,0-12.5c-0.2-2,0.3-7.8,0.5-13.8s0.7-15.3,2.1-24.5c1.3-9.2,3.6-20.7,4.8-24.6
	c1.2-3.8,5.5-15.9,6.3-17.7c0.8-1.7,7-16.5,7.9-18.6s7.2-15.5,8-17C34.8,134.2,44,118.3,45.2,116.3z"/>
<path fill="#AEADAE" d="M243,182.2c-1-0.2-7.5-1.6-14.8-3.1s-16.6-3.6-16.6-3.6c-0.1,1.7-0.2,3.8,1.6,7.1s2.2,6.7,2.7,13.3
	s-1,18.7-1.1,20.2c-0.1,1.6-2.1,14.3-2.1,18.2s1.7,11,2.1,14.3s0.1,8.6,1.1,13.5s3.9,11.7,4.8,14.1c0.6,1.4,0.6,4.8,0.6,6.4
	c2,0,7.4,0.1,8.6,0c1.6-0.1,6.9-0.9,8-2.1s1.9-2.3,3.3-5.3s3.2-8.8,5.3-13.5s1-6.3-1.1-8.6s-4.2-5.2-5.3-7.3c-1.1-2-0.5-3.9,0.2-5.8
	c0.7-1.9,2.9-4.5,3.9-7.4s0.7-9.8-0.9-17.3c-1.6-7.5-1.1-15.5,0-21.3s2.7-9.6,2.9-10S244,182.5,243,182.2z"/>
<path fill="#FFFFFF" d="M456.2,250.5c-0.2-2.7-1.9-6.4-4-10.6c-2.2-4.2-6.7-12.9-8.1-15.5s-3.3-8.4-5.4-13.4c-2-5-3.4-6.1-5.4-8.2
	c-2-2.1-2.5-3.8-2.7-8.4c-0.2-4.6-0.5-7.2-1-9.6c-0.5-2.4-2-4.9-3.3-6.6c-1.3-1.8-5.5-5.2-7.8-6.1c-2.2-0.9-7.8-0.6-19.7-0.5
	c-12,0-13.9-1.6-18.6-3.4c-4.7-1.8-12.9-1.5-19.8-1.5s-12.5-1-14.6-2s-7.3-0.2-7.3-0.2s2.9,4.5,3.5,5c0.5,0.5,3.6,2.1,4.7,2.6
	s16.1,8.9,18.4,10.1c2.3,1.1,2.9,0.7,1.8,1.7s-2.6,0.2-3.7-0.4c-1.1-0.6-17.6-9.5-21.6-11.7s-5.6-6.5-9.5-8.1
	c-1.9-0.8-7.5-3.2-11.8-6s-10.3-7.9-14.8-10.9s-13.8-6.9-25.3-9.8c-11.5-2.9-26.6-1.9-38.3,0.9c-9.2,2.1-29.5,8.3-31.8,9
	s-11.1,2.6-23.4,1.7c-12.3-0.9-26.8-1.4-37.6-0.9s-19.2,1.4-22.5,1.6c-3.3,0.3-7.4-0.3-7.9-0.4c-0.3-0.1-0.3,0.2-0.3,0.4
	c0.3,1.3,1.7,5.9,1.8,6.2c0.2,0.5,0.8,4.9,1.2,6.8c0.3,1.9,0.7,2.6,1.4,3.2c0.2,0.2,0.4,0.3,0.7,0.4c0.1,0,0.2,0.1,0.3,0.1
	c0.3,0.1,0.7,0.2,1.4,0.3c0.2,0,0.4,0.1,0.6,0.1c0.9,0.1,2.1,0.3,3.2,0.4c1.1,0.2,2.2,0.2,3,0.2c1.3,0,2.5,0,3,0
	c0.9,0,1.9-0.1,2.9-0.1c2.4-0.1,10.7,0.3,16,0.5c5.8,0.2,20,1,31.3,2s20.6,3.8,28.1,5.9c7.5,2.1,20.7,4.9,29.7,7s12,2.5,13.7,4.6
	c0.8,0.9,1.1,1.1,0,2.2c-1.1,1-1.3-0.4-2.7-2c-1.5-1.6-2.9-1.4-4.2-1.6s-1.9,0.1-2.6,1.6s-2.4,10-2.9,13.7s0,10.9,0.5,13
	s1.6,9.4,1.5,14.8s-2.4,8.3-4.3,11.4c-1.9,3.1-1.7,3.9-0.6,5.7c1.1,1.8,3.4,3.7,6.6,7.5s0.7,7.7,0,9.5c-0.7,1.8-3.6,8.3-6.3,14.3
	c-2.6,6-1.8,4.3-2.7,4.8c-0.8,0.5-4.7,1.8-9.4,2.1c-3.3,0.3-7,0.2-9.1,0.1c-0.3,0-0.5,0-0.9,0c-5.2,0-12.4,0.7-23.6,1.4
	c-11.2,0.7-15.4,0.7-20.2,0.2s-7.3-1.4-13-1.4c-4.4,0-8.5,0.3-10.8,0.7v0.1c0,0-1.6,0.2-2.6,0.5s-3,2.1-3.1,4.4s3.6,7.1,5.1,8.2
	s4.7,1.3,5.5,1.3c0.7,0,1.7-0.2,3.9-0.9c0.2-0.1,0.4-0.1,0.6-0.2c5.6-1.8,14.3-1.1,18.2-1.1s10.4-0.4,14.5-0.5s3.5,1,7.8-0.2
	c4.3-1.1,11.6-0.7,15.5-0.5c3.9,0.1,11.2-0.2,16-0.3c4.8-0.1,29.1-1.2,39.8-1.1s12.9,0.4,23.1,1.2c10.2,0.8,22.5,3.7,30.4,4.8
	c7.9,1.1,16.9,1.1,26.4,1.4s13.3,0.9,23.2,3.2c9.9,2.3,14.4,4.8,16.7,5.7c2.3,0.9,10.2,3.9,12.8,4.9c2.7,1.1,3.2,2.2,9.3,2
	c6.1-0.1,9.8-1.8,13.8-3.3c3.9-1.5,12-1.2,16-1.3c4.1-0.1,5.6-2.6,6.7-5.2c1.1-2.5,1.9-5.4,3.8-13.1s1-14.6,0.9-16.6
	c0-2-1.1-10.8-1.1-14.8C455,259.4,456.4,253.2,456.2,250.5z"/>
<path fill="#AEADAE" d="M206.6,322.2c1.6,0.5,10.3,3.4,12.6,4.4s6.4,3.3,8.8,4.5c2.4,1.2,9.6,4.5,12.8,5.4c3.2,1,11.8,3.6,16.9,4.6
	c5.1,1,11.6,2.2,16.6,2.1c4.9-0.1,13.1-0.5,17.7-0.6s13.6,0.4,18.1,0.5c4.4,0.1,19.3,0.1,22.9,0.1c3.5,0,8.4,0.4,10.3,0.3
	s5.4-0.2,8.8-0.1s10.8-0.1,13.3,0c2.6,0,16.2-0.4,18.8-0.2c2.6,0.1,8.6,0.7,14.1-0.6s11.1-3.3,16.2-6.3s11-5.9,13.3-6.4
	s7.5-1.2,9.8-2.2s5-3,7-5.8c1.2-1.7,3.3-6.5,4.2-7.9c-1.8,0-6.8,0-10.2-0.1c-5.5,0-8.6,1.1-12.2,2.5s-8.5,1.9-12.8,2
	c-4.4,0.1-9.2-2.3-11.9-3.4c-2.7-1.1-5.6-1.6-10.4-4s-10.4-4.3-20.3-6.7c-9.8-2.4-23.3-2.2-32.3-2.4c-9-0.1-21.6-2.5-25.6-3.3
	s-12.6-2.3-24.7-3.4c-12-1.1-27.2-0.5-33.5-0.1c-6.3,0.3-30,1.1-31.1,1.1c-0.2,0-0.7,0-1.3,0c0,0.5-1.8,3-1.8,3.3
	c0,1.2,1.1,4.4,1.2,7.3c0,0,0.2-0.2-0.6,1.1c-0.7,1.1-1,1.2-3.4-0.5s-5.7-2.6-8.4-3s-3.6-0.3-6-1.2s-6.8-4.4-8.1-5.4
	c-0.2-0.1-1.1,0-1.2-0.1c-3.6,0-9,0.1-10.6,0.2c-2.3,0.3-6.4,0.2-11.6,0.1c-0.2,0-1.2,0-1.4,0c0,0.8-0.1,3.5,0,4.2
	c0.2,1.1,0.2,3.3,0.6,5.1c0.5,0.3,2.7,1.4,3.8,1.8c2.4,0.8,4.1,1.2,5.1,1.8s5.9,2.4,7.6,3s4.6,1.3,7.8,2.8
	C198.6,317.9,205,321.7,206.6,322.2z"/>
<path fill="#797360" d="M192.7,487.9c0.3,0.9,0.6,4,0.8,4.8c3.5,0.5,12.5,1,15.3,1.3c-0.7-1.7-2.2-6.3-2.6-7.4
	c-0.5-1.6-2.9-11.5-3.2-13.2s-1.7-7.1-2.4-10.9s-2.1-12.8-2.8-19.3s-1.8-12.7-2.2-16.5s-2.7-13.7-3.3-16.9
	c-0.7-3.2-2.5-10.6-2.9-12.4s-1.7-7.9-2.2-10.3s-1.3-6.9-2.2-13.4s-2.5-11.7-3.1-13.6s-2.1-7.3-2.5-9.3s-1.4-6.7-2-10.1
	s-1.4-6.8-1.9-9.8s-1.8-8-2.2-9.7s-1.4-9.4-2.8-14.4c-0.9-3.4-2.2-8-2.3-9.4c-0.2,0-1.3,0-1.5,0.1c-1.1,0.2-4.1,0.9-5.6,1.4
	c-1.8,0.6-6.7,0.8-6.7,0.8c0.5,1.2,1.3,8,1.8,10.2s1.9,6.3,2.5,8.4c0.6,2.2,0.7,4.9,1.2,7.1c0.5,2.3,1.8,9.8,4.4,19.7
	c2.6,9.9,6.5,25.4,7.1,29.1c0.7,3.7,2.5,15.9,3.8,23.6c1.4,7.7,3.4,19.6,4.3,24.4c0.8,4.8,4.4,24.9,5,29.1s3.3,17.3,3.9,19.8
	C188.9,473.5,192.2,486.4,192.7,487.9z"/>
<path fill="#797360" d="M130.2,181.1c0.3,1,2.6,15.2,2.7,16.1s2.8,16.3,3.1,17.6s2.1,12.2,2.3,13.3c0.2,1,1,7.5,2.2,11.7
	c1.2,4.3,3.5,14.9,4.6,19.8s3.2,15.9,3.9,19.2c0.5,2.6,0.5,5.7,0.5,6c1.2-0.1,4.9-0.3,7.4-0.4c2-0.1,3.9-0.2,5.5-0.2l2-0.1
	c0-0.9-0.8-6.6-1.3-9.1s-3.7-18.6-4.2-21s-3-16.1-3.4-18.5s-1.7-11.3-2.2-14c-0.4-2.7-3.1-14.7-3.4-16.1c-0.3-1.4-2.2-10.5-3-14.3
	c-0.8-3.7-2.5-9.7-3.2-11.5s-1.5-4.7-1.9-6.8c-0.2-0.9-0.4-3.9-0.5-4.7c-1.3,0.1-5.5,0.3-6.8,0.3s-3.2-0.2-3.9-0.3
	c-0.3,0-2.5,0-3-0.2c0.5,1.3,0.8,4.8,0.9,5.1C128.6,173.6,129.9,180.1,130.2,181.1z"/>
<path fill="#797360" d="M126.3,93.1c-3.7-1.4-10.3-2.1-15.8,0.9c-5.4,2.9-8.5,7.7-8.6,8.6s0.2,7.9,1.3,11.4c1.1,3.5,6.4,8.7,7.8,9.8
	s4.9,4.3,6.9,5.6c2.1,1.4,1.9,1,2.8,5.2c0.8,4.1,1.7,10.2,1.8,14.3c1.7,0,8.8-0.2,11.1-0.4c-0.3-1.3-0.9-5.5-1.2-7.5
	c-0.4-2.6-1.5-9.4-1.8-10.7s-1.3-3.8-1.3-4.8c0-0.9,0.1-3,1.7-4.7c1.6-1.7,4.5-5.6,4.9-6.9s2.2-4.8,0.9-9.7
	C135.5,99.5,130,94.5,126.3,93.1z M129.3,111.8c-1.2,2-2.7,4.5-9.2,4.4c-6.4-0.1-6.9-0.2-8.5-1.7c-1.6-1.6-2.7-4.6-2-7.2
	c0.6-2.6,3.9-7.7,8.8-7.9c2-0.1,4.9,0.2,6.8,1.4c1.9,1.2,4.2,2.8,4.6,5.2C130.2,108.3,130.6,109.7,129.3,111.8z"/>
<path fill="#221F21" d="M499.2,248.3c-0.5-6.1-0.9-16.2-1.6-26.8c-0.8-10.6-3.6-20.2-5.5-27.2s-4-12.4-6.6-20.3
	c-2.6-7.9-5-14.5-8.5-23.8s-5.6-16-7.9-20.7c-2.3-4.8-5.2-7.8-9.1-14.7c-3.9-6.9-13.1-21.4-17.1-26.7c-4-5.3-5.2-6.5-11-12.8
	c-5.9-6.2-11.1-9.2-14.2-11.1c-3-1.9-7.8-6-12.1-11.1c-4.3-5.1-11.3-10.8-15.3-14c-4.1-3.2-9.4-6-15.2-8.9c-5.8-2.8-19-8.7-22.2-10
	c-3.2-1.3-13.4-5.4-15.8-6.1c-2.4-0.7-12.2-4.1-17.5-5.6s-8.2-1.6-12.6-2.3S296,4,289,2.6C282.1,1,271.6,0,262,0s-16.9,1.1-23.7,1.4
	C231.5,1.6,226,2.2,222.6,3c-3.3,0.7-10.9,2.3-14.5,3.1s-14,2.5-16.7,3s-9,1.1-14.9,2.9s-7.3,2.5-13.2,4.6c-6,2.2-14.2,4.9-21.6,8.2
	c-7.4,3.3-17.6,8.7-19.7,9.8s-10,5.9-13.7,8.2c-3.7,2.2-13.2,9.1-15.6,10.5c-2.3,1.3-11.1,8.7-16,12.7s-9.8,10.4-12.3,13.4
	s-9,13.3-11.1,16.5c-2.1,3.3-6.8,10.9-9.8,15.4c-3.1,4.5-8.2,13.6-10.1,17.1c-1.9,3.4-8.6,17-9.6,19.1c-1.1,2.1-6.5,15.3-7.4,17.5
	S12,176.5,11,179c-1,2.4-3.6,10.7-4.6,15.3s-2,11-2.6,14c-0.6,2.9-2.2,15.5-2.4,18.5s-0.7,19.2-1.1,23s-0.1,15.7-0.1,17.6
	s1.6,13.2,1.8,14.9c0.2,1.7,1.8,13.5,3,18.3s3.4,12.2,4.1,15c0.8,2.8,5.1,15,6,17.3s4.9,12.1,6.4,15.3c1.5,3.3,4.7,10,6.1,12.6
	s6.1,11.5,7.5,13.8s6.1,10.4,7,11.9s7.5,11.6,9,14.2s6.2,9.4,8.3,12.5c2.1,3,5.6,7.5,8.4,11.2c2.9,3.7,7.2,8.2,9.5,10.8
	c2.3,2.6,8.4,7.2,11.4,9.2c3,2.1,8.1,4.9,10.8,6.6s10,6.2,12.7,7.7s8.6,5.1,11.8,6.9c0,0,6.4,4,8.9,5.4s10.4,6.7,18.8,9.9
	c8.4,3.2,10,4.3,20,8.2c10,3.8,14.7,4.5,21.8,5.6s18.5,2.1,22.6,2.7c4.2,0.5,15.8,1.4,22.7,1.5c7,0.1,20.3,1.4,28.3,1.1
	s14.7-2.6,27.6-4.1s17.7-3.3,20.2-4.1s15.9-4.9,21.6-6.8c5.6-1.9,13.1-5.2,18.3-7.6c5.2-2.4,13.4-7.2,16.4-8.9
	c3-1.7,17-10.3,19.9-11.9s10-5.2,15.6-8.6c5.6-3.3,7.7-6.6,9.8-8.8c2.2-2.2,9.7-10.3,12.2-13.2c2.6-2.9,6.5-7.1,12.1-13.8
	c5.6-6.8,10.2-12.6,14.4-18.4c4.2-5.8,7.5-11.9,9.7-16.1s4.6-9.7,5.6-12s5.5-10,6.4-11.6s4.6-9.1,6.2-12.7s7.8-20,8.9-23.7
	s1.7-5.7,1.9-7.1c0.1-1.5,2-7.6,2.6-10.9s2.8-25.9,3.3-30.4C500.3,264.7,499.7,254.4,499.2,248.3z M195.5,490.6
	c-0.2-0.8-0.5-1.9-0.8-2.8c-0.5-1.4-3.8-14.4-4.4-16.9c-0.6-2.4-3.3-15.6-3.9-19.8c-0.6-4.2-4.2-24.3-5-29.1
	c-0.8-4.8-2.9-16.7-4.3-24.4c-1.4-7.7-3.2-19.9-3.8-23.6c-0.7-3.7-4.5-19.2-7.1-29.1s-3.9-17.4-4.4-19.7c-0.5-2.3-0.5-4.9-1.2-7.1
	c-0.6-2.2-2-6.3-2.5-8.4c-0.5-2.2-1.3-7-1.8-8.2c0,0,3-0.1,4.7-0.8c1.4-0.5,4.5-1.2,5.6-1.4c0.1,0,0.3,0,0.5-0.1
	c0.1,1.4,0.4,4,1.3,7.4c1.4,4.9,2.4,12.7,2.8,14.4c0.4,1.7,1.6,6.7,2.2,9.7c0.5,3,1.3,6.4,1.9,9.8c0.6,3.4,1.6,8.1,2,10.1
	s1.9,7.5,2.5,9.3c0.6,1.9,2.2,7.1,3.1,13.6c0.9,6.5,1.6,11,2.2,13.4c0.5,2.4,1.9,8.5,2.2,10.3c0.4,1.8,2.2,9.2,2.9,12.4
	c0.7,3.2,2.9,13.1,3.3,16.9c0.4,3.8,1.5,10.1,2.2,16.5c0.7,6.5,2.1,15.4,2.8,19.3c0.7,3.8,2.2,9.2,2.4,10.9
	c0.3,1.7,2.7,11.6,3.2,13.2c0.3,1.1,0.9,3.7,1.6,5.4C203,491.6,199,491.1,195.5,490.6z M211.8,244.5c0.5,3.3,1.2,8.4,1.1,13.9
	c-0.1,5.5,4.4,16.2,5,18s1,3.5,0.9,5.4c-7.1,0-20.8,1.3-29,1.8s-15.4-0.3-17.1-0.6c-0.9-0.2-2.9-0.6-6.1-0.7
	c-0.2-1.5-0.6-3.5-0.8-4.9c-0.5-2.3-3-15.2-3.3-16.9c-0.3-1.8-4.8-24.5-5.1-26.9s-1.6-11.9-2.3-15.4s-4.1-18.3-4.4-20.3
	c-0.4-2-2-11.1-4.6-19c-2.2-6.5-2.2-7.1-2.5-8.6c1.4,0.1,3.8,0.3,7.2,0.3c8.3,0.2,19.6-0.1,27.2,0.4s15.9,1.5,20.5,2.7
	s8.6,2.2,9.5,2.4c0.9,0.3,1.8,0.4,1.7,2.3c-0.1,1.9,0.8,5.3,1.9,7.4c1.1,2.1,2.3,5.2,2.2,12.4c-0.1,7.1-0.7,17-2.2,27.2
	C209.9,235.6,211.3,241.3,211.8,244.5z M241.7,216.2c1.5,7.4,1.8,14.2,0.9,17.1c-0.9,2.9-3,5.5-3.6,7.3c-0.7,1.9-1.2,3.7-0.2,5.7
	s3.9,4.9,5.9,7.2s3,3.8,1,8.5s-4.6,10.4-5.9,13.4c-1.3,3-1.1,3.1-2.2,4.3s-6,2-7.5,2.1c-1.2,0.1-5.3,0-7.1,0c0-1.6-0.1-3.9-0.6-5.4
	c-0.9-2.4-3.6-9-4.5-13.9s-0.7-10.1-1-13.3s-1.9-10.3-1.9-14.1s1.8-16.5,1.9-18c0.1-1.5,1.5-13.5,1.1-20s-0.8-9.9-2.5-13.2
	s-1.6-4.3-1.5-6c0,0,7.7,2.1,14.6,3.6c6.9,1.5,12.9,2.8,13.9,3s2.4,0.4,2.2,0.8c-0.2,0.4-1.7,4.1-2.7,9.9
	C240.7,201,240.2,208.9,241.7,216.2z M144.9,191c0.8,3.7,2.7,12.9,3,14.3c0.3,1.4,3,13.3,3.4,16.1s1.7,11.6,2.2,14s3,16.1,3.4,18.5
	c0.5,2.4,3.7,18.5,4.2,21s1.2,6.2,1.3,7.1v0.1c-1.6,0-3.5,0.1-5.5,0.2c-2.5,0.2-4.2,0.3-5.4,0.4c0-0.4,0-1.4-0.5-4
	c-0.7-3.3-2.8-14.3-3.9-19.2c-1.1-4.9-3.4-15.5-4.6-19.8c-1.2-4.3-2-10.7-2.2-11.7s-2.1-12-2.3-13.3s-3-16.8-3.1-17.6
	s-2.4-15.1-2.7-16.1s-1.5-7.5-1.6-8.1c-0.1-0.4-0.4-1.8-0.9-3.1c0.5,0.2,0.6,0.2,1,0.2c0.7,0,2.6,0.3,3.9,0.3c1.3,0,3.5-0.2,4.8-0.3
	c0.1,0.8,0.3,1.8,0.5,2.7c0.4,2.1,1.2,5,1.9,6.8C142.4,181.3,144.1,187.2,144.9,191z M149.4,287.4c1-0.3,2.6-0.5,2.6-0.5v-0.1
	c2.2-0.3,6.4-0.7,10.8-0.7c5.6,0,8.2,0.9,13,1.4s9,0.5,20.2-0.2s18.4-1.3,23.6-1.4c0.3,0,0.6,0,0.9,0c2,0.1,5.8,0.2,9.1-0.1
	c4.7-0.4,8.6-1.6,9.4-2.1c0.8-0.5,2.1-0.8,4.7-6.8c2.6-6,5.5-12.5,6.3-14.3c0.7-1.8,2.2-6.7-1-10.5c-3.2-3.7-4.4-4.7-5.6-6.5
	c-1.1-1.8-1.3-2.6,0.6-5.7c1.9-3.1,3.2-6,3.3-11.4c0-5.5-1-12.7-1.5-14.8s-1.1-9.3-0.5-13s2.2-12.2,2.9-13.7s0.3-0.9,1.6-0.6
	c1.3,0.2,2.7,1.1,4.2,2.6c1.5,1.6,2.7,2,3.7,1c1.1-1,1-2.4-1-4.2s-4.7-3.5-13.7-5.6s-22.2-4.9-29.7-7s-16.8-4.9-28.1-5.9
	s-24.5-0.8-30.3-1c-5.2-0.2-13.5-0.5-16-0.5c-1,0-2,0.1-2.9,0.1c-0.5,0-1.7,0-3,0c-0.8,0-1.9-0.1-3-0.2c-1.1-0.1-2.3-0.3-3.2-0.4
	c-0.2,0-0.3-0.1-0.6-0.1c-0.7-0.1-1-0.2-1.4-0.3c-0.1,0-0.2-0.1-0.3-0.1c-0.2-0.1-0.4-0.3-0.7-0.4c-0.7-0.5-1.1-1.3-1.4-3.2
	s-0.9-6.3-1.2-6.8c-0.1-0.3-0.5-1.9-0.8-3.2c0-0.3,0-0.5,0.3-0.4c0.5,0.1,2.6,0.7,5.9,0.4s11.7-1.2,22.5-1.6
	c10.8-0.5,25.3,0,37.6,0.9c12.3,0.9,21.1-1,23.4-1.7c2.3-0.7,22.6-6.9,31.8-9c11.7-2.7,26.9-3.8,38.3-0.9
	c11.5,2.9,20.7,6.7,25.3,9.8s10.5,8.1,14.8,10.9c4.3,2.8,9.9,5.2,11.8,6c3.8,1.6,5.5,4.8,9.5,7.1s20.5,11.1,21.6,11.7
	c1.1,0.6,2.6,1.4,3.7,0.4s1.5-2.5-0.8-3.7c-2.3-1.1-17.3-9.6-18.4-10.1s-4.2-2.1-4.7-2.6s-2.5-2-2.5-2s3.2-0.8,5.3,0.2
	c2.1,1,7.7,2,14.6,2s15.1-0.3,19.8,1.5c4.7,1.8,6.6,3.5,18.6,3.4c12,0,17.5-0.3,19.7,0.5c2.2,0.9,4.5,2.3,5.8,4.1s2.8,4.3,3.3,6.6
	c0.5,2.4,0.7,4.9,1,9.6c0.2,4.6,0.7,6.3,2.7,8.4c2,2.1,3.4,3.2,5.4,8.2s4,10.8,5.4,13.4s5.9,11.3,8.1,15.5s3.8,7.9,4,10.6
	c0.2,2.7-1.2,8.9-1.2,13c0,4.1,1.1,12.9,1.1,14.8c0,2,0.9,8.9-0.9,16.6c-1.8,7.6-2.7,10.6-3.8,13.1c-1.1,2.5-0.6,3.1-4.7,3.2
	s-12.1-0.2-16,1.3s-7.7,3.1-13.8,3.3c-6.1,0.1-6.6-1-9.3-2c-2.7-1.1-10.5-4-12.8-4.9s-6.8-3.4-16.7-5.7c-9.9-2.3-13.7-2.9-23.2-3.2
	c-9.5-0.3-18.5-0.2-26.4-1.4c-7.9-1.1-20.2-4-30.4-4.8c-10.2-0.8-12.4-1.1-23.1-1.2s-35,1.1-39.8,1.1c-4.8,0.1-12.1,0.4-16,0.3
	s-11.3-0.6-15.5,0.5s-3.7,0.1-7.8,0.2s-10.5,0.5-14.5,0.5c-3.9,0-12.6-0.7-18.2,1.1c-0.2,0.1-0.4,0.2-0.6,0.2
	c-2.1,0.7-3.2,0.9-3.9,0.9s-4-1.2-5.5-2.3s-3.2-2.9-3.1-5.2C148.5,287.5,148.4,287.7,149.4,287.4z M128.7,130.5
	c0.3,1.3,1.4,8.1,1.8,10.7c0.3,1.9,0.9,4.3,1.2,5.5c-2.3,0.2-5.4,0.4-7.1,0.4c-0.1-4.1-0.9-8.2-1.8-12.3c-0.9-4.3-1.7-5.9-3.8-7.2
	c-2.1-1.4-6.5-4.5-7.9-5.6s-4.7-4.3-5.8-7.8c-1.1-3.5-1.5-9.5-1.3-10.4s1.2-4.7,6.6-7.6s12-2.2,15.8-0.9c3.8,1.3,7.2,4.4,8.5,9.3
	s-0.5,8.5-0.9,9.7c-0.3,1.2-3.3,5.2-4.9,6.9c-1.6,1.7-1.7,3.8-1.7,4.7C127.4,126.6,128.4,129.2,128.7,130.5z M203.5,304.1
	c2.4,0.9,3.8,1.6,6.5,2s5.4,0.9,7.8,2.6c2.4,1.7,2.4,2.3,3.7,2s2.4-1.1,2.3-4c-0.2-2.9-1.1-6.1-1.1-7.3c0-0.4,0-0.9,0-1.4
	c0.6,0,1.1,0,1.3,0c1.1,0,24.8-0.7,31.1-1c6.3-0.3,21.5-1,33.5,0.1s20.7,2.6,24.7,3.4s16.6,3.2,25.6,3.3c9,0.1,22.5,0,32.3,2.4
	s15.3,4,20.1,6.4c4.8,2.4,7.7,2.9,10.4,4c2.7,1.1,7.6,3.5,11.9,3.4c4.4-0.1,9.2-0.6,12.8-2c3.6-1.4,6.7-2.6,12.2-2.5
	c3.4,0,6.1,0,7.9,0c-1,1.4-2.5,3.6-3.7,5.4c-2,2.8-4.7,4.8-7,5.8s-7.5,1.7-9.8,2.2s-8.2,3.4-13.3,6.4c-5.1,3-9.5,3.7-15,5.1
	s-10.9,1.4-13.4,1.2c-2.6-0.1-16.9-0.3-19.5-0.4c-2.6,0-9.9,0.2-13.3,0c-3.4-0.1-6.9,0-8.8,0.1s-6.8-0.3-10.3-0.3s-18.4,0-22.9-0.1
	c-4.4-0.1-13.1-0.6-17.8-0.5c-4.7,0.1-12.8,0.5-17.7,0.6c-4.9,0.1-11.5-1.1-16.6-2.1s-13.7-3.6-16.9-4.6s-10.4-4.2-12.8-5.4
	c-2.4-1.2-6.5-3.5-8.8-4.5s-11-3.8-12.6-4.4c-1.6-0.5-7.6-3.8-10.8-5.3c-3.1-1.4-5.7-2.1-7.4-2.7s-6.1-2-7.1-2.5s-3.4-1.2-5.8-2
	c-1-0.3-1.7-0.7-2.2-1c-0.4-1.8-0.9-4-1.1-5.1c-0.1-0.8-0.1-1.7-0.1-2.4c0.2,0,0.4,0,0.6,0c5.3,0,9.8,0.3,12.1,0
	c1.6-0.2,6.2-0.2,9.8-0.3c0.2,0.1,0.3,0.2,0.5,0.3C196,300,201.2,303.1,203.5,304.1z M202.2,298.5c1.3-0.1,2.4-0.2,3.1-0.4
	c1.5-0.3,5.5-0.3,7.6-0.2c1,0,3.3,0,5.6,0c0,0.5,0,1.6,0.2,2.9c0.2,1.6,0.8,3.3,0.8,3.6s0.2,0.6-0.8,0s-4.8-2-7.5-2.4
	C208.4,301.5,204.7,300.1,202.2,298.5z M493.5,288.9c-0.2,2.4-1.4,10.3-1.6,11.9c-0.3,1.6-2.3,8.6-2.4,9.2s0.1,1.8-0.3,3
	s-3.8,11.2-4.6,13.3c-0.8,2.1-5.5,13.6-6.6,16.2c-1.2,2.5-3.5,7-4.8,9.3s-4.4,7.8-5.3,9.8s-3.4,6.8-4.3,8.9s-3.3,7.5-5.8,11.5
	c-2.4,3.9-3.9,6.4-6.3,9.7s-5,7.1-8.7,11.5c-3.6,4.4-7.1,8.7-10,11.8s-8.7,9.8-10.5,11.8c-1.9,2.1-5.8,6.2-7.8,8.2s-3.2,3.8-5.3,5.6
	c-2.1,1.8-2.6,3-5.6,4.5s-11.7,6.2-14.6,7.8s-6.7,4-8.7,5.1s-10.1,6.2-11.6,7c-1.6,0.9-7.8,4.5-10.2,5.7c-2.4,1.2-5,2.5-9.1,4.5
	s-14.5,5.7-15.9,6.2c-1.5,0.5-8.3,2.6-11.1,3.5c-2.9,0.9-12.3,4-16.1,4.8c-3.8,0.8-11.7,1.8-15.9,2.2c-4.2,0.4-11.9,1.9-15.5,2.4
	s-10.5,1.2-16.5,1.2s-18.1-0.8-26.3-1.2c-7.1-0.4-18.7-1.6-22-1.9c-0.1-1.6-0.9-4.2-1.9-7.6c-1-3.5-3.6-13.6-4.5-18.1
	c-0.8-4.5-2.5-13.6-3-17.5s-1.9-18.8-3.3-25.6c-1.4-6.9-2.5-12.8-3.7-17.9s-3.4-14.2-4-17.6s-1.6-8.8-3.2-18.5
	c-1.5-9.8-3.8-13.9-4.5-17.3c-0.8-3.4-2.8-14.3-3.5-17.2c-0.7-3-1.8-8.6-3.2-14.4c-0.9-3.7-1.3-7-1.6-9.2c2.7,1,8.7,3.2,12,4.3
	c4.3,1.4,8,2.7,12.5,5.2c4.5,2.4,9.7,4.2,16.8,6.7s9,4.8,19.1,8.8c10.2,4,15.2,5.1,23.1,6.8c7.9,1.6,15.4,1.9,19.5,1.9
	s13.1-0.5,17.9-0.5c4.8,0.1,15.8,0.5,20,0.5s14.3,0,16.4,0s10,0.3,11.5,0.3s5.6-0.3,7.2-0.3c1.7,0.1,5.4,0.5,9.2,0.3
	c3.8-0.2,5.6-0.1,8.2,0s10.1,0,13,0c2.8,0,7.5,0.3,10.1,0.3c2.6-0.1,8.4-1.4,10.5-1.8s6.2-1.6,7.5-2.1s5.1-2.1,10.7-5.1
	s7.4-3.7,9.5-4.3c2.2-0.5,6-1.1,7.9-1.6s2.7-1.2,5.2-2.8c2.5-1.6,3.8-3.6,5.8-6.3c1.2-1.6,2.5-4,3.3-5.6c0.1-0.2,0.2-0.4,0.3-0.6
	c0.8-1.7,2.3-4,5.5-15.2s2.1-21.8,1.6-26.3s-1.1-9.5-0.3-15.9c0.8-6.5,1.6-8.4-2.1-16.4s-8.5-16.4-10.1-19.7s-4.4-11.7-6.5-15.8
	s-4.1-5.2-4.9-6.3c-0.9-1.1-1.5-1.7-1.5-6.3s-0.1-9.9-2.9-14.6c-2.7-4.7-6.2-9.5-16.6-9.5c-10.3,0-16.3,0.2-19.6,0s-4.4,0-7.1-1.1
	s-7.1-3.7-16.9-3.7c-9.9,0-10.2,0.5-15.3-0.1s-5.4-1.1-6.7-1.5c-1.3-0.4-4.8-1.2-7.6-0.5c-2.8,0.7-2.7,1.1-4.4,0.1
	c-1.7-1-3.8-0.8-12.9-6.5s-14.1-11.7-21.8-14.7c-7.8-3.1-17.7-7.4-32.9-8.2c-15.2-0.8-30.7,3.1-41,6.3s-17.5,5.7-24,6.5
	s-13.4,0.6-19.5,0.2c-6.1-0.4-24.6-1.4-35.3-0.5c-7.4,0.6-9.9,0.7-12.2,0.8c-0.4-2-1.7-8.1-2.4-12c-0.8-4.4-1.1-6-1.6-7.4
	c-0.6-1.5-0.3-1.7-0.2-2.4c0-0.7,1.9-2.2,3.5-4.6c1.6-2.5,2.6-3,3.9-8.9c1.3-5.9-1.2-10.9-3.7-14.3s-6.8-5.4-9.3-6.2
	c-2.6-0.8-5.5-1.4-12.3-0.2c-6.8,1.2-11.8,7.4-13.2,10s-0.7,10.4,1,15.4s6.9,9.5,7.9,10.3s4.2,2.8,6.5,4.4c2.3,1.5,2.7,3.3,2.9,5.4
	c0.3,2,1.2,5.8,1.6,8.8c0.1,0.9,0.2,1.6,0.2,2c-0.9-0.1-1.8-0.2-2.6-0.1c-1.9,0.2-1.8,2.2-1.6,4.8c0,0.4,0.1,0.6,0.2,0.8
	c0.1,0.5,0.2,1.1,0.3,1.9c0.6,2.6,1.5,6.9,1.7,8.2s1.2,4.4,2.1,5.1c0.8,0.6,2.5,1.7,4.5,2l-0.1,0.1c0,0,1.4,5.6,1.9,7.9
	s1.6,8.1,1.8,9.2s1.7,9.4,1.9,11c0.1,1.6,1.9,10.8,2.2,12.5s1.9,10.5,2.1,12s1.7,8.8,1.9,10.6c0.2,1.9,1.6,8.2,2.2,11.2
	c0.6,3,3.3,14.1,3.5,15.2s2,9.5,2.2,10.4c0.2,1,1.9,8.9,2.2,10.9s0.5,3.3,0.5,3.3s-2.5,0.7-2.9,2.4c-0.3,1.7-0.4,4.3-0.4,4.8
	s0.2,2.1,0.7,2.9s1.3,2.7,3.2,4.1s2.9,2,3.4,2c0,0,1.5,5.6,2,8.9s2.2,8,2.6,9.6s1.6,6.8,1.8,8.6s2.3,12.1,3,14.9s2.3,8.9,2.7,10.8
	c0.5,1.8,1.8,6.8,2.5,9.6s2.2,10.4,2.6,12.1c0.4,1.6,2,9.7,2.3,12.6s1.5,10.3,1.8,11.7s2,12.1,2.8,15.8c0.8,3.7,2.8,15.1,3.3,17.8
	s5.4,31.5,6.1,34.8c0.8,3.3,3.8,16.2,4.4,18.2c0.5,1.7,1.3,4.5,1.5,5.1c-1-0.1-1.8-0.2-2.2-0.3c-2.6-0.4-8.1-1.4-15.5-4.5
	s-16.8-6.9-18.5-7.5c-1.6-0.7-8.6-3.7-12.5-6s-11.4-6.6-12.4-7.2c-1-0.7-8.1-5-10-6.1c-1.9-1-8.9-5.1-10.4-6.2
	c-1.6-1.1-11.2-6.9-12.6-7.7s-5.9-3.6-6.9-4.3c-1-0.8-4.6-3.3-6-4.6s-3.9-3.6-5.4-5.1s-6.1-7-7.4-8.6s-5.9-7.7-6.4-8.4
	c-0.5-0.8-5.9-8.5-8.9-13.1s-6.4-9.9-8-12.4s-9.3-15.4-10-16.8s-5.4-9.8-6.5-12.1c-1.1-2.3-6.1-12.6-7-14.6s-3.8-9-4.7-11.4
	c-0.9-2.4-4.4-12.2-4.9-13.9c-0.5-1.7-3.8-12.3-4.3-14.2c-0.5-1.9-1.9-7.3-2.3-10.3c-0.5-3-2.2-14.5-2.4-16.3s-1.3-11.7-1.4-13.9
	c-0.1-2.2-0.2-10.4,0-12.5C4.3,249.8,4.8,244,5,238s0.7-15.3,2.1-24.5c1.3-9.2,3.6-20.7,4.8-24.6c1.2-3.8,5.5-15.9,6.3-17.7
	c0.8-1.7,7-16.5,7.9-18.6s7.2-15.5,8-17s9.9-17.3,11.1-19.3c1.6-2.7,6-9.1,7-10.6c0.9-1.5,5.4-8.5,6.3-10s4.7-7.3,5.9-9
	s4.5-6.3,5.5-7.5s6.3-6.9,7.7-8.2c1.4-1.3,5.4-4.8,7.3-6.3c2-1.5,9.2-7.4,12.5-9.6c3.3-2.2,6.9-5,10.6-7.2s10.2-6.4,14-8.5
	s11.7-6.3,15.1-7.9s12.2-5.5,15.9-6.8c3.8-1.2,12.1-4.2,15.7-5.6c3.6-1.4,9.1-3.5,14.6-4.6s16.3-2.5,20.5-3.4
	c4.3-0.9,19.3-3.9,23.3-4.7s14.5-1.2,20.3-1.5s16.4-1.2,23.1-0.6s12.2,1.2,17.8,2.3s12.4,2.7,19.2,3.7c6.8,1,9,1.3,12.5,2.4
	s10.3,3.4,12.3,4.1s7.5,2.1,15.7,5.6s16.8,7.3,18.9,8.4s10.6,5,14.2,7.2s7.9,5.1,10.9,7.7s7.3,6.4,8.1,7.4c0.9,1,4.4,5,6.5,7.1
	c2,2.1,6.3,5.7,9.3,7.6s7,4.6,10.4,7.9s8.9,8.8,11,11.7s4.9,6.6,8.7,12.6c3.8,6,8,12.8,9.1,14.7c1.1,1.9,5.3,8.4,7,11.2
	c1.7,2.7,2.9,4.1,4.1,7.1s3.4,8.1,4.9,12.8c1.5,4.8,5.2,14.1,6.4,17.7c1.2,3.5,3.1,8.3,4.1,11.4c1,3.1,4.4,13.3,5.2,16.1
	c0.8,2.8,2.8,9.3,3.9,14.5s2.1,9.6,2.6,15c0.4,5.4,1.5,20,1.7,24.1s0.9,14.6,0.9,19.6C495.9,269.3,493.7,286.5,493.5,288.9z"/>
<path fill="#221F21" d="M129.8,105.9c-0.4-2.4-2.6-4-4.6-5.2c-1.9-1.2-4.8-1.5-6.8-1.4c-4.9,0.2-8.2,5.3-8.8,7.9
	c-0.6,2.6,0.4,5.7,2,7.2c1.6,1.6,2,1.6,8.5,1.7c6.4,0.1,7.9-2.4,9.2-4.4S130.2,108.3,129.8,105.9z M122.9,111.6
	c-1.4,0.4-5.6,0.5-6.7,0.1c-1-0.3-1.9-1.4-1.7-3.1c0.2-1.7,1.4-3.3,2.6-4.1c1.2-0.7,1.3-0.9,2.1-1c1-0.1,2.8,0.4,3.7,1
	c0.9,0.6,2.4,1.9,2.3,3.5C125.2,109.7,124.3,111.2,122.9,111.6z"/>
</svg>
