<svg xmlns="http://www.w3.org/2000/svg" viewBox="0 0 40.85 35.1"><title>icon website 2</title><g id="Calque_1" data-name="Calque 1"><path d="M4.28,4.85V5A1.28,1.28,0,0,0,6.83,5V4.85a1.28,1.28,0,0,0-2.55,0Z" style="fill:#1d1d1b"/><path d="M8.18,4.85V5a1.28,1.28,0,0,0,2.55,0V4.85a1.28,1.28,0,0,0-2.55,0Z" style="fill:#1d1d1b"/><path d="M40.85,1.63A1.09,1.09,0,0,0,40.2.53a1.29,1.29,0,0,0-.62-.18Q20.62-.08,1.67.28A1.18,1.18,0,0,0,.6.91a1.35,1.35,0,0,0-.21.64A182.76,182.76,0,0,0,.58,28.23a1.6,1.6,0,0,0,.07.33,1,1,0,0,0,1.21,1A119.1,119.1,0,0,1,21.21,29a1.16,1.16,0,0,0,.74-.2l.22,1.93a1.36,1.36,0,0,0,.63,1.2l.1.07h0A1.48,1.48,0,0,0,24.35,32c.84-.39,1.67-.81,2.5-1.22l1.62,3.58a1.28,1.28,0,0,0,1.74.45A1.29,1.29,0,0,0,30.67,33l-1.52-3.36a15.16,15.16,0,0,1,2.19-.72c2.57-.18,5.14.16,7.71.16a1.14,1.14,0,0,0,1.17-.87,1.56,1.56,0,0,0,.11-.4C41.11,19.12,40.57,10.36,40.85,1.63ZM38.28,2.88c0,1.19-.05,2.39-.06,3.59a1.3,1.3,0,0,0-.41-.07q-17.57.15-35.12,1c.05-1.52.11-3,.19-4.56Q20.58,2.5,38.28,2.88ZM24.53,29.05c-.21-1.79-.41-3.58-.62-5.37,1.58,1.12,3.18,2.25,4.67,3.46C27.2,27.69,25.87,28.38,24.53,29.05Zm7.09-2.67C29,24,25.8,22,23,19.85a1,1,0,0,0-1.31,0A1,1,0,0,0,21.05,21c.21,1.87.43,3.73.64,5.6a1.21,1.21,0,0,0-.48-.11A117.32,117.32,0,0,0,3,26.85,164.77,164.77,0,0,1,2.61,9.92q17.6-.83,35.2-1a1.35,1.35,0,0,0,.41-.07c0,5.88.1,11.77-.35,17.64C35.79,26.45,33.7,26.26,31.62,26.38Z" style="fill:#1d1d1b"/></g></svg>