<svg xmlns="http://www.w3.org/2000/svg" viewBox="0 0 25.45 24.97"><title>icon search</title><g id="Calque_1" data-name="Calque 1"><path d="M25.14,22.79a42.71,42.71,0,0,0-7.69-7.57c2.44-3.3,3.41-8.16.74-11.46C14.8-.44,7.43-1.48,3.59,2.49-.09,6-1.43,11.82,1.92,16s9.72,4.47,13.77,1.08l.05-.05a39.22,39.22,0,0,1,7.63,7.49C24.41,25.79,26.17,24,25.14,22.79Zm-22-9.48c-1.59-3.14-.21-6.74,2.2-9,2.71-2.81,8.26-2,10.77.9,2.69,3.15.42,8.27-2.49,10.36C10.14,18,5.16,17.27,3.16,13.31Z" style="fill:#1d1d1b"/></g></svg>