<svg width="15" height="13" viewBox="0 0 15 13" fill="none" xmlns="http://www.w3.org/2000/svg">
<g clip-path="url(#clip0_114_207)">
<path d="M2.17005 7.66996C3.58005 6.41996 4.97005 5.14996 6.38005 3.89996C6.61338 6.49996 6.72005 9.10329 6.70005 11.71C6.70005 12.0415 6.83174 12.3594 7.06616 12.5938C7.30058 12.8283 7.61852 12.96 7.95005 12.96C8.28157 12.96 8.59951 12.8283 8.83393 12.5938C9.06835 12.3594 9.20005 12.0415 9.20005 11.71C9.20005 9.16996 9.10004 6.63329 8.90004 4.09996C10.19 5.19996 11.46 6.35996 12.65 7.58996C13.84 8.81996 15.54 6.97996 14.42 5.82996C12.5236 3.86489 10.4992 2.02754 8.36004 0.329961C8.20381 0.208827 8.02289 0.123483 7.83005 0.0799608C7.62058 0.00202653 7.39351 -0.0158633 7.17443 0.028307C6.95534 0.0724773 6.75295 0.176952 6.59005 0.329961C4.52005 2.17996 2.47005 4.05996 0.400045 5.89996C-0.799955 6.97996 0.970046 8.73996 2.17005 7.66996Z" fill="#1D1D1B"/>
</g>
<defs>
<clipPath id="clip0_114_207">
<rect width="14.78" height="12.9" fill="white" transform="matrix(-1 0 0 -1 14.78 12.8999)"/>
</clipPath>
</defs>
</svg>
