<svg xmlns="http://www.w3.org/2000/svg" viewBox="0 0 37.97 39.67"><title>icon bazar</title><g id="Calque_1" data-name="Calque 1"><path d="M37.75,17.2a1,1,0,0,0,.2-.83,1.07,1.07,0,0,0-.1-.4C36.33,11.19,35,6.3,33,1.67A1,1,0,0,0,31.79,1C27,1,22.32.26,17.56.1,13.28,0,9,.66,4.73,0H4.39A1.14,1.14,0,0,0,3.16.9C1.81,6,1.39,11.33.05,16.44a1.18,1.18,0,0,0,.1.92.64.64,0,0,1,0,.07,4.57,4.57,0,0,0,5.35,2.46c.27,5.91.32,11.85.15,17.75a1.78,1.78,0,0,0,0,.35,1,1,0,0,0,.9.88c8.8,1.71,17.74.06,26.62.57a1.08,1.08,0,0,0,1.06-.54,1.26,1.26,0,0,0,.21-.73c-.09-6.23-.32-12.45-.43-18.68C35.52,19.23,37.13,18.59,37.75,17.2ZM2.64,16.56C3.79,12,4.26,7.23,5.36,2.63c3.53.35,7,0,10.56,0,5,0,10.06.78,15.11.94C32.75,7.72,34,12.1,35.31,16.38a4.22,4.22,0,0,1-2.4.69c-1.15-.07-2.25-1.15-3.21-1.73a1.24,1.24,0,0,0-.58-.19A1,1,0,0,0,28,15.8c-1.06,2.45-4.05.47-5.45-.49a1.08,1.08,0,0,0-.8-.2,1,1,0,0,0-.95.66,3.21,3.21,0,0,1-5.63.34,1.12,1.12,0,0,0-.3-.47,1.14,1.14,0,0,0-1.55-.23,1.25,1.25,0,0,0-.64.74c-.21.59-1.5,1.08-2.06,1.07a3.23,3.23,0,0,1-2.13-1,1.22,1.22,0,0,0-.7-.53,1.08,1.08,0,0,0-1.5.53l0,0,0,.07A2,2,0,0,1,2.64,16.56ZM8,19.05a5.5,5.5,0,0,0,5.86-.46,5.75,5.75,0,0,0,4,1.7,6.9,6.9,0,0,0,4.3-2.12,7.26,7.26,0,0,0,4.17,1.34,4.48,4.48,0,0,0,3-1.33,11.16,11.16,0,0,0,2.1,1.11c0,2.38.1,4.76.16,7.15A127.9,127.9,0,0,0,8.3,27.85C8.26,24.92,8.18,22,8,19.05Zm.21,17.53c0-2.06.07-4.11.07-6.17A123.37,123.37,0,0,1,31.74,29c.07,2.61.14,5.23.18,7.85C24,36.57,16.06,37.87,8.24,36.58Z" style="fill:#1d1d1b"/></g></svg>