<svg xmlns="http://www.w3.org/2000/svg" viewBox="0 0 12.8 10.34"><title>icon checkmark</title><g id="Calque_1" data-name="Calque 1"><path d="M12.8,13.74a40,40,0,0,0,5.51,6.33,1.26,1.26,0,0,0,2-.25,54.13,54.13,0,0,1,5.11-6.75c1.46-1.64,3.13-3.06,4.2-5,.78-1.4-1.38-2.67-2.16-1.26-1.26,2.28-3.5,4.05-5.16,6.06a60.69,60.69,0,0,0-4.15,5.68l2-.25A37.26,37.26,0,0,1,15,12.48c-.92-1.31-3.09-.06-2.16,1.26Z" style="fill:#1d1d1b"/><path d="M.05,4.18A22,22,0,0,0,2.5,9.73a1.26,1.26,0,0,0,2.16,0,33.26,33.26,0,0,1,7.58-7.35C13.55,1.47,12.3-.7,11,.23A37.05,37.05,0,0,0,2.5,8.47H4.66a19.59,19.59,0,0,1-2.2-5,1.25,1.25,0,0,0-2.41.66Z" style="fill:#1d1d1b"/></g></svg>