<svg xmlns="http://www.w3.org/2000/svg" viewBox="0 0 47.67 34.31"><title>icon expert</title><g id="Calque_3" data-name="Calque 3"><path d="M7.6,1.52H37.66l9.12,10.32L23.49,34,1.29,13.93Z" style="fill:#ffe180"/></g><g id="Calque_1" data-name="Calque 1"><path d="M28.81,9.2l-.44.41a.69.69,0,0,0-.11.13c-2.61,2.52-5.17,5.08-7.77,7.61-1.59-1.31-3.15-2.67-4.64-4.09-1.17-1.11-2.94.65-1.77,1.77q2.69,2.56,5.6,4.88a1.05,1.05,0,0,0,.34.19,1.16,1.16,0,0,0,1.43-.19c3.07-2.95,6.06-6,9.13-8.94C31.74,9.85,30,8.1,28.81,9.2Z"/><path d="M47.48,11.67,39.65,1.27A1.21,1.21,0,0,0,39.43,1a1.2,1.2,0,0,0-.86-.39C28.13.15,17.67-.23,7.21.17h0a1.09,1.09,0,0,0-1,.62C3.94,4.85,2.09,9.09.21,13.3a1.18,1.18,0,0,0-.1.3A1,1,0,0,0,.65,15c2.31,1,3.52,3.21,5,5.12a41.12,41.12,0,0,0,5.52,5.75A81,81,0,0,0,22.77,34a1,1,0,0,0,1.35,0c8.26-6.36,15.6-13.75,23.16-20.88a1.12,1.12,0,0,0,.18-.2A1,1,0,0,0,47.48,11.67ZM10.78,22.11c-2.72-2.69-4.56-6.75-7.88-8.74C4.51,9.75,6.13,6.14,8,2.65c10-.35,20,0,29.95.47l6.8,9c-7,6.6-13.76,13.41-21.34,19.31A67.13,67.13,0,0,1,10.78,22.11Z"/></g></svg>