<?xml version="1.0" encoding="utf-8"?>
<!-- Generator: Adobe Illustrator 22.1.0, SVG Export Plug-In . SVG Version: 6.00 Build 0)  -->
<svg version="1.1" id="Layer_1" xmlns="http://www.w3.org/2000/svg" xmlns:xlink="http://www.w3.org/1999/xlink" x="0px" y="0px"
	 viewBox="0 0 33 23.2" style="enable-background:new 0 0 33 23.2;" xml:space="preserve">
<style type="text/css">
	.st0{fill:#1D1D1B;}
</style>
<title>icon steps</title>
<g id="Calque_1">
	<path class="st0" d="M10.1,3c7.2,0.2,14.5,0,21.7-0.5c1.6-0.1,1.6-2.6,0-2.5c-7.2,0.5-14.5,0.6-21.7,0.5C9.4,0.5,8.8,1,8.8,1.7
		S9.4,3,10.1,3z"/>
	<path class="st0" d="M9.9,13.2c7.3-0.5,14.6-0.7,21.9-0.4c1.6,0.1,1.6-2.4,0-2.5c-7.3-0.3-14.6-0.2-21.9,0.4
		C8.3,10.8,8.3,13.3,9.9,13.2z"/>
	<path class="st0" d="M10.1,22.9c7.2-0.5,14.4-0.6,21.5-0.3c1.6,0.1,1.6-2.4,0-2.5c-7.2-0.3-14.4-0.1-21.5,0.3
		C8.5,20.5,8.5,23,10.1,22.9L10.1,22.9z"/>
	<path class="st0" d="M1.2,23.2h3.2c0.7,0,1.2-0.6,1.2-1.2s-0.6-1.2-1.2-1.2H1.2C0.6,20.7,0,21.3,0,22S0.6,23.2,1.2,23.2z"/>
	<path class="st0" d="M1.2,13h3.2c0.7,0,1.2-0.6,1.2-1.2s-0.6-1.2-1.2-1.2H1.2C0.6,10.5,0,11,0,11.7S0.6,13,1.2,13z"/>
	<path class="st0" d="M1.2,2.8h3.2c0.7,0,1.2-0.6,1.2-1.2S5.1,0.3,4.4,0.3H1.2C0.6,0.3,0,0.8,0,1.5S0.6,2.8,1.2,2.8z"/>
</g>
</svg>
