<?xml version="1.0" encoding="utf-8"?>
<!-- Generator: Adobe Illustrator 24.0.0, SVG Export Plug-In . SVG Version: 6.00 Build 0)  -->
<svg version="1.1" id="Layer_1" xmlns="http://www.w3.org/2000/svg" xmlns:xlink="http://www.w3.org/1999/xlink" x="0px" y="0px"
	 viewBox="0 0 195.8 195.1" style="enable-background:new 0 0 195.8 195.1;" xml:space="preserve">
<style type="text/css">
	.st0{fill:#FFF0B4;stroke:#FFE476;stroke-width:8;stroke-miterlimit:10;}
	.st1{fill:#231F20;stroke:#231F20;stroke-miterlimit:10;}
</style>
<title>map cluster workspace</title>
<g>
	<path class="st0" d="M189.3,83.3l-21.6,21.4l16.6,25.5l-29.4,7.7l1.7,30.4l-29.3-8l-13.8,27.1L92,165.7l-25.5,16.6l-7.7-29.4
		l-30.4,1.7l8-29.3L9.4,111.5L31,90.1L14.4,64.6l29.4-7.7l-1.7-30.4l29.3,8L85.3,7.4L106.7,29l25.5-16.6l7.7,29.4l30.4-1.7l-8,29.3
		C162.2,69.5,189.3,83.3,189.3,83.3z"/>
</g>
<g>
	<path class="st1" d="M75.3,109.9c-1.7-16.3-2.8-25.2-3.3-27.1c-0.6-2.2-2.1-2.4-2.7-2.4c-0.4,0-1.4,0.2-1.9,1.7
		c-0.2,0.6-0.3,1.3-0.2,1.9c0.4,2.8,0.9,6.9,1.4,12.1c0.1,0.8,0.3,2.7,0.7,5.6c0.3,2.5,0.6,4.9,0.8,7c-1.5-3.1-3.4-7.2-5.8-12.2
		c-5.1-10.9-6.6-13.1-7.4-13.8c-0.6-0.5-1.4-1.2-2.4-1.1c-0.8,0-2.1,0.5-2.2,3.1l0,0.1l0,0.4c0.1,2,0.7,8.5,1.8,19.3
		c1.7,16.3,1.8,16.8,1.9,17.1c0.6,2,1.8,2.3,2.5,2.3c0,0,0.1,0,0.1,0c0.5,0,1.3-0.2,1.9-1.4c0.2-0.4,0.2-0.7,0.1-2.2
		c-0.2-3.1-0.9-10.5-2-22.1c-0.1-0.6-0.1-1.2-0.2-1.8c1.8,4,3.9,8.4,6.3,13.2c3,6,4.8,9.5,5.5,10.8c0.9,1.7,1.6,2.4,2.4,2.8
		c0.8,0.3,1.6,0.2,2.3-0.4c0.9-0.7,1.3-2.1,1.1-4.9C75.9,115.8,75.7,113.2,75.3,109.9z"/>
	<path class="st1" d="M99.9,117.1c-0.3-0.1-1-0.1-3.4-0.1c-0.9,0-1.6,0-2,0c-0.1-0.6-0.2-1.5-0.4-3c-0.3-2.6-0.5-5-0.6-7.2
		c-0.1-1.4-0.1-2-0.1-2.2l0-0.1l0-0.4c1-0.2,2.2-0.6,2.7-1.6c0.2-0.4,0.3-0.8,0.3-1.3c0-0.7-0.5-2.4-3.5-2.3
		c-0.1-0.8-0.2-2.8-0.6-8.4L92,83.8c0.7-0.1,1.5-0.2,2.4-0.2c3.6-0.2,4.8-0.5,5.3-1.5c0.8-1.5,0.3-2.6-0.5-3.2
		c-0.6-0.5-1.6-0.6-3.5-0.5c-1.1,0.1-2.2,0.1-3,0.2l-1,0.1c-0.5,0-0.8,0.1-1.1,0.1c-0.1,0-0.3,0-0.5,0.1c-0.5,0-0.8,0.1-1.1,0.2
		c-0.1,0-0.2,0.1-0.4,0.1c-0.3,0.1-0.6,0.3-0.8,0.5c-0.2,0.2-0.4,0.4-0.6,0.7L87,80.5l-0.1,0.2c-0.1,0.3-0.2,0.6,0.1,6
		c0.3,5.7,0.8,12.7,1.4,20.7c0.9,12.4,1.2,12.9,1.3,13.3c0.4,0.9,1.2,1.5,2.1,1.6c0.1,0,0.3,0,0.7,0c0.6,0,1.6,0,3.5-0.1l4.9-0.2
		l0.4-0.8c0.5-0.9,0.7-1.7,0.5-2.4C101.6,117.9,100.9,117.3,99.9,117.1z"/>
	<path class="st1" d="M144,79.1c0-0.7-0.2-1.2-0.5-1.7c-0.4-0.6-1.1-0.9-1.9-0.9c-0.8,0-1.5,0.5-1.9,1.3l0,0.1
		c-0.3,0.6-0.5,1.5-0.5,2.7c-0.5,5.9-1.3,11.8-2.1,17.6c-0.9,6.6-1.5,10.4-1.7,12.8c-1.9-2.7-3.3-4.9-4.1-6.2
		c-0.4-0.8-0.9-1.4-1.5-1.6c-0.9-0.3-1.6-0.2-2,0c-0.4,0.2-0.9,0.6-1.2,1.5l0,0.1c0,0.2-0.3,1-1.7,4.7c-0.5,1.6-1,2.8-1.3,3.7
		c-1.1-2.4-2.5-6-4.1-10.6c-1.8-5-3.2-9.5-4.3-13.4c-2.4-8.5-2.7-8.7-3.2-9.1c-0.7-0.6-1.4-0.6-1.8-0.5c-0.4,0.1-1.1,0.4-1.5,1.3
		c-0.2,0.4-0.3,0.8-0.2,1.2c0,0.2,0,0.5,1.4,5.5c2.4,8.8,5.1,17.1,8.1,24.8c2.3,5.8,3.2,7.4,3.7,8.1c0.5,0.8,1.2,1,1.6,1
		c0.1,0,0.1,0,0.2,0c0.7,0,1.3-0.3,1.9-0.9c0.7-0.7,1.7-2.3,4.2-9.5c0,0,0,0,0,0c0.3,0.4,0.6,0.8,0.9,1.3l3.3,4.9
		c0.9,1.5,1.9,2.9,3.3,2.8c1.9-0.1,2.4-2.5,2.5-3.4c0.4-1.9,1.2-8.3,2.6-19.6C144,80.4,144,79.5,144,79.1z"/>
</g>
</svg>
