<svg version="1.1" id="svg170" width="37" height="37" xmlns="http://www.w3.org/2000/svg"><defs id="defs134"><style id="style132">.cls-1{fill:#fff}.cls-3{fill:#141414}</style></defs><g id="g319"><g id="Calque_2" data-name="Calque 2" transform="matrix(.11476 0 0 .11484 .203 -.012)"><path class="cls-1" d="M291.13 149a60.8 60.8 0 0 0-.61-6.61 118.44 118.44 0 0 0-5.11-19.22c-1.86-5.43-3.56-10.32-5.4-15.19-.46-1.21-.89-2.46-1.31-3.67a41.78 41.78 0 0 0-4.31-9.77c-1.82-2.69-3.52-5.5-5.16-8.22a108.1 108.1 0 0 0-9.47-14 42.07 42.07 0 0 0-9.61-8.89 31.81 31.81 0 0 1-7.36-6.22 49.32 49.32 0 0 0-16.27-12.59A170.67 170.67 0 0 0 204 35.25c-.93-.29-1.85-.6-2.74-.91a45.22 45.22 0 0 0-7.48-2.06c-3.45-.55-7.51-1.23-11.49-2.14a71.94 71.94 0 0 0-13.54-1.74h-1.92c-2.63 0-5.28.19-7.86.37-1.81.13-3.67.26-5.52.33a42.78 42.78 0 0 0-8.08.83c-4.53 1.06-9.16 1.89-13.64 2.68l-1.19.22-3 .48a62.13 62.13 0 0 0-6.71 1.32c-2.28.63-4.54 1.49-6.73 2.31-1.45.55-3 1.12-4.45 1.62a112.57 112.57 0 0 0-19.05 8.69 137.38 137.38 0 0 0-23.3 16.33A49.46 49.46 0 0 0 59 73.2c-1.67 2.42-3.26 5-4.79 7.44-1.29 2.07-2.62 4.2-4 6.27a138.94 138.94 0 0 0-12.32 23.19l-.75 1.77c-1.81 4.3-3.68 8.74-5.22 13.19-2.17 6.26-3.14 12.66-4.09 19.77-.4 3-.51 6-.63 9-.08 2.23-.17 4.54-.37 6.82a68.91 68.91 0 0 0 .75 16.82l.42 2.89a80.28 80.28 0 0 0 1.83 9.91 154.14 154.14 0 0 0 9.51 25.87 240.64 240.64 0 0 0 15.16 26.25A133.62 133.62 0 0 0 65 256.67a43.68 43.68 0 0 0 11.69 9.61c2 1.16 4 2.39 5.93 3.57 2.1 1.29 4.28 2.62 6.46 3.87 1.85 1.06 3.69 2.19 5.47 3.28 4.66 2.85 9.48 5.8 14.74 7.67 1.88.67 3.75 1.46 5.55 2.22a54.53 54.53 0 0 0 10.16 3.52c1.45.29 2.94.53 4.39.75.88.14 1.77.27 2.66.43a42.72 42.72 0 0 0 4.35.43 42.61 42.61 0 0 1 4.57.46 86.4 86.4 0 0 0 11.45.87c2.28.07 4.63.14 7 .33a70.88 70.88 0 0 0 18-1.15c1.88-.33 3.79-.55 5.63-.76a56.77 56.77 0 0 0 8.4-1.36c1.76-.47 3.54-1.06 5.26-1.63 1.26-.42 2.56-.86 3.87-1.24a95.24 95.24 0 0 0 17.42-7.06c3.45-1.83 6.87-3.89 10.18-5.87 3.9-2.35 7.93-4.76 12.07-6.87a19.86 19.86 0 0 0 5.35-3.68c4.81-5 10.44-11 15.79-17.43 4.06-4.88 8.28-10.15 11.43-16.13.88-1.68 1.7-3.44 2.5-5.15a81.62 81.62 0 0 1 3.85-7.57c4.47-7.48 9.7-24 9.82-24.42a49.32 49.32 0 0 0 2.07-11c.14-1.54.32-3.08.5-4.57a67.9 67.9 0 0 0 .69-9.25c-.08-5.55-.35-10.65-.81-15.6-.15-1.32-.23-2.65-.31-3.94z" id="path138"/><path d="M291.13 149a60.8 60.8 0 0 0-.61-6.61 118.44 118.44 0 0 0-5.11-19.22c-1.86-5.43-3.56-10.32-5.4-15.19-.46-1.21-.89-2.46-1.31-3.67a41.78 41.78 0 0 0-4.31-9.77c-1.82-2.69-3.52-5.5-5.16-8.22a108.1 108.1 0 0 0-9.47-14 42.07 42.07 0 0 0-9.61-8.89 31.81 31.81 0 0 1-7.36-6.22 49.32 49.32 0 0 0-16.27-12.59A170.67 170.67 0 0 0 204 35.25c-.93-.29-1.85-.6-2.74-.91a45.22 45.22 0 0 0-7.48-2.06c-3.45-.55-7.51-1.23-11.49-2.14a71.94 71.94 0 0 0-13.54-1.74h-1.92c-2.63 0-5.28.19-7.86.37-1.81.13-3.67.26-5.52.33a42.78 42.78 0 0 0-8.08.83c-4.53 1.06-9.16 1.89-13.64 2.68l-1.19.22-3 .48a62.13 62.13 0 0 0-6.71 1.32c-2.28.63-4.54 1.49-6.73 2.31-1.45.55-3 1.12-4.45 1.62a112.57 112.57 0 0 0-19.05 8.69 137.38 137.38 0 0 0-23.3 16.33A49.46 49.46 0 0 0 59 73.2c-1.67 2.42-3.26 5-4.79 7.44-1.29 2.07-2.62 4.2-4 6.27a138.94 138.94 0 0 0-12.32 23.19l-.75 1.77c-1.81 4.3-3.68 8.74-5.22 13.19-2.17 6.26-3.14 12.66-4.09 19.77-.4 3-.51 6-.63 9-.08 2.23-.17 4.54-.37 6.82a68.91 68.91 0 0 0 .75 16.82l.42 2.89a80.28 80.28 0 0 0 1.83 9.91 154.14 154.14 0 0 0 9.51 25.87 240.64 240.64 0 0 0 15.16 26.25A133.62 133.62 0 0 0 65 256.67a43.68 43.68 0 0 0 11.69 9.61c2 1.16 4 2.39 5.93 3.57 2.1 1.29 4.28 2.62 6.46 3.87 1.85 1.06 3.69 2.19 5.47 3.28 4.66 2.85 9.48 5.8 14.74 7.67 1.88.67 3.75 1.46 5.55 2.22a54.53 54.53 0 0 0 10.16 3.52c1.45.29 2.94.53 4.39.75.88.14 1.77.27 2.66.43a42.72 42.72 0 0 0 4.35.43 42.61 42.61 0 0 1 4.57.46 86.4 86.4 0 0 0 11.45.87c2.28.07 4.63.14 7 .33a70.88 70.88 0 0 0 18-1.15c1.88-.33 3.79-.55 5.63-.76a56.77 56.77 0 0 0 8.4-1.36c1.76-.47 3.54-1.06 5.26-1.63 1.26-.42 2.56-.86 3.87-1.24a95.24 95.24 0 0 0 17.42-7.06c3.45-1.83 6.87-3.89 10.18-5.87 3.9-2.35 7.93-4.76 12.07-6.87a19.86 19.86 0 0 0 5.35-3.68c4.81-5 10.44-11 15.79-17.43 4.06-4.88 8.28-10.15 11.43-16.13.88-1.68 1.7-3.44 2.5-5.15a81.62 81.62 0 0 1 3.85-7.57c4.47-7.48 9.7-24 9.82-24.42a49.32 49.32 0 0 0 2.07-11c.14-1.54.32-3.08.5-4.57a67.9 67.9 0 0 0 .69-9.25c-.08-5.55-.35-10.65-.81-15.6-.15-1.32-.23-2.65-.31-3.94z" id="path140" style="opacity:.5;fill:#8ec685"/></g><g id="Calque_1" data-name="Calque 1" transform="matrix(.11476 0 0 .11484 .203 -.012)"><path class="cls-1" d="M281.75 216.54 277 241.08 264.38 263l-13.5 10.13-6.88 6.35-31.16 13.33L198 301h-22.6l-20.68 5.06-24.47-4.22-20.68-7.44-24.94-11.12-28.24-14.77a88.6 88.6 0 0 0-10.58-16.46 59.73 59.73 0 0 1-9.71-17.25l5.53-11.46A81.1 81.1 0 0 1 60 218.76a65 65 0 0 1 11.12-.52l-2.72-57.57a256.78 256.78 0 0 1 69.35 0s1 45.53-1.24 53.58c0 0 16.53-3.56 23.29-2.14l-1.51-79 85.71 5.28s.14 70.89-2.16 76.17c32.68 1.17 39.62 1.96 39.91 1.98zm-98.69-5.7s32.33.83 29.61-.56c-2.72-1.39-5.62-39.19-5.62-39.19L188.37 170Zm-66.7 4.68c.63-5.8 3.64-27.24 3.32-30.74-.32-3.5-26.86-.78-26.86-.78l.32 29s22.6 8.33 23.22 2.52z" id="path143"/><path class="cls-1" d="m244 138.39-85.67-5.28c1-.93 43.93-27.18 52.35-29.33-.01 0 24.2 29.47 33.32 34.61z" id="path145"/><path class="cls-1" d="M212.67 210.28c2.72 1.39-29.61.56-29.61.56l5.31-40.84 18.68 1.07s2.95 37.82 5.62 39.21z" id="path147"/><path class="cls-1" d="m103 124.73 34.74 35.94a256.78 256.78 0 0 0-69.35 0z" id="path149"/><path class="cls-1" d="M119.68 184.78c.32 3.5-2.69 24.94-3.32 30.74-.63 5.8-23.22-2.52-23.22-2.52l-.32-29s26.55-2.7 26.86.78z" id="path151"/><path class="cls-3" d="M281.75 219.76h-.43c-2.09-.2-11.12-.93-39.6-2a3.24 3.24 0 0 1-2.62-1.5 3.21 3.21 0 0 1-.24-3c1.3-4 1.95-40.28 1.91-73.17-9-6.31-25.83-26.18-31.16-32.59-10.65 4.35-46.21 25.84-49.24 28a3.23 3.23 0 0 1-4.27-4.83c1.55-1.48 44.82-27.83 53.77-30.12a3.23 3.23 0 0 1 3.29 1.08c6.63 8.07 25.37 29.88 32.42 33.85a3.22 3.22 0 0 1 1.64 2.8c0 .18 0 18-.22 36.16-.31 22.34-.84 32.28-1.33 36.93 25.75 1 34.23 1.65 36.27 1.85h.06a3.23 3.23 0 0 1-.26 6.44zm-42.87-6.49zm-78.33-77.83-.15.13c.07-.05.11-.1.15-.13z" id="path153"/><path class="cls-3" d="M136.54 217.48a3.24 3.24 0 0 1-3.11-4.1c1.56-5.57 1.53-34.53 1.13-52.64a3.23 3.23 0 0 1 6.45-.14c.09 4.08.74 35.84-.6 49.61a92.27 92.27 0 0 1 16.13-1.65l-1.44-75.39a3.22 3.22 0 0 1 3.42-3.28l85.67 5.28a3.23 3.23 0 0 1-.4 6.44l-82.18-5.07 1.45 75.51a3.23 3.23 0 0 1-3.89 3.22c-5-1.05-17.54 1.19-21.95 2.14a4 4 0 0 1-.68.07z" id="path155"/><path class="cls-3" d="M41.64 226.57a3.23 3.23 0 0 1-1.23-6.21 83.58 83.58 0 0 1 19.21-4.8 70.11 70.11 0 0 1 8.14-.59l-2.55-54.15a3.23 3.23 0 0 1 6.45-.3l2.71 57.56a3.23 3.23 0 0 1-.94 2.43 3.27 3.27 0 0 1-2.42 1 62.18 62.18 0 0 0-10.57.5 79 79 0 0 0-17.59 4.37 3.26 3.26 0 0 1-1.21.19z" id="path157"/><path class="cls-3" d="M154.67 309.28a3.27 3.27 0 0 1-.54 0L129.65 305a3.29 3.29 0 0 1-.54-.14l-20.68-7.45a.85.85 0 0 1-.22-.09l-24.9-11.12a.91.91 0 0 1-.17-.09l-28.25-14.74a3.22 3.22 0 0 1-1.43-1.51 86.12 86.12 0 0 0-10.16-15.78 62.61 62.61 0 0 1-10.3-18.3 3.22 3.22 0 0 1 .17-2.38l5.53-11.46a3.23 3.23 0 0 1 5.81 2.81L39.6 235a58.46 58.46 0 0 0 8.72 15 94.7 94.7 0 0 1 10.5 16.12L86 280.37l24.69 11 20.3 7.31 23.53 4.06 20-4.9a2.91 2.91 0 0 1 .77-.1h21.77l14.22-7.74.28-.13 30.66-13.12 6.48-6a2.43 2.43 0 0 1 .25-.2l13-9.73L274 239.94l4.61-24a3.23 3.23 0 0 1 6.34 1.22l-4.71 24.54a3.28 3.28 0 0 1-.38 1l-12.65 21.94a3.2 3.2 0 0 1-.86 1l-13.38 10-6.76 6.22a3.08 3.08 0 0 1-.92.59l-31 13.27-14.75 8.12a3.21 3.21 0 0 1-1.55.39h-22.25l-20.3 5a3.31 3.31 0 0 1-.77.05z" id="path159"/><path class="cls-3" d="M68.43 163.9a3.23 3.23 0 0 1-2.32-5.47l34.61-35.94a3.22 3.22 0 0 1 2.32-1 3.22 3.22 0 0 1 2.32 1l34.74 35.94a3.23 3.23 0 0 1-2.75 5.44 255.45 255.45 0 0 0-68.38 0 3.29 3.29 0 0 1-.54.03zm34.14-8.78c8 0 17 .34 26.62 1.3l-26.14-27-26 27c6.11-.69 14.95-1.3 25.52-1.3z" id="path161"/><path class="cls-3" d="M112.27 220.81a42.83 42.83 0 0 1-10.42-1.71c-5.13-1.34-9.64-3-9.83-3.06a3.21 3.21 0 0 1-2.11-3L89.59 184a3.24 3.24 0 0 1 2.91-3.25c.24 0 6-.6 12.27-.86 12.65-.52 15.21.68 16.62 1.84a4.07 4.07 0 0 1 1.51 2.77c.24 2.67-.9 11.95-2.4 23.81-.41 3.22-.76 6-.93 7.57a5 5 0 0 1-2.42 3.81 8.72 8.72 0 0 1-4.88 1.12zm-15.93-10.1c1.68.57 4.2 1.37 6.88 2.08 6.31 1.68 9 1.65 10 1.51.19-1.67.5-4.08.84-6.82.78-6.09 2.12-16.73 2.35-20.93-3.33-.6-12.17-.35-20.37.34z" id="path163"/><path class="cls-3" d="M200.94 214.31h-3.12c-7.35-.05-14.77-.24-14.84-.24a3.22 3.22 0 0 1-2.37-1.13 3.26 3.26 0 0 1-.75-2.51l5.31-40.82a3.24 3.24 0 0 1 3.39-2.8l18.68 1.07a3.22 3.22 0 0 1 3 3c1.19 15.5 3.28 33.7 4.68 37.12a3.34 3.34 0 0 1 1 3.29c-.7 2.74-3.37 2.83-7.8 3-1.84-.01-4.27.02-7.18.02zm-14.22-6.61c8.32.17 16.78.22 21.48.07-.25-1-.48-2.22-.73-3.64-.59-3.38-1.21-8-1.83-13.61-.71-6.43-1.28-12.83-1.57-16.37l-12.89-.74z" id="path165"/><path d="M319.6 151.19c-.14-1.52-.23-3.09-.31-4.6a79 79 0 0 0-.77-8.18 144.66 144.66 0 0 0-6.2-23.37c-2.24-6.5-4.27-12.36-6.49-18.2-.53-1.41-1-2.88-1.52-4.3-1.46-4.22-3-8.59-5.47-12.29-2.12-3.16-4.13-6.48-6.07-9.7-3.48-5.76-7.07-11.71-11.56-17-4.33-5.15-7.94-8.48-12.08-11.13a36 36 0 0 1-8.17-6.9 61.56 61.56 0 0 0-20.31-15.71c-8.53-4.1-17.65-8.34-27.18-11.34-1.08-.34-2.16-.7-3.22-1.06a56.74 56.74 0 0 0-9.36-2.58c-4.07-.64-8.86-1.44-13.53-2.51A89.81 89.81 0 0 0 170.71.13a110.2 110.2 0 0 0-12 .41c-2.13.15-4.33.3-6.49.38A53.59 53.59 0 0 0 142.09 2c-5.34 1.23-10.83 2.21-16.09 3.16l-1.42.25c-1.15.21-2.33.39-3.48.57a75.27 75.27 0 0 0-8.31 1.64c-2.84.78-5.6 1.83-8.27 2.84-1.7.64-3.46 1.31-5.2 1.89A137 137 0 0 0 76 23a165.76 165.76 0 0 0-28.27 19.78 61.9 61.9 0 0 0-10.35 12c-2 3-3.93 6-5.78 9-1.53 2.45-3.1 5-4.72 7.41a168.58 168.58 0 0 0-15 28.12L11 101.4c-2.18 5.16-4.43 10.5-6.3 15.9-2.67 7.7-3.85 15.48-5 24.11-.5 3.7-.64 7.42-.77 11-.1 2.62-.2 5.34-.44 8a85.3 85.3 0 0 0 .91 20.72c.17 1.14.33 2.28.5 3.42a97.91 97.91 0 0 0 2.25 12.16 188.28 188.28 0 0 0 11.55 31.34c5.5 11.53 12.3 22.36 18.3 31.61A161.19 161.19 0 0 0 44.74 277a55 55 0 0 0 14.66 12.05c2.36 1.36 4.73 2.81 7 4.22 2.53 1.55 5.15 3.15 7.78 4.65 2.17 1.25 4.35 2.58 6.46 3.88 5.68 3.47 11.55 7.06 18.09 9.39 2.17.78 4.36 1.7 6.48 2.6a67.35 67.35 0 0 0 12.57 4.35c1.79.37 3.61.65 5.36.92 1 .16 2.09.32 3.13.5a49.19 49.19 0 0 0 5.47.55c1.72.11 3.49.23 5.19.51a102.69 102.69 0 0 0 14 1.09c2.69.08 5.47.17 8.18.38 1.78.14 3.59.21 5.44.21a96.18 96.18 0 0 0 16.72-1.62c2.16-.38 4.39-.63 6.55-.87a73 73 0 0 0 10.42-1.7c2.18-.59 4.34-1.31 6.43-2 1.48-.49 3-1 4.53-1.45a116.23 116.23 0 0 0 21.35-8.66c4.18-2.23 8.29-4.7 12.27-7.09 4.61-2.77 9.38-5.63 14.24-8.1a25.89 25.89 0 0 0 7.1-4.93c5.77-6 12.54-13.2 19-20.93 4.94-5.94 10.08-12.35 14-19.72 1.08-2.06 2.08-4.2 3-6.27a95.33 95.33 0 0 1 4.46-8.79c5.51-9.22 12-29.68 12-29.74a61.18 61.18 0 0 0 2.57-13.68c.16-1.8.38-3.61.59-5.37a85.54 85.54 0 0 0 .85-11.4c-.15-6.66-.47-12.82-1.03-18.79zM292 177.93c-.18 1.5-.37 3-.51 4.58a49.6 49.6 0 0 1-2.07 11.05c-.13.39-5.37 17-9.86 24.5a84.77 84.77 0 0 0-3.86 7.6c-.8 1.72-1.62 3.49-2.51 5.17-3.15 6-7.4 11.29-11.47 16.19-5.36 6.44-11 12.45-15.85 17.48a19.36 19.36 0 0 1-5.36 3.69c-4.16 2.12-8.2 4.55-12.11 6.9-3.32 2-6.76 4.05-10.22 5.9a95.58 95.58 0 0 1-17.5 7.07c-1.31.39-2.62.83-3.88 1.25-1.73.57-3.51 1.16-5.28 1.64a58.6 58.6 0 0 1-8.42 1.36c-1.86.21-3.77.43-5.66.76a71 71 0 0 1-18.06 1.16c-2.34-.19-4.7-.26-7-.33a85.07 85.07 0 0 1-11.48-.9 45.73 45.73 0 0 0-4.59-.46 43.12 43.12 0 0 1-4.37-.43c-.89-.16-1.78-.29-2.67-.43-1.45-.23-3-.46-4.4-.76a54.1 54.1 0 0 1-10.14-3.52c-1.81-.77-3.68-1.56-5.58-2.23-5.27-1.88-10.11-4.84-14.78-7.7-1.79-1.1-3.64-2.23-5.5-3.29-2.18-1.25-4.36-2.59-6.48-3.88-1.94-1.19-3.94-2.42-6-3.58a44 44 0 0 1-11.73-9.65 133.51 133.51 0 0 1-10.57-14.33 242.3 242.3 0 0 1-15.22-26.33 155.21 155.21 0 0 1-9.54-26 82.5 82.5 0 0 1-1.84-9.95c-.14-1-.27-1.93-.42-2.9a69.31 69.31 0 0 1-.75-16.87c.21-2.29.29-4.6.38-6.84.11-3 .23-6 .63-9 .95-7.13 1.92-13.55 4.1-19.83 1.55-4.47 3.43-8.93 5.24-13.24l.75-1.78a139.39 139.39 0 0 1 12.43-23.25c1.38-2.08 2.71-4.22 4-6.3C55.4 78 57 75.42 58.66 73A50.13 50.13 0 0 1 67 63.33 137 137 0 0 1 90.37 47a112.53 112.53 0 0 1 19.18-8.76c1.51-.51 3-1.08 4.46-1.63 2.2-.83 4.47-1.69 6.75-2.32a62.66 62.66 0 0 1 6.74-1.32c1-.15 2-.31 3-.49l1.19-.21c4.5-.8 9.14-1.63 13.69-2.69a43.09 43.09 0 0 1 8.11-.84c1.85-.07 3.73-.2 5.53-.33 2.59-.18 5.26-.37 7.9-.37h1.92a73.32 73.32 0 0 1 13.59 1.74c4 .92 8.07 1.6 11.53 2.15a46.49 46.49 0 0 1 7.5 2.07c.9.31 1.82.62 2.75.91a172.71 172.71 0 0 1 22.56 9.42A49.43 49.43 0 0 1 243.08 57a32 32 0 0 0 7.38 6.24 42.37 42.37 0 0 1 9.65 8.92 108.16 108.16 0 0 1 9.5 14c1.65 2.73 3.36 5.55 5.18 8.25a42 42 0 0 1 4.32 9.8c.42 1.22.85 2.47 1.31 3.69 1.85 4.88 3.56 9.79 5.43 15.24a118.08 118.08 0 0 1 5.15 19.27 64.07 64.07 0 0 1 .62 6.63c.07 1.3.15 2.64.27 4 .47 5 .73 10.08.82 15.65a68.33 68.33 0 0 1-.71 9.24z" id="path167" style="fill:#8ec685"/></g><g id="Group-14" transform="matrix(.10417 0 0 .1087 -.015 21.926)" style="fill:none;fill-rule:evenodd;stroke:none;stroke-width:1;opacity:.7"><path d="m73.143 13.684 16-13 14 6.5 4 17.5h20l4 6-4 22 17 13-1 10-17 11 7 22-7 8h-19l-5.944 20.148c-6 1.235-9.333 1.852-10 1.852-.666 0-7.019-3.334-19.056-10l-15 10-13-4c-3.925-10.47-6.24-16.086-6.944-16.852-.704-.765-7.704-1.148-21-1.148l-5.056-8 6-23.852-17-10.148 2-11 16-10-7-21 8-9 20 2 7-22 12-2z" id="Path-2" fill="#20b7eb"/><g id="Group" transform="translate(42.143 44.384)" fill-rule="nonzero" fill="#fff"><path d="M19.51 44.654c3.36-4.897 6.517-9.49 9.823-14.16 1.437-2.03 4.109-4.745 5.598-6.605C37.55 20.624 50.863 3.445 53.566.636c0 0 12.703 7.12 12 8-4 5-22.821 32.811-27 38-1.132 1.406-2.465 2.406-4 3l6 2" id="Shape"/><path d="M23.46 20.184c.852.532 4.03 14.31 4.984 18.444 1.09 4.722 2.348 8.898 3.818 16.535 0 0-1.76.93-9.328 3.605-1.116.394-4.134.954-4.134.954s-2.427-7.353-2.757-8.797C14.74 45.3 10.12 28.41 8.833 22.835c-.318-1.377 13.78-3.18 14.627-2.65Z" id="path260" transform="rotate(-32 20.545 39.906)"/></g></g></g></svg>