<svg id="Calque_1" data-name="Calque 1" xmlns="http://www.w3.org/2000/svg" viewBox="0 0 322.35 322.21"><defs><style>.cls-1{fill:#cce6f5;}.cls-2{fill:#97cdeb;}.cls-3{fill:#141414;}.cls-4{fill:#fff;}.cls-5{fill:#aeadad;}</style></defs><title>map icon workspace</title><path class="cls-1" d="M292.9,149a63.43,63.43,0,0,0-.62-6.61,118.32,118.32,0,0,0-5.1-19.22c-1.87-5.43-3.57-10.32-5.41-15.19-.46-1.21-.89-2.46-1.31-3.67a41.78,41.78,0,0,0-4.31-9.77c-1.81-2.69-3.51-5.5-5.16-8.22a108.1,108.1,0,0,0-9.47-14,42.07,42.07,0,0,0-9.61-8.89,31.81,31.81,0,0,1-7.36-6.22,49.32,49.32,0,0,0-16.27-12.59,170.11,170.11,0,0,0-22.48-9.38c-.92-.29-1.85-.6-2.74-.91a45.22,45.22,0,0,0-7.48-2.06c-3.45-.55-7.51-1.23-11.49-2.14a71.84,71.84,0,0,0-13.54-1.74c-.64,0-1.28,0-1.92,0-2.63,0-5.28.19-7.86.37-1.8.13-3.67.26-5.51.33a42.8,42.8,0,0,0-8.09.83c-4.53,1.06-9.16,1.89-13.64,2.68l-1.19.22-3,.48a61.83,61.83,0,0,0-6.72,1.32c-2.28.63-4.54,1.49-6.73,2.31-1.45.55-2.94,1.12-4.44,1.62a112.22,112.22,0,0,0-19.12,8.73A137.07,137.07,0,0,0,69.06,63.58a49.81,49.81,0,0,0-8.29,9.62c-1.66,2.42-3.25,5-4.79,7.44-1.29,2.07-2.62,4.2-4,6.27A138.94,138.94,0,0,0,39.65,110.1l-.74,1.77c-1.81,4.3-3.68,8.74-5.23,13.19-2.17,6.26-3.13,12.66-4.09,19.77-.4,3-.51,6-.62,9-.09,2.23-.17,4.54-.38,6.82a69.41,69.41,0,0,0,.75,16.82l.42,2.89a82.19,82.19,0,0,0,1.83,9.91,155,155,0,0,0,9.51,25.87,239,239,0,0,0,15.17,26.24A132.22,132.22,0,0,0,66.8,256.67a43.68,43.68,0,0,0,11.69,9.61c2,1.16,4,2.39,5.93,3.57,2.11,1.29,4.28,2.62,6.46,3.87,1.85,1.06,3.69,2.19,5.47,3.28,4.66,2.85,9.48,5.8,14.74,7.67,1.89.67,3.75,1.46,5.56,2.22a54.44,54.44,0,0,0,10.1,3.52c1.45.29,2.94.53,4.39.75.89.14,1.77.27,2.66.43a42.72,42.72,0,0,0,4.35.43,43.05,43.05,0,0,1,4.58.46,86.12,86.12,0,0,0,11.44.87c2.28.07,4.64.14,7,.33a70.85,70.85,0,0,0,18-1.15c1.88-.33,3.79-.55,5.64-.76a57,57,0,0,0,8.4-1.36c1.76-.47,3.53-1.06,5.25-1.63,1.26-.42,2.57-.86,3.87-1.24a95,95,0,0,0,17.44-7.06c3.45-1.83,6.87-3.89,10.18-5.87,3.9-2.35,7.93-4.76,12.07-6.87a19.86,19.86,0,0,0,5.35-3.68c4.81-5,10.45-11,15.79-17.43,4.06-4.88,8.29-10.15,11.43-16.13.88-1.68,1.71-3.44,2.5-5.15a84.16,84.16,0,0,1,3.85-7.57c4.47-7.48,9.7-24,9.82-24.42a49.32,49.32,0,0,0,2.07-11c.14-1.54.32-3.08.5-4.57a67.9,67.9,0,0,0,.69-9.25c-.08-5.55-.35-10.65-.81-15.6C293.05,151.62,293,150.29,292.9,149Z"/><path class="cls-2" d="M321.37,151.19c-.15-1.52-.24-3.09-.32-4.6a79,79,0,0,0-.77-8.18,143.63,143.63,0,0,0-6.2-23.37c-2.24-6.5-4.27-12.36-6.48-18.2-.53-1.41-1-2.88-1.53-4.3-1.46-4.22-3-8.59-5.46-12.29-2.13-3.16-4.14-6.48-6.08-9.7-3.48-5.76-7.07-11.71-11.55-17-4.34-5.15-8-8.48-12.08-11.13a35.81,35.81,0,0,1-8.18-6.9,61.56,61.56,0,0,0-20.31-15.71c-8.53-4.1-17.65-8.34-27.18-11.34-1.07-.34-2.16-.7-3.22-1.06a56.74,56.74,0,0,0-9.36-2.58c-4.07-.64-8.86-1.44-13.53-2.51A89.69,89.69,0,0,0,172.47.13a110.2,110.2,0,0,0-12,.41c-2.13.15-4.33.3-6.49.38A53.67,53.67,0,0,0,143.85,2C138.51,3.23,133,4.21,127.71,5.16l-1.42.25c-1.15.21-2.33.39-3.48.57a75.73,75.73,0,0,0-8.31,1.64c-2.84.78-5.6,1.83-8.27,2.84-1.7.64-3.46,1.31-5.2,1.89A137,137,0,0,0,77.76,23,166.15,166.15,0,0,0,49.49,42.78a62.25,62.25,0,0,0-10.35,12c-2,3-3.93,6-5.78,9-1.52,2.45-3.1,5-4.72,7.41a168.54,168.54,0,0,0-15,28.12l-.89,2.12c-2.18,5.16-4.42,10.5-6.3,15.9-2.67,7.7-3.84,15.48-5,24.11-.49,3.7-.64,7.42-.77,11-.1,2.62-.2,5.34-.44,8a85.3,85.3,0,0,0,.91,20.72c.17,1.14.34,2.28.5,3.42a99.79,99.79,0,0,0,2.25,12.16,188.28,188.28,0,0,0,11.52,31.33c5.5,11.53,12.31,22.36,18.26,31.61A163.94,163.94,0,0,0,46.5,277a55.17,55.17,0,0,0,14.66,12.06c2.36,1.36,4.73,2.81,7,4.22,2.53,1.55,5.15,3.15,7.78,4.65,2.17,1.25,4.35,2.58,6.46,3.88,5.68,3.47,11.55,7.06,18.09,9.39,2.18.78,4.36,1.7,6.48,2.6a67.35,67.35,0,0,0,12.57,4.35c1.79.37,3.61.65,5.36.92,1,.16,2.09.32,3.13.5a49.13,49.13,0,0,0,5.48.55c1.71.11,3.48.23,5.18.51a102.69,102.69,0,0,0,14,1.09c2.69.08,5.47.17,8.18.38,1.78.14,3.59.21,5.45.21a96.17,96.17,0,0,0,16.71-1.62c2.16-.38,4.39-.63,6.55-.87a73,73,0,0,0,10.42-1.7c2.18-.59,4.34-1.31,6.43-2,1.48-.49,3-1,4.53-1.45A116.23,116.23,0,0,0,232.31,306c4.18-2.23,8.29-4.7,12.27-7.09,4.61-2.77,9.38-5.63,14.24-8.1a25.89,25.89,0,0,0,7.1-4.93c5.77-6,12.54-13.2,19-20.93,4.94-5.94,10.09-12.35,14-19.72,1.08-2.06,2.08-4.2,3-6.27a95.33,95.33,0,0,1,4.46-8.79c5.51-9.22,12-29.68,12-29.74a61.76,61.76,0,0,0,2.57-13.68c.15-1.8.37-3.61.58-5.37a83.91,83.91,0,0,0,.85-11.4C322.25,163.32,321.92,157.16,321.37,151.19Zm-27.62,26.74c-.18,1.5-.37,3-.51,4.58a48.48,48.48,0,0,1-2.07,11.05c-.12.39-5.37,17-9.86,24.5a84.77,84.77,0,0,0-3.86,7.6c-.8,1.72-1.62,3.49-2.51,5.17-3.15,6-7.39,11.29-11.47,16.19-5.36,6.44-11,12.45-15.84,17.48a19.4,19.4,0,0,1-5.37,3.69c-4.15,2.12-8.2,4.55-12.11,6.9-3.32,2-6.76,4.05-10.22,5.9a95.58,95.58,0,0,1-17.5,7.07c-1.31.39-2.61.83-3.88,1.25-1.73.57-3.51,1.16-5.27,1.64a58.74,58.74,0,0,1-8.43,1.36c-1.86.21-3.77.43-5.65.76a71,71,0,0,1-18.07,1.16c-2.33-.19-4.7-.26-7-.33a85.2,85.2,0,0,1-11.48-.88,45.73,45.73,0,0,0-4.59-.46,43.12,43.12,0,0,1-4.37-.43c-.88-.16-1.77-.29-2.66-.43-1.46-.23-3-.46-4.4-.76a53.94,53.94,0,0,1-10.15-3.52c-1.81-.77-3.68-1.56-5.57-2.23-5.28-1.88-10.12-4.84-14.79-7.7-1.79-1.1-3.64-2.23-5.49-3.29-2.19-1.25-4.37-2.59-6.49-3.88-1.93-1.19-3.94-2.42-6-3.58a44,44,0,0,1-11.73-9.65A133.51,133.51,0,0,1,55.9,242.76a242.3,242.3,0,0,1-15.22-26.33,157,157,0,0,1-9.54-26,82.5,82.5,0,0,1-1.84-9.95c-.13-1-.27-1.93-.42-2.9a69.81,69.81,0,0,1-.75-16.87c.21-2.29.3-4.6.38-6.84.11-3,.23-6,.63-9,.95-7.13,1.92-13.55,4.1-19.83,1.55-4.47,3.43-8.93,5.24-13.24l.75-1.78A139.39,139.39,0,0,1,51.61,86.75c1.38-2.08,2.72-4.22,4-6.3,1.54-2.47,3.13-5,4.8-7.47a50.48,50.48,0,0,1,8.32-9.65A137.41,137.41,0,0,1,92.13,47a112.53,112.53,0,0,1,19.18-8.76c1.51-.51,3-1.08,4.46-1.63,2.2-.83,4.47-1.69,6.76-2.32a62.19,62.19,0,0,1,6.74-1.32c1-.15,2-.31,3-.49l1.19-.21c4.5-.8,9.14-1.63,13.69-2.69a43.09,43.09,0,0,1,8.11-.84c1.86-.07,3.73-.2,5.54-.33,2.59-.18,5.25-.37,7.89-.37.64,0,1.28,0,1.92,0a73.21,73.21,0,0,1,13.59,1.74c4,.92,8.07,1.6,11.53,2.15A46.21,46.21,0,0,1,203.2,34c.9.31,1.83.62,2.75.91a172.13,172.13,0,0,1,22.56,9.42A49.43,49.43,0,0,1,244.84,57a32,32,0,0,0,7.38,6.24,42.37,42.37,0,0,1,9.65,8.92,108.16,108.16,0,0,1,9.5,14c1.65,2.73,3.36,5.55,5.18,8.25a42,42,0,0,1,4.32,9.8c.42,1.22.85,2.47,1.32,3.69,1.85,4.88,3.55,9.79,5.42,15.24a118.08,118.08,0,0,1,5.12,19.28,59,59,0,0,1,.62,6.63c.08,1.3.15,2.64.28,4,.46,5,.73,10.08.81,15.65A68.33,68.33,0,0,1,293.75,177.93Z"/><path class="cls-3" d="M276.48,175.23c0,4.2-1,9-3.17,14.66,0,0,0,0,0,.05l-.11.29h0a27.93,27.93,0,0,1-4,6.83,11.39,11.39,0,0,1-2,2,12.12,12.12,0,0,1-5.93,2.39,14.69,14.69,0,0,0-3.57.95c-.32.13-.64.28-1,.43-.94.46-1.75.91-2.54,1.35a40.1,40.1,0,0,1-3.72,1.87l-.53.24-.28.13a16.69,16.69,0,0,1-2.42,1l-.71.17-2.18.52a48.21,48.21,0,0,1-5.55,1,16.21,16.21,0,0,1-2.06.14c-.74,0-1.41,0-2-.09a22,22,0,0,0-3.22-.06c-1.54.09-3.42,0-5.24,0-1.66,0-3.39-.11-4.73,0a34.08,34.08,0,0,1-5.59,0,13.24,13.24,0,0,0-2.82,0,57.51,57.51,0,0,1-6,0c-1.73,0-3.36-.1-4.79,0s-2.68.08-4.13.07c8.63-.31,15.39-.91,15.39-.91l26.09-.08s12.42-2.55,17.87-6.95c3-2.43,10.15,0,12.88-9.52.1-.36-.28-.77-1.05-1.24,1.76-.69,3-1.54,3.47-2.59.53-1.28,1.05-5.33,1.45-10.27A208.63,208.63,0,0,0,275,155c-.12-2.25-1.18-5-2.67-7.9l.4-.2c.24.49.51,1,.78,1.52,1.56,3,3.33,6.36,2.78,9.86a32.86,32.86,0,0,0-.32,9.24A48.14,48.14,0,0,1,276.48,175.23Z"/><path class="cls-3" d="M275,155a208.63,208.63,0,0,1-.72,22.57l-.22,0c.07-.79.1-1.56.1-2.3a46.43,46.43,0,0,0-.51-7.43,34.59,34.59,0,0,1,.33-9.91c.42-2.73-1.08-5.61-2.54-8.39-.47-.9-.92-1.75-1.31-2.6-.58-1.29-1.18-2.36-1.75-3.4a31.6,31.6,0,0,1-2.76-6.07,26.58,26.58,0,0,0-1.06-2.69c-.13-.29-.26-.57-.38-.86-.19-.45-.37-.87-.57-1.28l.32-.18c2.56,4.76,6,10,8.4,14.66C273.8,150,274.86,152.75,275,155Z"/><path class="cls-3" d="M274,177.55l.22,0c-.4,4.94-.92,9-1.45,10.27-.43,1-1.71,1.9-3.47,2.59-.26-.16-.57-.32-.92-.49a12.66,12.66,0,0,0,1.5-.11c.36-.06,1-.19,1.07-.45h0A43.21,43.21,0,0,0,274,177.55Z"/><path class="cls-4" d="M274.14,175.25c0,.74,0,1.51-.1,2.3a43.21,43.21,0,0,1-3,11.81h0c-.1.26-.71.39-1.07.45a12.66,12.66,0,0,1-1.5.11c-10.58-5.07-60.28-14.62-68.56-13.48-9.37,1.27-33.14-2.89-37.19-2.88a51.34,51.34,0,0,0-8.67,1.23,3.17,3.17,0,0,0,1.39-1.49c1.06-2.33,2.1-4.7,3.11-7l.74-1.69c1.89-4.27,1.62-5.83-1.6-9.24l-.27-.28-.18-.18a10.81,10.81,0,0,1-1.09-1.29,1.07,1.07,0,0,0-.2-.22,1.2,1.2,0,0,0-.08-.27,1.21,1.21,0,0,1-.14-.76,6,6,0,0,1,1-2.17,11.22,11.22,0,0,0,1.63-6.83,34.5,34.5,0,0,0-.62-5.68c-.2-1-.36-1.91-.47-2.87a30.73,30.73,0,0,1,.06-7.36,34.71,34.71,0,0,1,1.68-7l.75.24.19,0c.85.28,1.21.39,2.53,1.81a1.19,1.19,0,0,0,.86.37,1.14,1.14,0,0,0,.79-.32,1.17,1.17,0,0,0,.06-1.66c-1.66-1.78-2.36-2.06-3.53-2.43l-.18-.06c-.65-.21-1.31-.41-2-.59-3.1-.88-6.23-1.52-8.6-2s-4.72-1.07-7-1.66c-.9-.23-1.81-.47-2.72-.69l-.71-.19-1.51-.41-.59-.17a5.5,5.5,0,0,0-.8-.24l-1-.24h0l-.16,0h0l-.73-.17a67.82,67.82,0,0,0-8.95-1.79c-5.12-.56-10.33-.62-15.36-.68-3,0-8-.38-10.06-.28-1.41.07-.81.09-2.25.09l-2.49,0c-.6,0-1.21,0-1.83-.07a16.27,16.27,0,0,1-4.45-.87,10.25,10.25,0,0,1-.92-3.28,17.72,17.72,0,0,0-.56-2.74,10.93,10.93,0,0,1-.34-1.54h0l.64.09a11.45,11.45,0,0,0,2.82.12c1.28-.14,2.57-.26,3.86-.36,3-.23,6-.4,9-.55l2.05-.11a123.8,123.8,0,0,1,13.22.25c3.54.19,7.19.38,10.82.33a32,32,0,0,0,8-1.18c1-.29,2.1-.6,3.13-.91,4.87-1.06,11-2.82,15.7-4.4.94-.19,1.87-.36,2.81-.5a46.21,46.21,0,0,1,20.4,1.12A57.76,57.76,0,0,1,186.25,97a28.61,28.61,0,0,1,6.19,3.52l.92.7c3.78,2.91,14.8,9.15,15.2,9.53a28,28,0,0,0,2.73,2.11c2.86,2.08,6,5.66,8.93,7.26,1.19.66,2.38,1.32,3.58,2a1.12,1.12,0,0,0,.56.15,1.22,1.22,0,0,0,1-.62,1.2,1.2,0,0,0-.48-1.6q-1.78-1-3.57-2c-2.92-1.61-6.06-5.17-9-7.29-.64-.47-1.32-.42-1.94-1a5.47,5.47,0,0,1,3.17-.07l1.71.28a43.48,43.48,0,0,0,8.25.43,39.53,39.53,0,0,1,6,.21,18.9,18.9,0,0,1,5.36,1.54,12.09,12.09,0,0,0,4.25.84c2.93.13,5.12.1,7.45.06,1.46,0,3,0,4.76,0a6.88,6.88,0,0,1,6.35,3.33,9.36,9.36,0,0,1,.58,1,15,15,0,0,1,1.25,6.34V124c0,1.73.07,3.88,1.58,5.31a11.12,11.12,0,0,1,2.47,3.31c.2.41.38.83.57,1.28.12.29.25.57.38.86a26.58,26.58,0,0,1,1.06,2.69,31.6,31.6,0,0,0,2.76,6.07c.57,1,1.17,2.11,1.75,3.4.39.85.84,1.7,1.31,2.6,1.46,2.78,3,5.66,2.54,8.39a34.59,34.59,0,0,0-.33,9.91A46.43,46.43,0,0,1,274.14,175.25Z"/><path class="cls-3" d="M272.71,146.9l-.4.2c-2.37-4.68-5.84-9.9-8.4-14.66a41.37,41.37,0,0,1-2.5-5.46l.78-.27a2.16,2.16,0,0,0,.53.89,14.09,14.09,0,0,1,3.6,5.38l.36.83a26.57,26.57,0,0,1,1.14,2.91,30.09,30.09,0,0,0,2.59,5.66c.6,1.08,1.21,2.19,1.84,3.56C272.39,146.26,272.54,146.58,272.71,146.9Z"/><path class="cls-3" d="M269.34,190.43c.77.47,1.15.88,1.05,1.24-2.73,9.49-9.87,7.09-12.88,9.52-5.45,4.4-17.87,6.95-17.87,6.95l-26.09.08s-6.76.6-15.39.91h0c-2.19,0-4.53-.08-7-.15-4.7-.14-9.56-.28-13.45,0a63.07,63.07,0,0,1-9.15-1.18c-3.85-.87-8.52-2.24-13.47-3.86l.2-.61c1.66.55,3.43,1.06,5.36,1.56s4,.93,6,1.24a45.59,45.59,0,0,0,10.65.53,131.1,131.1,0,0,1,13.93-.05c4,.11,7.75.22,11,.08,1.52-.06,3.26,0,5,0,2,.06,4.07.12,5.78,0a16.5,16.5,0,0,1,3.22,0,30.89,30.89,0,0,0,5.24,0c1.45-.08,3.22,0,4.93,0s3.59.1,5,0a24.49,24.49,0,0,1,3.53.06c.64.05,1.23.09,1.88.09a14,14,0,0,0,1.79-.12,47.21,47.21,0,0,0,5.3-1l2.16-.51.72-.18c.29-.07,1.37-.57,2-.84l.31-.14.59-.26a38,38,0,0,0,3.5-1.77c.81-.45,1.66-.92,2.64-1.4.36-.18.74-.34,1.1-.49a16.88,16.88,0,0,1,4.08-1.1,9.94,9.94,0,0,0,5-2,8.82,8.82,0,0,0,1.5-1.59,25.59,25.59,0,0,0,2.27-3.4c-.81.08-1.71.08-2.67.09a30.16,30.16,0,0,0-4.7.26l-.05-.32A37.5,37.5,0,0,0,269.34,190.43Z"/><path class="cls-3" d="M268.42,189.94c.35.17.66.33.92.49a37.5,37.5,0,0,1-7.13,1.82c-4.16.72-8.54,1.13-11.22,1.46a13.85,13.85,0,0,1-6-.91c-7-2.39-15.43-8.29-22.34-8-3.47.14-10.88-.66-18.75-1.53v-.15a74.61,74.61,0,0,0,8.2.52,106,106,0,0,1,11.48.52,70.84,70.84,0,0,1,9.66,2,42.78,42.78,0,0,1,5.61,2c1.82.76,3.9,1.62,6.82,2.64.25.08.57.22,1,.39a14.1,14.1,0,0,0,4.37,1.31H251a19.41,19.41,0,0,0,7.39-1.31c2.85-1.25,6-1.26,8.53-1.27Z"/><path class="cls-4" d="M269.63,192.22a25.59,25.59,0,0,1-2.27,3.4,8.82,8.82,0,0,1-1.5,1.59,9.94,9.94,0,0,1-5,2,16.88,16.88,0,0,0-4.08,1.1c-.36.15-.74.31-1.1.49-1,.48-1.83,1-2.64,1.4a38,38,0,0,1-3.5,1.77l-.59.26-.31.14c-.59.27-1.67.77-2,.84l-.72.18-2.16.51a47.21,47.21,0,0,1-5.3,1,14,14,0,0,1-1.79.12c-.65,0-1.24,0-1.88-.09a24.49,24.49,0,0,0-3.53-.06c-1.43.09-3.25,0-5,0s-3.48-.11-4.93,0a30.89,30.89,0,0,1-5.24,0,16.5,16.5,0,0,0-3.22,0c-1.71.13-3.78.07-5.78,0-1.7-.05-3.44-.1-5,0-3.21.14-7,0-11-.08a131.1,131.1,0,0,0-13.93.05,45.59,45.59,0,0,1-10.65-.53c-2-.31-4-.73-6-1.24s-3.7-1-5.36-1.56a53,53,0,0,1-7.42-3.06c-.49-.25-1-.51-1.44-.77a46.88,46.88,0,0,0-8-3.3l-2.43-.84a31.67,31.67,0,0,1-3.78-1.74,34.77,34.77,0,0,0-3.75-1.75c-1-.37-2-.69-2.9-1s-1.72-.55-2.55-.86l-.82-.28a12,12,0,0,1-1.2-.45,13.72,13.72,0,0,0-1.47-.51c-.44-.15-.91-.29-1.18-.41l-.4-.17,0-.2a0,0,0,0,0,0,0c-.3-1.67-.58-3.26-.76-4.34h1.71c1.4,0,2.83,0,4.26,0,.74,0,1.43-.08,2.1-.16a27.71,27.71,0,0,1,2.92,0,4.2,4.2,0,0,0,.75.51l.07.06c.46.3,1.43.93,2.71,1.62a18.47,18.47,0,0,0,6,2.29l.34,0a9.87,9.87,0,0,1,5.18,1.77l.05,0,.08.06.12.06,0,0h0l.15.05h.07a.75.75,0,0,0,.21,0,1.54,1.54,0,0,0,.3,0l.08,0,.21-.1.08,0a1,1,0,0,0,.19-.17l0,0h0a1.28,1.28,0,0,0,.16-.27l0,0a.64.64,0,0,1,0-.07.25.25,0,0,0,0-.07,7.38,7.38,0,0,0-.1-4.08c-.1-.46-.2-.91-.26-1.32h0a4.25,4.25,0,0,1,0-.83l2.31-.06c2,0,4-.09,6.08-.15,2.36-.08,4.75-.2,7.07-.31,3.35-.16,6.78-.34,10.2-.38,1.79,0,3.58,0,5.35.07a116.75,116.75,0,0,1,18.45,1.85A92.53,92.53,0,0,0,212.06,186a102.9,102.9,0,0,1,11.21.51,66,66,0,0,1,9.34,2,38.65,38.65,0,0,1,5.31,1.94c1.77.73,4,1.64,6.94,2.68.21.07.5.19.85.34a15.38,15.38,0,0,0,5.28,1.49h0a21.94,21.94,0,0,0,8.25-1.48l.06,0a11.78,11.78,0,0,1,2.91-.82,30.16,30.16,0,0,1,4.7-.26C267.92,192.3,268.82,192.3,269.63,192.22Z"/><path class="cls-4" d="M268.42,189.94,267,190c-2.53,0-5.68,0-8.53,1.27a19.41,19.41,0,0,1-7.39,1.31H251a14.1,14.1,0,0,1-4.37-1.31c-.4-.17-.72-.31-1-.39-2.92-1-5-1.88-6.82-2.64a42.78,42.78,0,0,0-5.61-2,70.84,70.84,0,0,0-9.66-2,106,106,0,0,0-11.48-.52,74.61,74.61,0,0,1-8.2-.52c-2.88-.33-5.94-.82-9.3-1.5a121,121,0,0,0-18.82-1.89c-5.25-.21-10.6.06-15.76.31-2.3.12-4.69.24-7,.31-2,.06-4,.1-6,.15l-3.75.09h0a7.12,7.12,0,0,1,0-.81c.14-1.37,2.65-2.63,5.88-3.65a16.72,16.72,0,0,0,3.45-.69,8.14,8.14,0,0,0,1.52-.6,51.34,51.34,0,0,1,8.67-1.23c4.05,0,27.82,4.15,37.19,2.88C208.14,175.32,257.84,184.87,268.42,189.94Z"/><path class="cls-3" d="M263.91,132.44l-.32.18a11.12,11.12,0,0,0-2.47-3.31c-1.51-1.43-1.55-3.58-1.58-5.31v-.25a15,15,0,0,0-1.25-6.34,9.36,9.36,0,0,0-.58-1l.17-.11a23.72,23.72,0,0,1,2.85,8.27,14.86,14.86,0,0,0,.68,2.45A41.37,41.37,0,0,0,263.91,132.44Z"/><path class="cls-3" d="M262.21,192.25l.05.32a11.78,11.78,0,0,0-2.91.82l-.06,0a21.94,21.94,0,0,1-8.25,1.48h0a15.38,15.38,0,0,1-5.28-1.49c-.35-.15-.64-.27-.85-.34l.09-.26a13.85,13.85,0,0,0,6,.91C253.67,193.38,258.05,193,262.21,192.25Z"/><path class="cls-3" d="M262.19,126.71l-.78.27a14.86,14.86,0,0,1-.68-2.45,23.72,23.72,0,0,0-2.85-8.27c-3.16-5-7.87-4.36-13.31-4.33-1.38,0-3.65-.18-6.26-.46l.09-.85a7.81,7.81,0,0,0,.81,0h0c2.85.13,5,.09,7.3,0,1.47,0,3,0,4.82,0a9.36,9.36,0,0,1,9,5.69,17.24,17.24,0,0,1,1.48,7.33V124A9.1,9.1,0,0,0,262.19,126.71Z"/><path class="cls-3" d="M257.88,116.26l-.17.11a6.88,6.88,0,0,0-6.35-3.33c-1.8,0-3.3,0-4.76,0-2.33,0-4.52.07-7.45-.06a12.09,12.09,0,0,1-4.25-.84,18.9,18.9,0,0,0-5.36-1.54l0-.25c2.86.38,6,.78,8.74,1.08s4.88.47,6.26.46C250,111.9,254.72,111.29,257.88,116.26Z"/><path class="cls-3" d="M245,192.8l-.09.26c-3-1-5.17-1.95-6.94-2.68a38.65,38.65,0,0,0-5.31-1.94,66,66,0,0,0-9.34-2,102.9,102.9,0,0,0-11.21-.51,92.53,92.53,0,0,1-17.95-2.06,116.75,116.75,0,0,0-18.45-1.85c-1.77-.07-3.56-.09-5.35-.07v-.7c5.85-.09,10.42-.11,12.67,0,5.34.23,13.33,1.14,20.89,2,7.87.87,15.28,1.67,18.75,1.53C229.52,184.51,237.94,190.41,245,192.8Z"/><path class="cls-3" d="M238.4,110.62l-.09.85c-2.75-.3-5.88-.7-8.74-1.08-4.16-.54-7.76-1-8.76-1.12-2.34-.15-11.79-1.41-13.19-.84-.94.38-4.46-2.37-8.47-5.13l.32-.46a29,29,0,0,0,7.08,3.72c.61.22,8.77,1.06,9.14,1.12a41,41,0,0,0,7.82.4c4-.06,7.76-.12,12.35,2A8.37,8.37,0,0,0,238.4,110.62Z"/><path class="cls-3" d="M229.57,110.39l0,.25a39.53,39.53,0,0,0-6-.21,43.48,43.48,0,0,1-8.25-.43l-1.71-.28a5.47,5.47,0,0,0-3.17.07c.62.58,1.3.53,1.94,1,2.92,2.12,6.06,5.68,9,7.29q1.78,1,3.57,2a1.2,1.2,0,0,1,.48,1.6,1.22,1.22,0,0,1-1,.62,1.12,1.12,0,0,1-.56-.15c-1.2-.64-2.39-1.3-3.58-2-2.91-1.6-6.07-5.18-8.93-7.26a28,28,0,0,1-2.73-2.11c-.4-.38-11.42-6.62-15.2-9.53l-.92-.7A28.61,28.61,0,0,0,186.25,97l.22-.52c2.36,1,4.62,2.07,6.67,3.1a55.13,55.13,0,0,1,6,3.7c4,2.76,7.53,5.51,8.47,5.13,1.4-.57,10.85.69,13.19.84C221.81,109.34,225.41,109.85,229.57,110.39Z"/><path class="cls-3" d="M203.87,183.09v.15c-7.56-.83-15.55-1.74-20.89-2-2.25-.1-6.82-.08-12.67,0-7.64.12-17.45.36-27.08.62a10.4,10.4,0,0,1-.09-1.34h0l3.75-.09c2-.05,4-.09,6-.15,2.34-.07,4.73-.19,7-.31,5.16-.25,10.51-.52,15.76-.31a121,121,0,0,1,18.82,1.89C197.93,182.27,201,182.76,203.87,183.09Z"/><path class="cls-3" d="M199.47,102.84l-.32.46a55.13,55.13,0,0,0-6-3.7c-2-1-4.31-2.1-6.67-3.1-6.89-2.93-14.59-5.35-20.2-5.15l0-.63a45.66,45.66,0,0,1,14.3,1.82c4.27,1.26,9.19,3,13.3,6.13l.93.71C196.36,100.58,197.89,101.77,199.47,102.84Z"/><path class="cls-5" d="M191.16,209c2.43.07,4.77.14,7,.15-6.45.23-13.93.31-20.41-.13C181.6,208.7,186.46,208.84,191.16,209Z"/><path class="cls-3" d="M186.47,96.5l-.22.52a57.76,57.76,0,0,0-6.37-2.22,46.21,46.21,0,0,0-20.4-1.12c-.94.14-1.87.31-2.81.5,2.24-.75,4.17-1.45,5.51-2a11.76,11.76,0,0,1,4.09-.8C171.88,91.15,179.58,93.57,186.47,96.5Z"/><path class="cls-3" d="M177.71,209l-.21,0a47.54,47.54,0,0,1-11.21-.54,72.81,72.81,0,0,1-19.48-6.09l-1.52-.82a43.7,43.7,0,0,0-7.62-3.12c-.82-.28-1.65-.56-2.47-.86a33.21,33.21,0,0,1-4.06-1.86,34.83,34.83,0,0,0-3.51-1.64c-.91-.35-1.87-.65-2.79-1s-1.76-.57-2.64-.89c-.25-.09-.49-.18-.75-.26a13.34,13.34,0,0,1-1.43-.54c-.27-.12-.74-.27-1.19-.41l-.4-.13h0c0-.21-.07-.42-.11-.64,6,2.44,22.54,9.06,36.78,13.69,4.95,1.62,9.62,3,13.47,3.86A63.07,63.07,0,0,0,177.71,209Z"/><path class="cls-3" d="M170.3,181.28v.7c-3.42,0-6.85.22-10.2.38-2.32.11-4.71.23-7.07.31-2,.06-4,.11-6.08.15l-2.31.06a4.25,4.25,0,0,0,0,.83h0c.06.41.16.86.26,1.32a7.38,7.38,0,0,1,.1,4.08.25.25,0,0,1,0,.07.64.64,0,0,0,0,.07l0,0a1.28,1.28,0,0,1-.16.27h0l0,0a1,1,0,0,1-.19.17l-.08,0-.21.1-.08,0a1.54,1.54,0,0,1-.3,0,.75.75,0,0,1-.21,0h-.07l-.15-.05h0l0,0-.12-.06-.08-.06-.05,0A9.87,9.87,0,0,0,138,188l-.34,0a18.47,18.47,0,0,1-6-2.29c-1.28-.69-2.25-1.32-2.71-1.62l-.07-.06a4.2,4.2,0,0,1-.75-.51,27.71,27.71,0,0,0-2.92,0c-.67.08-1.36.13-2.1.16-1.43.07-2.86.05-4.26,0h-1.71s0,0,0,0l-.17-1,13-.34c1.09.47,2.26,1,3.52,1.6,0,.23-.09.45-.14.46a14.59,14.59,0,0,0,4.6,1.74,1.46,1.46,0,0,1,.22,0c1.79.84,3.72,1.76,5.82,2.72,1.12.51-.32-3.55-.72-6.92C152.85,181.64,162.66,181.4,170.3,181.28Z"/><path class="cls-3" d="M166.25,90.72l0,.63a11.76,11.76,0,0,0-4.09.8c-1.34.58-3.27,1.28-5.51,2-4.15.84-8.23,2.11-12.2,3.33-1.15.36-2.32.72-3.5,1.07a28.71,28.71,0,0,1-7.2.93c-4.69-.46-10.15.5-17.35,0s-29.36.09-29.36.09l1.13-.14a.34.34,0,0,1,0,.1l7.28-1c0,.14,0,.26.05.37.38-.07,2.88-.06,2.88-.09s-.06-.38-.1-.61a3.76,3.76,0,0,0,.4-.13c2.39-.17,2.4-.12,4.93-.24l2-.11a125.4,125.4,0,0,1,13.46.24c3.5.19,7.12.38,10.66.33a29.76,29.76,0,0,0,7.43-1.1c2.19-.61,4.41-1.29,6.56-2a105.18,105.18,0,0,1,15.35-3.91A55.78,55.78,0,0,1,166.25,90.72Z"/><path class="cls-3" d="M164.12,121a1.17,1.17,0,0,1-.06,1.66,1.14,1.14,0,0,1-.79.32,1.19,1.19,0,0,1-.86-.37c-1.32-1.42-1.68-1.53-2.53-1.81l-.19,0-.75-.24a34.71,34.71,0,0,0-1.68,7,30.73,30.73,0,0,0-.06,7.36l-.63.07a49.75,49.75,0,0,1-.69-6.44c.18-1.59.38-3.19.57-4.6h0a25.74,25.74,0,0,1,1.59-4.37,180.06,180.06,0,0,0-18.67-6.1v0l.71.19c.91.22,1.82.46,2.72.69,2.31.59,4.69,1.2,7,1.66s5.5,1.1,8.6,2c.66.18,1.32.38,2,.59l.18.06C161.76,118.89,162.46,119.17,164.12,121Z"/><path class="cls-3" d="M157.64,155.39c3.22,3.41,3.49,5,1.6,9.24l-.74,1.69c-1,2.3-2.05,4.67-3.11,7a3.17,3.17,0,0,1-1.39,1.49l-1.39.31-.15-.59a1.73,1.73,0,0,0,.28-.1c2.67-1.22,6.27-13.36,6.26-15.24,0-1-1-1.95-2-3.08a5.2,5.2,0,0,1-1.63-3.73h.29a1.21,1.21,0,0,0,.14.76,1.2,1.2,0,0,1,.08.27,1.07,1.07,0,0,1,.2.22,10.81,10.81,0,0,0,1.09,1.29l.18.18Z"/><path class="cls-3" d="M159,159.19c0,1.88-3.59,14-6.26,15.24a1.73,1.73,0,0,1-.28.1c-3.28.84-25.41,1.25-38.66,1.31a1.16,1.16,0,0,0,.66-1.26l0-.33,1.1.17c5.7,1,11.61.52,17.31,0,3.17-.27,6.44-.55,9.68-.58a8.22,8.22,0,0,0-.07-1.33,7.79,7.79,0,0,0-.53-1.95,36.48,36.48,0,0,1-2.24-6.87,31.66,31.66,0,0,1-.6-4.46c0-.31,0-.68,0-1a25.85,25.85,0,0,0-.67-6.34c-.13-.66-.23-1.36-.3-2.07a43.59,43.59,0,0,1,.56-9.92c.24-1.84.5-3.75.6-5.6l.06-1.3a42.29,42.29,0,0,0-.28-10.74l0-.18a11.54,11.54,0,0,0-.78-2.07,8.88,8.88,0,0,1-1-3.91c0-.69-.2-.92-.61-1.1l-1.58-.43h0l-.14,0h0l-.73-.19a68.08,68.08,0,0,0-8.66-1.74c-5-.54-10.15-.6-15.13-.66-2.91,0-5.92-.06-8.89-.19a5.25,5.25,0,0,1,0-.56,1.29,1.29,0,0,0-.08-.39c6.33.09,13.83,0,19.41-.32,5-.25,12.08,1.14,18.7,2.9a180.06,180.06,0,0,1,18.67,6.1,25.74,25.74,0,0,0-1.59,4.37c.34-2.56.63-4.47.63-4.47L139,114.92s.2.81.5,2c.55,2.28,1.44,5.93,1.87,8,.65,3.13-.36,10.29-1.12,16.58s-.5,8.44,0,9.7,1,9.3,1,11.34c0,1.39,1.22,3.11,2.11,5.45a13.37,13.37,0,0,1,.88,3.71,3.9,3.9,0,0,0,.63,2v.19H145c1.32,1.44,4,.38,5.86.27,2.47-.15,4.5-3,6.82-9.85,1.57-4.66.53-6.62-.73-8.14l.06,0C158,157.24,159,158.23,159,159.19Z"/><path class="cls-3" d="M158.29,143.39a11.22,11.22,0,0,1-1.63,6.83,6,6,0,0,0-1,2.17h-.29c.28-2.78,1.44-2.56,1.56-11.5a40.39,40.39,0,0,0-.38-6l.63-.07c.11,1,.27,1.92.47,2.87A34.5,34.5,0,0,1,158.29,143.39Z"/><path class="cls-3" d="M157,156.16c1.26,1.52,2.3,3.48.73,8.14-2.32,6.9-4.35,9.7-6.82,9.85-1.88.11-4.54,1.17-5.86-.27.72,0,1.45,0,2.17,0a16.79,16.79,0,0,0,4.57-.69c1-.32,1.33-.45,1.51-.85,1.06-2.3,2.09-4.67,3.1-7l.74-1.68c1.51-3.44,1.43-3.94-1.17-6.69l-.2-.21a3.13,3.13,0,0,1-.25-.26,13.48,13.48,0,0,1-1.31-1.56,1.25,1.25,0,0,1-.18-.45,1,1,0,0,1-.3-.38c-.79-1.69-.24-3.17,1-5.15A9,9,0,0,0,156,143.5a33.69,33.69,0,0,0-.57-5.31,32.74,32.74,0,0,1-.45-11,37.14,37.14,0,0,1,1.75-7.37c-2.64-.7-5.24-1.23-7.29-1.62-2.4-.47-4.82-1.09-7.16-1.7l-2.7-.68h-.05c0,.11,0,.23,0,.35a3.81,3.81,0,0,0,.07.75h0c-.3-1.19-.5-2-.5-2l18.05,4.47s-.29,1.91-.63,4.47h0a17.73,17.73,0,0,0-.57,4.6,47.91,47.91,0,0,0-.42,7.45c.32,3.91,2.17,6.46.31,11.5s-1.43,5-.53,6.59A16.88,16.88,0,0,0,157,156.16Z"/><path class="cls-4" d="M155.93,157c2.6,2.75,2.68,3.25,1.17,6.69l-.74,1.68c-1,2.29-2,4.66-3.1,7-.18.4-.51.53-1.51.85a16.79,16.79,0,0,1-4.57.69c-.72,0-1.45,0-2.17,0a1.54,1.54,0,0,1-.17-.19,10.15,10.15,0,0,0-.09-1.48,9.85,9.85,0,0,0-.7-2.54c-.24-.58-.48-1.15-.68-1.71a31.62,31.62,0,0,1-1.41-4.72,28.67,28.67,0,0,1-.56-4.13c0-.25,0-.53,0-.76a27.89,27.89,0,0,0-.71-6.9,17.7,17.7,0,0,1-.27-1.84,41.59,41.59,0,0,1,.55-9.39c.25-1.89.51-3.84.61-5.79l.08-1.29a44.84,44.84,0,0,0-.33-11.33l0-.22a13.77,13.77,0,0,0-.93-2.53,9.83,9.83,0,0,1-.78-2.15,3.81,3.81,0,0,1-.07-.75c0-.12,0-.24,0-.35h.05l2.7.68c2.34.61,4.76,1.23,7.16,1.7,2.05.39,4.65.92,7.29,1.62a37.14,37.14,0,0,0-1.75,7.37,32.74,32.74,0,0,0,.45,11,33.69,33.69,0,0,1,.57,5.31,9,9,0,0,1-1.28,5.49c-1.22,2-1.77,3.46-1,5.15a1,1,0,0,0,.3.38,1.25,1.25,0,0,0,.18.45,13.48,13.48,0,0,0,1.31,1.56,3.13,3.13,0,0,0,.25.26Z"/><path class="cls-3" d="M157,156.11l-.06,0a16.88,16.88,0,0,1-1.72-2.15c-.9-1.59-1.33-1.55.53-6.59s0-7.59-.31-11.5a47.91,47.91,0,0,1,.42-7.45,49.75,49.75,0,0,0,.69,6.44,40.39,40.39,0,0,1,.38,6c-.12,8.94-1.28,8.72-1.56,11.5A5.2,5.2,0,0,0,157,156.11Z"/><path class="cls-3" d="M156.45,123.87c-.19,1.41-.39,3-.57,4.6A17.73,17.73,0,0,1,156.45,123.87Z"/><path class="cls-3" d="M155.29,203.35l-.2.61c-14.24-4.63-30.8-11.25-36.78-13.69-.08-.41-.16-.84-.24-1.28l-.13-.77.4.17c.27.12.74.26,1.18.41a13.72,13.72,0,0,1,1.47.51,12,12,0,0,0,1.2.45l.82.28c.83.31,1.7.59,2.55.86s1.93.62,2.9,1a34.77,34.77,0,0,1,3.75,1.75,31.67,31.67,0,0,0,3.78,1.74l2.43.84a46.88,46.88,0,0,1,8,3.3c.47.26.95.52,1.44.77A53,53,0,0,0,155.29,203.35Z"/><path class="cls-3" d="M152.61,175.12l1.39-.31a8.14,8.14,0,0,1-1.52.6,16.72,16.72,0,0,1-3.45.69C150.16,175.74,151.38,175.41,152.61,175.12Z"/><path class="cls-3" d="M152.46,174.53l.15.59c-1.23.29-2.45.62-3.58,1q-.84.09-1.77.12c-1,0-2,0-2.95,0h-1.77c-3.16,0-6.39.3-9.51.58-5.86.5-11.93,1-17.94-.06a19.23,19.23,0,0,0-2.9-.3,45.8,45.8,0,0,0-7,.43l-.75.09c-.06,0-.16,0-.28,0a5.78,5.78,0,0,0-.88.28c-.5,2.63.65,4.06,4.13,5.21l.43.15v.15c-.81,0-1.31,0-1.43,0-2-.36-5.48-4.86-4-6.45a1.17,1.17,0,0,0,1,.57.85.85,0,0,0,.23,0,1.16,1.16,0,0,0,.93-1.08c1.34.05,4.34.07,8.24.06a1.09,1.09,0,0,0,.48.11l.2,0a1,1,0,0,0,.29-.1C127.05,175.78,149.18,175.37,152.46,174.53Z"/><path class="cls-4" d="M147.26,176.22q.93,0,1.77-.12c-3.23,1-5.74,2.28-5.88,3.65a7.12,7.12,0,0,0,0,.81l-.83,0c-.92,0-1.83,0-2.8-.06a19,19,0,0,0-6.57.49,6.19,6.19,0,0,1-2.82.17l-.4,0c-.34,0-.75,0-1.22-.06h-.34l-1.21,0c-4-1.47-6.89-1.63-9.34.24-1.23,0-2.49,0-3.74.08a18.47,18.47,0,0,0-3.48.7l0,0a18.44,18.44,0,0,1-2.46.55l-.43-.15c-3.48-1.15-4.63-2.58-4.13-5.21a5.78,5.78,0,0,1,.88-.28c.12,0,.22,0,.28,0l.75-.09a45.8,45.8,0,0,1,7-.43,19.23,19.23,0,0,1,2.9.3c6,1.09,12.08.56,17.94.06,3.12-.28,6.35-.55,9.51-.58h1.77C145.28,176.24,146.26,176.25,147.26,176.22Z"/><path class="cls-3" d="M144.75,172.21a10.15,10.15,0,0,1,.09,1.48,3.9,3.9,0,0,1-.63-2,13.37,13.37,0,0,0-.88-3.71l0,0c.2.56.44,1.13.68,1.71A9.85,9.85,0,0,1,144.75,172.21Z"/><path class="cls-3" d="M143.22,181.9c.4,3.37,1.84,7.43.72,6.92-2.1-1-4-1.88-5.82-2.72l.21,0a12.93,12.93,0,0,1,4.55,1.55c-.06-.37-.14-1.74-.22-2.13s-.21-1-.28-1.49h0v0a6.08,6.08,0,0,1-.07-1.09c-1,0-2,0-2.91-.06a17.05,17.05,0,0,0-5.77.38c-.07,0-.13.33-.19.62-1.26-.59-2.43-1.13-3.52-1.6Z"/><path class="cls-3" d="M143.37,168l0,0c-.89-2.34-2.1-4.06-2.11-5.45,0-2-.49-10.09-1-11.34s-.74-3.41,0-9.7,1.77-13.45,1.12-16.58c-.43-2.06-1.32-5.71-1.87-8h0a9.83,9.83,0,0,0,.78,2.15,13.77,13.77,0,0,1,.93,2.53l0,.22a44.84,44.84,0,0,1,.33,11.33l-.08,1.29c-.1,1.95-.36,3.9-.61,5.79a41.59,41.59,0,0,0-.55,9.39,17.7,17.7,0,0,0,.27,1.84,27.89,27.89,0,0,1,.71,6.9c0,.23,0,.51,0,.76a28.67,28.67,0,0,0,.56,4.13A31.62,31.62,0,0,0,143.37,168Z"/><path class="cls-3" d="M143.13,180.56a10.4,10.4,0,0,0,.09,1.34l-13.3.37c-1.07-.47-2.06-.87-3-1.21l1.21,0h.34c.47,0,.88,0,1.22.06l.4,0a6.19,6.19,0,0,0,2.82-.17,19,19,0,0,1,6.57-.49c1,0,1.88.09,2.8.06Z"/><path class="cls-3" d="M141,98.58c-1,.31-2.09.62-3.13.91a32,32,0,0,1-8,1.18c-3.63,0-7.28-.14-10.82-.33a123.8,123.8,0,0,0-13.22-.25l-2.05.11c-3,.15-6,.32-9,.55-1.29.1-2.58.22-3.86.36a11.45,11.45,0,0,1-2.82-.12l-.64-.09h0a10.93,10.93,0,0,0,.34,1.54,17.72,17.72,0,0,1,.56,2.74,10.25,10.25,0,0,0,.92,3.28,16.27,16.27,0,0,0,4.45.87c.62.05,1.23.07,1.83.07l2.49,0c1.44,0,.84,0,2.25-.09,2.07-.1,7,.25,10.06.28,5,.06,10.24.12,15.36.68a67.82,67.82,0,0,1,8.95,1.79l.73.17h0l.16,0h0l1,.24a5.5,5.5,0,0,1,.8.24l.59.17,1.51.41v0c-6.62-1.76-13.65-3.15-18.7-2.9-5.58.27-13.08.41-19.41.32a1.13,1.13,0,0,0-1.12-.75,1.16,1.16,0,0,0-1,.7c-3-.07-5.57-.2-7.44-.42l0-.09a1.17,1.17,0,0,0-1.45-.8,1.14,1.14,0,0,0-.68.53c-.54-.14-.84-.31-.87-.49-.24-1.59-3.67-9.79-1.57-9.84,0,0,22.17-.54,29.36-.09s12.66-.51,17.35,0A28.71,28.71,0,0,0,141,98.58Z"/><path class="cls-3" d="M138.91,290.84a167.47,167.47,0,0,1-5.3-24l-.66-5.41a154.78,154.78,0,0,0-2.88-16.59l-.39-1.62c-1-4-2-8.09-2.73-12.18-.26-1.39-.49-2.81-.7-4.19A60.87,60.87,0,0,0,124,216.49q-.25-.77-.48-1.53a83.78,83.78,0,0,1-1.87-8.32l-.23-1.18c-.42-2.26-.93-4.53-1.41-6.72-.25-1.11-.5-2.22-.73-3.33-.14-.66-.45-2.29-.85-4.5h0a7.68,7.68,0,0,1-1-.38c-.15-.07-.34-.13-.54-.2-.44-.15,0-.33-.09-.7l-.74-.31s-.11-.53-.25-1.28c-.3-.38-.58-.7-.18-.86h0c-.25-1.44-.47-3.13-.24-3.46l0,0q-.7,0-1.38.06a15.7,15.7,0,0,0-3,.62h0a16.5,16.5,0,0,1-3.09.65,1.21,1.21,0,0,1-.43,0l-.73-.24a14,14,0,0,1-2.61-1.12,1.18,1.18,0,0,0-.16,1c.5,1.72.93,3.49,1.31,5.41.21,1.05.52,2.07.81,3.06l.11.38a24.2,24.2,0,0,1,.74,3,219.67,219.67,0,0,0,5.18,22.23,139.78,139.78,0,0,1,3.28,16.7c.48,3.2,1.08,6.43,1.67,9.55.29,1.54.57,3.08.85,4.61l.69,3.86.14.79c1.1,6.16,2.24,12.54,3.32,18.81,1,5.93,2.74,12.13,4.1,17.1l.18.63v0l1.84.37.72.14h0l7.86.89-.13-.8,0,.15a1.17,1.17,0,0,0,1.12.85,1.26,1.26,0,0,0,.33-.05A1.17,1.17,0,0,0,138.91,290.84Z"/><path class="cls-5" d="M138.12,186.1a1.46,1.46,0,0,0-.22,0,14.59,14.59,0,0,1-4.6-1.74s.1-.23.14-.46Z"/><path class="cls-3" d="M126.94,181.06c.92.34,1.91.74,3,1.21l-13,.34v0a1.08,1.08,0,0,0-.22-.5,8.59,8.59,0,0,1,.87-.77h1.27c1.36,0,2.76,0,4.12,0,.7,0,1.33-.08,1.94-.15S126.22,181.06,126.94,181.06Z"/><path class="cls-4" d="M126.94,181.06c-.72,0-1.46,0-2,.07s-1.24.12-1.94.15c-1.36.07-2.76.05-4.12,0H117.6C120.05,179.43,122.89,179.59,126.94,181.06Z"/><path class="cls-3" d="M118.31,190.27c0,.22.08.43.11.64a7.68,7.68,0,0,1-1-.38c-.15-.07-.34-.13-.54-.2-.44-.15,0-.33-.09-.7Z"/><path class="cls-3" d="M118.07,189c.08.44.16.87.24,1.28l-1.56-.64a.51.51,0,0,0-.16-.28,2.45,2.45,0,0,1-.45-.72,2.56,2.56,0,0,0-.38-.59c-.05-.27-.11-.56-.15-.86h0a.86.86,0,0,1,1.23.59,2.29,2.29,0,0,0,.75.34l.35.12Z"/><path class="cls-3" d="M117.9,188l0,.2-.35-.12a2.29,2.29,0,0,1-.75-.34.86.86,0,0,0-1.23-.59c-.25-1.44-.47-3.13-.24-3.46l0,0c.57,0,1.15,0,1.73,0,.18,1.08.46,2.67.76,4.34A0,0,0,0,1,117.9,188Z"/><path class="cls-3" d="M113.86,181.38c1.25-.08,2.51-.09,3.74-.08a8.59,8.59,0,0,0-.87.77,1.15,1.15,0,0,0-1.12-.48,1.19,1.19,0,0,0-1,1.08c-3,.07-5.34.12-6.74.13v-.15a18.44,18.44,0,0,0,2.46-.55l0,0A18.47,18.47,0,0,1,113.86,181.38Z"/><path class="cls-3" d="M117.12,183.61s0,0,0,0c-.58,0-1.16,0-1.73,0a11.07,11.07,0,0,1,.82-1l.73,0Z"/><path class="cls-3" d="M117,182.57v0l-.73,0a6.93,6.93,0,0,1,.51-.56A1.08,1.08,0,0,1,117,182.57Z"/><path class="cls-3" d="M116.59,189.35a.51.51,0,0,1,.16.28l-.74-.31s-.11-.53-.25-1.28a2.56,2.56,0,0,1,.38.59A2.45,2.45,0,0,0,116.59,189.35Z"/><path class="cls-3" d="M116.73,182.07a6.93,6.93,0,0,0-.51.56l-1.6,0a1.19,1.19,0,0,1,1-1.08A1.15,1.15,0,0,1,116.73,182.07Z"/><path class="cls-3" d="M116.22,182.63a11.07,11.07,0,0,0-.82,1q-.7,0-1.38.06a15.7,15.7,0,0,0-3,.62h0a16.5,16.5,0,0,1-3.09.65,1.21,1.21,0,0,1-.43,0l-.73-.24a14,14,0,0,1-2.61-1.12,1.16,1.16,0,0,1,2.07.27l8.45-1.14v-.07Z"/><path class="cls-3" d="M115.61,187.18c0,.3.1.59.15.86-.3-.38-.58-.7-.18-.86Z"/><path class="cls-3" d="M114.62,182.67v.07l-8.45,1.14a1.16,1.16,0,0,0-2.07-.27,5.9,5.9,0,0,1-3-7,1.78,1.78,0,0,1,1.1-1.41c0,.23.07.47.12.71a1.2,1.2,0,0,0,.15.37c-1.46,1.59,2,6.09,4,6.45.12,0,.62,0,1.43,0C109.28,182.79,111.62,182.74,114.62,182.67Z"/><path class="cls-3" d="M114.46,174.58a1.16,1.16,0,0,1-.66,1.26h-1a1.19,1.19,0,0,1-.65-.77l.09.58-7.67.09a.06.06,0,0,1,0,0h-.23a2.4,2.4,0,0,0-1.93.54,1.2,1.2,0,0,1-.15-.37c0-.24-.09-.48-.12-.71a6.37,6.37,0,0,1,1.52-.53l.53-.1.76-.08a48.9,48.9,0,0,1,7.31-.46c.73,0,1.44.08,2.13.17Z"/><path class="cls-3" d="M113.8,175.84a1,1,0,0,1-.29.1l-.2,0a1.09,1.09,0,0,1-.48-.11Z"/><path class="cls-3" d="M113.3,168.54c.38,1.87.77,3.8,1.11,5.71-.69-.09-1.4-.14-2.13-.17a48.9,48.9,0,0,0-7.31.46l-.76.08-.53.1a6.37,6.37,0,0,0-1.52.53c0-.27-.06-.54-.08-.8a12.15,12.15,0,0,0-.17-1.25c-1.34-6.79-2.84-14-4.66-21.1-.53-2.06-.88-4.17-1.22-6.2-.14-.85-.28-1.69-.44-2.54Q94.42,137,93.28,130.6c-.25-1.35-.48-2.71-.7-4.06h0l-.15-.87a128.38,128.38,0,0,0-3-14.66,22.24,22.24,0,0,0,4.08.67c.67,0,1.34.07,2,.07s2.5,0,2.7,0a6.88,6.88,0,0,0,1.8-.09,2.56,2.56,0,0,1,.94.08l.43,0a14.5,14.5,0,0,0,.72,3.1c.12.36.25.71.38,1.07s.3.87.44,1.31a84,84,0,0,1,2.39,9.85c.21,1,.41,2,.62,3s.52,2.31.78,3.44c.58,2.53,1.18,5.14,1.57,7.79.85,6,2,12.07,3.2,17.93q.54,2.75,1.07,5.5C112.78,166,113,167.29,113.3,168.54Z"/><path class="cls-3" d="M112.83,175.85c-3.9,0-6.9,0-8.24-.06a.06.06,0,0,0,0,0l7.67-.09-.09-.58A1.19,1.19,0,0,0,112.83,175.85Z"/><path class="cls-3" d="M104.36,175.79h.23a1.16,1.16,0,0,1-.93,1.08.85.85,0,0,1-.23,0,1.17,1.17,0,0,1-1-.57A2.4,2.4,0,0,1,104.36,175.79Z"/><path class="cls-3" d="M101.37,111.76l-.43,0a2.56,2.56,0,0,0-.94-.08,6.88,6.88,0,0,1-1.8.09c-.2,0-2,0-2.7,0s-1.34,0-2-.07a22.24,22.24,0,0,1-4.08-.67l0-.09a1.21,1.21,0,0,1,.12-.93,15.19,15.19,0,0,0,2.16.36c0,.09,0,.18.07.27l7.27.58a1.08,1.08,0,0,1,.1-.43l2.16,0a1.29,1.29,0,0,1,.08.39A5.25,5.25,0,0,0,101.37,111.76Z"/><path class="cls-3" d="M100.14,110.06a1.13,1.13,0,0,1,1.12.75l-2.16,0A1.16,1.16,0,0,1,100.14,110.06Z"/><path class="cls-3" d="M99.1,110.76a1.08,1.08,0,0,0-.1.43l-7.27-.58c0-.09,0-.18-.07-.27C93.53,110.56,96.13,110.69,99.1,110.76Z"/><path class="cls-3" d="M98.29,98.23c0,.23.08.44.1.61s-2.5,0-2.88.09c0-.11,0-.23-.05-.37l-7.28,1a.34.34,0,0,0,0-.1l-1.13.14c0-.12-.07-.46-.13-.94a3.54,3.54,0,0,0,.46,0,4.81,4.81,0,0,0,.65-.08,2.19,2.19,0,0,0,.36,0h.23a2.09,2.09,0,0,0,1,.09,5.91,5.91,0,0,0,1,0h-1l4.4-.29a3.5,3.5,0,0,0,.56,0c.28,0,.56-.07.84-.11l.21,0a0,0,0,0,0,0,0l.26,0h.83a8.53,8.53,0,0,0,1.13,0A2.57,2.57,0,0,0,98.29,98.23Z"/><path class="cls-3" d="M98.29,98.23a2.57,2.57,0,0,1-.4.06,8.53,8.53,0,0,1-1.13,0h-.83l-.26,0a0,0,0,0,1,0,0l-.21,0c-.28,0-.56.09-.84.11a3.5,3.5,0,0,1-.56,0l-4.4.29h1a5.91,5.91,0,0,1-1,0,2.09,2.09,0,0,1-1-.09H88.4a2.19,2.19,0,0,1-.36,0,4.81,4.81,0,0,1-.65.08,3.54,3.54,0,0,1-.46,0c-.28-2-.82-6.59-.87-7.14s-.35-1.43-2-2.45c-3.8-2.34-7.43-5.19-8.17-10.23,0-.22-.07-.45-.11-.68-.32-2-.69-4.33.59-6.25a12.35,12.35,0,0,1,13.2-5,10.2,10.2,0,0,1,7.5,6.57c1.18,3.31,2.87,6.83.73,9.61-.18.23-.35.49-.53.77A10,10,0,0,1,96,85.52a1.23,1.23,0,0,0-.33,1.31C96.34,88.84,97.82,95.49,98.29,98.23ZM93.85,84.72a3.45,3.45,0,0,1,.2-.32A2.14,2.14,0,0,0,93.85,84.72Zm-4.8-5a3.52,3.52,0,0,0,1.79-3,3.16,3.16,0,0,0-.08-.68,2.26,2.26,0,0,0-.25-.29,4.82,4.82,0,0,0-3.12-1.38l-.5,0h-.12a.67.67,0,0,0-.35.12c-.57.35-1.11.76-1.58,1.11a2.91,2.91,0,0,0-.78,1.1,2.61,2.61,0,0,0,0,2.5c.47.55.82.62,1.94.62h1.36A11.53,11.53,0,0,0,89.05,79.67Z"/><path class="cls-3" d="M91.63,110.25l0,.09A15.19,15.19,0,0,1,89.5,110a1.14,1.14,0,0,1,.68-.53A1.17,1.17,0,0,1,91.63,110.25Z"/><path class="cls-3" d="M89.38,110.91l0,.09a10,10,0,0,1-1.25-.44c-1.6-.71-2.11-4.39-2.2-5.11a15.15,15.15,0,0,0-.49-2.4A10.08,10.08,0,0,1,85,99.62a1.17,1.17,0,0,1,.6-1,1.69,1.69,0,0,1,.37-.15,3.54,3.54,0,0,0,1,.23c.06.48.11.82.13.94-2.1,0,1.33,8.25,1.57,9.84,0,.18.33.35.87.49A1.21,1.21,0,0,0,89.38,110.91Z"/><path class="cls-3" d="M274.52,192.13a10,10,0,0,1,.56-1.42v-.17a.14.14,0,0,0,0-.06c2.24-5.87,3.3-10.86,3.27-15.27a52,52,0,0,0-.55-7.94,30.62,30.62,0,0,1,.32-8.7c.64-4.11-1.36-7.93-3-11l-.18-.36c-.21-.39-.4-.77-.59-1.14s-.29-.6-.43-.9c-.64-1.39-1.26-2.54-1.9-3.69l0,0a27.56,27.56,0,0,1-2.42-5.28,32.4,32.4,0,0,0-1.21-3.1c-.12-.27-.24-.53-.35-.79a16.15,16.15,0,0,0-4-6,.79.79,0,0,1-.06-.14,8.66,8.66,0,0,1-.2-2.17v-.26a19.11,19.11,0,0,0-1.68-8.12,11.24,11.24,0,0,0-10.71-6.75c-1.86,0-3.45,0-4.86,0h-.07c-2.24,0-4.35.07-7.11,0h-.12a6,6,0,0,1-.65,0,6.74,6.74,0,0,1-1.94-.42c-5-2.25-9.12-2.19-13.16-2.13a39.7,39.7,0,0,1-7.49-.37c-.13,0-.42-.06-1.72-.2-1.76-.19-6.38-.7-7.17-.86a27.34,27.34,0,0,1-6.56-3.48c-1.39-.94-2.74-2-4.17-3.07l-1.36-1c-4.36-3.33-9.48-5.13-13.93-6.44a47.52,47.52,0,0,0-14.87-1.9,59.48,59.48,0,0,0-7.36.66,105.12,105.12,0,0,0-15.63,4l-.15,0c-2.09.64-4.25,1.3-6.36,1.89a27.39,27.39,0,0,1-7,1c-3.43,0-7-.13-10.39-.32h-.2a127.83,127.83,0,0,0-13.6-.24l-2,.11-2.08.09c-.81,0-1.4,0-2.88.16l-.28,0-.27.1-.15,0-.11,0h-.06a6.17,6.17,0,0,1-.87,0h-1l-.16,0-.21,0-.39.06a4.72,4.72,0,0,1-.54.07,1.21,1.21,0,0,1-.26,0l-.16,0-4.8.33-.16-.11h-.88l-.29,0-.28,0a1.8,1.8,0,0,1-.37,0,1.33,1.33,0,0,1-.2,0,2.33,2.33,0,0,1-.49-.12l-.57-.22-.59.16a3.71,3.71,0,0,0-.79.31l0,0a3.1,3.1,0,0,0-1.55,2.58,12.2,12.2,0,0,0,.54,4,13.42,13.42,0,0,1,.44,2.12c.23,2,1,5.59,3.31,6.63a12.8,12.8,0,0,0,1.51.53,24.3,24.3,0,0,0,4.45.73c.71,0,1.43.08,2.15.08h1c1.42,0,1.7,0,1.89,0l.25,0a5.52,5.52,0,0,0,1.64-.1,3.64,3.64,0,0,0,.61.08h.4c2.85.13,5.71.16,8.49.2h.47c4.92.05,10,.11,14.94.65a66.25,66.25,0,0,1,8.41,1.69l.4.1.18.18h.52l.57.16a11.21,11.21,0,0,0,1.21,4.17,9.81,9.81,0,0,1,.65,1.69l0,.13a41.48,41.48,0,0,1,.25,10.29l-.07,1.3c-.1,1.82-.35,3.75-.58,5.45a44.77,44.77,0,0,0-.57,10.35,22.44,22.44,0,0,0,.33,2.25,25.28,25.28,0,0,1,.64,5.89,10.23,10.23,0,0,0,0,1.22,31.78,31.78,0,0,0,.64,4.75,38.36,38.36,0,0,0,2.34,7.21,4.72,4.72,0,0,1,.24.69c-2.61.1-5.2.32-7.72.54h0c-5.57.49-11.34,1-16.8,0-.32-.05-.75-.13-1.18-.18-.76-.1-1.54-.16-2.3-.19a50.87,50.87,0,0,0-7.6.47l-.74.09a5.5,5.5,0,0,0-.76.13,8,8,0,0,0-2,.7,3.61,3.61,0,0,0-2.09,2.8,7.72,7.72,0,0,0,4,8.88,15.34,15.34,0,0,0,3,1.28l.74.24a3,3,0,0,0,1.18.13,18.84,18.84,0,0,0,3.36-.69l.12,0a14.65,14.65,0,0,1,2.63-.56h.26l-.69.27v.59a1.38,1.38,0,0,0-.15.4,2.53,2.53,0,0,0,.68,2.31l0,0s.1.12.13.17a4.12,4.12,0,0,0,.35.66,2,2,0,0,0,.16.91,2.14,2.14,0,0,0,1.31,1.16l.13,0,.22.08c.4.18.83.32,1.26.47l.45.14c.68.21.91.3.94.31a15.13,15.13,0,0,0,1.64.62l.68.24c.93.34,1.86.64,2.73.92s1.82.58,2.68.91a34.14,34.14,0,0,1,3.32,1.56,36.81,36.81,0,0,0,4.28,2c.93.33,1.83.64,2.51.86l.15,0a43.18,43.18,0,0,1,7.16,2.94c.5.28,1,.56,1.57.84a64.55,64.55,0,0,0,13.65,5c2.14.55,4.29,1,6.4,1.33a49.06,49.06,0,0,0,11.63.56h.24a132.37,132.37,0,0,1,13.25,0c2.25.07,4.64.13,6.89.14h.26c1.47,0,2.85,0,4.12-.07s2.87,0,4.51,0H207a56.43,56.43,0,0,0,6.24,0,11.81,11.81,0,0,1,2.51,0h0a35.63,35.63,0,0,0,5.8,0c1.23-.07,2.86,0,4.43,0h.29c1.8.05,3.68.1,5.26,0a18.67,18.67,0,0,1,2.94,0h0c.6,0,1.3.09,2.07.09a18.49,18.49,0,0,0,2.42-.15,50.17,50.17,0,0,0,5.73-1l1.81-.43,1.11-.27a16.09,16.09,0,0,0,2.77-1.12L251,208l.24-.11a40.44,40.44,0,0,0,3.85-1.93l.06,0c.75-.42,1.54-.85,2.42-1.28.26-.13.56-.27.87-.39a13.22,13.22,0,0,1,3.16-.84,14,14,0,0,0,6.71-2.71,12.27,12.27,0,0,0,2.38-2.41,30.33,30.33,0,0,0,3.75-6.14Zm-8.64,2.31a7,7,0,0,1-5.28,2.89,18.79,18.79,0,0,0-4.53,1.22l-1.17.53c-1,.5-1.88,1-2.73,1.45-1.07.58-2.07,1.14-3.32,1.68l-.66.29-.36.17c-.33.15-1.32.6-1.61.7l-.67.16-2.14.51a48.12,48.12,0,0,1-5.1.94,12.46,12.46,0,0,1-1.56.1c-.57,0-1.11,0-1.76-.08s-1.45-.1-2.37-.1c-.43,0-.89,0-1.39,0-1.32.08-3,0-4.71,0h-.14c-1.83-.06-3.6-.1-5.08,0a28,28,0,0,1-5,0h0a17.6,17.6,0,0,0-3.49,0c-1.58.12-3.56.06-5.48,0h-.25c-1.67,0-3.4-.1-5,0-3.17.14-7,0-10.81-.09a135.7,135.7,0,0,0-14.15.06,43.38,43.38,0,0,1-10.2-.51c-1.91-.3-3.87-.71-5.82-1.21s-3.62-1-5.23-1.52a50.32,50.32,0,0,1-7.15-3c-.49-.25-1-.5-1.39-.74a48.2,48.2,0,0,0-8.32-3.44c-.8-.27-1.6-.54-2.41-.83a30.44,30.44,0,0,1-3.54-1.64l-.05,0a35.68,35.68,0,0,0-3.89-1.81c-1-.39-2-.71-3-1L126,189c-.77-.25-1.56-.5-2.32-.78l-.86-.3-.12,0c-.33-.11-.66-.22-.9-.33a13.59,13.59,0,0,0-1.68-.6l-.18-.06c-.27-.08-.67-.21-.78-.26a4.64,4.64,0,0,0-.51-.21l-.32-.12-.12,0h0a2.71,2.71,0,0,0-.84-.75H119c1.35,0,2.74,0,4.16,0,.86,0,1.57-.1,2.22-.17.45-.06,1.35-.05,2-.05a3.34,3.34,0,0,0,.46.28c.49.34,1.5,1,2.82,1.7a19.29,19.29,0,0,0,6.7,2.51l.23,0h.08c1.76.25,3.2.5,4.24,1.36l.14.11.24.15.13.07.13.07.4.21h.18l.12,0a3,3,0,0,0,.61.06,3.25,3.25,0,0,0,.76-.1l.23-.07-.65-1.79.56,1.45v.08h0l.1.24a3.51,3.51,0,0,0,.48-.22l0,0h.3l.57-.74c.09-.13.18-.26.26-.4l.3-.38v-.35a9.19,9.19,0,0,0-.08-4.87H147c2,0,4.05-.09,6.09-.15,2.32-.08,4.66-.2,6.93-.31l.63,0c3.17-.15,6.45-.31,9.67-.35,1.91,0,3.63,0,5.26.06a116,116,0,0,1,18.15,1.82,94.26,94.26,0,0,0,18.31,2.09,101.68,101.68,0,0,1,11,.5,65.9,65.9,0,0,1,9.08,1.92,40,40,0,0,1,5.07,1.86l.08,0c1.77.73,4,1.65,7,2.7.13,0,.4.16.69.28h0a16.87,16.87,0,0,0,6,1.63h0a23.62,23.62,0,0,0,8.88-1.58l.21-.08a10.07,10.07,0,0,1,2.42-.68,24.44,24.44,0,0,1,3.51-.23Zm5.4-6.1v1.52l-.14.32-1.68.15c-.73.07-1.59.07-2.5.08a33.37,33.37,0,0,0-5,.28,14.17,14.17,0,0,0-3.29.93l-.06,0A19.92,19.92,0,0,1,251,193h0a14.55,14.55,0,0,1-4.58-1.35c-.37-.16-.67-.29-.92-.37-2.89-1-5-1.9-6.76-2.61l-.08,0a41.84,41.84,0,0,0-5.55-2,67.3,67.3,0,0,0-9.61-2,105.26,105.26,0,0,0-11.42-.52,90.9,90.9,0,0,1-17.59-2,120,120,0,0,0-18.74-1.89c-1.27-.05-2.59-.07-4-.07h-1.45c-3.3,0-6.61.2-9.81.35l-.64,0c-2.25.11-4.58.23-6.86.3l-6.06.16-4.09.1-.07,1.77a7.37,7.37,0,0,0,0,1v.68l.14.13c.05.26.1.53.16.81a12.12,12.12,0,0,1,.32,2.12,13.44,13.44,0,0,0-5.19-1.5l-.15,0-.14,0h-.08a16.11,16.11,0,0,1-5.3-2.06c-1.14-.62-2-1.17-2.47-1.48l0,0-.48-.39h-.12l-.13-.1-.51-.42h-.66a28.39,28.39,0,0,0-3.17.06c-.57.06-1.2.11-2,.15-1.3.06-2.64,0-3.94,0h-.19c-.58,0-1.17,0-1.75,0s-1.14,0-1.77,0l-1.47.06a16.2,16.2,0,0,0-3.33.67l-.12,0a17.24,17.24,0,0,1-2.6.57l-.53-.18a12,12,0,0,1-2.26-1c-2-1.13-2.62-2.6-2.13-4.91V177l.13-.08a4.52,4.52,0,0,1,1-.35l.33-.06.76-.09a46.94,46.94,0,0,1,7-.44,18.89,18.89,0,0,1,2,.16c.36,0,.72.1,1,.15,5.94,1.08,12,.56,17.79.05l-.17-1.89.21,1.89c3.12-.27,6.35-.55,9.52-.57h1.86l0-1.87a10,10,0,0,0-.09-1.61,9.33,9.33,0,0,0-.67-2.43,35.17,35.17,0,0,1-2.12-6.52,28.2,28.2,0,0,1-.56-4.19,5.9,5.9,0,0,1,0-.81,27.87,27.87,0,0,0-.71-6.8c-.11-.58-.21-1.21-.27-1.88a41.94,41.94,0,0,1,.55-9.49c.24-1.77.5-3.78.61-5.75l.07-1.29a44.75,44.75,0,0,0-.32-11.23l0-.22a12.29,12.29,0,0,0-.9-2.42,7.35,7.35,0,0,1-.89-3.1,2.81,2.81,0,0,0-1.75-2.88l-.25-.09-1.13-.31-.21-.2h-.54l-.66-.16a69.69,69.69,0,0,0-8.9-1.79c-5.13-.55-10.31-.61-15.32-.66h-.47c-2.74,0-5.58-.06-8.38-.19h-.38a3,3,0,0,0-1.56,0,1.71,1.71,0,0,1-.62,0,7,7,0,0,0-.81,0c-.2,0-1,0-1.54,0h-1c-.63,0-1.26,0-1.87-.06a20.46,20.46,0,0,1-3.69-.6,7.43,7.43,0,0,1-1-.34,7.66,7.66,0,0,1-1.12-3.62,16.89,16.89,0,0,0-.55-2.67,10,10,0,0,1-.39-1.93h.53a4.59,4.59,0,0,0,.67-.07h.14a3.6,3.6,0,0,0,1.39.12,6.68,6.68,0,0,0,1.2,0v-.05l3.21-.22a5.19,5.19,0,0,0,.68,0c.35,0,.67-.07,1-.11h0l.16,0,.67-.05h.2a10.36,10.36,0,0,0,1.35,0,5.68,5.68,0,0,0,.65-.1h0l.32-.09c1.25-.09,1.78-.11,2.51-.14l2.14-.09,2-.11a126.11,126.11,0,0,1,13.2.24h.2c3.48.19,7.09.38,10.65.33a32,32,0,0,0,7.9-1.17c2.17-.6,4.35-1.28,6.47-1.93l.15,0a102.49,102.49,0,0,1,15.08-3.85,55.44,55.44,0,0,1,6.88-.62A43.75,43.75,0,0,1,180,94.36c4.11,1.22,8.83,2.86,12.69,5.81l1.37,1c1.47,1.12,2.86,2.18,4.32,3.19a31,31,0,0,0,7.53,3.94c.44.16,1.38.31,7.94,1l1.51.17a42.79,42.79,0,0,0,8.19.43c3.93-.07,7.32-.11,11.51,1.78a10,10,0,0,0,3.16.75l.94.06h.05c2.86.13,5,.09,7.31.05h.06c1.45,0,2.95-.05,4.77,0a7.51,7.51,0,0,1,7.33,4.62,15.39,15.39,0,0,1,1.29,6.53V124a10.56,10.56,0,0,0,.4,3.33,4.06,4.06,0,0,0,1,1.66,12.25,12.25,0,0,1,3.15,4.74c.13.29.25.58.38.86.3.69.68,1.55,1.07,2.73a32.21,32.21,0,0,0,2.7,5.94l0,.05c.62,1.13,1.19,2.16,1.77,3.42.15.34.31.68.49,1l.61,1.18.21.39c1.48,2.84,3,5.78,2.57,8.66a34.36,34.36,0,0,0-.33,9.77,47.24,47.24,0,0,1,.51,7.48,37.73,37.73,0,0,1-2.72,13.1Z"/><path class="cls-3" d="M114.39,189.35h0Z"/><path class="cls-3" d="M108,183.14h0Z"/><path class="cls-3" d="M207.14,104.76h0Z"/><path class="cls-3" d="M89.39,96.9h0Z"/><path class="cls-3" d="M89.57,96.89h0Z"/><path class="cls-3" d="M145.86,175.79H143v-2.09a8.34,8.34,0,0,0-.08-1.21,8.09,8.09,0,0,0-.56-2.07c-.3-.69-.52-1.26-.72-1.78a34.31,34.31,0,0,1-1.49-5,29.81,29.81,0,0,1-.59-4.4,7.65,7.65,0,0,1,0-1,25.92,25.92,0,0,0-.69-6.45c-.12-.68-.22-1.36-.28-2a42.23,42.23,0,0,1,.54-9.76V140c.25-1.87.5-3.78.6-5.64l.08-1.37a43.21,43.21,0,0,0-.3-10.79l0-.18a12.16,12.16,0,0,0-.77-2.1l0-.07a12.51,12.51,0,0,1-.91-2.54,7.09,7.09,0,0,1-.1-1.16V116l-.09-2.12,2.3,0,.74.19,2.17.55c2.3.59,4.68,1.2,7,1.67,2,.39,4.7.93,7.41,1.65l2,.52-.67,1.93a36.48,36.48,0,0,0-1.66,7,30.85,30.85,0,0,0,.43,10.37,36,36,0,0,1,.61,5.61,10.9,10.9,0,0,1-1.56,6.57c-1.1,1.79-1.21,2.52-.94,3.21l.38.33.1.51a15.17,15.17,0,0,0,1,1.21,1.82,1.82,0,0,0,.14.14l.32.32c3.11,3.31,3.34,4.62,1.51,8.75l-.91,2.09c-.95,2.16-1.94,4.4-2.94,6.58a3.71,3.71,0,0,1-2.66,1.87,18.66,18.66,0,0,1-5.08.77C146.81,175.78,146.36,175.79,145.86,175.79Zm-3.72-57.35a15.07,15.07,0,0,1,1,2.72l0,.27a45.89,45.89,0,0,1,.37,11.73l-.08,1.38c-.11,2-.37,4-.63,5.9v.08a40.06,40.06,0,0,0-.53,8.91c.06.56.14,1.12.24,1.67a29.76,29.76,0,0,1,.75,7.34,5.15,5.15,0,0,0,0,.56,23.79,23.79,0,0,0,.52,3.84,29.26,29.26,0,0,0,1.32,4.45h0c.18.47.39,1,.66,1.63a12.07,12.07,0,0,1,.83,3V172l.48,0a14.83,14.83,0,0,0,4.07-.6l.51-.17c.93-2,1.86-4.15,2.76-6.19l.91-2.09a7.39,7.39,0,0,0,.83-2.51,7.43,7.43,0,0,0-1.62-2.09l-.24-.24-.27-.28a16,16,0,0,1-1.45-1.75l0,0a4.11,4.11,0,0,1-.27-.51,3.08,3.08,0,0,1-.35-.58c-1.26-2.7-.09-5,1.09-6.92a7.19,7.19,0,0,0,1-4.41,31.74,31.74,0,0,0-.54-5,34.72,34.72,0,0,1-.47-11.64,37.91,37.91,0,0,1,1.21-5.78c-1.92-.46-3.75-.82-5.23-1.11C146.69,119.6,144.38,119,142.14,118.44Zm13.27,34.89h0ZM139,117.65h0Zm1-3.67h0Z"/><path class="cls-3" d="M145.34,191.23,142,189.32a11,11,0,0,0-3.88-1.32l-.36-.05a15.82,15.82,0,0,1-5.29-1.94l-4.13-2.16,3.46-1a2,2,0,0,1,1.31-1.38,18.79,18.79,0,0,1,6.42-.46c.87,0,1.84.08,2.77.06l2-.07-.06,2a.74.74,0,0,0,0,.21l.07.08v.64c.06.39.15.81.24,1.23s.11.77.17,1.5c0,.25.05.62.07.72Z"/><path class="cls-3" d="M251,194.43A14.6,14.6,0,0,1,245.9,193l-.22-.09c-.27-.12-.5-.21-.64-.26-3-1-5.06-1.9-6.9-2.66l0,0a41.19,41.19,0,0,0-5.37-2,66.06,66.06,0,0,0-9.4-2,99.5,99.5,0,0,0-11.26-.51,77.79,77.79,0,0,1-8.4-.53c-3-.34-6-.84-9.46-1.53a119.83,119.83,0,0,0-18.52-1.86c-5.1-.2-10.33.06-15.38.3h-.22c-2.27.12-4.7.24-7.06.31l-4.85.13-2.45.06-2.49.06-.89,0c-.94,0-1.86,0-2.83-.06h-.1a17.18,17.18,0,0,0-5.91.4,8.15,8.15,0,0,1-3.56.25l-.41,0c-.26,0-.64-.05-1.06-.05h-1.53c-.59,0-1.32,0-1.78.06-.68.08-1.36.13-2.08.16-1.34.06-2.69,0-4,0H117.6c-1.47,0-2.58,0-3.62.07a16.69,16.69,0,0,0-3,.63l-.09,0a18.94,18.94,0,0,1-2.74.6l-.39.05-.37-.12-.41-.13-.08,0c-2.75-.91-6.29-2.66-5.39-7.36l.19-1,.91-.4a6.26,6.26,0,0,1,1.23-.4l.09,0,.41-.07L105,175a47.78,47.78,0,0,1,7.25-.45,21.54,21.54,0,0,1,3.15.33c5.78,1,11.71.53,17.44,0,3-.26,6.38-.56,9.67-.58.6,0,1.21,0,1.82,0,.93,0,1.89,0,2.84,0,.58,0,1.12,0,1.64-.11a14.36,14.36,0,0,0,3.08-.61,6.9,6.9,0,0,0,1.16-.44,1.33,1.33,0,0,0,.59-.63c1.06-2.31,2.09-4.67,3.1-6.95l.74-1.71c1.58-3.58,1.46-4.32-1.24-7.18l0,0-.18-.19-.26-.26a13.52,13.52,0,0,1-1.18-1.4l-.42-.37-.13-.57a3.12,3.12,0,0,1-.27-1.71,7.73,7.73,0,0,1,1.26-2.93,9.35,9.35,0,0,0,1.35-5.75,33.53,33.53,0,0,0-.58-5.38,29.8,29.8,0,0,1-.5-3,31.9,31.9,0,0,1,.06-7.81,37.58,37.58,0,0,1,1.76-7.4l.12-.33c-2.82-.77-5.62-1.34-7.78-1.76-2.4-.47-4.81-1.08-7.14-1.68l-.74-.19-2-.5-.75-.2-1.51-.41-.81-.24a4.38,4.38,0,0,0-.53-.16l-2.44-.6a65.58,65.58,0,0,0-8.15-1.61c-5.07-.55-10.21-.61-15.18-.66-1.31,0-3-.08-4.55-.15-2.11-.09-4.29-.19-5.4-.14l-.9.06c-.35,0-.51,0-1.44,0H97c-.57,0-1.21,0-1.52,0h0c-.64,0-1.3,0-2-.07a18,18,0,0,1-5-1L88,110l-.31-.42a11.81,11.81,0,0,1-1.29-4.19,16.06,16.06,0,0,0-.5-2.46,12.41,12.41,0,0,1-.39-1.81L85.23,99h2.93l.12.12h0a9.5,9.5,0,0,0,2.36.11c1.28-.14,2.6-.26,3.92-.36,2.94-.23,6-.39,9.06-.55l2-.11a127.19,127.19,0,0,1,13.42.24c3.3.18,7,.38,10.69.33a29.7,29.7,0,0,0,7.53-1.11c1-.29,2.08-.59,3.09-.9l3.35-1,.26-.08c4-1.22,8.06-2.49,12.27-3.34,1-.21,2-.37,2.89-.52A48.29,48.29,0,0,1,180.42,93a59.43,59.43,0,0,1,6.58,2.3A29.8,29.8,0,0,1,193.59,99l.92.71c2.49,1.91,8.43,5.44,12,7.55l1.79,1.06,1.69-.41a7.35,7.35,0,0,1,3.93-.1h0c.27.06.59.1.91.16l.76.12a41.61,41.61,0,0,0,7.79.41h.11a39.85,39.85,0,0,1,6.27.22,20.92,20.92,0,0,1,5.89,1.69,9.86,9.86,0,0,0,3.52.67h0c2.91.14,5.16.1,7.33.06,1.18,0,2.81-.05,4.8,0a8.79,8.79,0,0,1,7.94,4.21,13.1,13.1,0,0,1,.69,1.23,16.72,16.72,0,0,1,1.43,7.13V124c0,1.44.05,3.08,1,4a12.81,12.81,0,0,1,2.86,3.84c.22.44.42.89.63,1.39.09.21.18.42.28.63l.09.21a27.77,27.77,0,0,1,1.12,2.86,29,29,0,0,0,2.59,5.68l0,.07c.56,1,1.19,2.15,1.82,3.52.36.79.78,1.6,1.23,2.45l0,.06c1.52,2.91,3.26,6.21,2.73,9.57a33,33,0,0,0-.32,9.36,48.08,48.08,0,0,1,.52,7.66,23.14,23.14,0,0,1-.1,2.49,44.4,44.4,0,0,1-3,12v.39l-.39.43a3.37,3.37,0,0,1-2.3,1.15,13.29,13.29,0,0,1-1.73.14H267c-2.34,0-5.27,0-7.76,1.12l-.08,0a21.35,21.35,0,0,1-8.07,1.43Zm-79.21-16.7c1.36,0,2.71,0,4.06.07a121.37,121.37,0,0,1,19.11,1.93c3.31.67,6.3,1.15,9.15,1.48a72.73,72.73,0,0,0,8,.5,105.81,105.81,0,0,1,11.69.54,69,69,0,0,1,9.92,2.08,43.71,43.71,0,0,1,5.86,2.12l0,0c1.8.74,3.83,1.58,6.67,2.58.25.08.54.2.88.34l.2.09a14.08,14.08,0,0,0,3.64,1.16H251a17.66,17.66,0,0,0,6.67-1.17c3.2-1.39,6.69-1.4,9.25-1.41l1.43,0a10.77,10.77,0,0,0,1.12-.07,39.9,39.9,0,0,0,2.65-10.58h0c.06-.71.09-1.43.09-2.13a44.81,44.81,0,0,0-.49-7.2,36.73,36.73,0,0,1,.33-10.43c.33-2.13-1-4.72-2.34-7.23l0-.06c-.47-.9-.91-1.75-1.31-2.63-.57-1.24-1.14-2.27-1.69-3.27l0-.07a34.12,34.12,0,0,1-2.87-6.33,23.93,23.93,0,0,0-1-2.48l-.1-.23c-.11-.23-.21-.46-.31-.69-.18-.45-.35-.83-.53-1.19a9.11,9.11,0,0,0-2.06-2.76c-2.1-2-2.14-4.79-2.18-6.65v-.25a13.33,13.33,0,0,0-1.05-5.54c-.16-.32-.31-.6-.48-.87a5,5,0,0,0-4.77-2.44c-1.94,0-3.53,0-4.7,0-2.23,0-4.54.07-7.56-.06a13.92,13.92,0,0,1-5-1,16.77,16.77,0,0,0-4.84-1.39,38.15,38.15,0,0,0-5.7-.19h-.12a50.88,50.88,0,0,1-6.54-.2c.13.13.27.25.41.37a29.67,29.67,0,0,0,4.93,3.92l3.56,2a3.07,3.07,0,1,1-2.94,5.39L220,122.19l-.71-.38a32.79,32.79,0,0,1-5.63-4.43,45.39,45.39,0,0,0-3.49-3l-.61-.44a22.09,22.09,0,0,1-2.22-1.74c-.34-.23-1.59-1-2.8-1.69-3.86-2.29-9.68-5.75-12.35-7.8l-.92-.71a26.49,26.49,0,0,0-5.77-3.27,59,59,0,0,0-6.17-2.16,44.47,44.47,0,0,0-19.58-1c-.87.13-1.76.29-2.71.48a122.09,122.09,0,0,0-11.9,3.25l-.26.08-3.38,1c-1,.31-2.1.62-3.16.92a34.14,34.14,0,0,1-8.5,1.25c-3.77.05-7.58-.15-10.95-.34a122.55,122.55,0,0,0-13-.24l-2,.11c-3.07.15-6.06.32-9,.54-1.28.1-2.56.22-3.8.36a10.29,10.29,0,0,1-1.23,0,18.33,18.33,0,0,1,.33,1.9,12.15,12.15,0,0,0,.44,2,16.94,16.94,0,0,0,3.2.51c.58,0,1.15.06,1.68.06H98a10.78,10.78,0,0,0,1.15,0l1-.06c1.29-.06,3.45,0,5.74.14,1.57.06,3.18.13,4.43.15,5.06.05,10.3.11,15.55.68A70,70,0,0,1,135,110.2l.78.19h1.66v.41l.49.17.5.14,1.52.41.66.18,2,.5.73.19c2.28.59,4.64,1.19,6.92,1.64s5.58,1.11,8.76,2c.74.21,1.4.41,2,.61l.18.06a8.69,8.69,0,0,1,4.34,2.94,3.09,3.09,0,0,1-.15,4.35,3,3,0,0,1-2.09.82,3,3,0,0,1-2.24-1,10,10,0,0,0-.9-.89,32.28,32.28,0,0,0-1,4.76,28.37,28.37,0,0,0,0,6.89c.1.89.25,1.79.44,2.69a36.83,36.83,0,0,1,.66,6,13.25,13.25,0,0,1-1.91,7.92,7.67,7.67,0,0,0-.67,1.27l0,.06a9.66,9.66,0,0,0,.92,1.09l.08.08.06,0,.33.35c3.74,4,4.14,6.3,1.94,11.29l-.74,1.68c-1,2.32-2.06,4.69-3.13,7a5.06,5.06,0,0,1-2.18,2.35,9.27,9.27,0,0,1-1.86.75,18.61,18.61,0,0,1-3.85.78c-.61.06-1.23.1-1.9.12-1,0-2,0-3,0h-1.74c-3.14,0-6.45.31-9.37.57-2.09.18-4.19.36-6.32.47h1.65c.55,0,1,0,1.36.07l.42.05a4.61,4.61,0,0,0,2.06-.1,20.49,20.49,0,0,1,7.21-.57h.11c.9,0,1.74.08,2.55.06l.92,0,2.48-.06,2.45,0,4.82-.13c2.33-.07,4.73-.19,7-.31h.22C163.93,177.92,167.85,177.73,171.77,177.73Zm-66.63,1.06c.17.63.86,1.23,2.9,1.91h0c.55-.1,1.18-.27,1.74-.42l.09,0a19.91,19.91,0,0,1,3.84-.76c1.15-.08,2.35-.1,3.91-.08h1.5c1.25,0,2.55,0,3.78,0,.63,0,1.21-.07,1.79-.14a47.88,47.88,0,0,1-10-.65,18.29,18.29,0,0,0-2.62-.27,45,45,0,0,0-6.67.43Z"/><path class="cls-3" d="M224.69,120.43h0Z"/><path class="cls-3" d="M207.26,112.15l0,0Z"/></svg>