<svg xmlns="http://www.w3.org/2000/svg" viewBox="0 0 194.68 194.84"><title>map cluster collection</title><g id="Calque_1" data-name="Calque 1"><path d="M176.84,89.9a35.39,35.39,0,0,0-.37-4,72.2,72.2,0,0,0-3.09-11.64c-1.13-3.29-2.16-6.25-3.28-9.2-.28-.73-.54-1.49-.79-2.22a25.28,25.28,0,0,0-2.61-5.92c-1.1-1.62-2.13-3.33-3.12-5a66,66,0,0,0-5.74-8.47A25.44,25.44,0,0,0,152,38.09a19.54,19.54,0,0,1-4.45-3.76,29.92,29.92,0,0,0-9.86-7.63A104,104,0,0,0,124.1,21c-.56-.17-1.12-.36-1.66-.55a26.54,26.54,0,0,0-4.53-1.25c-2.09-.33-4.55-.74-7-1.29a43.82,43.82,0,0,0-8.19-1.06l-1.17,0c-1.59,0-3.2.11-4.76.22-1.09.08-2.22.16-3.34.2a25.63,25.63,0,0,0-4.89.51c-2.75.64-5.55,1.14-8.26,1.62l-.72.13c-.6.11-1.21.2-1.8.29a40.44,40.44,0,0,0-4.06.8c-1.38.38-2.76.9-4.08,1.4-.88.33-1.78.68-2.69,1a67.81,67.81,0,0,0-11.58,5.29A83.08,83.08,0,0,0,41.3,38.18a29.69,29.69,0,0,0-5,5.82c-1,1.47-2,3-2.9,4.51-.78,1.25-1.59,2.54-2.42,3.8a84,84,0,0,0-7.47,14L23,67.42c-1.1,2.6-2.23,5.29-3.17,8a60.85,60.85,0,0,0-2.47,12c-.24,1.81-.31,3.66-.38,5.45-.05,1.36-.1,2.75-.23,4.13a42.05,42.05,0,0,0,.45,10.19c.09.58.18,1.16.26,1.75a47.58,47.58,0,0,0,1.11,6,93.59,93.59,0,0,0,5.76,15.67,145.43,145.43,0,0,0,9.18,15.89,81.54,81.54,0,0,0,6.38,8.64A26.42,26.42,0,0,0,47,160.92c1.21.71,2.42,1.45,3.59,2.16s2.59,1.59,3.91,2.34c1.12.65,2.24,1.33,3.32,2a48.72,48.72,0,0,0,8.92,4.65c1.14.4,2.27.88,3.36,1.34a32.39,32.39,0,0,0,6.12,2.13c.88.18,1.78.32,2.66.46l1.61.25a24.63,24.63,0,0,0,2.63.27c.91.06,1.84.12,2.78.27a50.26,50.26,0,0,0,6.92.53c1.39.05,2.81.09,4.22.2a42.34,42.34,0,0,0,10.9-.7c1.14-.2,2.3-.33,3.41-.45a35.06,35.06,0,0,0,5.09-.83c1.07-.28,2.14-.64,3.18-1l2.34-.75a57.18,57.18,0,0,0,10.57-4.27c2.09-1.11,4.16-2.36,6.16-3.56,2.36-1.42,4.8-2.88,7.31-4.16a11.93,11.93,0,0,0,3.24-2.22c2.91-3,6.32-6.67,9.56-10.56a56.66,56.66,0,0,0,6.92-9.76c.54-1,1-2.09,1.52-3.12a48.26,48.26,0,0,1,2.33-4.59c2.7-4.53,5.87-14.55,5.95-14.78a30.75,30.75,0,0,0,1.25-6.67c.08-.93.19-1.87.3-2.77a41.18,41.18,0,0,0,.42-5.6c-.05-3.36-.21-6.45-.49-9.45C176.93,91.49,176.89,90.68,176.84,89.9Z" style="fill:#ded1e7"/><path d="M194.08,91.23c-.08-.92-.14-1.87-.19-2.79a46.76,46.76,0,0,0-.47-5,87.36,87.36,0,0,0-3.75-14.15c-1.36-3.94-2.58-7.49-3.93-11-.32-.85-.63-1.75-.92-2.61a31.63,31.63,0,0,0-3.31-7.44c-1.29-1.91-2.5-3.92-3.68-5.87a79.77,79.77,0,0,0-7-10.32,31.78,31.78,0,0,0-7.31-6.74,21.78,21.78,0,0,1-5-4.18,37.09,37.09,0,0,0-12.3-9.51,124.42,124.42,0,0,0-16.46-6.87c-.65-.2-1.31-.43-2-.64a34.15,34.15,0,0,0-5.66-1.56c-2.47-.39-5.37-.88-8.2-1.53A54.21,54.21,0,0,0,103.92-.24,64.41,64.41,0,0,0,96.67,0c-1.29.09-2.62.19-3.93.23a32.54,32.54,0,0,0-6.15.65C83.36,1.63,80,2.22,76.82,2.8L76,3c-.7.13-1.42.24-2.11.35a45.57,45.57,0,0,0-5,1c-1.72.47-3.4,1.11-5,1.72-1,.39-2.1.79-3.15,1.14a82.74,82.74,0,0,0-14.09,6.44,100.13,100.13,0,0,0-17.12,12,37.51,37.51,0,0,0-6.27,7.26c-1.22,1.78-2.38,3.64-3.5,5.44-.92,1.48-1.88,3-2.86,4.49a102.1,102.1,0,0,0-9.06,17l-.54,1.28C5.91,64.2,4.54,67.44,3.41,70.7a73.31,73.31,0,0,0-3,14.61C.08,87.54,0,89.8-.09,92c-.06,1.59-.12,3.23-.26,4.84A51.58,51.58,0,0,0,.2,109.36c.11.69.2,1.38.3,2.08a59.79,59.79,0,0,0,1.37,7.36,114,114,0,0,0,7,19A176.19,176.19,0,0,0,19.9,156.91a98,98,0,0,0,7.74,10.5,33.45,33.45,0,0,0,8.87,7.3c1.43.82,2.87,1.7,4.26,2.55s3.11,1.91,4.7,2.82c1.32.76,2.64,1.57,3.92,2.35a59.73,59.73,0,0,0,11,5.69c1.32.47,2.64,1,3.93,1.57a40.22,40.22,0,0,0,7.61,2.63c1.08.23,2.18.4,3.25.56l1.89.31a31.7,31.7,0,0,0,3.31.33,29.8,29.8,0,0,1,3.14.31,61.25,61.25,0,0,0,8.49.65c1.63.05,3.31.11,5,.24q1.6.12,3.3.12a58.29,58.29,0,0,0,10.12-1c1.3-.23,2.66-.38,4-.53a42,42,0,0,0,6.3-1c1.32-.35,2.63-.78,3.9-1.2.9-.3,1.82-.61,2.74-.89a70.06,70.06,0,0,0,12.9-5.21c2.54-1.35,5-2.85,7.44-4.29,2.79-1.68,5.68-3.41,8.62-4.91a15.64,15.64,0,0,0,4.3-3c3.49-3.64,7.59-8,11.48-12.67a70.19,70.19,0,0,0,8.46-11.94c.65-1.25,1.26-2.55,1.84-3.8a59,59,0,0,1,2.7-5.32c3.34-5.58,7.26-18,7.26-18a37.33,37.33,0,0,0,1.56-8.29c.09-1.08.23-2.18.35-3.25a52.1,52.1,0,0,0,.52-6.9C194.61,98.57,194.42,94.84,194.08,91.23Zm-16.72,16.19c-.11.91-.22,1.84-.31,2.78a29.68,29.68,0,0,1-1.25,6.69c-.08.23-3.26,10.29-6,14.83a49.75,49.75,0,0,0-2.34,4.6c-.48,1-1,2.12-1.52,3.14a57.52,57.52,0,0,1-6.95,9.8c-3.24,3.9-6.67,7.54-9.59,10.58a11.84,11.84,0,0,1-3.25,2.24c-2.52,1.28-5,2.75-7.33,4.17-2,1.21-4.09,2.46-6.19,3.58a57.22,57.22,0,0,1-10.6,4.28c-.79.24-1.58.5-2.35.75-1,.35-2.12.71-3.19,1a35.33,35.33,0,0,1-5.11.83c-1.12.12-2.28.25-3.42.45a42.66,42.66,0,0,1-10.94.7c-1.41-.11-2.84-.15-4.23-.2a50.69,50.69,0,0,1-6.95-.53,27.27,27.27,0,0,0-2.78-.28,22.44,22.44,0,0,1-2.65-.26l-1.61-.26c-.88-.13-1.79-.27-2.67-.45A33.33,33.33,0,0,1,70,173.72c-1.1-.46-2.23-.94-3.38-1.35a49.35,49.35,0,0,1-9-4.66c-1.08-.67-2.2-1.35-3.33-2-1.32-.75-2.64-1.56-3.92-2.35s-2.39-1.46-3.61-2.16a26.74,26.74,0,0,1-7.1-5.84,81.22,81.22,0,0,1-6.4-8.68,146.27,146.27,0,0,1-9.22-16A94.74,94.74,0,0,1,18.34,115a49.43,49.43,0,0,1-1.12-6c-.08-.58-.16-1.17-.25-1.76A42.24,42.24,0,0,1,16.51,97c.13-1.39.18-2.79.23-4.15.07-1.8.14-3.66.38-5.47a60.63,60.63,0,0,1,2.49-12c.94-2.7,2.07-5.4,3.17-8l.46-1.08A84.64,84.64,0,0,1,30.73,52.2c.84-1.25,1.65-2.55,2.43-3.81.93-1.5,1.9-3,2.91-4.52a30,30,0,0,1,5-5.84,82.13,82.13,0,0,1,14.16-9.92A67.81,67.81,0,0,1,66.88,22.8c.92-.31,1.82-.65,2.7-1,1.33-.51,2.71-1,4.09-1.41a36,36,0,0,1,4.09-.8c.59-.09,1.2-.19,1.8-.3l.72-.12c2.72-.49,5.53-1,8.29-1.63a25.76,25.76,0,0,1,4.91-.51c1.12,0,2.26-.12,3.35-.2,1.57-.11,3.18-.22,4.78-.22.39,0,.78,0,1.17,0A43.32,43.32,0,0,1,111,17.71c2.42.55,4.89,1,7,1.29a28.2,28.2,0,0,1,4.54,1.26c.54.18,1.1.38,1.66.55a104.2,104.2,0,0,1,13.66,5.7,30,30,0,0,1,9.89,7.65,19.22,19.22,0,0,0,4.47,3.78,25.61,25.61,0,0,1,5.84,5.4,66.49,66.49,0,0,1,5.76,8.5c1,1.65,2,3.36,3.13,5a25.46,25.46,0,0,1,2.62,5.94c.25.73.52,1.49.8,2.23,1.12,2.95,2.15,5.92,3.28,9.22a71.92,71.92,0,0,1,3.1,11.68,38.5,38.5,0,0,1,.38,4c0,.78.09,1.59.16,2.39.28,3,.45,6.11.5,9.48A41.47,41.47,0,0,1,177.36,107.42Z" style="fill:#baa0cc"/></g></svg>