<?xml version="1.0" encoding="utf-8"?>
<!-- Generator: Adobe Illustrator 15.0.2, SVG Export Plug-In . SVG Version: 6.00 Build 0)  -->
<!DOCTYPE svg PUBLIC "-//W3C//DTD SVG 1.1//EN" "http://www.w3.org/Graphics/SVG/1.1/DTD/svg11.dtd">
<svg version="1.1" id="Layer_1" xmlns="http://www.w3.org/2000/svg" xmlns:xlink="http://www.w3.org/1999/xlink" x="0px" y="0px"
	 width="283.46px" height="283.46px" viewBox="0 0 283.46 283.46" enable-background="new 0 0 283.46 283.46" xml:space="preserve">
<title>badge member</title>
<g id="Calque_1">
	<path fill="#FFFFFF" d="M230.039,133.492c-0.058-1.484-0.195-2.963-0.412-4.433c-0.659-3.875-1.734-7.968-3.424-12.885
		c-1.252-3.628-2.387-6.926-3.627-10.181c-0.311-0.811-0.598-1.649-0.877-2.46c-0.785-2.279-1.597-4.634-2.89-6.55
		c-1.217-1.804-2.358-3.69-3.456-5.515c-1.923-3.186-3.912-6.477-6.352-9.379c-2.332-2.773-4.262-4.555-6.445-5.956
		c-1.85-1.133-3.518-2.54-4.946-4.172c-3.003-3.549-6.72-6.425-10.91-8.44c-4.739-2.279-9.812-4.637-15.071-6.292
		c-0.617-0.191-1.237-0.402-1.838-0.607c-1.627-0.604-3.303-1.067-5.01-1.385c-2.309-0.366-5.039-0.821-7.707-1.432
		c-2.981-0.675-6.021-1.066-9.076-1.167c-0.426,0-0.854-0.023-1.286-0.023c-1.765,0-3.542,0.125-5.276,0.247
		c-1.208,0.083-2.457,0.172-3.694,0.218c-1.821,0.014-3.637,0.202-5.422,0.561c-3.038,0.709-6.145,1.26-9.146,1.798l-0.798,0.142
		c-0.66,0.119-1.335,0.224-1.979,0.33c-1.512,0.208-3.01,0.501-4.489,0.877c-1.53,0.419-3.047,0.989-4.515,1.55
		c-0.97,0.366-1.979,0.749-2.968,1.085c-3.892,1.296-7.965,3.156-12.819,5.854c-5.574,3.096-10.81,6.765-15.623,10.946
		c-2.12,1.903-3.988,4.068-5.56,6.444c-1.115,1.629-2.18,3.341-3.212,4.993c-0.861,1.385-1.751,2.82-2.675,4.205
		c-3.242,4.909-6.011,10.115-8.271,15.547l-0.501,1.187c-1.21,2.879-2.464,5.857-3.499,8.842c-1.458,4.195-2.104,8.485-2.741,13.251
		c-0.271,2.005-0.33,4.06-0.422,6.045c-0.056,1.494-0.115,3.041-0.254,4.571c-0.307,3.363-0.142,7.051,0.504,11.272
		c0.097,0.646,0.19,1.292,0.281,1.938c0.271,2.239,0.681,4.459,1.227,6.646c1.608,5.958,3.741,11.762,6.375,17.344
		c3.054,6.395,6.85,12.438,10.171,17.595c2.138,3.342,4.497,6.537,7.061,9.564c2.215,2.588,4.863,4.772,7.826,6.454
		c1.342,0.775,2.682,1.596,3.978,2.388c1.412,0.867,2.873,1.761,4.331,2.596c1.24,0.709,2.477,1.464,3.67,2.196
		c3.123,1.913,6.352,3.889,9.877,5.145c1.267,0.452,2.517,0.99,3.727,1.491c2.18,0.923,4.432,1.876,6.777,2.354
		c0.966,0.198,1.979,0.356,2.938,0.505c0.597,0.093,1.19,0.185,1.784,0.286c0.966,0.149,1.939,0.246,2.916,0.291
		c1.027,0.048,2.051,0.15,3.067,0.307c2.523,0.426,5.142,0.508,7.671,0.587c1.53,0.046,3.11,0.096,4.67,0.218
		c3.604,0.287,7.44,0.039,12.07-0.771c1.257-0.221,2.537-0.366,3.776-0.505c1.896-0.167,3.778-0.473,5.63-0.913
		c1.181-0.33,2.371-0.713,3.525-1.096c0.844-0.28,1.719-0.57,2.592-0.831c4.045-1.185,7.961-2.769,11.691-4.729
		c2.309-1.232,4.617-2.608,6.828-3.957c2.615-1.57,5.316-3.192,8.093-4.617c1.323-0.619,2.534-1.453,3.585-2.467
		c3.223-3.361,7.002-7.378,10.586-11.686c2.721-3.271,5.555-6.803,7.662-10.811c0.594-1.128,1.145-2.309,1.678-3.456
		c0.772-1.735,1.633-3.429,2.58-5.075c2.998-5.014,6.503-16.107,6.596-16.372c0.741-2.399,1.206-4.876,1.385-7.381
		c0.093-1.028,0.218-2.064,0.33-3.063c0.294-2.055,0.449-4.125,0.465-6.2c-0.057-3.72-0.237-7.144-0.544-10.458
		C230.141,135.25,230.088,134.355,230.039,133.492z"/>
	<path fill="#96B481" d="M230.039,133.492c-0.058-1.484-0.195-2.963-0.412-4.433c-0.659-3.875-1.734-7.968-3.424-12.885
		c-1.252-3.628-2.387-6.926-3.627-10.181c-0.311-0.811-0.598-1.649-0.877-2.46c-0.785-2.279-1.597-4.634-2.89-6.55
		c-1.217-1.804-2.358-3.69-3.456-5.515c-1.923-3.186-3.912-6.477-6.352-9.379c-2.332-2.773-4.262-4.555-6.445-5.956
		c-1.85-1.133-3.518-2.54-4.946-4.172c-3.003-3.549-6.72-6.425-10.91-8.44c-4.739-2.279-9.812-4.637-15.071-6.292
		c-0.617-0.191-1.237-0.402-1.838-0.607c-1.627-0.604-3.303-1.067-5.01-1.385c-2.309-0.366-5.039-0.821-7.707-1.432
		c-2.981-0.675-6.021-1.066-9.076-1.167c-0.426,0-0.854-0.023-1.286-0.023c-1.765,0-3.542,0.125-5.276,0.247
		c-1.208,0.083-2.457,0.172-3.694,0.218c-1.821,0.014-3.637,0.202-5.422,0.561c-3.038,0.709-6.145,1.26-9.146,1.798l-0.798,0.142
		c-0.66,0.119-1.335,0.224-1.979,0.33c-1.512,0.208-3.01,0.501-4.489,0.877c-1.53,0.419-3.047,0.989-4.515,1.55
		c-0.97,0.366-1.979,0.749-2.968,1.085c-3.892,1.296-7.965,3.156-12.819,5.854c-5.574,3.096-10.81,6.765-15.623,10.946
		c-2.12,1.903-3.988,4.068-5.56,6.444c-1.115,1.629-2.18,3.341-3.212,4.993c-0.861,1.385-1.751,2.82-2.675,4.205
		c-3.242,4.909-6.011,10.115-8.271,15.547l-0.501,1.187c-1.21,2.879-2.464,5.857-3.499,8.842c-1.458,4.195-2.104,8.485-2.741,13.251
		c-0.271,2.005-0.33,4.06-0.422,6.045c-0.056,1.494-0.115,3.041-0.254,4.571c-0.307,3.363-0.142,7.051,0.504,11.272
		c0.097,0.646,0.19,1.292,0.281,1.938c0.271,2.239,0.681,4.459,1.227,6.646c1.608,5.958,3.741,11.762,6.375,17.344
		c3.054,6.395,6.85,12.438,10.171,17.595c2.138,3.342,4.497,6.537,7.061,9.564c2.215,2.588,4.863,4.772,7.826,6.454
		c1.342,0.775,2.682,1.596,3.978,2.388c1.412,0.867,2.873,1.761,4.331,2.596c1.24,0.709,2.477,1.464,3.67,2.196
		c3.123,1.913,6.352,3.889,9.877,5.145c1.267,0.452,2.517,0.99,3.727,1.491c2.18,0.923,4.432,1.876,6.777,2.354
		c0.966,0.198,1.979,0.356,2.938,0.505c0.597,0.093,1.19,0.185,1.784,0.286c0.966,0.149,1.939,0.246,2.916,0.291
		c1.027,0.048,2.051,0.15,3.067,0.307c2.523,0.426,5.142,0.508,7.671,0.587c1.53,0.046,3.11,0.096,4.67,0.218
		c3.604,0.287,7.44,0.039,12.07-0.771c1.257-0.221,2.537-0.366,3.776-0.505c1.896-0.167,3.778-0.473,5.63-0.913
		c1.181-0.33,2.371-0.713,3.525-1.096c0.844-0.28,1.719-0.57,2.592-0.831c4.045-1.185,7.961-2.769,11.691-4.729
		c2.309-1.232,4.617-2.608,6.828-3.957c2.615-1.57,5.316-3.192,8.093-4.617c1.323-0.619,2.534-1.453,3.585-2.467
		c3.223-3.361,7.002-7.378,10.586-11.686c2.721-3.271,5.555-6.803,7.662-10.811c0.594-1.128,1.145-2.309,1.678-3.456
		c0.772-1.735,1.633-3.429,2.58-5.075c2.998-5.014,6.503-16.107,6.596-16.372c0.741-2.399,1.206-4.876,1.385-7.381
		c0.093-1.028,0.218-2.064,0.33-3.063c0.294-2.055,0.449-4.125,0.465-6.2c-0.057-3.72-0.237-7.144-0.544-10.458
		C230.141,135.25,230.088,134.355,230.039,133.492z"/>
	<path fill="#56694C" d="M280.951,133.037c-0.123-1.319-0.201-2.685-0.274-4c-0.093-2.379-0.313-4.751-0.659-7.107
		c-1.022-6.125-2.734-12.579-5.393-20.312c-1.942-5.649-3.707-10.741-5.633-15.83c-0.462-1.224-0.904-2.503-1.319-3.74
		c-1.267-3.667-2.572-7.463-4.745-10.682c-1.851-2.741-3.596-5.633-5.277-8.43c-3.021-5-6.145-10.174-10.039-14.805
		c-3.767-4.482-6.906-7.377-10.498-9.68c-3.011-1.933-5.276-3.835-7.11-5.996c-4.855-5.743-10.869-10.396-17.647-13.654
		c-7.41-3.559-15.339-7.256-23.627-9.854c-0.93-0.29-1.877-0.613-2.79-0.923c-2.599-0.877-5.276-1.788-8.136-2.239
		c-3.543-0.558-7.708-1.253-11.762-2.187c-4.764-1.07-9.617-1.688-14.498-1.847c-3.498-0.139-7.008,0.109-10.401,0.35
		c-1.85,0.129-3.763,0.264-5.636,0.33c-3.037,0.112-5.996,0.267-8.832,0.927c-4.64,1.082-9.413,1.933-14.026,2.757l-1.233,0.218
		c-0.989,0.181-2.032,0.33-3.027,0.501c-2.431,0.337-4.842,0.81-7.22,1.418c-2.47,0.679-4.871,1.589-7.193,2.467
		c-1.478,0.561-3.004,1.141-4.515,1.649c-6.161,2.052-12.589,4.987-20.23,9.234c-8.765,4.87-16.998,10.64-24.567,17.216
		c-3.123,2.721-6.068,6.127-8.997,10.415c-1.751,2.559-3.414,5.228-5.023,7.81c-1.319,2.127-2.694,4.327-4.099,6.441
		c-5.101,7.717-9.461,15.9-13.021,24.438l-0.759,1.847c-1.88,4.479-3.858,9.119-5.471,13.809
		c-2.309,6.698-3.344,13.456-4.347,20.959c-0.432,3.212-0.554,6.448-0.66,9.564c-0.086,2.282-0.175,4.64-0.383,6.945
		c-0.491,5.399-0.231,11.29,0.795,18.007c0.152,0.989,0.29,1.979,0.432,2.968c0.495,3.479,1.006,7.078,1.959,10.554
		c2.522,9.354,5.87,18.467,10.006,27.229c4.782,10.017,10.702,19.432,15.877,27.476c3.365,5.26,7.075,10.291,11.107,15.059
		c3.606,4.204,7.917,7.75,12.737,10.479c2.052,1.187,4.113,2.449,6.102,3.666c2.2,1.35,4.475,2.741,6.761,4.047
		c1.887,1.086,3.786,2.246,5.606,3.367c4.931,3.021,10.033,6.145,15.719,8.166c1.893,0.66,3.792,1.479,5.633,2.256
		c3.476,1.475,7.074,2.995,10.926,3.783c1.553,0.33,3.133,0.561,4.66,0.798c0.907,0.142,1.814,0.284,2.717,0.438
		c1.576,0.243,3.163,0.402,4.756,0.479c1.509,0.071,3.014,0.219,4.508,0.441c4.06,0.689,8.189,0.818,12.186,0.94
		c2.335,0.076,4.749,0.148,7.104,0.33c1.55,0.122,3.121,0.185,4.736,0.185c4.875-0.047,9.735-0.518,14.527-1.408
		c1.877-0.33,3.819-0.547,5.696-0.762c2.968-0.33,6.058-0.68,9.053-1.478c1.894-0.505,3.772-1.132,5.587-1.735
		c1.293-0.428,2.639-0.87,3.941-1.263c6.406-1.876,12.609-4.384,18.518-7.489c3.629-1.937,7.21-4.084,10.666-6.158
		c4.008-2.407,8.152-4.895,12.377-7.045c1.999-1.019,4.288-2.324,6.172-4.287c5.016-5.227,10.883-11.477,16.489-18.197
		c4.288-5.158,8.763-10.732,12.13-17.15c0.943-1.791,1.808-3.65,2.639-5.448c1.16-2.61,2.453-5.158,3.875-7.635
		c4.789-8.011,10.422-25.797,10.422-25.853c1.107-3.421,1.816-7.2,2.236-11.873c0.139-1.557,0.33-3.141,0.511-4.667
		c0.386-3.219,0.782-6.546,0.732-9.894C281.715,143.577,281.439,138.224,280.951,133.037z M230.302,152.91
		c-0.118,0.99-0.244,2.032-0.329,3.064c-0.179,2.505-0.644,4.981-1.386,7.381c-0.082,0.261-3.588,11.358-6.596,16.368
		c-0.945,1.647-1.806,3.341-2.579,5.075c-0.534,1.148-1.085,2.332-1.679,3.46c-2.107,4.007-4.947,7.539-7.661,10.811
		c-3.585,4.308-7.364,8.321-10.587,11.682c-1.049,1.016-2.262,1.849-3.584,2.467c-2.777,1.415-5.479,3.038-8.094,4.617
		c-2.22,1.319-4.512,2.708-6.827,3.958c-3.73,1.959-7.647,3.542-11.691,4.727c-0.874,0.26-1.747,0.55-2.592,0.83
		c-1.154,0.387-2.345,0.781-3.526,1.096c-1.852,0.443-3.732,0.75-5.629,0.916c-1.24,0.139-2.52,0.281-3.776,0.502
		c-4.617,0.814-8.466,1.059-12.071,0.775c-1.56-0.126-3.14-0.176-4.67-0.222c-2.53-0.079-5.148-0.158-7.671-0.587
		c-1.016-0.154-2.04-0.258-3.067-0.307c-0.977-0.043-1.95-0.14-2.916-0.291c-0.594-0.098-1.187-0.19-1.784-0.283
		c-0.97-0.151-1.979-0.307-2.938-0.504c-2.345-0.479-4.598-1.436-6.777-2.358c-1.21-0.508-2.46-1.039-3.727-1.491
		c-3.526-1.253-6.754-3.229-9.878-5.141c-1.194-0.732-2.431-1.488-3.67-2.2c-1.458-0.835-2.919-1.729-4.331-2.593
		c-1.296-0.795-2.638-1.612-3.977-2.391c-2.967-1.676-5.619-3.857-7.836-6.444c-2.564-3.026-4.923-6.222-7.061-9.563
		c-3.321-5.162-7.117-11.214-10.171-17.596c-2.634-5.582-4.767-11.388-6.375-17.348c-0.546-2.188-0.956-4.406-1.227-6.645
		c-0.093-0.646-0.186-1.293-0.281-1.939c-0.659-4.219-0.811-7.916-0.504-11.273c0.139-1.527,0.198-3.074,0.254-4.571
		c0.076-1.979,0.152-4.037,0.422-6.042c0.636-4.769,1.283-9.057,2.74-13.251c1.036-2.985,2.289-5.963,3.5-8.842l0.501-1.19
		c2.262-5.431,5.031-10.637,8.271-15.547c0.923-1.385,1.814-2.816,2.675-4.202c1.032-1.649,2.098-3.367,3.212-4.993
		c1.57-2.377,3.438-4.543,5.56-6.444c4.812-4.184,10.048-7.853,15.623-10.946c4.854-2.701,8.928-4.561,12.819-5.857
		c0.989-0.33,2.008-0.715,2.968-1.082c1.468-0.558,2.985-1.131,4.515-1.553c1.483-0.376,2.986-0.67,4.502-0.881
		c0.66-0.102,1.319-0.211,1.979-0.33l0.798-0.142c3.001-0.534,6.108-1.088,9.146-1.797c1.785-0.357,3.601-0.545,5.422-0.561
		c1.237-0.046,2.486-0.132,3.694-0.218c1.731-0.122,3.509-0.247,5.276-0.247c0.433,0,0.86,0,1.286,0.023
		c3.056,0.103,6.094,0.494,9.076,1.167c2.668,0.61,5.393,1.068,7.707,1.435c1.707,0.316,3.383,0.78,5.01,1.385
		c0.601,0.201,1.221,0.412,1.838,0.607c5.26,1.649,10.332,4.014,15.071,6.289c4.19,2.016,7.907,4.893,10.91,8.443
		c1.429,1.632,3.097,3.037,4.946,4.169c2.184,1.405,4.113,3.186,6.445,5.959c2.439,2.902,4.429,6.193,6.352,9.376
		c1.098,1.824,2.239,3.71,3.456,5.514c1.293,1.917,2.104,4.271,2.89,6.55c0.279,0.812,0.566,1.649,0.877,2.46
		c1.236,3.262,2.371,6.543,3.627,10.184c1.689,4.914,2.777,9.01,3.424,12.886c0.217,1.468,0.354,2.946,0.412,4.429
		c0.05,0.864,0.103,1.758,0.186,2.639c0.307,3.314,0.488,6.734,0.543,10.458C230.75,148.804,230.595,150.867,230.302,152.91z"/>
	<path fill="#141414" d="M146.23,283.399c-1.648,0-3.278-0.065-4.864-0.191c-2.309-0.181-4.71-0.257-7.028-0.329h-0.046
		c-4.034-0.129-8.209-0.258-12.364-0.963c-1.379-0.231-2.866-0.33-4.307-0.423h-0.06c-1.641-0.078-3.277-0.244-4.901-0.498
		c-0.844-0.142-1.692-0.273-2.54-0.405l-0.234-0.04c-1.521-0.233-3.09-0.478-4.654-0.798c-4.014-0.821-7.684-2.375-11.236-3.879
		l-0.135-0.056c-1.774-0.752-3.608-1.526-5.412-2.167c-5.851-2.081-11.025-5.25-16.028-8.314c-1.821-1.114-3.707-2.269-5.577-3.34
		c-2.309-1.32-4.594-2.722-6.8-4.07c-1.873-1.148-4-2.451-6.068-3.647c-4.984-2.822-9.439-6.491-13.166-10.841
		c-4.082-4.82-7.835-9.91-11.236-15.233c-5.204-8.087-11.161-17.559-15.979-27.657c-4.178-8.851-7.561-18.055-10.108-27.506
		c-0.979-3.584-1.507-7.235-2.002-10.764c-0.138-0.99-0.28-1.979-0.429-2.969c-1.049-6.854-1.319-12.861-0.808-18.409
		c0.204-2.252,0.293-4.581,0.379-6.833c0.119-3.183,0.241-6.451,0.683-9.752c1.02-7.585,2.052-14.442,4.423-21.282
		c1.649-4.762,3.628-9.416,5.511-13.917l0.772-1.837c3.596-8.635,8-16.91,13.156-24.715c1.369-2.062,2.711-4.215,4.01-6.299
		l0.062-0.099c1.616-2.599,3.298-5.277,5.06-7.869c3.011-4.406,6.045-7.916,9.277-10.729c7.654-6.654,15.983-12.491,24.851-17.414
		c7.727-4.287,14.244-7.255,20.504-9.356c1.471-0.491,2.968-1.059,4.429-1.609c2.384-0.904,4.818-1.824,7.364-2.526
		c2.437-0.626,4.908-1.112,7.401-1.458l0.188-0.03c0.927-0.148,1.883-0.3,2.807-0.465l1.279-0.228
		c4.578-0.818,9.313-1.649,13.895-2.731c2.968-0.692,6.025-0.854,9.146-0.97c1.814-0.066,3.681-0.194,5.484-0.33h0.099
		c3.427-0.237,6.981-0.488,10.583-0.35c4.975,0.169,9.921,0.806,14.775,1.903c4.043,0.927,8.159,1.613,11.648,2.164
		c2.969,0.472,5.726,1.398,8.373,2.309h0.037c0.851,0.287,1.813,0.617,2.757,0.91c8.387,2.639,16.378,6.355,23.849,9.94
		c6.984,3.357,13.182,8.15,18.188,14.066c1.729,2.032,3.872,3.835,6.741,5.676c3.74,2.397,6.992,5.389,10.884,10.006
		c3.957,4.719,7.12,9.937,10.168,14.983l0.092,0.151c1.648,2.741,3.364,5.574,5.165,8.245c2.309,3.403,3.628,7.302,4.946,11.068
		l0.023,0.076c0.416,1.2,0.844,2.44,1.289,3.627c1.914,5.046,3.691,10.171,5.65,15.867c2.671,7.803,4.406,14.35,5.455,20.566
		c0.35,2.411,0.57,4.838,0.659,7.272c0.069,1.236,0.148,2.622,0.271,3.958l0,0c0.491,5.23,0.771,10.623,0.86,16.49
		c0.053,3.496-0.353,6.869-0.745,10.131v0.103c-0.175,1.483-0.359,3.015-0.491,4.515c-0.429,4.812-1.161,8.703-2.309,12.249h-0.021
		c-0.566,2.17-3.383,9.924-3.416,10.009c-2.695,7.326-5.096,12.771-7.141,16.188c-1.381,2.41-2.639,4.889-3.77,7.427l-0.026,0.06
		c-0.794,1.711-1.698,3.654-2.681,5.521c-3.44,6.544-7.972,12.202-12.322,17.424c-5.623,6.761-11.543,13.036-16.562,18.284
		c-2.048,2.133-4.491,3.525-6.596,4.617c-4.195,2.133-8.301,4.601-12.275,6.984L215,262.941c-3.445,2.068-7.014,4.209-10.655,6.148
		c-6.006,3.155-12.312,5.707-18.821,7.615c-1.273,0.379-2.58,0.811-3.843,1.229l-0.05,0.021c-1.859,0.616-3.75,1.246-5.682,1.761
		c-3.12,0.831-6.267,1.184-9.294,1.523h-0.093c-1.82,0.208-3.707,0.419-5.501,0.735C156.168,282.88,151.207,283.357,146.23,283.399z
		 M117.834,278.201c1.555,0.076,3.104,0.23,4.644,0.463c3.935,0.659,7.994,0.795,11.916,0.916h0.046
		c2.354,0.072,4.792,0.148,7.186,0.33c1.5,0.119,3.047,0.182,4.618,0.182c4.779-0.047,9.545-0.51,14.244-1.385
		c1.893-0.33,3.828-0.551,5.701-0.763h0.093c2.915-0.329,5.937-0.659,8.815-1.431c1.834-0.492,3.678-1.105,5.462-1.695l0.079-0.029
		c1.286-0.426,2.615-0.868,3.938-1.261c6.302-1.844,12.404-4.312,18.215-7.368c3.568-1.898,7.098-4.017,10.512-6.064l0.082-0.049
		c4.02-2.414,8.182-4.914,12.477-7.098c1.873-0.96,4.023-2.177,5.729-3.958c4.996-5.204,10.85-11.425,16.407-18.106
		c4.237-5.095,8.647-10.59,11.938-16.85c0.943-1.793,1.83-3.696,2.609-5.379l0.029-0.059c1.168-2.643,2.472-5.223,3.904-7.73
		c4.384-7.335,9.564-23.316,10.188-25.256l0,0l0.083-0.248c1.068-3.298,1.755-6.965,2.16-11.526c0.136-1.547,0.33-3.106,0.501-4.617
		v-0.105c0.38-3.156,0.771-6.418,0.723-9.689c-0.086-5.778-0.363-11.088-0.844-16.233l0,0c-0.129-1.388-0.211-2.807-0.284-4.06
		c-0.092-2.318-0.307-4.63-0.644-6.926c-1.006-6.035-2.697-12.403-5.326-20.048c-1.949-5.666-3.717-10.765-5.606-15.771
		c-0.465-1.22-0.9-2.487-1.319-3.71l-0.025-0.076c-1.228-3.565-2.5-7.255-4.555-10.296c-1.848-2.737-3.579-5.606-5.254-8.38
		l-0.093-0.151c-2.968-4.947-6.065-10.042-9.871-14.564c-3.653-4.35-6.682-7.147-10.124-9.354c-3.153-2.021-5.528-4.03-7.474-6.315
		c-4.71-5.565-10.538-10.076-17.106-13.238c-7.361-3.532-15.228-7.196-23.416-9.765c-0.99-0.307-2.006-0.66-2.83-0.934h-0.036
		c-2.517-0.851-5.122-1.731-7.826-2.16c-3.549-0.557-7.733-1.256-11.873-2.206c-4.659-1.054-9.407-1.663-14.181-1.821
		c-3.424-0.135-6.881,0.109-10.225,0.346h-0.099c-1.831,0.129-3.724,0.261-5.606,0.33c-2.968,0.109-5.828,0.257-8.519,0.884
		c-4.667,1.088-9.442,1.939-14.062,2.764l-1.28,0.231c-0.957,0.171-1.929,0.33-2.873,0.472l-0.185,0.029
		c-2.371,0.33-4.722,0.792-7.042,1.382c-2.397,0.659-4.762,1.557-7.048,2.42c-1.51,0.574-3.044,1.154-4.577,1.649
		c-6.062,2.022-12.401,4.914-19.95,9.109c-8.666,4.812-16.805,10.516-24.287,17.018c-3.014,2.638-5.867,5.937-8.717,10.102
		c-1.688,2.54-3.337,5.191-4.934,7.757l-0.062,0.102c-1.319,2.104-2.668,4.288-4.067,6.382c-5.039,7.631-9.346,15.722-12.862,24.164
		l-0.772,1.84c-1.876,4.453-3.816,9.06-5.435,13.72c-2.249,6.55-3.275,13.222-4.268,20.639c-0.419,3.143-0.541,6.332-0.66,9.416
		c-0.089,2.309-0.178,4.69-0.389,7.031c-0.478,5.277-0.224,11.026,0.782,17.612c0.152,0.989,0.293,1.979,0.435,2.991
		c0.488,3.437,0.99,6.981,1.917,10.365c2.492,9.259,5.803,18.278,9.894,26.951c4.736,9.924,10.626,19.294,15.774,27.294
		c3.324,5.201,6.99,10.173,10.976,14.885c3.484,4.062,7.649,7.485,12.308,10.118c2.101,1.22,4.245,2.532,6.138,3.69
		c2.183,1.339,4.445,2.721,6.714,4.02c1.913,1.099,3.819,2.264,5.663,3.391c4.858,2.969,9.894,6.053,15.408,8.021
		c1.893,0.659,3.773,1.467,5.59,2.235l0.132,0.056c3.41,1.441,6.926,2.933,10.617,3.685c1.487,0.307,3.018,0.544,4.498,0.771
		l0.238,0.036c0.864,0.136,1.728,0.271,2.589,0.419c1.51,0.232,3.032,0.384,4.558,0.456l-0.046,1.648L117.834,278.201z
		 M144.64,232.359c-1.049,0-2.067-0.043-3.073-0.122c-1.537-0.122-3.16-0.171-4.588-0.214c-2.585-0.08-5.26-0.165-7.895-0.61
		c-0.959-0.144-1.924-0.239-2.893-0.284h-0.043c-1.024-0.048-2.044-0.151-3.057-0.31c-0.581-0.099-1.164-0.192-1.751-0.28
		c-0.99-0.154-2.019-0.33-3.018-0.518c-2.503-0.512-4.832-1.498-7.084-2.451c-1.197-0.508-2.424-1.025-3.628-1.461
		c-3.694-1.318-6.995-3.334-10.188-5.276c-1.181-0.722-2.404-1.471-3.627-2.173c-1.451-0.832-2.896-1.715-4.288-2.572l-0.076-0.047
		c-1.21-0.738-2.579-1.58-3.958-2.368c-3.13-1.771-5.928-4.073-8.268-6.804c-2.611-3.086-5.014-6.343-7.193-9.748
		c-3.344-5.198-7.173-11.289-10.27-17.777c-2.678-5.669-4.846-11.566-6.477-17.621c-0.566-2.253-0.99-4.54-1.27-6.846l-0.026-0.179
		c-0.082-0.584-0.165-1.164-0.254-1.745c-0.66-4.354-0.831-8.169-0.514-11.671c0.138-1.497,0.194-3.014,0.25-4.482
		c0.076-2.025,0.152-4.119,0.432-6.203c0.66-4.858,1.319-9.235,2.816-13.571c1.055-3.041,2.309-6.042,3.542-8.941l0.498-1.188
		c2.3-5.531,5.12-10.832,8.42-15.831c0.89-1.342,1.761-2.74,2.602-4.089l0.046-0.076c1.042-1.672,2.118-3.394,3.249-5.049
		c1.651-2.492,3.613-4.762,5.838-6.758c4.899-4.259,10.23-7.994,15.906-11.144c4.947-2.75,9.109-4.65,13.1-5.979
		c0.989-0.33,1.956-0.699,2.909-1.059h0.046c1.49-0.564,3.031-1.148,4.617-1.586c1.542-0.395,3.106-0.702,4.683-0.92
		c0.64-0.102,1.303-0.204,1.956-0.33l0.795-0.142c2.968-0.531,6.062-1.082,9.06-1.781c1.888-0.382,3.809-0.584,5.735-0.604
		c1.217-0.043,2.447-0.128,3.627-0.214c1.749-0.122,3.555-0.25,5.389-0.25c0.481,0,0.924,0,1.352,0.026
		c3.158,0.104,6.299,0.509,9.38,1.207c2.639,0.6,5.316,1.052,7.585,1.412c1.793,0.327,3.553,0.811,5.261,1.444l0.089,0.03
		c0.568,0.191,1.151,0.389,1.735,0.574c5.369,1.686,10.497,4.077,15.292,6.375c4.4,2.116,8.305,5.135,11.458,8.862
		c1.321,1.505,2.86,2.803,4.567,3.849c2.336,1.501,4.373,3.381,6.817,6.286c2.529,3.008,4.548,6.352,6.5,9.587
		c1.082,1.797,2.203,3.654,3.413,5.445c1.412,2.094,2.26,4.551,3.078,6.926l0.043,0.116c0.26,0.762,0.533,1.55,0.817,2.309
		c1.243,3.281,2.388,6.573,3.644,10.224c1.723,5.01,2.83,9.188,3.49,13.152c0.229,1.53,0.372,3.072,0.432,4.617
		c0.049,0.844,0.1,1.718,0.178,2.579c0.33,3.361,0.495,6.824,0.555,10.587c-0.012,2.148-0.17,4.293-0.475,6.42l-1.649-0.193
		l1.649,0.193c-0.113,0.938-0.241,1.996-0.33,3.016c-0.189,2.628-0.678,5.227-1.458,7.743l-0.017,0.05
		c-0.62,1.941-3.868,11.873-6.725,16.658c-0.916,1.598-1.75,3.24-2.5,4.924c-0.541,1.164-1.102,2.367-1.711,3.528
		c-2.184,4.152-5.08,7.761-7.856,11.101c-3.608,4.334-7.413,8.385-10.662,11.771c-1.178,1.148-2.538,2.093-4.026,2.793
		c-2.748,1.395-5.412,2.998-7.992,4.548l-0.075,0.046c-2.214,1.32-4.502,2.698-6.827,3.938c-3.828,2.011-7.846,3.636-11.994,4.851
		c-0.868,0.262-1.758,0.555-2.543,0.818c-1.194,0.396-2.401,0.799-3.629,1.121c-1.931,0.467-3.895,0.787-5.873,0.96
		c-1.203,0.136-2.45,0.277-3.671,0.491c-3.101,0.576-6.245,0.879-9.399,0.907V232.359z M146.728,54.366
		c-1.719,0-3.467,0.125-5.158,0.244c-1.22,0.086-2.48,0.175-3.75,0.221c-1.714,0.012-3.424,0.186-5.105,0.518
		c-3.083,0.719-6.21,1.276-9.234,1.817l-0.798,0.142c-0.659,0.119-1.355,0.228-2.018,0.33c-1.456,0.198-2.899,0.479-4.324,0.841
		c-1.441,0.399-2.909,0.953-4.327,1.491h-0.04c-0.989,0.376-2.005,0.759-3.041,1.105c-3.793,1.266-7.777,3.087-12.533,5.735
		c-5.475,3.038-10.617,6.641-15.342,10.749c-2.011,1.812-3.785,3.872-5.277,6.131c-1.091,1.596-2.147,3.298-3.166,4.947
		l-0.049,0.079c-0.854,1.369-1.738,2.787-2.655,4.169c-3.185,4.823-5.906,9.937-8.126,15.273l-0.501,1.191
		c-1.201,2.853-2.444,5.801-3.463,8.743c-1.405,4.047-2.039,8.245-2.665,12.928c-0.257,1.926-0.33,3.941-0.406,5.887
		c-0.056,1.511-0.115,3.074-0.26,4.657c-0.293,3.235-0.132,6.791,0.491,10.883c0.088,0.592,0.174,1.185,0.257,1.777l0.026,0.179
		c0.262,2.169,0.659,4.321,1.187,6.44c1.576,5.866,3.673,11.579,6.267,17.071c3.011,6.315,6.774,12.298,10.065,17.413
		c2.096,3.283,4.41,6.422,6.926,9.396c2.098,2.441,4.605,4.5,7.411,6.081c1.398,0.812,2.787,1.649,4.01,2.414l0.076,0.046
		c1.375,0.842,2.8,1.715,4.212,2.52c1.27,0.727,2.513,1.488,3.713,2.224c3.047,1.866,6.2,3.8,9.564,4.996
		c1.319,0.469,2.583,1.007,3.812,1.527c2.111,0.894,4.288,1.813,6.468,2.259c0.927,0.191,1.903,0.33,2.849,0.488
		c0.617,0.096,1.22,0.188,1.821,0.293c0.898,0.135,1.803,0.225,2.711,0.268h0.033c1.085,0.053,2.166,0.162,3.239,0.33
		c2.411,0.408,4.974,0.488,7.447,0.564c1.468,0.045,3.13,0.096,4.746,0.224c3.466,0.274,7.17,0.036,11.655-0.752
		c1.318-0.231,2.682-0.386,3.879-0.518c1.815-0.159,3.617-0.45,5.392-0.871c1.121-0.3,2.282-0.686,3.4-1.059
		c0.834-0.276,1.751-0.58,2.668-0.854c3.94-1.156,7.755-2.703,11.388-4.617c2.253-1.197,4.506-2.549,6.682-3.855l0.072-0.043
		c2.639-1.579,5.347-3.211,8.196-4.66c1.156-0.537,2.217-1.26,3.14-2.14c3.209-3.345,6.965-7.338,10.508-11.596
		c2.664-3.202,5.438-6.655,7.473-10.524c0.574-1.092,1.118-2.259,1.648-3.387c0.796-1.786,1.684-3.529,2.658-5.225
		c2.672-4.469,5.812-14.088,6.415-15.972l0.021-0.062c0.705-2.282,1.148-4.636,1.318-7.019c0.096-1.068,0.229-2.153,0.33-3.113
		c0.285-1.98,0.436-3.979,0.452-5.979c-0.056-3.678-0.234-7.055-0.538-10.33c-0.086-0.92-0.142-1.863-0.188-2.697
		c-0.057-1.424-0.188-2.844-0.393-4.255c-0.63-3.776-1.695-7.786-3.357-12.621c-1.246-3.628-2.381-6.899-3.607-10.135
		c-0.301-0.795-0.581-1.606-0.855-2.391l-0.035-0.112c-0.752-2.183-1.531-4.433-2.698-6.167c-1.257-1.857-2.45-3.839-3.503-5.583
		c-1.889-3.127-3.838-6.362-6.203-9.172c-2.217-2.639-4.033-4.32-6.072-5.63c-1.982-1.22-3.77-2.733-5.299-4.488
		c-2.854-3.365-6.383-6.091-10.359-8.001c-4.687-2.25-9.693-4.581-14.841-6.204c-0.604-0.191-1.214-0.396-1.801-0.594l-0.069-0.023
		c-1.539-0.574-3.125-1.016-4.739-1.319c-2.335-0.369-5.089-0.831-7.819-1.458c-2.882-0.649-5.818-1.026-8.77-1.125
		c-0.402-0.014-0.802-0.023-1.24-0.023V54.366z"/>
	<path fill="#141414" d="M86.352,252.187c-0.105-0.248-0.105-0.527,0-0.775l5.277-12.299c0.15-0.361,0.44-0.646,0.805-0.791
		c0.357-0.156,0.764-0.156,1.121,0l0.68,0.293c0.277,0.113,0.508,0.313,0.66,0.571c0.152,0.252,0.234,0.54,0.237,0.835l-0.33,13.67
		l9.689-9.646c0.216-0.201,0.483-0.34,0.771-0.402c0.287-0.07,0.588-0.043,0.857,0.075l0.68,0.294
		c0.361,0.146,0.643,0.44,0.775,0.808c0.146,0.363,0.138,0.771-0.02,1.128l-5.276,12.299c-0.208,0.505-0.786,0.746-1.291,0.539
		c-0.01-0.004-0.019-0.008-0.028-0.012c-0.251-0.104-0.451-0.303-0.554-0.555c-0.11-0.248-0.11-0.532,0-0.781l5.033-11.701
		l-9.818,9.719c-0.454,0.43-1.12,0.547-1.692,0.297c-0.283-0.119-0.524-0.32-0.693-0.576c-0.169-0.253-0.258-0.551-0.254-0.855
		l0.3-13.812l-5.033,11.702c-0.102,0.251-0.305,0.448-0.561,0.54c-0.254,0.1-0.537,0.093-0.785-0.02
		C86.652,252.632,86.454,252.435,86.352,252.187z"/>
	<path fill="#141414" d="M111.525,261.441c-0.149-0.225-0.198-0.5-0.135-0.762l2.876-13.305c0.053-0.269,0.211-0.506,0.438-0.659
		c0.224-0.154,0.503-0.207,0.769-0.146l8.789,1.903c0.252,0.049,0.474,0.2,0.61,0.419c0.141,0.214,0.187,0.477,0.129,0.726
		c-0.046,0.25-0.198,0.469-0.416,0.601c-0.217,0.134-0.478,0.177-0.726,0.118l-7.783-1.682l-1.046,4.841l6.992,1.514
		c0.252,0.049,0.474,0.201,0.61,0.42c0.141,0.213,0.187,0.476,0.129,0.725c-0.046,0.25-0.198,0.469-0.416,0.601
		c-0.217,0.135-0.478,0.177-0.726,0.118l-6.992-1.514l-1.052,4.868l7.79,1.695c0.517,0.107,0.85,0.613,0.742,1.131
		c-0.001,0.005-0.002,0.011-0.004,0.017c-0.047,0.25-0.198,0.467-0.416,0.598c-0.216,0.135-0.478,0.177-0.726,0.118l-8.789-1.899
		C111.905,261.836,111.669,261.674,111.525,261.441z"/>
	<path fill="#141414" d="M130.696,265.058c-0.188-0.191-0.289-0.453-0.277-0.722l0.29-13.387c0.001-0.392,0.163-0.765,0.449-1.032
		c0.272-0.279,0.649-0.43,1.039-0.416h0.739c0.295,0.006,0.581,0.106,0.814,0.287c0.236,0.176,0.42,0.412,0.534,0.684l4.818,12.799
		l5.35-12.562c0.125-0.266,0.32-0.493,0.564-0.659c0.239-0.169,0.527-0.257,0.82-0.251h0.742c0.391,0.003,0.762,0.17,1.022,0.459
		c0.271,0.281,0.417,0.661,0.402,1.053l-0.287,13.386c0.001,0.547-0.442,0.99-0.988,0.991c-0.015,0-0.029-0.001-0.044-0.002
		c-0.271-0.002-0.531-0.111-0.723-0.307c-0.194-0.189-0.299-0.453-0.286-0.725l0.273-12.734l-5.455,12.701
		c-0.125,0.273-0.33,0.503-0.587,0.659c-0.532,0.331-1.208,0.315-1.725-0.04c-0.253-0.169-0.448-0.412-0.558-0.695l-4.904-12.912
		l-0.274,12.734c-0.003,0.273-0.124,0.532-0.33,0.712c-0.198,0.187-0.461,0.284-0.732,0.273
		C131.126,265.349,130.879,265.244,130.696,265.058z"/>
	<path fill="#141414" d="M157.493,264.251c-0.224-0.152-0.374-0.393-0.412-0.66l-2.349-13.406c-0.052-0.268,0.006-0.544,0.158-0.769
		c0.15-0.229,0.391-0.382,0.66-0.423l5.211-0.923c1.574-0.276,2.855-0.13,3.846,0.442c1.645,1.047,2.305,3.121,1.569,4.927
		c-0.298,0.626-0.759,1.159-1.335,1.544c0.875,0.102,1.707,0.435,2.41,0.966c0.688,0.539,1.14,1.324,1.26,2.19
		c0.238,1.354-0.033,2.495-0.811,3.423c-0.779,0.928-2.152,1.566-4.119,1.916l-5.347,0.937
		C157.975,264.464,157.707,264.405,157.493,264.251z M161.398,254.848c1.318-0.231,2.193-0.613,2.639-1.147
		c0.459-0.556,0.631-1.294,0.468-1.996c-0.101-0.662-0.53-1.23-1.142-1.507c-0.77-0.325-1.623-0.399-2.438-0.211l-4.033,0.722
		l0.842,4.796L161.398,254.848z M163.066,261.635c1.428-0.251,2.401-0.648,2.922-1.194c0.518-0.541,0.729-1.305,0.564-2.034
		c-0.293-1.68-1.742-2.291-4.35-1.833l-4.152,0.731l0.887,5.06L163.066,261.635z"/>
	<path fill="#141414" d="M177.476,259.871c-0.245-0.113-0.431-0.323-0.512-0.58l-4.528-12.836c-0.094-0.256-0.082-0.538,0.033-0.785
		c0.108-0.248,0.319-0.439,0.577-0.523l8.479-2.992c0.494-0.18,1.042,0.074,1.223,0.568c0.003,0.008,0.006,0.015,0.008,0.022
		c0.09,0.236,0.076,0.5-0.039,0.726c-0.111,0.229-0.312,0.403-0.555,0.481l-7.51,2.638l1.649,4.674l6.737-2.368
		c0.241-0.089,0.508-0.075,0.739,0.036c0.233,0.109,0.411,0.31,0.491,0.555c0.092,0.236,0.077,0.5-0.039,0.726
		c-0.104,0.229-0.295,0.409-0.531,0.497l-6.748,2.379l1.649,4.695l7.507-2.638c0.24-0.09,0.508-0.075,0.738,0.04
		c0.234,0.105,0.412,0.306,0.491,0.551c0.091,0.236,0.077,0.502-0.04,0.729c-0.112,0.228-0.312,0.4-0.554,0.479l-8.482,2.99
		C178.001,260.023,177.717,260,177.476,259.871z"/>
	<path fill="#141414" d="M195.414,252.859c-0.26-0.07-0.479-0.246-0.604-0.484l-6.652-12.004c-0.137-0.236-0.173-0.517-0.1-0.779
		c0.066-0.264,0.242-0.486,0.482-0.613l4.567-2.533c1.78-0.986,3.319-1.36,4.617-1.121c1.261,0.215,2.347,1.01,2.933,2.147
		c0.43,0.763,0.615,1.638,0.533,2.51c-0.095,0.924-0.494,1.79-1.135,2.464c1.022-0.289,2.121-0.029,2.906,0.686
		c0.816,0.68,1.504,1.502,2.025,2.428l0.501,0.9c0.135,0.233,0.168,0.512,0.093,0.771c-0.072,0.26-0.249,0.478-0.488,0.6
		c-0.236,0.15-0.523,0.193-0.792,0.119c-0.259-0.078-0.475-0.26-0.597-0.502l-0.33-0.586c-0.334-0.611-0.73-1.187-1.184-1.715
		c-0.441-0.505-1.023-0.864-1.672-1.033c-0.688-0.191-1.483-0.036-2.385,0.465l-4.061,2.25l2.523,4.551
		c0.135,0.235,0.165,0.517,0.082,0.775c-0.076,0.26-0.255,0.479-0.494,0.607C195.953,252.898,195.673,252.933,195.414,252.859z
		 M196.689,243.179c1.124-0.621,1.894-1.338,2.309-2.149c0.416-0.764,0.396-1.689-0.053-2.435c-0.357-0.722-1.053-1.217-1.854-1.318
		c-0.802-0.104-1.889,0.227-3.262,0.988l-3.453,1.891l2.762,4.982L196.689,243.179z"/>
	<path fill="#FFFFFF" d="M148.884,120.53c0.172-11.955-0.329-23.937-4.079-35.289c-0.088-0.266-0.192-0.525-0.313-0.778
		c-0.834-1.764-4.782-1.29-5.016,0.66c-1.319,10.834,1.626,22.044-0.283,32.845c-1.742-1.933-3.651-27.231-7.487-36.364
		c-0.6-1.435-1.514-3.067-3.298-2.783c-1.234,0.21-2.204,1.172-2.424,2.404c-0.937,5.168-0.607,10.425-0.274,15.642l1.425,22.479
		c-0.746,0.719-1.84-0.393-2.25-1.342c-4.066-9.459-6.81-15.857-8.129-26.055c-0.211-1.629-0.686-3.627-2.348-3.934
		c-0.831-0.155-1.675-0.119-2.22,0.531c-1.045,1.243-1.029,3.173-0.989,4.69c0.396,11.506,2.048,19.339,4.917,30.487
		c0.686,2.668,0.834,4.785,0.181,7.463c-7.305-3.529-12.344-10.303-15.768-17.657c-0.828-1.774-2.586-3.997-4.211-2.912
		c-0.943,0.63-0.97,1.979-0.845,3.117c0.564,5.095,2.47,10.738,4.947,15.233c2.286,4.159,5.303,7.866,8.304,11.543
		c3.536,4.34,5.755,8.677,9.294,13.017c1.959,2.404,3.958,4.888,4.884,7.85c0.384,1.379,0.646,2.789,0.782,4.215
		c3.978,31.66,2.13,31.391,6.108,63.051l0.946,1.145l12.354,0.805l5.791-0.062l7.168-1.125l4.287-0.523l3.571-0.792l3.503-0.989
		l-0.57-1.455c-7.625-25.961-10.105-27.802-13.357-63.235l-0.066-2.968c0.399-2.521,1.359-4.363,2.721-5.805
		c5.261-5.555,11.303-11.89,12.315-20.962c0.478-4.307,0.953-8.713,2.938-12.565c0.524-1.019,2.352-5.937,2.691-7.038
		c0.629-2.028-1.32-4.04-3.42-4.004c-2.361,0.043-2.361,0.043-4.574,1.425c-2.339,1.461-4.424,4.406-5.689,7.094l-4.33,9.195
		c-0.482,1.019-1.432,1.243-2.537,1.405c-1.639,0.237-3.197-0.788-3.627-2.388C149.535,124.425,148.884,123.485,148.884,120.53z"/>
	<path fill="#141414" d="M150.205,120.53c0.151-11.365-0.304-22.911-3.572-33.877c-0.527-1.764-0.939-3.737-2.893-4.383
		c-1.508-0.485-3.158-0.211-4.429,0.735c-1.626,1.319-1.369,3.911-1.451,5.791c-0.125,2.899-0.02,5.798,0.139,8.694
		c0.359,6.691,1.042,13.453-0.08,20.118l2.203-0.583c0.277,0.33,0-0.244,0.026,0c-0.06-0.238-0.136-0.472-0.228-0.699
		c-0.194-0.66-0.33-1.342-0.468-2.019c-0.399-1.979-0.706-3.98-1.012-5.979c-0.808-5.276-1.543-10.553-2.526-15.797
		c-0.455-2.42-0.953-4.838-1.596-7.216c-0.538-1.979-1.122-4.248-2.309-5.963c-1.6-2.309-4.792-2.516-6.514-0.165
		c-0.947,1.29-1.006,3.001-1.174,4.538c-0.231,2.287-0.31,4.586-0.234,6.883c0.228,9.584,1.134,19.184,1.741,28.752l0.66-1.141
		c0.046-0.03-2.929-6.731-3.212-7.431c-1.009-2.493-1.952-5.016-2.744-7.585c-0.794-2.569-1.433-5.184-1.913-7.829
		c-0.419-2.309-0.307-5.277-1.764-7.256c-1.151-1.563-3.651-2.084-5.234-0.851c-1.91,1.494-1.785,4.419-1.699,6.596
		c0.209,5.689,0.837,11.355,1.88,16.952c0.59,3.14,1.319,6.266,2.068,9.353c0.884,3.588,1.999,6.942,1.167,10.653l1.936-0.789
		c-3.775-1.908-7.087-4.62-9.703-7.945c-1.293-1.629-2.458-3.357-3.483-5.168c-1.072-1.86-1.817-3.987-3.097-5.712
		c-0.914-1.233-2.309-2.44-3.958-2.144c-1.84,0.33-2.599,2.097-2.622,3.796c-0.06,4.287,1.626,8.947,3.271,12.829
		c1.867,4.396,4.499,8.301,7.431,12.051c1.553,1.979,3.209,3.895,4.683,5.936c1.537,2.128,2.929,4.348,4.413,6.508
		c2.675,3.895,6.649,7.447,7.889,12.13c0.66,2.464,0.798,5.092,1.102,7.614c0.279,2.345,0.546,4.69,0.802,7.039
		c1.319,12.305,1.847,24.668,3.09,36.98c0.449,4.475,0.966,8.943,1.521,13.406c0.165,1.339,0.396,2.463,1.494,3.363
		c0.561,0.455,1.256,0.406,1.939,0.452c3.836,0.247,7.698,0.659,11.543,0.732c2.002,0.036,4.125,0.132,6.111-0.132
		c2.309-0.307,4.617-0.746,6.926-1.089c-0.598,0.089,0.369-0.042,0.659-0.075l2.157-0.264c0.873-0.105,1.718-0.231,2.578-0.416
		c2.052-0.445,4.041-0.989,6.059-1.561c0.627-0.178,1.194-0.953,0.924-1.622c-1.771-4.356-2.865-9.054-4.264-13.545
		c-1.218-3.898-2.451-7.793-3.536-11.731c-2.493-9.02-3.892-18.244-4.931-27.531c-0.406-3.617-0.773-7.239-1.102-10.867
		c-0.174-1.945-0.26-3.865,0.462-5.715c1.075-2.741,3.687-4.76,5.591-6.926c2.049-2.27,3.865-4.738,5.422-7.371
		c1.606-2.76,2.704-5.787,3.241-8.935c0.591-3.677,0.742-7.381,1.949-10.936c0.774-2.289,1.913-4.485,2.761-6.758
		c0.758-2.032,1.856-4.175,0.623-6.266c-1.451-2.447-4.835-2.968-7.342-1.979c-3.03,1.184-5.398,3.803-7.077,6.5
		c-1.121,1.807-1.952,3.79-2.856,5.712l-1.352,2.873c-0.416,0.877-0.742,2.14-1.355,2.872c-0.641,0.734-1.672,0.987-2.579,0.633
		c-0.881-0.35-1.075-1.068-1.346-1.873c-0.503-1.397-0.772-2.866-0.802-4.35c-0.025-1.695-2.664-1.702-2.639,0
		c0.037,2.256,0.43,5.208,1.785,7.107c1.504,2.104,4.795,2.529,6.866,0.989c1.293-0.966,1.82-2.922,2.483-4.331
		c0.901-1.913,1.803-3.828,2.704-5.745c1.472-3.09,3.394-5.828,6.411-7.556c2.098-1.204,5.828-0.66,4.763,2.44
		c-0.657,2.018-1.421,3.999-2.286,5.937c-1.562,3.328-2.344,6.725-2.812,10.359c-0.459,3.569-0.904,6.926-2.49,10.224
		c-1.43,2.829-3.215,5.461-5.312,7.836c-1.854,2.173-4.169,4.112-5.749,6.496c-2.984,4.519-1.579,10.32-1.065,15.323
		c1.02,9.946,2.246,19.917,4.713,29.622c1.108,4.354,2.441,8.641,3.776,12.929c1.569,5.052,2.804,10.349,4.792,15.247l0.924-1.623
		c-2.342,0.659-4.657,1.296-7.045,1.771c0.61-0.123,0.033,0-0.132,0l-1.065,0.128l-2.52,0.307c-0.924,0.118-1.844,0.274-2.764,0.419
		c-1.573,0.248-3.146,0.524-4.723,0.742c-0.178,0.023-0.561,0.017,0.036,0c-0.165,0-0.329,0-0.498,0
		c-0.792-0.02-1.583,0.017-2.374,0.023c-2.104,0.022-4.14-0.05-6.244-0.186l-8.997-0.584l0.934,0.387l-0.95-1.145l0.389,0.934
		c-1.145-9.133-2.121-18.277-2.774-27.456c-0.518-7.278-0.989-14.558-1.745-21.819c-0.564-5.498-0.966-11.125-1.979-16.557
		c-1.095-5.817-5.735-9.979-8.928-14.705c-1.675-2.487-3.298-5.017-5.122-7.395s-3.852-4.709-5.636-7.176
		c-3.496-4.733-6.014-10.114-7.407-15.831c-0.379-1.438-0.629-2.907-0.749-4.39c-0.036-0.746-0.086-1.906,0.989-1.378
		c0.626,0.307,1.118,1.26,1.438,1.856c1.319,2.46,2.477,4.947,4.05,7.256c3.179,4.7,7.282,8.743,12.397,11.276
		c0.726,0.359,1.741,0.096,1.939-0.789c1.244-5.537-0.956-10.923-2.17-16.285c-1.213-5.253-2.061-10.585-2.536-15.956
		c-0.221-2.668-0.703-5.666-0.277-8.327c0.115-0.712,0.356-1.742,1.319-1.699c0.66,0.03,0.947,0.584,1.158,1.122
		c0.458,1.147,0.485,2.497,0.66,3.707c0.8,5.103,2.142,10.106,4.004,14.924c1.022,2.691,2.153,5.343,3.298,7.991
		c0.762,1.784,2.275,5.079,4.772,3.486c0.407-0.235,0.658-0.668,0.66-1.138c-0.501-7.915-1.019-15.83-1.504-23.745
		c-0.231-3.753-0.416-7.526-0.066-11.279c0.105-1.141,0.218-5.099,2.361-4.116c0.877,0.402,1.319,1.999,1.616,2.843
		c1.468,4.093,2.223,8.459,2.968,12.73c0.808,4.683,1.467,9.39,2.196,14.083c0.304,1.939,0.6,3.888,1.019,5.808
		c0.244,1.101,0.479,2.309,1.21,3.202c0.6,0.735,2.045,0.356,2.203-0.581c1.062-6.296,0.66-12.611,0.28-18.947
		c-0.185-3.104-0.353-6.214-0.284-9.324c0.033-1.497-0.538-6.227,2.276-5.306c1.094,0.359,1.239,2.232,1.526,3.219
		c0.396,1.378,0.752,2.767,1.068,4.165c0.687,3.078,1.2,6.192,1.537,9.327c0.688,6.338,0.784,12.724,0.699,19.092
		C147.542,122.229,150.181,122.229,150.205,120.53z"/>
</g>
<g>
	<path d="M65.267,66.23c-0.34-0.047-0.616-0.213-0.83-0.497L54.128,52.045c-0.213-0.283-0.3-0.599-0.258-0.945
		c0.043-0.348,0.205-0.628,0.488-0.841l5.1-3.841c1.417-1.066,2.752-1.698,4.006-1.895c1.255-0.196,2.355-0.068,3.305,0.385
		c0.949,0.454,1.75,1.113,2.402,1.978c0.65,0.865,1.063,1.816,1.236,2.853c0.174,1.039-0.007,2.132-0.542,3.283
		c-0.534,1.151-1.511,2.26-2.927,3.327l-4.071,3.066l3.604,4.786c0.213,0.284,0.293,0.598,0.238,0.943
		c-0.057,0.346-0.226,0.625-0.509,0.839C65.917,66.195,65.607,66.278,65.267,66.23z M65.289,54.577
		c1.521-1.146,2.371-2.242,2.553-3.289c0.181-1.048-0.055-2.004-0.707-2.869c-0.65-0.864-1.505-1.354-2.561-1.471
		c-1.059-0.115-2.346,0.4-3.867,1.545l-3.869,2.914l4.582,6.084L65.289,54.577z"/>
	<path d="M79.585,56.067c-0.332-0.087-0.588-0.285-0.767-0.591l-6.05-10.376c-0.178-0.307-0.227-0.63-0.145-0.97
		c0.084-0.34,0.277-0.6,0.584-0.778c0.307-0.179,0.632-0.223,0.977-0.132c0.345,0.09,0.607,0.29,0.785,0.596l0.606,1.04
		c0.245-2.173,1.069-3.669,2.472-4.487l0.121-0.071c0.307-0.179,0.621-0.221,0.945-0.13c0.324,0.093,0.576,0.292,0.754,0.598
		c0.179,0.306,0.219,0.617,0.123,0.933c-0.098,0.315-0.307,0.567-0.629,0.756l-0.121,0.07c-0.775,0.452-1.373,1.055-1.798,1.81
		c-0.425,0.755-0.661,1.59-0.711,2.505l4.288,7.354c0.178,0.307,0.219,0.628,0.124,0.964c-0.096,0.337-0.297,0.595-0.603,0.773
		C80.236,56.109,79.916,56.153,79.585,56.067z"/>
	<path d="M89.876,49.923c-1.239-0.123-2.357-0.581-3.353-1.374c-0.997-0.793-1.79-1.855-2.382-3.186s-0.848-2.631-0.77-3.902
		c0.079-1.271,0.488-2.407,1.227-3.41c0.738-1.003,1.766-1.796,3.079-2.38c1.296-0.577,2.563-0.803,3.804-0.68
		c1.239,0.124,2.361,0.579,3.366,1.369s1.803,1.849,2.395,3.18c0.591,1.33,0.843,2.633,0.756,3.908
		c-0.087,1.275-0.501,2.413-1.239,3.416c-0.738,1.003-1.757,1.792-3.053,2.369C92.392,49.817,91.117,50.047,89.876,49.923z
		 M94.554,45.73c0.496-0.608,0.797-1.355,0.904-2.24s-0.078-1.866-0.557-2.94c-0.469-1.057-1.068-1.843-1.798-2.356
		c-0.729-0.513-1.482-0.786-2.263-0.817c-0.779-0.031-1.52,0.108-2.219,0.419c-0.717,0.318-1.324,0.778-1.824,1.378
		c-0.499,0.6-0.798,1.34-0.896,2.222c-0.098,0.882,0.088,1.851,0.558,2.909c0.478,1.074,1.076,1.871,1.796,2.387
		c0.721,0.518,1.473,0.796,2.257,0.836c0.784,0.04,1.533-0.1,2.251-0.418C93.462,46.798,94.059,46.338,94.554,45.73z"/>
	<path d="M97.926,28.387c-0.354-0.178-0.593-0.453-0.716-0.825l-0.035-0.106c-0.123-0.372-0.096-0.735,0.082-1.089
		c0.179-0.354,0.453-0.592,0.826-0.715l0.158-0.053c0.373-0.123,0.736-0.096,1.09,0.083c0.354,0.178,0.592,0.453,0.715,0.825
		l0.035,0.106c0.123,0.373,0.096,0.735-0.082,1.089c-0.178,0.354-0.452,0.592-0.824,0.715l-0.16,0.053
		C98.643,28.591,98.281,28.564,97.926,28.387z M102.57,52.214c-0.236,0-0.444-0.064-0.625-0.191
		c-0.179-0.127-0.307-0.307-0.383-0.536c-0.088-0.267-0.068-0.534,0.059-0.801c0.128-0.269,0.333-0.449,0.616-0.544
		c0.106-0.035,0.244-0.065,0.413-0.092c0.168-0.026,0.305-0.057,0.411-0.092c0.55-0.182,0.925-0.415,1.126-0.697
		c0.201-0.283,0.193-0.752-0.023-1.408l-5.007-15.125c-0.11-0.336-0.092-0.663,0.06-0.978s0.395-0.529,0.732-0.64
		c0.354-0.118,0.685-0.099,0.991,0.055c0.306,0.155,0.519,0.409,0.636,0.763l5.024,15.178c0.363,1.099,0.376,2.072,0.038,2.922
		c-0.338,0.849-1.11,1.474-2.314,1.872C103.685,52.11,103.101,52.215,102.57,52.214z"/>
	<path d="M110.105,41.244c-1.537-0.977-2.57-2.612-3.098-4.904c-0.297-1.292-0.336-2.537-0.113-3.738
		c0.221-1.201,0.746-2.25,1.572-3.15c0.828-0.899,1.961-1.514,3.397-1.845c1.347-0.31,2.583-0.264,3.71,0.138
		c1.126,0.401,2.064,1.066,2.814,1.995s1.268,2.012,1.553,3.248c0.08,0.346,0.033,0.664-0.14,0.952s-0.451,0.477-0.833,0.565
		l-9.25,2.13c0.439,1.24,1.141,2.123,2.104,2.647c0.965,0.525,2.164,0.623,3.602,0.292c0.765-0.176,1.416-0.402,1.955-0.68
		c0.541-0.278,1.051-0.616,1.534-1.014c0.128-0.106,0.284-0.181,0.466-0.222c0.291-0.067,0.568-0.026,0.833,0.124
		c0.265,0.15,0.433,0.379,0.503,0.688c0.094,0.4-0.066,0.791-0.477,1.172c-0.617,0.564-1.248,1.026-1.894,1.384
		c-0.646,0.36-1.514,0.666-2.604,0.917C113.519,42.455,111.642,42.222,110.105,41.244z M117.302,32.763
		c-0.259-0.878-0.662-1.571-1.21-2.077c-0.548-0.506-1.153-0.831-1.819-0.975c-0.665-0.144-1.308-0.145-1.926-0.002
		c-0.618,0.142-1.195,0.423-1.73,0.844s-0.935,0.977-1.196,1.669c-0.262,0.692-0.317,1.491-0.167,2.395L117.302,32.763z"/>
	<path d="M127.208,39.036c-1.194-0.479-2.186-1.242-2.977-2.287c-0.792-1.046-1.264-2.32-1.417-3.824
		c-0.153-1.505,0.053-2.848,0.618-4.032c0.563-1.183,1.382-2.129,2.454-2.839c1.072-0.709,2.278-1.132,3.614-1.269
		c0.984-0.1,1.847-0.061,2.588,0.117c0.74,0.177,1.436,0.431,2.089,0.758c0.396,0.204,0.614,0.51,0.656,0.918
		c0.028,0.279-0.053,0.545-0.242,0.799c-0.19,0.253-0.425,0.395-0.702,0.423c-0.205,0.021-0.415-0.014-0.631-0.104
		c-0.645-0.253-1.192-0.428-1.643-0.523c-0.451-0.095-1.002-0.109-1.651-0.043c-1.598,0.163-2.804,0.75-3.62,1.762
		s-1.148,2.27-0.996,3.774c0.154,1.504,0.732,2.669,1.734,3.497c1.004,0.826,2.305,1.159,3.902,0.997
		c0.649-0.066,1.186-0.191,1.607-0.375c0.423-0.184,0.924-0.464,1.505-0.842c0.192-0.133,0.392-0.208,0.597-0.23
		c0.277-0.028,0.535,0.063,0.773,0.273c0.236,0.21,0.369,0.455,0.397,0.733c0.042,0.409-0.11,0.753-0.458,1.032
		c-0.572,0.453-1.205,0.84-1.894,1.164c-0.689,0.323-1.526,0.535-2.511,0.635C129.667,39.686,128.401,39.514,127.208,39.036z"/>
	<path d="M139.609,35.377l0.016-8.68l-1.988-0.004c-0.148,0-0.275-0.052-0.377-0.154c-0.104-0.103-0.154-0.229-0.153-0.378
		c0-0.187,0.085-0.345,0.253-0.476l3.815-3.717c0.168-0.167,0.327-0.251,0.476-0.251c0.15,0,0.275,0.056,0.378,0.168
		s0.153,0.243,0.153,0.393l-0.004,2.24l3.164,0.006c0.316,0,0.578,0.104,0.783,0.31c0.205,0.206,0.307,0.467,0.307,0.785
		c-0.001,0.298-0.104,0.555-0.31,0.769c-0.206,0.214-0.468,0.321-0.784,0.32l-3.164-0.006l-0.017,8.456
		c-0.001,0.728,0.171,1.19,0.516,1.387c0.345,0.197,0.778,0.296,1.302,0.297c0.373,0,0.746-0.055,1.12-0.166
		c0.074-0.019,0.154-0.037,0.237-0.055c0.085-0.019,0.191-0.028,0.322-0.028c0.262,0.001,0.494,0.099,0.7,0.295
		c0.204,0.196,0.308,0.435,0.306,0.715c0,0.429-0.216,0.755-0.646,0.979c-0.728,0.334-1.503,0.501-2.325,0.499
		C140.964,39.076,139.605,37.841,139.609,35.377z"/>
	<path d="M156.794,39.367c-0.195-0.282-0.262-0.597-0.198-0.947l3.081-16.999c0.063-0.349,0.236-0.625,0.521-0.83
		c0.284-0.206,0.601-0.275,0.95-0.212c0.348,0.063,0.624,0.241,0.827,0.534s0.272,0.614,0.21,0.962l-1.589,8.762l11.161-7.88
		c0.311-0.247,0.648-0.338,1.016-0.271c0.312,0.057,0.564,0.211,0.756,0.464s0.259,0.535,0.202,0.847
		c-0.067,0.368-0.22,0.634-0.458,0.799l-7.513,5.183l5.633,10.526c0.155,0.293,0.208,0.578,0.158,0.854
		c-0.042,0.333-0.203,0.599-0.485,0.794c-0.281,0.195-0.598,0.262-0.946,0.198c-0.423-0.077-0.724-0.302-0.901-0.676l-5.465-10.352
		l-3.716,2.599l-0.935,5.152c-0.062,0.349-0.24,0.621-0.531,0.814c-0.291,0.194-0.611,0.259-0.961,0.196
		C157.262,39.821,156.99,39.648,156.794,39.367z"/>
	<path d="M175.003,43.234c-0.561-0.538-0.935-1.178-1.123-1.918c-0.188-0.74-0.15-1.509,0.113-2.307
		c0.434-1.312,1.297-2.187,2.591-2.625c1.294-0.438,2.942-0.327,4.946,0.335l3.218,1.062l0.069-0.213
		c0.387-1.17,0.375-2.107-0.029-2.811c-0.408-0.704-1.223-1.258-2.445-1.662c-0.674-0.223-1.29-0.367-1.848-0.433
		c-0.559-0.066-1.191-0.098-1.898-0.096c-0.154-0.012-0.275-0.032-0.363-0.061c-0.268-0.088-0.465-0.261-0.596-0.521
		c-0.131-0.259-0.148-0.531-0.056-0.814c0.158-0.479,0.499-0.739,1.024-0.782c1.717-0.141,3.355,0.046,4.916,0.561
		c1.223,0.403,2.174,0.993,2.852,1.767c0.679,0.774,1.088,1.622,1.227,2.542s0.055,1.841-0.249,2.763l-2.483,7.525
		c-0.111,0.336-0.324,0.581-0.639,0.732c-0.315,0.151-0.643,0.171-0.979,0.061c-0.337-0.112-0.583-0.321-0.736-0.627
		c-0.156-0.306-0.177-0.628-0.066-0.964l0.229-0.691c-1.756,0.915-3.645,1.038-5.666,0.371
		C176.232,44.17,175.562,43.772,175.003,43.234z M181.066,42.773c0.854-0.141,1.621-0.414,2.305-0.817l0.736-2.233l-2.897-0.957
		c-2.677-0.883-4.247-0.624-4.708,0.776c-0.211,0.638-0.164,1.224,0.143,1.757c0.305,0.533,0.963,0.966,1.974,1.3
		C179.398,42.856,180.213,42.915,181.066,42.773z"/>
	<path d="M188.322,47.577c-0.102-0.328-0.068-0.649,0.098-0.962l5.621-10.615c0.166-0.313,0.416-0.525,0.748-0.634
		c0.332-0.108,0.654-0.08,0.969,0.085c0.312,0.166,0.523,0.419,0.627,0.76c0.105,0.341,0.074,0.668-0.092,0.981l-0.537,1.015
		c0.811-0.416,1.655-0.665,2.535-0.749c0.879-0.083,1.837,0.15,2.877,0.7c0.924,0.489,1.584,1.156,1.982,2
		c0.397,0.844,0.548,1.696,0.454,2.553c1.921-1.156,3.889-1.203,5.901-0.137c0.924,0.49,1.572,1.129,1.947,1.919
		c0.375,0.789,0.518,1.625,0.43,2.508s-0.341,1.721-0.76,2.513l-3.775,7.126c-0.166,0.313-0.416,0.518-0.752,0.614
		c-0.336,0.097-0.662,0.062-0.976-0.104s-0.521-0.414-0.62-0.741c-0.102-0.328-0.069-0.648,0.098-0.962l3.537-6.68
		c0.568-1.073,0.795-1.961,0.684-2.666c-0.114-0.704-0.633-1.3-1.556-1.79c-0.841-0.446-1.655-0.596-2.438-0.452
		c-0.785,0.145-1.579,0.458-2.383,0.94l-3.932,7.422c-0.166,0.314-0.417,0.519-0.754,0.615c-0.336,0.096-0.66,0.062-0.975-0.104
		c-0.312-0.166-0.52-0.413-0.62-0.741c-0.103-0.328-0.069-0.648,0.097-0.962l3.539-6.681c0.568-1.073,0.795-1.96,0.683-2.665
		c-0.114-0.704-0.632-1.3-1.556-1.79c-0.84-0.446-1.654-0.596-2.439-0.451c-0.783,0.144-1.578,0.458-2.382,0.94l-3.931,7.422
		c-0.167,0.313-0.418,0.519-0.754,0.615c-0.336,0.096-0.661,0.061-0.975-0.104C188.629,48.151,188.421,47.904,188.322,47.577z"/>
	<path d="M206.014,64.944c-0.036-0.349,0.056-0.662,0.274-0.941l11.373-14.53c0.219-0.279,0.498-0.439,0.84-0.481
		c0.34-0.042,0.65,0.047,0.93,0.266c0.278,0.219,0.443,0.501,0.491,0.848c0.05,0.346-0.036,0.659-0.254,0.938l-0.448,0.573
		c1.946-0.276,3.641,0.148,5.081,1.276c0.911,0.712,1.595,1.62,2.047,2.722c0.454,1.101,0.585,2.296,0.397,3.582
		c-0.189,1.287-0.75,2.525-1.682,3.715c-0.933,1.191-2,2.032-3.203,2.525c-1.203,0.492-2.394,0.65-3.572,0.475
		c-1.178-0.176-2.223-0.621-3.135-1.333c-1.439-1.127-2.26-2.67-2.459-4.627l-4.4,5.622c-0.229,0.294-0.516,0.461-0.855,0.503
		c-0.342,0.042-0.658-0.053-0.952-0.283C206.207,65.575,206.05,65.292,206.014,64.944z M219.77,63.498
		c1.202-0.173,2.298-0.892,3.287-2.156s1.425-2.501,1.304-3.71c-0.121-1.208-0.725-2.238-1.812-3.09
		c-0.677-0.529-1.43-0.876-2.262-1.04c-0.831-0.165-1.67-0.176-2.518-0.033l-3.623,4.63c0.063,0.856,0.275,1.668,0.635,2.436
		c0.359,0.767,0.877,1.416,1.553,1.945C217.421,63.332,218.568,63.67,219.77,63.498z"/>
</g>
</svg>
