<svg width="24" height="24" viewBox="0 0 24 24" fill="none" xmlns="http://www.w3.org/2000/svg">
<path d="M1.89336 18.3571C1.7373 18.052 1.73836 15.9234 1.61348 14.5807C1.52354 13.6136 1.47396 12.0589 1.38542 10.7892C1.23115 8.5768 1.07394 7.51976 1.04959 7.32179C0.996806 6.89259 0.991273 6.55758 1.0093 6.22301C1.02965 5.84503 2.47083 5.71966 3.7373 5.552C4.52838 5.44728 5.31367 5.69549 8.33829 5.46974C11.3629 5.244 16.3065 5.06666 18.8645 5.01514C21.4225 4.96361 21.445 5.04326 21.4573 5.25976C21.4697 5.47625 21.4712 5.82716 21.5949 6.64543C21.7185 7.46369 21.9643 8.73868 22.1493 9.96942C22.3343 11.2002 22.4512 12.348 22.5131 13.1949C22.6122 14.5508 22.6708 15.6724 22.8175 16.6217C22.8726 16.9785 22.8987 17.0799 22.8752 17.1574C22.6755 17.8149 20.7386 17.6684 19.1953 18.2775C18.5255 18.5419 17.8611 18.6092 16.8987 18.8195C16.2054 18.9711 15.6185 19.0322 14.4396 19.1608C13.6609 19.2457 12.504 19.2414 11.751 19.2344C10.6796 19.2244 10.049 19.1199 9.37806 19.0668C8.59317 19.0046 8.04986 18.9461 7.08109 18.8828C6.22629 18.8215 4.63412 18.7009 3.7605 18.6354C2.88687 18.5699 2.07342 18.709 1.89336 18.3571Z" fill="#83CEEB"/>
<path d="M18.8535 4.46483C20.1193 4.43934 20.809 4.44475 21.1836 4.4912C21.3477 4.51156 21.5819 4.55104 21.7617 4.70311C21.9435 4.85702 21.9887 5.05296 22.001 5.15819L22.0068 5.2285L22.0322 5.68261C22.0488 5.89014 22.079 6.16887 22.1387 6.56346C22.1993 6.96483 22.29 7.4801 22.3906 8.05858C22.4906 8.63351 22.5998 9.26545 22.6933 9.88768C22.8806 11.1334 22.9987 12.2957 23.0615 13.1553C23.162 14.531 23.2191 15.6176 23.3613 16.5381C23.3858 16.6968 23.4095 16.8366 23.4209 16.9228C23.4321 17.0077 23.4503 17.1562 23.4014 17.3174C23.2728 17.7405 22.8952 17.9378 22.6269 18.0391C22.338 18.1481 21.9802 18.2171 21.6328 18.2773C20.8972 18.4048 20.1022 18.511 19.3975 18.7891C19.0193 18.9383 18.6498 19.0287 18.2676 19.1074C17.8647 19.1903 17.503 19.2501 17.0166 19.3564C16.2886 19.5155 15.6685 19.5804 14.499 19.708C13.6819 19.7971 12.4912 19.7911 11.7461 19.7842C10.6507 19.774 9.96244 19.6649 9.33495 19.6152C8.53398 19.5518 8.01062 19.4946 7.04491 19.4316H7.04198C6.1861 19.3703 4.59233 19.249 3.71972 19.1836C3.52067 19.1687 3.32103 19.1657 3.12108 19.1641C2.92833 19.1625 2.72118 19.1628 2.53808 19.1533C2.35866 19.144 2.15373 19.123 1.96776 19.0625C1.7772 19.0004 1.53955 18.8737 1.40331 18.6074C1.3415 18.4865 1.31404 18.3443 1.29882 18.2539C1.28033 18.144 1.26634 18.0146 1.2539 17.8769C1.22892 17.6005 1.2098 17.2528 1.19237 16.8838C1.15697 16.1339 1.12631 15.2867 1.06542 14.6318C0.975619 13.6662 0.922354 12.0526 0.836904 10.8271C0.683803 8.63161 0.528453 7.58834 0.503896 7.38866C0.446987 6.92581 0.440287 6.55841 0.459951 6.19335L0.469716 6.10839C0.50363 5.91608 0.611787 5.77496 0.709951 5.68554C0.817751 5.58738 0.943456 5.52207 1.04979 5.47655C1.26411 5.38485 1.53354 5.31996 1.80272 5.26854C2.34441 5.16507 3.05382 5.08774 3.66503 5.00682C4.11927 4.94669 4.59023 4.98751 5.21679 5.00682C5.87226 5.02702 6.80556 5.03218 8.29686 4.92089C11.3356 4.69409 16.2909 4.51645 18.8535 4.46483ZM21.04 6.65136C20.8474 6.88472 20.6638 7.10352 20.5146 7.26757C20.1289 7.69162 19.7214 8.09106 19.2451 8.68749C17.7495 10.5607 16.2802 11.6745 14.5723 12.9883C13.9428 13.4724 13.1944 14.0717 12.5264 14.4883C12.1923 14.6965 11.8446 14.8819 11.5146 14.9814C11.1979 15.077 10.7786 15.1287 10.4111 14.8945C10.141 14.7224 9.72076 14.3513 8.98046 13.6885C8.2209 13.0084 7.1013 11.9985 6.333 11.248C5.63643 10.5676 4.90344 9.96056 4.1494 9.35155C3.40058 8.74675 2.6243 8.13399 1.87108 7.4619C1.79326 7.39248 1.69763 7.31921 1.59472 7.24511C1.5951 7.24826 1.5953 7.2517 1.59569 7.25487C1.61993 7.4518 1.7792 8.52293 1.93456 10.751C2.02618 12.0649 2.07107 13.5607 2.16112 14.5293C2.22509 15.2171 2.25672 16.1058 2.29101 16.832C2.30843 17.201 2.32699 17.5269 2.3496 17.7773C2.35895 17.8808 2.3692 17.9655 2.3789 18.0312C2.42885 18.0398 2.49906 18.0497 2.59569 18.0547C2.74753 18.0625 2.91902 18.0617 3.12987 18.0635C3.33374 18.0651 3.56403 18.0691 3.80175 18.0869C4.67637 18.1525 6.26646 18.2728 7.12011 18.334H7.11913C8.0896 18.3973 8.65364 18.4577 9.42186 18.5185C10.136 18.5751 10.7091 18.6748 11.7558 18.6846C12.5167 18.6916 13.6395 18.695 14.3799 18.6142C15.568 18.4846 16.1227 18.4261 16.7812 18.2822C17.2569 18.1783 17.7086 18.0997 18.0459 18.0303C18.4039 17.9566 18.7016 17.8807 18.9932 17.7656C19.8317 17.4347 20.7768 17.3092 21.4453 17.1933C21.7994 17.132 22.0597 17.0771 22.2383 17.0098C22.271 16.9974 22.2964 16.9842 22.3164 16.9746C22.3144 16.9618 22.313 16.9478 22.3105 16.9326C22.3009 16.8728 22.2876 16.7974 22.2734 16.706C22.1223 15.7281 22.0624 14.5711 21.9648 13.2353C21.9039 12.4012 21.7882 11.2665 21.6055 10.0508C21.514 9.44245 21.4076 8.8217 21.3076 8.24706C21.2082 7.6759 21.1138 7.1444 21.0508 6.72753C21.0469 6.70173 21.0437 6.67629 21.04 6.65136ZM20.5146 5.55468C20.1577 5.54759 19.6367 5.5501 18.876 5.56542C16.3226 5.61685 11.3894 5.79385 8.3789 6.01854C6.84628 6.13292 5.87454 6.12771 5.18358 6.10643C4.46377 6.08426 4.1463 6.05307 3.80956 6.09764C3.23045 6.17431 2.65982 6.23775 2.18944 6.31737C2.33488 6.42025 2.47946 6.5309 2.60351 6.64159C3.33089 7.29062 4.07805 7.88002 4.84081 8.49608C5.59841 9.10797 6.36548 9.74194 7.10155 10.4609C7.85037 11.1924 8.95312 12.1871 9.71483 12.8691C10.4825 13.5565 10.8181 13.8453 10.9941 13.9599C11.0114 13.9624 11.0702 13.966 11.1973 13.9277C11.3891 13.8698 11.6403 13.7452 11.9443 13.5557C12.5529 13.1762 13.2395 12.626 13.9023 12.1162C15.6172 10.7972 16.9831 9.75646 18.3848 8.00096C18.89 7.3682 19.3604 6.902 19.7012 6.52733C19.9167 6.29031 20.2196 5.92015 20.5146 5.55468Z" fill="black"/>
</svg>
