<svg width="43" height="43" viewBox="0 0 43 43" fill="none" xmlns="http://www.w3.org/2000/svg">
<path fill-rule="evenodd" clip-rule="evenodd" d="M37.7141 5.76566C35.4624 2.9136 31.3169 1.39909 27.3106 0.80719C23.2578 0.208406 18.8884 0.484183 15.8373 1.64148C10.4537 3.68352 7.05613 6.15597 4.85728 9.60898C2.70076 12.9955 1.81473 17.158 1.06426 22.2612C0.69842 24.7489 0.604168 27.5865 1.025 30.1536C1.48551 32.9627 3.41003 35.5947 5.11613 37.3469C7.65371 39.953 10.5396 41.8757 14.2636 42.6515C15.3186 42.8713 16.4005 42.8862 17.3807 42.8588C17.8217 42.8464 18.2164 42.8275 18.591 42.8096H18.591C19.1231 42.7841 19.6147 42.7605 20.141 42.7605H23.4649C30.9105 42.7605 37.5459 38.6633 40.3631 31.4191C41.1317 29.4428 41.9595 27.1871 42.3158 24.9069C43.3418 18.3403 41.924 11.0983 37.7141 5.76566ZM16.9013 4.44647C19.3377 3.52231 23.1594 3.22643 26.8722 3.77497C30.6315 4.3304 33.8259 5.68219 35.3594 7.62459C38.968 12.1955 40.2713 18.5583 39.3517 24.4438C39.0507 26.3703 38.3351 28.3568 37.5671 30.3317C35.2314 36.3378 29.7671 39.7605 23.4649 39.7605H20.141C19.5728 39.7605 18.9261 39.7904 18.3191 39.8184L18.3189 39.8184L18.3186 39.8184L18.3184 39.8184C17.9552 39.8352 17.6062 39.8513 17.2968 39.8599C16.3829 39.8855 15.5816 39.8617 14.8755 39.7145C11.8851 39.0915 9.50623 37.5553 7.26555 35.254C5.71666 33.6633 4.29823 31.576 3.98548 29.6683C3.6273 27.4834 3.69848 24.9679 4.03234 22.6977C4.78223 17.5984 5.60816 14.015 7.38777 11.2204C9.12506 8.4922 11.8878 6.34814 16.9013 4.44647ZM11.5691 18.615L11.295 18.5237L11.0066 18.5406C10.3345 18.5802 9.9023 18.9856 9.71548 19.1917C9.4966 19.4332 9.33706 19.7078 9.22229 19.9449C8.98865 20.4276 8.81839 21.0108 8.73385 21.5746C8.65281 22.1151 8.62435 22.8084 8.82354 23.4492C8.92709 23.7823 9.11604 24.1768 9.46609 24.5061C9.83877 24.8566 10.3124 25.0547 10.8235 25.086C11.2624 25.1129 11.7179 25.0235 12.1274 24.7647C12.5194 24.5169 12.7552 24.1857 12.897 23.9212C13.035 23.6639 13.1162 23.4082 13.1662 23.2358C13.1916 23.1481 13.2144 23.0619 13.2323 22.9945L13.2323 22.9945L13.2337 22.989C13.2534 22.9147 13.2674 22.862 13.2813 22.8141C13.4003 22.4043 13.375 21.9663 13.3496 21.7052C13.3185 21.3862 13.254 21.0397 13.1643 20.7097C13.0767 20.3877 12.9489 20.0217 12.7673 19.691C12.6311 19.4432 12.274 18.85 11.5691 18.615ZM21.2553 19.0535C21.779 18.7483 22.3311 18.6819 22.7287 18.6819H23.1442L23.5004 18.8956C24.6661 19.595 24.9124 20.8616 24.9164 21.694C24.9206 22.5678 24.6793 23.4821 24.31 24.1441C24.0615 24.5897 23.7118 24.9077 23.48 25.1024C23.364 25.1998 23.2465 25.2911 23.1556 25.3617L23.1555 25.3618L23.1554 25.3619L23.1401 25.3738C23.0374 25.4536 22.97 25.5066 22.9149 25.5538C22.6409 25.7887 22.3484 25.8964 22.1312 25.9481C21.9176 25.999 21.7268 26.0076 21.6006 26.0081C21.476 26.0086 21.3606 26.0006 21.2986 25.9963L21.2946 25.996C21.2318 25.9917 21.2153 25.9909 21.2153 25.9907L21.2206 25.9907C20.8274 25.9907 20.4214 25.8535 20.1871 25.7565C20.0409 25.696 19.8605 25.6096 19.6841 25.4912C19.5496 25.4009 19.2196 25.165 19.0192 24.7419C18.4216 23.4802 18.8596 22.1251 19.2887 21.2845C19.7387 20.4028 20.4661 19.5134 21.2553 19.0535ZM21.8686 21.3873C21.869 21.3869 21.8717 21.3906 21.8757 21.3998C21.8702 21.3923 21.8683 21.3877 21.8686 21.3873ZM32.4999 17.4914C31.7746 17.4914 31.1576 17.805 30.7156 18.1367C30.2587 18.4796 29.8696 18.9285 29.573 19.4093C29.0224 20.3016 28.5639 21.7105 29.1602 23.0354C29.6756 24.1808 30.5716 24.8058 31.4334 25.2052C32.4879 25.6938 33.4055 25.2322 33.7607 25.0478C34.2166 24.811 34.6732 24.4732 34.9963 23.9463C35.316 23.4248 35.411 22.8708 35.4265 22.375C35.4277 22.3344 35.4292 22.2925 35.4308 22.2492C35.4567 21.517 35.4961 20.406 34.7104 19.3288C34.7122 19.3312 34.7132 19.3325 34.7133 19.3325C34.7136 19.3323 34.7107 19.3273 34.7036 19.3149C34.6913 19.2935 34.6665 19.2501 34.6234 19.1721L34.611 19.1498C34.5457 19.0316 34.4497 18.8578 34.3424 18.6888C34.2336 18.5174 34.0644 18.2713 33.8356 18.0539C33.6277 17.8564 33.1704 17.4914 32.4999 17.4914ZM34.7104 19.3288C34.7093 19.3271 34.7081 19.3255 34.7069 19.3239L34.7091 19.327C34.7096 19.3276 34.71 19.3282 34.7104 19.3288ZM31.8959 21.8044C31.8935 21.799 31.8656 21.7302 31.894 21.5634C31.9225 21.3962 31.9993 21.1901 32.1262 20.9844C32.1399 20.9622 32.1539 20.9405 32.168 20.9195C32.2012 20.9731 32.241 21.0342 32.2858 21.0954C32.4251 21.2858 32.4552 21.4093 32.4279 22.2813C32.4272 22.3053 32.426 22.3261 32.4247 22.3438C32.1252 22.1691 31.9844 22.001 31.8959 21.8044ZM32.6117 20.4767C32.612 20.4766 32.6122 20.4765 32.6122 20.4765C32.6122 20.4764 32.611 20.4768 32.6086 20.4778C32.6101 20.4773 32.6112 20.4769 32.6117 20.4767Z" fill="black"/>
</svg>
