<?xml version="1.0" encoding="utf-8"?>
<!-- Generator: Adobe Illustrator 22.1.0, SVG Export Plug-In . SVG Version: 6.00 Build 0)  -->
<svg version="1.1" id="Layer_1" xmlns="http://www.w3.org/2000/svg" xmlns:xlink="http://www.w3.org/1999/xlink" x="0px" y="0px"
	 viewBox="0 0 476.8 147.4" style="enable-background:new 0 0 476.8 147.4;" xml:space="preserve">
<style type="text/css">
	.st0{fill:#FFFFFF;}
</style>
<path class="st0" d="M1.5,63.4C-0.9,75.4-0.2,73.1,0,85.7s5.1,24.9,12,33.4c6.5,8.1,13,15.3,32.5,20.9c19.1,5.5,38.3,8.2,68.3,6.4
	c30.1-1.8,52.3-4.3,65-6.4c26.5-4.5,45.3-6.7,86.3-6.7c84,0,64.7,9.9,154.9-3.8c17.8-2.7,40.7-23.3,44.9-28.6
	c4.2-5.4,15.2-21.1,12.2-51.7S435.8,4.5,409,2.4s-92-4.3-150.3,5.3c-61.4,9.9-66.9,3.5-110.2,2.7c-39.4-0.6-62.7-4.3-102,8.5
	C24.3,25.9,8.6,27.8,1.5,63.4z"/>
</svg>
