<?xml version="1.0" encoding="utf-8"?>
<!-- Generator: Adobe Illustrator 25.0.0, SVG Export Plug-In . SVG Version: 6.00 Build 0)  -->
<svg version="1.1" id="Layer_1" xmlns="http://www.w3.org/2000/svg" xmlns:xlink="http://www.w3.org/1999/xlink" x="0px" y="0px"
	 viewBox="0 0 283.5 283.5" style="enable-background:new 0 0 283.5 283.5;" xml:space="preserve">
<style type="text/css">
	.st0{fill:#E95628;}
	.st1{fill:#FFFFFF;}
</style>
<g id="Calque_1">
	<path class="st0" d="M283.4,133.1c-0.1-1.3-0.2-2.7-0.3-4.1c-0.1-2.4-0.3-4.8-0.7-7.2c-1.2-7-3.1-13.9-5.5-20.6
		c-2-5.7-3.8-10.9-5.7-16c-0.5-1.2-0.9-2.5-1.3-3.8c-1.3-3.7-2.6-7.6-4.8-10.8c-1.9-2.8-3.6-5.7-5.4-8.6c-3.1-5.1-6.2-10.3-10.2-15
		c-3.8-4.5-7.1-7.5-10.6-9.8c-2.7-1.7-5.1-3.7-7.2-6.1c-4.9-5.8-11-10.5-17.9-13.9c-7.5-3.6-15.6-7.4-24-10
		c-0.9-0.3-1.9-0.6-2.8-0.9c-2.7-1-5.4-1.8-8.3-2.3c-3.6-0.6-7.8-1.3-11.9-2.2c-4.8-1.1-9.7-1.7-14.7-1.9c-3.5-0.1-7.1,0-10.6,0.4
		c-1.9,0.1-3.8,0.3-5.7,0.3c-3,0-6,0.3-9,0.9c-4.7,1.1-9.5,1.9-14.2,2.8l-1.3,0.2c-1,0.2-2.1,0.3-3.1,0.5c-2.5,0.3-4.9,0.8-7.3,1.4
		c-2.5,0.7-4.9,1.6-7.3,2.5c-1.5,0.6-3.1,1.2-4.6,1.7c-7.1,2.5-14,5.6-20.5,9.3C59.7,25,51.4,30.9,43.7,37.6
		c-3.5,3.1-6.5,6.7-9.1,10.6c-1.8,2.6-3.5,5.3-5.1,7.9c-1.3,2.2-2.7,4.4-4.2,6.5c-5.2,7.8-9.6,16.1-13.2,24.8l-0.8,1.9
		c-1.9,4.5-3.9,9.3-5.6,14c-2.4,6.8-3.4,13.6-4.4,21.3c-0.4,3.3-0.6,6.5-0.7,9.7c-0.1,2.3-0.2,4.7-0.4,7.1
		c-0.5,6.1-0.2,12.2,0.8,18.3c0.1,1,0.3,2,0.4,3c0.4,3.6,1.1,7.2,2,10.7c2.6,9.5,6,18.7,10.2,27.6c4.8,10.2,10.9,19.7,16.1,27.9
		c3.4,5.3,7.2,10.4,11.3,15.2c3.7,4.3,8,7.9,12.9,10.6c2.1,1.2,4.2,2.5,6.2,3.7c2.2,1.4,4.5,2.8,6.9,4.1c1.9,1.1,3.8,2.3,5.7,3.4
		c5,3.1,10.2,6.2,15.9,8.3c1.9,0.7,3.8,1.5,5.7,2.3c3.6,1.7,7.3,3,11.1,3.9c1.6,0.3,3.2,0.6,4.7,0.8l2.8,0.4
		c1.6,0.3,3.2,0.4,4.8,0.5c1.5,0.1,3.1,0.2,4.6,0.5c4.1,0.6,8.2,0.9,12.3,1c2.4,0.1,4.8,0.1,7.2,0.3c1.6,0.1,3.2,0.2,4.8,0.2
		c4.9,0,9.9-0.5,14.7-1.4c1.9-0.3,3.9-0.6,5.8-0.8c3.1-0.3,6.2-0.8,9.2-1.5c1.9-0.5,3.8-1.1,5.7-1.8c1.3-0.4,2.6-0.9,4-1.3
		c6.5-1.9,12.8-4.5,18.8-7.6c3.7-2,7.3-4.1,10.8-6.3c4.1-2.4,8.3-5,12.6-7.1c2.3-1.1,4.4-2.6,6.3-4.3c5.1-5.3,11.1-11.6,16.8-18.5
		c4.4-5.2,8.9-10.9,12.3-17.4c1-1.8,1.8-3.7,2.6-5.5c1.2-2.6,2.5-5.2,3.9-7.7c4.9-8.1,10.6-26.2,10.6-26.2c1.2-3.9,2-8,2.3-12.1
		c0.1-1.6,0.3-3.2,0.5-4.7c0.5-3.3,0.7-6.7,0.7-10.1C284.2,143.8,283.9,138.4,283.4,133.1z"/>
</g>
<path class="st1" d="M252.4,76.6c-0.6-4.9-5.1-8.4-10-7.8c-30,3.7-57.6,9.4-81.9,15.9l-3.9-23.5c-0.8-4.9-5.4-8.2-10.3-7.4
	c-4.9,0.8-8.2,5.4-7.4,10.3l4.2,25.5c-20,6-37.4,12.5-51.6,18.6c-1.4-4.6-2.7-9-3.8-13.2c-1.2-4.8-6.1-7.7-10.9-6.5
	c-4.8,1.2-7.7,6.1-6.5,10.9c1.3,5.2,2.9,10.6,4.7,16.3c-8,3.9-14.4,7.4-19,10.3c-4.2,2.6-5.5,8.2-2.8,12.3c1.7,2.7,4.6,4.2,7.6,4.2
	c1.6,0,3.3-0.4,4.7-1.4c3.9-2.4,9-5.3,15.4-8.5c4.7,12.8,10.2,26.2,15.9,39.1c-10.6,3-19.4,5.1-24.6,6.2c-4.8,1-8,5.7-7,10.6
	c0.9,4.2,4.6,7.2,8.8,7.2c0.6,0,1.2-0.1,1.8-0.2c6-1.2,16.2-3.7,28.5-7.3c9.3,20.1,18.4,38,24.6,49.7c1.6,3,4.7,4.7,7.9,4.7
	c1.4,0,2.9-0.3,4.2-1.1c4.4-2.3,6-7.8,3.6-12.1c-5.9-11.1-14.4-27.8-23.2-46.6c8.7-2.9,17.9-6.3,26.8-10c2.7-1.1,5.3-2.2,8-3.2
	l8.2,49.6c0.7,4.4,4.5,7.5,8.8,7.5c0.5,0,1,0,1.5-0.1c4.9-0.8,8.2-5.4,7.4-10.3l-8.7-52.6c17.3-5.3,31.9-8.1,38.9-8.9
	c4.9-0.6,8.4-5,7.9-9.9c-0.6-4.9-5-8.4-9.9-7.9c-7.3,0.8-22.1,3.6-39.8,8.9l-7.2-43.5c23.9-6.5,51.2-12.2,81.2-15.8
	C249.5,86,253,81.5,252.4,76.6z M153.4,151.6c-3.9,1.4-7.9,3-12,4.7c-9.1,3.8-18.5,7.2-27.3,10.2c-6-13.6-11.9-27.8-16.8-41.3
	c13.4-5.8,29.8-11.9,48.8-17.8L153.4,151.6z"/>
</svg>
