<?xml version="1.0" encoding="utf-8"?>
<!-- Generator: Adobe Illustrator 25.0.0, SVG Export Plug-In . SVG Version: 6.00 Build 0)  -->
<svg version="1.1" id="Layer_1" xmlns="http://www.w3.org/2000/svg" xmlns:xlink="http://www.w3.org/1999/xlink" x="0px" y="0px"
	 viewBox="0 0 283.5 283.5" style="enable-background:new 0 0 283.5 283.5;" xml:space="preserve">
<style type="text/css">
	.st0{fill:#FFFFFF;}
	.st1{fill:#ECC2C4;}
	.st2{fill:#E29287;}
	.st3{fill:#141414;}
</style>
<g id="Calque_1">
	<path class="st0" d="M230,133.5c-0.1-1.5-0.2-3-0.4-4.4c-0.7-3.9-1.7-8-3.4-12.9c-1.3-3.6-2.4-6.9-3.6-10.2
		c-0.3-0.8-0.6-1.6-0.9-2.5c-0.8-2.3-1.6-4.6-2.9-6.6c-1.2-1.8-2.4-3.7-3.5-5.5c-1.9-3.2-3.9-6.5-6.4-9.4c-2.3-2.8-4.3-4.6-6.4-6
		c-1.9-1.1-3.5-2.5-4.9-4.2c-3-3.5-6.7-6.4-10.9-8.4c-4.7-2.3-9.8-4.6-15.1-6.3c-0.6-0.2-1.2-0.4-1.8-0.6c-1.6-0.6-3.3-1.1-5-1.4
		c-2.3-0.4-5-0.8-7.7-1.4c-3-0.7-6-1.1-9.1-1.2c-0.4,0-0.9,0-1.3,0c-1.8,0-3.5,0.1-5.3,0.2c-1.2,0.1-2.5,0.2-3.7,0.2
		c-1.8,0-3.6,0.2-5.4,0.6c-3,0.7-6.1,1.3-9.1,1.8l-0.8,0.1c-0.7,0.1-1.3,0.2-2,0.3c-1.5,0.2-3,0.5-4.5,0.9c-1.5,0.4-3,1-4.5,1.5
		c-1,0.4-2,0.7-3,1.1c-3.9,1.3-8,3.2-12.8,5.9C90,68.4,84.8,72,80,76.2c-2.1,1.9-4,4.1-5.6,6.4c-1.1,1.6-2.2,3.3-3.2,5
		c-0.9,1.4-1.8,2.8-2.7,4.2c-3.2,4.9-6,10.1-8.3,15.5l-0.5,1.2c-1.2,2.9-2.5,5.9-3.5,8.8c-1.5,4.2-2.1,8.5-2.7,13.3
		c-0.3,2-0.3,4.1-0.4,6c-0.1,1.5-0.1,3-0.3,4.6c-0.3,3.4-0.1,7.1,0.5,11.3c0.1,0.6,0.2,1.3,0.3,1.9c0.3,2.2,0.7,4.5,1.2,6.6
		c1.6,6,3.7,11.8,6.4,17.3c3.1,6.4,6.8,12.4,10.2,17.6c2.1,3.3,4.5,6.5,7.1,9.6c2.2,2.6,4.9,4.8,7.8,6.5c1.3,0.8,2.7,1.6,4,2.4
		c1.4,0.9,2.9,1.8,4.3,2.6c1.2,0.7,2.5,1.5,3.7,2.2c3.1,1.9,6.4,3.9,9.9,5.1c1.3,0.5,2.5,1,3.7,1.5c2.2,0.9,4.4,1.9,6.8,2.4
		c1,0.2,2,0.4,2.9,0.5c0.6,0.1,1.2,0.2,1.8,0.3c1,0.1,1.9,0.2,2.9,0.3c1,0,2.1,0.1,3.1,0.3c2.5,0.4,5.1,0.5,7.7,0.6
		c1.5,0,3.1,0.1,4.7,0.2c3.6,0.3,7.4,0,12.1-0.8c1.3-0.2,2.5-0.4,3.8-0.5c1.9-0.2,3.8-0.5,5.6-0.9c1.2-0.3,2.4-0.7,3.5-1.1
		c0.8-0.3,1.7-0.6,2.6-0.8c4-1.2,8-2.8,11.7-4.7c2.3-1.2,4.6-2.6,6.8-4c2.6-1.6,5.3-3.2,8.1-4.6c1.3-0.6,2.5-1.5,3.6-2.5
		c3.2-3.4,7-7.4,10.6-11.7c2.7-3.3,5.6-6.8,7.7-10.8c0.6-1.1,1.1-2.3,1.7-3.5c0.8-1.7,1.6-3.4,2.6-5.1c3-5,6.5-16.1,6.6-16.4
		c0.7-2.4,1.2-4.9,1.4-7.4c0.1-1,0.2-2.1,0.3-3.1c0.3-2.1,0.4-4.1,0.5-6.2c-0.1-3.7-0.2-7.1-0.5-10.5
		C230.1,135.2,230.1,134.4,230,133.5z"/>
	<path class="st1" d="M230,133.5c-0.1-1.5-0.2-3-0.4-4.4c-0.7-3.9-1.7-8-3.4-12.9c-1.3-3.6-2.4-6.9-3.6-10.2
		c-0.3-0.8-0.6-1.6-0.9-2.5c-0.8-2.3-1.6-4.6-2.9-6.6c-1.2-1.8-2.4-3.7-3.5-5.5c-1.9-3.2-3.9-6.5-6.4-9.4c-2.3-2.8-4.3-4.6-6.4-6
		c-1.9-1.1-3.5-2.5-4.9-4.2c-3-3.5-6.7-6.4-10.9-8.4c-4.7-2.3-9.8-4.6-15.1-6.3c-0.6-0.2-1.2-0.4-1.8-0.6c-1.6-0.6-3.3-1.1-5-1.4
		c-2.3-0.4-5-0.8-7.7-1.4c-3-0.7-6-1.1-9.1-1.2c-0.4,0-0.9,0-1.3,0c-1.8,0-3.5,0.1-5.3,0.2c-1.2,0.1-2.5,0.2-3.7,0.2
		c-1.8,0-3.6,0.2-5.4,0.6c-3,0.7-6.1,1.3-9.1,1.8l-0.8,0.1c-0.7,0.1-1.3,0.2-2,0.3c-1.5,0.2-3,0.5-4.5,0.9c-1.5,0.4-3,1-4.5,1.5
		c-1,0.4-2,0.7-3,1.1c-3.9,1.3-8,3.2-12.8,5.9C90,68.4,84.8,72,80,76.2c-2.1,1.9-4,4.1-5.6,6.4c-1.1,1.6-2.2,3.3-3.2,5
		c-0.9,1.4-1.8,2.8-2.7,4.2c-3.2,4.9-6,10.1-8.3,15.5l-0.5,1.2c-1.2,2.9-2.5,5.9-3.5,8.8c-1.5,4.2-2.1,8.5-2.7,13.3
		c-0.3,2-0.3,4.1-0.4,6c-0.1,1.5-0.1,3-0.3,4.6c-0.3,3.4-0.1,7.1,0.5,11.3c0.1,0.6,0.2,1.3,0.3,1.9c0.3,2.2,0.7,4.5,1.2,6.6
		c1.6,6,3.7,11.8,6.4,17.3c3.1,6.4,6.8,12.4,10.2,17.6c2.1,3.3,4.5,6.5,7.1,9.6c2.2,2.6,4.9,4.8,7.8,6.5c1.3,0.8,2.7,1.6,4,2.4
		c1.4,0.9,2.9,1.8,4.3,2.6c1.2,0.7,2.5,1.5,3.7,2.2c3.1,1.9,6.4,3.9,9.9,5.1c1.3,0.5,2.5,1,3.7,1.5c2.2,0.9,4.4,1.9,6.8,2.4
		c1,0.2,2,0.4,2.9,0.5c0.6,0.1,1.2,0.2,1.8,0.3c1,0.1,1.9,0.2,2.9,0.3c1,0,2.1,0.1,3.1,0.3c2.5,0.4,5.1,0.5,7.7,0.6
		c1.5,0,3.1,0.1,4.7,0.2c3.6,0.3,7.4,0,12.1-0.8c1.3-0.2,2.5-0.4,3.8-0.5c1.9-0.2,3.8-0.5,5.6-0.9c1.2-0.3,2.4-0.7,3.5-1.1
		c0.8-0.3,1.7-0.6,2.6-0.8c4-1.2,8-2.8,11.7-4.7c2.3-1.2,4.6-2.6,6.8-4c2.6-1.6,5.3-3.2,8.1-4.6c1.3-0.6,2.5-1.5,3.6-2.5
		c3.2-3.4,7-7.4,10.6-11.7c2.7-3.3,5.6-6.8,7.7-10.8c0.6-1.1,1.1-2.3,1.7-3.5c0.8-1.7,1.6-3.4,2.6-5.1c3-5,6.5-16.1,6.6-16.4
		c0.7-2.4,1.2-4.9,1.4-7.4c0.1-1,0.2-2.1,0.3-3.1c0.3-2.1,0.4-4.1,0.5-6.2c-0.1-3.7-0.2-7.1-0.5-10.5
		C230.1,135.2,230.1,134.4,230,133.5z"/>
	<path class="st2" d="M281,133c-0.1-1.3-0.2-2.7-0.3-4c-0.1-2.4-0.3-4.8-0.7-7.1c-1-6.1-2.7-12.6-5.4-20.3
		c-1.9-5.6-3.7-10.7-5.6-15.8c-0.5-1.2-0.9-2.5-1.3-3.7c-1.3-3.7-2.6-7.5-4.7-10.7c-1.9-2.7-3.6-5.6-5.3-8.4c-3-5-6.1-10.2-10-14.8
		c-3.8-4.5-6.9-7.4-10.5-9.7c-3-1.9-5.3-3.8-7.1-6c-4.9-5.7-10.9-10.4-17.6-13.7c-7.4-3.6-15.3-7.3-23.6-9.9
		c-0.9-0.3-1.9-0.6-2.8-0.9c-2.6-0.9-5.3-1.8-8.1-2.2c-3.5-0.6-7.7-1.3-11.8-2.2c-4.8-1.1-9.6-1.7-14.5-1.8c-3.5-0.1-7,0.1-10.4,0.4
		c-1.9,0.1-3.8,0.3-5.6,0.3c-3,0.1-6,0.3-8.8,0.9c-4.6,1.1-9.4,1.9-14,2.8l-1.2,0.2c-1,0.2-2,0.3-3,0.5c-2.4,0.3-4.8,0.8-7.2,1.4
		c-2.5,0.7-4.9,1.6-7.2,2.5c-1.5,0.6-3,1.1-4.5,1.6c-6.2,2.1-12.6,5-20.2,9.2c-8.8,4.9-17,10.6-24.6,17.2c-3.1,2.7-6.1,6.1-9,10.4
		c-1.8,2.6-3.4,5.2-5,7.8c-1.3,2.1-2.7,4.3-4.1,6.4c-5.1,7.7-9.5,15.9-13,24.4l-0.8,1.8c-1.9,4.5-3.9,9.1-5.5,13.8
		C5,110.3,4,117,2.9,124.5c-0.4,3.2-0.6,6.4-0.7,9.6c-0.1,2.3-0.2,4.6-0.4,6.9c-0.5,5.4-0.2,11.3,0.8,18c0.2,1,0.3,2,0.4,3
		c0.5,3.5,1,7.1,2,10.6c2.5,9.4,5.9,18.5,10,27.2c4.8,10,10.7,19.4,15.9,27.5c3.4,5.3,7.1,10.3,11.1,15.1c3.6,4.2,7.9,7.8,12.7,10.5
		c2.1,1.2,4.1,2.4,6.1,3.7c2.2,1.4,4.5,2.7,6.8,4c1.9,1.1,3.8,2.2,5.6,3.4c4.9,3,10,6.1,15.7,8.2c1.9,0.7,3.8,1.5,5.6,2.3
		c3.5,1.5,7.1,3,10.9,3.8c1.6,0.3,3.1,0.6,4.7,0.8c0.9,0.1,1.8,0.3,2.7,0.4c1.6,0.2,3.2,0.4,4.8,0.5c1.5,0.1,3,0.2,4.5,0.4
		c4.1,0.7,8.2,0.8,12.2,0.9c2.3,0.1,4.7,0.1,7.1,0.3c1.6,0.1,3.1,0.2,4.7,0.2c4.9,0,9.7-0.5,14.5-1.4c1.9-0.3,3.8-0.5,5.7-0.8
		c3-0.3,6.1-0.7,9.1-1.5c1.9-0.5,3.8-1.1,5.6-1.7c1.3-0.4,2.6-0.9,3.9-1.3c6.4-1.9,12.6-4.4,18.5-7.5c3.6-1.9,7.2-4.1,10.7-6.2
		c4-2.4,8.2-4.9,12.4-7c2-1,4.3-2.3,6.2-4.3c5-5.2,10.9-11.5,16.5-18.2c4.3-5.2,8.8-10.7,12.1-17.1c0.9-1.8,1.8-3.6,2.6-5.4
		c1.2-2.6,2.5-5.2,3.9-7.6c4.8-8,10.4-25.8,10.4-25.9c1.1-3.4,1.8-7.2,2.2-11.9c0.1-1.6,0.3-3.1,0.5-4.7c0.4-3.2,0.8-6.5,0.7-9.9
		C281.7,143.6,281.4,138.2,281,133z M230.3,152.9c-0.1,1-0.2,2-0.3,3.1c-0.2,2.5-0.6,5-1.4,7.4c-0.1,0.3-3.6,11.4-6.6,16.4
		c-0.9,1.6-1.8,3.3-2.6,5.1c-0.5,1.1-1.1,2.3-1.7,3.5c-2.1,4-4.9,7.5-7.7,10.8c-3.6,4.3-7.4,8.3-10.6,11.7c-1,1-2.3,1.8-3.6,2.5
		c-2.8,1.4-5.5,3-8.1,4.6c-2.2,1.3-4.5,2.7-6.8,4c-3.7,2-7.6,3.5-11.7,4.7c-0.9,0.3-1.7,0.6-2.6,0.8c-1.2,0.4-2.3,0.8-3.5,1.1
		c-1.9,0.4-3.7,0.8-5.6,0.9c-1.2,0.1-2.5,0.3-3.8,0.5c-4.6,0.8-8.5,1.1-12.1,0.8c-1.6-0.1-3.1-0.2-4.7-0.2c-2.5-0.1-5.1-0.2-7.7-0.6
		c-1-0.2-2-0.3-3.1-0.3c-1,0-1.9-0.1-2.9-0.3c-0.6-0.1-1.2-0.2-1.8-0.3c-1-0.2-2-0.3-2.9-0.5c-2.3-0.5-4.6-1.4-6.8-2.4
		c-1.2-0.5-2.5-1-3.7-1.5c-3.5-1.3-6.8-3.2-9.9-5.1c-1.2-0.7-2.4-1.5-3.7-2.2c-1.5-0.8-2.9-1.7-4.3-2.6c-1.3-0.8-2.6-1.6-4-2.4
		c-3-1.7-5.6-3.9-7.8-6.4c-2.6-3-4.9-6.2-7.1-9.6c-3.3-5.2-7.1-11.2-10.2-17.6c-2.6-5.6-4.8-11.4-6.4-17.3c-0.5-2.2-1-4.4-1.2-6.6
		c-0.1-0.6-0.2-1.3-0.3-1.9c-0.7-4.2-0.8-7.9-0.5-11.3c0.1-1.5,0.2-3.1,0.3-4.6c0.1-2,0.2-4,0.4-6c0.6-4.8,1.3-9.1,2.7-13.3
		c1-3,2.3-6,3.5-8.8l0.5-1.2c2.3-5.4,5-10.6,8.3-15.5c0.9-1.4,1.8-2.8,2.7-4.2c1-1.6,2.1-3.4,3.2-5c1.6-2.4,3.4-4.5,5.6-6.4
		c4.8-4.2,10-7.9,15.6-10.9c4.9-2.7,8.9-4.6,12.8-5.9c1-0.3,2-0.7,3-1.1c1.5-0.6,3-1.1,4.5-1.6c1.5-0.4,3-0.7,4.5-0.9
		c0.7-0.1,1.3-0.2,2-0.3l0.8-0.1c3-0.5,6.1-1.1,9.1-1.8c1.8-0.4,3.6-0.5,5.4-0.6c1.2,0,2.5-0.1,3.7-0.2c1.7-0.1,3.5-0.2,5.3-0.2
		c0.4,0,0.9,0,1.3,0c3.1,0.1,6.1,0.5,9.1,1.2c2.7,0.6,5.4,1.1,7.7,1.4c1.7,0.3,3.4,0.8,5,1.4c0.6,0.2,1.2,0.4,1.8,0.6
		c5.3,1.6,10.3,4,15.1,6.3c4.2,2,7.9,4.9,10.9,8.4c1.4,1.6,3.1,3,4.9,4.2c2.2,1.4,4.1,3.2,6.4,6c2.4,2.9,4.4,6.2,6.4,9.4
		c1.1,1.8,2.2,3.7,3.5,5.5c1.3,1.9,2.1,4.3,2.9,6.6c0.3,0.8,0.6,1.6,0.9,2.5c1.2,3.3,2.4,6.5,3.6,10.2c1.7,4.9,2.8,9,3.4,12.9
		c0.2,1.5,0.4,2.9,0.4,4.4c0.1,0.9,0.1,1.8,0.2,2.6c0.3,3.3,0.5,6.7,0.5,10.5C230.8,148.8,230.6,150.9,230.3,152.9z"/>
	<path class="st3" d="M146.2,283.4c-1.6,0-3.3-0.1-4.9-0.2c-2.3-0.2-4.7-0.3-7-0.3h0c-4-0.1-8.2-0.3-12.4-1
		c-1.4-0.2-2.9-0.3-4.3-0.4h-0.1c-1.6-0.1-3.3-0.2-4.9-0.5c-0.8-0.1-1.7-0.3-2.5-0.4l-0.2,0c-1.5-0.2-3.1-0.5-4.7-0.8
		c-4-0.8-7.7-2.4-11.2-3.9l-0.1-0.1c-1.8-0.8-3.6-1.5-5.4-2.2c-5.9-2.1-11-5.2-16-8.3c-1.8-1.1-3.7-2.3-5.6-3.3
		c-2.3-1.3-4.6-2.7-6.8-4.1c-1.9-1.1-4-2.5-6.1-3.6c-5-2.8-9.4-6.5-13.2-10.8c-4.1-4.8-7.8-9.9-11.2-15.2
		c-5.2-8.1-11.2-17.6-16-27.7C9.4,191.7,6,182.5,3.5,173c-1-3.6-1.5-7.2-2-10.8c-0.1-1-0.3-2-0.4-3c-1-6.9-1.3-12.9-0.8-18.4
		c0.2-2.3,0.3-4.6,0.4-6.8c0.1-3.2,0.2-6.5,0.7-9.8c1-7.6,2.1-14.4,4.4-21.3c1.6-4.8,3.6-9.4,5.5-13.9l0.8-1.8
		c3.6-8.6,8-16.9,13.2-24.7c1.4-2.1,2.7-4.2,4-6.3l0.1-0.1c1.6-2.6,3.3-5.3,5.1-7.9c3-4.4,6-7.9,9.3-10.7c7.7-6.7,16-12.5,24.9-17.4
		c7.7-4.3,14.2-7.3,20.5-9.4c1.5-0.5,3-1.1,4.4-1.6c2.4-0.9,4.8-1.8,7.4-2.5c2.4-0.6,4.9-1.1,7.4-1.5l0.2,0c0.9-0.1,1.9-0.3,2.8-0.5
		l1.3-0.2c4.6-0.8,9.3-1.6,13.9-2.7c3-0.7,6-0.9,9.1-1c1.8-0.1,3.7-0.2,5.5-0.3h0.1c3.4-0.2,7-0.5,10.6-0.3c5,0.2,9.9,0.8,14.8,1.9
		c4,0.9,8.2,1.6,11.6,2.2c3,0.5,5.7,1.4,8.4,2.3h0c0.9,0.3,1.8,0.6,2.8,0.9c8.4,2.6,16.4,6.4,23.8,9.9c7,3.4,13.2,8.1,18.2,14.1
		c1.7,2,3.9,3.8,6.7,5.7c3.7,2.4,7,5.4,10.9,10c4,4.7,7.1,9.9,10.2,15l0.1,0.2c1.6,2.7,3.4,5.6,5.2,8.2c2.3,3.4,3.6,7.3,4.9,11.1
		l0,0.1c0.4,1.2,0.8,2.4,1.3,3.6c1.9,5,3.7,10.2,5.6,15.9c2.7,7.8,4.4,14.3,5.5,20.6c0.4,2.4,0.6,4.8,0.7,7.3c0.1,1.2,0.1,2.6,0.3,4
		l0,0c0.5,5.2,0.8,10.6,0.9,16.5c0.1,3.5-0.4,6.9-0.7,10.1v0.1c-0.2,1.5-0.4,3-0.5,4.5c-0.4,4.8-1.2,8.7-2.3,12.2h0
		c-0.6,2.2-3.4,9.9-3.4,10c-2.7,7.3-5.1,12.8-7.1,16.2c-1.4,2.4-2.6,4.9-3.8,7.4l0,0.1c-0.8,1.7-1.7,3.7-2.7,5.5
		c-3.4,6.5-8,12.2-12.3,17.4c-5.6,6.8-11.5,13-16.6,18.3c-2,2.1-4.5,3.5-6.6,4.6c-4.2,2.1-8.3,4.6-12.3,7l-0.1,0.1
		c-3.4,2.1-7,4.2-10.7,6.1c-6,3.2-12.3,5.7-18.8,7.6c-1.3,0.4-2.6,0.8-3.8,1.2l-0.1,0c-1.9,0.6-3.8,1.2-5.7,1.8
		c-3.1,0.8-6.3,1.2-9.3,1.5h-0.1c-1.8,0.2-3.7,0.4-5.5,0.7C156.2,282.9,151.2,283.4,146.2,283.4z M117.8,278.2
		c1.6,0.1,3.1,0.2,4.6,0.5c3.9,0.7,8,0.8,11.9,0.9h0c2.4,0.1,4.8,0.1,7.2,0.3c1.5,0.1,3,0.2,4.6,0.2c4.8,0,9.5-0.5,14.2-1.4
		c1.9-0.3,3.8-0.6,5.7-0.8h0.1c2.9-0.3,5.9-0.7,8.8-1.4c1.8-0.5,3.7-1.1,5.5-1.7l0.1,0c1.3-0.4,2.6-0.9,3.9-1.3
		c6.3-1.8,12.4-4.3,18.2-7.4c3.6-1.9,7.1-4,10.5-6.1l0.1,0c4-2.4,8.2-4.9,12.5-7.1c1.9-1,4-2.2,5.7-4c5-5.2,10.9-11.4,16.4-18.1
		c4.2-5.1,8.6-10.6,11.9-16.9c0.9-1.8,1.8-3.7,2.6-5.4l0-0.1c1.2-2.6,2.5-5.2,3.9-7.7c4.4-7.3,9.6-23.3,10.2-25.3l0,0l0.1-0.2
		c1.1-3.3,1.8-7,2.2-11.5c0.1-1.5,0.3-3.1,0.5-4.6v-0.1c0.4-3.2,0.8-6.4,0.7-9.7c-0.1-5.8-0.4-11.1-0.8-16.2l0,0
		c-0.1-1.4-0.2-2.8-0.3-4.1c-0.1-2.3-0.3-4.6-0.6-6.9c-1-6-2.7-12.4-5.3-20c-1.9-5.7-3.7-10.8-5.6-15.8c-0.5-1.2-0.9-2.5-1.3-3.7
		l0-0.1c-1.2-3.6-2.5-7.3-4.6-10.3c-1.8-2.7-3.6-5.6-5.3-8.4l-0.1-0.2c-3-4.9-6.1-10-9.9-14.6c-3.7-4.3-6.7-7.1-10.1-9.4
		c-3.2-2-5.5-4-7.5-6.3c-4.7-5.6-10.5-10.1-17.1-13.2c-7.4-3.5-15.2-7.2-23.4-9.8c-1-0.3-2-0.7-2.8-0.9h0c-2.5-0.9-5.1-1.7-7.8-2.2
		c-3.5-0.6-7.7-1.3-11.9-2.2c-4.7-1.1-9.4-1.7-14.2-1.8c-3.4-0.1-6.9,0.1-10.2,0.3h-0.1c-1.8,0.1-3.7,0.3-5.6,0.3
		c-3,0.1-5.8,0.3-8.5,0.9c-4.7,1.1-9.4,1.9-14.1,2.8L111.7,8c-1,0.2-1.9,0.3-2.9,0.5l-0.2,0c-2.4,0.3-4.7,0.8-7,1.4
		c-2.4,0.7-4.8,1.6-7,2.4c-1.5,0.6-3,1.2-4.6,1.6c-6.1,2-12.4,4.9-20,9.1c-8.7,4.8-16.8,10.5-24.3,17c-3,2.6-5.9,5.9-8.7,10.1
		c-1.7,2.5-3.3,5.2-4.9,7.8L32,58c-1.3,2.1-2.7,4.3-4.1,6.4c-5,7.6-9.3,15.7-12.9,24.2l-0.8,1.8c-1.9,4.5-3.8,9.1-5.4,13.7
		c-2.2,6.6-3.3,13.2-4.3,20.6c-0.4,3.1-0.5,6.3-0.7,9.4c-0.1,2.3-0.2,4.7-0.4,7c-0.5,5.3-0.2,11,0.8,17.6c0.2,1,0.3,2,0.4,3
		c0.5,3.4,1,7,1.9,10.4c2.5,9.3,5.8,18.3,9.9,27c4.7,9.9,10.6,19.3,15.8,27.3c3.3,5.2,7,10.2,11,14.9c3.5,4.1,7.6,7.5,12.3,10.1
		c2.1,1.2,4.2,2.5,6.1,3.7c2.2,1.3,4.4,2.7,6.7,4c1.9,1.1,3.8,2.3,5.7,3.4c4.9,3,9.9,6.1,15.4,8c1.9,0.7,3.8,1.5,5.6,2.2l0.1,0.1
		c3.4,1.4,6.9,2.9,10.6,3.7c1.5,0.3,3,0.5,4.5,0.8l0.2,0c0.9,0.1,1.7,0.3,2.6,0.4C114.7,278,116.2,278.1,117.8,278.2l-0.1,1.6
		L117.8,278.2z M144.6,232.4c-1,0-2.1,0-3.1-0.1c-1.5-0.1-3.2-0.2-4.6-0.2c-2.6-0.1-5.3-0.2-7.9-0.6c-1-0.1-1.9-0.2-2.9-0.3h0
		c-1,0-2-0.2-3.1-0.3c-0.6-0.1-1.2-0.2-1.8-0.3c-1-0.2-2-0.3-3-0.5c-2.5-0.5-4.8-1.5-7.1-2.5c-1.2-0.5-2.4-1-3.6-1.5
		c-3.7-1.3-7-3.3-10.2-5.3c-1.2-0.7-2.4-1.5-3.6-2.2c-1.5-0.8-2.9-1.7-4.3-2.6l-0.1,0c-1.2-0.7-2.6-1.6-4-2.4
		c-3.1-1.8-5.9-4.1-8.3-6.8c-2.6-3.1-5-6.3-7.2-9.7c-3.3-5.2-7.2-11.3-10.3-17.8c-2.7-5.7-4.8-11.6-6.5-17.6c-0.6-2.3-1-4.5-1.3-6.8
		l0-0.2c-0.1-0.6-0.2-1.2-0.3-1.7c-0.7-4.4-0.8-8.2-0.5-11.7c0.1-1.5,0.2-3,0.2-4.5c0.1-2,0.2-4.1,0.4-6.2c0.7-4.9,1.3-9.2,2.8-13.6
		c1.1-3,2.3-6,3.5-8.9l0.5-1.2c2.3-5.5,5.1-10.8,8.4-15.8c0.9-1.3,1.8-2.7,2.6-4.1l0-0.1c1-1.7,2.1-3.4,3.2-5
		c1.7-2.5,3.6-4.8,5.8-6.8c4.9-4.3,10.2-8,15.9-11.1c4.9-2.8,9.1-4.7,13.1-6c1-0.3,2-0.7,2.9-1.1h0c1.5-0.6,3-1.1,4.6-1.6
		c1.5-0.4,3.1-0.7,4.7-0.9c0.6-0.1,1.3-0.2,2-0.3l0.8-0.1c3-0.5,6.1-1.1,9.1-1.8c1.9-0.4,3.8-0.6,5.7-0.6c1.2,0,2.4-0.1,3.6-0.2
		c1.7-0.1,3.6-0.2,5.4-0.2c0.5,0,0.9,0,1.4,0c3.2,0.1,6.3,0.5,9.4,1.2c2.6,0.6,5.3,1.1,7.6,1.4c1.8,0.3,3.6,0.8,5.3,1.4l0.1,0
		c0.6,0.2,1.2,0.4,1.7,0.6c5.4,1.7,10.5,4.1,15.3,6.4c4.4,2.1,8.3,5.1,11.5,8.9c1.3,1.5,2.9,2.8,4.6,3.8c2.3,1.5,4.4,3.4,6.8,6.3
		c2.5,3,4.5,6.4,6.5,9.6c1.1,1.8,2.2,3.7,3.4,5.4c1.4,2.1,2.3,4.6,3.1,6.9l0,0.1c0.3,0.8,0.5,1.6,0.8,2.3c1.2,3.3,2.4,6.6,3.6,10.2
		c1.7,5,2.8,9.2,3.5,13.2c0.2,1.5,0.4,3.1,0.4,4.6c0,0.8,0.1,1.7,0.2,2.6c0.3,3.4,0.5,6.8,0.6,10.6c0,2.1-0.2,4.3-0.5,6.4l-1.6-0.2
		l1.6,0.2c-0.1,0.9-0.2,2-0.3,3c-0.2,2.6-0.7,5.2-1.5,7.7l0,0.1c-0.6,1.9-3.9,11.9-6.7,16.7c-0.9,1.6-1.8,3.2-2.5,4.9
		c-0.5,1.2-1.1,2.4-1.7,3.5c-2.2,4.2-5.1,7.8-7.9,11.1c-3.6,4.3-7.4,8.4-10.7,11.8c-1.2,1.1-2.5,2.1-4,2.8c-2.7,1.4-5.4,3-8,4.5
		l-0.1,0c-2.2,1.3-4.5,2.7-6.8,3.9c-3.8,2-7.8,3.6-12,4.9c-0.9,0.3-1.8,0.6-2.5,0.8c-1.2,0.4-2.4,0.8-3.6,1.1
		c-1.9,0.5-3.9,0.8-5.9,1c-1.2,0.1-2.4,0.3-3.7,0.5C150.9,232,147.8,232.3,144.6,232.4L144.6,232.4z M146.7,54.4
		c-1.7,0-3.5,0.1-5.2,0.2c-1.2,0.1-2.5,0.2-3.8,0.2c-1.7,0-3.4,0.2-5.1,0.5c-3.1,0.7-6.2,1.3-9.2,1.8l-0.8,0.1
		c-0.7,0.1-1.4,0.2-2,0.3c-1.5,0.2-2.9,0.5-4.3,0.8c-1.4,0.4-2.9,1-4.3,1.5h0c-1,0.4-2,0.8-3,1.1c-3.8,1.3-7.8,3.1-12.5,5.7
		c-5.5,3-10.6,6.6-15.3,10.7c-2,1.8-3.8,3.9-5.3,6.1c-1.1,1.6-2.1,3.3-3.2,4.9l0,0.1c-0.9,1.4-1.7,2.8-2.7,4.2
		c-3.2,4.8-5.9,9.9-8.1,15.3l-0.5,1.2c-1.2,2.9-2.4,5.8-3.5,8.7c-1.4,4-2,8.2-2.7,12.9c-0.3,1.9-0.3,3.9-0.4,5.9
		c-0.1,1.5-0.1,3.1-0.3,4.7c-0.3,3.2-0.1,6.8,0.5,10.9c0.1,0.6,0.2,1.2,0.3,1.8l0,0.2c0.3,2.2,0.7,4.3,1.2,6.4
		c1.6,5.9,3.7,11.6,6.3,17.1c3,6.3,6.8,12.3,10.1,17.4c2.1,3.3,4.4,6.4,6.9,9.4c2.1,2.4,4.6,4.5,7.4,6.1c1.4,0.8,2.8,1.6,4,2.4
		l0.1,0c1.4,0.8,2.8,1.7,4.2,2.5c1.3,0.7,2.5,1.5,3.7,2.2c3,1.9,6.2,3.8,9.6,5c1.3,0.5,2.6,1,3.8,1.5c2.1,0.9,4.3,1.8,6.5,2.3
		c0.9,0.2,1.9,0.3,2.8,0.5c0.6,0.1,1.2,0.2,1.8,0.3c0.9,0.1,1.8,0.2,2.7,0.3h0c1.1,0.1,2.2,0.2,3.2,0.3c2.4,0.4,5,0.5,7.4,0.6
		c1.5,0,3.1,0.1,4.7,0.2c3.5,0.3,7.2,0,11.7-0.8c1.3-0.2,2.7-0.4,3.9-0.5c1.8-0.2,3.6-0.4,5.4-0.9c1.1-0.3,2.3-0.7,3.4-1.1
		c0.8-0.3,1.8-0.6,2.7-0.9c3.9-1.2,7.8-2.7,11.4-4.6c2.3-1.2,4.5-2.5,6.7-3.9l0.1,0c2.6-1.6,5.3-3.2,8.2-4.7
		c1.2-0.5,2.2-1.3,3.1-2.1c3.2-3.3,7-7.3,10.5-11.6c2.7-3.2,5.4-6.7,7.5-10.5c0.6-1.1,1.1-2.3,1.6-3.4c0.8-1.8,1.7-3.5,2.7-5.2
		c2.7-4.5,5.8-14.1,6.4-16l0-0.1c0.7-2.3,1.1-4.6,1.3-7c0.1-1.1,0.2-2.2,0.3-3.1c0.3-2,0.4-4,0.5-6c-0.1-3.7-0.2-7.1-0.5-10.3
		c-0.1-0.9-0.1-1.9-0.2-2.7c-0.1-1.4-0.2-2.8-0.4-4.3c-0.6-3.8-1.7-7.8-3.4-12.6c-1.2-3.6-2.4-6.9-3.6-10.1
		c-0.3-0.8-0.6-1.6-0.9-2.4l0-0.1c-0.8-2.2-1.5-4.4-2.7-6.2c-1.3-1.9-2.4-3.8-3.5-5.6c-1.9-3.1-3.8-6.4-6.2-9.2
		c-2.2-2.6-4-4.3-6.1-5.6c-2-1.2-3.8-2.7-5.3-4.5c-2.9-3.4-6.4-6.1-10.4-8c-4.7-2.2-9.7-4.6-14.8-6.2c-0.6-0.2-1.2-0.4-1.8-0.6
		l-0.1,0c-1.5-0.6-3.1-1-4.7-1.3c-2.3-0.4-5.1-0.8-7.8-1.5c-2.9-0.6-5.8-1-8.8-1.1C147.6,54.4,147.2,54.4,146.7,54.4L146.7,54.4
		L146.7,54.4z"/>
	<path class="st3" d="M86.4,252.2c-0.1-0.2-0.1-0.5,0-0.8l5.3-12.3c0.2-0.4,0.4-0.6,0.8-0.8c0.4-0.2,0.8-0.2,1.1,0l0.7,0.3
		c0.3,0.1,0.5,0.3,0.7,0.6c0.2,0.3,0.2,0.5,0.2,0.8l-0.3,13.7l9.7-9.6c0.2-0.2,0.5-0.3,0.8-0.4c0.3-0.1,0.6,0,0.9,0.1l0.7,0.3
		c0.4,0.1,0.6,0.4,0.8,0.8c0.1,0.4,0.1,0.8,0,1.1l-5.3,12.3c-0.2,0.5-0.8,0.7-1.3,0.5c0,0,0,0,0,0c-0.3-0.1-0.5-0.3-0.6-0.6
		c-0.1-0.2-0.1-0.5,0-0.8l5-11.7l-9.8,9.7c-0.5,0.4-1.1,0.5-1.7,0.3c-0.3-0.1-0.5-0.3-0.7-0.6c-0.2-0.3-0.3-0.6-0.3-0.9l0.3-13.8
		l-5,11.7c-0.1,0.3-0.3,0.4-0.6,0.5c-0.3,0.1-0.5,0.1-0.8,0C86.7,252.6,86.5,252.4,86.4,252.2z"/>
	<path class="st3" d="M111.5,261.4c-0.1-0.2-0.2-0.5-0.1-0.8l2.9-13.3c0.1-0.3,0.2-0.5,0.4-0.7c0.2-0.2,0.5-0.2,0.8-0.1l8.8,1.9
		c0.3,0,0.5,0.2,0.6,0.4c0.1,0.2,0.2,0.5,0.1,0.7c0,0.2-0.2,0.5-0.4,0.6c-0.2,0.1-0.5,0.2-0.7,0.1l-7.8-1.7l-1,4.8l7,1.5
		c0.3,0,0.5,0.2,0.6,0.4c0.1,0.2,0.2,0.5,0.1,0.7c0,0.2-0.2,0.5-0.4,0.6c-0.2,0.1-0.5,0.2-0.7,0.1l-7-1.5l-1.1,4.9l7.8,1.7
		c0.5,0.1,0.8,0.6,0.7,1.1c0,0,0,0,0,0c0,0.2-0.2,0.5-0.4,0.6c-0.2,0.1-0.5,0.2-0.7,0.1l-8.8-1.9
		C111.9,261.8,111.7,261.7,111.5,261.4z"/>
	<path class="st3" d="M130.7,265.1c-0.2-0.2-0.3-0.5-0.3-0.7l0.3-13.4c0-0.4,0.2-0.8,0.4-1c0.3-0.3,0.6-0.4,1-0.4h0.7
		c0.3,0,0.6,0.1,0.8,0.3c0.2,0.2,0.4,0.4,0.5,0.7l4.8,12.8l5.4-12.6c0.1-0.3,0.3-0.5,0.6-0.7c0.2-0.2,0.5-0.3,0.8-0.3h0.7
		c0.4,0,0.8,0.2,1,0.5c0.3,0.3,0.4,0.7,0.4,1.1l-0.3,13.4c0,0.5-0.4,1-1,1c0,0,0,0,0,0c-0.3,0-0.5-0.1-0.7-0.3
		c-0.2-0.2-0.3-0.5-0.3-0.7l0.3-12.7l-5.5,12.7c-0.1,0.3-0.3,0.5-0.6,0.7c-0.5,0.3-1.2,0.3-1.7,0c-0.3-0.2-0.4-0.4-0.6-0.7
		l-4.9-12.9l-0.3,12.7c0,0.3-0.1,0.5-0.3,0.7c-0.2,0.2-0.5,0.3-0.7,0.3C131.1,265.3,130.9,265.2,130.7,265.1z"/>
	<path class="st3" d="M157.5,264.3c-0.2-0.2-0.4-0.4-0.4-0.7l-2.3-13.4c-0.1-0.3,0-0.5,0.2-0.8c0.1-0.2,0.4-0.4,0.7-0.4l5.2-0.9
		c1.6-0.3,2.9-0.1,3.8,0.4c1.6,1,2.3,3.1,1.6,4.9c-0.3,0.6-0.8,1.2-1.3,1.5c0.9,0.1,1.7,0.4,2.4,1c0.7,0.5,1.1,1.3,1.3,2.2
		c0.2,1.4,0,2.5-0.8,3.4c-0.8,0.9-2.2,1.6-4.1,1.9l-5.3,0.9C158,264.5,157.7,264.4,157.5,264.3z M161.4,254.8
		c1.3-0.2,2.2-0.6,2.6-1.1c0.5-0.6,0.6-1.3,0.5-2c-0.1-0.7-0.5-1.2-1.1-1.5c-0.8-0.3-1.6-0.4-2.4-0.2l-4,0.7l0.8,4.8L161.4,254.8z
		 M163.1,261.6c1.4-0.3,2.4-0.6,2.9-1.2c0.5-0.5,0.7-1.3,0.6-2c-0.3-1.7-1.7-2.3-4.4-1.8l-4.2,0.7l0.9,5.1L163.1,261.6z"/>
	<path class="st3" d="M177.5,259.9c-0.2-0.1-0.4-0.3-0.5-0.6l-4.5-12.8c-0.1-0.3-0.1-0.5,0-0.8c0.1-0.2,0.3-0.4,0.6-0.5l8.5-3
		c0.5-0.2,1,0.1,1.2,0.6c0,0,0,0,0,0c0.1,0.2,0.1,0.5,0,0.7c-0.1,0.2-0.3,0.4-0.6,0.5l-7.5,2.6l1.6,4.7l6.7-2.4
		c0.2-0.1,0.5-0.1,0.7,0c0.2,0.1,0.4,0.3,0.5,0.6c0.1,0.2,0.1,0.5,0,0.7c-0.1,0.2-0.3,0.4-0.5,0.5l-6.7,2.4l1.6,4.7l7.5-2.6
		c0.2-0.1,0.5-0.1,0.7,0c0.2,0.1,0.4,0.3,0.5,0.6c0.1,0.2,0.1,0.5,0,0.7c-0.1,0.2-0.3,0.4-0.6,0.5l-8.5,3
		C178,260,177.7,260,177.5,259.9z"/>
	<path class="st3" d="M195.4,252.9c-0.3-0.1-0.5-0.2-0.6-0.5l-6.7-12c-0.1-0.2-0.2-0.5-0.1-0.8c0.1-0.3,0.2-0.5,0.5-0.6l4.6-2.5
		c1.8-1,3.3-1.4,4.6-1.1c1.3,0.2,2.3,1,2.9,2.1c0.4,0.8,0.6,1.6,0.5,2.5c-0.1,0.9-0.5,1.8-1.1,2.5c1-0.3,2.1,0,2.9,0.7
		c0.8,0.7,1.5,1.5,2,2.4l0.5,0.9c0.1,0.2,0.2,0.5,0.1,0.8c-0.1,0.3-0.2,0.5-0.5,0.6c-0.2,0.1-0.5,0.2-0.8,0.1
		c-0.3-0.1-0.5-0.3-0.6-0.5l-0.3-0.6c-0.3-0.6-0.7-1.2-1.2-1.7c-0.4-0.5-1-0.9-1.7-1c-0.7-0.2-1.5,0-2.4,0.5l-4.1,2.2l2.5,4.6
		c0.1,0.2,0.2,0.5,0.1,0.8c-0.1,0.3-0.3,0.5-0.5,0.6C196,252.9,195.7,252.9,195.4,252.9z M196.7,243.2c1.1-0.6,1.9-1.3,2.3-2.1
		c0.4-0.8,0.4-1.7-0.1-2.4c-0.4-0.7-1.1-1.2-1.9-1.3c-0.8-0.1-1.9,0.2-3.3,1l-3.5,1.9l2.8,5L196.7,243.2z"/>
	<path class="st0" d="M148.9,120.5c0.2-12-0.3-23.9-4.1-35.3c-0.1-0.3-0.2-0.5-0.3-0.8c-0.8-1.8-4.8-1.3-5,0.7
		c-1.3,10.8,1.6,22-0.3,32.8c-1.7-1.9-3.7-27.2-7.5-36.4c-0.6-1.4-1.5-3.1-3.3-2.8c-1.2,0.2-2.2,1.2-2.4,2.4
		c-0.9,5.2-0.6,10.4-0.3,15.6l1.4,22.5c-0.7,0.7-1.8-0.4-2.2-1.3c-4.1-9.5-6.8-15.9-8.1-26.1c-0.2-1.6-0.7-3.6-2.3-3.9
		c-0.8-0.2-1.7-0.1-2.2,0.5c-1,1.2-1,3.2-1,4.7c0.4,11.5,2,19.3,4.9,30.5c0.7,2.7,0.8,4.8,0.2,7.5c-7.3-3.5-12.3-10.3-15.8-17.7
		c-0.8-1.8-2.6-4-4.2-2.9c-0.9,0.6-1,2-0.8,3.1c0.6,5.1,2.5,10.7,4.9,15.2c2.3,4.2,5.3,7.9,8.3,11.5c3.5,4.3,5.8,8.7,9.3,13
		c2,2.4,4,4.9,4.9,7.9c0.4,1.4,0.6,2.8,0.8,4.2c4,31.7,2.1,31.4,6.1,63.1l0.9,1.1l12.4,0.8l5.8-0.1l7.2-1.1l4.3-0.5l3.6-0.8l3.5-1
		l-0.6-1.5c-7.6-26-10.1-27.8-13.4-63.2l-0.1-3c0.4-2.5,1.4-4.4,2.7-5.8c5.3-5.6,11.3-11.9,12.3-21c0.5-4.3,1-8.7,2.9-12.6
		c0.5-1,2.4-5.9,2.7-7c0.6-2-1.3-4-3.4-4c-2.4,0-2.4,0-4.6,1.4c-2.3,1.5-4.4,4.4-5.7,7.1l-4.3,9.2c-0.5,1-1.4,1.2-2.5,1.4
		c-1.6,0.2-3.2-0.8-3.6-2.4C149.5,124.4,148.9,123.5,148.9,120.5z"/>
	<path class="st3" d="M150.2,120.5c0.2-11.4-0.3-22.9-3.6-33.9c-0.5-1.8-0.9-3.7-2.9-4.4c-1.5-0.5-3.2-0.2-4.4,0.7
		c-1.6,1.3-1.4,3.9-1.5,5.8c-0.1,2.9,0,5.8,0.1,8.7c0.4,6.7,1,13.5-0.1,20.1l2.2-0.6c0.3,0.3,0-0.2,0,0c-0.1-0.2-0.1-0.5-0.2-0.7
		c-0.2-0.7-0.3-1.3-0.5-2c-0.4-2-0.7-4-1-6c-0.8-5.3-1.5-10.6-2.5-15.8c-0.5-2.4-1-4.8-1.6-7.2c-0.5-2-1.1-4.2-2.3-6
		c-1.6-2.3-4.8-2.5-6.5-0.2c-0.9,1.3-1,3-1.2,4.5c-0.2,2.3-0.3,4.6-0.2,6.9c0.2,9.6,1.1,19.2,1.7,28.8l0.7-1.1c0,0-2.9-6.7-3.2-7.4
		c-1-2.5-2-5-2.7-7.6c-0.8-2.6-1.4-5.2-1.9-7.8c-0.4-2.3-0.3-5.3-1.8-7.3c-1.2-1.6-3.7-2.1-5.2-0.9c-1.9,1.5-1.8,4.4-1.7,6.6
		c0.2,5.7,0.8,11.4,1.9,17c0.6,3.1,1.3,6.3,2.1,9.4c0.9,3.6,2,6.9,1.2,10.7l1.9-0.8c-3.8-1.9-7.1-4.6-9.7-7.9
		c-1.3-1.6-2.5-3.4-3.5-5.2c-1.1-1.9-1.8-4-3.1-5.7c-0.9-1.2-2.3-2.4-4-2.1c-1.8,0.3-2.6,2.1-2.6,3.8c-0.1,4.3,1.6,8.9,3.3,12.8
		c1.9,4.4,4.5,8.3,7.4,12.1c1.6,2,3.2,3.9,4.7,5.9c1.5,2.1,2.9,4.3,4.4,6.5c2.7,3.9,6.6,7.4,7.9,12.1c0.7,2.5,0.8,5.1,1.1,7.6
		c0.3,2.3,0.5,4.7,0.8,7c1.3,12.3,1.8,24.7,3.1,37c0.4,4.5,1,8.9,1.5,13.4c0.2,1.3,0.4,2.5,1.5,3.4c0.6,0.5,1.3,0.4,1.9,0.5
		c3.8,0.2,7.7,0.7,11.5,0.7c2,0,4.1,0.1,6.1-0.1c2.3-0.3,4.6-0.7,6.9-1.1c-0.6,0.1,0.4,0,0.7-0.1l2.2-0.3c0.9-0.1,1.7-0.2,2.6-0.4
		c2.1-0.4,4-1,6.1-1.6c0.6-0.2,1.2-1,0.9-1.6c-1.8-4.4-2.9-9.1-4.3-13.5c-1.2-3.9-2.5-7.8-3.5-11.7c-2.5-9-3.9-18.2-4.9-27.5
		c-0.4-3.6-0.8-7.2-1.1-10.9c-0.2-1.9-0.3-3.9,0.5-5.7c1.1-2.7,3.7-4.8,5.6-6.9c2-2.3,3.9-4.7,5.4-7.4c1.6-2.8,2.7-5.8,3.2-8.9
		c0.6-3.7,0.7-7.4,1.9-10.9c0.8-2.3,1.9-4.5,2.8-6.8c0.8-2,1.9-4.2,0.6-6.3c-1.5-2.4-4.8-3-7.3-2c-3,1.2-5.4,3.8-7.1,6.5
		c-1.1,1.8-2,3.8-2.9,5.7l-1.4,2.9c-0.4,0.9-0.7,2.1-1.4,2.9c-0.6,0.7-1.7,1-2.6,0.6c-0.9-0.3-1.1-1.1-1.3-1.9
		C150.5,123.5,150.2,122,150.2,120.5c0-1.7-2.7-1.7-2.6,0c0,2.3,0.4,5.2,1.8,7.1c1.5,2.1,4.8,2.5,6.9,1c1.3-1,1.8-2.9,2.5-4.3
		c0.9-1.9,1.8-3.8,2.7-5.7c1.5-3.1,3.4-5.8,6.4-7.6c2.1-1.2,5.8-0.7,4.8,2.4c-0.7,2-1.4,4-2.3,5.9c-1.6,3.3-2.3,6.7-2.8,10.4
		c-0.5,3.6-0.9,6.9-2.5,10.2c-1.4,2.8-3.2,5.5-5.3,7.8c-1.9,2.2-4.2,4.1-5.7,6.5c-3,4.5-1.6,10.3-1.1,15.3c1,9.9,2.2,19.9,4.7,29.6
		c1.1,4.4,2.4,8.6,3.8,12.9c1.6,5.1,2.8,10.3,4.8,15.2l0.9-1.6c-2.3,0.7-4.7,1.3-7,1.8c0.6-0.1,0,0-0.1,0l-1.1,0.1l-2.5,0.3
		c-0.9,0.1-1.8,0.3-2.8,0.4c-1.6,0.2-3.1,0.5-4.7,0.7c-0.2,0-0.6,0,0,0c-0.2,0-0.3,0-0.5,0c-0.8,0-1.6,0-2.4,0
		c-2.1,0-4.1-0.1-6.2-0.2l-9-0.6l0.9,0.4l-0.9-1.1l0.4,0.9c-1.1-9.1-2.1-18.3-2.8-27.5c-0.5-7.3-1-14.6-1.7-21.8
		c-0.6-5.5-1-11.1-2-16.6c-1.1-5.8-5.7-10-8.9-14.7c-1.7-2.5-3.3-5-5.1-7.4s-3.9-4.7-5.6-7.2c-3.5-4.7-6-10.1-7.4-15.8
		c-0.4-1.4-0.6-2.9-0.7-4.4c0-0.7-0.1-1.9,1-1.4c0.6,0.3,1.1,1.3,1.4,1.9c1.3,2.5,2.5,4.9,4.1,7.3c3.2,4.7,7.3,8.7,12.4,11.3
		c0.7,0.4,1.7,0.1,1.9-0.8c1.2-5.5-1-10.9-2.2-16.3c-1.2-5.3-2.1-10.6-2.5-16c-0.2-2.7-0.7-5.7-0.3-8.3c0.1-0.7,0.4-1.7,1.3-1.7
		c0.7,0,0.9,0.6,1.2,1.1c0.5,1.1,0.5,2.5,0.7,3.7c0.8,5.1,2.1,10.1,4,14.9c1,2.7,2.2,5.3,3.3,8c0.8,1.8,2.3,5.1,4.8,3.5
		c0.4-0.2,0.7-0.7,0.7-1.1c-0.5-7.9-1-15.8-1.5-23.7c-0.2-3.8-0.4-7.5-0.1-11.3c0.1-1.1,0.2-5.1,2.4-4.1c0.9,0.4,1.3,2,1.6,2.8
		c1.5,4.1,2.2,8.5,3,12.7c0.8,4.7,1.5,9.4,2.2,14.1c0.3,1.9,0.6,3.9,1,5.8c0.2,1.1,0.5,2.3,1.2,3.2c0.6,0.7,2,0.4,2.2-0.6
		c1.1-6.3,0.7-12.6,0.3-18.9c-0.2-3.1-0.4-6.2-0.3-9.3c0-1.5-0.5-6.2,2.3-5.3c1.1,0.4,1.2,2.2,1.5,3.2c0.4,1.4,0.8,2.8,1.1,4.2
		c0.7,3.1,1.2,6.2,1.5,9.3c0.7,6.3,0.8,12.7,0.7,19.1C147.5,122.2,150.2,122.2,150.2,120.5z"/>
</g>
<g>
	<path d="M56.7,77.5c-0.3,0-0.6-0.1-0.8-0.3l-11.7-10c-0.2-0.2-0.4-0.5-0.4-0.8c0-0.3,0.1-0.6,0.3-0.8l6.4-7.5
		c0.2-0.2,0.4-0.4,0.7-0.4c0.3,0,0.6,0.1,0.8,0.3c0.2,0.2,0.4,0.4,0.4,0.7c0,0.3-0.1,0.6-0.3,0.8l-5.6,6.6l4.2,3.6l5.1-5.9
		c0.2-0.2,0.4-0.4,0.7-0.4c0.3,0,0.6,0.1,0.8,0.3s0.4,0.4,0.4,0.7c0,0.3-0.1,0.6-0.3,0.8l-5.1,5.9l5.1,4.4c0.2,0.2,0.4,0.5,0.4,0.8
		c0,0.3-0.1,0.6-0.3,0.8C57.3,77.3,57.1,77.5,56.7,77.5z"/>
	<path d="M66.8,66.5c-0.3,0-0.6-0.1-0.8-0.4L55.3,54.8c-0.2-0.2-0.3-0.5-0.3-0.8c0-0.3,0.1-0.6,0.3-0.8c0.2-0.2,0.5-0.3,0.8-0.3
		c0.3,0,0.6,0.1,0.8,0.4l10.7,11.3c0.2,0.2,0.3,0.5,0.3,0.8c0,0.3-0.1,0.6-0.4,0.8C67.4,66.4,67.1,66.5,66.8,66.5z"/>
	<path d="M70.7,62.6c-0.3,0-0.5-0.2-0.7-0.4c-0.2-0.2-0.2-0.4-0.2-0.7l0.3-9.2l-8.9-2.1c-0.2-0.1-0.4-0.2-0.6-0.4
		c-0.2-0.3-0.3-0.5-0.2-0.8c0-0.3,0.2-0.5,0.4-0.7c0.1-0.1,0.3-0.2,0.5-0.2c0.2,0,0.4,0,0.5,0l8.3,2.1l0.1-8.6
		c0-0.3,0.1-0.6,0.4-0.8c0.2-0.2,0.5-0.3,0.8-0.2c0.3,0,0.5,0.2,0.7,0.4c0.1,0.2,0.2,0.4,0.2,0.6L72,50.7l9,2.2
		c0.2,0,0.4,0.2,0.6,0.4c0.2,0.3,0.3,0.5,0.2,0.8s-0.2,0.6-0.5,0.8c-0.3,0.2-0.6,0.3-1,0.2L72,52.9l-0.1,8.6c0,0.4-0.2,0.7-0.4,0.9
		C71.2,62.6,71,62.7,70.7,62.6z"/>
	<path d="M85.1,52.2c-0.3-0.1-0.5-0.2-0.7-0.5l-8.1-13.3c-0.2-0.3-0.2-0.6-0.1-0.9c0.1-0.3,0.2-0.5,0.5-0.7s0.6-0.2,0.9-0.1
		c0.3,0.1,0.6,0.3,0.7,0.5l8.1,13.3c0.2,0.3,0.2,0.6,0.1,0.9c-0.1,0.3-0.3,0.5-0.5,0.7S85.4,52.3,85.1,52.2z"/>
	<path d="M90.9,48.7c-0.3-0.1-0.5-0.3-0.6-0.6l-6.2-13.8c-0.2-0.4-0.2-0.8,0-1.3c0.2-0.4,0.4-0.7,0.9-0.9l0.3-0.1
		c0.5-0.2,1-0.2,1.6,0.1l14.6,8.8l-5.6-12.4c-0.1-0.3-0.1-0.6,0-0.9c0.1-0.3,0.3-0.5,0.6-0.6c0.3-0.1,0.6-0.1,0.9,0
		c0.3,0.1,0.5,0.3,0.6,0.6l6.2,13.8c0.2,0.4,0.2,0.8,0,1.3c-0.2,0.4-0.5,0.7-0.9,0.9l-0.3,0.1c-0.2,0.1-0.5,0.2-0.8,0.1
		c-0.3,0-0.5-0.1-0.7-0.2l-14.7-8.9l5.6,12.5c0.1,0.3,0.1,0.6,0,0.9c-0.1,0.3-0.3,0.5-0.6,0.6C91.4,48.8,91.1,48.8,90.9,48.7z"/>
	<path d="M111.5,39.7c-1.5-0.4-2.8-1.2-3.8-2.3c-1.1-1.1-1.8-2.6-2.2-4.3c-0.4-1.7-0.4-3.4,0-4.9c0.4-1.5,1.2-2.8,2.3-3.9
		c1.1-1.1,2.5-1.8,4-2.2c1.3-0.3,2.4-0.4,3.5-0.4c1,0.1,2.1,0.3,3.1,0.6c0.1,0,0.3,0.1,0.4,0.3c0.1,0.1,0.2,0.3,0.3,0.5
		c0.1,0.3,0,0.5-0.1,0.8c-0.1,0.2-0.4,0.4-0.7,0.5c-0.2,0-0.4,0-0.5,0c-0.9-0.3-1.7-0.4-2.6-0.4c-0.8,0-1.7,0.1-2.6,0.3
		c-1.2,0.3-2.3,0.9-3.2,1.6c-0.9,0.8-1.5,1.7-1.8,2.9c-0.3,1.1-0.3,2.4,0.1,3.8c0.3,1.3,0.9,2.3,1.7,3.2c0.8,0.9,1.7,1.5,2.9,1.8
		c1.1,0.3,2.4,0.3,3.8,0c1.5-0.4,2.9-1.1,4-2.2l-1.1-4.4l-4,1c-0.3,0.1-0.5,0-0.8-0.1c-0.2-0.1-0.4-0.4-0.5-0.6
		c-0.1-0.3,0-0.5,0.1-0.8c0.1-0.2,0.4-0.4,0.6-0.5l4.8-1.2c0.3-0.1,0.6,0,0.9,0.1c0.3,0.2,0.5,0.4,0.6,0.7l1.4,5.6
		c0.1,0.3,0.1,0.7,0,1c-0.1,0.3-0.3,0.6-0.5,0.8c-1.6,1.4-3.4,2.3-5.3,2.8C114.6,40.2,113,40.2,111.5,39.7z"/>
	<path d="M133.3,36.4c-0.2-0.2-0.3-0.5-0.4-0.8l-0.5-15.4c0-0.3,0.1-0.6,0.3-0.8c0.2-0.2,0.5-0.4,0.8-0.4l9.8-0.3
		c0.3,0,0.6,0.1,0.8,0.3c0.2,0.2,0.3,0.5,0.3,0.8c0,0.3-0.1,0.6-0.3,0.8s-0.5,0.3-0.8,0.3l-8.7,0.3l0.2,5.6l7.8-0.3
		c0.3,0,0.6,0.1,0.8,0.3c0.2,0.2,0.3,0.5,0.3,0.8c0,0.3-0.1,0.6-0.3,0.8c-0.2,0.2-0.5,0.3-0.8,0.3l-7.8,0.3l0.2,6.7
		c0,0.3-0.1,0.6-0.3,0.8c-0.2,0.2-0.5,0.3-0.8,0.4C133.8,36.7,133.5,36.6,133.3,36.4z"/>
	<path d="M145.6,36c-0.2-0.2-0.3-0.5-0.2-0.8c0-0.1,0.1-0.3,0.2-0.5l8.1-14.4c0.2-0.3,0.4-0.5,0.6-0.7c0.3-0.2,0.6-0.2,0.9-0.2
		l0.3,0c0.4,0,0.6,0.2,0.9,0.4c0.2,0.2,0.4,0.5,0.5,0.8l4.7,15.8c0.1,0.2,0.1,0.4,0.1,0.5c0,0.3-0.2,0.6-0.4,0.8
		c-0.2,0.2-0.5,0.3-0.9,0.2c-0.2,0-0.4-0.1-0.6-0.3c-0.2-0.1-0.3-0.3-0.4-0.6l-1.2-4.1l-8.5-0.9l-2.1,3.7c-0.1,0.2-0.3,0.4-0.5,0.5
		c-0.2,0.1-0.4,0.1-0.7,0.1C146,36.4,145.7,36.2,145.6,36z M150.7,30.1l6.8,0.7l-2.5-8.5L150.7,30.1z"/>
	<path d="M164.2,37.7c-0.2-0.1-0.3-0.3-0.4-0.5c-0.1-0.2-0.1-0.4,0-0.6c0.1-0.3,0.2-0.5,0.5-0.6c0.2-0.2,0.5-0.2,0.8-0.1
		c0.2,0,0.3,0.1,0.4,0.2c1.3,1.1,2.8,1.8,4.5,2.3c2.8,0.8,4.5,0.2,5-1.7c0.1-0.5,0.1-0.9-0.2-1.4c-0.3-0.4-0.7-0.8-1.1-1.1
		c-0.5-0.3-1.2-0.8-2.1-1.3c-1.2-0.7-2.2-1.3-2.9-1.8c-0.7-0.5-1.3-1.2-1.7-2c-0.4-0.8-0.5-1.7-0.2-2.8c0.2-0.9,0.7-1.7,1.4-2.3
		c0.7-0.6,1.6-1,2.6-1.2c1.1-0.2,2.3-0.1,3.6,0.3c1.8,0.5,3.3,1.2,4.6,2.1c0.4,0.3,0.6,0.7,0.4,1.2c-0.1,0.3-0.2,0.5-0.5,0.6
		c-0.2,0.2-0.5,0.2-0.8,0.1c-0.1,0-0.2-0.1-0.4-0.2c-1.1-0.8-2.4-1.4-3.7-1.7c-1.3-0.3-2.4-0.4-3.3-0.1c-0.9,0.3-1.5,0.8-1.8,1.7
		c-0.2,0.6-0.1,1.1,0.2,1.6c0.3,0.5,0.7,0.9,1.2,1.2c0.5,0.4,1.2,0.8,2.2,1.3c1.2,0.7,2.2,1.2,2.9,1.8c0.7,0.5,1.2,1.2,1.6,2
		c0.4,0.8,0.4,1.8,0.1,2.9c-0.2,0.9-0.7,1.7-1.4,2.2c-0.7,0.6-1.6,1-2.6,1.1c-1.1,0.2-2.2,0.1-3.4-0.3
		C167.6,39.9,165.8,39,164.2,37.7z"/>
	<path d="M179.1,42.8c-0.1-0.3-0.1-0.6,0-0.9l6.3-14.2c0.1-0.3,0.3-0.5,0.6-0.6c0.3-0.1,0.6-0.1,0.9,0c0.3,0.1,0.5,0.3,0.6,0.6
		c0.1,0.3,0.1,0.6,0,0.9l-2.7,6.1l8.7,3.9l2.7-6.1c0.1-0.3,0.3-0.5,0.6-0.6c0.3-0.1,0.6-0.1,0.9,0c0.3,0.1,0.5,0.3,0.6,0.6
		c0.1,0.3,0.1,0.6,0,0.9l-6.3,14.2c-0.1,0.3-0.3,0.5-0.6,0.6c-0.3,0.1-0.6,0.1-0.9,0c-0.3-0.1-0.5-0.3-0.6-0.6
		c-0.1-0.3-0.1-0.6,0-0.9l2.7-6.1l-8.7-3.9l-2.7,6.1c-0.1,0.3-0.3,0.5-0.6,0.6c-0.3,0.1-0.6,0.1-0.9,0
		C179.4,43.3,179.2,43,179.1,42.8z"/>
	<path d="M195.8,50.9c-0.1-0.3,0-0.6,0.1-0.9l7.9-13.4c0.2-0.3,0.4-0.5,0.7-0.5c0.3-0.1,0.6,0,0.9,0.1c0.3,0.2,0.5,0.4,0.5,0.7
		c0.1,0.3,0,0.6-0.1,0.9L198,51.2c-0.2,0.3-0.4,0.4-0.7,0.5c-0.3,0.1-0.6,0-0.9-0.1C196.1,51.4,195.9,51.2,195.8,50.9z"/>
	<path d="M204.3,55.4c-0.6-1.4-0.7-2.9-0.5-4.4c0.3-1.5,0.9-3,2-4.4c1.1-1.4,2.4-2.4,3.8-3c1.4-0.6,2.9-0.9,4.4-0.7
		c1.5,0.2,3,0.8,4.4,1.9c1.4,1.1,2.4,2.3,3,3.8c0.6,1.4,0.7,2.9,0.5,4.4c-0.3,1.5-0.9,3-2,4.4c-1.1,1.4-2.4,2.4-3.8,3
		s-2.9,0.9-4.4,0.7c-1.5-0.2-3-0.8-4.4-1.9C205.9,58.1,204.9,56.8,204.3,55.4z M212,58.9c1.2,0.1,2.3-0.1,3.3-0.6s2-1.3,2.8-2.3
		s1.3-2.1,1.5-3.3c0.2-1.1,0.1-2.3-0.3-3.3c-0.4-1.1-1.2-2-2.2-2.9c-1.1-0.8-2.2-1.3-3.3-1.4c-1.1-0.1-2.2,0.1-3.3,0.6
		c-1.1,0.5-2,1.3-2.8,2.3c-0.8,1-1.3,2.1-1.5,3.3c-0.2,1.1-0.1,2.3,0.3,3.3s1.2,2,2.2,2.9C209.7,58.3,210.8,58.8,212,58.9z"/>
	<path d="M217,66.7c0-0.3,0.1-0.6,0.4-0.8l11.2-10c0.3-0.3,0.7-0.4,1.2-0.4c0.5,0,0.8,0.2,1.1,0.5l0.2,0.2c0.4,0.4,0.5,0.9,0.4,1.5
		l-4,16.6l10.2-9.1c0.2-0.2,0.5-0.3,0.8-0.3s0.6,0.1,0.8,0.4c0.2,0.2,0.3,0.5,0.3,0.8c0,0.3-0.1,0.6-0.4,0.8L228,77
		c-0.3,0.3-0.7,0.4-1.2,0.4c-0.5,0-0.8-0.2-1.1-0.6l-0.2-0.2c-0.2-0.2-0.3-0.4-0.4-0.7c-0.1-0.3-0.1-0.5,0-0.8l4-16.7l-10.2,9.1
		c-0.2,0.2-0.5,0.3-0.8,0.3c-0.3,0-0.6-0.2-0.8-0.4C217.1,67.3,217,67,217,66.7z"/>
</g>
</svg>
