<svg xmlns="http://www.w3.org/2000/svg" viewBox="0 0 859.49 859.83"><title>logo PP official</title><g id="Calque_1" data-name="Calque 1"><path d="M697.51,405.29a125.28,125.28,0,0,0-1.25-13.43c-2-11.75-5.26-24.16-10.38-39.07-3.8-11-7.24-21-11-30.87-.94-2.46-1.81-5-2.66-7.46-2.38-6.91-4.84-14.06-8.76-19.86-3.69-5.48-7.15-11.19-10.48-16.72-5.83-9.66-11.86-19.64-19.26-28.44-7.07-8.41-12.92-13.81-19.54-18.06a65.33,65.33,0,0,1-15-12.65,100.35,100.35,0,0,0-33.08-25.6c-14.37-6.9-29.75-14.06-45.7-19.07-1.87-.58-3.75-1.22-5.57-1.84a91.34,91.34,0,0,0-15.19-4.2c-7-1.11-15.28-2.49-23.37-4.35a146.71,146.71,0,0,0-27.52-3.53c-1.29,0-2.59-.08-3.9-.08-5.35,0-10.74.38-16,.75-3.66.26-7.45.53-11.2.66a87.5,87.5,0,0,0-16.44,1.71c-9.21,2.14-18.63,3.82-27.73,5.44l-2.42.44c-2,.36-4.05.68-6,1a123.88,123.88,0,0,0-13.66,2.68c-4.63,1.27-9.23,3-13.68,4.7-2.94,1.11-6,2.26-9,3.28-11.8,3.94-24.15,9.58-38.87,17.76a277.81,277.81,0,0,0-47.37,33.19,101.22,101.22,0,0,0-16.86,19.54c-3.38,4.94-6.61,10.13-9.74,15.14-2.61,4.2-5.32,8.54-8.11,12.75a282.38,282.38,0,0,0-25.08,47.14l-1.52,3.6c-3.67,8.73-7.47,17.76-10.61,26.81-4.42,12.72-6.38,25.72-8.31,40.18-.82,6.08-1,12.3-1.28,18.33-.17,4.53-.35,9.22-.77,13.85-.93,10.21-.43,21.39,1.52,34.19.3,1.95.58,3.92.86,5.88a164.72,164.72,0,0,0,3.72,20.14,316.36,316.36,0,0,0,19.33,52.6c9.26,19.39,20.77,37.7,30.84,53.35a268.71,268.71,0,0,0,21.41,29,88.86,88.86,0,0,0,23.76,19.54c4.07,2.36,8.13,4.84,12.06,7.25,4.28,2.62,8.71,5.34,13.13,7.86,3.76,2.16,7.51,4.45,11.13,6.67,9.47,5.8,19.26,11.79,29.95,15.59,3.84,1.37,7.63,3,11.3,4.53,6.61,2.8,13.44,5.69,20.55,7.14,2.93.6,6,1.07,8.91,1.53,1.81.28,3.61.56,5.41.87a85.34,85.34,0,0,0,8.84.88,88.15,88.15,0,0,1,9.3.92c7.65,1.3,15.59,1.54,23.26,1.78,4.64.15,9.43.3,14.16.67,10.93.87,22.56.12,36.6-2.34,3.81-.67,7.69-1.11,11.45-1.53a117.46,117.46,0,0,0,17.07-2.78c3.58-1,7.19-2.15,10.69-3.31,2.56-.86,5.21-1.74,7.86-2.53a192,192,0,0,0,35.45-14.33c7-3.74,14-7.92,20.7-12,7.93-4.76,16.12-9.68,24.54-14a39.89,39.89,0,0,0,10.87-7.47c9.77-10.19,21.23-22.37,32.1-35.43,8.25-9.92,16.84-20.63,23.23-32.78,1.8-3.42,3.47-7,5.09-10.48a168.76,168.76,0,0,1,7.82-15.4c9.09-15.19,19.72-48.84,20-49.63a99.87,99.87,0,0,0,4.2-22.38c.28-3.12.66-6.26,1-9.29a140.25,140.25,0,0,0,1.41-18.8c-.17-11.29-.72-21.66-1.65-31.71C697.82,410.63,697.66,407.92,697.51,405.29Z" style="fill:#b8d9e5"/><path d="M394.82,488c-34.85-15.9-47.09-25.61-57.88-10.34-.84,1.18,1.3,11.36,1.3,11.36s70.69,29.39,106.46,37.47c28.1,6.34,91.15.82,91.15.82l52.85-.16s25.16-5.17,36.2-14.08c6.1-4.93,20.57-.06,26.08-19.29,2.39-8.35-123.88-33.41-142.87-30.83s-67.12-5.84-75.34-5.81-38.87,5.59-39.54,12.5S397.62,489.28,394.82,488Z" style="fill:#aeadad"/><path d="M412.66,458.86c-5.4,2.48-87.73,3.19-98,2.75s-.84,13.25,4.25,14.17c3.07.56,133.18-4,155-3.07,22.08,1,66.54,7.62,80.3,7.1,18.35-.69,41.94,20.05,57.49,18.1,12-1.49,40.82-3.69,44.23-11.88,2.76-6.66,5.28-50.35,4.38-66.54s-25.65-44.39-28.88-61.72c-5.21-27.93-17.55-25.61-32.73-25.53-10.08.06-43.38-5.07-48.13-5.39s-23.88-2.86-26.72-1.7-17.3-11.8-29.32-17.88c-19.6-9.93-48.84-21-62.73-15.09-12.25,5.2-48.07,15.82-57.57,14.89s-20.55,1-35.13.11-59.48.18-59.48.18c-4.27.1,2.7,16.72,3.18,19.93s41.18,3.18,64.91,2,69,15.44,75.69,18.23c-8.49,18.56-1.94,25.24-2.19,43.34s-2.61,17.67-3.16,23.28c-.6,6,7.3,10,7.31,13.81S418.06,456.38,412.66,458.86Z" style="fill:#fff"/><path d="M384.88,338.3s3.48,13.89,4.8,20.23-.72,20.85-2.27,33.59-1,17.11-.05,19.65,1.95,18.85,2,23,5.3,9.67,6.05,18.56,8.49,5.29,13.49,5,9.13-6,13.83-19.94-2.19-16-5-20.86c-1.83-3.22-2.71-3.14,1-13.35s0-15.36-.63-23.3,3.31-33.47,3.31-33.47Z" style="fill:#aeadad"/><path d="M663.75,444.65a64.72,64.72,0,0,1,.64-18.28c1.19-7.59-2.51-14.65-5.79-20.89l-.08-.17c-.88-1.68-1.71-3.27-2.4-4.79-1.31-2.86-2.62-5.23-3.78-7.33A59.82,59.82,0,0,1,647.22,382a60.06,60.06,0,0,0-2.37-6.06c-.25-.55-.48-1.09-.72-1.65a30.19,30.19,0,0,0-7.64-11.42c-1.14-1.08-1.19-3.85-1.23-6.31v-.51c-.1-4.66-.55-10.14-3.15-15.47-4-8.24-10.43-12.28-19.61-12.37-3.7,0-6.78,0-9.81.08-4.59.08-8.93.15-14.67-.11h-.14a18.65,18.65,0,0,1-6.21-1.15c-9.61-4.35-17.4-4.23-25.71-4.1a82.12,82.12,0,0,1-15.52-.79c-.23,0-1.14-.14-3.69-.42-4.07-.45-13.58-1.49-14.6-1.78-8.63-3-15.81-8.5-23.41-14.34l-1.87-1.43c-8.54-6.53-18.67-10.06-27.46-12.66-13.69-4-28.1-4.85-44-2.45-10.86,1.65-21.26,4.86-31.32,8l-.22.07c-4.27,1.32-8.68,2.68-13,3.89a58.44,58.44,0,0,1-14.66,2.16c-7.14.12-14.43-.28-21.49-.66a255,255,0,0,0-27.44-.49l-4.15.21c-2.05.11-3.28.16-4.32.2-1.61.06-2.77.1-5.68.31l-.22,0-.2.07c-.18.07-.37.12-.55.17-1.16-6.17-3.79-17.85-5-21.6a2.52,2.52,0,0,1,.68-2.66,19.24,19.24,0,0,0,2.48-3.21c.37-.55.72-1.08,1.07-1.54,4.35-5.65.94-12.77-1.45-19.48a20.69,20.69,0,0,0-15.22-13.29c-10.52-2.44-21,1.51-26.73,10.06-2.59,3.88-1.85,8.54-1.2,12.66.08.46.15.92.22,1.37,1.51,10.21,8.85,16,16.56,20.72,3.37,2.08,3.94,3.75,4.06,5,.1,1,1,8.38,1.56,12.92a7,7,0,0,1-1.21-.32l-.44-.17-.45.11a4.92,4.92,0,0,0-1.13.44,3.91,3.91,0,0,0-2,3.28,22.6,22.6,0,0,0,1,7.44,28.88,28.88,0,0,1,.94,4.58c.35,2.92,1.56,9.88,5.33,11.56a21.72,21.72,0,0,0,3.6,1.18,279.94,279.94,0,0,1,5.67,28l.29,1.77h0c.47,2.75.93,5.51,1.42,8.25q2.31,12.92,4.68,25.85c.32,1.71.61,3.42.89,5.14.7,4.12,1.42,8.39,2.48,12.54,3.69,14.3,6.72,29,9.44,42.76a22,22,0,0,1,.33,2.54v0c-2.18,1-3.37,2.4-3.55,4.21-1.82,8.83,2.87,13.4,7.24,15.82a2.94,2.94,0,0,0,.08.49c1,3.49,1.88,7.07,2.66,11,.42,2.14,1,4.21,1.64,6.21l.23.76a50.94,50.94,0,0,1,1.5,6.05c2.54,15.53,6.57,30.77,10.48,45.06A288.55,288.55,0,0,1,337,582.32c1,6.48,2.19,13,3.37,19.34.58,3.11,1.16,6.22,1.72,9.34.46,2.61.93,5.21,1.4,7.82l.28,1.6c2.23,12.48,4.53,25.39,6.73,38.1,2.09,12,5.54,24.57,8.31,34.64l.35,1.27c.2.74.41,1.48.61,2.22a2.39,2.39,0,0,0,2.3,1.76,2.15,2.15,0,0,0,.61-.09,2.36,2.36,0,0,0,1.69-2.79l15.93,1.8L380,695.7l.09.32a2.38,2.38,0,0,0,2.28,1.72,2.27,2.27,0,0,0,.67-.1,2.4,2.4,0,0,0,1.61-3c-4.06-13.87-9-33.93-10.76-48.66q-.66-5.49-1.34-11a308.7,308.7,0,0,0-5.82-33.61l-.79-3.28c-2-8.06-4-16.39-5.54-24.69-.52-2.79-1-5.68-1.41-8.47-1.09-6.93-2.21-14.1-4.56-21-.35-1-.68-2.07-1-3.1a167.87,167.87,0,0,1-3.78-16.86l-.46-2.39c-.87-4.57-1.89-9.16-2.87-13.61-.5-2.25-1-4.5-1.48-6.76-.25-1.15-.75-3.8-1.42-7.42l.06,0c.75.23,1.77.55,2.24.76a29.84,29.84,0,0,0,3.07,1.16c.49.15,1,.32,1.44.49,1.88.7,3.76,1.3,5.43,1.83,2,.65,3.82,1.23,5.57,1.9a71.88,71.88,0,0,1,7,3.27,70.56,70.56,0,0,0,8.39,3.84c1.57.56,3.15,1.1,4.72,1.63l.35.12c5.31,1.81,10.33,3.51,15.15,6.21,1,.56,2.05,1.12,3.12,1.67a129.14,129.14,0,0,0,27.17,9.84c4.25,1.1,8.53,2,12.74,2.64a97,97,0,0,0,23.07,1.12c7.84-.65,17.81-.36,27.52-.08,8.17.24,15.89.47,22.65.17,2.85-.13,6.12,0,9.58.08h.15a115.79,115.79,0,0,0,12.24,0,26.16,26.16,0,0,1,5.5,0,69.71,69.71,0,0,0,11.49.08c2.65-.14,6.09,0,9.47.06,3.7.11,7.53.22,10.74,0a44.19,44.19,0,0,1,6.23.11h.1c1.42.1,2.7.18,4.14.18h.13a36.09,36.09,0,0,0,4.36-.28,103.17,103.17,0,0,0,11.38-2.08c1.19-.27,2.47-.58,3.88-.92l2-.49a35.84,35.84,0,0,0,5.17-2.12l.73-.33.86-.39a79.54,79.54,0,0,0,7.69-3.87c1.57-.87,3.2-1.77,5.06-2.68.62-.3,1.24-.59,1.86-.84a28.37,28.37,0,0,1,6.92-1.83,26.19,26.19,0,0,0,12.61-5.09,23.3,23.3,0,0,0,4.35-4.45A58.71,58.71,0,0,0,658,491.43l.24-.62a.76.76,0,0,0,.06-.2c4.45-11.62,6.57-21.49,6.5-30.16A100.42,100.42,0,0,0,663.75,444.65ZM375.06,478.14a1.62,1.62,0,0,1,0-.19c3.17-.82,6.72-.66,10.49-.49,1.46.06,3,.13,4.48.14,0,.28.06.57.1.87v0l0,.07c.15,1.05.37,2.09.58,3.09.05.23.11.82.17,1.44a27.14,27.14,0,0,0-7.26-2.07c-.32-.05-.63-.08-.94-.11a25.72,25.72,0,0,1-7.68-2.79ZM644,488.8c-5.27,0-11.83.06-17.81,2.69A38.38,38.38,0,0,1,611.67,494h0c-2.24,0-6.15-1.64-8.31-2.54-.82-.35-1.48-.62-2-.81-5.8-2-9.94-3.75-13.6-5.26l-.13-.05a86.74,86.74,0,0,0-11.55-4.19A140.65,140.65,0,0,0,556.27,477,210.9,210.9,0,0,0,532.86,476c-10.53-.06-21.7-1.35-35.17-4.05-12.91-2.59-26.06-3.39-38.35-3.87-2.7-.11-5.41-.15-8.12-.15-8,0-16.07.39-24,.78h-.16c-4.61.23-9.38.47-14.05.61-3.86.12-7.73.21-11.59.3l-2.56.06c-1.89,0-3.79.08-5.68.14l-1.78,0c-1.75.05-3.54,0-5.44-.11h-.12c-4.51-.2-9.17-.4-13.82,1.05a11.22,11.22,0,0,1-5.13.29l-.81-.08c-.78-.06-1.62-.13-2.59-.14h-.67a61.56,61.56,0,0,0-6.71.12c-1.23.14-2.48.24-3.84.3-2.71.12-5.53.09-8.35.05-3.31,0-6.75-.08-10.19.15a36.76,36.76,0,0,0-7.28,1.46l.39,1.44-.54-1.4a36.56,36.56,0,0,1-4.43,1l-.56-.19c-6.64-2.2-7.93-4.57-7.48-8,.23-.07.48-.14.74-.2l.44-.09,1.54-.17a92.5,92.5,0,0,1,13.86-.88,38.69,38.69,0,0,1,5.64.59c12.39,2.25,24.76,1.18,36.74.14,6.3-.54,12.81-1.11,19.16-1.15,1.18,0,2.37,0,3.65,0,1.94,0,3.93,0,6,0a40.36,40.36,0,0,0,11-1.71c2.21-.7,5.24-1.66,6.78-5,2.16-4.7,4.27-9.51,6.33-14.19l1.5-3.42c4.05-9.2,3.4-13-3.51-20.35l-.49-.5-.15-.14c-.1-.1-.21-.2-.29-.29a22.67,22.67,0,0,1-2.06-2.45,2.72,2.72,0,0,0-.31-.38,2.62,2.62,0,0,0-.15-.39c-.2-.44-.48-1,1.64-4.52a24.22,24.22,0,0,0,3.52-14.7,72.19,72.19,0,0,0-1.29-11.75,60,60,0,0,1-.82-20.2,69,69,0,0,1,2.87-12.55l.12,0,.38.12c1.55.5,2.08.67,4.49,3.24A3.88,3.88,0,0,0,434,356h0a3.89,3.89,0,0,0,2.82-6.54c-3.61-3.86-5.23-4.51-7.79-5.32l-.38-.13c-1.34-.43-2.69-.83-4-1.2-6.29-1.79-12.68-3.1-17.55-4.05s-9.52-2.15-14.14-3.34l-.21-.05L387.4,334c-.55-.13-2.26-.61-4.09-1.11l-1.5-.41a14.65,14.65,0,0,0-1.76-.54l-3.84-.93a140.11,140.11,0,0,0-18.28-3.65c-10.43-1.14-21-1.26-31.26-1.38-2.55,0-5.83-.17-9-.3-4.6-.2-8.95-.39-11.46-.27-1.11.05-1.62.09-2,.12-.56,0-.75.05-2.51.05h-2.14l-2.92,0c-1.16,0-2.37,0-3.57-.13A34.5,34.5,0,0,1,285,324a24.14,24.14,0,0,1-1.4-5.62,35.74,35.74,0,0,0-1.19-5.77c-.09-.34-.17-.64-.24-.93a22.52,22.52,0,0,0,5.33.14c2.6-.28,5.22-.52,7.76-.72,6.09-.48,12.26-.8,18.22-1.11l4.16-.22a248.46,248.46,0,0,1,26.62.49c7.17.39,14.59.79,22,.68a66.29,66.29,0,0,0,16.6-2.45c4.49-1.25,9-2.64,13.33-4l.21-.06c9.77-3,19.87-6.14,30.13-7.69,14.79-2.23,28.09-1.5,40.68,2.22,8.11,2.39,17.41,5.62,25,11.38l1.86,1.43c5.3,4.07,17.52,11.33,24.82,15.67,2.85,1.69,5.55,3.3,5.87,3.54a43.42,43.42,0,0,0,4.52,3.55l1.16.84a93.19,93.19,0,0,1,7.25,6.15c3.62,3.28,7.36,6.67,11,8.66l.26.14,7,3.84a3.73,3.73,0,0,0,1.85.46,3.88,3.88,0,0,0,1.84-7.29q-2.77-1.5-5.53-3l-1.69-.93c-3.33-1.84-7-5.1-10.45-8.26-2.34-2.11-4.76-4.3-7.11-6.06l.84.16c.66.13,1.44.25,2.24.37l1.26.2a88.72,88.72,0,0,0,17,.9c7.68-.12,14.31-.22,22.35,3.41a26.07,26.07,0,0,0,9.17,1.84c6,.27,10.43.19,15.19.11,3-.05,6-.1,9.59-.07,6.2.05,10,2.45,12.72,8,1.94,4,2.29,8.41,2.37,12.22v.5c.06,3.58.14,8.49,3.67,11.82a23,23,0,0,1,5.8,8.77c.25.61.51,1.2.8,1.84a51.51,51.51,0,0,1,2.06,5.26,65.94,65.94,0,0,0,5.77,12.64c1.13,2.05,2.3,4.17,3.45,6.69.83,1.82,1.81,3.69,2.68,5.35,2.84,5.41,5.78,11,5,16.08a71.59,71.59,0,0,0-.67,20.48,93.09,93.09,0,0,1,1,14.87c.07,7.8-1.94,16.89-6.15,27.77a5.08,5.08,0,0,1-1.13.27A44.67,44.67,0,0,1,644,488.8ZM391.18,427.75a13,13,0,0,1,0-1.39A58.31,58.31,0,0,0,389.67,412a35.24,35.24,0,0,1-.51-3.59c-.59-6.11.23-12.22,1.09-18.68.49-3.66,1-7.8,1.26-11.84l.15-2.7c.44-7.85.85-15.26-.69-23.27l-.09-.47a28.6,28.6,0,0,0-2-5.43,19.72,19.72,0,0,1-1.46-4L391,343c4.75,1.22,9.67,2.48,14.58,3.44,3.63.7,8.3,1.64,13.11,2.86A76.46,76.46,0,0,0,415.61,363a67.94,67.94,0,0,0,.92,22.81,64.37,64.37,0,0,1,1.13,10.51,16.7,16.7,0,0,1-2.38,10.26c-2.66,4.34-3.93,7.84-2.06,11.86a3.38,3.38,0,0,0,.61.91,3.91,3.91,0,0,0,.49,1,28.53,28.53,0,0,0,2.77,3.34l.58.59.36.35c4.85,5.16,4.91,5.49,2.08,11.92l-1.73,3.93c-2,4.47-4,9.08-6,13.57-.09.2-.6.41-2.15.91a32.52,32.52,0,0,1-8.86,1.33c-1.07,0-2.17,0-3.19,0,0-.77-.1-1.47-.19-2.12a21.57,21.57,0,0,0-1.52-5.52,67.32,67.32,0,0,1-4.15-12.76h0A54.92,54.92,0,0,1,391.18,427.75ZM344,479.06h.19c2.77,0,5.64.06,8.51-.07,1.57-.07,3-.18,4.36-.33a50.6,50.6,0,0,1,5.2-.09,8.42,8.42,0,0,0,1.33.88l.05,0c1,.64,3,1.93,5.59,3.36,3.6,2,8.73,4.41,12.75,4.82h.13l.52.07c3.81.52,7.18,1.12,9.75,3.25l.14.1.28.19.3.17.24.12.19.07a2.64,2.64,0,0,0,.4.12l.22.05a4.27,4.27,0,0,0,.71.07,3.62,3.62,0,0,0,1-.15,1.74,1.74,0,0,0,.28-.09,3.77,3.77,0,0,0,.68-.32l.25-.15a4.37,4.37,0,0,0,.6-.53l.17-.17a3.88,3.88,0,0,0,.48-.77,1.23,1.23,0,0,0,.1-.2l.09-.25,0-.14c1.09-3,.42-6.21-.18-9-.19-.88-.38-1.78-.49-2.55v-.09l3.14-.07c4.1-.1,8.21-.19,12.31-.32,4.65-.15,9.36-.38,13.92-.6l.6,0c10.27-.51,20.89-1,31.22-.62,12,.46,24.73,1.23,37.13,3.72,14,2.8,25.63,4.13,36.65,4.2a205.67,205.67,0,0,1,22.55,1,133.72,133.72,0,0,1,18.71,3.95,81.89,81.89,0,0,1,10.56,3.86c3.57,1.48,8,3.32,14.14,5.47.38.13.91.36,1.54.62l.13.06c3,1.23,7.44,3.1,11.33,3.1h0a45.73,45.73,0,0,0,17.2-3.05l.25-.1c4.58-2,10-2.05,14.83-2.07,1,0,1.84,0,2.67,0a51,51,0,0,1-3,4.3,17.64,17.64,0,0,1-2.75,2.94,18.68,18.68,0,0,1-9.44,3.78,35.86,35.86,0,0,0-8.58,2.31c-.77.32-1.55.67-2.29,1-2,1-3.71,1.91-5.43,2.86a71.34,71.34,0,0,1-7,3.52l-1.23.55-.65.29a39.87,39.87,0,0,1-3.68,1.6l-1.47.36-4.36,1a97,97,0,0,1-10.59,1.93,28.91,28.91,0,0,1-3.43.23c-1.23,0-2.37-.08-3.59-.16h-.11a52.82,52.82,0,0,0-7.34-.12c-2.84.17-6.5.07-10.06,0s-7.1-.21-10.08-.05a62,62,0,0,1-10.45-.07,34.15,34.15,0,0,0-6.74,0,113.82,113.82,0,0,1-11.55,0c-3.45-.11-7-.21-10.16-.07-6.44.28-14,.06-22.09-.18-9.85-.29-20-.59-28.39.11a90.56,90.56,0,0,1-21.22-1.05c-4-.63-8-1.46-12-2.5a121,121,0,0,1-25.56-9.24q-1.49-.75-2.88-1.53a96.63,96.63,0,0,0-16.48-6.8c-1.63-.55-3.26-1.1-4.9-1.69a65.38,65.38,0,0,1-7.49-3.45,76.11,76.11,0,0,0-7.73-3.61c-1.91-.73-3.83-1.35-5.7-1.95l-.4-.13c-1.64-.52-3.35-1.07-4.94-1.66-.55-.21-1.1-.39-1.75-.61a22.93,22.93,0,0,1-2.25-.83,28.91,28.91,0,0,0-3.16-1.12c-.83-.26-1.76-.55-2.2-.75a16.34,16.34,0,0,0-1.7-.65l-.06,0c-.4-2.23-.77-4.33-1.07-6.07C341.84,479,342.91,479,344,479.06Zm-66.52-212c-2.28,0-3-.14-3.93-1.27s-.77-3.57,0-5.05a6,6,0,0,1,1.58-2.24,38.06,38.06,0,0,1,3.21-2.23,1.28,1.28,0,0,1,.7-.26l.23,0a9.9,9.9,0,0,1,1,.08,9.79,9.79,0,0,1,6.33,2.77,4.92,4.92,0,0,1,.5.61,6.19,6.19,0,0,1,.16,1.37,7.12,7.12,0,0,1-3.63,6,21.93,21.93,0,0,1-3.41.21h-2.76Zm31.34,66.3c5.95.26,11.95.33,17.82.4,10,.11,20.42.23,30.48,1.32a135,135,0,0,1,17.33,3.49l1.83.45,3.07.84a1.85,1.85,0,0,1,.18.1,1.93,1.93,0,0,1,.06.67c-.08,3.33,1.16,6.11,2.27,8.58a23.38,23.38,0,0,1,1.48,3.89l.06.32c1.36,7.05,1,14,.55,21.4l-.15,2.65c-.19,3.71-.7,7.53-1.19,11.22-.89,6.6-1.8,13.44-1.14,20.44a43.79,43.79,0,0,0,.63,4.35A51.9,51.9,0,0,1,383.4,426c0,.8,0,1.61.05,2.23a59.76,59.76,0,0,0,1.25,9.26,75.69,75.69,0,0,0,4.6,14.2,13.24,13.24,0,0,1,1,3.55c0,.32.08.66.1,1-6.14.12-12.27.65-18.21,1.17-11.46,1-23.31,2-34.68-.05-.92-.16-1.85-.3-2.79-.41-.61-3.37-1.29-6.74-1.95-10-.53-2.55-1.05-5.09-1.53-7.64-.71-3.71-1.45-7.42-2.18-11.14-2.34-11.87-4.76-24.15-6.49-36.3-.77-5.37-2-10.67-3.17-15.78-.53-2.29-1.08-4.66-1.57-7-.44-2-.85-4.09-1.26-6.14a170.42,170.42,0,0,0-4.85-20c-.29-.88-.59-1.76-.9-2.65-.26-.72-.51-1.45-.75-2.17A34.27,34.27,0,0,1,308.79,333.39Z" style="fill:#141414"/><path d="M851.88,403.92c-.37-4-.61-8.14-.83-12.13a203.42,203.42,0,0,0-2-21.55c-3.1-18.58-8.29-38.14-16.35-61.59-5.89-17.13-11.24-32.57-17.08-48-1.4-3.7-2.74-7.58-4-11.33-3.84-11.12-7.8-22.63-14.39-32.39-5.61-8.31-10.9-17.08-16-25.56-9.16-15.17-18.63-30.85-30.44-44.89-11.42-13.59-20.94-22.37-31.84-29.35-9.12-5.86-16-11.64-21.55-18.18a162.08,162.08,0,0,0-53.51-41.41c-22.47-10.79-46.51-22-71.64-29.87-2.82-.89-5.69-1.86-8.46-2.8-7.88-2.66-16-5.42-24.67-6.79-10.74-1.69-23.37-3.81-35.67-6.63A234.57,234.57,0,0,0,459.5,5.84c-10.61-.42-21.25.33-31.54,1.06-5.61.39-11.41.8-17.09,1-9.21.34-18.18.81-26.78,2.81C370,14,355.55,16.58,341.56,19.07l-3.74.67c-3,.55-6.16,1-9.18,1.51a200.91,200.91,0,0,0-21.89,4.31C299.26,27.62,292,30.38,284.94,33c-4.48,1.7-9.11,3.45-13.7,5-18.67,6.22-38.16,15.12-61.33,28a437.18,437.18,0,0,0-74.49,52.19C126,126.47,117,136.8,108.14,149.8c-5.31,7.76-10.35,15.85-15.23,23.68-4,6.45-8.17,13.12-12.43,19.53A444.43,444.43,0,0,0,41,267.12l-2.34,5.57C33,286.29,27,300.37,22.11,314.59c-7,20.31-10.14,40.8-13.18,63.55-1.31,9.74-1.68,19.55-2,29-.26,6.92-.53,14.07-1.16,21.05C4.24,444.6,5,462.46,8.14,482.83c.46,3,.88,6,1.31,9,1.5,10.56,3.05,21.47,5.94,32a495.27,495.27,0,0,0,30.34,82.56c14.5,30.38,32.45,58.93,48.14,83.31a426.1,426.1,0,0,0,33.68,45.66,144.78,144.78,0,0,0,38.62,31.78c6.22,3.6,12.47,7.43,18.5,11.12,6.67,4.08,13.57,8.3,20.5,12.27,5.72,3.28,11.48,6.8,17,10.2,14.95,9.16,30.42,18.63,47.66,24.76,5.74,2.05,11.5,4.49,17.08,6.85,10.54,4.46,21.45,9.08,33.13,11.47,4.71,1,9.5,1.7,14.13,2.42,2.75.43,5.5.85,8.24,1.32a135.21,135.21,0,0,0,14.42,1.46,135.72,135.72,0,0,1,13.67,1.34c12.31,2.09,24.83,2.47,36.95,2.85,7.08.22,14.4.45,21.54,1,4.7.38,9.46.56,14.36.56a253.66,253.66,0,0,0,44.05-4.27c5.69-1,11.58-1.66,17.27-2.3,9-1,18.37-2.06,27.45-4.48,5.74-1.54,11.44-3.43,16.94-5.26,3.92-1.3,8-2.65,11.95-3.84A304,304,0,0,0,617.2,812c11-5.86,21.86-12.37,32.34-18.66,12.15-7.3,24.72-14.84,37.52-21.36,6.07-3.09,13-7.05,18.72-13,15.21-15.85,33-34.8,50-55.17,13-15.64,26.57-32.54,36.78-52,2.86-5.43,5.48-11.07,8-16.52a252.76,252.76,0,0,1,11.75-23.16c14.52-24.29,31.6-78.21,31.6-78.38,3.36-10.37,5.51-21.83,6.78-36,.42-4.73,1-9.52,1.55-14.15,1.17-9.76,2.37-19.86,2.22-30.05C854.2,435.87,853.36,419.65,851.88,403.92ZM698.31,464.17c-.36,3-.74,6.17-1,9.29a99.85,99.85,0,0,1-4.2,22.39c-.25.79-10.88,34.43-20,49.63a167.31,167.31,0,0,0-7.82,15.39c-1.62,3.48-3.29,7.07-5.09,10.48-6.39,12.16-15,22.86-23.23,32.79-10.87,13.06-22.33,25.23-32.1,35.42A39.93,39.93,0,0,1,594,647c-8.42,4.29-16.61,9.2-24.54,14-6.73,4-13.68,8.22-20.7,12a192.69,192.69,0,0,1-35.45,14.34c-2.65.79-5.3,1.67-7.86,2.52-3.5,1.16-7.11,2.36-10.69,3.32a116.1,116.1,0,0,1-17.07,2.77c-3.76.42-7.64.86-11.45,1.53-14,2.47-25.67,3.21-36.6,2.35-4.73-.38-9.52-.53-14.16-.67-7.67-.24-15.61-.49-23.26-1.78a90.93,90.93,0,0,0-9.3-.93,82.68,82.68,0,0,1-8.84-.88c-1.8-.31-3.6-.59-5.41-.86-2.94-.46-6-.93-8.91-1.53-7.11-1.46-13.94-4.35-20.55-7.15-3.67-1.55-7.46-3.15-11.3-4.52-10.69-3.8-20.48-9.8-29.95-15.6-3.62-2.21-7.37-4.51-11.13-6.66-4.42-2.53-8.85-5.24-13.13-7.86-3.93-2.41-8-4.9-12.06-7.25a88.86,88.86,0,0,1-23.76-19.54,268.86,268.86,0,0,1-21.41-29c-10.07-15.64-21.58-33.95-30.84-53.35a316.24,316.24,0,0,1-19.33-52.59,165.23,165.23,0,0,1-3.72-20.15c-.28-2-.56-3.92-.86-5.88-1.95-12.79-2.45-24-1.52-34.18.42-4.64.6-9.33.77-13.86.23-6,.46-12.25,1.28-18.32,1.93-14.46,3.89-27.47,8.31-40.19,3.14-9,6.94-18.07,10.61-26.8l1.52-3.61a283.17,283.17,0,0,1,25.08-47.14c2.79-4.2,5.5-8.54,8.11-12.74,3.13-5,6.36-10.21,9.74-15.14A101.3,101.3,0,0,1,242.49,232a278.38,278.38,0,0,1,47.37-33.19c14.72-8.18,27.07-13.82,38.87-17.75,3-1,6.09-2.17,9-3.29,4.45-1.68,9.05-3.42,13.68-4.7a123.84,123.84,0,0,1,13.66-2.67c2-.32,4-.64,6-1l2.42-.43c9.1-1.62,18.52-3.3,27.73-5.45a87.51,87.51,0,0,1,16.44-1.7c3.75-.14,7.54-.4,11.2-.66,5.25-.37,10.64-.75,16-.75,1.31,0,2.61,0,3.9.07A146.7,146.7,0,0,1,476.32,164c8.09,1.85,16.35,3.24,23.37,4.34a92.36,92.36,0,0,1,15.19,4.21c1.82.61,3.7,1.25,5.57,1.84,15.95,5,31.33,12.17,45.7,19.07a100.09,100.09,0,0,1,33.08,25.6,65.06,65.06,0,0,0,15,12.64c6.62,4.25,12.47,9.65,19.54,18.06,7.4,8.8,13.43,18.79,19.26,28.44,3.33,5.53,6.79,11.25,10.48,16.72,3.92,5.81,6.38,13,8.76,19.86.85,2.46,1.72,5,2.66,7.46,3.75,9.89,7.19,19.84,11,30.87,5.12,14.91,8.42,27.33,10.38,39.08a125.28,125.28,0,0,1,1.25,13.43c.15,2.62.31,5.33.56,8,.93,10,1.48,20.42,1.65,31.7A140.25,140.25,0,0,1,698.31,464.17Z" style="fill:#fee77b"/><path d="M443.39,859.83c-5,0-9.94-.19-14.75-.57-7-.55-14.26-.78-21.28-1h-.16c-12.24-.39-24.89-.78-37.5-2.92a128.83,128.83,0,0,0-13.07-1.28h-.16a139.29,139.29,0,0,1-14.87-1.51c-2.57-.44-5.15-.84-7.72-1.24l-.72-.11c-4.6-.72-9.35-1.45-14.08-2.43-12.17-2.48-23.31-7.2-34.08-11.76l-.42-.17c-5.37-2.27-10.93-4.62-16.39-6.56-17.74-6.32-33.43-15.92-48.6-25.21-5.51-3.37-11.21-6.86-16.91-10.13-7-4-13.92-8.24-20.62-12.34-5.7-3.5-12.17-7.45-18.4-11.06a149.64,149.64,0,0,1-39.92-32.87,430.49,430.49,0,0,1-34.07-46.19C73.89,668,55.84,639.23,41.22,608.61a500.57,500.57,0,0,1-30.65-83.4C7.6,514.34,6,503.28,4.5,492.58c-.42-3-.85-6-1.3-9-3.18-20.78-4-39-2.45-55.82.62-6.84.89-13.91,1.15-20.75.36-9.62.73-19.53,2.07-29.54,3.09-23,6.22-43.79,13.41-64.53,5-14.44,11-28.55,16.71-42.2l2.34-5.57a449.89,449.89,0,0,1,39.88-74.94c4.17-6.26,8.24-12.8,12.19-19.13l.17-.28c4.9-7.86,10-16,15.34-23.86,9.13-13.35,18.33-24,28.13-32.52a441.54,441.54,0,0,1,75.35-52.8c23.43-13,43.19-22,62.17-28.37,4.45-1.49,9-3.21,13.41-4.88l.1,0c7.16-2.71,14.54-5.51,22.25-7.63a201,201,0,0,1,22.44-4.42l.59-.1c2.8-.44,5.7-.9,8.49-1.4l3.93-.7c13.86-2.48,28.2-5,42.08-8.27,9-2.1,18.27-2.59,27.73-2.94,5.5-.2,11.15-.6,16.62-1l.31,0C438,1.17,448.78.41,459.7.84a239.5,239.5,0,0,1,44.8,5.77c12.26,2.81,24.74,4.89,35.32,6.56,9,1.43,17.36,4.24,25.4,7l.1,0c3,1,5.68,1.93,8.36,2.77,25.44,8,49.67,19.27,72.3,30.14a166.92,166.92,0,0,1,55.16,42.67c5.24,6.16,11.74,11.63,20.44,17.21,11.34,7.27,21.2,16.34,33,30.34,12,14.31,21.59,30.13,30.83,45.42l.25.41c5,8.33,10.22,16.94,15.69,25,7,10.31,11,22.13,15,33.56l.08.24c1.25,3.64,2.55,7.4,3.9,11,5.8,15.31,11.19,30.85,17.13,48.12,8.15,23.71,13.41,43.54,16.55,62.39a204.24,204.24,0,0,1,2.07,22c.22,3.81.46,8,.83,12,1.49,15.87,2.34,32.23,2.61,50,.16,10.6-1.07,20.83-2.26,30.71l-.06.49c-.53,4.44-1.07,9-1.47,13.51-1.3,14.6-3.52,26.4-7,37.14h-.06c-1.72,6.58-10.26,30.09-10.36,30.35-8.17,22.21-15.45,38.72-21.65,49.08a247.29,247.29,0,0,0-11.45,22.57l-.06.13c-2.41,5.19-5.15,11.08-8.13,16.74-10.43,19.83-24.17,37-37.36,52.83-17.05,20.49-35,39.52-50.22,55.44-6.2,6.46-13.62,10.69-20,14-12.71,6.47-25.17,14-37.22,21.19l-.3.18c-10.44,6.26-21.24,12.75-32.27,18.62a310.34,310.34,0,0,1-57.07,23.09c-3.85,1.14-7.8,2.46-11.62,3.72l-.18.06c-5.63,1.87-11.37,3.78-17.23,5.35-9.47,2.52-19,3.59-28.18,4.62l-.28,0c-5.53.63-11.24,1.27-16.68,2.23A260,260,0,0,1,443.39,859.83Zm-86.11-15.75a139.4,139.4,0,0,1,14.09,1.4c11.93,2,24.24,2.41,36.15,2.78h.12c7.16.22,14.54.45,21.79,1,4.55.36,9.24.54,14,.54a250.12,250.12,0,0,0,43.19-4.19c5.74-1,11.61-1.67,17.29-2.32l.28,0c8.84-1,18-2,26.73-4.34,5.56-1.49,11.16-3.35,16.57-5.15l.26-.09c3.89-1.29,7.91-2.62,11.91-3.82a299.21,299.21,0,0,0,55.23-22.33c10.8-5.75,21.49-12.16,31.83-18.37L647,789c12.2-7.33,24.81-14.9,37.83-21.53,5.68-2.9,12.2-6.59,17.37-12,15.15-15.79,32.91-34.66,49.75-54.91,12.85-15.44,26.22-32.11,36.2-51.09,2.86-5.43,5.55-11.21,7.91-16.3l.06-.13A256.43,256.43,0,0,1,808,609.59c13.3-22.25,29-70.7,30.89-76.58v0l.25-.75c3.24-10,5.32-21.12,6.55-35,.41-4.64,1-9.31,1.5-13.82l.06-.49c1.15-9.56,2.34-19.44,2.19-29.37-.26-17.51-1.1-33.61-2.56-49.22h0c-.39-4.21-.64-8.51-.86-12.31a198.08,198.08,0,0,0-1.95-21c-3.05-18.29-8.18-37.61-16.15-60.78-5.91-17.19-11.27-32.65-17-47.82-1.4-3.7-2.73-7.53-4-11.23l-.09-.25c-3.73-10.82-7.58-22-13.81-31.23-5.61-8.31-10.87-17-16-25.46l-.24-.4c-9-15-18.4-30.45-29.93-44.17-11.08-13.18-20.26-21.66-30.7-28.35-9.56-6.13-16.76-12.22-22.67-19.15a157.08,157.08,0,0,0-51.86-40.14c-22.31-10.71-46.17-21.82-71-29.61-2.79-.87-5.54-1.8-8.58-2.84l-.1,0c-7.64-2.58-15.54-5.26-23.74-6.55-10.76-1.7-23.45-3.82-36-6.7a230.91,230.91,0,0,0-43-5.52c-10.37-.4-20.86.34-31,1.05l-.31,0c-5.55.38-11.29.79-16.95,1-9,.33-17.68.78-25.83,2.68-14.13,3.29-28.6,5.88-42.6,8.37l-3.92.7c-2.89.52-5.84,1-8.69,1.44l-.58.09a193.48,193.48,0,0,0-21.35,4.19c-7.26,2-14.42,4.71-21.34,7.33l-.13,0c-4.49,1.7-9.14,3.46-13.78,5-18.38,6.12-37.6,14.9-60.49,27.62A432.38,432.38,0,0,0,138.7,122c-9.14,8-17.79,18-26.43,30.63C107,160.3,102,168.34,97.16,176.12l-.18.28c-4,6.39-8.1,13-12.34,19.38a440,440,0,0,0-39,73.27l-2.34,5.57c-5.69,13.51-11.57,27.48-16.48,41.61C20,336.08,16.89,356.32,13.88,378.8c-1.27,9.55-1.64,19.21-2,28.56-.26,7-.54,14.21-1.18,21.31-1.45,16-.68,33.44,2.37,53.41.46,3,.89,6,1.32,9.07,1.48,10.42,3,21.16,5.81,31.43a490.31,490.31,0,0,0,30,81.72c14.36,30.09,32.22,58.5,47.83,82.76a420.47,420.47,0,0,0,33.28,45.13,139.92,139.92,0,0,0,37.32,30.68c6.33,3.68,12.85,7.67,18.6,11.19,6.64,4.06,13.5,8.26,20.37,12.19,5.83,3.34,11.59,6.87,17.17,10.28,14.73,9,30,18.35,46.72,24.31,5.74,2,11.43,4.45,16.93,6.78l.42.17c10.33,4.37,21,8.89,32.19,11.18,4.5.92,9.13,1.64,13.61,2.34l.73.11c2.62.41,5.25.82,7.87,1.27a131.35,131.35,0,0,0,13.83,1.38l-.16,5Zm81.29-139c-3.18,0-6.27-.12-9.32-.36-4.66-.37-9.58-.52-13.91-.65-7.84-.25-15.95-.5-23.94-1.85a85.65,85.65,0,0,0-8.77-.87h-.13a84.1,84.1,0,0,1-9.27-.93q-2.64-.45-5.31-.85c-3-.47-6.12-1-9.15-1.58-7.59-1.54-14.65-4.53-21.48-7.42-3.62-1.54-7.35-3.11-11-4.43-11.2-4-21.21-10.11-30.89-16-3.58-2.19-7.29-4.46-11-6.59-4.4-2.52-8.78-5.2-13-7.8l-.23-.14c-3.67-2.25-7.82-4.79-12-7.19a93.71,93.71,0,0,1-25.07-20.62,276.12,276.12,0,0,1-21.81-29.56c-10.14-15.76-21.75-34.23-31.14-53.9a320.11,320.11,0,0,1-19.64-53.44,167.6,167.6,0,0,1-3.85-20.76l-.06-.43c-.26-1.8-.51-3.6-.79-5.39-2-13.2-2.52-24.78-1.56-35.39.42-4.54.59-9.14.75-13.6.24-6.13.47-12.48,1.32-18.8,2-14.73,4-28,8.54-41.15,3.21-9.24,7-18.33,10.74-27.12l1.51-3.6a287.53,287.53,0,0,1,25.53-48c2.7-4.06,5.34-8.3,7.89-12.4l.14-.22c3.15-5.06,6.41-10.29,9.85-15.32a106.24,106.24,0,0,1,17.7-20.49,283.87,283.87,0,0,1,48.23-33.79c15-8.33,27.62-14.09,39.72-18.13,3-1,6-2.12,8.84-3.21l.1,0c4.53-1.71,9.21-3.48,14-4.81a126.61,126.61,0,0,1,14.2-2.79c2-.31,4-.63,5.92-1l2.42-.43c9-1.62,18.39-3.28,27.47-5.4a91.61,91.61,0,0,1,17.39-1.83c3.71-.13,7.61-.41,11-.65,5.3-.37,10.78-.76,16.34-.76,1.48,0,2.82,0,4.1.08a152.26,152.26,0,0,1,28.44,3.65c8,1.83,16.12,3.19,23,4.29a94.42,94.42,0,0,1,15.94,4.38l.37.12c1.69.57,3.43,1.16,5.17,1.71,16.28,5.11,31.83,12.35,46.37,19.33A105.39,105.39,0,0,1,603,215.85a60.23,60.23,0,0,0,13.85,11.68c7.08,4.55,13.26,10.25,20.67,19.06,7.66,9.11,13.79,19.26,19.71,29.07,3.13,5.19,6.68,11.07,10.35,16.5,4.28,6.35,6.85,13.81,9.33,21l.12.32c.8,2.32,1.63,4.72,2.49,7,3.77,9.95,7.24,19.94,11.05,31,5.22,15.19,8.58,27.86,10.58,39.88a128.29,128.29,0,0,1,1.31,14c.15,2.57.3,5.22.54,7.83,1,10.19,1.5,20.68,1.68,32.1a142.84,142.84,0,0,1-1.44,19.47l-5-.6,5,.6c-.34,2.83-.73,6.05-1,9.14a104.69,104.69,0,0,1-4.42,23.48l-.05.15c-1.88,5.89-11.73,36-20.38,50.5A166.21,166.21,0,0,0,669.83,563c-1.64,3.53-3.34,7.17-5.19,10.7-6.62,12.59-15.4,23.53-23.82,33.65-10.94,13.15-22.48,25.42-32.33,35.69a44.37,44.37,0,0,1-12.21,8.47c-8.32,4.24-16.41,9.1-24.23,13.8l-.19.11c-6.72,4-13.67,8.2-20.74,12a197.61,197.61,0,0,1-36.37,14.71c-2.63.78-5.33,1.68-7.71,2.47-3.62,1.21-7.28,2.42-11,3.41a120.33,120.33,0,0,1-17.81,2.91c-3.65.41-7.43.84-11.13,1.49A164.28,164.28,0,0,1,438.57,705.12Zm6.33-539.69c-5.2,0-10.51.37-15.64.74-3.51.24-7.49.52-11.37.67a83.11,83.11,0,0,0-15.48,1.57c-9.34,2.18-18.82,3.87-28,5.5l-2.42.43c-2,.37-4.09.69-6.09,1a119.67,119.67,0,0,0-13.14,2.56c-4.37,1.21-8.83,2.89-13.14,4.52l-.1,0c-3,1.13-6.07,2.3-9.22,3.35-11.5,3.83-23.58,9.36-38,17.38a273.36,273.36,0,0,0-46.52,32.59,96.93,96.93,0,0,0-16,18.6c-3.31,4.85-6.51,10-9.61,15l-.14.22c-2.59,4.16-5.27,8.46-8.05,12.65a276.88,276.88,0,0,0-24.64,46.3l-1.52,3.61c-3.64,8.65-7.4,17.59-10.5,26.51-4.26,12.28-6.18,25-8.08,39.21-.78,5.85-1,11.95-1.23,17.85-.17,4.58-.35,9.33-.79,14.12-.89,9.8-.4,20.59,1.49,33,.28,1.82.54,3.66.8,5.49l.06.44a160,160,0,0,0,3.6,19.53,309.29,309.29,0,0,0,19,51.76c9.13,19.14,20.54,37.29,30.52,52.8a265,265,0,0,0,21,28.49,84.15,84.15,0,0,0,22.46,18.45c4.24,2.46,8.45,5,12.16,7.31l.23.14c4.17,2.56,8.49,5.2,12.77,7.65,3.85,2.2,7.62,4.51,11.26,6.74,9.24,5.66,18.8,11.51,29,15.15,4,1.42,7.83,3,11.56,4.62,6.4,2.72,13,5.51,19.61,6.86,2.81.57,5.77,1,8.64,1.48,1.87.29,3.7.57,5.52.88a78.58,78.58,0,0,0,8.22.82h.1a95.78,95.78,0,0,1,9.82,1c7.31,1.24,15.08,1.48,22.58,1.71,4.45.14,9.49.29,14.39.68,10.51.83,21.74.11,35.34-2.28,4-.71,8.13-1.17,11.76-1.58a112.59,112.59,0,0,0,16.35-2.63c3.4-.91,6.92-2.08,10.31-3.21,2.53-.84,5.32-1.76,8.09-2.59a187.19,187.19,0,0,0,34.53-14c6.84-3.64,13.68-7.75,20.3-11.72l.18-.11c8-4.78,16.21-9.73,24.85-14.13a35.4,35.4,0,0,0,9.52-6.48c9.73-10.14,21.12-22.25,31.86-35.16,8.08-9.72,16.49-20.18,22.66-31.91,1.74-3.32,3.39-6.85,5-10.27a172.6,172.6,0,0,1,8.06-15.85c8.1-13.54,17.62-42.71,19.45-48.42l.06-.19a95.08,95.08,0,0,0,4-21.28c.29-3.24.69-6.54,1-9.44a135.2,135.2,0,0,0,1.37-18.13c-.17-11.15-.71-21.4-1.63-31.32-.26-2.79-.43-5.66-.57-8.19a122.67,122.67,0,0,0-1.19-12.89c-1.91-11.46-5.14-23.62-10.18-38.27-3.78-11-7.22-20.92-10.94-30.73-.92-2.42-1.77-4.89-2.6-7.28l-.1-.32c-2.29-6.61-4.64-13.43-8.18-18.69-3.81-5.65-7.43-11.64-10.62-16.93C643,271.34,637.07,261.54,629.9,253c-6.72-8-12.23-13.1-18.41-17.07a70.13,70.13,0,0,1-16.07-13.61A95.08,95.08,0,0,0,564,198c-14.21-6.83-29.39-13.9-45-18.81-1.8-.57-3.61-1.18-5.37-1.77l-.3-.11a88.17,88.17,0,0,0-14.37-4c-7.08-1.12-15.43-2.51-23.71-4.41a141.88,141.88,0,0,0-26.59-3.41C447.45,165.45,446.24,165.43,444.9,165.43Z" style="fill:#141414"/><path d="M188.51,724.55a3.9,3.9,0,0,1,.65-3l31-45.55a4.06,4.06,0,0,1,2.62-1.76,3.84,3.84,0,0,1,3.06.61l17,11.54q7.07,4.81,9.91,10.23A17.8,17.8,0,0,1,255,707,21.32,21.32,0,0,1,244,723.11a17.77,17.77,0,0,1-10.55,1.75q-6.08-.66-13.15-5.46l-13.55-9.21-10.83,15.92a3.81,3.81,0,0,1-2.62,1.7,4,4,0,0,1-3.08-.68A3.89,3.89,0,0,1,188.51,724.55Zm35.48-12q7.59,5.16,12.65,4.36a12.07,12.07,0,0,0,9.82-14.44q-1.11-5-8.7-10.16l-12.88-8.76-13.76,20.25Z" style="fill:#010101;stroke:#010101;stroke-miterlimit:10;stroke-width:3px"/><path d="M267.87,770.06a5.5,5.5,0,0,1-.07-4.34l19.79-49.66a4.05,4.05,0,0,1,2.17-2.28,3.84,3.84,0,0,1,3.13-.07,4,4,0,0,1,2.26,2.21,4,4,0,0,1,.05,3.17l-18.86,47.32,27.34,10.9a4.15,4.15,0,0,1,2.32,5.38,3.82,3.82,0,0,1-2.2,2.22,4.05,4.05,0,0,1-3.15,0L271,773.09A5.46,5.46,0,0,1,267.87,770.06Z" style="fill:#010101;stroke:#010101;stroke-miterlimit:10;stroke-width:3px"/><path d="M339.68,795.73a4,4,0,0,1-.67-3,5.08,5.08,0,0,1,.73-1.71l31.07-50a6.84,6.84,0,0,1,2.42-2.31,5,5,0,0,1,3.31-.53l.89.14a5,5,0,0,1,3,1.52A7,7,0,0,1,382,742.8l14.27,57.08a4.87,4.87,0,0,1,.16,1.85,4,4,0,0,1-1.56,2.67,3.87,3.87,0,0,1-3.07.7,4.1,4.1,0,0,1-2.16-1,4.27,4.27,0,0,1-1.27-2.07l-3.6-14.78-30.23-4.74-8,13a4.31,4.31,0,0,1-1.84,1.58,4.09,4.09,0,0,1-2.37.31A3.87,3.87,0,0,1,339.68,795.73Zm19.15-20.13,24,3.77-7.46-30.78Z" style="fill:#010101;stroke:#010101;stroke-miterlimit:10;stroke-width:3px"/><path d="M438.75,802.64a4.13,4.13,0,0,1-1.9-1.35,3.74,3.74,0,0,1-.88-2.15,3.78,3.78,0,0,1,.83-2.72,3.46,3.46,0,0,1,2.57-1.32,4.4,4.4,0,0,1,1.73.23,43.1,43.1,0,0,0,18,2.38q15.7-1.15,14.94-11.48a5.79,5.79,0,0,0-2.35-4.34,14.53,14.53,0,0,0-5.19-2.46c-2-.54-4.9-1.15-8.62-1.84a109.26,109.26,0,0,1-12-2.77,20.58,20.58,0,0,1-8.11-4.69q-3.49-3.25-3.92-9.09a16.85,16.85,0,0,1,2-9.49,18.63,18.63,0,0,1,7.45-7.23,29.55,29.55,0,0,1,12.43-3.39,51.15,51.15,0,0,1,18.08,1.64,3.51,3.51,0,0,1,2.78,3.41,3.94,3.94,0,0,1-.8,2.67,3.24,3.24,0,0,1-2.51,1.36,4.22,4.22,0,0,1-1.47-.25,43.65,43.65,0,0,0-14.63-1.36q-7.08.52-11.33,3.54a8.42,8.42,0,0,0-3.89,7.87,6.94,6.94,0,0,0,2.5,5.09,14.56,14.56,0,0,0,5.52,2.76,82.42,82.42,0,0,0,8.84,1.73,91.43,91.43,0,0,1,11.7,2.57,18.91,18.91,0,0,1,7.84,4.75q3.36,3.36,3.81,9.46a15.1,15.1,0,0,1-2.21,9.24,18.93,18.93,0,0,1-7.62,6.83,30.33,30.33,0,0,1-11.86,3.13A53.44,53.44,0,0,1,438.75,802.64Z" style="fill:#010101;stroke:#010101;stroke-miterlimit:10;stroke-width:3px"/><path d="M537.38,790.25a3.94,3.94,0,0,1-1.92-2.44l-14.22-49.57-17.65,5.06a3.68,3.68,0,0,1-4.67-2.59,3.8,3.8,0,0,1,.28-2.94,3.59,3.59,0,0,1,2.28-1.82l43.08-12.36a3.84,3.84,0,0,1,4.79,2.65,3.54,3.54,0,0,1-.34,2.9,3.81,3.81,0,0,1-2.34,1.8l-17.56,5,14.23,49.57a3.83,3.83,0,0,1-.38,3.1,4,4,0,0,1-2.49,1.93A3.87,3.87,0,0,1,537.38,790.25Z" style="fill:#010101;stroke:#010101;stroke-miterlimit:10;stroke-width:3px"/><path d="M602.22,765.88a3.92,3.92,0,0,1-2.31-2.07l-24.37-49.9a4,4,0,0,1-.23-3.14,3.84,3.84,0,0,1,2.05-2.36,4.15,4.15,0,0,1,5.54,1.9l24.37,49.9a3.89,3.89,0,0,1,.17,3.13,4.08,4.08,0,0,1-2.12,2.33A3.91,3.91,0,0,1,602.22,765.88Z" style="fill:#010101;stroke:#010101;stroke-miterlimit:10;stroke-width:3px"/><path d="M657.46,731.11a28.24,28.24,0,0,1-15.74-2.33,37.94,37.94,0,0,1-20.44-27.54,28.13,28.13,0,0,1,2.33-15.73,33.08,33.08,0,0,1,10.64-12.78,38,38,0,0,1,9.64-5.36A46.58,46.58,0,0,1,654.05,665a3.63,3.63,0,0,1,3.63,1.57,3.41,3.41,0,0,1,.63,2.5,3.47,3.47,0,0,1-1.48,2.39,3.69,3.69,0,0,1-1.52.68,41,41,0,0,0-8.09,2.08,31.75,31.75,0,0,0-7.66,4.34A25.66,25.66,0,0,0,630.88,689a20.56,20.56,0,0,0-1.37,11.89,30.13,30.13,0,0,0,15,20.17,20.48,20.48,0,0,0,11.78,2.12,25.58,25.58,0,0,0,12.5-5.29,32.07,32.07,0,0,0,6.36-6.07,41,41,0,0,0,4.34-7.14,3.5,3.5,0,0,1,1.09-1.26,3.55,3.55,0,0,1,2.68-.76,3.31,3.31,0,0,1,2.24,1.36,3.63,3.63,0,0,1,.45,3.93,46.49,46.49,0,0,1-5.23,9,38,38,0,0,1-7.92,7.67A33.11,33.11,0,0,1,657.46,731.11Z" style="fill:#010101;stroke:#010101;stroke-miterlimit:10;stroke-width:3px"/><path d="M178.75,250.15a3.9,3.9,0,0,1-3-.89l-43-34.47a4.07,4.07,0,0,1-1.55-2.75,3.82,3.82,0,0,1,.85-3L145,193q5.35-6.66,11-9.07a17.75,17.75,0,0,1,10.6-1.42,21.38,21.38,0,0,1,15.16,12.17,17.84,17.84,0,0,1,.91,10.65q-1.14,6-6.49,12.69l-10.25,12.77,15,12.06a3.82,3.82,0,0,1,1.48,2.75,4,4,0,0,1-.91,3A3.92,3.92,0,0,1,178.75,250.15Zm-9.16-36.32q5.74-7.16,5.35-12.27a12.08,12.08,0,0,0-13.62-10.93q-5.07.72-10.82,7.88l-9.75,12.14L159.84,226Z" style="stroke:#141414;stroke-miterlimit:10;stroke-width:3px"/><path d="M232,191.59a3.91,3.91,0,0,1-2.64-1.64l-32.49-44.48a4.08,4.08,0,0,1-.78-3.05,3.82,3.82,0,0,1,1.61-2.68l16.93-12.37q9.89-7.22,17.8-6.76a16.32,16.32,0,0,1,12.75,7.08,17.21,17.21,0,0,1,3.38,9.73,16.87,16.87,0,0,1-3.29,10.38,12.36,12.36,0,0,1,11.91,1.27,35.39,35.39,0,0,1,9.27,8.66l2.45,3.35a4,4,0,0,1-.89,5.65,3.87,3.87,0,0,1-5.73-.82l-1.59-2.19a39.78,39.78,0,0,0-5.57-6.24,13.37,13.37,0,0,0-7.16-3.24q-4.24-.63-9.26,3l-15,11,12.31,16.86a3.87,3.87,0,0,1,.72,3,4.08,4.08,0,0,1-1.67,2.67A3.9,3.9,0,0,1,232,191.59Zm.25-39.19q6.24-4.56,8.11-9.72A9.8,9.8,0,0,0,238.9,133a9.66,9.66,0,0,0-8.05-4.38q-4.86,0-12.49,5.55l-12.79,9.35L219.05,162Z" style="stroke:#141414;stroke-miterlimit:10;stroke-width:3px"/><path d="M301.68,146.87a3.91,3.91,0,0,1-2.13-2.27L279.8,93.67a4.05,4.05,0,0,1,0-3.15,3.84,3.84,0,0,1,2.25-2.18l33.64-13a3.83,3.83,0,0,1,5,2.2,3.6,3.6,0,0,1-.07,2.93,3.82,3.82,0,0,1-2.17,2L288.7,94l7.19,18.54,26.77-10.38a3.85,3.85,0,0,1,5,2.21,3.64,3.64,0,0,1-.07,2.93,3.85,3.85,0,0,1-2.17,2l-26.77,10.38,7.22,18.62,29.79-11.55a3.85,3.85,0,0,1,5,2.21,3.64,3.64,0,0,1-.07,2.93,3.85,3.85,0,0,1-2.17,2l-33.65,13A3.91,3.91,0,0,1,301.68,146.87Z" style="stroke:#141414;stroke-miterlimit:10;stroke-width:3px"/><path d="M383.87,120.83a28.14,28.14,0,0,1-12.44-9.91,34.68,34.68,0,0,1-6-16.58,34.54,34.54,0,0,1,2.15-17.49,28.14,28.14,0,0,1,9.91-12.45,33.05,33.05,0,0,1,15.61-5.7,38.24,38.24,0,0,1,11,.2,46.32,46.32,0,0,1,10,3,3.63,3.63,0,0,1,2.35,3.18,3.39,3.39,0,0,1-.71,2.48,3.45,3.45,0,0,1-2.48,1.32,3.59,3.59,0,0,1-1.65-.17,40.63,40.63,0,0,0-8.05-2.26,32,32,0,0,0-8.79-.09A25.69,25.69,0,0,0,382,71a20.58,20.58,0,0,0-7.15,9.6,27.86,27.86,0,0,0-1.32,12.78,28,28,0,0,0,4.14,12.17,20.42,20.42,0,0,0,9.12,7.75,25.61,25.61,0,0,0,13.46,1.7,32.1,32.1,0,0,0,8.55-2.06,41,41,0,0,0,7.34-4,3.62,3.62,0,0,1,1.57-.54,3.57,3.57,0,0,1,2.71.69,3.34,3.34,0,0,1,1.25,2.3,3.62,3.62,0,0,1-1.58,3.63,47.25,47.25,0,0,1-9.06,5.19,38.37,38.37,0,0,1-10.7,2.66A33.14,33.14,0,0,1,383.87,120.83Z" style="stroke:#141414;stroke-miterlimit:10;stroke-width:3px"/><path d="M455.61,121a3.91,3.91,0,0,1-.89-3l5.16-55.29a4.09,4.09,0,0,1,1.44-2.8,3.8,3.8,0,0,1,3-.94,4.15,4.15,0,0,1,3.74,4.5l-5.17,55.29a3.85,3.85,0,0,1-1.48,2.76,4.1,4.1,0,0,1-3,.89A4,4,0,0,1,455.61,121Z" style="stroke:#141414;stroke-miterlimit:10;stroke-width:3px"/><path d="M510.6,127.67a28.4,28.4,0,0,1-6.84-14.29,36.57,36.57,0,0,1,10.5-31.79,28.35,28.35,0,0,1,14-7.42,35.08,35.08,0,0,1,31.4,10.37,28.64,28.64,0,0,1,6.83,14.34A36.07,36.07,0,0,1,556,130.59,28.73,28.73,0,0,1,542,138a32.05,32.05,0,0,1-17-1.24A32.39,32.39,0,0,1,510.6,127.67Zm29.72,2.71a21.27,21.27,0,0,0,10.46-5.84,29.84,29.84,0,0,0,7.9-23.93,21.24,21.24,0,0,0-4.93-10.91A25.85,25.85,0,0,0,530,81.84a21.34,21.34,0,0,0-10.41,5.85,29.84,29.84,0,0,0-7.9,23.93,21.39,21.39,0,0,0,4.88,10.9,25.89,25.89,0,0,0,23.8,7.86Z" style="stroke:#141414;stroke-miterlimit:10;stroke-width:3px"/><path d="M595.24,167.05A23.18,23.18,0,0,1,592,154.73a23.48,23.48,0,0,1,4.67-13.27l20.4-29.11a4.05,4.05,0,0,1,2.63-1.73,3.89,3.89,0,0,1,3.06.66,4.15,4.15,0,0,1,1,5.77l-20.56,29.33a16.39,16.39,0,0,0-3.23,8.94,15.44,15.44,0,0,0,2.09,8.39,20.62,20.62,0,0,0,14.15,9.91,15.46,15.46,0,0,0,8.6-.9,16.34,16.34,0,0,0,7.29-6.1l20.55-29.33a4,4,0,0,1,2.64-1.73,3.87,3.87,0,0,1,3,.66,4,4,0,0,1,1.7,2.67,4,4,0,0,1-.68,3.1L639,171.1a22.82,22.82,0,0,1-23.55,10.1,29.56,29.56,0,0,1-20.2-14.15Z" style="stroke:#141414;stroke-miterlimit:10;stroke-width:3px"/><path d="M652.73,211.75a4.1,4.1,0,0,1,0-2.33,3.84,3.84,0,0,1,3.93-2.88,3.49,3.49,0,0,1,2.57,1.31,4.21,4.21,0,0,1,.82,1.55,43,43,0,0,0,8.56,16q10.11,12.06,18,5.42a5.8,5.8,0,0,0,2.15-4.44,14.79,14.79,0,0,0-1-5.65q-1.11-2.94-3.54-8.08a108.88,108.88,0,0,1-4.77-11.37,20.54,20.54,0,0,1-.94-9.32,13.24,13.24,0,0,1,5.09-8.49,16.89,16.89,0,0,1,8.88-3.92,18.6,18.6,0,0,1,10.22,1.83,29.43,29.43,0,0,1,10,8.11,50.93,50.93,0,0,1,9.22,15.63,3.5,3.5,0,0,1-1.14,4.24,3.88,3.88,0,0,1-2.63.92,3.24,3.24,0,0,1-2.58-1.25,4.09,4.09,0,0,1-.65-1.33A43.87,43.87,0,0,0,707.49,195q-4.56-5.44-9.5-7.13a8.41,8.41,0,0,0-8.65,1.44,7,7,0,0,0-2.68,5,14.45,14.45,0,0,0,1,6.1,82.13,82.13,0,0,0,3.75,8.18,90.88,90.88,0,0,1,4.74,11,18.71,18.71,0,0,1,.73,9.13q-.76,4.69-5.46,8.63a15.19,15.19,0,0,1-8.78,3.6,18.93,18.93,0,0,1-10-2.19,30.24,30.24,0,0,1-9.47-7.8A53.28,53.28,0,0,1,652.73,211.75Z" style="stroke:#141414;stroke-miterlimit:10;stroke-width:3px"/></g></svg>