<svg width="575" height="196" viewBox="0 0 575 196" fill="none" xmlns="http://www.w3.org/2000/svg">
<mask id="mask0_514_430" style="mask-type:alpha" maskUnits="userSpaceOnUse" x="0" y="0" width="575" height="196">
<rect width="575" height="196" fill="#D9D9D9"/>
</mask>
<g mask="url(#mask0_514_430)">
<path d="M190.072 139.4C190.249 126.56 189.733 113.497 186.051 101.111C185.281 98.562 184.588 96.0125 181.715 95.2962C180.706 95.0422 179.651 95.0394 178.641 95.2878C177.631 95.5362 176.698 96.0283 175.922 96.7211C175.081 97.6207 174.606 98.8017 174.59 100.033C174.405 101.651 174.313 103.276 174.274 104.901C174.197 107.982 174.336 111.063 174.513 114.144C174.921 121.346 175.637 128.663 174.413 135.826L178.449 134.755C178.503 134.825 178.865 135.349 178.665 135.017C178.464 134.686 178.665 135.102 178.749 135.248C178.657 134.987 178.557 134.732 178.48 134.478C178.272 133.762 178.11 133.022 177.964 132.291C177.509 130.065 177.193 127.816 176.816 125.574C175.93 119.79 175.121 114.021 174.058 108.228C173.558 105.494 173.011 102.767 172.31 100.079C171.786 97.6148 170.929 95.2333 169.761 93.0009C167.773 89.6272 163.36 88.8185 160.741 92.0227C159.332 93.7403 159.239 96.0895 159.023 98.1846C158.801 100.545 158.722 102.916 158.785 105.286C159.008 116.193 160.063 127.13 160.756 138.021L161.95 135.934L163.183 136.026C163.09 135.964 163.017 135.876 162.975 135.772C162.85 135.43 162.69 135.103 162.497 134.794C162.181 134.07 161.873 133.338 161.565 132.614C160.934 131.146 160.317 129.667 159.717 128.178C158.592 125.42 157.545 122.624 156.636 119.774C155.756 116.932 155.041 114.042 154.494 111.117C154.001 108.436 154.055 105.271 152.661 102.845C151.267 100.418 147.531 99.2783 145.128 101.142C142.571 103.122 142.718 106.811 142.818 109.707C143.087 116.096 143.818 122.457 145.005 128.74C145.683 132.329 146.499 135.88 147.37 139.423C148.317 143.236 149.55 146.833 148.648 150.776L152.191 149.336C147.99 147.224 144.308 144.21 141.408 140.509C139.977 138.702 138.689 136.786 137.557 134.779C136.386 132.745 135.57 130.419 134.183 128.524C132.797 126.629 130.725 124.989 128.268 125.69C125.811 126.391 124.856 129.017 125.017 131.366C125.387 136.689 127.128 141.988 129.3 146.817C131.611 151.901 134.861 156.384 138.319 160.682C140.068 162.869 141.847 165.018 143.442 167.321C145.036 169.624 146.522 171.943 148.063 174.207C151.144 178.574 155.388 182.426 156.451 187.856C157.444 192.97 157.799 198.285 158.353 203.461C159.84 217.325 160.418 231.243 161.827 245.108C162.335 250.083 162.913 255.059 163.529 260.027C163.56 261.181 163.956 262.295 164.662 263.208C165.094 263.909 165.743 264.45 166.51 264.749C167.206 264.879 167.913 264.941 168.621 264.933C172.872 265.211 177.178 265.704 181.445 265.704C183.718 265.818 185.996 265.767 188.262 265.55C190.626 265.203 192.983 264.779 195.348 264.433C195.533 264.433 196.08 264.217 196.264 264.294C196.264 264.294 195.363 264.402 195.849 264.348L196.704 264.248L200.401 263.794C202.293 263.534 204.162 263.129 205.993 262.584L209.112 261.691C210.252 261.36 211.292 259.95 210.791 258.725C208.765 253.742 207.51 248.358 205.908 243.213C204.56 238.869 203.181 234.524 201.972 230.119C199.36 220.141 197.534 209.973 196.511 199.71C196.064 195.689 195.656 191.663 195.286 187.632C195.186 186.6 195.163 185.584 195.14 184.551C195.048 183.505 195.196 182.451 195.571 181.47C196.573 178.49 199.376 176.348 201.41 174.061C203.779 171.469 205.897 168.658 207.733 165.665C209.657 162.574 211.023 159.169 211.769 155.606C212.54 151.539 212.609 147.418 213.818 143.428C214.642 140.709 216.013 138.137 217.015 135.48C218.016 132.822 219.387 130.149 217.931 127.477C216.021 123.964 211.276 123.24 207.864 124.835C204.052 126.622 201.179 129.98 199.199 133.623C198.075 135.703 197.135 137.906 196.118 140.055L194.416 143.675C194.046 144.445 193.954 145.354 193.068 145.562C191.682 145.893 191.296 145.131 190.911 143.952C190.397 142.488 190.116 140.952 190.079 139.4C190.041 136.319 185.219 136.319 185.258 139.4C185.296 142.25 185.866 146.163 187.815 148.412C190.126 151.061 194.955 151.239 197.266 148.504C198.544 146.964 199.207 144.769 200.039 143.005C201.063 140.825 202.034 138.607 203.12 136.473C204.66 133.562 207.025 130.357 209.952 129.14C210.91 128.76 211.974 128.739 212.948 129.079C214.103 129.672 213.672 130.535 213.333 131.497C212.932 132.622 212.517 133.731 212.093 134.848C211.669 135.965 211.323 136.904 210.93 137.713C209.191 141.595 208.083 145.729 207.649 149.96C207.179 153.665 206.709 157.2 205.091 160.612C203.579 163.68 201.682 166.543 199.446 169.131C197.289 171.696 194.639 173.961 192.721 176.71C189.032 181.994 190.58 188.649 191.181 194.588C192.344 205.941 193.73 217.325 196.573 228.409C197.797 233.238 199.276 238.006 200.763 242.766C201.672 245.678 202.573 248.592 203.466 251.508C204.337 254.374 205.076 257.3 206.201 260.073L207.887 257.108C206.586 257.485 205.284 257.878 203.967 258.232C203.428 258.371 202.881 258.471 202.334 258.594C201.546 258.663 200.769 258.831 200.023 259.095C199.923 259.157 200.94 258.987 200.239 259.095L199.007 259.241L196.241 259.58C195.071 259.727 193.931 259.912 192.737 260.096C190.981 260.374 189.224 260.636 187.468 260.928C186.413 261.098 188.239 260.928 187.199 260.928C186.367 260.928 185.52 260.928 184.688 260.928C182.231 260.928 179.858 260.882 177.401 260.72L167.234 260.058L168.936 260.766L167.866 259.472L168.574 261.175C167.28 250.854 166.179 240.525 165.447 230.15C164.862 221.954 164.323 213.767 163.475 205.594C163.175 202.613 162.836 199.633 162.49 196.652C162.081 193.224 161.835 189.72 161.126 186.315C159.755 179.761 154.394 174.939 150.782 169.563C148.856 166.69 146.977 163.793 144.843 161.09C142.71 158.386 140.445 155.698 138.435 152.879C134.591 147.525 131.884 141.441 130.478 135.002C130.116 133.523 129.909 132.01 129.862 130.488V130.419C130.001 130.019 130.009 129.934 129.862 130.173C129.822 130.162 129.78 130.16 129.738 130.166C129.697 130.172 129.657 130.186 129.621 130.208C129.586 130.229 129.554 130.258 129.53 130.291C129.505 130.325 129.487 130.363 129.477 130.404C129.477 130.535 130.363 131.397 130.517 131.644C132.219 134.393 133.413 137.405 135.215 140.116C138.905 145.67 143.688 150.515 149.734 153.488C150.055 153.668 150.412 153.774 150.779 153.798C151.146 153.821 151.513 153.762 151.854 153.623C152.194 153.485 152.499 153.271 152.746 152.998C152.992 152.725 153.174 152.4 153.277 152.047C154.217 147.911 153.539 144.253 152.507 140.209C151.629 136.758 150.797 133.277 150.081 129.803C148.694 123.02 147.87 116.133 147.616 109.214C147.485 107.83 147.621 106.434 148.017 105.101C148.178 104.624 147.77 105.101 148.017 105.101C148.263 105.101 148.671 105.448 148.279 105.101C148.607 105.491 148.816 105.967 148.879 106.472C149.65 109.692 149.881 113.05 150.651 116.293C152.191 122.732 154.695 128.848 157.283 134.917C157.937 136.458 158.461 138.175 159.632 139.408C160.803 140.64 162.782 141.264 164.369 140.178C166.148 138.992 165.455 136.45 165.339 134.64L164.939 128.309C164.431 120.306 163.629 112.249 163.576 104.223C163.556 102.233 163.641 100.243 163.83 98.2616C163.891 97.6685 163.83 94.834 164.893 94.8109C165.956 94.7878 166.71 98.1769 166.98 99.0395C168.258 103.479 169.246 107.997 169.938 112.565C170.862 117.957 171.609 123.418 172.472 128.84C172.78 130.758 173.088 132.691 173.519 134.586C173.736 135.903 174.264 137.15 175.06 138.222C176.169 139.554 178.795 138.884 179.088 137.159C180.991 125.975 178.665 114.822 179.165 103.569C179.123 102.342 179.221 101.114 179.458 99.9099C179.389 100.156 179.204 100.164 179.396 100.141L179.951 99.9715C180.162 99.935 180.379 99.935 180.59 99.9715C180.76 99.9715 180.798 100.179 180.706 99.9715C181.176 101.17 181.542 102.407 181.799 103.669C183.258 109.028 184.23 114.509 184.703 120.044C185.224 126.467 185.415 132.912 185.273 139.354C185.212 142.504 190.033 142.504 190.072 139.4Z" fill="#141414"/>
<path d="M187.661 139.4C187.853 125.929 187.276 112.442 183.039 99.6403C182.943 99.3405 182.827 99.0472 182.693 98.7622C181.753 96.775 177.301 97.3142 177.039 99.5324C175.56 111.733 178.873 124.365 176.716 136.504C174.759 134.324 172.603 105.825 168.289 95.5349C167.604 93.9174 166.58 92.0765 164.554 92.4C163.876 92.5202 163.252 92.8465 162.767 93.3345C162.282 93.8225 161.959 94.4484 161.843 95.1267C160.795 100.95 161.165 106.873 161.534 112.75L163.144 138.075C162.305 138.845 161.065 137.628 160.61 136.535C155.989 125.882 152.908 118.673 151.452 107.173C151.213 105.34 150.682 103.083 148.802 102.737C148.371 102.596 147.91 102.576 147.469 102.68C147.028 102.783 146.623 103.005 146.299 103.322C145.121 104.724 145.136 106.896 145.198 108.606C145.644 121.569 147.508 130.396 150.736 142.951C151.554 145.683 151.626 148.585 150.944 151.354C142.741 147.41 137.056 139.785 133.205 131.497C132.281 129.502 130.301 126.991 128.468 128.216C127.405 128.925 127.374 130.458 127.513 131.728C128.279 137.746 130.165 143.567 133.074 148.889C135.654 153.572 139.051 157.747 142.433 161.891C146.415 166.782 148.91 171.665 152.9 176.525C155.111 179.237 157.367 182.033 158.4 185.368C158.834 186.923 159.13 188.513 159.285 190.12C163.768 225.782 161.681 225.482 166.164 261.144L167.234 262.438L181.098 263.339L187.622 263.27L195.695 261.999L200.532 261.413L204.56 260.535L208.504 259.403L207.849 257.793C199.261 228.524 196.472 226.475 192.806 186.554L192.729 183.211C193.05 180.764 194.127 178.478 195.81 176.672C201.733 170.41 208.542 163.277 209.674 153.056C210.214 148.204 210.753 143.243 212.986 138.899C213.579 137.752 215.636 132.206 216.021 130.974C216.73 128.663 214.527 126.421 212.17 126.46C209.505 126.514 209.505 126.514 207.017 128.07C204.375 129.71 202.034 133.03 200.601 136.057L195.756 146.455C195.217 147.603 194.146 147.857 192.899 147.996C192.006 148.127 191.096 147.925 190.342 147.43C189.588 146.934 189.043 146.179 188.809 145.308C188.393 143.79 187.661 142.727 187.661 139.4Z" fill="white"/>
<path d="M94.1297 140.141C92.5139 130.175 90.3308 120.13 85.789 111.043C84.8445 109.174 83.9597 107.294 81.6373 107.132C80.8218 107.073 80.0044 107.215 79.2564 107.545C78.5085 107.875 77.8528 108.384 77.347 109.026C76.8185 109.837 76.6118 110.817 76.7674 111.773C76.8451 113.05 76.9954 114.321 77.1875 115.585C77.5485 117.981 78.0765 120.348 78.6343 122.709C79.9336 128.23 81.4873 133.798 81.517 139.511L84.496 138.131C84.5472 138.178 84.899 138.534 84.6987 138.305C84.4984 138.075 84.7103 138.37 84.7959 138.472C84.6886 138.282 84.5763 138.099 84.482 137.912C84.2232 137.386 83.997 136.836 83.7837 136.289C83.128 134.627 82.5764 132.929 81.9781 131.245C80.5025 126.887 79.0886 122.531 77.4748 118.191C76.7138 116.142 75.9181 114.105 75.0084 112.12C74.2664 110.283 73.2771 108.556 72.0679 106.987C70.0686 104.646 66.5408 104.622 64.9505 107.461C64.0936 108.983 64.3428 110.815 64.4618 112.467C64.6121 114.324 64.8741 116.172 65.2465 117.998C66.9086 126.412 69.2189 134.737 71.2426 143.076L71.8821 141.296L72.8489 141.2C72.7684 141.164 72.7002 141.106 72.6532 141.031C72.5099 140.784 72.3412 140.552 72.1499 140.339C71.8065 139.821 71.468 139.297 71.1306 138.778C70.4411 137.727 69.762 136.667 69.0935 135.596C67.8463 133.614 66.6535 131.592 65.5607 129.509C64.4912 127.429 63.543 125.288 62.7207 123.098C61.973 121.09 61.5826 118.632 60.1718 116.943C58.7611 115.255 55.7129 114.882 54.1067 116.654C52.3969 118.536 53.0139 121.372 53.4869 123.601C54.5679 128.511 56.0024 133.336 57.7791 138.039C58.794 140.726 59.911 143.364 61.0687 145.989C62.3228 148.811 63.7681 151.428 63.6088 154.605L66.1555 153.006C62.6144 151.944 59.3517 150.113 56.6008 147.644C55.2459 146.44 53.9873 145.132 52.8365 143.732C51.6523 142.317 50.7025 140.628 49.3703 139.35C48.0381 138.072 46.2098 137.085 44.403 137.963C42.5962 138.841 42.2153 141.005 42.6613 142.802C43.6742 146.873 45.7456 150.738 48.0867 154.181C50.57 157.802 53.6988 160.829 56.9634 163.685C58.6159 165.14 60.287 166.561 61.836 168.126C63.3849 169.692 64.8525 171.284 66.3545 172.827C69.3363 175.788 73.1483 178.191 74.7127 182.25C76.1803 186.075 77.1803 190.141 78.3163 194.073C81.3603 204.606 83.7078 215.304 86.6921 225.846C87.7651 229.63 88.8917 233.404 90.0471 237.166C90.2281 238.055 90.6873 238.864 91.3581 239.475C91.7887 239.958 92.365 240.288 92.9998 240.415C93.5564 240.421 94.1122 240.373 94.6592 240.27C97.9892 239.904 101.39 239.698 104.694 239.116C106.47 238.894 108.227 238.543 109.951 238.066C111.735 237.474 113.502 236.825 115.286 236.233C115.429 236.208 115.823 235.966 115.977 236.001C115.977 236.001 115.294 236.207 115.662 236.099L116.31 235.905L119.111 235.048C120.54 234.589 121.933 234.021 123.276 233.349L125.569 232.231C126.406 231.819 127.019 230.585 126.464 229.706C124.215 226.123 122.508 222.126 120.565 218.361C118.928 215.181 117.268 212.006 115.73 208.759C112.345 201.39 109.543 193.767 107.35 185.959C106.455 182.907 105.589 179.846 104.753 176.775C104.534 175.99 104.377 175.205 104.219 174.409C104.005 173.612 103.975 172.776 104.132 171.965C104.5 169.52 106.379 167.479 107.641 165.431C109.122 163.1 110.378 160.635 111.391 158.066C112.458 155.41 113.051 152.587 113.143 149.726C113.184 146.472 112.675 143.272 113.067 140.018C113.334 137.8 114.044 135.621 114.456 133.426C114.869 131.232 115.566 128.976 114.073 127.105C112.115 124.646 108.342 124.733 105.918 126.434C103.21 128.338 101.444 131.33 100.408 134.422C99.8215 136.185 99.3947 138.019 98.9008 139.822L98.077 142.858C97.8959 143.504 97.9485 144.221 97.291 144.503C96.2627 144.948 95.8604 144.411 95.4013 143.551C94.8028 142.487 94.3757 141.336 94.1357 140.14C93.6852 137.759 89.9518 138.418 90.4022 140.798C90.8212 142.999 91.7967 145.951 93.6127 147.427C95.7636 149.163 99.5272 148.641 100.943 146.208C101.723 144.84 101.936 143.05 102.339 141.571C102.835 139.743 103.283 137.893 103.833 136.093C104.628 133.628 106.022 130.824 108.122 129.482C108.813 129.057 109.633 128.895 110.434 129.026C111.409 129.327 111.193 130.054 111.062 130.846C110.905 131.771 110.735 132.687 110.559 133.609C110.384 134.532 110.244 135.307 110.05 135.987C109.233 139.23 108.94 142.582 109.181 145.917C109.323 148.85 109.442 151.652 108.656 154.515C107.904 157.097 106.825 159.572 105.447 161.882C104.127 164.162 102.385 166.277 101.275 168.668C99.14 173.263 101.247 178.205 102.523 182.721C104.974 191.353 107.602 199.979 111.316 208.173C112.923 211.745 114.719 215.235 116.52 218.717C117.622 220.848 118.717 222.981 119.807 225.117C120.872 227.217 121.844 229.383 123.094 231.376L123.995 228.85C123.039 229.32 122.084 229.801 121.113 230.256C120.714 230.437 120.305 230.589 119.898 230.759C119.297 230.919 118.719 231.156 118.177 231.462C118.108 231.523 118.872 231.253 118.344 231.433L117.41 231.714L115.315 232.354C114.429 232.627 113.571 232.926 112.672 233.232C111.35 233.687 110.026 234.129 108.706 234.596C107.912 234.871 109.303 234.49 108.497 234.632C107.853 234.746 107.197 234.862 106.553 234.975C104.651 235.311 102.807 235.599 100.883 235.809L92.92 236.684L94.3348 237L93.3291 236.145L94.1102 237.366C91.6991 229.551 89.4361 221.704 87.453 213.77C85.8808 207.504 84.3455 201.238 82.5737 195.026C81.9341 192.759 81.2647 190.497 80.5894 188.237C79.8053 185.638 79.136 182.958 78.1225 180.419C76.166 175.531 71.3568 172.529 67.8256 168.86C65.9424 166.898 64.0918 164.912 62.0707 163.11C60.0495 161.308 57.9291 159.536 55.9876 157.628C52.2804 154.007 49.3532 149.666 47.3861 144.872C46.9035 143.776 46.5371 142.633 46.2927 141.461L46.2832 141.407C46.3359 141.078 46.3303 141.011 46.2496 141.216C46.2168 141.214 46.1839 141.218 46.1527 141.228C46.1216 141.238 46.0927 141.255 46.0679 141.276C46.0431 141.298 46.0229 141.324 46.0083 141.354C45.9937 141.383 45.9851 141.415 45.9829 141.448C46.0008 141.549 46.8045 142.096 46.9574 142.266C48.6508 144.163 49.9864 146.332 51.7522 148.185C55.3671 151.981 59.7322 155.079 64.8198 156.556C65.0925 156.652 65.3833 156.686 65.6707 156.654C65.9581 156.622 66.2345 156.525 66.4793 156.371C66.7242 156.218 66.9312 156.011 67.0848 155.766C67.2384 155.521 67.3348 155.244 67.3666 154.957C67.5295 151.626 66.5052 148.886 65.1539 145.896C64.0029 143.344 62.8834 140.761 61.8545 138.169C59.8548 133.106 58.2763 127.887 57.1351 122.564C56.8446 121.511 56.7592 120.411 56.8837 119.325C56.9437 118.933 56.6928 119.359 56.8837 119.325C57.0745 119.291 57.4379 119.504 57.0864 119.289C57.3938 119.546 57.6203 119.886 57.7388 120.269C58.7748 122.656 59.4122 125.225 60.4513 127.631C62.5233 132.406 65.2965 136.8 68.1291 141.146C68.8464 142.25 69.4864 143.508 70.5612 144.303C71.636 145.097 73.2539 145.31 74.3342 144.252C75.5499 143.091 74.6661 141.217 74.3295 139.832L73.155 134.984C71.6688 128.857 69.9485 122.728 68.811 116.521C68.5243 114.982 68.3183 113.43 68.1939 111.87C68.1606 111.402 67.7259 109.216 68.5458 109.053C69.3656 108.89 70.4128 111.411 70.7393 112.042C72.3354 115.305 73.7172 118.669 74.8761 122.111C76.3279 126.16 77.652 130.286 79.0603 134.367C79.5607 135.81 80.0632 137.265 80.6559 138.673C81.0033 139.664 81.5824 140.557 82.3451 141.278C83.3858 142.158 85.328 141.281 85.3191 139.905C85.2653 130.985 81.9414 122.667 80.7927 113.885C80.5924 112.941 80.5008 111.977 80.5198 111.013C80.4998 111.213 80.3577 111.244 80.5036 111.2L80.9099 110.993C81.0687 110.936 81.2361 110.906 81.4049 110.906C81.5361 110.883 81.5943 111.038 81.4944 110.89C82.0223 111.754 82.4745 112.662 82.846 113.603C84.7076 117.554 86.2084 121.665 87.3302 125.886C88.6105 130.788 89.6378 135.753 90.4079 140.76C90.7903 143.208 94.5237 142.549 94.1297 140.141Z" fill="#141414"/>
<path d="M92.263 140.47C90.5728 130.012 88.2841 119.648 83.2562 110.315C83.1404 110.096 83.0107 109.884 82.8679 109.682C81.869 108.272 78.4955 109.297 78.5955 111.05C79.1162 120.699 83.4054 130.028 83.3928 139.722C81.5803 138.301 76.0195 116.529 71.2747 109.15C70.5231 107.991 69.4785 106.705 67.9542 107.232C67.4459 107.418 67.0073 107.756 66.6982 108.2C66.3891 108.644 66.2246 109.173 66.2271 109.714C66.211 114.366 67.306 118.901 68.3946 123.401L73.0988 142.791C72.5539 143.502 71.4275 142.729 70.9263 141.944C65.8936 134.327 62.5237 129.166 59.8265 120.46C59.3913 119.073 58.6717 117.398 57.1691 117.387C56.8163 117.337 56.4565 117.384 56.1289 117.525C55.8013 117.665 55.5183 117.892 55.3108 118.182C54.5897 119.428 54.8981 121.108 55.1793 122.423C57.2951 132.4 59.9435 138.98 64.1565 148.26C65.1634 150.264 65.6152 152.501 65.4649 154.739C58.5748 152.805 53.1323 147.677 49.0188 141.786C48.0308 140.367 46.1552 138.693 44.903 139.892C44.1767 140.585 44.3621 141.776 44.643 142.742C46.0574 147.296 48.3126 151.546 51.2919 155.27C53.9293 158.544 57.1293 161.313 60.3133 164.06C64.0644 167.303 66.6635 170.743 70.4164 173.962C72.4982 175.759 74.6274 177.616 75.8819 180.058C76.4304 181.202 76.877 182.393 77.2166 183.617C85.5565 210.618 83.8993 210.67 92.2393 237.671L93.2449 238.527L104.103 237.332L109.145 236.387L115.222 234.301L118.887 233.188L121.887 231.958L124.786 230.543L124.059 229.386C113.413 207.895 110.974 206.689 102.685 176.279L102.169 173.701C102.083 171.762 102.605 169.845 103.662 168.217C107.393 162.559 111.691 156.107 111.172 148.038C110.927 144.207 110.668 140.293 111.804 136.624C112.107 135.655 112.942 131.08 113.072 130.073C113.305 128.187 111.293 126.752 109.474 127.104C107.417 127.51 107.417 127.51 105.704 129.054C103.882 130.685 102.522 133.575 101.826 136.115L99.4944 144.827C99.2336 145.79 98.4393 146.133 97.4921 146.41C96.8187 146.634 96.0869 146.602 95.4354 146.321C94.784 146.04 94.2583 145.53 93.9582 144.887C93.429 143.769 92.7173 143.046 92.263 140.47Z" fill="white"/>
<path d="M267.923 144.79C269.318 137.47 270.34 129.952 269.484 122.503C269.301 120.968 269.161 119.441 267.591 118.742C267.041 118.495 266.438 118.387 265.836 118.428C265.234 118.468 264.651 118.655 264.138 118.973C263.566 119.402 263.176 120.029 263.042 120.731C262.774 121.637 262.557 122.557 262.371 123.482C262.017 125.235 261.786 127.009 261.576 128.788C261.084 132.945 260.756 137.199 259.334 141.17L261.749 140.964C261.772 141.009 261.927 141.345 261.845 141.136C261.764 140.926 261.837 141.184 261.871 141.276C261.844 141.117 261.813 140.962 261.794 140.809C261.748 140.379 261.73 139.94 261.72 139.507C261.684 138.189 261.73 136.872 261.741 135.553C261.817 132.158 261.936 128.779 261.913 125.362C261.902 123.748 261.864 122.135 261.735 120.528C261.684 119.067 261.434 117.619 260.991 116.226C260.195 114.097 257.754 113.19 255.935 114.758C254.956 115.597 254.667 116.931 254.332 118.106C253.967 119.433 253.683 120.78 253.48 122.141C252.509 128.397 252.009 134.754 251.308 141.048L252.201 139.975L252.896 140.152C252.849 140.107 252.816 140.05 252.803 139.986C252.766 139.778 252.707 139.575 252.628 139.379C252.521 138.933 252.418 138.484 252.315 138.039C252.102 137.136 251.899 136.229 251.706 135.317C251.341 133.628 251.024 131.925 250.792 130.204C250.575 128.491 250.458 126.767 250.441 125.041C250.429 123.459 250.779 121.655 250.226 120.128C249.674 118.601 247.654 117.573 246.093 118.396C244.432 119.27 244.144 121.393 243.909 123.058C243.42 126.737 243.196 130.446 243.241 134.156C243.267 136.276 243.376 138.387 243.516 140.5C243.673 142.775 244.015 144.954 243.103 147.117L245.273 146.651C243.085 145.021 241.284 142.927 240 140.52C239.364 139.343 238.821 138.118 238.376 136.857C237.912 135.577 237.68 134.165 237.078 132.942C236.477 131.72 235.458 130.573 233.983 130.726C232.508 130.879 231.698 132.284 231.554 133.643C231.228 136.722 231.689 139.926 232.444 142.905C233.252 146.043 234.658 148.933 236.202 151.738C236.98 153.164 237.781 154.571 238.46 156.048C239.139 157.525 239.755 159 240.407 160.449C241.728 163.256 243.765 165.884 243.825 169.095C243.878 172.118 243.545 175.191 243.34 178.205C242.793 186.279 241.72 194.291 241.129 202.357C240.918 205.252 240.746 208.154 240.598 211.055C240.499 211.717 240.613 212.394 240.925 212.987C241.101 213.431 241.417 213.806 241.826 214.054C242.21 214.199 242.608 214.305 243.013 214.372C245.415 214.959 247.826 215.675 250.265 216.105C251.552 216.399 252.86 216.599 254.176 216.704C255.563 216.744 256.952 216.739 258.339 216.779C258.444 216.798 258.779 216.73 258.876 216.793C258.876 216.793 258.351 216.763 258.633 216.781L259.132 216.81L261.291 216.923C262.398 216.965 263.507 216.923 264.609 216.796L266.481 216.599C267.166 216.525 267.903 215.824 267.74 215.074C267.084 212.022 266.909 208.818 266.512 205.716C266.18 203.097 265.829 200.476 265.582 197.836C265.095 191.87 265.076 185.875 265.526 179.907C265.676 177.564 265.848 175.222 266.043 172.881C266.09 172.281 266.179 171.698 266.27 171.105C266.323 170.498 266.513 169.911 266.827 169.388C267.699 167.785 269.517 166.844 270.91 165.742C272.525 164.499 274.019 163.106 275.37 161.581C276.781 160.008 277.905 158.2 278.691 156.238C279.541 153.992 279.995 151.644 281.089 149.485C281.834 148.014 282.876 146.682 283.716 145.265C284.556 143.847 285.609 142.457 285.047 140.783C284.309 138.583 281.67 137.692 279.56 138.259C277.201 138.896 275.22 140.526 273.722 142.408C272.869 143.484 272.11 144.648 271.313 145.774L269.975 147.671C269.686 148.074 269.542 148.584 269.015 148.614C268.189 148.663 268.046 148.189 267.944 147.476C267.798 146.588 267.792 145.681 267.928 144.791C268.216 143.026 265.46 142.54 265.172 144.305C264.907 145.938 264.838 148.231 265.725 149.713C266.779 151.46 269.521 152.048 271.117 150.718C272.003 149.967 272.603 148.779 273.256 147.855C274.061 146.712 274.839 145.542 275.675 144.432C276.849 142.923 278.523 141.331 280.319 140.93C280.905 140.809 281.515 140.904 282.037 141.197C282.638 141.652 282.304 142.102 282.014 142.618C281.671 143.22 281.322 143.812 280.967 144.408C280.613 145.003 280.32 145.505 280.014 145.928C278.629 147.971 277.579 150.222 276.904 152.597C276.263 154.667 275.638 156.64 274.369 158.427C273.196 160.028 271.823 161.473 270.284 162.726C268.793 163.975 267.051 165.002 265.678 166.38C263.037 169.028 263.251 172.988 262.996 176.442C262.516 183.048 262.161 189.694 262.669 196.315C262.882 199.198 263.247 202.072 263.617 204.942C263.843 206.698 264.064 208.454 264.281 210.211C264.489 211.936 264.617 213.683 264.98 215.382L266.243 213.857C265.461 213.941 264.678 214.035 263.889 214.104C263.567 214.129 263.245 214.131 262.92 214.147C262.462 214.106 262.001 214.124 261.549 214.2C261.485 214.225 262.083 214.231 261.672 214.222L260.953 214.181L259.338 214.096C258.654 214.062 257.984 214.053 257.283 214.038C256.252 214.019 255.222 213.992 254.189 213.982C253.568 213.973 254.629 214.06 254.035 213.955C253.559 213.871 253.075 213.786 252.599 213.702C251.195 213.455 249.844 213.189 248.456 212.849L242.712 211.446L243.614 212.022L243.132 211.175L243.366 212.219C243.666 206.19 244.078 200.176 244.705 194.173C245.196 189.43 245.713 184.697 246.053 179.941C246.181 178.207 246.288 176.469 246.39 174.731C246.502 172.731 246.715 170.703 246.653 168.686C246.53 164.801 243.952 161.506 242.429 158.069C241.618 156.233 240.836 154.388 239.889 152.628C238.942 150.868 237.919 149.104 237.054 147.29C235.397 143.843 234.462 140.093 234.308 136.271C234.25 135.389 234.284 134.504 234.411 133.63L234.418 133.59C234.537 133.375 234.55 133.327 234.443 133.449C234.421 133.439 234.397 133.434 234.373 133.433C234.348 133.432 234.324 133.436 234.302 133.445C234.279 133.454 234.258 133.467 234.241 133.483C234.223 133.5 234.209 133.52 234.199 133.542C234.186 133.617 234.605 134.199 234.669 134.356C235.364 136.099 235.743 137.94 236.5 139.671C238.049 143.217 240.294 146.468 243.45 148.776C243.615 148.912 243.808 149.009 244.016 149.059C244.223 149.109 244.439 149.112 244.648 149.067C244.857 149.023 245.052 148.931 245.221 148.8C245.389 148.669 245.526 148.502 245.62 148.31C246.574 146.041 246.556 143.882 246.373 141.467C246.219 139.406 246.094 137.333 246.035 135.275C245.926 131.259 246.149 127.24 246.701 123.26C246.766 122.456 246.984 121.672 247.345 120.95C247.485 120.693 247.204 120.925 247.345 120.95C247.486 120.975 247.684 121.214 247.494 120.976C247.643 121.232 247.714 121.525 247.7 121.821C247.815 123.738 247.609 125.681 247.722 127.612C247.954 131.447 248.768 135.194 249.636 138.924C249.855 139.87 249.981 140.905 250.526 141.727C251.071 142.549 252.139 143.105 253.155 142.645C254.292 142.146 254.152 140.623 254.268 139.577L254.677 135.919C255.193 131.294 255.547 126.608 256.325 122.016C256.515 120.877 256.764 119.748 257.071 118.635C257.166 118.302 257.417 116.676 258.026 116.77C258.636 116.863 258.726 118.876 258.793 119.397C259.077 122.063 259.186 124.744 259.121 127.425C259.106 130.599 258.982 133.795 258.929 136.981C258.912 138.109 258.893 139.244 258.948 140.371C258.939 141.145 259.116 141.911 259.462 142.604C259.962 143.477 261.531 143.359 261.872 142.402C264.086 136.202 263.881 129.594 265.301 123.213C265.4 122.508 265.58 121.816 265.837 121.151C265.772 121.285 265.666 121.271 265.778 121.277L266.112 121.236C266.237 121.237 266.36 121.259 266.478 121.301C266.575 121.318 266.576 121.441 266.544 121.312C266.692 122.045 266.776 122.789 266.796 123.536C267.09 126.746 267.093 129.976 266.806 133.187C266.456 136.91 265.915 140.613 265.185 144.28C264.833 146.074 267.588 146.56 267.923 144.79Z" fill="#141414"/>
<path d="M266.545 144.547C268.013 136.867 269.042 129.101 267.911 121.358C267.886 121.177 267.849 120.998 267.801 120.822C267.464 119.591 264.866 119.451 264.493 120.692C262.418 127.516 263.038 135.069 260.582 141.789C259.684 140.346 261.323 123.841 259.895 117.526C259.666 116.532 259.266 115.377 258.076 115.358C257.676 115.358 257.287 115.482 256.96 115.712C256.634 115.942 256.386 116.267 256.251 116.643C255.066 119.865 254.68 123.287 254.299 126.683L252.667 141.319C252.11 141.675 251.524 140.854 251.374 140.184C249.807 133.63 248.772 129.199 249.099 122.48C249.147 121.409 249.071 120.065 248.032 119.678C247.8 119.554 247.538 119.496 247.276 119.511C247.013 119.525 246.759 119.611 246.542 119.76C245.728 120.442 245.517 121.685 245.38 122.669C244.329 130.122 244.505 135.355 245.084 142.855C245.277 144.499 245.026 146.165 244.356 147.679C240.066 144.598 237.585 139.668 236.22 134.543C235.892 133.31 235.014 131.675 233.843 132.19C233.164 132.488 232.992 133.361 232.943 134.101C232.774 137.618 233.266 141.134 234.392 144.469C235.395 147.406 236.916 150.134 238.43 152.843C240.213 156.04 241.147 159.082 242.938 162.262C243.928 164.034 244.936 165.859 245.19 167.869C245.281 168.802 245.29 169.741 245.217 170.675C244.185 191.508 243.023 191.126 241.991 211.959L242.472 212.806L250.305 214.718L254.041 215.336L258.782 215.423L261.605 215.576L263.996 215.48L266.364 215.231L266.152 214.245C264.193 196.652 262.806 195.2 264.734 172.015L265.027 170.096C265.457 168.73 266.303 167.532 267.447 166.67C271.463 163.688 276.073 160.298 277.75 154.57C278.547 151.851 279.355 149.071 281.07 146.813C281.524 146.217 283.258 143.255 283.603 142.589C284.241 141.34 283.207 139.837 281.857 139.622C280.328 139.384 280.328 139.384 278.749 140.022C277.074 140.694 275.401 142.355 274.278 143.941L270.461 149.395C270.037 149.997 269.4 150.034 268.673 149.988C268.149 149.972 267.65 149.766 267.269 149.406C266.888 149.047 266.652 148.561 266.606 148.039C266.521 147.13 266.21 146.449 266.545 144.547Z" fill="white"/>
<path d="M38.7629 154.668C38.8657 147.217 38.5662 139.636 36.4296 132.448C35.9826 130.969 35.5803 129.489 33.9131 129.074C33.3279 128.926 32.7155 128.924 32.1295 129.069C31.5435 129.213 31.0017 129.498 30.5517 129.9C30.0636 130.422 29.7878 131.108 29.7784 131.823C29.6711 132.761 29.6175 133.704 29.5951 134.647C29.5504 136.435 29.6309 138.223 29.7337 140.011C29.9706 144.191 30.3863 148.437 29.6756 152.594L32.0178 151.973C32.0491 152.013 32.2592 152.317 32.143 152.125C32.0268 151.933 32.143 152.174 32.1922 152.259C32.1385 152.107 32.0804 151.959 32.0357 151.812C31.915 151.396 31.8212 150.967 31.7362 150.542C31.4725 149.251 31.2892 147.945 31.0702 146.645C30.5562 143.288 30.0868 139.94 29.47 136.578C29.1794 134.992 28.8621 133.409 28.4553 131.849C28.1514 130.419 27.6537 129.037 26.9758 127.741C25.8225 125.784 23.2613 125.314 21.7415 127.174C20.9235 128.171 20.8699 129.534 20.7447 130.75C20.6158 132.119 20.5696 133.496 20.6062 134.871C20.7358 141.2 21.3482 147.548 21.7505 153.868L22.4433 152.657L23.1585 152.71C23.1045 152.674 23.0624 152.623 23.0378 152.563C22.9654 152.365 22.8725 152.174 22.7607 151.995C22.5774 151.575 22.3986 151.15 22.2198 150.73C21.8533 149.878 21.4957 149.02 21.147 148.156C20.4944 146.555 19.8865 144.933 19.3591 143.279C18.8484 141.629 18.4335 139.952 18.1164 138.255C17.8304 136.699 17.8616 134.862 17.0526 133.454C16.2435 132.046 14.0756 131.384 12.681 132.466C11.197 133.615 11.282 135.756 11.3401 137.437C11.4966 141.144 11.9208 144.836 12.6095 148.482C13.0029 150.565 13.4767 152.625 13.9818 154.682C14.5316 156.894 15.2468 158.982 14.7238 161.27L16.7799 160.434C14.342 159.209 12.2051 157.46 10.5221 155.312C9.69147 154.263 8.94421 153.151 8.28712 151.986C7.60769 150.806 7.13388 149.456 6.3293 148.357C5.52471 147.257 4.32231 146.305 2.89641 146.712C1.47051 147.119 0.916245 148.643 1.01011 150.006C1.22467 153.095 2.23487 156.17 3.49538 158.973C4.83635 161.923 6.72265 164.524 8.72963 167.019C9.7443 168.288 10.7769 169.535 11.7021 170.872C12.6274 172.208 13.4901 173.554 14.3841 174.868C16.172 177.402 18.6349 179.637 19.2518 182.788C19.8284 185.756 20.034 188.841 20.3559 191.844C21.2185 199.89 21.5538 207.967 22.3718 216.013C22.6668 218.901 23.002 221.788 23.3596 224.671C23.3772 225.341 23.6073 225.987 24.0167 226.517C24.2677 226.924 24.6443 227.238 25.0895 227.411C25.4932 227.487 25.9035 227.523 26.3142 227.519C28.7816 227.68 31.2803 227.966 33.7566 227.966C35.0757 228.032 36.3978 228.002 37.7125 227.876C39.0847 227.675 40.4525 227.429 41.8248 227.228C41.9321 227.228 42.2494 227.103 42.3567 227.148C42.3567 227.148 41.8337 227.21 42.1153 227.179L42.6115 227.121L44.7571 226.857C45.8551 226.706 46.94 226.472 48.0022 226.155L49.8125 225.637C50.4741 225.445 51.0775 224.627 50.787 223.916C49.6114 221.024 48.8828 217.899 47.953 214.914C47.1708 212.393 46.3707 209.871 45.6689 207.315C44.153 201.524 43.0933 195.624 42.4998 189.668C42.2405 187.334 42.0036 184.998 41.789 182.659C41.7309 182.06 41.7175 181.47 41.7041 180.871C41.651 180.264 41.7366 179.652 41.9544 179.083C42.5355 177.353 44.1626 176.11 45.3426 174.783C46.7177 173.279 47.9465 171.647 49.0124 169.911C50.1286 168.117 50.9213 166.141 51.3546 164.073C51.8016 161.713 51.8419 159.321 52.5436 157.006C53.0219 155.428 53.8175 153.935 54.3986 152.393C54.9797 150.851 55.7754 149.3 54.9306 147.749C53.822 145.71 51.0686 145.29 49.0884 146.216C46.8758 147.253 45.2085 149.201 44.0597 151.316C43.4071 152.523 42.8618 153.801 42.2718 155.048L41.2839 157.149C41.0694 157.596 41.0157 158.123 40.5017 158.244C39.6971 158.436 39.4736 157.994 39.2501 157.31C38.9514 156.46 38.7885 155.569 38.7674 154.668C38.745 152.88 35.9469 152.88 35.9692 154.668C35.9916 156.322 36.3223 158.593 37.4532 159.898C38.7942 161.436 41.5968 161.538 42.9378 159.952C43.6798 159.058 44.0642 157.784 44.547 156.76C45.1415 155.495 45.7047 154.208 46.3349 152.97C47.2289 151.28 48.6012 149.421 50.2997 148.714C50.8562 148.494 51.4735 148.481 52.0385 148.679C52.709 149.023 52.4587 149.523 52.262 150.082C52.0296 150.735 51.7882 151.378 51.5424 152.026C51.2965 152.675 51.0954 153.22 50.8674 153.689C49.8581 155.942 49.2152 158.341 48.9632 160.796C48.6906 162.946 48.4179 164.998 47.4792 166.978C46.6016 168.759 45.5006 170.42 44.2028 171.922C42.9512 173.41 41.4136 174.725 40.3006 176.32C38.1595 179.387 39.0579 183.249 39.4066 186.695C40.0815 193.284 40.8861 199.89 42.5355 206.322C43.2462 209.125 44.1045 211.892 44.9671 214.654C45.4946 216.344 46.0176 218.035 46.5361 219.728C47.0412 221.39 47.4703 223.089 48.1229 224.698L49.1018 222.977C48.3464 223.196 47.591 223.424 46.8266 223.63C46.5137 223.71 46.1964 223.768 45.879 223.84C45.4215 223.88 44.9709 223.977 44.538 224.13C44.4799 224.166 45.0699 224.068 44.6632 224.13L43.948 224.215L42.3433 224.412C41.6639 224.497 41.0023 224.604 40.3095 224.712C39.2904 224.872 38.2712 225.024 37.2521 225.194C36.6397 225.293 37.6991 225.194 37.0956 225.194C36.6129 225.194 36.1212 225.194 35.6385 225.194C34.2126 225.194 32.8358 225.167 31.4099 225.074L25.5096 224.689L26.4975 225.1L25.8762 224.35L26.2874 225.337C25.5365 219.348 24.8973 213.354 24.4726 207.333C24.1329 202.577 23.82 197.825 23.3283 193.083C23.154 191.353 22.9573 189.623 22.7562 187.893C22.5193 185.904 22.3763 183.87 21.965 181.894C21.1694 178.09 18.0583 175.292 15.9619 172.172C14.8445 170.505 13.7538 168.824 12.5156 167.255C11.2775 165.686 9.96333 164.126 8.79668 162.491C6.56606 159.383 4.9947 155.853 4.17927 152.116C3.96895 151.258 3.8491 150.38 3.82168 149.496V149.456C3.90214 149.224 3.90661 149.175 3.82168 149.313C3.7982 149.307 3.77375 149.306 3.74977 149.309C3.72578 149.313 3.70273 149.321 3.68194 149.334C3.66115 149.346 3.64304 149.363 3.62867 149.382C3.61429 149.402 3.60393 149.424 3.59819 149.447C3.59819 149.523 4.11223 150.024 4.20162 150.167C5.18947 151.763 5.88231 153.51 6.92826 155.084C9.06935 158.307 11.8452 161.118 15.354 162.844C15.5399 162.949 15.747 163.01 15.96 163.024C16.173 163.037 16.3863 163.003 16.5839 162.922C16.7816 162.842 16.9586 162.718 17.1017 162.56C17.2448 162.401 17.3502 162.213 17.4102 162.008C17.9555 159.607 17.5622 157.484 16.9632 155.138C16.4536 153.135 15.9709 151.115 15.5552 149.099C14.7506 145.162 14.2721 141.166 14.1248 137.151C14.0487 136.347 14.1276 135.537 14.3572 134.764C14.4511 134.487 14.2142 134.764 14.3572 134.764C14.5003 134.764 14.7372 134.965 14.5092 134.764C14.6997 134.99 14.8208 135.266 14.8579 135.559C15.3049 137.428 15.439 139.377 15.886 141.258C16.7799 144.995 18.2326 148.544 19.7345 152.067C20.1145 152.961 20.4184 153.957 21.0979 154.673C21.7773 155.388 22.9261 155.75 23.8469 155.12C24.8794 154.431 24.4771 152.956 24.4101 151.906L24.1776 148.232C23.8826 143.587 23.4177 138.912 23.3864 134.254C23.3753 133.099 23.4245 131.944 23.534 130.794C23.5697 130.45 23.534 128.805 24.1508 128.792C24.7676 128.778 25.2057 130.745 25.3621 131.246C26.1041 133.822 26.6774 136.444 27.0786 139.095C27.615 142.224 28.0486 145.393 28.5492 148.54C28.728 149.653 28.9068 150.775 29.1571 151.874C29.2826 152.639 29.5891 153.362 30.0511 153.984C30.6947 154.758 32.219 154.369 32.3888 153.367C33.4929 146.877 32.143 140.405 32.4335 133.874C32.4089 133.162 32.4659 132.45 32.6034 131.751C32.5632 131.894 32.4559 131.898 32.5676 131.885L32.8895 131.787C33.0122 131.766 33.1377 131.766 33.2605 131.787C33.3588 131.787 33.3811 131.907 33.3275 131.787C33.6005 132.482 33.8129 133.2 33.9622 133.932C34.809 137.043 35.373 140.223 35.6474 143.435C35.9498 147.163 36.0602 150.903 35.9782 154.641C35.9424 156.47 38.7406 156.47 38.7629 154.668Z" fill="#141414"/>
<path d="M37.3639 154.668C37.4756 146.85 37.1404 139.023 34.6819 131.594C34.6258 131.421 34.5586 131.25 34.4808 131.085C33.9355 129.932 31.3519 130.245 31.1999 131.532C30.3417 138.612 32.2637 145.943 31.0121 152.987C29.8768 151.722 28.6252 135.184 26.1221 129.212C25.7242 128.273 25.1297 127.205 23.9542 127.393C23.5609 127.462 23.1988 127.652 22.9172 127.935C22.6356 128.218 22.4482 128.581 22.3808 128.975C21.7728 132.354 21.9874 135.792 22.202 139.202L23.1362 153.899C22.649 154.346 21.9293 153.64 21.6656 153.005C18.9836 146.823 17.1957 142.64 16.3509 135.966C16.2123 134.902 15.9039 133.593 14.8132 133.391C14.5631 133.31 14.2955 133.298 14.0394 133.358C13.7833 133.418 13.5485 133.547 13.3605 133.731C12.6766 134.545 12.6855 135.805 12.7213 136.797C12.9806 144.32 14.0623 149.443 15.9352 156.729C16.4102 158.314 16.4519 159.998 16.0558 161.605C11.2954 159.317 7.99661 154.892 5.76166 150.082C5.22527 148.924 4.0765 147.467 3.01267 148.178C2.39582 148.589 2.37794 149.479 2.4584 150.216C2.90274 153.708 3.99738 157.086 5.68567 160.175C7.18309 162.893 9.15432 165.315 11.1166 167.72C13.4275 170.559 14.8758 173.393 17.1912 176.213C18.4741 177.786 19.7837 179.409 20.3827 181.344C20.6347 182.247 20.8067 183.17 20.8968 184.102C23.4982 204.798 22.2869 204.624 24.8884 225.319L25.5097 226.07L33.5555 226.593L37.3415 226.553L42.026 225.816L44.8331 225.476L47.1708 224.966L49.4594 224.309L49.0795 223.375C44.0955 206.389 42.4774 205.2 40.3498 182.033L40.3051 180.093C40.4914 178.673 41.1165 177.346 42.093 176.298C45.5304 172.664 49.4818 168.525 50.1389 162.593C50.4517 159.777 50.7646 156.899 52.0609 154.378C52.4051 153.712 53.5986 150.493 53.8221 149.778C54.2333 148.437 52.9549 147.136 51.5871 147.159C50.0405 147.19 50.0405 147.19 48.5967 148.093C47.0636 149.045 45.7047 150.971 44.8733 152.728L42.0617 158.763C41.7488 159.429 41.1275 159.576 40.4034 159.657C39.8854 159.732 39.3575 159.616 38.9199 159.328C38.4824 159.04 38.1657 158.602 38.0299 158.097C37.7885 157.216 37.3639 156.599 37.3639 154.668Z" fill="white"/>
<path d="M338.162 134.841C338.302 124.745 337.896 114.474 335.001 104.736C334.396 102.732 333.851 100.727 331.592 100.164C330.799 99.9644 329.969 99.9622 329.175 100.157C328.381 100.353 327.647 100.74 327.038 101.284C326.376 101.992 326.003 102.92 325.99 103.889C325.845 105.16 325.772 106.438 325.742 107.716C325.681 110.138 325.79 112.561 325.929 114.983C326.25 120.645 326.814 126.399 325.851 132.031L329.024 131.189C329.066 131.243 329.351 131.655 329.194 131.395C329.036 131.134 329.194 131.461 329.26 131.576C329.187 131.37 329.109 131.171 329.048 130.971C328.885 130.408 328.757 129.826 328.642 129.251C328.285 127.501 328.037 125.732 327.74 123.97C327.044 119.422 326.408 114.886 325.572 110.332C325.178 108.182 324.748 106.038 324.197 103.925C323.786 101.987 323.111 100.115 322.193 98.3594C320.63 95.7069 317.16 95.071 315.101 97.5903C313.993 98.9408 313.92 100.788 313.751 102.435C313.576 104.291 313.513 106.155 313.563 108.019C313.739 116.594 314.568 125.193 315.113 133.757L316.052 132.115L317.021 132.188C316.948 132.139 316.891 132.07 316.858 131.988C316.759 131.719 316.634 131.462 316.482 131.219C316.234 130.65 315.992 130.075 315.749 129.505C315.253 128.351 314.768 127.188 314.296 126.017C313.412 123.849 312.588 121.651 311.873 119.41C311.182 117.175 310.619 114.903 310.19 112.603C309.802 110.496 309.845 108.007 308.749 106.099C307.652 104.191 304.715 103.295 302.826 104.761C300.815 106.317 300.93 109.218 301.009 111.495C301.221 116.518 301.796 121.519 302.729 126.459C303.262 129.281 303.904 132.073 304.588 134.859C305.333 137.856 306.302 140.685 305.593 143.785L308.379 142.653C305.076 140.992 302.181 138.623 299.901 135.713C298.775 134.292 297.763 132.786 296.873 131.207C295.952 129.608 295.31 127.779 294.22 126.29C293.13 124.8 291.501 123.51 289.569 124.061C287.637 124.612 286.887 126.677 287.014 128.524C287.304 132.709 288.673 136.875 290.381 140.672C292.198 144.669 294.753 148.194 297.472 151.573C298.847 153.293 300.246 154.983 301.5 156.793C302.753 158.604 303.922 160.427 305.133 162.207C307.556 165.641 310.892 168.669 311.728 172.939C312.509 176.96 312.788 181.138 313.224 185.208C314.393 196.109 314.847 207.052 315.955 217.953C316.355 221.865 316.809 225.777 317.294 229.683C317.317 230.59 317.629 231.466 318.184 232.184C318.524 232.735 319.034 233.16 319.637 233.395C320.184 233.498 320.74 233.547 321.297 233.541C324.639 233.759 328.025 234.146 331.38 234.146C333.167 234.236 334.958 234.196 336.739 234.025C338.598 233.753 340.452 233.42 342.311 233.147C342.456 233.147 342.886 232.978 343.031 233.038C343.031 233.038 342.323 233.123 342.704 233.08L343.377 233.002L346.283 232.644C347.771 232.44 349.241 232.122 350.68 231.694L353.133 230.991C354.029 230.731 354.847 229.623 354.453 228.66C352.86 224.741 351.873 220.508 350.613 216.463C349.554 213.047 348.47 209.632 347.519 206.168C345.465 198.323 344.029 190.328 343.225 182.259C342.874 179.098 342.553 175.932 342.262 172.763C342.184 171.952 342.165 171.152 342.147 170.341C342.075 169.518 342.191 168.69 342.486 167.918C343.274 165.575 345.478 163.891 347.077 162.092C348.94 160.055 350.605 157.845 352.049 155.491C353.561 153.061 354.635 150.384 355.222 147.582C355.828 144.385 355.882 141.145 356.833 138.008C357.481 135.87 358.559 133.847 359.346 131.758C360.133 129.669 361.211 127.567 360.067 125.466C358.565 122.704 354.834 122.135 352.152 123.389C349.154 124.794 346.895 127.434 345.339 130.299C344.455 131.934 343.716 133.666 342.916 135.355L341.578 138.202C341.287 138.807 341.215 139.522 340.518 139.685C339.428 139.946 339.125 139.346 338.823 138.42C338.418 137.268 338.197 136.061 338.168 134.841C338.138 132.418 334.347 132.418 334.377 134.841C334.408 137.081 334.856 140.158 336.388 141.926C338.205 144.009 342.002 144.149 343.819 141.999C344.824 140.788 345.345 139.062 345.999 137.675C346.804 135.961 347.567 134.217 348.421 132.539C349.632 130.25 351.492 127.731 353.793 126.774C354.547 126.475 355.383 126.458 356.149 126.726C357.057 127.192 356.718 127.87 356.451 128.627C356.137 129.511 355.809 130.383 355.476 131.261C355.143 132.14 354.871 132.878 354.562 133.514C353.194 136.566 352.324 139.817 351.982 143.143C351.613 146.056 351.243 148.836 349.972 151.519C348.783 153.931 347.291 156.182 345.533 158.217C343.837 160.233 341.754 162.014 340.246 164.176C337.345 168.33 338.562 173.562 339.034 178.232C339.949 187.158 341.039 196.109 343.274 204.823C344.237 208.62 345.399 212.369 346.568 216.112C347.283 218.401 347.991 220.692 348.694 222.985C349.378 225.238 349.959 227.539 350.844 229.719L352.17 227.388C351.146 227.685 350.123 227.993 349.087 228.272C348.663 228.381 348.233 228.46 347.804 228.557C347.184 228.61 346.573 228.743 345.987 228.95C345.908 228.999 346.707 228.866 346.156 228.95L345.187 229.065L343.013 229.332C342.093 229.447 341.196 229.592 340.258 229.738C338.877 229.956 337.496 230.161 336.115 230.392C335.286 230.525 336.721 230.392 335.904 230.392C335.249 230.392 334.583 230.392 333.929 230.392C331.997 230.392 330.132 230.355 328.2 230.228L320.206 229.707L321.545 230.264L320.703 229.247L321.26 230.585C320.243 222.47 319.377 214.349 318.801 206.192C318.341 199.748 317.917 193.311 317.251 186.886C317.015 184.542 316.749 182.198 316.476 179.855C316.155 177.16 315.961 174.404 315.404 171.727C314.326 166.574 310.111 162.783 307.271 158.556C305.757 156.297 304.279 154.02 302.602 151.894C300.924 149.769 299.144 147.655 297.563 145.439C294.541 141.229 292.412 136.446 291.307 131.383C291.022 130.22 290.86 129.03 290.823 127.834V127.779C290.932 127.464 290.938 127.398 290.823 127.586C290.791 127.577 290.758 127.576 290.725 127.58C290.693 127.585 290.662 127.596 290.634 127.613C290.605 127.63 290.581 127.652 290.561 127.679C290.542 127.705 290.528 127.735 290.52 127.767C290.52 127.87 291.217 128.548 291.338 128.742C292.676 130.904 293.615 133.272 295.032 135.404C297.933 139.77 301.693 143.579 306.447 145.917C306.699 146.059 306.98 146.142 307.268 146.161C307.557 146.179 307.846 146.132 308.114 146.023C308.381 145.914 308.621 145.747 308.815 145.532C309.009 145.317 309.152 145.062 309.233 144.784C309.972 141.532 309.439 138.656 308.627 135.476C307.937 132.763 307.283 130.026 306.72 127.295C305.63 121.961 304.982 116.547 304.782 111.107C304.679 110.019 304.786 108.921 305.097 107.873C305.224 107.498 304.903 107.873 305.097 107.873C305.291 107.873 305.612 108.146 305.303 107.873C305.561 108.18 305.725 108.554 305.775 108.951C306.381 111.483 306.562 114.123 307.168 116.673C308.379 121.735 310.347 126.544 312.382 131.316C312.897 132.527 313.309 133.878 314.229 134.847C315.15 135.816 316.706 136.306 317.954 135.452C319.353 134.52 318.808 132.521 318.717 131.098L318.402 126.12C318.002 119.828 317.372 113.493 317.33 107.183C317.315 105.618 317.381 104.054 317.53 102.496C317.578 102.029 317.53 99.8007 318.365 99.7826C319.201 99.7644 319.795 102.429 320.007 103.107C321.012 106.598 321.789 110.15 322.332 113.742C323.059 117.981 323.646 122.274 324.325 126.538C324.567 128.046 324.809 129.566 325.148 131.056C325.318 132.091 325.733 133.071 326.359 133.914C327.231 134.962 329.296 134.435 329.527 133.078C331.022 124.285 329.194 115.516 329.587 106.668C329.554 105.704 329.631 104.739 329.817 103.792C329.763 103.985 329.617 103.991 329.769 103.973L330.205 103.84C330.371 103.811 330.541 103.811 330.708 103.84C330.841 103.84 330.871 104.004 330.798 103.84C331.168 104.782 331.456 105.755 331.658 106.747C332.805 110.961 333.57 115.27 333.941 119.622C334.351 124.672 334.501 129.739 334.39 134.804C334.341 137.281 338.132 137.281 338.162 134.841Z" fill="#141414"/>
<path d="M336.267 134.841C336.418 124.249 335.964 113.645 332.633 103.58C332.557 103.344 332.466 103.113 332.361 102.889C331.622 101.327 328.122 101.751 327.916 103.495C326.753 113.087 329.357 123.019 327.661 132.563C326.123 130.85 324.427 108.443 321.036 100.352C320.497 99.08 319.692 97.6327 318.099 97.887C317.566 97.9815 317.076 98.2381 316.694 98.6217C316.313 99.0054 316.059 99.4975 315.967 100.031C315.144 104.609 315.434 109.266 315.725 113.887L316.991 133.799C316.331 134.404 315.356 133.448 314.998 132.588C311.365 124.212 308.942 118.544 307.798 109.502C307.61 108.061 307.192 106.287 305.715 106.014C305.376 105.904 305.013 105.888 304.666 105.969C304.319 106.05 304.001 106.225 303.746 106.474C302.82 107.577 302.832 109.284 302.88 110.629C303.232 120.821 304.697 127.761 307.235 137.632C307.878 139.781 307.935 142.062 307.398 144.239C300.949 141.139 296.479 135.143 293.451 128.627C292.725 127.059 291.168 125.084 289.727 126.047C288.891 126.604 288.867 127.81 288.976 128.809C289.578 133.54 291.061 138.116 293.348 142.301C295.377 145.984 298.048 149.266 300.706 152.524C303.837 156.369 305.799 160.209 308.936 164.03C310.674 166.162 312.449 168.36 313.26 170.983C313.602 172.205 313.835 173.456 313.957 174.719C317.481 202.758 315.84 202.522 319.365 230.561L320.206 231.579L331.107 232.287L336.237 232.233L342.583 231.233L346.386 230.773L349.554 230.083L352.654 229.193L352.14 227.927C345.387 204.914 343.195 203.303 340.312 171.915L340.252 169.287C340.504 167.363 341.351 165.565 342.674 164.145C347.331 159.222 352.685 153.614 353.575 145.578C353.999 141.763 354.423 137.862 356.179 134.447C356.645 133.545 358.262 129.184 358.565 128.215C359.122 126.399 357.39 124.636 355.537 124.667C353.442 124.709 353.442 124.709 351.486 125.932C349.408 127.222 347.567 129.832 346.441 132.212L342.632 140.388C342.208 141.29 341.366 141.49 340.385 141.599C339.683 141.702 338.968 141.544 338.375 141.154C337.782 140.764 337.353 140.171 337.169 139.485C336.842 138.292 336.267 137.457 336.267 134.841Z" fill="white"/>
<path d="M411.453 141.234C410.793 132.258 409.634 123.168 406.307 114.745C405.613 113.012 404.974 111.274 402.924 110.949C402.204 110.834 401.467 110.896 400.777 111.131C400.087 111.366 399.466 111.767 398.967 112.298C398.434 112.977 398.175 113.831 398.238 114.692C398.208 115.833 398.243 116.973 398.315 118.11C398.45 120.266 398.735 122.409 399.047 124.549C399.772 129.553 400.719 134.618 400.301 139.695L403.054 138.701C403.096 138.746 403.381 139.089 403.221 138.87C403.06 138.651 403.226 138.929 403.294 139.027C403.213 138.849 403.128 138.678 403.059 138.505C402.87 138.018 402.711 137.511 402.565 137.009C402.111 135.483 401.753 133.932 401.353 132.39C400.381 128.405 399.464 124.426 398.368 120.447C397.851 118.568 397.303 116.698 396.649 114.864C396.133 113.175 395.389 111.564 394.437 110.077C392.843 107.843 389.712 107.548 388.079 109.945C387.2 111.23 387.279 112.876 387.256 114.352C387.245 116.014 387.335 117.674 387.523 119.325C388.346 126.927 389.751 134.499 390.9 142.062L391.606 140.531L392.472 140.521C392.403 140.483 392.347 140.426 392.311 140.356C392.203 140.125 392.072 139.906 391.918 139.702C391.654 139.216 391.394 138.724 391.134 138.237C390.604 137.25 390.083 136.255 389.573 135.252C388.619 133.395 387.717 131.507 386.908 129.573C386.12 127.642 385.444 125.667 384.884 123.659C384.376 121.817 384.22 119.603 383.099 117.995C381.977 116.386 379.299 115.818 377.735 117.266C376.07 118.805 376.398 121.372 376.645 123.388C377.223 127.832 378.122 132.229 379.335 136.543C380.027 139.008 380.814 141.438 381.639 143.858C382.533 146.463 383.613 148.899 383.225 151.708L385.611 150.485C382.548 149.268 379.793 147.388 377.542 144.981C376.433 143.807 375.416 142.547 374.503 141.215C373.561 139.866 372.849 138.292 371.765 137.054C370.682 135.816 369.135 134.797 367.462 135.436C365.789 136.076 365.283 137.968 365.539 139.598C366.122 143.292 367.662 146.886 369.473 150.125C371.397 153.534 373.941 156.465 376.618 159.255C377.972 160.675 379.346 162.067 380.6 163.578C381.854 165.088 383.033 166.616 384.247 168.103C386.665 170.965 389.864 173.394 390.938 177.121C391.944 180.631 392.516 184.321 393.22 187.901C395.104 197.491 396.358 207.173 398.189 216.768C398.848 220.211 399.555 223.65 400.289 227.081C400.381 227.885 400.726 228.639 401.274 229.233C401.619 229.696 402.105 230.034 402.659 230.196C403.153 230.245 403.65 230.245 404.144 230.196C407.129 230.13 410.166 230.211 413.145 229.95C414.739 229.891 416.327 229.716 417.896 229.426C419.525 229.04 421.145 228.6 422.775 228.214C422.904 228.202 423.273 228.018 423.407 228.061C423.407 228.061 422.784 228.191 423.12 228.124L423.71 228.002L426.264 227.459C427.569 227.162 428.85 226.765 430.095 226.273L432.218 225.458C432.994 225.157 433.634 224.11 433.21 223.285C431.491 219.929 430.285 216.247 428.852 212.752C427.646 209.801 426.418 206.852 425.304 203.85C422.871 197.042 420.975 190.055 419.633 182.951C419.076 180.171 418.545 177.385 418.041 174.593C417.908 173.878 417.829 173.17 417.75 172.45C417.622 171.725 417.661 170.981 417.863 170.273C418.38 168.13 420.207 166.464 421.487 164.742C422.983 162.788 424.29 160.696 425.39 158.494C426.544 156.218 427.29 153.757 427.593 151.224C427.883 148.337 427.679 145.455 428.28 142.596C428.689 140.647 429.489 138.767 430.026 136.85C430.563 134.934 431.357 132.984 430.177 131.206C428.629 128.871 425.272 128.655 422.987 129.977C420.434 131.457 418.633 133.978 417.473 136.642C416.815 138.163 416.294 139.759 415.715 141.321L414.748 143.953C414.537 144.513 414.527 145.154 413.922 145.353C412.974 145.669 412.658 145.16 412.318 144.361C411.869 143.37 411.579 142.314 411.459 141.233C411.243 139.084 407.877 139.379 408.092 141.528C408.293 143.515 408.93 146.212 410.428 147.664C412.203 149.373 415.586 149.201 417.033 147.151C417.831 145.997 418.16 144.424 418.633 143.142C419.215 141.557 419.757 139.949 420.385 138.393C421.283 136.266 422.738 133.884 424.707 132.856C425.354 132.532 426.095 132.451 426.796 132.63C427.639 132.973 427.39 133.602 427.212 134.295C427.001 135.104 426.779 135.904 426.551 136.71C426.324 137.516 426.139 138.193 425.914 138.782C424.937 141.598 424.416 144.552 424.371 147.533C424.269 150.149 424.157 152.646 423.236 155.127C422.368 157.362 421.218 159.477 419.815 161.42C418.465 163.343 416.754 165.086 415.582 167.123C413.329 171.038 414.817 175.59 415.599 179.7C417.105 187.556 418.768 195.42 421.43 202.986C422.58 206.283 423.904 209.522 425.232 212.754C426.045 214.732 426.852 216.712 427.654 218.693C428.437 220.641 429.132 222.639 430.087 224.507L431.083 222.333C430.197 222.676 429.312 223.03 428.414 223.358C428.046 223.488 427.671 223.591 427.296 223.71C426.75 223.806 426.218 223.971 425.714 224.201C425.647 224.25 426.347 224.07 425.864 224.188L425.013 224.365L423.103 224.771C422.294 224.945 421.509 225.143 420.687 225.345C419.478 225.646 418.268 225.936 417.059 226.248C416.333 226.431 417.597 226.201 416.871 226.265C416.29 226.315 415.699 226.367 415.118 226.418C413.402 226.568 411.743 226.681 410.017 226.718L402.878 226.876L404.11 227.267L403.283 226.429L403.882 227.574C402.348 220.447 400.948 213.302 399.803 206.102C398.894 200.416 398.017 194.732 396.926 189.078C396.535 187.015 396.116 184.954 395.692 182.894C395.197 180.526 394.811 178.094 394.108 175.76C392.751 171.267 388.713 168.228 385.862 164.694C384.342 162.806 382.853 160.899 381.198 159.141C379.543 157.384 377.798 155.645 376.222 153.8C373.211 150.296 370.949 146.214 369.574 141.803C369.231 140.793 368.994 139.749 368.868 138.689L368.864 138.641C368.936 138.353 368.937 138.293 368.849 138.469C368.82 138.464 368.791 138.465 368.762 138.472C368.734 138.478 368.707 138.491 368.683 138.508C368.659 138.525 368.639 138.547 368.624 138.572C368.609 138.597 368.599 138.625 368.594 138.654C368.602 138.745 369.273 139.293 369.396 139.456C370.753 141.272 371.77 143.302 373.194 145.085C376.11 148.737 379.745 151.828 384.149 153.534C384.383 153.641 384.639 153.693 384.897 153.687C385.154 153.681 385.407 153.617 385.637 153.499C385.866 153.382 386.066 153.214 386.222 153.008C386.377 152.803 386.484 152.565 386.535 152.312C386.938 149.367 386.241 146.854 385.274 144.093C384.45 141.737 383.656 139.357 382.944 136.975C381.561 132.324 380.565 127.566 379.965 122.75C379.789 121.792 379.799 120.809 379.994 119.854C380.077 119.511 379.822 119.869 379.994 119.854C380.166 119.839 380.472 120.056 380.176 119.838C380.429 120.09 380.604 120.41 380.68 120.759C381.414 122.96 381.781 125.29 382.517 127.507C383.986 131.909 386.107 136.027 388.285 140.107C388.836 141.142 389.307 142.31 390.199 143.099C391.092 143.887 392.513 144.202 393.554 143.347C394.724 142.41 394.085 140.678 393.893 139.421L393.227 135.024C392.383 129.468 391.332 123.891 390.804 118.291C390.669 116.902 390.606 115.507 390.617 114.112C390.624 113.694 390.408 111.719 391.148 111.638C391.889 111.557 392.623 113.877 392.864 114.463C394.028 117.485 394.994 120.579 395.756 123.726C396.73 127.435 397.586 131.202 398.519 134.935C398.851 136.256 399.185 137.587 399.602 138.883C399.833 139.79 400.278 140.628 400.899 141.328C401.755 142.19 403.548 141.562 403.647 140.34C404.292 132.414 401.987 124.769 401.649 116.881C401.544 116.027 401.538 115.164 401.63 114.309C401.597 114.485 401.468 114.502 401.601 114.474L401.978 114.321C402.123 114.283 402.274 114.27 402.424 114.282C402.543 114.272 402.582 114.415 402.505 114.275C402.907 115.083 403.238 115.925 403.494 116.79C404.841 120.443 405.854 124.211 406.522 128.046C407.278 132.499 407.805 136.988 408.1 141.494C408.249 143.698 411.616 143.403 411.453 141.234Z" fill="#141414"/>
<path d="M409.77 141.381C409.081 131.963 407.854 122.581 404.114 113.902C404.028 113.698 403.93 113.5 403.819 113.31C403.041 111.979 399.965 112.628 399.918 114.193C399.631 122.802 402.715 131.42 401.951 140.027C400.452 138.625 397.205 118.858 393.564 111.936C392.987 110.849 392.159 109.626 390.765 109.975C390.299 110.101 389.883 110.367 389.574 110.737C389.265 111.107 389.078 111.564 389.038 112.045C388.662 116.175 389.282 120.288 389.899 124.369L392.571 141.954C392.031 142.543 391.091 141.769 390.707 141.033C386.829 133.877 384.238 129.031 382.519 121.091C382.24 119.825 381.731 118.282 380.398 118.155C380.088 118.083 379.765 118.098 379.463 118.197C379.161 118.296 378.892 118.476 378.686 118.717C377.948 119.767 378.092 121.283 378.239 122.473C379.343 131.497 381.184 137.547 384.204 146.116C384.943 147.974 385.17 149.995 384.863 151.971C378.894 149.718 374.459 144.741 371.264 139.19C370.497 137.853 368.961 136.221 367.756 137.188C367.057 137.748 367.129 138.82 367.304 139.699C368.206 143.853 369.879 147.802 372.235 151.341C374.323 154.454 376.95 157.161 379.564 159.848C382.643 163.02 384.684 166.277 387.767 169.427C389.476 171.185 391.222 172.999 392.147 175.265C392.545 176.324 392.849 177.416 393.055 178.529C398.364 203.156 396.888 203.073 402.197 227.7L403.023 228.538L412.759 228.321L417.31 227.874L422.869 226.493L426.21 225.789L428.969 224.93L431.654 223.898L431.098 222.814C423.314 202.902 421.242 201.642 416.243 173.991L415.985 171.662C416.06 169.933 416.672 168.271 417.737 166.908C421.49 162.173 425.809 156.777 425.975 149.571C426.055 146.15 426.128 142.654 427.422 139.484C427.766 138.647 428.864 134.649 429.057 133.765C429.411 132.108 427.736 130.678 426.093 130.848C424.235 131.049 424.235 131.049 422.593 132.287C420.848 133.594 419.416 136.055 418.601 138.256L415.853 145.813C415.547 146.647 414.815 146.89 413.952 147.063C413.337 147.209 412.689 147.124 412.133 146.824C411.576 146.524 411.149 146.03 410.932 145.436C410.549 144.402 409.973 143.704 409.77 141.381Z" fill="white"/>
<path d="M549.948 99.4823L563.523 120.335L539.487 126.631L536.324 127.459L536.506 130.723L537.896 155.578L513.954 149.041L510.813 148.184L509.336 151.085L498.047 173.254L480.441 155.485L478.148 153.17L475.418 154.948L454.565 168.523L448.269 144.487L447.441 141.324L444.177 141.506L419.322 142.896L425.859 118.954L426.715 115.818L423.82 114.338L401.74 103.053L419.415 85.5415L421.73 83.2484L419.952 80.5177L406.377 59.6647L430.413 53.3695L433.576 52.5411L433.394 49.2767L432.004 24.4215L455.946 30.9588L459.078 31.8137L460.559 28.9255L471.941 6.73439L489.458 24.4152L491.752 26.7299L494.482 24.9523L515.335 11.3773L521.631 35.4134L522.459 38.5763L525.723 38.3938L550.578 37.0038L544.041 60.9464L544.172 60.982C544.022 61.4244 543.921 61.8491 543.903 62.1582C543.963 62.7089 544.225 63.5811 544.381 63.9037C544.674 64.4459 545.026 64.7876 545.112 64.8704L545.116 64.8745C545.351 65.1023 545.564 65.2515 545.604 65.2797C545.743 65.3781 545.867 65.4525 545.909 65.4775C546.022 65.5456 546.148 65.616 546.253 65.6742C546.479 65.7988 546.791 65.9659 547.161 66.1618C547.909 66.5573 548.972 67.1113 550.238 67.7664C552.773 69.0784 556.157 70.8161 559.54 72.5479C562.624 74.127 565.71 75.7033 568.156 76.9513L550.485 94.4584L548.17 96.7516L549.948 99.4823Z" fill="#FFF0B4" stroke="#FFE476" stroke-width="8" stroke-miterlimit="10"/>
<path d="M501.046 104.238C504.631 91.5603 507.589 78.4768 507.229 65.2245C507.143 62.4932 507.133 59.7824 504.475 58.3096C503.544 57.7901 502.498 57.5071 501.432 57.4851C500.365 57.4631 499.309 57.703 498.357 58.1837C497.284 58.8518 496.5 59.8961 496.157 61.1122C495.544 62.6662 495.021 64.2523 494.551 65.8527C493.656 68.8857 492.976 71.9759 492.333 75.0764C490.825 82.3221 489.592 89.7642 486.476 96.5381L490.76 96.5488C490.795 96.6319 491.015 97.2471 490.905 96.8657C490.794 96.4842 490.882 96.9496 490.927 97.1172C490.905 96.8331 490.873 96.5546 490.864 96.2822C490.849 95.5171 490.885 94.7413 490.934 93.9773C491.075 91.6505 491.359 89.3376 491.58 87.0161C492.238 81.0481 492.969 75.1158 493.454 69.0931C493.683 66.2503 493.866 63.4028 493.885 60.5526C494.02 57.971 493.803 55.383 493.238 52.8604C492.164 48.9892 488.005 47.0156 484.559 49.4957C482.706 50.8237 481.99 53.1274 481.22 55.1464C480.373 57.4266 479.664 59.7557 479.098 62.1211C476.423 72.9895 474.564 84.1093 472.359 95.0872L474.096 93.3355L475.293 93.7544C475.217 93.6681 475.169 93.5612 475.155 93.4473C475.122 93.0754 475.05 92.708 474.941 92.351C474.82 91.5496 474.709 90.7426 474.596 89.9432C474.36 88.32 474.142 86.6908 473.942 85.0554C473.56 82.024 473.264 78.9749 473.12 75.9091C473.003 72.8587 473.062 69.804 473.297 66.7604C473.521 63.973 474.415 60.85 473.677 58.0752C472.94 55.3004 469.54 53.1787 466.664 54.3878C463.604 55.6705 462.769 59.3659 462.099 62.2627C460.67 68.6658 459.705 75.1638 459.213 81.706C458.932 85.4432 458.798 89.179 458.72 92.9216C458.646 96.9518 458.912 100.844 456.972 104.513L460.866 104.026C457.263 100.818 454.414 96.8528 452.523 92.4148C451.584 90.2441 450.817 88.0032 450.228 85.7127C449.608 83.3866 449.416 80.8645 448.545 78.6185C447.674 76.3724 446.057 74.1963 443.435 74.2385C440.814 74.2806 439.17 76.63 438.707 79.0012C437.66 84.3741 437.978 90.0883 438.848 95.4513C439.788 101.103 441.819 106.409 444.105 111.587C445.257 114.219 446.449 116.821 447.418 119.527C448.387 122.233 449.244 124.925 450.17 127.579C452.063 132.725 455.247 137.669 454.858 143.333C454.485 148.665 453.424 154.026 452.6 159.303C450.391 173.438 447.268 187.386 444.983 201.5C444.165 206.567 443.416 211.651 442.708 216.738C442.432 217.89 442.529 219.099 442.985 220.192C443.228 221.001 443.727 221.709 444.408 222.209C445.063 222.524 445.747 222.773 446.451 222.953C450.591 224.357 454.727 225.989 458.956 227.122C461.178 227.839 463.45 228.393 465.753 228.779C468.188 229.064 470.636 229.27 473.072 229.554C473.255 229.603 473.854 229.535 474.017 229.66C474.017 229.66 473.095 229.528 473.591 229.603L474.465 229.731L478.249 230.263C480.194 230.507 482.154 230.603 484.112 230.549L487.441 230.492C488.659 230.466 490.064 229.346 489.893 227.999C489.209 222.522 489.394 216.853 489.173 211.328C488.99 206.665 488.778 201.994 488.749 197.306C488.81 186.724 489.7 176.162 491.412 165.719C492.037 161.615 492.702 157.517 493.406 153.424C493.58 152.375 493.827 151.361 494.079 150.332C494.266 149.271 494.692 148.266 495.324 147.393C497.108 144.705 500.455 143.327 503.078 141.6C506.115 139.661 508.96 137.437 511.575 134.959C514.302 132.406 516.56 129.394 518.246 126.061C520.089 122.235 521.252 118.17 523.51 114.537C525.049 112.061 527.091 109.875 528.789 107.508C530.487 105.14 532.556 102.855 531.823 99.8199C530.862 95.8317 526.352 93.8542 522.547 94.5282C518.294 95.2867 514.555 97.852 511.626 100.937C509.959 102.699 508.443 104.633 506.864 106.493L504.216 109.629C503.645 110.294 503.312 111.17 502.379 111.141C500.917 111.101 500.738 110.243 500.669 108.973C500.548 107.385 500.677 105.788 501.054 104.24C501.834 101.177 497.055 99.8964 496.275 102.96C495.556 105.795 495.082 109.824 496.416 112.57C498.003 115.81 502.742 117.268 505.758 115.172C507.434 113.984 508.674 111.985 509.966 110.458C511.561 108.569 513.111 106.629 514.754 104.803C517.054 102.326 520.249 99.7785 523.472 99.3497C524.524 99.2277 525.584 99.4885 526.458 100.084C527.446 100.979 526.789 101.719 526.198 102.583C525.502 103.592 524.795 104.58 524.079 105.575C523.363 106.569 522.77 107.408 522.165 108.106C519.411 111.49 517.215 115.294 515.661 119.372C514.212 122.918 512.807 126.297 510.298 129.25C507.985 131.889 505.344 134.222 502.441 136.193C499.622 138.162 496.395 139.703 493.764 141.919C488.704 146.176 488.471 153.182 487.49 159.227C485.628 170.788 483.979 182.438 483.852 194.178C483.783 199.289 483.983 204.407 484.192 209.519C484.32 212.646 484.439 215.773 484.55 218.901C484.652 221.972 484.607 225.069 484.985 228.116L487.445 225.625C486.054 225.653 484.66 225.697 483.26 225.698C482.689 225.692 482.121 225.646 481.546 225.623C480.747 225.482 479.932 225.442 479.123 225.506C479.007 225.54 480.06 225.642 479.337 225.563L478.077 225.381L475.246 224.982C474.047 224.817 472.868 224.697 471.636 224.563C469.822 224.372 468.012 224.165 466.194 223.989C465.103 223.876 466.957 224.193 465.926 223.917C465.102 223.696 464.262 223.471 463.438 223.25C461.003 222.598 458.664 221.922 456.272 221.109L446.371 217.753L447.87 218.907L447.153 217.34L447.403 219.216C448.861 208.643 450.513 198.114 452.543 187.637C454.139 179.36 455.779 171.102 457.109 162.778C457.603 159.744 458.059 156.7 458.507 153.654C459.013 150.148 459.699 146.61 459.901 143.048C460.283 136.187 456.25 129.985 454.098 123.698C452.952 120.339 451.859 116.97 450.462 113.724C449.066 110.478 447.535 107.212 446.291 103.885C443.904 97.5578 442.836 90.8093 443.153 84.0544C443.187 82.4925 443.384 80.9384 443.741 79.4175L443.76 79.3488C444.003 78.9887 444.034 78.9068 443.825 79.1046C443.788 79.0835 443.747 79.0701 443.704 79.0652C443.661 79.0602 443.618 79.0636 443.577 79.0754C443.536 79.0872 443.497 79.1071 443.464 79.1338C443.43 79.1606 443.403 79.1937 443.382 79.2313C443.347 79.3611 443.996 80.4512 444.083 80.7364C445.04 83.9136 445.424 87.2154 446.49 90.381C448.672 96.8645 452.125 102.936 457.328 107.488C457.598 107.752 457.923 107.952 458.281 108.073C458.638 108.194 459.018 108.232 459.393 108.185C459.767 108.139 460.126 108.008 460.443 107.803C460.76 107.598 461.026 107.324 461.222 107.002C463.252 103.152 463.552 99.3462 463.602 95.0645C463.649 91.4115 463.749 87.7402 463.961 84.1073C464.389 77.0164 465.4 69.9729 466.986 63.0484C467.223 61.6419 467.729 60.2942 468.475 59.0785C468.762 58.6481 468.231 59.013 468.475 59.0785C468.719 59.1439 469.032 59.5958 468.735 59.148C468.956 59.6212 469.037 60.1485 468.966 60.6663C468.874 64.0617 468.212 67.4512 468.114 70.8695C467.931 77.6602 468.787 84.3859 469.74 91.0884C469.98 92.789 470.043 94.6303 470.876 96.1626C471.709 97.6949 473.505 98.8388 475.366 98.1839C477.445 97.4808 477.433 94.7776 477.799 92.9531L479.083 86.572C480.704 78.5058 482.05 70.3084 484.128 62.3399C484.637 60.3623 485.25 58.4127 485.963 56.4991C486.182 55.9277 486.873 53.1022 487.933 53.3615C488.992 53.6209 488.84 57.1801 488.879 58.1066C488.967 62.8459 488.746 67.5859 488.218 72.2965C487.702 77.8854 486.993 83.496 486.408 89.0991C486.204 91.0816 485.996 93.0795 485.92 95.0719C485.784 96.4348 485.977 97.8105 486.481 99.084C487.227 100.699 490.008 100.732 490.756 99.1003C495.611 88.5216 496.268 76.8506 499.752 65.831C500.036 64.604 500.459 63.4135 501.014 62.2828C500.88 62.5086 500.694 62.4672 500.891 62.4954L501.486 62.4747C501.705 62.4947 501.919 62.5522 502.119 62.6445C502.287 62.6895 502.27 62.9058 502.234 62.6752C502.382 63.988 502.416 65.3111 502.336 66.6297C502.359 72.3291 501.867 78.0189 500.865 83.6297C499.676 90.1332 498.153 96.5713 496.303 102.918C495.405 106.024 500.183 107.304 501.046 104.238Z" fill="#141414"/>
<path d="M498.657 103.598C502.425 90.2983 505.434 76.7786 504.635 62.9668C504.619 62.644 504.582 62.3226 504.525 62.0045C504.121 59.7855 499.566 59.1376 498.717 61.2665C494.011 72.9653 493.939 86.3638 488.579 97.8215C487.218 95.1417 492.649 66.325 491.107 54.9812C490.857 53.1961 490.331 51.0996 488.237 50.8823C487.534 50.8214 486.829 50.9791 486.218 51.3339C485.608 51.6887 485.121 52.2232 484.826 52.8646C482.242 58.3574 481.035 64.3257 479.841 70.2483L474.711 95.7747C473.674 96.3152 472.769 94.7797 472.609 93.5751C470.857 81.7907 469.718 73.8276 471.329 62.0442C471.58 60.164 471.652 57.7862 469.882 56.9436C469.492 56.69 469.04 56.548 468.575 56.5331C468.111 56.5182 467.651 56.6309 467.245 56.859C465.705 57.9354 465.144 60.0921 464.751 61.8031C461.751 74.769 461.254 84.012 461.119 97.3116C461.204 100.237 460.505 103.132 459.093 105.695C452.011 99.6083 448.402 90.5416 446.786 81.3053C446.4 79.0828 445.105 76.0686 442.963 76.7955C441.721 77.2155 441.284 78.7264 441.084 80.0227C440.245 86.1897 440.568 92.4592 442.038 98.507C443.352 103.833 445.609 108.873 447.86 113.878C450.508 119.782 451.684 125.285 454.348 131.161C455.819 134.435 457.313 137.805 457.45 141.385C457.467 143.041 457.339 144.696 457.066 146.33C452.038 182.863 450.049 182.011 445.022 218.545L445.739 220.112L459.24 224.686L465.724 226.35L474.062 227.234L479.011 227.939L483.237 228.138L487.446 228.063L487.224 226.294C486.485 195.006 484.266 192.235 491.234 151.697L492.045 148.364C493.013 146.023 494.688 144.044 496.835 142.701C504.368 138.068 513.01 132.807 516.847 122.978C518.67 118.312 520.521 113.539 523.889 109.827C524.781 108.847 528.292 103.897 529.001 102.778C530.317 100.676 528.729 97.8701 526.383 97.2823C523.727 96.6281 523.727 96.6281 520.848 97.5094C517.795 98.4337 514.592 101.102 512.369 103.722L504.806 112.74C503.967 113.734 502.838 113.702 501.565 113.508C500.645 113.401 499.797 112.96 499.182 112.268C498.566 111.577 498.226 110.684 498.225 109.758C498.216 108.144 497.773 106.896 498.657 103.598Z" fill="white"/>
</g>
</svg>
