<svg width="24" height="24" viewBox="0 0 24 24" fill="none" xmlns="http://www.w3.org/2000/svg">
<path d="M7.87785 3.62207C8.55179 3.61969 9.40928 3.62872 9.78312 3.64062C10.157 3.65253 10.8423 3.66919 11.3066 3.67871C11.9176 3.68822 12.1849 3.70282 12.2782 3.72656C12.3497 3.74562 12.4382 3.79362 12.4882 3.83887C12.5358 3.87936 12.5999 3.97448 12.6357 4.0459C12.6833 4.14593 12.6976 4.21295 12.6952 4.33203C12.6952 4.43894 12.6791 4.52465 12.6435 4.60547C12.6149 4.67216 12.5574 4.76084 12.5146 4.80371C12.4718 4.84638 12.4006 4.90029 12.3554 4.92188C12.2816 4.9576 12.1811 4.96277 11.5097 4.95801C11.0905 4.95563 10.3566 4.94105 9.87785 4.92676C9.39923 4.91485 8.58507 4.90333 8.06828 4.90332C7.55146 4.90332 6.84374 4.91485 6.49601 4.92676C6.14829 4.94105 5.65515 4.96782 5.40031 4.98926C5.14565 5.0083 4.86249 5.03899 4.76945 5.05566C4.67894 5.07472 4.5783 5.10094 4.54972 5.11523C4.5189 5.12964 4.49043 5.16545 4.48331 5.19629C4.47614 5.22544 4.45449 5.48935 4.43546 5.78418C4.41641 6.07943 4.38323 6.71536 4.36417 7.20117C4.34274 7.68698 4.31706 8.87087 4.30753 9.83301C4.29562 10.7952 4.29562 12.4675 4.30753 13.5488C4.31705 14.6288 4.33121 15.6066 4.34074 15.7275C4.34788 15.8466 4.36953 16.4309 4.38859 17.0264C4.40763 17.6214 4.43582 18.3352 4.45011 18.6094C4.46201 18.8829 4.49063 19.2163 4.50968 19.3477C4.53112 19.4786 4.56192 19.6222 4.58097 19.665C4.60004 19.7079 4.64347 19.7533 4.68156 19.7676C4.71824 19.782 4.89176 19.8224 5.0673 19.8604C5.24352 19.8984 5.49138 19.9458 5.61515 19.9648C5.73904 19.9839 5.97441 20.0171 6.13859 20.0361C6.30292 20.0552 6.60314 20.0868 6.80558 20.1035C7.08424 20.1273 7.83494 20.1313 9.84269 20.1289C11.3097 20.1265 13.0029 20.1129 13.6054 20.0986C14.2079 20.0843 15.0013 20.0552 15.3681 20.0361C15.7349 20.0171 16.3686 19.9914 16.7734 19.9795C17.1781 19.9676 17.6522 19.9413 17.8212 19.9199C17.9902 19.8985 18.1948 19.8647 18.2734 19.8457C18.3519 19.8266 18.4592 19.7935 18.5116 19.7744C18.5639 19.753 18.6375 19.7127 18.6757 19.6865C18.7162 19.6579 18.7763 19.5698 18.8144 19.4912C18.8501 19.4126 18.9116 19.2197 18.9521 19.0625C18.9925 18.9054 19.04 18.6862 19.0614 18.5742C19.0805 18.4624 19.1137 18.2648 19.1327 18.1338C19.1518 18.0029 19.1876 17.6979 19.2138 17.4551C19.2376 17.2121 19.2712 16.8686 19.2831 16.6924C19.2974 16.516 19.3261 16.0491 19.3476 15.6562C19.3761 15.1443 19.3882 14.4394 19.3905 13.168C19.3953 11.6437 19.3996 11.381 19.4306 11.3096C19.4521 11.2643 19.5046 11.1837 19.5497 11.1338C19.5949 11.0815 19.6877 11.0144 19.7568 10.9834C19.8425 10.9453 19.9264 10.9287 20.0312 10.9287C20.1121 10.9287 20.2195 10.9434 20.2694 10.9648C20.3171 10.984 20.4027 11.0409 20.455 11.0908C20.5098 11.1385 20.5763 11.222 20.6025 11.2744C20.6342 11.3379 20.6571 11.4488 20.6698 11.6074C20.6794 11.7384 20.688 12.3559 20.6903 12.9775C20.6903 13.599 20.6788 14.4464 20.6669 14.8584C20.655 15.2704 20.631 15.8355 20.6191 16.1094C20.6048 16.3831 20.5766 16.7898 20.5575 17.0137C20.5385 17.2375 20.5077 17.5594 20.4862 17.7285C20.4672 17.8974 20.4386 18.1281 20.4267 18.2402C20.4148 18.3522 20.3812 18.5838 20.3573 18.7529C20.3311 18.922 20.2878 19.1528 20.2616 19.2646C20.2354 19.3766 20.181 19.5626 20.1405 19.6816C20.1001 19.8006 20.024 19.9765 19.9716 20.0742C19.9192 20.1719 19.8195 20.3275 19.7528 20.418C19.6862 20.5085 19.5758 20.6319 19.5068 20.6914C19.4163 20.7747 19.3233 20.8226 19.1376 20.8916C19.0042 20.944 18.8114 21.0055 18.7138 21.0293C18.6162 21.0555 18.407 21.0959 18.2499 21.1221C18.0927 21.1459 17.8303 21.1771 17.6659 21.1914C17.5016 21.2057 17.2083 21.2293 17.0107 21.2412C16.8152 21.2531 16.3537 21.2794 15.9872 21.3008C15.6204 21.3198 15.0578 21.3461 14.7362 21.3604C14.4143 21.3746 13.3287 21.3968 12.3193 21.4111C11.0022 21.4302 10.0898 21.4302 9.07999 21.4111C8.24646 21.3968 7.37008 21.3655 6.92472 21.3369C6.51297 21.3107 6.03455 21.273 5.86515 21.2539C5.69605 21.2349 5.43817 21.2007 5.29288 21.1816C5.14782 21.1626 4.96724 21.1369 4.88859 21.125C4.80999 21.1131 4.60694 21.0724 4.43546 21.0391C4.22618 20.9962 4.0809 20.9513 3.98331 20.9014C3.90472 20.8609 3.7712 20.7557 3.68546 20.6699C3.55217 20.5366 3.52167 20.4863 3.45499 20.3125C3.41451 20.2006 3.36924 20.0625 3.35734 20.0029C3.34306 19.9434 3.31388 19.7891 3.29484 19.6582C3.27579 19.5273 3.23803 19.1721 3.21183 18.8721C3.18563 18.572 3.1519 18.1359 3.13761 17.9072C3.12332 17.6786 3.10167 17.2494 3.08976 16.9541C3.07784 16.6582 3.04966 15.6799 3.02824 14.7754C2.99966 13.537 2.99527 12.5985 3.0048 10.9648C3.01194 9.77401 3.02805 8.4281 3.03996 7.97559C3.05425 7.52307 3.0759 6.91806 3.08781 6.62988C3.1021 6.34171 3.1257 5.95583 3.13761 5.77246C3.1519 5.58906 3.18106 5.28883 3.20011 5.10547C3.22155 4.92215 3.25236 4.71509 3.2714 4.64844C3.29039 4.5796 3.32086 4.48698 3.34464 4.44629C3.36608 4.40342 3.43811 4.31278 3.5048 4.24609C3.58335 4.16992 3.69714 4.09065 3.82804 4.02637C3.93998 3.97159 4.11223 3.90565 4.20988 3.88184C4.30756 3.85565 4.51668 3.81232 4.67374 3.78613C4.83092 3.75994 5.15739 3.72163 5.40031 3.7002C5.64324 3.67876 6.02213 3.65546 6.24601 3.64355C6.46998 3.63403 7.20391 3.62445 7.87785 3.62207ZM19.4882 2C19.6073 2.00001 19.7762 2.00958 19.8691 2.02148C19.9619 2.03577 20.1 2.062 20.1786 2.08105C20.2572 2.10011 20.3907 2.14299 20.4765 2.17871C20.5622 2.21205 20.6787 2.26939 20.7382 2.30273C20.7977 2.33606 20.905 2.40952 20.9765 2.46191C21.0479 2.51669 21.1769 2.63802 21.2626 2.72852C21.3649 2.83798 21.46 2.97621 21.5409 3.13086C21.6076 3.25947 21.6908 3.44368 21.7265 3.53418C21.7598 3.62711 21.8147 3.79147 21.8456 3.90332C21.8765 4.01515 21.9218 4.20269 21.9433 4.31934C21.9742 4.47645 21.9862 4.6554 21.9862 4.99805C21.9886 5.44818 21.9868 5.46814 21.9296 5.58008C21.8961 5.64457 21.7387 5.8351 21.5722 6.00879C21.4078 6.18265 21.1172 6.48706 20.9267 6.68945C20.7361 6.89189 19.976 7.70137 19.2353 8.4873C18.4969 9.27326 17.8114 10.0026 17.7138 10.1074C17.6161 10.2122 17.4369 10.4006 17.3202 10.5244C17.2012 10.6482 17.0252 10.8357 16.9277 10.9404C16.8301 11.0452 16.6542 11.2336 16.5351 11.3574C16.416 11.4813 16.1581 11.7553 15.9628 11.9648C15.7678 12.1741 15.5255 12.4311 15.4277 12.5361C15.3277 12.6409 15.1512 12.8293 15.0321 12.9531C14.9155 13.077 14.6581 13.351 14.4628 13.5605C14.2651 13.7701 13.9866 14.0658 13.8437 14.2158C13.7008 14.3682 13.4152 14.6685 13.2128 14.8828C13.0105 15.0994 12.7578 15.3654 12.6552 15.4775C12.5504 15.5895 12.3786 15.7709 12.2714 15.8828C12.1668 15.9946 12.0364 16.1185 11.9862 16.1592C11.9339 16.1997 11.6597 16.3473 11.3788 16.4854C11.0978 16.6211 10.7326 16.7949 10.5683 16.8711C10.404 16.9449 10.2372 17.0214 10.1991 17.0381C10.1606 17.0549 10.0373 17.1072 9.9257 17.1523C9.81387 17.1999 9.61626 17.2756 9.48527 17.3232C9.35428 17.3709 9.14884 17.4424 9.03214 17.4805C8.91552 17.5185 8.70176 17.583 8.55656 17.6211C8.41138 17.6592 8.19217 17.71 8.06828 17.7314C7.94443 17.7529 7.739 17.7715 7.61515 17.7715C7.47713 17.7715 7.32951 17.7576 7.23429 17.7314C7.14859 17.71 7.03214 17.6617 6.97257 17.626C6.91303 17.5926 6.82435 17.5261 6.77433 17.4785C6.72194 17.4332 6.6432 17.3143 6.59562 17.2168C6.5218 17.0715 6.50566 17.0093 6.50089 16.8594C6.49375 16.738 6.50765 16.6165 6.54093 16.4785C6.56713 16.3666 6.60586 16.1943 6.62492 16.0967C6.64408 15.9984 6.70542 15.6605 6.75773 15.3467C6.8125 15.0323 6.88162 14.6464 6.91496 14.4893C6.94591 14.3321 7.0109 14.0636 7.05851 13.8945C7.10614 13.7254 7.1822 13.4892 7.22746 13.3701C7.27268 13.2511 7.36045 13.0489 7.42472 12.918C7.48903 12.787 7.60589 12.5839 7.68449 12.4648C7.76545 12.3458 7.90109 12.1674 7.98917 12.0674C8.07968 11.965 8.52799 11.5096 8.98527 11.0547C9.4448 10.5975 9.92561 10.1238 10.0566 10C10.1875 9.87619 10.4616 9.61465 10.664 9.41699C10.8688 9.22173 11.2284 8.87623 11.4618 8.65234C11.6976 8.43086 12.3575 7.80929 12.9267 7.27344C13.4959 6.73756 14.1935 6.08425 14.4745 5.82227C14.7555 5.55796 15.082 5.25356 15.2011 5.1416C15.3178 5.02969 15.489 4.86756 15.5819 4.78418C15.6748 4.70082 15.9111 4.48124 16.1064 4.29785C16.3039 4.11457 16.5439 3.88834 16.6415 3.79785C16.7415 3.70497 17.1471 3.32869 17.5448 2.96191C17.9401 2.59524 18.3209 2.26161 18.3876 2.21875C18.4567 2.17589 18.5858 2.12396 18.6786 2.10254C18.7716 2.08111 18.9405 2.04986 19.0595 2.0332C19.1786 2.01654 19.3692 2.00238 19.4882 2ZM15.5819 16.0996C17.1134 16.0972 17.1568 16.0998 17.2616 16.1475C17.3212 16.1738 17.409 16.2357 17.4589 16.2832C17.5087 16.3307 17.5728 16.4135 17.6015 16.4658C17.6372 16.5349 17.6513 16.6071 17.6513 16.7285C17.6513 16.8497 17.64 16.9235 17.6044 17.002C17.5758 17.0615 17.5109 17.1502 17.4609 17.2002C17.4084 17.2501 17.3106 17.3122 17.2441 17.3359C17.1229 17.381 17.0446 17.3828 15.5771 17.3828C14.2793 17.3828 14.0172 17.3786 13.9267 17.3477C13.8672 17.3286 13.7673 17.2666 13.703 17.2119C13.6387 17.1548 13.5652 17.0615 13.539 17.002C13.508 16.9329 13.4906 16.8424 13.4882 16.752C13.4882 16.6734 13.5033 16.566 13.5224 16.5137C13.5392 16.4613 13.5935 16.3785 13.6386 16.3262C13.6861 16.2763 13.7622 16.2142 13.8075 16.1855C13.8528 16.1593 13.9177 16.1277 13.9511 16.1182C13.9908 16.1087 14.7215 16.0996 15.5819 16.0996ZM19.2685 3.3125C19.1591 3.32203 19.057 3.3387 19.038 3.35059C19.0189 3.36021 18.9403 3.42667 18.8642 3.49805C18.788 3.56947 18.5713 3.774 18.3808 3.9502C18.1903 4.12643 17.8946 4.40042 17.7255 4.55762C17.5565 4.71476 17.3258 4.92935 17.2138 5.03418C17.1018 5.13897 16.8656 5.35813 16.6894 5.52246C16.5132 5.68677 16.2013 5.97694 15.9989 6.16504C15.7965 6.35557 15.5557 6.58028 15.4628 6.66602C15.372 6.75436 15.1081 6.99889 14.8798 7.21289C14.6512 7.42716 14.3888 7.67492 14.2958 7.76074C14.2053 7.84648 13.9313 8.10437 13.6884 8.33301C13.4479 8.56162 13.1315 8.86192 12.9862 9C12.8433 9.13575 12.6379 9.3287 12.5331 9.42871C12.4275 9.52947 11.9825 9.95053 11.5448 10.3691C11.1066 10.7883 10.3519 11.5239 9.86613 12.0049C9.38265 12.4884 8.92488 12.9579 8.85343 13.0508C8.78209 13.1436 8.68528 13.2912 8.63761 13.377C8.58998 13.4651 8.51544 13.6273 8.47257 13.7393C8.42971 13.8512 8.37528 14.011 8.35148 14.0967C8.32528 14.1825 8.27987 14.3584 8.24894 14.4893C8.21801 14.6201 8.16774 14.8509 8.14152 15.001C8.11294 15.151 8.08476 15.297 8.07999 15.3232C8.07299 15.3495 8.08753 15.3964 8.11124 15.4297C8.13742 15.463 8.29386 15.5825 8.46281 15.6943C8.63191 15.8063 8.84691 15.9402 8.93742 15.9902L9.10441 16.0801C9.36376 15.9754 9.58259 15.8848 9.75871 15.8086C9.93495 15.7348 10.226 15.6039 10.4023 15.5205C10.5784 15.4348 10.8263 15.3154 10.9501 15.2559C11.1545 15.156 11.2026 15.1175 11.4501 14.8652C11.6026 14.7104 11.895 14.4034 12.1044 14.1797C12.314 13.9582 12.6736 13.5769 12.9023 13.334C13.1309 13.0911 13.4271 12.7817 13.5605 12.6436C13.6915 12.5053 13.9747 12.2051 14.1913 11.9766C14.4057 11.7479 14.8006 11.3312 15.0673 11.0479C15.3364 10.7668 15.7183 10.3639 15.9159 10.1543C16.1138 9.9445 16.5591 9.47298 16.9042 9.10645C17.252 8.73724 17.8777 8.07513 18.2968 7.62988C18.7156 7.18731 19.1325 6.74275 19.2235 6.64453C19.3164 6.54453 19.4883 6.36115 19.6073 6.2373C19.724 6.11352 19.9547 5.86568 20.1191 5.68945C20.2834 5.51321 20.4667 5.31473 20.5263 5.24805C20.5858 5.18376 20.6579 5.09808 20.6864 5.05762C20.7267 5.00535 20.7406 4.95271 20.7382 4.86719C20.7382 4.80278 20.7221 4.66229 20.703 4.55762C20.6816 4.45282 20.6387 4.2861 20.6054 4.18848C20.572 4.09083 20.5005 3.92412 20.4482 3.81934C20.3958 3.7147 20.3359 3.60801 20.3144 3.58398C20.2906 3.56018 20.2219 3.5024 20.1552 3.46191C20.091 3.4191 19.9767 3.36677 19.9052 3.34766C19.8337 3.3286 19.7048 3.3075 19.6191 3.30273C19.5333 3.29559 19.3756 3.30059 19.2685 3.3125ZM16.6659 13.0791C17.1397 13.0839 17.1589 13.0865 17.2851 13.1484C17.3565 13.1818 17.4472 13.2467 17.4853 13.292C17.5233 13.3349 17.5754 13.4136 17.6015 13.4658C17.6371 13.5348 17.6513 13.6062 17.6513 13.7275C17.6513 13.8489 17.6372 13.9202 17.6015 13.9893C17.5753 14.0416 17.5234 14.1202 17.4853 14.1631C17.4472 14.2083 17.3565 14.2723 17.2851 14.3057C17.1541 14.37 17.1516 14.3701 16.0351 14.3701L15.8915 14.2988C15.7893 14.2489 15.7229 14.1916 15.661 14.1084C15.5992 14.0251 15.5659 13.9466 15.5468 13.8467C15.5277 13.7419 15.5277 13.6721 15.5468 13.584C15.5636 13.515 15.6108 13.4156 15.663 13.3467C15.7106 13.28 15.7992 13.2009 15.8564 13.1699C15.9159 13.139 16.0108 13.1033 16.0702 13.0938C16.1298 13.0842 16.3968 13.0767 16.6659 13.0791Z" fill="black"/>
</svg>
