<svg width="24" height="24" viewBox="0 0 24 24" fill="none" xmlns="http://www.w3.org/2000/svg">
<path d="M5.18412 4.50413C6.23943 3.98357 7.55281 3.41529 8.69959 3.24613C10.5133 2.97859 11.8854 2.919 13.6496 3.11761C14.0415 3.16173 14.3095 3.21173 15.1144 3.44649L15.2059 3.47433C17.2699 4.10296 18.8893 4.59618 19.3195 4.94925C19.7753 5.32336 21.0139 5.75582 22.2381 7.67871C22.7297 8.4507 23.2078 10.1208 22.9059 11.5912C22.6886 12.6493 22.3324 13.9159 21.4787 14.2933C20.7499 14.6155 19.556 14.421 18.959 15.2778C18.8388 15.4503 18.8123 15.6744 18.8562 15.9417C19.0439 17.085 19.4487 18.3635 19.827 18.9841C20.1639 19.5368 21.4536 20.8269 20.9336 20.909C20.4917 20.9788 20.1577 20.745 19.8992 20.647C18.8689 20.2565 16.8684 19.2494 15.6565 18.4593C15.1729 18.144 14.8331 17.2676 12.8087 17.1121C11.5577 17.016 9.39666 17.0756 8.24339 17.0448C6.39524 16.9955 5.09265 16.9318 3.95733 15.7014C3.37753 15.073 2.76959 14.4009 2.23619 13.2807C1.47035 11.6723 0.980811 10.6371 1.00058 10.2515C1.08398 8.62467 1.35256 7.41019 1.80711 6.95371C2.31323 6.44544 3.31014 5.42852 5.18412 4.50413Z" fill="#83CEEB"/>
<path d="M10.999 2.50202C11.7547 2.47591 12.5112 2.49801 13.2636 2.57038C14.0271 2.64388 14.7777 2.79239 15.5146 3.00886C16.2242 3.21734 16.931 3.43697 17.6328 3.66999C18.3662 3.91357 19.0642 4.23349 19.7255 4.62897C20.3926 5.02796 20.9987 5.50631 21.5429 6.05964C22.0982 6.62435 22.5431 7.26721 22.875 7.98444C23.2091 8.7073 23.4005 9.46851 23.4423 10.2657C23.4837 11.0596 23.3854 11.8407 23.1464 12.5997C22.8878 13.4203 22.3879 14.0561 21.6591 14.4766C21.0707 14.8158 20.5121 15.1814 19.9833 15.5645C19.7889 15.7055 19.6835 15.8533 19.6308 16.0069C19.577 16.1641 19.5619 16.3717 19.6269 16.6514C19.7808 17.3125 20.022 17.9383 20.3535 18.5245C20.7172 19.1681 20.9596 19.8141 20.8388 20.3721C20.7998 20.5515 20.7093 20.7388 20.538 20.879C20.369 21.0168 20.171 21.0675 19.996 21.0772C19.6722 21.095 19.3112 20.9777 18.9609 20.8194C18.2811 20.5121 17.6104 20.1813 16.9541 19.8262C16.2879 19.4658 15.6508 19.0608 15.0419 18.6153C14.5166 18.231 13.9365 17.9755 13.3017 17.8458C12.623 17.7072 11.9344 17.6307 11.2353 17.6182C10.5034 17.6052 9.77082 17.5958 9.03901 17.588C8.28849 17.5799 7.5407 17.5361 6.79683 17.4551C5.99086 17.3674 5.24216 17.1097 4.55757 16.6895C3.88622 16.2772 3.30398 15.756 2.81733 15.126C2.34866 14.5189 1.94325 13.8682 1.60151 13.1798C1.26099 12.4936 0.986767 11.7851 0.7812 11.0567C0.561992 10.2795 0.523596 9.48543 0.668896 8.68464C0.815998 7.87425 1.1499 7.14865 1.66987 6.5196C2.16334 5.92298 2.73883 5.40624 3.38862 4.96784C4.01941 4.54233 4.68042 4.1646 5.37007 3.84187C6.05753 3.52025 6.7665 3.25182 7.49214 3.03425C7.84152 2.9295 8.1043 2.85032 8.27925 2.79792C8.36656 2.77177 8.43265 2.75146 8.47651 2.73835C8.49823 2.73186 8.51711 2.728 8.52827 2.72468C8.53306 2.72323 8.53801 2.72165 8.54097 2.72077H8.54487L8.54976 2.71687H8.55854C8.56072 2.71639 8.5709 2.71405 8.58003 2.71198C8.58696 2.71043 8.60257 2.70517 8.61421 2.70319C8.65349 2.69924 9.05874 2.8301 9.24604 3.16804C9.12407 2.89574 8.81757 2.70895 8.75972 2.69929C8.73835 2.69736 8.70599 2.69543 8.69526 2.69538C8.6785 2.69556 8.66357 2.69912 8.66108 2.69929H8.6396C8.64541 2.69856 8.65724 2.69698 8.66987 2.69538C8.6948 2.69222 8.73195 2.68799 8.7812 2.68171C8.88284 2.66874 9.03767 2.6482 9.24116 2.62214C9.67304 2.56687 10.2621 2.52752 10.999 2.50202ZM11.0371 3.60163C10.3117 3.62673 9.76075 3.66405 9.37886 3.71296C9.17704 3.73881 9.02549 3.76052 8.92378 3.77351C8.88127 3.77893 8.84523 3.77913 8.82026 3.7823C8.81196 3.78479 8.80131 3.79161 8.78999 3.79499C8.74639 3.80802 8.67893 3.82484 8.59272 3.85065C8.41773 3.90307 8.15553 3.98237 7.80659 4.08698C7.13195 4.28926 6.47336 4.53971 5.83393 4.83894C5.19636 5.13735 4.58693 5.48567 4.00386 5.87897C3.44029 6.25919 2.94663 6.70598 2.52143 7.2198C2.12287 7.70168 1.8659 8.25474 1.7519 8.88288C1.63649 9.52021 1.66493 10.1425 1.83784 10.7559C2.02468 11.4184 2.275 12.063 2.58589 12.6895C2.89554 13.3135 3.2611 13.9013 3.6855 14.4512C4.09221 14.9781 4.57686 15.411 5.13374 15.753C5.67754 16.0866 6.27075 16.2891 6.91694 16.3594C7.62495 16.4365 8.338 16.4806 9.05268 16.4883C9.78657 16.4963 10.5228 16.5046 11.2568 16.5176C12.0228 16.5314 12.7799 16.6153 13.5253 16.7676C14.3156 16.9293 15.0389 17.2521 15.6914 17.7296C16.2601 18.1457 16.8557 18.5225 17.4785 18.8594C18.1116 19.2019 18.7564 19.522 19.4121 19.8184C19.5479 19.8798 19.6624 19.9164 19.7519 19.9425C19.7215 19.762 19.6319 19.4782 19.3994 19.0665C19.0159 18.3882 18.7342 17.6632 18.5566 16.9005C18.4565 16.4698 18.4517 16.0458 18.5869 15.6505C18.7237 15.2509 18.9889 14.9236 19.3388 14.67C19.899 14.2642 20.4899 13.8844 21.1093 13.5274C21.5882 13.2514 21.9134 12.8409 22.0937 12.2686C22.2933 11.6349 22.3771 10.9886 22.3427 10.3262C22.3084 9.66755 22.1545 9.04046 21.8789 8.4444C21.6002 7.84214 21.2287 7.30312 20.7617 6.82819C20.2835 6.34206 19.7494 5.92518 19.163 5.57429C18.5705 5.2199 17.943 4.93339 17.2851 4.71491C16.5955 4.48594 15.9024 4.26645 15.205 4.06159C14.5353 3.86486 13.8537 3.73293 13.1601 3.66608C12.455 3.59823 11.7453 3.57715 11.0371 3.60163Z" fill="black"/>
<path d="M16.7834 11.6907L16.8938 11.7014C17.1446 11.7525 17.3333 11.9745 17.3333 12.2405C17.3333 12.5064 17.1446 12.7284 16.8938 12.7795L16.7834 12.7903H6.49829C6.19453 12.7903 5.94849 12.5442 5.94849 12.2405C5.94849 11.9367 6.19453 11.6907 6.49829 11.6907H16.7834Z" fill="black"/>
<path d="M6.30029 8.82959C6.90214 8.82959 8.37884 8.86273 10.2856 8.93408H10.2964L10.3081 8.93506C11.3274 9.01618 12.1691 9.06328 13.1704 9.08057H13.1782C13.5312 9.09184 13.8203 9.10994 14.0991 9.13916L14.3765 9.17236L14.4849 9.19775C14.7265 9.28168 14.8842 9.52705 14.8491 9.79053C14.8139 10.0539 14.5975 10.2485 14.3423 10.2661L14.231 10.2632L13.731 10.2104C13.555 10.197 13.3645 10.1872 13.1431 10.1802V10.1792C12.1197 10.1614 11.2584 10.1137 10.2271 10.0317C8.33117 9.96093 6.87882 9.9292 6.30029 9.9292C5.99654 9.9292 5.75049 9.68315 5.75049 9.37939C5.75049 9.07564 5.99654 8.82959 6.30029 8.82959Z" fill="black"/>
</svg>
