<svg width="26" height="25" viewBox="0 0 26 25" fill="none" xmlns="http://www.w3.org/2000/svg">
<path d="M4.87398 19.4837C4.93903 19.5341 5.06305 19.7002 5.13939 19.7093C5.29311 19.7828 5.33591 19.9562 5.66672 20.1144C6.16295 20.4634 5.90501 20.2441 6.10414 20.4165C6.29677 20.5832 6.51438 20.6324 6.72344 20.761C7.11464 21.0015 7.4968 21.294 7.94517 21.4319C8.27478 21.5332 8.62149 21.6102 8.93099 21.7582C9.54042 22.0497 10.1986 22.1648 10.8689 22.2397C11.4634 22.3062 12.1046 22.2478 12.7036 22.2478C13.3663 22.2478 14.0345 22.2068 14.6858 22.0866C15.3026 21.9728 15.8723 21.8924 16.4594 21.6756C16.9806 21.4832 17.6091 21.3618 18.0982 21.0974C18.5403 20.8584 19.0217 20.645 19.4843 20.4427C20.1386 20.1564 20.7278 19.6589 21.1968 19.1472C21.6486 18.6542 21.9716 18.1287 22.2858 17.5456C22.641 16.8865 23.0257 16.2169 23.3348 15.5369C23.6832 14.7706 24.0384 13.998 24.3417 13.214C24.6844 12.3281 24.8202 11.3907 25.1169 10.4922C25.4545 9.46978 25.5558 8.36054 25.7446 7.307C26.0648 5.52064 25.9932 3.70682 25.9932 1.90164V1.0857C25.9932 1.01844 25.9714 0.961442 25.8963 1.03332C25.7158 1.2059 25.6005 1.48857 25.4055 1.63369C24.2201 2.5155 22.6957 2.90546 21.2115 2.97546C18.1135 3.12159 15.0131 2.78252 11.939 3.29781C10.5871 3.52441 9.20537 3.97063 8.16003 4.85313C7.21218 5.65333 6.28556 6.44548 5.56279 7.444C4.94131 8.30259 4.36197 9.15727 3.89659 10.1074C3.52502 10.866 3.23385 11.6554 2.99714 12.4625C2.69358 13.4977 2.65935 14.6685 2.82863 15.7344C2.97084 16.6298 3.4799 17.4434 3.94294 18.2185C4.10126 18.4835 4.28867 18.7869 4.51589 19.0042C4.66206 19.144 4.7144 19.3599 4.87398 19.4837Z" fill="#8EC685"/>
<path fill-rule="evenodd" clip-rule="evenodd" d="M24.7262 2.01462C23.5005 2.77449 22.0422 3.10663 20.6598 3.17195C19.5294 3.22537 18.3901 3.21445 17.2741 3.20375C16.8564 3.19975 16.4419 3.19577 16.0323 3.19522C14.5119 3.19316 13.0296 3.2371 11.5651 3.48303C10.2823 3.69844 9.04649 4.11219 8.1369 4.88148C7.19281 5.67994 6.334 6.4195 5.66929 7.33947C5.05997 8.18276 4.51123 8.99634 4.07385 9.89092C3.72388 10.6067 3.44715 11.3567 3.22038 12.1313C2.94835 13.0606 2.9137 14.1323 3.07005 15.1185C3.18507 15.8441 3.58934 16.5213 4.04572 17.2858C4.06243 17.3138 4.0792 17.3419 4.09603 17.3702C4.25794 17.6416 4.40493 17.8715 4.56065 18.0207C4.62692 18.0842 4.68233 18.1543 4.72644 18.2177C4.87967 18.0602 5.02653 17.9038 5.16939 17.7359C5.64826 17.1728 6.15835 16.6226 6.70483 16.1033C6.69664 16.0734 6.68579 16.0383 6.67171 15.9966C6.66459 15.9756 6.65463 15.9473 6.64328 15.9152C6.61669 15.8399 6.5825 15.7431 6.55956 15.6662C6.52159 15.5389 6.49665 15.4114 6.47746 15.3133C6.45641 15.2058 6.44131 15.1287 6.42151 15.0582C6.34243 14.7768 6.27997 14.4944 6.22201 14.2273C6.21681 14.2033 6.21165 14.1795 6.20652 14.1558C6.15336 13.9104 6.1032 13.6789 6.04356 13.4503C5.82732 12.6216 5.84084 11.7488 5.85275 10.9793C5.85537 10.8099 5.85792 10.6455 5.85792 10.4877C5.85792 10.1522 6.14182 9.88015 6.49203 9.88015C6.84224 9.88015 7.12614 10.1522 7.12614 10.4877C7.12614 10.6843 7.12357 10.875 7.12106 11.0607C7.11083 11.8197 7.10171 12.4957 7.27391 13.1556C7.34011 13.4093 7.39545 13.6649 7.44772 13.9063C7.45307 13.931 7.45838 13.9555 7.46367 13.9799C7.52178 14.2477 7.57768 14.4987 7.64612 14.7423C7.6791 14.8597 7.70225 14.9783 7.72032 15.0708C7.72151 15.0769 7.72269 15.0829 7.72384 15.0888C7.73139 15.1274 7.73825 15.1619 7.74487 15.1933C7.79624 15.1521 7.84791 15.1113 7.89988 15.0708C8.31031 14.7508 8.65245 14.4033 9.02374 14.0261C9.22947 13.8171 9.44415 13.599 9.68436 13.3715C10.0146 13.0587 10.3739 12.7613 10.7307 12.4765C10.7103 12.1511 10.7192 11.8174 10.727 11.5256C10.7306 11.3883 10.7341 11.2602 10.7341 11.1466V7.97197C10.7341 7.63642 11.018 7.3644 11.3682 7.3644C11.7184 7.3644 12.0023 7.63642 12.0023 7.97197V11.1466C12.0023 11.2572 12.0006 11.3632 11.9983 11.4654C12.9233 10.7172 13.8707 9.98598 14.8224 9.26831V5.67185C14.8224 5.3363 15.1063 5.06428 15.4565 5.06428C15.8068 5.06428 16.0907 5.3363 16.0907 5.67185V8.32042C16.2001 8.23922 16.3095 8.15817 16.4188 8.07728C16.6735 7.88884 16.9411 7.71583 17.1887 7.5557C17.2359 7.52518 17.2824 7.49513 17.3279 7.46553C17.6211 7.27487 17.8861 7.09606 18.1255 6.89605C18.2628 6.78141 18.3057 6.75323 18.4088 6.68683C18.4841 6.6383 18.624 6.54776 18.9846 6.29077C19.2656 6.09053 19.6629 6.14647 19.8718 6.41573C20.0808 6.68499 20.0224 7.0656 19.7414 7.26584C19.3668 7.53281 19.2105 7.63466 19.1164 7.69526C19.1092 7.69988 19.1028 7.70398 19.097 7.7077C19.049 7.73841 19.0404 7.74394 18.9589 7.812C18.6575 8.06382 18.3378 8.27742 18.04 8.47104C17.9891 8.50418 17.9389 8.53662 17.8896 8.56855C17.728 8.67309 17.5746 8.77233 17.4265 8.87384L18.4114 8.87385C18.5048 8.87385 18.5812 8.87538 18.6524 8.87681C18.7505 8.87878 18.8388 8.88055 18.9478 8.87783C19.1146 8.87367 19.2292 8.85797 19.307 8.83315C19.6392 8.72703 19.9983 8.89908 20.1091 9.21741C20.2198 9.53575 20.0403 9.87983 19.708 9.98594C19.4541 10.067 19.193 10.0873 18.9808 10.0926C18.8542 10.0957 18.699 10.0931 18.573 10.091C18.5091 10.0899 18.4527 10.089 18.4114 10.089L15.785 10.089C14.8359 10.8027 13.8945 11.5262 12.9768 12.2646C13.0673 12.2664 13.1575 12.2683 13.2473 12.2702L13.2505 12.2703C13.677 12.2793 14.0953 12.2881 14.5127 12.2881H15.3555C15.3562 12.2881 15.3589 12.288 15.3646 12.2877C15.3721 12.2874 15.3793 12.2869 15.39 12.2863L15.4019 12.2856C15.4314 12.284 15.4839 12.281 15.5404 12.2818C15.5952 12.2826 15.6803 12.287 15.7747 12.3103C15.8695 12.3338 16.0077 12.3848 16.1301 12.502C16.3777 12.7392 16.3777 13.1239 16.1301 13.3612C15.948 13.5356 15.6828 13.5818 15.4568 13.4998C15.4554 13.4999 15.4541 13.5 15.4527 13.5001C15.4447 13.5005 15.436 13.501 15.4277 13.5014C15.409 13.5023 15.384 13.5032 15.3566 13.5032H14.5127C14.0802 13.5032 13.6491 13.4941 13.226 13.4852L13.2225 13.4851C12.796 13.4761 12.3775 13.4673 11.96 13.4673C11.9613 13.4673 11.9621 13.4673 11.9621 13.4674C11.9622 13.4676 11.9465 13.4689 11.8822 13.4759C11.8263 13.482 11.7318 13.4922 11.6342 13.4926C11.5907 13.4927 11.5273 13.4914 11.4538 13.4809C11.1502 13.7243 10.8577 13.9689 10.5759 14.2357C10.4023 14.4002 10.2189 14.5858 10.0272 14.7799C9.79815 15.0117 9.55723 15.2555 9.30682 15.4898C10.0667 15.4537 10.7604 15.4063 10.9554 15.3713C11.0296 15.358 11.1102 15.3424 11.1958 15.3258C11.5688 15.2536 12.0361 15.1632 12.4747 15.1632C12.5015 15.1632 12.5381 15.1583 12.6447 15.1385C12.6493 15.1376 12.654 15.1367 12.659 15.1358C12.7471 15.1193 12.896 15.0913 13.0561 15.0913C13.4063 15.0913 13.6902 15.3634 13.6902 15.6989C13.6902 16.0345 13.4063 16.3065 13.0561 16.3065C13.03 16.3065 12.994 16.3113 12.8868 16.3313C12.8824 16.3321 12.8778 16.3329 12.8731 16.3338C12.7846 16.3504 12.6354 16.3784 12.4747 16.3784C12.1754 16.3784 11.87 16.4368 11.5091 16.5058C11.4072 16.5252 11.3009 16.5456 11.1891 16.5656C10.8564 16.6254 9.87453 16.6831 9.03592 16.7184C8.60298 16.7366 8.18391 16.7498 7.86999 16.7542C7.85468 16.7544 7.83954 16.7546 7.82459 16.7548C7.23182 17.2969 6.67684 17.8869 6.15255 18.5034C5.98485 18.7007 5.80785 18.8884 5.63432 19.0666C5.74893 19.1473 5.81444 19.1912 5.85075 19.2145C5.85873 19.2196 5.86474 19.2234 5.869 19.226C5.87486 19.2288 5.88147 19.232 5.88839 19.2355C5.94349 19.2638 5.98322 19.2936 6.00533 19.3111C6.02707 19.3283 6.05805 19.3552 6.08938 19.3824C6.0959 19.3881 6.10243 19.3938 6.1089 19.3994C6.13801 19.4246 6.17624 19.4484 6.26361 19.4896C6.2759 19.4954 6.29091 19.5023 6.30808 19.5101C6.38974 19.5475 6.52027 19.6071 6.63901 19.6803C6.76137 19.7556 6.86924 19.8255 6.96794 19.8894C7.24464 20.0685 7.44924 20.2009 7.69877 20.2778C7.75749 20.2959 7.82593 20.3153 7.90091 20.3366C8.1544 20.4085 8.4827 20.5017 8.76353 20.6362C9.26544 20.8767 9.82736 20.9813 10.4707 21.0534C10.8268 21.0933 11.1722 21.0825 11.5602 21.0703C11.7633 21.064 11.978 21.0573 12.2121 21.0573C12.8418 21.0573 13.4602 21.0181 14.0528 20.9086C14.1579 20.8891 14.2588 20.871 14.3563 20.8536C14.8576 20.7637 15.2694 20.69 15.6991 20.531C15.905 20.4549 16.1354 20.386 16.3429 20.324C16.4174 20.3017 16.489 20.2803 16.5553 20.2598C16.8286 20.1753 17.0537 20.0949 17.2367 19.9958C17.7008 19.7445 18.2003 19.5231 18.6561 19.3234C19.1913 19.0888 19.705 18.6639 20.1372 18.1915C20.5345 17.7573 20.8263 17.2867 21.1277 16.7264C21.2116 16.5704 21.2956 16.4166 21.3787 16.2644C21.6543 15.7595 21.9211 15.2709 22.1476 14.7718C22.1697 14.7231 22.1918 14.6744 22.2139 14.6257C22.5381 13.9118 22.8565 13.2105 23.1305 12.5011C23.2855 12.0997 23.3964 11.6795 23.5088 11.2272C23.5226 11.1715 23.5365 11.1152 23.5506 11.0583C23.6479 10.6638 23.7515 10.2437 23.8873 9.83157C24.1122 9.14927 24.2202 8.44621 24.3351 7.69747C24.3821 7.39157 24.4302 7.07805 24.488 6.7552C24.7455 5.31571 24.737 3.86076 24.7281 2.34572C24.7274 2.23568 24.7268 2.12532 24.7262 2.01462ZM3.83194 19.149C3.78907 19.0892 3.75794 19.0363 3.73682 19.0003L3.73221 18.9925C3.67368 18.8932 3.66318 18.8795 3.66333 18.8794C3.36976 18.5979 3.14615 18.2266 2.99491 17.973C2.96714 17.9265 2.93882 17.8792 2.91009 17.8313C2.4842 17.1205 1.9681 16.2591 1.81621 15.301C1.63763 14.1745 1.6707 12.9256 1.99929 11.8031C2.24085 10.978 2.5402 10.1633 2.9254 9.37542C3.40878 8.38678 4.00627 7.50629 4.62657 6.64779C5.39186 5.58861 6.36641 4.75805 7.29765 3.97046C8.45629 2.99053 9.95432 2.51984 11.3462 2.28612C12.9228 2.02137 14.4946 1.97798 16.0341 1.98007C16.4677 1.98065 16.8966 1.98476 17.3225 1.98885C18.4251 1.99941 19.5072 2.00978 20.5974 1.95827C21.981 1.89289 23.3485 1.52998 24.3868 0.756785C24.3879 0.755794 24.3964 0.748172 24.4125 0.728639C24.4345 0.702073 24.4594 0.667477 24.4956 0.614647C24.5019 0.605461 24.5089 0.595091 24.5166 0.583721C24.5784 0.492248 24.6839 0.336044 24.8146 0.210741C24.8599 0.167337 24.9636 0.0753404 25.1227 0.0283798C25.3336 -0.0338208 25.5893 0.00210728 25.7789 0.177161C25.919 0.306527 25.9599 0.456716 25.973 0.512841C25.9899 0.584881 25.993 0.649019 25.993 0.692273V1.50091C25.993 1.76998 25.9947 2.04171 25.9965 2.31556C26.0061 3.82837 26.0161 5.40618 25.738 6.96052C25.6915 7.22021 25.6492 7.49559 25.6055 7.78001C25.4852 8.56358 25.3543 9.41576 25.0967 10.1975C24.976 10.5637 24.8839 10.9367 24.7855 11.335C24.7713 11.3924 24.7571 11.4502 24.7425 11.5087C24.6296 11.9631 24.5039 12.4463 24.3199 12.9228C24.0331 13.6655 23.7011 14.3964 23.38 15.1036C23.3568 15.1546 23.3337 15.2055 23.3106 15.2563C23.0641 15.7996 22.7684 16.3409 22.4889 16.8527C22.4091 16.9988 22.3306 17.1425 22.255 17.2831C21.9347 17.8785 21.5875 18.4496 21.0909 18.9925C20.5952 19.5344 19.9431 20.0955 19.1837 20.4284C18.7243 20.6297 18.2713 20.8313 17.8607 21.0537C17.5599 21.2166 17.2322 21.3274 16.9447 21.4163C16.8507 21.4453 16.7628 21.4716 16.6794 21.4965C16.488 21.5537 16.3201 21.6039 16.1559 21.6646C15.6076 21.8674 15.0655 21.9638 14.5634 22.053C14.4719 22.0693 14.3817 22.0853 14.2931 22.1017C13.5972 22.2304 12.8935 22.2724 12.2121 22.2724C12.066 22.2724 11.8991 22.2774 11.7205 22.2827C11.2826 22.2956 10.7736 22.3107 10.3234 22.2603C9.64056 22.1839 8.90023 22.0603 8.19637 21.7231C8.02355 21.6403 7.85366 21.592 7.63334 21.5293C7.53693 21.5018 7.43087 21.4717 7.31068 21.4346C6.87032 21.299 6.46109 21.0318 6.15712 20.8333C6.08243 20.7845 6.01409 20.7399 5.95321 20.7024C5.90756 20.6743 5.86872 20.6564 5.79912 20.6243C5.77253 20.6121 5.74144 20.5977 5.70377 20.58C5.58416 20.5236 5.41948 20.4404 5.25804 20.3005L5.23973 20.2846C5.23595 20.2813 5.23249 20.2783 5.22932 20.2756C5.20247 20.2603 5.17477 20.2432 5.14475 20.2239C5.092 20.19 5.01923 20.141 4.91502 20.068C4.8583 20.0388 4.80708 20.009 4.7606 19.9791C4.62031 20.141 4.49073 20.3061 4.37311 20.4825C4.09621 20.8978 3.77383 21.2769 3.45744 21.6291C3.3367 21.7635 3.21999 21.8906 3.10613 22.0147C2.91041 22.2279 2.7231 22.432 2.53815 22.648C2.29085 22.9368 2.07986 23.2291 1.85138 23.5458C1.75827 23.6748 1.66225 23.8078 1.55969 23.9463C1.52859 23.9883 1.50081 24.0255 1.47599 24.0588C1.30667 24.2857 1.27532 24.3277 1.26638 24.439C1.23952 24.7736 0.934683 25.0239 0.585505 24.9982C0.236328 24.9724 -0.0249612 24.6804 0.00189859 24.3458C0.0402965 23.8675 0.30095 23.5326 0.463666 23.3236C0.48648 23.2943 0.507369 23.2674 0.525449 23.243C0.608347 23.1311 0.692968 23.0139 0.779792 22.8935C1.01904 22.562 1.27501 22.2073 1.55772 21.8772C1.75439 21.6475 1.96924 21.4133 2.17597 21.1879C2.28639 21.0675 2.39449 20.9496 2.49627 20.8363C2.8005 20.4977 3.0764 20.1702 3.30438 19.8283C3.46947 19.5807 3.64897 19.3566 3.83194 19.149ZM15.522 13.4968C15.522 13.4968 15.5225 13.4968 15.522 13.4968Z" fill="black"/>
</svg>
