<svg width="70" height="67" viewBox="0 0 70 67" fill="none" xmlns="http://www.w3.org/2000/svg">
<path d="M10.4263 50.1465C11.5966 50.1465 12.741 50.6905 13.9081 50.6905C15.3046 50.6905 16.712 50.9081 18.1273 50.9081C19.6929 50.9081 21.2585 50.9081 22.8241 50.9081C24.0482 50.9081 25.3219 51.0093 26.5295 50.8235C27.5188 50.6713 28.6849 50.7087 29.6849 50.6905C30.6292 50.6734 31.5754 50.6905 32.5199 50.6905C36.0051 50.6905 39.4796 50.7993 42.9592 50.7993C45.6069 50.7993 48.2545 50.7993 50.9021 50.7993C53.4306 50.7993 55.883 50.2281 58.3009 49.5481C59.6718 49.1625 61.2322 49.1672 62.6471 49.1672C63.7701 49.1672 64.6986 49.242 65.7601 49.6025C66.8316 49.9664 68.4142 51.005 67.9181 52.3831C67.105 54.6417 63.24 54.5009 61.3233 54.7405C59.7056 54.9427 58.1123 55.1516 56.4754 55.1516C55.7419 55.1516 55.0085 55.1516 54.2751 55.1516C53.6601 55.1516 52.9257 55.263 52.3286 55.0972C51.8299 54.9586 50.7501 54.9218 50.4669 55.4175C50.4056 55.5248 50.2847 55.583 50.2251 55.6956C49.9939 56.1323 50.5381 56.5753 50.7933 56.8925C51.8388 58.1918 53.1392 59.0287 54.8191 59.262C56.3046 59.4683 57.6767 59.7778 59.1048 60.2654" stroke="black" stroke-width="3" stroke-linecap="round"/>
<path d="M11.6233 49.1672C8.91682 49.1672 8.80989 52.1677 7.92388 54.0031C7.37022 55.1499 7.13806 55.7356 5.85052 56.0764C5.16742 56.2572 4.47267 56.3882 3.78925 56.566C3.35424 56.6793 2.54506 56.8431 2.21761 57.1705C1.80571 57.5824 2.01654 58.5292 2.53194 58.718C3.34661 59.0163 4.34949 58.8199 5.20373 58.9054C6.08488 58.9935 6.94601 59.1104 7.81507 59.2862C8.14435 59.3528 8.91312 59.4171 9.1691 59.6731C9.4345 59.9384 8.58858 61.0689 8.46791 61.2689C7.92831 62.1631 7.34854 63.0528 6.84187 63.9648C6.62125 64.362 6.50813 64.8366 6.18298 65.1617" stroke="black" stroke-width="3" stroke-linecap="round"/>
<path d="M13.0376 57.3278C13.912 57.2954 14.7734 57.219 15.655 57.219C17.9627 57.219 19.8715 58.769 21.8992 59.7094C22.9836 60.2124 24.6132 60.6257 25.7921 60.2172C26.5367 59.9592 27.1954 59.5486 27.9924 59.4435C28.9179 59.3214 29.8501 59.4301 30.773 59.5039" stroke="black" stroke-width="3" stroke-linecap="round"/>
<path d="M13.7993 50.6262C13.129 50.5592 13.3716 48.5422 13.0014 48.0914C12.5457 47.5363 12.1392 46.9749 11.7925 46.3444C11.3309 45.5053 11.4993 44.237 11.5144 43.316C11.5414 41.6729 13.7815 40.7915 15.2138 41.1399C15.2869 41.1576 16.0722 41.5151 16.0722 41.3817C16.0722 39.2523 14.8281 38.5516 18.3148 37.9059C19.0852 37.7633 20.3134 37.7017 20.9805 38.2021C21.9195 38.9064 22.939 40.3937 22.939 41.6355C22.939 42.1045 23.2101 41.6063 23.3743 41.4421C23.9393 40.8771 24.7436 40.4629 25.5504 40.4629C27.1917 40.4629 29.0641 40.4385 29.5218 42.3609C29.5481 42.4715 29.5297 43.043 29.6427 43.0682C30.119 43.174 30.7165 42.9621 31.1841 42.8808C31.9513 42.7474 32.9648 42.8172 33.4449 43.5155C34.1364 44.5213 34.5619 46.0109 34.5813 47.233C34.5873 47.6144 34.8152 49.6488 34.4725 49.8202" stroke="black" stroke-width="3" stroke-linecap="round"/>
<path d="M19.6746 37.5251C19.6746 35.6573 19.6746 33.7895 19.6746 31.9216C19.6746 31.707 19.7965 30.9415 19.6142 30.7852C19.156 30.3925 17.8071 30.6793 17.2567 30.6462C14.289 30.4677 11.3369 30.3249 8.4676 29.5279C8.3024 29.482 7.88115 29.4898 7.98402 29.3526C9.23689 27.6821 11.0993 26.5207 12.705 25.2361C13.1094 24.9126 13.5279 24.5976 13.9079 24.2448C14.1274 24.041 14.323 23.8056 14.5607 23.6222C14.6811 23.5293 15.0551 23.4879 14.9476 23.3804C14.8518 23.2845 14.4434 23.284 14.325 23.2716C12.0862 23.0359 10.0712 22.049 7.92357 21.7422C7.53283 21.6864 7.60576 21.5221 7.8329 21.2949C9.61437 19.5135 11.277 17.8268 13.6298 16.7916C13.9331 16.6581 15.9631 15.5783 15.9631 15.2743C15.9631 15.1457 14.7855 14.825 14.6695 14.7787C12.6615 13.9755 10.6739 13.1787 8.63686 12.4454C8.55525 12.416 7.8025 12.2159 7.8873 12.1069C12 9 14.6587 6.01737 17.9095 3.7953C18.475 3.40877 19.0474 2.99041 19.5416 2.51381C19.6722 2.38788 20.0845 1.94321 20.273 2.00605C20.6678 2.13764 21.0147 2.58514 21.3611 2.81605C22.1185 3.32098 22.8823 3.84328 23.4828 4.53276C25.4364 6.77581 29.5638 10.1996 30.7486 12.7174C30.8292 12.8886 28.5443 13.1396 28.3247 13.1466C26.8005 13.195 25.2933 12.935 23.8092 12.935C23.3415 12.935 26.8551 17.1679 27.3757 17.8071C27.9091 18.462 28.6501 19.1869 29.0924 19.9107C29.2169 20.1144 29.7815 20.7099 29.7815 20.9262C29.7815 21.0432 24.8298 21.3501 23.8697 21.5246C23.4499 21.6009 24.7419 23.1537 24.8973 23.3562C25.8599 24.6109 26.8611 25.7882 27.7202 27.1221C28.1589 27.8032 28.7345 28.4829 29.0863 29.2136C29.3167 29.692 29.5492 30.1745 29.8782 30.5857C29.9099 30.6253 28.5045 30.6704 28.3549 30.6704C27.1883 30.6704 26.0216 30.6704 24.855 30.6704C23.3363 30.6704 20.7608 30.7852 19.2502 30.7852" stroke="black" stroke-width="3" stroke-linecap="round"/>
<path d="M41.8711 49.9289C41.8711 48.0422 42.2414 46.0768 43.6362 44.6821C44.3836 43.9346 45.2648 43.5094 46.3321 43.5094C47.4346 43.5094 49.079 43.4144 49.8683 44.3859C50.1963 44.7895 50.6495 45.0865 51.0108 45.4679C51.2695 45.7409 51.3328 46.0687 51.7724 46.0059C52.6853 45.8755 53.6139 45.9031 54.547 45.9031C56.203 45.9031 57.9139 47.5715 58.4096 49.0585" stroke="black" stroke-width="3" stroke-linecap="round"/>
<path d="M54.3837 45.5767C54.3837 44.5974 54.3837 43.6181 54.3837 42.6389C54.3837 41.1019 54.1438 39.6041 54.0633 38.0751C53.9062 35.0894 53.2175 32.1228 53.1868 29.1228C53.1455 25.0684 53.1868 21.0095 53.1868 16.9607" stroke="black" stroke-width="3" stroke-linecap="round"/>
<path d="M48.9434 21.0952C49.443 21.6144 49.8605 22.2045 50.3578 22.7273C50.6417 23.0257 52.8198 26.1395 53 26.4999" stroke="black" stroke-width="3" stroke-linecap="round"/>
<path d="M58.083 25.5564C57.5 26 56.8555 26.8812 56.5597 27.1885C55.933 27.8397 54.5 29.5 53.5 30.5" stroke="black" stroke-width="3" stroke-linecap="round"/>
<path d="M53.5 35.5C55.2323 37.2323 60.2585 38.2598 62.3264 36.7089C63.5429 35.7965 66 33 63.7953 29.5277C63.2907 28.733 65.6994 27.3055 65.6994 25.2238C65.6994 23.3581 64.4945 22.1572 62.8765 21.5909C62.6947 21.5273 62.308 21.6087 62.1693 21.47C61.9689 21.2697 62.1754 20.6463 62.2176 20.4424C62.6148 18.5224 62.7672 16.532 61.7763 14.7361C61 13.3289 59.4233 12.92 58.0346 13.5151C57.9497 13.5515 58.0875 12.4001 58.1072 12.2819C58.7525 8.40981 51.8579 6.07497 50.7446 9.57389C50.6703 9.80753 50.8171 11.6876 50.6177 11.7319C49.5619 11.9665 48.3963 11.4139 47.3112 11.6775C45.1448 12.2036 42.9996 16.3952 45.4554 17.7766C45.6595 17.8914 46.2669 18.0992 46.0418 18.1635C41.48 19.4669 42.4296 24.0187 45.9451 25.2843C45.9992 25.3037 46.7414 25.6321 46.6946 25.6893C46.4203 26.0245 46.0383 26.2446 45.7879 26.6201C45.1926 27.5132 45.2439 29.1496 45.2439 30.1805C45.2439 31.3511 45.2339 32.2779 45.6791 33.3661C46.0939 34.3801 46.9744 35.664 47.964 36.1588C49.9192 37.1364 51.7168 36.0564 53.5131 35.4576" stroke="black" stroke-width="3" stroke-linecap="round"/>
<path d="M38.6072 49.1672C38.6072 43.7155 38.4984 38.2739 38.4984 32.8221C38.4984 31.2708 38.3896 29.6984 38.3896 28.1677C38.3896 27.356 38.2808 26.5753 38.2808 25.7739" stroke="black" stroke-width="3" stroke-linecap="round"/>
<path d="M38.5 36.5C37.7161 35.4983 36 33 34.4722 31.2144" stroke="black" stroke-width="3" stroke-linecap="round"/>
<path d="M43 22.4999C42.5 22.4999 40.9165 21.0161 40.457 20.6842C38.4754 19.2531 36.0561 19.6843 34.0314 20.8233C32.073 21.9249 30.5689 24.0741 30.205 26.2938C29.6416 29.7304 29.9517 34.4185 32.5141 36.981C34.008 38.4749 35 39.7011 36.951 40.4869C40.4384 41.0934 42.8114 40.0668 45.2444 37.6338C45.5708 37.3074 45.8973 36.981 46.2237 36.6545C46.449 36.4292 46.5676 36.1047 46.8765 36.0017" stroke="black" stroke-width="3" stroke-linecap="round"/>
</svg>
