<svg width="75" height="75" viewBox="0 0 63 75" fill="none" xmlns="http://www.w3.org/2000/svg">
<path fill-rule="evenodd" clip-rule="evenodd" d="M17.9166 0.496031C14.7204 0.0018394 11.899 -0.324502 8.55869 0.521338C6.28304 1.09758 5.43133 3.29902 5.06544 4.98531C4.76594 6.36561 4.69038 7.90217 4.6378 8.97143C4.62347 9.26284 4.61085 9.51958 4.59586 9.72895C4.43244 12.0122 4.46133 14.3443 4.48929 16.602C4.4998 17.4502 4.51017 18.2879 4.51017 19.1086C4.51017 19.541 4.5969 20.0265 4.68949 20.4531C4.78483 20.8924 4.90987 21.3702 5.02605 21.8141L5.0303 21.8303C5.15123 22.2924 5.26261 22.7189 5.34483 23.0979C5.43096 23.4948 5.46342 23.7462 5.46342 23.8767C5.46342 23.9209 5.46191 23.9429 5.45927 23.9812C5.45651 24.0212 5.45254 24.0789 5.44778 24.1982C5.44177 24.3486 5.43496 24.6234 5.49991 24.9151C5.60202 25.3736 5.89009 25.6517 6.07419 25.7888C6.2594 25.9267 6.44568 26.004 6.56761 26.0473C6.81422 26.135 7.07258 26.1781 7.25236 26.2027C7.44734 26.2293 7.63897 26.2452 7.77693 26.2559L7.85629 26.262C7.96963 26.2709 7.98158 26.2718 7.96916 26.2698C8.15342 26.2991 8.30548 26.3321 8.49011 26.3723C8.58149 26.3922 8.6809 26.4138 8.79609 26.4376C9.05856 26.4917 9.36119 26.5463 9.70549 26.571C9.68298 27.0698 9.68946 27.6377 9.70523 28.0617C9.7136 28.2869 9.72638 28.5256 9.74621 28.7261C9.63154 28.7417 9.51754 28.7591 9.40445 28.7786C9.26193 28.8031 9.12486 28.8109 8.90818 28.8232C8.84453 28.8269 8.77401 28.8309 8.69446 28.8358C8.39294 28.8545 7.96742 28.888 7.52797 29.0265C6.92786 29.2157 6.62118 29.6756 6.48524 29.9328C6.338 30.2113 6.25772 30.5022 6.20985 30.7151C6.15928 30.9399 6.1278 31.1583 6.10656 31.3205C6.09978 31.3723 6.09279 31.4284 6.08709 31.4742L6.07993 31.5314C6.07637 31.5595 6.07357 31.5807 6.07122 31.5973L6.06944 31.6096L6.06804 31.6187C5.79468 33.1506 5.79526 34.6849 5.79579 36.0856L5.79584 36.2696C5.79584 37.5259 5.81656 38.7787 5.83707 40.019L5.83717 40.0252C5.85777 41.2711 5.87813 42.5045 5.87813 43.7381V46.4344C5.87813 46.4797 5.87656 46.5371 5.87472 46.6045C5.86866 46.827 5.85964 47.1578 5.89434 47.515C5.76039 47.5117 5.6223 47.5078 5.48094 47.5038C4.57951 47.4783 3.54544 47.449 2.6117 47.5501C2.42431 47.5703 2.22792 47.6023 2.07784 47.6266L2.07639 47.6269C2.03707 47.6333 2.00095 47.6392 1.96902 47.6442C1.7896 47.6723 1.66956 47.6864 1.5665 47.6886C1.29815 47.6943 1.00833 47.7668 0.742213 47.9402C0.481863 48.1099 0.315477 48.3296 0.21304 48.5233C0.0290605 48.8713 0.00658909 49.2199 0.0013813 49.3853C-0.00476554 49.5804 0.0110183 49.7658 0.0208951 49.8751C0.0347462 50.0283 0.0352809 50.0338 0.0352974 50.0226C0.0352813 50.2062 0.0332092 50.4028 0.0310547 50.6073C0.0259173 51.0949 0.0203104 51.6271 0.0409841 52.1326C0.0543259 52.4588 0.105002 52.7671 0.142097 52.9928L0.144329 53.0064C0.185765 53.2586 0.211761 53.4218 0.220055 53.5772C0.381909 56.6103 0.582788 59.6356 0.783392 62.6553C1.02822 66.3407 1.18732 69.9907 1.18732 73.6624C1.18732 74.4011 1.78739 75 2.5276 75C3.26782 75 3.86789 74.4011 3.86789 73.6624C3.86789 69.9145 3.70549 66.2026 3.45809 62.4784C3.2573 59.4559 3.0576 56.4478 2.89683 53.4349C2.88022 53.1238 2.83136 52.8272 2.79533 52.6086L2.78958 52.5736C2.74904 52.3268 2.72526 52.1688 2.71932 52.0235C2.7015 51.5879 2.70603 51.1719 2.71094 50.7198C2.71264 50.563 2.71439 50.402 2.71528 50.2342C2.77918 50.2245 2.83825 50.2164 2.90067 50.2097C3.64981 50.1286 4.3677 50.1499 5.17267 50.1738C5.58799 50.1862 6.0269 50.1992 6.50483 50.1992C7.9868 50.1992 9.43236 50.2557 10.9018 50.3771C12.8305 50.5365 14.7671 50.5326 16.6357 50.5288C16.9176 50.5282 17.198 50.5277 17.4765 50.5277L17.7963 50.5276C19.3541 50.527 20.8417 50.5265 22.3244 50.6507C23.5893 50.7567 24.8965 50.8562 26.2264 50.8562C28.869 50.8562 31.5282 50.9826 34.2094 51.11L34.222 51.1106C34.7371 51.1351 35.253 51.1596 35.7697 51.1833C36.9168 51.2358 38.06 51.2496 39.1787 51.2619L39.3052 51.2633C40.3872 51.2751 41.4457 51.2866 42.5013 51.3295C43.0623 51.3524 43.6295 51.4134 44.2408 51.4837L44.4267 51.5052C44.9715 51.5683 45.5553 51.6359 46.1435 51.6745C48.0732 51.8011 50.0177 51.8169 51.9139 51.8323C52.3969 51.8362 52.8767 51.8401 53.3524 51.8458C53.5599 54.0352 53.7003 56.1719 53.6867 58.3338C53.6826 59.0002 53.6652 59.7062 53.6474 60.426C53.6205 61.5199 53.5927 62.6475 53.6091 63.7233C53.6251 64.7656 53.6555 65.7719 53.6855 66.7667C53.7276 68.162 53.769 69.5347 53.769 70.9524C53.769 71.6911 54.3691 72.29 55.1093 72.29C55.8495 72.29 56.4496 71.6911 56.4496 70.9524C56.4496 69.5227 56.4058 68.0516 56.3627 66.6046C56.3331 65.6122 56.3039 64.6311 56.2894 63.6824C56.2733 62.6282 56.2987 61.6288 56.325 60.6001C56.3435 59.8747 56.3623 59.1347 56.3672 58.3505C56.3817 56.0386 56.2296 53.7793 56.0138 51.5178C55.9923 51.2923 55.9421 51.0808 55.9146 50.9645L55.9074 50.9342C55.8919 50.868 55.8833 50.8289 55.8773 50.7964L55.8743 50.7791L55.873 50.7707C55.8718 50.762 55.8715 50.7583 55.8715 50.7583C55.8416 50.2213 55.5738 49.7508 55.1357 49.4597C55.1418 48.7829 55.1577 48.1026 55.1739 47.4108L55.1741 47.4037L55.1741 47.4023C55.1946 46.5304 55.2154 45.6397 55.2154 44.7464C55.2154 44.3625 55.1104 43.9119 54.7734 43.5339C54.7309 43.4863 54.6872 43.4425 54.6426 43.4023C54.6506 42.5905 54.6727 41.7602 54.695 40.9183L54.695 40.9165C54.6979 40.8094 54.7007 40.7021 54.7036 40.5946C54.7075 40.446 54.7113 40.2971 54.7151 40.1479C55.3379 40.1354 55.9489 40.0084 56.3172 39.7852C57.0133 39.3634 57.2176 38.4403 57.2293 37.4703H60.6229C61.3631 37.4703 61.9631 36.8714 61.9631 36.1327C61.9631 35.3939 61.3631 34.7951 60.6229 34.7951H56.975C56.9617 34.6926 56.9496 34.5954 56.9394 34.5044L56.9395 34.4586L56.9398 34.3268C56.9398 34.186 56.9392 33.9883 56.9291 33.787C56.9198 33.6013 56.8995 33.3388 56.8392 33.09C56.8102 32.9704 56.7537 32.7736 56.6346 32.5722C56.5229 32.3831 56.2383 31.997 55.6884 31.875C55.2711 31.7825 54.8658 31.7605 54.5185 31.7563C54.4803 31.3016 54.4214 30.8321 54.3233 30.3623C54.2722 30.1174 54.2334 29.9631 54.2053 29.8514C54.1981 29.8226 54.1915 29.7966 54.1857 29.7727C54.4671 29.388 54.7046 29.0016 54.8642 28.7404C55.4186 27.8337 55.7114 26.8612 55.9319 26.0111C56.0001 25.7481 56.1536 25.4355 56.4029 25.0227C56.4695 24.9124 56.5534 24.7793 56.6445 24.6349C56.8327 24.3364 57.0515 23.9893 57.2116 23.6945C57.6256 22.9323 58.0708 22.0853 58.4166 21.1959C58.5067 20.964 58.6174 20.7035 58.7369 20.4226C59.0784 19.6194 59.4907 18.6496 59.6934 17.7083C59.8987 16.755 60.1564 15.8033 60.4269 14.8157L60.4707 14.6557C60.7249 13.7284 60.9882 12.7674 61.2082 11.7954C61.5126 10.4497 61.8836 9.13361 62.2653 7.77945C62.4012 7.29753 62.5384 6.81079 62.6744 6.31617C62.6834 6.28374 62.6926 6.25616 62.7085 6.20822L62.7089 6.20713C62.7242 6.16142 62.7456 6.09705 62.7787 5.9931C62.8313 5.82766 62.8996 5.5992 62.9455 5.35237C62.9892 5.11754 63.03 4.77921 62.9693 4.41623C62.9042 4.02765 62.7068 3.54273 62.225 3.19928C61.8086 2.90247 61.3324 2.83582 61.1143 2.8111C60.9035 2.78722 60.6723 2.78164 60.5609 2.77895C60.5395 2.77844 60.5225 2.77803 60.5109 2.77761C59.6508 2.74696 58.769 2.75444 57.9242 2.76161C57.5662 2.76465 57.2147 2.76764 56.8744 2.76764C55.5194 2.76764 54.1744 2.82183 52.8541 2.87503C52.5178 2.88858 52.183 2.90207 51.8502 2.91458C50.6679 2.95901 49.5429 2.92752 48.3704 2.8947C47.6349 2.87411 46.8807 2.853 46.0819 2.84977C43.5337 2.83947 41.0047 2.78833 38.4687 2.66876C36.4594 2.57402 34.8551 2.71995 33.7493 3.36815C33.144 3.72297 32.6985 4.22067 32.4378 4.84488C32.1896 5.43913 32.1436 6.0642 32.1759 6.64155C32.233 7.66422 32.5683 8.88478 32.9036 10.105L32.9825 10.3928C33.3603 11.7736 33.7655 13.3044 33.9959 15.0182C34.1447 16.1254 34.3228 17.2119 34.6284 18.3522C34.729 18.7278 34.8126 19.114 34.8998 19.5309L34.9348 19.6983C35.0097 20.0584 35.09 20.4435 35.1828 20.8261C35.2753 21.2075 35.3917 21.5778 35.493 21.9002L35.5184 21.9813C35.6304 22.3385 35.7229 22.6425 35.7889 22.9424C35.8489 23.2152 35.9088 23.4942 35.9697 23.7777L35.9708 23.7827C36.253 25.0969 36.556 26.5076 36.9821 27.8428C36.9952 27.8838 37.0085 27.926 37.0222 27.9696L37.0589 28.0865C37.1634 28.4199 37.2868 28.8135 37.4376 29.212C37.1626 29.4986 37.0176 29.9038 37.0782 30.327C37.186 31.08 37.2768 31.8273 37.3494 32.5734C37.1206 32.5677 36.917 32.5735 36.7552 32.5784C35.9408 32.6031 35.5646 33.2309 35.471 33.4063C35.3427 33.6466 35.2784 33.8978 35.242 34.0695C35.2241 34.1536 35.2085 34.2414 35.1947 34.3313H33.7381V31.5924H23.3636C23.3696 31.405 23.369 31.1976 23.3511 30.9921C23.3305 30.7561 23.2769 30.3787 23.0783 30.022C22.5743 29.1165 21.6628 28.9299 21.1793 28.8764C20.926 28.8484 20.6732 28.8449 20.4935 28.8424L20.4805 28.8422C20.271 28.8393 20.1562 28.8367 20.0674 28.8268C19.5872 28.7731 19.1074 28.7341 18.6295 28.706C18.6314 28.6666 18.6347 28.6203 18.6398 28.5664C18.6514 28.4448 18.6675 28.3258 18.6864 28.1861L18.7007 28.08C18.7211 27.9271 18.7529 27.6883 18.7529 27.4689L18.7531 27.4493L18.7536 27.4267C18.7556 27.3225 18.7603 27.0824 18.7335 26.8193C18.925 26.8081 19.116 26.7948 19.3066 26.7792C19.3068 26.7792 19.3075 26.7793 19.3091 26.7792C19.3176 26.7788 19.343 26.7777 19.3959 26.7763L19.4766 26.7743C19.5088 26.7735 19.5453 26.7726 19.5794 26.7717C19.6017 26.7711 19.6229 26.7706 19.6414 26.7701C19.832 26.7647 20.0822 26.7556 20.3337 26.733C20.5675 26.712 20.8827 26.6732 21.1732 26.5835C21.3147 26.5398 21.5337 26.4594 21.7474 26.3055C21.9655 26.1484 22.3004 25.8203 22.3725 25.2807C22.3905 25.1463 22.4152 24.9924 22.4423 24.8243C22.5239 24.3163 22.6266 23.678 22.6266 23.0509C22.6266 22.239 22.6256 21.4313 22.6246 20.6269C22.6183 15.4307 22.6122 10.3696 22.8718 5.18777C22.8718 5.18808 22.8717 5.18844 22.8718 5.18777C22.8721 5.18352 22.8743 5.15815 22.8818 5.10058C22.8895 5.04147 22.8995 4.97337 22.9123 4.88578L22.9147 4.86965C22.9409 4.6905 22.9763 4.44828 22.9984 4.20039C23.0198 3.96019 23.035 3.6538 23.0004 3.34814C22.9707 3.08579 22.8802 2.57345 22.481 2.15908C22.1469 1.81231 21.786 1.63326 21.4947 1.52223C21.3707 1.47498 21.247 1.43578 21.1603 1.40833L21.1421 1.40257C21.0434 1.37128 20.9777 1.34989 20.9152 1.32601C19.9995 0.976193 18.9503 0.655859 17.9166 0.496031ZM9.21795 3.11434C11.9985 2.41025 14.3594 2.65311 17.5062 3.13966C17.8031 3.18557 18.0696 3.22225 18.3085 3.25513C19.9168 3.47649 20.2711 3.52525 20.1945 5.05417C19.9312 10.3098 19.9376 15.4454 19.944 20.6373L19.944 20.6415C19.945 21.4431 19.946 22.246 19.946 23.0509C19.946 25.0729 16.479 24.5464 14.3043 24.2162C13.7742 24.1357 13.321 24.0669 13.0134 24.0494C12.0395 23.9943 11.0435 23.9378 10.0101 23.9083C8.59695 23.8681 8.24277 23.8134 7.96469 22.5317C7.86927 22.092 7.74413 21.6138 7.62787 21.1696L7.62386 21.1543C7.50293 20.6922 7.39154 20.2657 7.30931 19.8868C7.22317 19.4899 7.19074 19.2388 7.19074 19.1086C7.19074 18.2146 7.17982 17.3331 7.169 16.4604C7.14153 14.2433 7.11477 12.0831 7.26962 9.91955C7.29126 9.61716 7.3076 9.29148 7.32474 8.94989C7.3776 7.89606 7.43807 6.69085 7.68529 5.55148C8.02789 3.97255 8.57478 3.27721 9.21795 3.11434ZM51.8008 31.551L51.8034 31.5506C51.8465 31.9027 51.8723 32.2734 51.8908 32.6682C51.9006 32.8754 51.9086 33.1021 51.9169 33.3362L51.917 33.3388C51.9326 33.7802 51.9492 34.2516 51.9806 34.6867C52.1263 36.7055 52.0736 38.6402 52.0188 40.6553C51.9994 41.3676 51.9797 42.09 51.9684 42.8297C51.7504 42.7979 51.483 42.7651 51.2062 42.7612C49.7361 42.7402 48.2359 42.7273 46.7408 42.766C44.6068 42.8213 42.4905 42.774 40.3332 42.7257L40.2063 42.7229C40.1985 42.6278 40.1964 42.5 40.2024 42.326C40.2046 42.2638 40.2091 42.1764 40.2142 42.077C40.2252 41.865 40.239 41.5974 40.239 41.3976V36.8079C40.239 34.9409 40.1227 33.122 39.9079 31.2972C40.0468 31.3165 40.1808 31.3304 40.3048 31.3409C40.6413 31.3694 40.9807 31.3789 41.2456 31.3862L41.2948 31.3876C41.4377 31.3916 41.5519 31.3951 41.6475 31.4003C41.6941 31.4028 41.73 31.4053 41.7571 31.4078C41.7819 31.4101 41.7921 31.4116 41.7921 31.4116C42.4459 31.5204 43.1018 31.5404 43.6902 31.5439C43.8958 31.5451 44.0877 31.5444 44.2713 31.5438H44.2727C44.6479 31.5425 44.9879 31.5413 45.3378 31.5563C45.7961 31.576 46.2494 31.6202 46.7444 31.6684L47.0015 31.6933C47.5813 31.749 48.2134 31.8039 48.8651 31.8039C48.9563 31.8039 49.0764 31.8059 49.2113 31.8081C49.4876 31.8126 49.8269 31.8182 50.113 31.8101C50.5672 31.7971 51.127 31.7511 51.6654 31.5714C51.6723 31.5701 51.6833 31.5681 51.6992 31.5656C51.7076 31.5642 51.7164 31.5629 51.7258 31.5615C51.7465 31.5585 51.7704 31.5551 51.8008 31.551ZM35.5684 9.68814C35.9483 11.0764 36.3965 12.7568 36.6527 14.6625C36.7951 15.722 36.9551 16.6803 37.2179 17.661C37.3395 18.1146 37.436 18.5642 37.5238 18.9841L37.5603 19.159C37.6359 19.5216 37.7064 19.8598 37.7881 20.1965C37.8588 20.4881 37.9497 20.7776 38.0564 21.1179L38.0767 21.1825C38.1871 21.5347 38.3131 21.9411 38.4071 22.3688C38.4737 22.6714 38.5383 22.9718 38.6022 23.2688C38.6706 23.5867 38.7336 23.888 38.7932 24.1734C39.5473 27.7812 39.7698 28.8458 43.7059 28.8687C43.8571 28.8696 44.02 28.8691 44.1888 28.8686C44.5958 28.8673 45.0399 28.8659 45.4529 28.8836C45.9903 28.9067 46.5251 28.9589 47.0167 29.007L47.2581 29.0304C47.8313 29.0855 48.3525 29.1287 48.8651 29.1287C50.8637 29.1287 51.4937 29.1172 52.576 27.347C52.9156 26.7915 53.1304 26.1369 53.3369 25.3407C53.5062 24.6878 53.8284 24.1031 54.1072 23.6415C54.2384 23.4244 54.3517 23.2459 54.4538 23.0849C54.6038 22.8487 54.73 22.6497 54.855 22.4197C55.2641 21.6665 55.638 20.9473 55.9175 20.2283C56.075 19.8231 56.2283 19.4632 56.371 19.1283C56.6726 18.4204 56.9267 17.824 57.0727 17.1461C57.2956 16.111 57.5722 15.0924 57.8412 14.1103L57.8806 13.9666C58.1386 13.0251 58.3872 12.1176 58.5934 11.2061C58.9146 9.78681 59.3132 8.37271 59.7003 6.99949C60.1635 5.35666 60.1365 5.35725 58.8811 5.4109C58.6399 5.42121 58.3533 5.43346 58.0162 5.43635C57.6439 5.43955 57.2647 5.44281 56.8744 5.44281C55.5789 5.44281 54.3027 5.49416 52.9888 5.54703C52.6458 5.56083 52.3002 5.57474 51.9511 5.58786C50.7041 5.63472 49.3981 5.5995 48.1466 5.56576C47.4298 5.54643 46.7308 5.52759 46.0711 5.52492C43.4945 5.51451 40.9258 5.46276 38.3422 5.34095C34.3242 5.1515 34.5617 6.01741 35.4734 9.34122L35.5684 9.68814ZM40.4765 45.4263C40.3348 45.4199 40.1611 45.4121 39.9672 45.3935C39.5877 45.3851 39.2094 45.3768 38.8323 45.3692L38.8292 45.3978C38.8257 45.4306 38.822 45.4656 38.8183 45.4989C38.8107 45.5679 38.8 45.6608 38.7849 45.7498C38.6313 46.6556 38.6003 47.5841 38.5945 48.5798C38.7983 48.5823 39.0028 48.5846 39.2082 48.5869L39.3482 48.5884C40.4195 48.6001 41.5139 48.612 42.6104 48.6566C43.2812 48.6839 43.9368 48.7559 44.5479 48.8262L44.7316 48.8474C45.2861 48.9115 45.8019 48.9711 46.3193 49.0051C48.1644 49.1262 50.0091 49.1413 51.8959 49.1568L52.4582 49.1615C52.4658 48.5546 52.48 47.9513 52.4939 47.3563L52.4941 47.3482C52.508 46.7568 52.5216 46.1737 52.5291 45.5938C52.2445 45.5782 51.9842 45.5383 51.7882 45.5082L51.7715 45.5056C51.489 45.4624 51.3224 45.4383 51.1679 45.436C49.7035 45.4152 48.2485 45.403 46.8104 45.4403C44.8506 45.4911 42.8865 45.4576 40.9462 45.4153C40.8441 45.4335 40.7384 45.4401 40.6304 45.4338C40.6116 45.4327 40.5918 45.4317 40.5709 45.4306C40.5413 45.4292 40.5097 45.4277 40.4765 45.4263ZM37.5234 42.2337C37.5181 42.3868 37.5149 42.5647 37.5232 42.7559C37.0726 42.9016 36.7741 43.2251 36.6132 43.4775C36.4144 43.7892 36.3246 44.1265 36.2777 44.3407C36.226 44.577 36.1971 44.8114 36.1782 44.981L36.1697 45.059L36.1539 45.2056C36.1506 45.2356 36.1479 45.2587 36.1456 45.277L36.1429 45.2969L36.1419 45.3034C35.9581 46.3874 35.9207 47.4835 35.9138 48.5119L35.8926 48.5109C35.382 48.4875 34.8682 48.4631 34.3532 48.4386C31.6722 48.311 28.9387 48.181 26.2264 48.181C25.1506 48.181 24.0735 48.1093 22.9587 48.0188C22.9576 47.3985 22.9529 46.7839 22.9482 46.1739C22.9332 44.2104 22.9185 42.2932 23.0254 40.3767C23.1841 40.3608 23.3693 40.3346 23.5562 40.3082L23.6393 40.2964C24.663 40.1524 26.8858 39.8519 31.9178 39.8519C32.1701 39.8519 32.547 39.822 32.9126 39.6185C33.3529 39.3734 33.5915 38.985 33.6901 38.6161C33.7672 38.3274 33.7557 38.0556 33.7511 37.9461L33.7509 37.9412C33.7479 37.8688 33.7451 37.8209 33.743 37.7841C33.74 37.7329 33.7381 37.7012 33.7381 37.6475V37.0065H35.0897L35.0898 37.036V37.9394C35.0898 38.388 35.2711 38.8896 35.7293 39.2239C36.121 39.5096 36.5398 39.5421 36.7833 39.5328C37.0466 39.5228 37.2873 39.459 37.483 39.3796L37.5132 39.3671C37.528 39.3609 37.5431 39.3543 37.5585 39.3473V41.3976C37.5585 41.5446 37.5518 41.6624 37.5435 41.8089C37.5371 41.9231 37.5296 42.0555 37.5234 42.2337ZM20.268 46.2676C20.2721 46.8063 20.2763 47.3412 20.2778 47.8707C19.4469 47.8516 18.6246 47.852 17.8195 47.8524L17.4765 47.8525C17.1907 47.8525 16.9066 47.853 16.624 47.8536H16.62C14.7426 47.857 12.9297 47.8603 11.1229 47.7111C10.284 47.6418 9.45314 47.5926 8.62081 47.5622C8.61277 47.5169 8.60234 47.4717 8.58941 47.4265C8.54756 47.2803 8.5495 47.1658 8.55425 46.8852C8.55623 46.7685 8.5587 46.6229 8.5587 46.4344V43.7381C8.5587 42.4804 8.53796 41.2264 8.51745 39.9857L8.51737 39.981C8.49677 38.735 8.47641 37.5022 8.47641 36.2696L8.4764 36.1716C8.47629 34.7046 8.47619 33.3817 8.70708 32.0877C8.72093 32.0101 8.73172 31.9269 8.73927 31.8674L8.7491 31.7889C8.75398 31.7496 8.75863 31.7122 8.76452 31.6672C8.77165 31.6128 8.77896 31.5605 8.78665 31.5108C8.79959 31.5098 8.81286 31.5089 8.82645 31.508C8.83772 31.5073 8.84922 31.5065 8.86095 31.5058C8.89807 31.5035 8.94008 31.5012 8.98601 31.4987L8.98788 31.4986C9.21931 31.4861 9.54983 31.4682 9.8599 31.4149C10.8254 31.2487 11.8013 31.2697 12.8979 31.2933C13.3055 31.302 13.7297 31.3111 14.1763 31.3111C14.3966 31.3111 14.615 31.3108 14.8319 31.3104H14.8353C16.5442 31.3074 18.1544 31.3047 19.7688 31.4853C19.9996 31.5111 20.2408 31.5144 20.4112 31.5167L20.4427 31.5171C20.5367 31.5184 20.6154 31.5198 20.6838 31.5222C20.6831 31.5448 20.6821 31.5683 20.6809 31.5927C20.6806 31.5987 20.6803 31.6047 20.68 31.6108C20.6722 31.7651 20.6589 31.9215 20.6447 32.0898L20.6399 32.1467C20.626 32.3111 20.6076 32.5298 20.6076 32.7155V36.0323C20.6076 36.8806 20.5423 37.6733 20.4722 38.5257C20.436 38.9656 20.3984 39.4214 20.3679 39.909C20.2352 42.0282 20.2518 44.1773 20.268 46.2676ZM12.5074 28.6073C12.5007 28.432 12.4597 28.2638 12.3902 28.1102C12.388 28.0634 12.3859 28.014 12.384 27.9625C12.3798 27.8503 12.3767 27.7352 12.3746 27.6202C12.9779 27.7642 13.5724 27.7756 14.0707 27.7619C14.3132 27.7553 14.5578 27.7414 14.777 27.729L14.8894 27.7227C15.1469 27.7084 15.3689 27.6978 15.5749 27.6978H16.0475L16.0436 27.7266L16.0327 27.8075C16.0134 27.9494 15.9883 28.1338 15.9712 28.3146C15.962 28.4113 15.9537 28.5196 15.9496 28.6349C15.5729 28.6336 15.1992 28.6343 14.8293 28.6351C14.6102 28.6355 14.3925 28.636 14.1763 28.636C13.8636 28.636 13.5244 28.6284 13.1676 28.6205C12.9533 28.6157 12.7326 28.6108 12.5074 28.6073ZM23.6989 35.9572C23.69 35.3738 23.6482 34.8139 23.5936 34.2676H31.0576V37.1797C26.806 37.2095 24.6508 37.4578 23.5033 37.6144C23.5099 37.558 23.5175 37.4987 23.5259 37.4363C23.5465 37.2831 23.5668 37.1478 23.5877 37.0084L23.5879 37.0071C23.6024 36.9109 23.6171 36.8125 23.6325 36.7051C23.6615 36.5015 23.7027 36.2036 23.6989 35.9572ZM2.68062 49.4693C2.68109 49.4544 2.68219 49.4577 2.68051 49.4753L2.68062 49.4693ZM53.9765 51.8178C53.9859 51.8185 53.9833 51.819 53.9711 51.8175L53.9765 51.8178Z" fill="black"/>
</svg>
