<svg width="28" height="29" viewBox="0 0 28 29" fill="none" xmlns="http://www.w3.org/2000/svg">
<path d="M26.8235 12.1354C27.0207 12.9855 26.9416 13.5343 26.9416 14.4055C26.9416 14.762 26.8292 15.2299 26.7567 15.5821C26.6264 16.2148 26.5385 16.8233 26.3201 17.4428C26.1425 17.9466 26.0331 18.4892 25.8013 18.9718C25.5816 19.4293 25.3449 19.8766 25.1181 20.3298C24.6966 21.1721 24.1119 21.9013 23.6182 22.6984C22.8418 23.9518 22.1928 24.5453 21.1405 25.567C20.4061 26.2801 19.4447 26.6575 18.4801 26.9092C17.6757 27.1191 16.5359 27.3998 15.7088 27.3566C14.9861 27.3189 14.0338 27.7233 13.3268 27.5471C12.288 27.2883 11.2531 27.0604 10.25 26.679C9.71789 26.4767 9.19972 26.2396 8.66785 26.0363C7.8929 25.7401 7.23677 25.2528 6.55666 24.7872C5.64677 24.1642 4.62798 23.6574 3.80596 22.9109C3.25791 22.4132 2.73862 21.7396 2.31632 21.1279C1.56299 20.0368 1.05261 18.7707 0.780449 17.4739C0.533411 16.2968 0.636622 15.0554 0.636622 13.8587C0.636622 12.6035 0.751666 11.3581 0.94996 10.1191C1.259 8.18822 2.30977 6.69905 3.5029 5.21599C3.74183 4.919 4.00688 4.65494 4.30936 4.42298C4.72359 4.10533 5.09605 3.74851 5.4908 3.4071C6.13856 2.84687 6.8938 2.4254 7.67133 2.08543C8.7261 1.62423 9.74141 1.10428 10.8766 0.875184C11.9988 0.648719 13.1378 0.525939 14.2746 0.691186C15.1622 0.820225 15.9882 1.27414 16.8789 1.43754C17.6171 1.57298 18.3095 1.80313 19.0311 1.99731C19.6634 2.16743 20.4754 2.63736 21.1405 3.1834C22.0274 3.64403 22.3359 4.14134 22.8033 4.6507C23.2161 5.10053 23.6756 5.71825 24.0227 6.21662C24.4118 6.77532 24.607 7.13311 25.0203 7.6707C25.4668 8.25131 25.4926 8.89716 25.7859 9.56975C26.1523 10.41 26.6136 11.2305 26.8235 12.1354Z" fill="#A2CCE8"/>
<path fill-rule="evenodd" clip-rule="evenodd" d="M10.7549 0.272451C11.9098 0.0393914 13.1272 -0.0969505 14.363 0.0826966C14.8736 0.156924 15.3548 0.32281 15.7786 0.4711C15.795 0.47682 15.8112 0.482515 15.8274 0.488181C16.2486 0.635636 16.6154 0.764069 16.9898 0.832754C17.5444 0.934502 18.0907 1.09127 18.6055 1.23898C18.8059 1.29647 19.0015 1.35258 19.1909 1.40355C19.9199 1.59971 20.7856 2.10608 21.4814 2.66802C22.2709 3.09044 22.6813 3.5695 23.0269 3.973C23.1055 4.06475 23.1808 4.1526 23.2564 4.23498C23.6972 4.71537 24.1752 5.35975 24.5273 5.86525C24.7 6.11333 24.8261 6.30692 24.9415 6.48403C25.1141 6.74908 25.2627 6.97723 25.5078 7.29591C25.7971 7.67221 25.9412 8.06076 26.0477 8.4032C26.0799 8.50657 26.1077 8.60161 26.134 8.69144C26.2005 8.91863 26.2573 9.11256 26.3495 9.32401C26.432 9.5131 26.5256 9.71256 26.6231 9.92055C26.9191 10.5515 27.2519 11.2608 27.4225 11.9965C27.5926 12.73 27.579 13.2982 27.5647 13.8918C27.5606 14.0596 27.5565 14.2294 27.5565 14.4056C27.5565 14.7817 27.4573 15.2454 27.3893 15.5631C27.3781 15.615 27.3679 15.6631 27.359 15.7062C27.3328 15.8333 27.3076 15.9648 27.2817 16.0997C27.1879 16.5883 27.0857 17.1208 26.9 17.6473C26.8413 17.814 26.7926 17.9789 26.7389 18.1608C26.7169 18.2352 26.6941 18.3124 26.6694 18.3937C26.5888 18.6597 26.4926 18.9528 26.3556 19.2381C26.2141 19.5328 26.0613 19.8318 25.9128 20.1226C25.8289 20.2868 25.7464 20.4484 25.668 20.605C25.4391 21.0624 25.1697 21.4816 24.9054 21.8744C24.8294 21.9873 24.7547 22.0968 24.6813 22.2044C24.4929 22.4808 24.3128 22.7449 24.1409 23.0223C23.3744 24.2598 22.7111 24.9021 21.7763 25.8072C21.7086 25.8727 21.6395 25.9396 21.5689 26.0083C20.7214 26.8311 19.638 27.2426 18.6353 27.5043C17.8536 27.7083 16.6169 28.0199 15.6767 27.9708C15.446 27.9588 15.178 28.0077 14.816 28.0737C14.7535 28.0851 14.6882 28.097 14.6199 28.1092C14.2154 28.1814 13.6763 28.268 13.1781 28.1439C13.0207 28.1047 12.8617 28.0658 12.7015 28.0267C11.8275 27.813 10.9162 27.5903 10.0314 27.2538C9.75422 27.1485 9.48238 27.0347 9.22118 26.9253L9.21517 26.9227C8.95306 26.8129 8.70158 26.7076 8.44825 26.6108C7.69366 26.3224 7.03998 25.8695 6.45223 25.4624C6.36996 25.4054 6.28898 25.3493 6.2092 25.2946C5.91451 25.0929 5.61718 24.9095 5.30538 24.7173C5.1477 24.62 4.98632 24.5205 4.81971 24.4152C4.33971 24.1118 3.84356 23.7758 3.3925 23.3662C2.79218 22.8211 2.24132 22.1018 1.81022 21.4774C1.00518 20.3113 0.465494 18.9674 0.178565 17.6003C-0.0283523 16.6143 -0.00755447 15.5695 0.0112934 14.6227C0.0165352 14.3593 0.0216261 14.1036 0.0216261 13.8588C0.0216261 12.566 0.140117 11.2878 0.342692 10.022C0.679092 7.92014 1.8232 6.32281 3.02371 4.83058C3.29084 4.49854 3.59057 4.19927 3.9351 3.93506C4.20027 3.73171 4.43572 3.52131 4.69048 3.29365C4.81645 3.18108 4.94714 3.06429 5.08848 2.94204C5.7983 2.32814 6.61294 1.87708 7.42492 1.52205C7.60295 1.44421 7.78398 1.36253 7.96812 1.27946C8.82593 0.892457 9.75126 0.474997 10.7549 0.272451ZM14.186 1.2998C13.1484 1.14895 12.0877 1.25817 10.9982 1.47804C10.1433 1.65057 9.37053 1.9981 8.51894 2.38108C8.32332 2.46906 8.12353 2.5589 7.91764 2.64893C7.17455 2.97384 6.47872 3.36573 5.89302 3.87229C5.7839 3.96666 5.67 4.06835 5.55229 4.17344C5.27916 4.41728 4.98553 4.67943 4.68352 4.91102C4.4231 5.11073 4.19272 5.33958 3.98199 5.60152C2.79624 7.07541 1.83881 8.45642 1.55713 10.2164C1.36312 11.4286 1.25152 12.6412 1.25152 13.8588C1.25152 14.1588 1.24599 14.4509 1.24058 14.7364C1.22312 15.6582 1.20693 16.5124 1.38224 17.3476C1.63963 18.5741 2.12071 19.7624 2.82233 20.7786C3.23583 21.3775 3.72355 22.0055 4.21933 22.4557C4.59029 22.7926 5.01454 23.0833 5.47692 23.3756C5.61836 23.465 5.76665 23.5565 5.9181 23.65C6.24454 23.8514 6.58559 24.0618 6.90404 24.2798C6.9904 24.339 7.07488 24.3973 7.1579 24.4546C7.75785 24.8688 8.2815 25.2304 8.88735 25.4619C9.15892 25.5657 9.42568 25.6775 9.6821 25.7849L9.69638 25.7909C9.96025 25.9014 10.2135 26.0073 10.4684 26.1042C11.276 26.4113 12.1024 26.6136 12.9773 26.8278C13.1416 26.868 13.3076 26.9087 13.4755 26.9505C13.6843 27.0025 13.9748 26.975 14.4039 26.8985C14.4557 26.8892 14.5104 26.879 14.5674 26.8684C14.9165 26.8034 15.3521 26.7223 15.7408 26.7426C16.4547 26.7798 17.4977 26.5301 18.3248 26.3143C19.2513 26.0725 20.0906 25.7293 20.7121 25.1259C20.7789 25.061 20.8439 24.998 20.9072 24.9367C21.8456 24.0274 22.4108 23.4798 23.0954 22.3747C23.2825 22.0725 23.4856 21.7747 23.6794 21.4906C23.7495 21.3877 23.8185 21.2867 23.885 21.1878C24.1418 20.8062 24.3755 20.4396 24.5681 20.0546C24.6566 19.8778 24.7435 19.7079 24.8289 19.5406C24.9717 19.2613 25.1106 18.9895 25.2469 18.7057C25.3417 18.5083 25.4161 18.2888 25.4925 18.0368C25.5112 17.975 25.5306 17.9095 25.5506 17.8417C25.6075 17.6489 25.6699 17.4374 25.7401 17.2384C25.8923 16.8068 25.972 16.3934 26.0629 15.9219C26.0914 15.7738 26.121 15.62 26.1544 15.4581C26.1668 15.3975 26.1795 15.3374 26.192 15.2779C26.2617 14.9474 26.3267 14.6389 26.3267 14.4056C26.3267 14.1705 26.3312 13.9673 26.3354 13.783C26.348 13.2282 26.3566 12.8444 26.2244 12.2744C26.0856 11.676 25.8348 11.1409 25.556 10.5459C25.4473 10.314 25.3344 10.073 25.2222 9.81561C25.096 9.52641 25.008 9.22503 24.9357 8.97783C24.9136 8.90234 24.893 8.83189 24.8733 8.76839C24.7819 8.4746 24.6899 8.24992 24.5328 8.04561C24.2676 7.70074 24.0701 7.39921 23.8725 7.09765C23.7586 6.92392 23.6448 6.75017 23.518 6.56812C23.1759 6.07687 22.7349 5.48581 22.3502 5.06654L22.8033 4.65076L22.3502 5.06653C22.2403 4.94676 22.1441 4.83549 22.0536 4.73073C21.717 4.34102 21.4581 4.0414 20.857 3.72918L20.8 3.69955L20.7503 3.65875C20.1239 3.14453 19.3894 2.73062 18.8713 2.5912C18.6387 2.52863 18.4188 2.46547 18.2055 2.40423C17.7151 2.26342 17.2599 2.13273 16.7678 2.04246C16.2961 1.9559 15.8457 1.79794 15.448 1.65845C15.4226 1.64954 15.3974 1.64071 15.3724 1.63198C14.9387 1.4802 14.5631 1.35461 14.186 1.2998Z" fill="black"/>
<path d="M7.9392 2.165C8.99397 1.7038 10.0093 1.18385 11.1445 0.954756C12.0499 0.772033 15.3671 0.0697305 14.9816 1.45815C14.9219 1.67299 14.8124 1.98179 14.64 2.13573C14.4844 2.27471 14.3365 2.37796 14.1454 2.46295C13.9202 2.56309 13.5464 2.4959 13.3042 2.50096C12.9929 2.50747 12.6858 2.54415 12.3822 2.61169C12.2632 2.63814 12.2136 2.77968 12.1197 2.84967C12.0162 2.92677 11.8791 2.94987 11.7697 3.01824C11.5241 3.17176 11.2732 3.32151 11.0362 3.48758C10.9192 3.56956 10.8039 3.67888 10.6795 3.7487C10.557 3.81746 10.4822 3.99812 10.3834 4.09906C10.0645 4.42486 9.79208 4.80769 9.43952 5.0989C9.14123 5.34529 8.92953 5.70131 8.61511 5.92191C8.28287 6.15502 7.85691 6.17273 7.50637 6.35986C7.39774 6.41785 7.2604 6.40168 7.13959 6.41109C6.88109 6.43125 6.61824 6.45129 6.35892 6.45572C5.93818 6.4629 5.47668 6.4771 5.07184 6.58793C4.87756 6.64111 4.85512 6.74176 4.912 6.93333C5.014 7.27682 5.39225 7.47489 5.70276 7.61587C6.20808 7.84527 6.75988 7.64755 7.28428 7.75469C7.58566 7.81626 7.82955 7.99942 8.04139 8.20751C8.34281 8.50358 8.5235 8.92975 8.78336 9.26354C8.92981 9.45166 9.09662 9.43046 9.32343 9.43046C9.65195 9.43046 10.03 9.42936 10.3464 9.34122C10.6382 9.25993 10.9334 9.16228 11.2414 9.19413C11.5516 9.2262 11.8062 9.49713 12.0305 9.68992C12.2836 9.90743 12.4714 10.2056 12.7086 10.4419C13.3509 11.0819 14.0864 11.4288 14.9513 11.6632C15.4801 11.8065 16.0162 11.9997 16.4638 12.316C16.6873 12.4739 16.7826 12.7837 16.7431 13.0398C16.669 13.5204 16.5766 13.9862 16.4487 14.4561C16.3282 14.8985 16.2287 15.342 16.0701 15.7733C15.938 16.1326 15.7736 16.4422 15.5959 16.7766L15.5873 16.7929C15.4361 17.0775 15.3361 17.3884 15.239 17.6936C15.1058 18.1124 15.0656 18.5798 14.8688 18.9761C14.754 19.2075 14.6671 19.4651 14.4819 19.647C14.2086 19.9154 13.9482 20.1815 13.6928 20.4651C13.3078 20.8926 13.1813 21.4448 12.9508 21.9541C12.8515 22.1738 12.9206 22.5122 12.9206 22.7507C12.9206 22.9419 12.9392 23.1424 12.9189 23.3324C12.9 23.5088 12.6756 23.8111 12.4983 23.8547C12.4317 23.871 12.3464 23.858 12.2778 23.858C11.9751 23.858 11.8239 23.556 11.7226 23.3192C11.6453 23.1383 11.5642 22.9091 11.4232 22.7705C11.3529 22.7015 11.2761 22.5759 11.2314 22.4896C11.117 22.2693 10.9901 22.0354 10.8982 21.8054C10.771 21.487 10.5826 21.1792 10.4827 20.8518C10.3166 20.3082 10.3767 19.6937 10.3767 19.1314C10.3767 18.5594 9.79976 18.0843 9.44121 17.7019C9.02554 17.2586 8.73611 16.825 8.57305 16.2426C8.41022 15.661 8.34306 15.0693 8.26348 14.471C8.17982 13.8421 8.21439 12.8089 7.62582 12.3986C7.17889 12.087 6.73189 11.8352 6.3993 11.3971C6.07593 10.9712 5.69169 10.5621 5.41001 10.108C5.28437 9.9055 5.15985 9.66819 4.97257 9.51309C4.78867 9.36079 4.57834 9.25201 4.36352 9.14951C3.80434 8.88273 3.16837 9.10349 2.64404 9.328C2.39381 9.43513 2.13771 9.537 1.89366 9.65687C-0.0982494 10.6352 3.10822 6.1191 3.77077 5.29556C4.0097 4.99857 4.27475 4.73451 4.57723 4.50255C4.99146 4.1849 5.36392 3.82809 5.75867 3.48667C6.40643 2.92645 7.16167 2.50497 7.9392 2.165Z" fill="#8EC685"/>
<path fill-rule="evenodd" clip-rule="evenodd" d="M15.5164 0.759616C15.6548 1.04195 15.651 1.34483 15.5738 1.62268C15.5392 1.74728 15.4869 1.91193 15.4121 2.07552C15.3417 2.22946 15.2284 2.43455 15.0494 2.59443C14.8569 2.76625 14.6562 2.90866 14.395 3.02484C14.1458 3.13569 13.8729 3.13616 13.7161 3.13239C13.6413 3.1306 13.5653 3.12628 13.5036 3.12278C13.4925 3.12215 13.4819 3.12155 13.4718 3.12099C13.3978 3.11689 13.3508 3.11508 13.3167 3.11579C13.0927 3.12047 12.8716 3.14308 12.6528 3.1839C12.6204 3.22237 12.5648 3.28474 12.4869 3.34278L12.1194 2.84968L12.4869 3.34278C12.365 3.43357 12.2371 3.48383 12.1768 3.50754L12.1718 3.50948C12.1064 3.53524 12.0938 3.54097 12.0937 3.54078C12.0344 3.57782 11.9769 3.61343 11.9208 3.64817C11.7312 3.76551 11.5578 3.87284 11.3888 3.99124C11.3604 4.01114 11.3354 4.03098 11.2968 4.06158C11.2807 4.07439 11.2621 4.08908 11.24 4.10645C11.1884 4.14696 11.1172 4.20174 11.0341 4.25317C11.0318 4.25632 11.0293 4.2599 11.0264 4.26397C11.0184 4.27545 11.0104 4.28725 10.9997 4.30305L10.9966 4.30756C10.9853 4.32416 10.9709 4.34534 10.9556 4.36696C10.9264 4.40815 10.8812 4.46934 10.8226 4.52924L10.3831 4.09907L10.8226 4.52925C10.7167 4.63737 10.6204 4.74831 10.5108 4.87447C10.4712 4.92016 10.4297 4.96785 10.3855 5.01812C10.229 5.19606 10.0464 5.39498 9.83087 5.57304C9.73623 5.65121 9.65182 5.74739 9.52605 5.89069C9.51598 5.90216 9.50565 5.91393 9.49502 5.92603C9.36707 6.07163 9.19239 6.26792 8.96804 6.42533C8.71223 6.60481 8.43588 6.6902 8.24236 6.74766C8.21941 6.75447 8.19757 6.76092 8.17673 6.76708C7.99622 6.82039 7.89105 6.85146 7.79569 6.90236C7.62807 6.99185 7.46456 7.0106 7.36993 7.01718C7.32447 7.02034 7.28041 7.02132 7.25187 7.02195L7.24622 7.02208C7.21234 7.02284 7.19775 7.02337 7.18711 7.0242C6.93082 7.04418 6.64994 7.06579 6.36915 7.07059C6.24929 7.07264 6.13274 7.07534 6.02004 7.08007C6.12537 7.11307 6.25874 7.12224 6.46912 7.11643C6.50171 7.11553 6.53781 7.11408 6.57681 7.11251C6.79646 7.10369 7.10837 7.09117 7.40711 7.1522C7.88079 7.24898 8.22859 7.52967 8.47205 7.76882C8.67898 7.97208 8.83189 8.20708 8.94975 8.39642C8.9771 8.44036 9.00244 8.48156 9.02637 8.52045C9.09688 8.63509 9.15513 8.72979 9.21661 8.81621C9.2226 8.81619 9.22901 8.81615 9.23592 8.81609C9.2412 8.81605 9.24694 8.816 9.25303 8.81594C9.27383 8.81575 9.29869 8.81553 9.32316 8.81553C9.67041 8.81553 9.96041 8.81031 10.1811 8.74884L10.3461 9.34123L10.1811 8.74884C10.2072 8.74158 10.2354 8.7334 10.2657 8.72464C10.5155 8.65235 10.9012 8.54076 11.3044 8.58246C11.6172 8.61481 11.8639 8.76272 12.032 8.88618C12.1492 8.97231 12.2763 9.08582 12.3626 9.16299C12.3901 9.18755 12.4135 9.20843 12.4311 9.22357C12.6015 9.37001 12.7408 9.53559 12.8497 9.66767C12.8659 9.6873 12.8814 9.70615 12.8963 9.72432C12.9913 9.83991 13.0632 9.92744 13.1423 10.0062C13.687 10.5489 14.3156 10.8539 15.1118 11.0696C15.6662 11.2199 16.2836 11.4359 16.8184 11.8137C17.2728 12.1348 17.4174 12.7003 17.3506 13.1336C17.2738 13.6312 17.1771 14.1204 17.0418 14.6177C17.0151 14.7157 16.9883 14.8188 16.9605 14.9255C16.8731 15.2618 16.7767 15.6327 16.647 15.9855C16.5004 16.3843 16.3192 16.7253 16.1462 17.051L16.1388 17.0651L16.1388 17.0651L16.1301 17.0814L16.1301 17.0814C16.0091 17.3092 15.9242 17.5674 15.8247 17.8801C15.7834 18.0101 15.7546 18.1382 15.7195 18.294C15.7063 18.3527 15.6922 18.4155 15.6762 18.4837C15.6228 18.7112 15.5508 18.9848 15.4194 19.2495C15.3975 19.2937 15.3764 19.3398 15.3502 19.3973L15.3451 19.4084C15.3181 19.4674 15.2857 19.5382 15.2493 19.6096C15.1767 19.7518 15.0731 19.9281 14.9125 20.0858C14.6448 20.3488 14.3938 20.6054 14.1495 20.8766C14.0227 21.0174 13.9266 21.1914 13.8295 21.4197C13.7866 21.5205 13.747 21.623 13.7029 21.7373C13.6964 21.7541 13.6899 21.7711 13.6832 21.7885C13.6342 21.9152 13.5795 22.0547 13.5166 22.1948C13.5161 22.1976 13.5155 22.2016 13.515 22.2068C13.5122 22.2315 13.5108 22.2688 13.5127 22.3243C13.5145 22.3745 13.5181 22.4255 13.5227 22.4882L13.5244 22.5125C13.5292 22.5795 13.5352 22.6661 13.5352 22.7507C13.5352 22.777 13.5364 22.8152 13.5378 22.8613C13.5421 23.0046 13.5487 23.2239 13.53 23.398C13.5026 23.6535 13.3611 23.8828 13.2521 24.0223C13.1886 24.1034 13.111 24.1865 13.0213 24.2587C12.9377 24.3259 12.8094 24.4114 12.6446 24.4519C12.5262 24.481 12.4185 24.4787 12.369 24.4771C12.3462 24.4764 12.3223 24.4751 12.3074 24.4743L12.2998 24.4739C12.2827 24.473 12.2779 24.4729 12.2776 24.4729H12.2776C11.8893 24.4729 11.6177 24.2684 11.4536 24.073C11.3015 23.892 11.2088 23.6824 11.1569 23.561L11.7224 23.3192L11.1569 23.561C11.1396 23.5206 11.1255 23.4864 11.1128 23.4558C11.0884 23.3969 11.0695 23.3511 11.0441 23.2992C11.0133 23.2363 10.9949 23.2131 10.9921 23.2095C10.9916 23.209 10.9916 23.2089 10.992 23.2092C10.8494 23.0692 10.7364 22.8714 10.6853 22.7729C10.6706 22.7446 10.6551 22.715 10.6391 22.6843C10.5397 22.4944 10.4184 22.2626 10.3269 22.0335C10.2843 21.9269 10.2346 21.8242 10.1744 21.6995C10.1588 21.6671 10.1424 21.6333 10.1253 21.5976C10.0483 21.4367 9.95869 21.2425 9.89425 21.0315C9.78731 20.6813 9.75852 20.3272 9.75229 20.0107C9.74889 19.8378 9.75311 19.6291 9.75687 19.4427C9.75924 19.3253 9.76144 19.2167 9.76144 19.1314C9.76144 19.0536 9.72044 18.9281 9.56152 18.728C9.45236 18.5905 9.34233 18.4797 9.21782 18.3544C9.14801 18.2841 9.07365 18.2093 8.99234 18.1225C8.53116 17.6307 8.17787 17.113 7.9806 16.4084C7.82244 15.8435 7.7476 15.2705 7.67862 14.7424C7.67025 14.6782 7.66196 14.6148 7.65362 14.5521C7.63618 14.4209 7.62295 14.2702 7.61056 14.1289C7.60656 14.0834 7.60265 14.0388 7.59871 13.9962C7.5814 13.8089 7.56168 13.6329 7.53005 13.47C7.46198 13.1195 7.36307 12.9652 7.27388 12.9031C7.20868 12.8576 7.13809 12.8105 7.06383 12.7608C6.70034 12.5179 6.24874 12.2161 5.90925 11.769C5.80366 11.6299 5.69525 11.4978 5.57839 11.3553C5.52445 11.2896 5.46871 11.2217 5.41062 11.1499C5.23493 10.9326 5.04884 10.6928 4.88718 10.4322C4.85473 10.3799 4.82652 10.3337 4.80148 10.2927C4.6994 10.1255 4.64999 10.0446 4.58006 9.98672C4.45874 9.88625 4.30773 9.80439 4.09844 9.70454C3.81914 9.57128 3.43466 9.65832 2.88581 9.89332C2.81412 9.92401 2.74551 9.95286 2.67919 9.98075C2.49568 10.0579 2.32969 10.1277 2.16447 10.2089C2.01667 10.2814 1.86751 10.3415 1.72162 10.3763C1.58326 10.4093 1.39231 10.4332 1.19313 10.3716C0.961477 10.2999 0.78928 10.134 0.702099 9.92375C0.627196 9.74307 0.628665 9.56487 0.641481 9.44078C0.667188 9.19188 0.766611 8.92015 0.874832 8.67535C0.988853 8.41744 1.13819 8.13392 1.30287 7.84633C1.95699 6.70406 2.94345 5.34255 3.29136 4.9101C3.55848 4.57807 3.85821 4.27879 4.20274 4.01459C4.46791 3.81124 4.70337 3.60083 4.95812 3.37317C5.08409 3.2606 5.21479 3.14381 5.35612 3.02157C6.06594 2.40766 6.88058 1.9566 7.69256 1.60157C7.87059 1.52373 8.05162 1.44206 8.23576 1.35898C9.09357 0.971982 10.0189 0.554521 11.0226 0.351975C11.0446 0.347535 11.0683 0.34273 11.0935 0.337604C11.5727 0.240398 12.6204 0.0278635 13.5298 0.00257875C13.9907 -0.0102367 14.5222 0.0195242 14.932 0.210915C15.1503 0.312891 15.3805 0.482562 15.5164 0.759616ZM5.23116 7.18188C5.23115 7.18187 5.23158 7.18173 5.23247 7.18148C5.23162 7.18175 5.23118 7.18188 5.23116 7.18188ZM11.7387 2.35811C11.7464 2.34831 11.7562 2.33603 11.7663 2.32381L11.7667 2.32323C11.8169 2.26219 11.9727 2.07273 12.2484 2.01142C12.5921 1.93498 12.9396 1.89351 13.291 1.88616C13.378 1.88434 13.4686 1.88903 13.5399 1.89298C13.5529 1.8937 13.5656 1.89441 13.5779 1.89511C13.6398 1.8986 13.6926 1.90158 13.7457 1.90285C13.8081 1.90435 13.8528 1.90282 13.8846 1.89928C13.8951 1.89811 13.9021 1.89693 13.9062 1.89615C14.022 1.84335 14.1149 1.77996 14.2302 1.67706C14.2287 1.67835 14.2289 1.67812 14.2305 1.67602C14.2362 1.66845 14.2604 1.6366 14.2936 1.56406C14.3288 1.48703 14.359 1.39779 14.3832 1.31322C14.2413 1.258 13.9686 1.22075 13.564 1.232C12.7653 1.2542 11.8102 1.44745 11.3231 1.54601C11.3032 1.55002 11.2841 1.55388 11.2659 1.55757C10.411 1.73009 9.63818 2.07763 8.78658 2.46061C8.59096 2.54858 8.39118 2.63843 8.18529 2.72845C7.4422 3.05336 6.74636 3.44526 6.16067 3.95181C6.05155 4.04619 5.93764 4.14788 5.81993 4.25296C5.54681 4.4968 5.25318 4.75895 4.95117 4.99055C4.69075 5.19025 4.46036 5.41911 4.24963 5.68104C3.93499 6.07214 2.98694 7.38044 2.37016 8.45751C2.28664 8.60337 2.21089 8.74205 2.1446 8.87123C2.17306 8.85923 2.20117 8.84742 2.22884 8.83579C2.2889 8.81055 2.34688 8.78618 2.40171 8.7627C2.90154 8.54869 3.78899 8.1942 4.62804 8.59451C4.84842 8.69965 5.11805 8.83536 5.36454 9.03949C5.61193 9.24438 5.78994 9.54464 5.8899 9.71326C5.90609 9.74057 5.92024 9.76443 5.9323 9.78387C6.05231 9.97733 6.19918 10.1691 6.36687 10.3764C6.41301 10.4334 6.46201 10.4932 6.51244 10.5547C6.63624 10.7056 6.76869 10.867 6.88881 11.0253C7.09297 11.2942 7.33914 11.4606 7.68837 11.6967C7.77759 11.757 7.87353 11.8219 7.97721 11.8941C8.4766 12.2423 8.65469 12.8097 8.73739 13.2356C8.78115 13.4609 8.80525 13.6868 8.82338 13.883C8.82876 13.9412 8.83353 13.9954 8.83801 14.0464C8.84959 14.1782 8.85926 14.2883 8.87278 14.3899C8.88131 14.4541 8.88962 14.5173 8.89783 14.5799C8.96867 15.1194 9.03205 15.6021 9.16495 16.0768C9.2938 16.5371 9.51936 16.8865 9.88952 17.2813C9.92563 17.3198 9.97391 17.3686 10.0292 17.4246C10.1765 17.5735 10.3737 17.773 10.5247 17.9632C10.7439 18.2392 10.9913 18.6373 10.9913 19.1314C10.9913 19.2818 10.9884 19.407 10.9855 19.5257C10.982 19.6768 10.9786 19.8175 10.982 19.9865C10.9872 20.2538 11.0114 20.4788 11.0705 20.6722C11.1061 20.7886 11.1607 20.912 11.2346 21.0664C11.2468 21.092 11.2599 21.1189 11.2735 21.147C11.3354 21.2748 11.4087 21.4264 11.469 21.5773C11.5353 21.7432 11.6235 21.9121 11.7246 22.1058C11.7416 22.1386 11.7591 22.172 11.7769 22.2063C11.7904 22.2324 11.8101 22.2666 11.8305 22.2976C11.8405 22.3128 11.8488 22.3242 11.8548 22.3319C11.8563 22.3339 11.8575 22.3353 11.8583 22.3363C11.9994 22.4764 12.0901 22.6386 12.1489 22.7588C12.1921 22.8471 12.2347 22.9499 12.2644 23.0215C12.2735 23.0435 12.2815 23.0627 12.2878 23.0775C12.2968 23.0986 12.3055 23.1183 12.3138 23.1367C12.3138 23.0976 12.3124 23.0572 12.3107 23.0098C12.3083 22.9426 12.3053 22.8616 12.3053 22.7507C12.3053 22.7161 12.3027 22.6709 12.2977 22.6005C12.2971 22.5931 12.2966 22.5854 12.296 22.5774C12.2916 22.5173 12.2861 22.4417 12.2836 22.3664C12.2783 22.212 12.278 21.9488 12.3903 21.7006C12.4402 21.5904 12.4859 21.4745 12.536 21.345C12.5422 21.329 12.5485 21.3127 12.5548 21.2962C12.5982 21.1836 12.646 21.0598 12.6977 20.9382C12.8177 20.6562 12.9774 20.3403 13.2356 20.0536C13.5021 19.7576 13.7719 19.4821 14.0507 19.2084C14.0754 19.1841 14.1078 19.1406 14.1537 19.0506C14.1765 19.0059 14.1989 18.9576 14.2263 18.8975L14.2329 18.8831C14.2573 18.8295 14.2865 18.7657 14.3178 18.7027C14.383 18.5711 14.4295 18.4128 14.4787 18.2029C14.4887 18.1605 14.4991 18.1141 14.5102 18.0648C14.5482 17.8955 14.5936 17.693 14.6527 17.5072L14.6548 17.5008C14.7491 17.2041 14.8639 16.8434 15.0439 16.5045C15.0439 16.5045 15.0439 16.5045 15.0439 16.5045L15.0526 16.4882L15.0526 16.4881C15.2326 16.1492 15.3772 15.8752 15.4927 15.5611C15.5997 15.27 15.6745 14.9827 15.7578 14.6624C15.7884 14.5448 15.8201 14.4228 15.8551 14.2946C15.9756 13.852 16.0636 13.4096 16.1351 12.9461C16.1386 12.9234 16.1365 12.8861 16.1237 12.8506C16.1156 12.8284 16.1078 12.8185 16.1057 12.8161C15.7457 12.5626 15.2921 12.3927 14.7902 12.2567C13.8567 12.0038 13.0143 11.6149 12.2743 10.8775C12.1479 10.7516 12.0329 10.6113 11.9411 10.4992C11.9271 10.4821 11.9137 10.4657 11.9008 10.4501C11.7932 10.3196 11.7121 10.2274 11.6294 10.1563C11.5929 10.1249 11.5475 10.0844 11.5079 10.049C11.4859 10.0294 11.4657 10.0114 11.4498 9.99735C11.3943 9.94854 11.3475 9.90941 11.3038 9.87736C11.211 9.80914 11.1753 9.80556 11.1779 9.80583C11.025 9.79002 10.8751 9.83191 10.5779 9.91498C10.5564 9.92098 10.5342 9.9272 10.5111 9.93362C10.1091 10.0456 9.6559 10.0455 9.34636 10.0454L9.32316 10.0454C9.3149 10.0454 9.30403 10.0456 9.29097 10.0458C9.20978 10.0471 9.04427 10.0498 8.89884 10.0198C8.67142 9.97297 8.4635 9.8541 8.29785 9.64132C8.1696 9.47658 8.05494 9.28953 7.96233 9.13844C7.94237 9.10589 7.92344 9.075 7.90562 9.04637C7.79282 8.86516 7.70468 8.73904 7.61019 8.64623L8.04112 8.20752L7.61019 8.64623C7.42997 8.4692 7.28997 8.38357 7.16091 8.3572C7.02033 8.32848 6.88278 8.33321 6.66524 8.34068C6.61567 8.34238 6.56194 8.34423 6.50307 8.34585C6.22446 8.35355 5.83774 8.35264 5.44828 8.17583C5.28661 8.10243 5.06219 7.99487 4.85891 7.84173C4.6548 7.68798 4.42456 7.45304 4.32222 7.10839C4.29071 7.00227 4.21847 6.74467 4.3282 6.47613C4.45853 6.15721 4.74173 6.04066 4.9092 5.99482C5.39935 5.86064 5.93575 5.84792 6.34815 5.84087C6.58599 5.83681 6.83081 5.81835 7.09152 5.79802C7.13966 5.79427 7.18603 5.79322 7.21548 5.79256L7.21841 5.7925C7.24093 5.79199 7.25591 5.79161 7.26757 5.79115C7.46834 5.69184 7.67984 5.63044 7.83061 5.58667C7.85253 5.5803 7.87317 5.57431 7.8923 5.56863C8.08246 5.51217 8.18521 5.47216 8.26164 5.41853C8.35171 5.35533 8.44009 5.26332 8.57116 5.11416C8.58306 5.10062 8.59548 5.0864 8.60839 5.07162C8.72105 4.94261 8.87171 4.7701 9.04762 4.6248L9.43925 5.09892L9.04762 4.62479C9.18461 4.51164 9.31451 4.37355 9.46206 4.20581C9.49419 4.16928 9.52804 4.13028 9.56326 4.0897C9.67766 3.95789 9.80664 3.80928 9.93897 3.67371C9.9408 3.67136 9.94505 3.66581 9.9521 3.65586C9.9596 3.64528 9.96782 3.63326 9.97926 3.61642L9.98258 3.61153C9.99257 3.59682 10.0052 3.57821 10.0181 3.55968C10.0464 3.51925 10.0884 3.46116 10.1415 3.40318C10.1946 3.34508 10.2723 3.2719 10.3782 3.21247C10.3965 3.20223 10.4251 3.18257 10.4807 3.13898C10.4891 3.13232 10.4992 3.12434 10.5104 3.11542C10.556 3.07912 10.6215 3.0271 10.6831 2.98395C10.8837 2.84338 11.0969 2.71148 11.2914 2.5912C11.3437 2.55887 11.3946 2.52738 11.4435 2.49679C11.5057 2.4579 11.5646 2.42993 11.6105 2.41C11.6467 2.39423 11.685 2.37928 11.7095 2.36968C11.714 2.36794 11.718 2.36637 11.7215 2.36501C11.728 2.36245 11.7337 2.36015 11.7387 2.35811ZM1.8647 9.56885C1.86467 9.57178 1.86453 9.57334 1.86446 9.57339C1.8644 9.57343 1.86442 9.57197 1.8647 9.56885ZM1.42666 9.18189C1.42671 9.18182 1.4283 9.18149 1.43131 9.18111C1.42812 9.18178 1.42662 9.18196 1.42666 9.18189ZM14.4416 1.34197C14.4416 1.34198 14.4413 1.34176 14.4407 1.3413C14.4413 1.34174 14.4416 1.34197 14.4416 1.34197ZM11.7116 2.39223C11.7106 2.39334 11.7102 2.39385 11.7102 2.39383C11.7102 2.3938 11.7106 2.39324 11.7116 2.39223ZM12.7197 3.10089C12.7197 3.10091 12.7192 3.10145 12.7183 3.10244C12.7193 3.10136 12.7197 3.10086 12.7197 3.10089Z" fill="black"/>
<path d="M26.6648 12.1354C26.862 12.9855 26.7829 13.5343 26.7829 14.4055C26.7829 14.762 26.6705 15.2299 26.598 15.5821C26.4677 16.2148 26.3798 16.8233 26.1614 17.4428C25.9837 17.9466 25.8743 18.4892 25.6426 18.9718L25.6316 18.9946C25.4085 19.4596 25.29 19.7064 24.8417 19.4454C24.4956 19.244 24.1228 18.7637 23.986 18.4022C23.6717 17.5717 23.7448 16.6474 23.502 15.7957C23.4575 15.6396 23.4081 15.4274 23.2906 15.3077C23.1557 15.1703 22.9025 14.9871 22.8694 14.7844C22.7935 14.3206 22.8628 13.7882 22.8628 13.3171C22.8628 13.1553 22.8531 12.8855 22.9652 12.7551C23.0285 12.6813 23.0114 12.618 23.0114 12.5161V12.5153C23.0114 12.295 23.0114 12.1329 22.9156 11.9339C22.8235 11.7426 22.7383 11.5788 22.6067 11.4156C22.4548 11.2272 22.2832 10.9647 22.0319 10.9647C21.8013 10.9647 21.608 11.1059 21.4025 11.1935C21.0115 11.3603 20.6406 11.6265 20.2066 11.631C19.8369 11.6349 19.4567 11.6207 19.1246 11.4375C18.9568 11.3449 18.89 11.094 18.8042 10.9344C18.6806 10.7045 18.5344 10.5458 18.2904 10.4498C18.0537 10.3566 17.8301 10.2576 17.6198 10.1065C17.4169 9.96085 17.3568 9.65448 17.3191 9.41325C17.2225 8.79455 17.3122 8.06915 17.3984 7.4546C17.4668 6.96672 17.7262 6.55872 18.1913 6.40797C18.4079 6.33776 18.7152 6.37573 18.9429 6.35917C19.1933 6.34095 19.4479 6.26759 19.6416 6.10508C19.9389 5.85571 20.3252 5.59896 20.6691 5.42528C20.8749 5.32134 21.057 5.39735 21.2572 5.49931C21.5482 5.64755 21.9284 5.57335 22.2499 5.57335C24.0647 5.5218 23.8103 6.30351 24.8616 7.6707C25.3081 8.25131 25.3339 8.89717 25.6272 9.56975C25.9936 10.41 26.4549 11.2305 26.6648 12.1354Z" fill="#8EC685"/>
<path fill-rule="evenodd" clip-rule="evenodd" d="M21.5293 4.94773C21.5317 4.94893 21.534 4.95011 21.5363 4.95127C21.5521 4.95934 21.6032 4.97691 21.742 4.9769C21.8085 4.97689 21.8789 4.97328 21.9667 4.96851L21.9767 4.96797C22.0539 4.96376 22.1476 4.95866 22.2408 4.95834C22.7268 4.94512 23.1336 4.98476 23.4803 5.10705C23.8489 5.23703 24.1098 5.44615 24.3179 5.70034C24.4848 5.90419 24.6248 6.14899 24.7515 6.37061C24.7673 6.3982 24.7828 6.42543 24.7982 6.45217C24.9465 6.70983 25.1116 6.98685 25.3491 7.29578C25.6384 7.67208 25.7825 8.06063 25.889 8.40306C25.9212 8.50643 25.949 8.60146 25.9753 8.69129C26.0418 8.91849 26.0986 9.11242 26.1908 9.32387C26.2733 9.51297 26.3669 9.71244 26.4644 9.92043C26.7604 10.5514 27.0932 11.2607 27.2638 11.9963C27.434 12.7299 27.4203 13.298 27.406 13.8917C27.4019 14.0595 27.3979 14.2293 27.3979 14.4055C27.3979 14.7816 27.2986 15.2452 27.2306 15.563C27.2195 15.6149 27.2092 15.6629 27.2003 15.706C27.1741 15.8332 27.1489 15.9647 27.123 16.0995C27.0292 16.5881 26.927 17.1206 26.7413 17.6472C26.6826 17.8139 26.6339 17.9788 26.5802 18.1607C26.5582 18.2351 26.5354 18.3123 26.5108 18.3936C26.4301 18.6595 26.3339 18.9526 26.197 19.2378M26.1969 19.2379L26.186 19.2606L26.186 19.2606L26.18 19.2731C26.129 19.3795 26.0702 19.502 26.0077 19.6088C25.9444 19.7167 25.8465 19.864 25.6957 19.9799C25.5223 20.113 25.3083 20.1824 25.0732 20.1633C24.8655 20.1465 24.6817 20.0638 24.5323 19.9768C24.2717 19.8251 24.0374 19.5939 23.8567 19.3697C23.6743 19.1435 23.5082 18.877 23.4109 18.6198C23.224 18.126 23.1577 17.6187 23.1064 17.1779C23.1011 17.133 23.0961 17.0888 23.0911 17.0453C23.0446 16.6403 23.0049 16.2949 22.9106 15.9642C22.9044 15.9423 22.898 15.9191 22.8926 15.8997C22.8868 15.8791 22.8816 15.8604 22.8763 15.8423C22.8656 15.8055 22.8564 15.7766 22.8474 15.7527C22.8422 15.7385 22.8378 15.7284 22.8347 15.7216C22.8193 15.7069 22.7994 15.6886 22.77 15.6616L22.7567 15.6494C22.7132 15.6095 22.6545 15.5553 22.597 15.495C22.5003 15.3937 22.3112 15.1813 22.2625 14.8836C22.2146 14.5911 22.2148 14.2938 22.223 14.0341C22.2264 13.9238 22.2309 13.8254 22.2351 13.7332C22.2418 13.5868 22.2478 13.4558 22.2478 13.317C22.2478 13.3093 22.2478 13.3 22.2477 13.2895C22.2473 13.2173 22.2465 13.0846 22.2608 12.9561C22.272 12.8558 22.299 12.6764 22.3965 12.5014C22.3964 12.3921 22.3953 12.3399 22.3895 12.2951C22.3852 12.2615 22.3784 12.2356 22.3616 12.2007C22.2732 12.0172 22.2129 11.9069 22.128 11.8016C22.107 11.7756 22.0861 11.7488 22.0681 11.7258L22.0644 11.721C22.0444 11.6955 22.0272 11.6736 22.0102 11.6526C21.9944 11.6331 21.9808 11.6168 21.9687 11.6032C21.9659 11.6044 21.9631 11.6056 21.9601 11.607C21.9264 11.6221 21.8924 11.6393 21.8427 11.6644L21.8323 11.6697C21.7823 11.6949 21.7155 11.7285 21.6437 11.7591C21.5657 11.7924 21.4848 11.8323 21.3877 11.8811C21.3791 11.8854 21.3704 11.8898 21.3615 11.8942C21.2752 11.9376 21.1749 11.988 21.0726 12.034C20.8458 12.1359 20.5539 12.2423 20.213 12.2459C19.8448 12.2497 19.3151 12.2449 18.8275 11.9759C18.5759 11.837 18.4473 11.6102 18.3866 11.492C18.3547 11.4298 18.327 11.3672 18.3078 11.3237L18.3044 11.3158C18.2815 11.2642 18.2708 11.2408 18.2625 11.2255L18.7769 10.949L18.2625 11.2255C18.1874 11.0858 18.1385 11.0508 18.0652 11.0219C17.8164 10.924 17.5351 10.8027 17.2611 10.6059C17.0173 10.4309 16.8949 10.1867 16.8291 10.0044C16.7624 9.81949 16.7309 9.63187 16.7116 9.50806C16.5987 8.78562 16.7049 7.9717 16.7894 7.36912C16.8803 6.72116 17.2502 6.06646 18.0017 5.8229C18.2061 5.75665 18.4188 5.74987 18.5567 5.74846C18.63 5.74771 18.6852 5.74821 18.7311 5.74863C18.7979 5.74924 18.8447 5.74966 18.8983 5.74576L18.9428 6.35725L18.8983 5.74576C19.0705 5.73323 19.1846 5.6857 19.2464 5.63388C19.5785 5.35533 20.0042 5.0721 20.3919 4.87629L20.6665 5.42006L20.3919 4.87629C20.8928 4.62329 21.3352 4.8488 21.5293 4.94773M21.9139 11.5485C21.9139 11.5485 21.9145 11.5489 21.9159 11.55C21.9146 11.5491 21.9139 11.5486 21.9139 11.5485ZM23.2906 15.3076L23.7294 14.8768C23.8778 15.028 23.9563 15.206 23.9999 15.3233C24.0363 15.421 24.0659 15.5277 24.0839 15.5929C24.0876 15.6061 24.0908 15.6177 24.0934 15.6271C24.2172 16.0612 24.2682 16.5101 24.3125 16.9002C24.3177 16.9462 24.3229 16.9915 24.328 17.0357C24.3795 17.4777 24.4337 17.8478 24.5612 18.1844C24.6006 18.2887 24.6894 18.443 24.8141 18.5978C24.8894 18.6912 24.9643 18.7679 25.0306 18.8251C25.045 18.7956 25.0603 18.7638 25.0772 18.7285L25.0772 18.7284L25.0882 18.7056L25.0882 18.7055C25.183 18.5081 25.2574 18.2886 25.3338 18.0367C25.3525 17.9749 25.3719 17.9093 25.3919 17.8415C25.4488 17.6487 25.5113 17.4372 25.5814 17.2382C25.7336 16.8066 25.8133 16.3933 25.9042 15.9217C25.9327 15.7736 25.9623 15.6199 25.9957 15.458C26.0082 15.3974 26.0208 15.3372 26.0334 15.2778C26.103 14.9472 26.168 14.6388 26.168 14.4055C26.168 14.1703 26.1726 13.9672 26.1767 13.7829C26.1893 13.2281 26.198 12.8443 26.0657 12.2742C25.9269 11.6759 25.6762 11.1407 25.3973 10.5457C25.2886 10.3138 25.1757 10.0729 25.0635 9.81548C24.9374 9.52628 24.8493 9.2249 24.777 8.9777C24.7549 8.9022 24.7344 8.83176 24.7146 8.76826C24.6232 8.47447 24.5312 8.24978 24.3741 8.04547C24.086 7.67081 23.8887 7.33742 23.7322 7.06559C23.7182 7.04126 23.7047 7.01779 23.6917 6.99512C23.5507 6.74965 23.4642 6.59912 23.3663 6.4795C23.2797 6.37381 23.1983 6.31172 23.0712 6.26691C22.9243 6.21509 22.6851 6.17611 22.2674 6.18797L22.2587 6.18822H22.2499C22.1894 6.18822 22.1228 6.19174 22.0334 6.19659L22.0304 6.19676C21.9479 6.20124 21.846 6.20678 21.7422 6.20679C21.5377 6.20681 21.2533 6.18737 20.9781 6.0472C20.9392 6.02743 20.9111 6.01386 20.8884 6.00404C20.6024 6.15499 20.2826 6.36998 20.0369 6.57613C19.7112 6.84932 19.316 6.94851 18.9875 6.97242C18.9066 6.97831 18.8257 6.97892 18.7586 6.97878C18.7308 6.97872 18.7062 6.97855 18.6831 6.9784C18.6435 6.97813 18.6084 6.97789 18.5692 6.97829C18.5118 6.97888 18.4676 6.98087 18.4321 6.98459C18.4149 6.98638 18.4022 6.98834 18.3931 6.9901C18.3846 6.99174 18.3808 6.9929 18.3808 6.9929C18.3808 6.9929 18.3809 6.99289 18.3809 6.99287C18.2021 7.05083 18.0534 7.21212 18.0074 7.53992C17.9195 8.16644 17.8463 8.80333 17.9267 9.31828C17.9451 9.4357 17.9625 9.52188 17.9859 9.5869C17.992 9.60379 17.9972 9.61532 18.0008 9.62267C18.1421 9.72007 18.3024 9.79357 18.5156 9.87748C18.9304 10.0407 19.1737 10.323 19.3458 10.6431C19.3792 10.7053 19.4081 10.7706 19.4272 10.8139L19.4293 10.8187C19.4512 10.8683 19.4653 10.8998 19.4793 10.9273C19.6483 11.0011 19.8681 11.0195 20.2001 11.016C20.2933 11.0151 20.4039 10.9861 20.5687 10.9121C20.6452 10.8777 20.7216 10.8393 20.8123 10.7938C20.82 10.7899 20.8278 10.7859 20.8358 10.782C20.9317 10.7338 21.0439 10.6779 21.1613 10.6278L21.4025 11.1935L21.1613 10.6278C21.1923 10.6146 21.2267 10.5976 21.278 10.5718C21.2824 10.5696 21.287 10.5672 21.2917 10.5648C21.3363 10.5423 21.3951 10.5125 21.4555 10.4853C21.5912 10.4243 21.7901 10.3497 22.0319 10.3497C22.3876 10.3497 22.6391 10.5388 22.7815 10.6749C22.8898 10.7784 22.9953 10.9141 23.0542 10.9898C23.0669 11.0062 23.0775 11.0197 23.0854 11.0296L22.6067 11.4156L23.0854 11.0296C23.2636 11.2506 23.3738 11.4679 23.4697 11.667C23.627 11.9937 23.6266 12.2779 23.6264 12.4903C23.6264 12.4987 23.6264 12.507 23.6264 12.5152V12.516C23.6264 12.5244 23.6265 12.5291 23.6269 12.5394C23.6271 12.546 23.6274 12.5548 23.6278 12.5684C23.6285 12.5935 23.6299 12.6456 23.6242 12.7051C23.6179 12.7697 23.6031 12.8484 23.5685 12.9333C23.5452 12.9902 23.5163 13.042 23.4835 13.0889C23.4834 13.09 23.4832 13.0912 23.4831 13.0924C23.4803 13.1179 23.4785 13.1498 23.4779 13.1897C23.4774 13.2189 23.4775 13.2436 23.4776 13.2721C23.4776 13.2859 23.4777 13.3005 23.4777 13.317C23.4777 13.4793 23.4695 13.6642 23.462 13.8328C23.4582 13.9187 23.4545 14.0003 23.4522 14.0727C23.4456 14.2854 23.4476 14.4672 23.4676 14.6251C23.4729 14.6311 23.4792 14.638 23.4867 14.6458C23.5134 14.6739 23.5454 14.7039 23.5883 14.7433C23.5927 14.7473 23.5974 14.7516 23.6023 14.7561C23.6383 14.789 23.6872 14.8338 23.7294 14.8768L23.2906 15.3076Z" fill="black"/>
</svg>
