<svg width="54" height="56" viewBox="0 0 54 56" fill="none" xmlns="http://www.w3.org/2000/svg">
<path fill-rule="evenodd" clip-rule="evenodd" d="M53.1915 1.74093C53.085 1.55016 52.8888 1.27758 52.5508 1.08133C52.3747 0.976618 52.2166 0.927178 52.1534 0.907958C52.0488 0.876121 51.9485 0.854445 51.8678 0.839186C51.7046 0.808368 51.5195 0.785029 51.332 0.76599C50.9517 0.727354 50.4506 0.695588 49.861 0.668639C48.6759 0.61447 47.0492 0.576168 45.1338 0.549853C41.2988 0.497162 36.2535 0.491888 31.1528 0.508145C24.2558 0.530126 17.2872 0.591142 13.0068 0.62862C10.9336 0.646773 9.49097 0.659404 8.99257 0.659404C8.56894 0.659404 8.12741 0.651661 7.67277 0.643688C6.03783 0.615016 4.23328 0.583369 2.48108 0.898146C1.86987 1.00795 1.45903 1.37712 1.21598 1.70542C0.98272 2.02048 0.847436 2.36723 0.762832 2.65053C0.592635 3.22045 0.528632 3.87885 0.508094 4.45621C0.486844 5.05357 0.509444 5.66058 0.552478 6.1719C0.592293 6.64496 0.658894 7.15452 0.76326 7.50255C0.815071 7.67532 0.933034 8.0637 1.19116 8.42139C1.49541 8.843 2.01097 9.24144 2.74588 9.28829C3.62588 9.34438 4.51898 9.37821 5.43375 9.36147C6.12766 9.34878 6.82145 9.33732 7.51513 9.32702C7.41966 20.6924 6.0506 31.8481 4.6625 43.159C4.39996 45.2984 4.13674 47.4432 3.88132 49.5961C3.85287 49.836 3.80478 50.0703 3.74226 50.3749C3.72813 50.4438 3.71326 50.5162 3.69771 50.5931C3.62075 50.9739 3.53047 51.453 3.51387 51.9633C3.49999 52.3899 3.49081 52.8699 3.51498 53.3492C3.55856 54.2136 4.19082 54.646 4.43564 54.7845C4.72029 54.9454 5.01493 55.0239 5.19685 55.0651C5.54409 55.1437 6.02325 55.1895 5.99451 55.1856C6.05758 55.1942 6.15879 55.2108 6.28822 55.232L6.28881 55.2321C6.75294 55.3081 7.57929 55.4434 8.31097 55.4851C8.79213 55.5125 9.36682 55.512 9.9011 55.3977C10.3852 55.2941 11.2187 55.0131 11.6479 54.1619C12.4542 52.5626 12.9036 50.5436 13.1782 48.6436C13.4564 46.7193 13.5723 44.7837 13.6511 43.3002C13.8965 38.6755 14.24 34.0632 14.6378 29.4546C14.8596 29.4565 15.1067 29.4454 15.328 29.4354H15.328L15.329 29.4354L15.3317 29.4352C15.399 29.4322 15.464 29.4293 15.525 29.4269C15.8631 29.4311 16.1473 29.4107 16.3626 29.3953L16.4506 29.3891C16.6824 29.3732 16.8543 29.366 17.0722 29.3827C18.7538 29.5118 20.4448 29.504 22.0668 29.4967H22.0669H22.0669H22.0669C22.4399 29.495 22.8093 29.4933 23.174 29.4933H29.2951C30.4838 29.4933 31.6732 29.4686 32.8454 29.4443L32.8456 29.4443C33.1445 29.4381 33.4422 29.4319 33.7385 29.4262C33.9256 29.4225 34.1394 29.4231 34.3709 29.4237C35.0593 29.4255 35.9034 29.4277 36.6611 29.3215C37.39 29.2192 38.1265 29.157 38.8538 29.1426C38.8818 29.7824 38.9092 30.4233 38.9366 31.0651L38.9367 31.0686C38.9683 31.8075 38.9999 32.5477 39.0326 33.289C39.3175 39.7508 39.6843 46.2783 40.8403 52.5283C40.862 52.6457 40.8688 52.7171 40.8788 52.8213V52.8213L40.8789 52.8218C40.8881 52.9179 40.9 53.0419 40.9287 53.2555C40.9712 53.5719 41.0548 54.0631 41.3132 54.5383C41.5543 54.9813 41.9323 55.1697 42.05 55.2254C42.2134 55.3028 42.3663 55.3448 42.4654 55.3683C42.6698 55.4169 42.887 55.4423 43.0676 55.458C43.4426 55.4905 43.8948 55.4996 44.3098 55.5C44.7333 55.5004 45.1554 55.4915 45.4823 55.4827C45.6287 55.4788 45.7578 55.4749 45.859 55.4718L45.8939 55.4707L46.0223 55.467L46.0572 55.4661C46.0637 55.466 46.0637 55.466 46.0597 55.466C46.6563 55.466 47.254 55.4587 47.7757 55.3903C48.2876 55.3232 48.9218 55.1761 49.464 54.7516C50.0628 54.2828 50.349 53.6394 50.4508 52.9831C50.545 52.3763 50.4928 51.701 50.3832 51.003L50.3779 50.9693L50.3711 50.9359C49.1614 45.0059 48.559 41.0608 47.945 36.6351C47.7505 35.2327 47.5487 33.8247 47.3464 32.4133L47.3462 32.4117L47.3461 32.4111L47.3461 32.411C46.3385 25.3802 45.3188 18.2654 45.1217 11.3381L45.1199 11.2746V11.2745C45.1037 10.7037 45.0845 10.0228 45.0131 9.35824C45.9996 9.36047 46.9867 9.36172 47.9744 9.36172C48.0361 9.36172 48.1782 9.37282 48.4625 9.40083L48.544 9.4089C48.779 9.4322 49.0671 9.46076 49.3522 9.47922C49.6651 9.49947 50.0362 9.51226 50.3875 9.482C50.5917 9.46441 50.9978 9.42072 51.3991 9.21767C51.5533 9.18635 51.7834 9.11908 52.0192 8.96336C52.3583 8.73948 52.5647 8.43254 52.6819 8.14301C52.8224 7.79595 52.9541 7.26678 53.0614 6.76087C53.1763 6.2193 53.2877 5.5841 53.3692 4.9645C53.4492 4.35618 53.5075 3.71141 53.4992 3.16936C53.4952 2.90629 53.4751 2.59435 53.404 2.29775C53.3683 2.14868 53.3067 1.94743 53.1915 1.74093ZM37.5158 9.32637C36.2568 9.31923 34.9984 9.31154 33.7405 9.30387C27.977 9.26868 22.2237 9.23356 16.469 9.25077C16.5329 9.81389 16.4835 10.3523 16.4484 10.7012L16.2758 12.4108C15.9619 15.5193 15.6482 18.6247 15.3483 21.7298C15.6237 21.6577 15.8985 21.6095 16.1625 21.5763C16.9974 21.471 17.9373 21.4911 18.8675 21.539C19.2929 21.5609 19.7366 21.5899 20.1827 21.6191L20.1828 21.6191L20.183 21.6191L20.1831 21.6191L20.3305 21.6288C20.8307 21.6614 21.3373 21.6937 21.8538 21.7182C23.0746 21.7762 24.2842 21.7676 25.5387 21.7586H25.5388L25.5394 21.7586C26.0063 21.7553 26.4795 21.7519 26.9617 21.7519C27.3065 21.7519 27.6493 21.7525 27.9906 21.7531C29.8443 21.7563 31.6513 21.7594 33.4598 21.6673C33.6897 21.6556 33.9233 21.6428 34.1602 21.6298C35.5138 21.5556 36.9735 21.4755 38.4475 21.5652C38.2751 19.0805 38.0513 16.6227 37.7348 14.2012C37.5893 13.0883 37.5736 11.9006 37.5736 10.8789C37.5736 10.3445 37.5493 9.91791 37.5282 9.54532L37.5232 9.45677L37.5202 9.40412C37.5187 9.379 37.5172 9.35305 37.5158 9.32637ZM12.9985 3.6287L12.9986 3.6287C17.2981 3.59117 24.3105 3.52997 31.1623 3.50813C36.2592 3.49188 41.2839 3.49724 45.0926 3.54957C46.9991 3.57576 48.5877 3.61357 49.724 3.66551C50.0117 3.67866 50.2651 3.69249 50.4837 3.70683C50.4667 3.96177 50.4366 4.2556 50.3948 4.57314C50.3239 5.1121 50.226 5.6702 50.1267 6.13846C50.0991 6.26837 50.072 6.38887 50.0459 6.49809C49.9229 6.50275 49.7563 6.4991 49.546 6.48548C49.3154 6.47055 49.0796 6.44723 48.8385 6.42337L48.8385 6.42337L48.7567 6.41529L48.7482 6.41446L48.7482 6.41445C48.516 6.39157 48.2131 6.36172 47.9744 6.36172C43.2584 6.36172 38.5357 6.33293 33.8093 6.30412L33.8091 6.30412C24.3402 6.24639 14.8559 6.18857 5.37887 6.36197C4.78396 6.37286 4.18928 6.35967 3.58529 6.33078C3.56987 6.21316 3.55491 6.07477 3.54191 5.9203C3.50729 5.50892 3.48983 5.02292 3.5062 4.56286C3.5177 4.2395 3.54472 3.96905 3.58034 3.76265C4.82237 3.5993 6.064 3.61986 7.43403 3.64255C7.93433 3.65083 8.45176 3.6594 8.99257 3.6594C9.48117 3.6594 10.9241 3.64681 12.9985 3.6287ZM3.67155 6.74463C3.67154 6.74464 3.67125 6.744 3.67068 6.74265L3.67155 6.74463ZM7.63583 43.5628C9.01579 32.3245 10.4008 21.0454 10.5131 9.56051C10.6792 9.56674 10.8497 9.57096 11.0201 9.57096C11.1142 9.57096 11.2196 9.58021 11.4151 9.59932L11.4317 9.60095C11.6031 9.61774 11.85 9.64192 12.1134 9.64192C12.3211 9.64192 12.5318 9.62796 12.7026 9.61569L12.8211 9.60704C12.955 9.59719 13.0697 9.58875 13.1875 9.58326C13.3232 9.57694 13.4204 9.57765 13.4875 9.58057C13.4955 9.64639 13.5007 9.73248 13.4999 9.84224C13.4987 10.0092 13.4845 10.1922 13.4635 10.4002L13.289 12.1291L13.289 12.1291V12.1291L13.289 12.1292C12.2506 22.4101 11.2073 32.7411 10.6553 43.1412C10.5769 44.6183 10.4662 46.4359 10.2091 48.2145C9.97199 49.855 9.62409 51.3553 9.1226 52.4864C8.96959 52.5016 8.7561 52.5056 8.48165 52.49C7.9283 52.4585 7.40431 52.3728 6.94589 52.2978C6.79182 52.2726 6.64515 52.2487 6.50726 52.2284C6.50876 52.173 6.51045 52.1172 6.51228 52.0609C6.52011 51.8202 6.56453 51.5522 6.63825 51.1874C6.64893 51.1346 6.66054 51.0784 6.67273 51.0194C6.73627 50.7118 6.81551 50.3282 6.86043 49.9496C7.1129 47.8215 7.37424 45.6931 7.63577 43.5633L7.63578 43.5632L7.63578 43.5632L7.63583 43.5628ZM9.33691 52.4465C9.33746 52.4468 9.33105 52.4495 9.316 52.4537C9.32883 52.4484 9.33635 52.4462 9.33691 52.4465ZM15.6045 25.3204C15.6044 25.0841 15.6384 24.9535 15.6621 24.8911C15.6824 24.8377 15.7009 24.8173 15.7179 24.8018C15.7716 24.7528 15.9695 24.6244 16.5378 24.5527C17.0914 24.4829 17.8055 24.4883 18.7133 24.535C19.1166 24.5558 19.539 24.5834 19.9891 24.6128L20.1351 24.6224C20.6358 24.6551 21.1658 24.6889 21.7115 24.7148C23.0209 24.777 24.3522 24.7675 25.6326 24.7583H25.6327C26.0831 24.7551 26.5271 24.7519 26.9617 24.7519C27.2956 24.7519 27.6312 24.7525 27.9683 24.7531H27.9684C29.8205 24.7565 31.7179 24.7599 33.6123 24.6635C33.8573 24.651 34.0991 24.638 34.3379 24.6251H34.338C35.8035 24.546 37.1599 24.4728 38.4948 24.5748C38.4836 25.0995 38.454 25.6293 38.4074 26.1547C37.6796 26.1832 36.9548 26.2509 36.2443 26.3506C35.7122 26.4252 35.2033 26.4237 34.5953 26.4219H34.5951C34.3152 26.4211 34.0143 26.4203 33.6804 26.4267C33.3748 26.4326 33.0708 26.4389 32.7681 26.4452C31.5994 26.4694 30.4497 26.4933 29.2951 26.4933H23.174C22.779 26.4933 22.3893 26.495 22.0037 26.4966H22.0037H22.0037H22.0036C20.3904 26.5036 18.85 26.5103 17.3017 26.3915C16.8677 26.3582 16.5266 26.3768 16.2451 26.3962L16.1443 26.4032H16.1443C15.9195 26.419 15.7545 26.4306 15.5419 26.4268L15.5467 26.3533C15.5644 26.0827 15.5847 25.7631 15.6027 25.3931L15.6045 25.3568L15.6045 25.3204ZM40.5325 9.53785C40.5521 9.89102 40.5736 10.3402 40.5736 10.8789C40.5736 11.895 40.5916 12.9109 40.7095 13.8123C41.443 19.4238 41.6902 25.2198 41.934 30.9381V30.9382L41.9341 30.9411L41.9342 30.9444C41.9657 31.6834 41.9972 32.421 42.0296 33.1568C42.3147 39.622 42.6764 45.9604 43.7902 51.9827C43.8241 52.1659 43.8448 52.3449 43.86 52.4845L43.8612 52.495C44.0018 52.4982 44.1536 52.4998 44.3125 52.5C44.6962 52.5003 45.0871 52.4922 45.402 52.4838C45.5053 52.481 45.6104 52.4779 45.7063 52.475L45.7079 52.4749C45.8699 52.4701 46.0051 52.466 46.0597 52.466C46.6718 52.466 47.0844 52.4553 47.3856 52.4158C47.4288 52.4101 47.4661 52.4042 47.4979 52.3985C47.5058 52.2264 47.4927 51.9442 47.4246 51.5009C46.2032 45.5098 45.5919 41.5056 44.9735 37.0473C44.783 35.6741 44.5839 34.2858 44.3832 32.8862C43.3748 25.8551 42.3254 18.5382 42.1229 11.4235C42.1061 10.8327 42.0897 10.272 42.0388 9.76048C41.9866 9.75381 41.9261 9.74707 41.8554 9.74001L41.7566 9.73042L41.7565 9.73042C41.6834 9.7234 41.5988 9.71528 41.5289 9.70775C41.4133 9.69531 41.2719 9.678 41.1266 9.65051C41.0292 9.63208 40.9423 9.61521 40.8638 9.59996L40.8638 9.59995L40.8636 9.59991L40.8631 9.59982C40.733 9.57456 40.626 9.55378 40.5325 9.53785Z" fill="black"/>
</svg>
