<svg width="51" height="51" viewBox="0 0 51 51" fill="none" xmlns="http://www.w3.org/2000/svg">
<path fill-rule="evenodd" clip-rule="evenodd" d="M25.8161 2.38864C25.6798 2.39544 25.5199 2.40289 25.3612 2.40289C24.8774 2.40289 24.4373 2.55203 23.7308 2.8064C23.6585 2.83243 23.5309 2.91037 23.3232 3.1265C23.2241 3.22966 23.1242 3.34524 23.009 3.48121C22.9922 3.50107 22.9748 3.52172 22.9568 3.54299C22.8606 3.65706 22.7495 3.78862 22.6398 3.90924C22.1329 4.46686 21.7201 5.15071 21.2619 5.90965C21.1131 6.15623 20.9594 6.41073 20.7962 6.6714C20.4564 7.2142 20.1192 7.73999 19.786 8.25954C19.2148 9.15032 18.6553 10.0228 18.1143 10.9312C17.8833 11.3191 17.6653 11.716 17.4356 12.1342C17.3823 12.2314 17.3283 12.3297 17.2733 12.4293C16.988 12.9467 16.6823 13.4897 16.3411 14.0145C15.7545 14.9171 15.5126 15.432 15.5126 16.2263C15.5126 16.8808 14.982 17.4114 14.3275 17.4114C13.6729 17.4114 13.1423 16.8808 13.1423 16.2263C13.1423 14.7325 13.6928 13.7397 14.3538 12.7228C14.6449 12.2749 14.9158 11.796 15.1978 11.2847C15.248 11.1935 15.2989 11.1009 15.3503 11.0073C15.5811 10.5869 15.8235 10.1454 16.0778 9.71848C16.6352 8.78242 17.2364 7.8445 17.8247 6.92673C18.1528 6.41481 18.477 5.90915 18.7872 5.41359C18.9002 5.23309 19.0207 5.03296 19.1484 4.82061C19.6261 4.02681 20.2064 3.06235 20.886 2.31482C20.9638 2.22926 21.0417 2.13706 21.1382 2.02284C21.158 1.9994 21.1785 1.97504 21.2001 1.94961C21.3184 1.80981 21.4595 1.64515 21.6142 1.48412C21.9143 1.17187 22.3461 0.785679 22.9279 0.576244C22.9529 0.567238 22.9782 0.55811 23.0038 0.548883C23.6352 0.321008 24.4343 0.0326178 25.3612 0.0326178C25.4543 0.0326178 25.5609 0.0281468 25.698 0.0213094C25.7156 0.0204334 25.7338 0.0195129 25.7524 0.0185666C25.8699 0.0126125 26.0076 0.00563358 26.1444 0.00226973C26.4508 -0.0052612 26.8729 -0.000280451 27.2917 0.116986C28.2053 0.372778 28.8783 0.931999 29.3789 1.54394C30.048 2.36162 30.5263 3.36671 30.9194 4.19253C31.0168 4.39712 31.1089 4.59072 31.1974 4.76773C31.6209 5.61473 31.9632 6.50795 32.2804 7.33554C32.3481 7.51215 32.4146 7.68577 32.4805 7.85532C32.8635 8.84011 33.2464 9.76381 33.6946 10.6769C33.8691 11.0323 34.0246 11.4108 34.1623 11.7458C34.1949 11.8252 34.2265 11.9021 34.2571 11.9757C34.3832 12.2787 34.5003 12.5456 34.6255 12.7852C34.8577 12.6393 35.0933 12.5159 35.315 12.4087C35.5674 12.1489 35.937 11.8392 36.3241 11.6182C36.5508 11.4887 36.904 11.3184 37.3175 11.2806C37.3754 11.2408 37.432 11.2032 37.4836 11.1711C37.6468 11.0695 37.8896 10.9325 38.1648 10.8529C38.3942 10.7864 39.0034 10.6591 39.5417 11.0995C39.8036 11.3138 39.9019 11.574 39.9362 11.677C39.9778 11.8021 39.9936 11.9121 40.0008 11.9777C40.0154 12.1108 40.0122 12.2347 40.0091 12.3072C40.0057 12.3882 39.9993 12.4645 39.9954 12.5103C39.9941 12.5257 39.9932 12.5371 39.9925 12.5451V14.421C39.9925 14.6956 39.9937 14.9737 39.9948 15.2545C39.9995 16.3953 40.0043 17.5812 39.9337 18.7582C39.934 18.7541 39.935 18.7739 39.938 18.9585C39.9402 19.0935 39.9416 19.2836 39.9286 19.4775C39.9171 19.6489 39.8892 19.9293 39.786 20.1999C39.7007 20.4234 39.3565 21.1271 38.4998 21.1271C38.2853 21.1271 38.099 21.0911 38.0094 21.0737L37.9999 21.0719C37.9262 21.0576 37.9027 21.0539 37.899 21.0532C37.6 21.041 37.347 20.9529 37.1681 20.8734C36.9843 20.7919 36.8217 20.6934 36.6984 20.614C36.6163 20.5611 36.5222 20.4969 36.4504 20.4479C36.4227 20.429 36.3983 20.4123 36.3792 20.3995C36.3367 20.3709 36.3042 20.3497 36.2777 20.3334C36.2679 20.3273 36.2599 20.3225 36.2534 20.3188C36.2514 20.3176 36.2496 20.3166 36.2479 20.3156C36.2406 20.3115 36.2373 20.3098 36.2374 20.3098C35.9971 20.1897 35.7043 20.0854 35.3686 19.9734C34.9051 19.819 34.5536 19.5353 34.357 19.3766L34.3548 19.3749C34.1045 19.1729 34.0322 19.1147 33.9583 19.0791C33.7506 18.9791 33.553 18.8627 33.4065 18.7764C33.3807 18.7613 33.3565 18.747 33.3341 18.7339C33.1653 18.6354 33.0513 18.5745 32.9411 18.5311C32.498 18.3565 32.0064 18.2123 31.5104 18.0955C31.4917 18.0961 31.4538 18.0964 31.3869 18.0969C31.3655 18.097 31.3284 18.0969 31.2848 18.0943C31.2507 18.0923 31.1602 18.0863 31.0508 18.059C31.0496 18.0587 31.0481 18.0583 31.0464 18.0579C30.9875 18.0436 30.6189 17.9541 30.3604 17.5876C29.9644 17.0261 30.2002 16.4637 30.3306 16.2594C30.4453 16.0796 30.5817 15.9747 30.6175 15.9472L30.6183 15.9466C30.6737 15.904 30.7235 15.8729 30.7528 15.8553C30.7953 15.8297 30.8383 15.8065 30.876 15.787C30.8783 15.7849 30.8809 15.7824 30.8837 15.7796C30.9038 15.76 30.9269 15.7359 30.9655 15.6949L30.976 15.6838C31.0092 15.6485 31.0561 15.5987 31.1046 15.5502C31.1189 15.5358 31.1297 15.524 31.1377 15.5147C31.1375 15.5045 31.1374 15.4904 31.1372 15.4702L31.1372 15.4667C31.1368 15.4169 31.1355 15.2652 31.1768 15.0917C31.2276 14.8779 31.3325 14.6646 31.5053 14.4802C31.6585 14.3166 31.8247 14.2195 31.9388 14.1624C32.0404 14.1116 32.1653 14.0268 32.365 13.8781C32.3888 13.8603 32.4144 13.8412 32.4414 13.8209C32.4535 13.8118 32.4659 13.8025 32.4786 13.793C32.3204 13.481 32.1872 13.1708 32.0688 12.8863C32.0293 12.7914 31.9918 12.7003 31.9555 12.6121C31.8209 12.2849 31.7033 11.9993 31.5669 11.7214C31.076 10.7214 30.6653 9.72714 30.2714 8.71442C30.1964 8.52154 30.1237 8.33214 30.0522 8.14584C29.7366 7.32328 29.4442 6.56128 29.0774 5.82775C28.944 5.56101 28.8226 5.30741 28.7069 5.0658C28.3298 4.27845 28.0136 3.6183 27.5445 3.04489C27.2527 2.68833 26.9652 2.48698 26.6526 2.39947C26.5863 2.38089 26.4546 2.36563 26.2027 2.37182C26.0991 2.37437 25.9956 2.37959 25.8764 2.38561C25.8567 2.3866 25.8367 2.38761 25.8161 2.38864ZM36.271 17.7762C36.5801 17.8814 36.9499 18.0161 37.2974 18.1898C37.4006 18.2414 37.4987 18.3003 37.5821 18.3537C37.6126 17.7477 37.6232 17.1418 37.626 16.5279C37.616 16.5371 37.6059 16.5463 37.5956 16.5554C37.3778 17.0042 37.0111 17.4927 36.388 17.7354C36.3504 17.75 36.3113 17.7636 36.271 17.7762Z" fill="black"/>
<path fill-rule="evenodd" clip-rule="evenodd" d="M12.309 22.6593C12.3077 22.7168 12.3067 22.7585 12.3067 22.7995C12.3067 23.2703 12.3221 23.7455 12.3394 24.2417C12.3405 24.2742 12.3417 24.3068 12.3428 24.3395C12.3589 24.7998 12.3756 25.2792 12.3795 25.761C12.3848 26.4179 12.5028 27.077 12.6534 27.8362C12.6658 27.8986 12.6784 27.962 12.6912 28.0262C12.8277 28.7087 12.9823 29.4827 13.0292 30.2787C13.0391 30.4471 13.0406 30.7637 12.88 31.085C12.6671 31.5106 12.2564 31.774 11.8005 31.8048C11.4576 31.8279 11.1853 31.713 11.0658 31.6573C10.9555 31.6059 10.8559 31.5463 10.7739 31.4926C10.7627 31.4896 10.7497 31.4862 10.7329 31.4819C10.7293 31.4809 10.7255 31.4799 10.7214 31.4789C10.7014 31.4737 10.6756 31.467 10.6505 31.4603C10.5897 31.444 10.5 31.419 10.4023 31.3828C10.1779 31.2997 9.9592 31.2007 9.77079 31.1136C9.72648 31.0932 9.684 31.0734 9.64286 31.0543C9.49718 30.9866 9.36842 30.9268 9.23558 30.8701C8.88669 30.7211 8.67913 30.6713 8.54322 30.6713C8.53567 30.6713 8.52863 30.6714 8.52209 30.6715C8.51232 30.6807 8.50131 30.6913 8.48883 30.7035C8.45609 30.7354 8.42 30.7714 8.37338 30.818C7.8161 31.3753 7.28248 32.0915 6.93587 32.7848C6.67886 33.2988 6.37483 33.7415 6.10088 34.1258C6.044 34.2055 5.98906 34.282 5.93583 34.356C5.72008 34.6562 5.53233 34.9174 5.35711 35.2042C4.99171 35.8021 4.60143 36.3795 4.22276 36.9343C4.17564 37.0034 4.12874 37.072 4.08209 37.1403C3.74898 37.6277 3.42792 38.0975 3.12243 38.5757L3.10472 38.6034C2.91656 38.8978 2.74941 39.1594 2.61527 39.4254C2.47656 39.7003 2.41456 39.9027 2.40114 40.0469C2.35912 40.4987 2.35895 41.0163 2.40709 41.4496C2.4865 42.1643 2.78998 42.8953 3.24135 43.4757C3.87008 44.284 4.9449 44.7667 6.05394 44.7667C6.26046 44.7667 6.46604 44.767 6.67073 44.7672C9.14103 44.7704 11.4811 44.7733 13.767 44.3162C16.2274 43.8241 18.6273 43.7467 21.0301 43.7467C21.6846 43.7467 22.2152 44.2773 22.2152 44.9318C22.2152 45.5864 21.6846 46.117 21.0301 46.117C18.6657 46.117 16.4558 46.1956 14.2318 46.6404C11.7022 47.1463 9.12966 47.1419 6.7042 47.1377C6.48621 47.1374 6.26942 47.137 6.05394 47.137C4.31321 47.137 2.50605 46.391 1.37037 44.9309C0.661638 44.0196 0.181046 42.8789 0.0513138 41.7113C-0.0166084 41.1 -0.0140636 40.42 0.0410647 39.8273C0.0933199 39.2656 0.296058 38.7602 0.498965 38.3579C0.689266 37.9806 0.916161 37.626 1.09019 37.354C1.10205 37.3354 1.11367 37.3173 1.12501 37.2995C1.45176 36.7881 1.79508 36.2858 2.12621 35.8013C2.17275 35.7332 2.21905 35.6655 2.26503 35.5981C2.64302 35.0443 3.00332 34.5103 3.3346 33.9682C3.56072 33.5982 3.81224 33.2487 4.03182 32.9436C4.07991 32.8768 4.12646 32.8121 4.17088 32.7498C4.43157 32.3841 4.64549 32.0654 4.81583 31.7247C5.18329 30.9898 5.6827 30.2708 6.2229 29.6508C6.07045 29.574 5.88067 29.459 5.70973 29.288C5.45261 29.0309 5.17623 28.8194 4.84622 28.5669C4.66362 28.4272 4.46461 28.2749 4.24335 28.0953C4.23582 28.0904 4.22398 28.0828 4.20688 28.072C4.17285 28.0505 4.13595 28.0277 4.09071 27.9998C4.06521 27.984 4.03706 27.9666 4.00529 27.9469C3.8446 27.8472 3.62335 27.7081 3.41695 27.5578C3.24522 27.4328 2.94692 27.2051 2.74559 26.9108C2.6499 26.7709 2.44658 26.4323 2.49097 25.9749C2.5451 25.4172 2.91458 25.0811 3.20849 24.9255C3.2757 24.8899 3.37236 24.8355 3.48396 24.7727C3.71334 24.6437 4.00581 24.4792 4.23524 24.3694C5.05353 23.9781 5.8683 23.4764 6.69672 22.9492C6.83558 22.8608 6.98142 22.7663 7.13333 22.6677C8.00093 22.105 9.06663 21.4137 10.1626 21.0203C10.383 20.9412 10.7348 20.8393 11.1231 20.9047C11.6399 20.9918 12.0051 21.3311 12.1778 21.736C12.3054 22.0355 12.3099 22.3308 12.3113 22.4473C12.3122 22.523 12.3105 22.598 12.3092 22.6524L12.3092 22.6525L12.309 22.6593ZM6.6924 25.7366C6.38407 25.9179 6.0683 26.0954 5.74704 26.263C5.85405 26.3491 5.98353 26.4487 6.12528 26.5578C6.14242 26.571 6.15973 26.5843 6.17721 26.5977C6.32631 26.433 6.52287 26.3046 6.75645 26.2379C6.88992 26.1997 7.0255 26.1758 7.15746 26.1618C7.08568 26.0696 7.02012 25.9649 6.96714 25.8469C6.95808 25.8438 6.9497 25.8409 6.94202 25.8384C6.86661 25.8132 6.78138 25.7804 6.6924 25.7366ZM7.54801 26.035C7.54801 26.0725 7.54738 26.1094 7.54611 26.1453Z" fill="black"/>
<path fill-rule="evenodd" clip-rule="evenodd" d="M41.94 23.7842C42.5945 23.7842 43.1251 24.3148 43.1251 24.9693C43.1251 25.3585 43.279 25.7708 43.6003 26.3417C43.672 26.4691 43.761 26.6173 43.8584 26.7797C44.1277 27.2284 44.4618 27.7851 44.6762 28.3091C44.9582 28.9986 45.3555 29.7013 45.7749 30.4433C45.8485 30.5734 45.9227 30.7047 45.9971 30.8373C46.2449 31.2789 46.5034 31.704 46.7739 32.1488C46.8624 32.2943 46.9522 32.442 47.0433 32.593C47.4049 33.1924 47.7762 33.8273 48.1058 34.5054C48.3432 34.9938 48.5424 35.5034 48.7214 35.9614C48.7428 36.0161 48.7639 36.07 48.7847 36.1231C48.988 36.6411 49.1728 37.094 49.3943 37.5045C49.8303 38.3122 50.2921 39.4463 50.4726 40.6167C50.6489 41.7592 50.59 43.1815 49.6543 44.2799C47.5416 46.76 44.4275 46.9187 41.9562 46.9187C41.6141 46.9187 41.2823 46.9147 40.9591 46.9109C39.7541 46.8966 38.6672 46.8838 37.6022 47.081C37.105 47.1731 36.6087 47.18 36.1824 47.1711C36.0498 47.1684 35.9325 47.1647 35.8242 47.1607C35.8091 47.4156 35.7851 47.6586 35.7635 47.8775L35.7632 47.8807C35.7278 48.2401 35.6984 48.5385 35.694 48.8285C35.6951 48.8361 35.6979 48.8674 35.7052 48.9421C35.7141 49.0341 35.7283 49.1877 35.7279 49.3449L35.7279 49.3499C35.7278 49.4522 35.7273 49.7913 35.5595 50.1161C35.4555 50.3175 35.2288 50.6222 34.8064 50.7548C34.3963 50.8836 34.0459 50.7724 33.8555 50.6822C33.6697 50.5941 33.4902 50.5186 33.2853 50.4324C33.1754 50.3861 33.0582 50.3367 32.9287 50.2807C32.5899 50.1341 32.2001 49.9546 31.8323 49.7205C31.5632 49.5492 31.2805 49.396 30.9532 49.2185L30.9195 49.2002C30.5908 49.022 30.2178 48.8187 29.8512 48.5782L29.8269 48.5622C28.8533 47.9233 27.6949 47.1632 26.8168 46.0443C26.786 46.0051 26.7698 45.9862 26.7465 45.9591C26.7253 45.9344 26.6982 45.9029 26.6489 45.843L26.6458 45.8393C26.5891 45.7703 26.4436 45.5937 26.3467 45.3688C26.2289 45.0953 26.1125 44.5606 26.4791 44.0515C26.7561 43.6667 27.1586 43.5352 27.3344 43.4849C27.3332 43.4853 27.3326 43.4855 27.3326 43.4855C27.3326 43.4854 27.3596 43.4758 27.4263 43.4347C27.4632 43.412 27.5048 43.3844 27.5582 43.3477C27.5725 43.3379 27.5922 43.3242 27.6143 43.3089C27.6545 43.2811 27.7024 43.2479 27.7393 43.2229C27.9914 43.0518 28.2378 42.8717 28.504 42.677C28.5368 42.6531 28.5699 42.6289 28.6033 42.6044C28.9007 42.3872 29.222 42.1546 29.5601 41.9349C29.8876 41.722 30.1828 41.4716 30.5426 41.1663C30.6389 41.0847 30.7398 40.9991 30.8471 40.9092C31.3182 40.515 31.8963 40.0573 32.599 39.7423C32.6009 39.7415 32.6035 39.7403 32.6069 39.7388C32.6611 39.714 32.9043 39.6031 33.1614 39.55C33.2695 39.5277 33.5962 39.4645 33.9571 39.5914C34.1705 39.6664 34.4154 39.8158 34.5957 40.0815C34.7723 40.3415 34.8194 40.6135 34.8194 40.8197C34.8194 40.8393 34.8211 40.8633 34.8271 40.9121C35.0648 41.0311 35.2933 41.2232 35.4555 41.5151C35.618 41.8075 35.6831 42.1007 35.7174 42.2897C35.7345 42.3842 35.7476 42.4762 35.7572 42.5436L35.7583 42.5515C35.7693 42.6282 35.776 42.674 35.7832 42.7127C35.9131 43.4144 35.921 44.1391 35.9036 44.7911C36.0258 44.7956 36.1384 44.7995 36.2317 44.8014C36.6091 44.8092 36.9135 44.798 37.1706 44.7503C38.4877 44.5064 39.8739 44.5246 41.1031 44.5408C41.3975 44.5446 41.6829 44.5484 41.9562 44.5484C44.4777 44.5484 46.5127 44.3127 47.8499 42.7429C48.1308 42.4131 48.2627 41.8382 48.1301 40.9781C48.0017 40.1459 47.6548 39.272 47.3084 38.6302C47.0112 38.0795 46.7807 37.5051 46.5782 36.9888C46.557 36.9348 46.5361 36.8814 46.5155 36.8288C46.3313 36.3582 46.1675 35.9396 45.9741 35.5417C45.693 34.9635 45.3672 34.4032 45.0137 33.8174C44.9324 33.6826 44.8489 33.5453 44.7642 33.406C44.4888 32.9532 44.2 32.4785 43.9299 31.997C43.8645 31.8804 43.7962 31.7598 43.726 31.6358C43.3101 30.9016 42.8266 30.048 42.4824 29.2066C42.3389 28.8559 42.1592 28.5577 41.9347 28.1851C41.8146 27.9859 41.6818 27.7655 41.5348 27.5044C41.1646 26.8466 40.7548 25.9906 40.7548 24.9693C40.7548 24.3148 41.2854 23.7842 41.94 23.7842ZM28.4535 44.3041C28.4537 44.3042 28.4556 44.3068 28.4589 44.3116C28.455 44.3065 28.4534 44.3041 28.4535 44.3041ZM31.4543 46.7842C31.6391 46.8931 31.8351 47.0004 32.0495 47.1166C32.0679 47.1266 32.0865 47.1367 32.1053 47.1469C32.4141 47.3142 32.7636 47.5036 33.1049 47.7208C33.1891 47.7744 33.2811 47.8263 33.3818 47.8782C33.388 47.8134 33.3943 47.7502 33.4003 47.689L33.4044 47.648C33.4395 47.2921 33.4672 46.9963 33.469 46.7116C33.4585 46.7065 33.4476 46.7013 33.4367 46.6958C33.4236 46.6893 33.4096 46.6821 33.3947 46.6742C32.7262 47.1141 31.9623 46.9838 31.4737 46.7857C31.4672 46.7852 31.4608 46.7847 31.4543 46.7842ZM33.3576 49.345C33.3576 49.3448 33.3576 49.3442 33.3576 49.3431Z" fill="black"/>
</svg>
