<svg width="24" height="24" viewBox="0 0 24 24" fill="none" xmlns="http://www.w3.org/2000/svg">
<path d="M2.86267 22.2007C2.86435 21.8827 3.05047 21.5935 4.32162 17.8923C2.50014 16.678 2.31074 16.6054 1.74437 14.3967C1.31468 12.8501 0.944744 11.0789 1.2408 9.36072C1.69811 6.70664 4.01329 4.5284 6.37754 3.44158C8.9462 2.2608 11.3316 2.13176 14.0572 2.74333C16.6155 3.31737 19.3409 4.4431 20.6441 5.77632C21.9938 7.15704 22.8677 8.74637 22.8659 11.0493C22.8641 13.4329 22.0721 15.8189 20.1702 17.2109C18.5652 18.3856 16.5294 19.1957 15.1047 19.5807C12.9126 20.1732 8.26152 19.5217 8.26152 19.5217C8.26152 19.5217 7.21648 19.9756 6.37752 20.5463C4.61802 21.7432 2.85731 23.2128 2.86267 22.2007Z" fill="#D4D4D4"/>
<path d="M6.21687 3.09263C8.87292 1.87168 11.3462 1.74141 14.1413 2.36857C15.4425 2.66053 16.788 3.09312 17.9777 3.62443C19.1616 4.15313 20.2189 4.79205 20.919 5.50821C22.3238 6.94536 23.2519 8.62696 23.25 11.0498C23.2481 13.5047 22.4324 16.0314 20.3967 17.5213C18.7433 18.7314 16.6605 19.5585 15.2049 19.9519C14.0406 20.2666 12.2709 20.2457 10.8374 20.1571C10.1113 20.1122 9.45478 20.0485 8.98016 19.9962C8.74299 19.9701 8.55091 19.9463 8.41768 19.9294C8.38029 19.9247 8.34731 19.9201 8.31951 19.9165C8.29833 19.9261 8.27388 19.9372 8.24655 19.9499C8.13865 19.9999 7.98538 20.0731 7.8068 20.1633C7.44773 20.3445 6.99306 20.5921 6.59322 20.8641C5.74203 21.4432 4.82518 22.1349 4.15378 22.5325C3.98153 22.6345 3.81517 22.7236 3.66084 22.7902C3.511 22.8548 3.34851 22.9087 3.19041 22.9204C3.02808 22.9324 2.81887 22.9013 2.65998 22.7322C2.51166 22.5743 2.47774 22.3688 2.47862 22.1991C2.47989 21.9585 2.55915 21.7326 2.75474 21.1859C2.95013 20.6399 3.2857 19.7164 3.86129 18.0463C3.1158 17.5503 2.61494 17.2118 2.25908 16.753C1.8573 16.2348 1.65273 15.5866 1.37208 14.4921V14.4915C0.940839 12.9378 0.551259 11.0995 0.862099 9.29555C1.34892 6.47064 3.78817 4.20911 6.21687 3.09263ZM13.9729 3.11854C11.3169 2.52261 9.0192 2.65021 6.53799 3.79078C4.23827 4.84794 2.04675 6.9433 1.61888 9.42645C1.37337 10.8518 1.61003 12.3322 1.9591 13.7101L2.11455 14.2944L2.11659 14.3012C2.40231 15.4155 2.576 15.9087 2.86588 16.2825C3.1636 16.6664 3.59821 16.9487 4.5349 17.5731L4.78102 17.7375L4.68489 18.017C4.04833 19.8705 3.68272 20.8713 3.47744 21.445C3.32483 21.8715 3.27339 22.0353 3.25586 22.122C3.28438 22.1122 3.31817 22.1016 3.35608 22.0852C3.46927 22.0364 3.60517 21.9649 3.76243 21.8718C4.40985 21.4884 5.25339 20.8466 6.16164 20.2287C6.60055 19.9302 7.08807 19.6657 7.46113 19.4774C7.64859 19.3828 7.80915 19.306 7.92339 19.2531C7.98055 19.2266 8.02677 19.2065 8.05838 19.1924C8.07397 19.1854 8.08604 19.1798 8.09452 19.176C8.09877 19.1742 8.10242 19.1723 8.10474 19.1713C8.1058 19.1708 8.10685 19.1708 8.10747 19.1706L8.10815 19.1699H8.10883L8.20769 19.1269L8.31473 19.1419C8.31518 19.142 8.3165 19.1418 8.31746 19.1419L8.36519 19.1488C8.39894 19.1533 8.44908 19.1596 8.51382 19.1678C8.64345 19.1843 8.83186 19.207 9.0647 19.2326C9.53064 19.284 10.1744 19.3462 10.8851 19.3901C12.3249 19.4791 13.9767 19.4879 15.0044 19.2101C16.3979 18.8335 18.387 18.0406 19.9433 16.9016C21.7115 15.6074 22.4798 13.3616 22.4816 11.0491C22.4833 8.86628 21.6639 7.36902 20.3694 6.04478C19.7662 5.42778 18.8089 4.83691 17.6648 4.32599C16.5265 3.81766 15.2299 3.40059 13.9729 3.11854Z" fill="black"/>
<path d="M8.83514 11.2194C9.76455 10.6347 10.5158 10.239 10.9423 10.0379C12.9779 9.07807 12.8089 9.35765 12.9402 8.31813C13.0174 7.8938 13.2583 7.54991 13.5038 7.11209C14.0333 6.55324 14.5329 6.2305 15.1789 6.03231C15.7142 5.86807 16.1805 5.68162 17.0157 6.17437C17.282 6.33149 17.727 6.79792 17.6494 6.85916C17.5718 6.92041 17.2687 7.07367 16.8706 7.22071L16.8694 7.22116C16.4721 7.36796 16.2057 7.46637 15.7142 7.80801C15.525 7.93952 15.7627 8.48699 15.8586 8.62441C16.155 9.04947 16.4163 9.44661 16.7841 9.38612C16.8617 9.37336 16.9351 9.32068 17.0157 9.27639C17.3248 9.10651 17.9964 8.56645 18.778 8.32365C18.8941 8.28756 19.3241 8.76833 19.3424 8.91189C19.4159 9.4907 19.206 10.1312 18.739 10.5847C18.0705 11.234 16.507 11.9933 15.1789 11.3807C14.3356 10.9919 14.5615 11.0745 13.7559 11.5844C13.2665 11.8942 12.616 12.2995 11.9339 12.6735C11.207 13.0722 10.9047 13.2984 10.4674 13.588C9.77027 14.0496 8.7356 14.6967 8.15071 15.0056C7.19005 15.5131 6.64817 15.7261 6.09509 15.5912C5.542 15.4563 5.07843 15.2562 4.86253 14.7436C4.57986 14.0725 4.59448 13.5708 5.3944 13.1363C5.8205 12.9048 6.04758 12.7614 6.50585 12.5205C7.31908 12.0929 8.12403 11.6668 8.83514 11.2194Z" fill="white"/>
<path d="M15.977 5.473C16.3491 5.46583 16.744 5.56876 17.2104 5.8439C17.388 5.94866 17.5946 6.13374 17.7415 6.29047C17.8158 6.36977 17.8906 6.45844 17.944 6.54205C17.9684 6.58023 18.0046 6.64208 18.0251 6.71591C18.0386 6.76421 18.0926 6.99826 17.8874 7.16043C17.8104 7.22118 17.6782 7.29143 17.5451 7.35474C17.3991 7.42424 17.2132 7.50375 17.0038 7.5811L17.0024 7.58178C16.6487 7.71248 16.4239 7.79504 16.0363 8.05357C16.0396 8.06979 16.0432 8.08922 16.0493 8.11085C16.067 8.17389 16.0923 8.24101 16.1188 8.2997C16.1319 8.32863 16.1444 8.35371 16.155 8.37333C16.1602 8.38297 16.1645 8.39074 16.1679 8.39651C16.1709 8.40139 16.1729 8.40398 16.1734 8.4047C16.3312 8.631 16.4467 8.79938 16.5627 8.91263C16.647 8.995 16.6903 9.00669 16.7099 9.0074C16.7121 9.00633 16.7151 9.0056 16.7181 9.00399C16.7295 8.99792 16.7428 8.99095 16.7624 8.97944C16.7802 8.96903 16.8049 8.95402 16.8306 8.9399C16.8912 8.90659 16.9767 8.85082 17.0999 8.76945C17.2176 8.69181 17.3602 8.59729 17.5185 8.50015C17.8343 8.30646 18.2291 8.09253 18.664 7.95744L18.7192 7.94381C18.8452 7.92241 18.9483 7.96346 18.9878 7.98062C19.0481 8.00689 19.101 8.04217 19.1412 8.07198C19.2236 8.13311 19.3066 8.21228 19.3778 8.28879C19.4502 8.36664 19.5219 8.45373 19.5789 8.53628C19.6073 8.57733 19.6356 8.62285 19.6594 8.66923C19.6743 8.69847 19.6964 8.74552 19.7112 8.80286L19.7235 8.86354L19.7357 8.99513C19.7793 9.6569 19.5248 10.3569 19.0062 10.8605C18.6267 11.229 18.0146 11.6115 17.3174 11.8232C16.6177 12.0355 15.7924 12.087 15.0177 11.7298C14.7964 11.6277 14.6742 11.5703 14.5855 11.5389C14.5595 11.5297 14.5427 11.5261 14.533 11.5239C14.5181 11.532 14.4852 11.5521 14.4191 11.5982C14.3211 11.6665 14.1719 11.7756 13.961 11.9091C13.4704 12.2196 12.8116 12.6302 12.1188 13.0102C11.4099 13.3989 11.1248 13.6132 10.6795 13.9081C9.98026 14.3712 8.93248 15.0271 8.33008 15.3453C7.39013 15.8418 6.71925 16.1388 6.00382 15.9644C5.42995 15.8244 4.80038 15.5852 4.50865 14.8926C4.35884 14.5369 4.24964 14.145 4.35048 13.7554C4.45584 13.3488 4.76131 13.0431 5.2109 12.7988C5.60645 12.5839 5.87679 12.4172 6.32698 12.1804C7.14226 11.7518 7.93431 11.3327 8.63075 10.8946C9.57181 10.3025 10.3365 9.89891 10.7784 9.69055C11.2886 9.44997 11.6703 9.28277 11.9347 9.16148C12.2146 9.03308 12.3451 8.96332 12.4174 8.90649C12.4593 8.87347 12.4714 8.85624 12.4869 8.79536C12.5134 8.6913 12.5226 8.56048 12.5592 8.27038L12.5606 8.26016L12.5626 8.24925C12.6549 7.74257 12.9498 7.3151 13.1687 6.92453L13.1919 6.88294L13.2246 6.84817C13.793 6.24832 14.3481 5.88556 15.0662 5.66527C15.3127 5.58961 15.6229 5.47989 15.977 5.473ZM15.992 6.24138C15.7705 6.24567 15.5798 6.311 15.2911 6.39956C14.7288 6.57211 14.2914 6.84769 13.8123 7.34588C13.5545 7.80157 13.3782 8.05619 13.318 8.38697C13.2905 8.60896 13.2718 8.82476 13.2308 8.98558C13.1774 9.19459 13.0793 9.3629 12.8926 9.50988C12.7362 9.63296 12.519 9.73828 12.2545 9.85963C11.9739 9.98833 11.613 10.1461 11.1056 10.3853C10.6946 10.5791 9.9572 10.9672 9.03982 11.5443C8.31405 12.0009 7.49539 12.4337 6.68424 12.8602C6.21797 13.1054 6.03427 13.2258 5.5777 13.4738C5.22748 13.6641 5.1256 13.827 5.09431 13.9476C5.05869 14.0851 5.08359 14.2794 5.21635 14.5947C5.35638 14.9271 5.65365 15.0887 6.18585 15.2185C6.5766 15.3138 6.99008 15.1846 7.97146 14.6662C8.53888 14.3665 9.56063 13.728 10.2555 13.2679C10.6845 12.9838 11.0046 12.7456 11.7493 12.3373C12.4202 11.9693 13.0626 11.5689 13.5505 11.26C13.7423 11.1386 13.8676 11.0466 13.9801 10.9682C14.0781 10.8999 14.2081 10.8098 14.3639 10.7725C14.5427 10.7298 14.7018 10.7649 14.8425 10.8148C14.9738 10.8614 15.1395 10.94 15.3395 11.0323C15.8929 11.2875 16.5134 11.2652 17.0945 11.0889C17.678 10.9118 18.1826 10.5904 18.4717 10.3096C18.8411 9.95083 19.008 9.44997 18.9646 9.00194C18.9599 8.99433 18.9548 8.98407 18.9469 8.97263C18.9146 8.92589 18.8677 8.86807 18.816 8.81241C18.7905 8.78503 18.7661 8.76043 18.7444 8.74014C18.4511 8.8483 18.1711 9.00074 17.9201 9.15466C17.7744 9.24404 17.6422 9.3314 17.5226 9.41033C17.4087 9.48556 17.2941 9.56121 17.2002 9.61283C17.1856 9.62082 17.1713 9.62989 17.1504 9.64214C17.1313 9.6533 17.1055 9.66815 17.0788 9.68237C17.0274 9.70971 16.9462 9.74842 16.8463 9.76486C16.4878 9.82383 16.2133 9.64492 16.0261 9.46215C15.8455 9.28572 15.6819 9.04309 15.5434 8.84445C15.466 8.73347 15.3664 8.52038 15.3096 8.31743C15.2808 8.21467 15.2547 8.08576 15.2598 7.95676C15.2646 7.83539 15.3024 7.62707 15.495 7.49314L15.6839 7.36633C16.1019 7.09621 16.3772 6.99388 16.7365 6.86113L16.7372 6.86044C16.8662 6.81278 16.9836 6.76322 17.0849 6.71863C16.9872 6.62543 16.8868 6.54443 16.8204 6.50523C16.4517 6.28773 16.1956 6.23746 15.992 6.24138Z" fill="black"/>
</svg>
