<svg width="73" height="60" viewBox="0 0 73 60" fill="none" xmlns="http://www.w3.org/2000/svg">
<path fill-rule="evenodd" clip-rule="evenodd" d="M16.1458 1.53903C21.1584 0.430216 26.5037 -0.322079 29.8739 0.136953L30.2696 0.190843L30.5861 0.434315C32.771 2.11505 33.5125 2.96443 35.0536 4.72985C35.4403 5.17273 35.8772 5.67327 36.3999 6.25904C36.8794 5.63955 37.4811 4.89064 38.143 4.14477C38.7756 3.43195 39.4835 2.6983 40.2153 2.06717C40.9323 1.44878 41.7471 0.862873 42.5953 0.523591L42.8635 0.416306H43.1524C46.667 0.416306 50.4151 1.35994 53.9871 2.42716C55.0875 2.75594 56.166 3.09443 57.2225 3.42604C59.6778 4.19664 62.0147 4.93009 64.2338 5.4183C64.7071 5.52243 66.5919 6.13342 68.2271 6.77312C69.0519 7.09576 69.9008 7.45905 70.5207 7.80529C70.8057 7.96446 71.1728 8.18993 71.4513 8.47886C71.5813 8.61371 71.8355 8.906 71.9386 9.34472C72.0724 9.91462 71.8959 10.4884 71.498 10.8863L71.4722 10.9121L71.4279 10.9564C70.8079 11.5766 70.0311 12.3538 69.1115 12.9449C68.507 13.3335 67.9172 13.9403 67.1728 14.7061C66.956 14.9291 66.7261 15.1657 66.4789 15.4142C65.8476 16.049 65.0744 16.7899 64.1721 17.3362C64.6746 17.7935 65.2107 18.1774 65.8499 18.6352C66.1021 18.8157 66.3703 19.0078 66.6588 19.2204C66.957 19.4401 67.2887 19.6713 67.639 19.9155C68.7962 20.7221 70.1574 21.6709 71.1907 22.8189C71.4198 23.0736 71.7991 23.6097 72.0611 24.1721C72.1907 24.4502 72.3466 24.8491 72.3875 25.2888C72.4286 25.7312 72.3656 26.507 71.6785 27.0566C71.2326 27.4133 70.7187 27.5972 70.2927 27.7026C69.8543 27.8111 69.4008 27.8622 68.9961 27.8892C68.5881 27.9164 68.185 27.9215 67.8491 27.9245L67.7514 27.9254C67.4429 27.928 67.2212 27.9299 67.0497 27.9411C66.596 27.9705 66.1255 28.0209 65.6483 28.0894C65.6395 28.2518 65.6275 28.4065 65.6176 28.5333L65.6154 28.5615C65.5999 28.7614 65.5935 28.8607 65.5935 28.916C65.5935 30.0809 65.5715 31.2416 65.5497 32.3858L65.5496 32.3927C65.5277 33.5438 65.5062 34.6785 65.5062 35.8127C65.5062 36.1975 65.5087 36.5881 65.5112 36.9834C65.5235 38.8971 65.5364 40.9216 65.2702 42.9351C65.1614 43.7573 65.1208 44.5943 65.0803 45.5008L65.0755 45.6087C65.0374 46.4648 64.9964 47.3862 64.8842 48.3122C64.8155 48.8791 64.6676 49.6464 64.132 50.2688C63.542 50.9545 62.7349 51.1901 61.9657 51.2432C60.4833 51.3454 58.9844 51.6755 57.4897 52.1434C57.1362 52.254 56.7857 52.3526 56.4563 52.4447L56.3857 52.4644C56.0766 52.5508 55.787 52.6317 55.4995 52.7192C54.7 52.9625 53.8531 53.0668 53.1582 53.1524C52.9575 53.1772 52.7694 53.2003 52.5989 53.2248C51.3113 53.4098 50.0485 53.6486 48.7487 53.8943C48.2183 53.9946 47.6816 54.0961 47.1346 54.1956C46.3928 54.3304 45.8173 54.4632 45.3282 54.7002C45.1469 54.788 44.986 54.8743 44.7984 54.9749C44.6949 55.0304 44.5832 55.0903 44.4556 55.1572C44.1313 55.3271 43.744 55.5192 43.3154 55.6687C42.8145 55.8434 42.3151 56.0772 41.7699 56.3524C41.6127 56.4317 41.4458 56.5176 41.2729 56.6067C40.8798 56.8091 40.4556 57.0275 40.0439 57.2206C39.2061 57.6136 38.3623 58.0389 37.5668 58.4823C36.5157 59.0681 35.4497 59.0429 34.7441 59.0261C34.6375 59.0236 34.5391 59.0213 34.4503 59.0213C32.9756 59.0213 31.6604 58.6021 30.5113 58.1999C29.423 57.819 28.2675 57.5998 27.0019 57.3866C26.8441 57.3601 26.6841 57.3335 26.5221 57.3067C25.4224 57.1243 24.235 56.9274 23.0821 56.6105C22.7137 56.5093 22.3398 56.408 21.9618 56.3055C19.582 55.6606 17.0381 54.9712 14.6787 53.9818C14.0087 53.7008 13.384 53.3484 12.8445 53.0441L12.8138 53.0268C12.2408 52.7036 11.7574 52.4329 11.2643 52.2261C11.1805 52.191 11.0634 52.1503 10.8835 52.0919C10.852 52.0817 10.818 52.0708 10.7823 52.0593C10.6362 52.0123 10.4597 51.9554 10.2906 51.8954C9.91295 51.7614 9.27008 51.515 8.78555 51.0305C8.03355 50.2785 8.10337 49.2606 8.11661 49.0675C8.11759 49.0532 8.11827 49.0434 8.11827 49.0386C8.11827 48.3362 8.1331 47.5731 8.26365 46.7667C8.31055 46.477 8.35833 46.1992 8.40454 45.9305C8.57303 44.9509 8.7207 44.0923 8.72944 43.2182C8.73779 42.3829 8.73503 41.5556 8.73222 40.7168C8.7308 40.2919 8.72937 39.864 8.72937 39.4308C8.72937 39.138 8.73117 38.8525 8.73294 38.5729C8.74056 37.3675 8.74748 36.2724 8.60601 35.181C8.39886 33.583 8.4219 32.5206 8.44827 31.3045C8.45766 30.8716 8.46747 30.4192 8.46747 29.9163C8.46747 29.8997 8.46774 29.8831 8.46828 29.8667C7.61163 29.4939 6.76198 29.109 5.92209 28.7284C5.26334 28.43 4.6106 28.1342 3.9652 27.8493C3.7505 27.7545 3.47869 27.63 3.22386 27.4772C2.98302 27.3327 2.63585 27.0931 2.37108 26.7169C2.06495 26.2819 1.90604 25.7114 2.04773 25.0912C2.17127 24.5505 2.4888 24.1296 2.7879 23.8215C3.91452 22.6607 4.95302 21.5716 5.69744 20.3752C6.40205 19.2428 7.02341 18.2549 7.62617 17.4914C7.75508 17.3281 7.88795 17.1687 8.02603 17.0151C7.87603 16.8922 7.69606 16.7675 7.45689 16.6018C7.37048 16.5419 7.27635 16.4767 7.17311 16.4042C6.7363 16.0978 6.11152 15.642 5.66529 14.9727C4.90061 13.8256 3.90865 12.7698 2.82227 11.7822C2.54107 11.5265 2.22421 11.3116 1.86275 11.0772C1.83085 11.0565 1.79671 11.0345 1.76075 11.0114C1.46264 10.8197 1.03944 10.5476 0.728477 10.246C0.323666 9.85349 -0.20701 9.09662 0.0831879 8.07755C0.299672 7.31733 0.909155 6.76002 1.4347 6.35392C1.86879 6.01848 2.30158 5.85193 2.61503 5.74528C2.74118 5.70236 2.83572 5.67192 2.91228 5.64728C3.05724 5.60061 3.13773 5.5747 3.24626 5.52406C6.06107 4.21048 11.0899 2.65743 16.1458 1.53903ZM14.8418 16.1202C15.2579 16.2843 15.6941 16.47 16.1525 16.6738C21.3046 18.9636 26.8673 20.9189 32.325 21.9801C32.8895 22.0899 33.4167 22.2669 33.8558 22.4187C33.9125 22.4383 33.9676 22.4574 34.0214 22.4761C34.4119 22.6116 34.73 22.722 35.0533 22.8039C35.2549 22.8549 35.6766 22.9798 36.0824 23.1902C36.282 23.2936 36.5566 23.4576 36.8006 23.7027C36.8735 23.7759 36.9559 23.8691 37.0353 23.9818L37.4664 23.9279C40.8769 23.5016 44.2145 22.0749 47.7172 20.4262C48.1823 20.2073 48.6511 19.984 49.1233 19.7591C51.2403 18.7507 53.4266 17.7094 55.6564 16.8826C51.5352 15.7841 47.607 14.1665 43.771 12.5868C42.1823 11.9326 40.6094 11.2849 39.0451 10.6832C38.7555 10.5718 38.4399 10.5038 37.9872 10.4062C37.9181 10.3913 37.8459 10.3757 37.77 10.3592C37.5729 10.3163 37.3493 10.2663 37.112 10.2014C37.1029 10.2072 37.0944 10.2127 37.0863 10.2177C36.7889 10.4037 36.4647 10.5222 36.2291 10.597C35.8034 10.7323 35.1646 10.8616 35.1968 10.8535C33.1388 11.368 31.0548 11.8398 28.9728 12.3111C24.1346 13.4063 19.3073 14.499 14.8418 16.1202ZM33.9865 8.0628C33.4517 7.46279 33.0191 6.9668 32.6474 6.54057C31.3135 5.01118 30.763 4.37994 29.0823 3.06454C26.2428 2.78698 21.5769 3.41015 16.7938 4.46822C11.8299 5.56626 7.0432 7.06274 4.51492 8.24261C4.22078 8.37987 3.88672 8.48695 3.69243 8.54923C3.64702 8.56379 3.60924 8.5759 3.58139 8.58538C3.57069 8.58902 3.56037 8.59258 3.55041 8.59605C3.91441 8.83291 4.38648 9.14978 4.84028 9.56233C6.02958 10.6435 7.21226 11.8848 8.16144 13.3086C8.26709 13.467 8.46824 13.6482 8.89615 13.9484C8.9511 13.987 9.0127 14.0293 9.07934 14.075C9.37614 14.2788 9.77292 14.5513 10.128 14.8677C10.1626 14.8568 10.204 14.8425 10.2528 14.8237C10.4511 14.7474 10.6724 14.6373 10.9481 14.4946C10.9754 14.4805 11.0039 14.4656 11.0335 14.4502C11.2637 14.3305 11.5577 14.1777 11.8274 14.0673C17.0506 11.9306 22.9357 10.5986 28.5404 9.33014C30.398 8.90971 32.2248 8.49626 33.9865 8.0628ZM39.1649 7.59483C39.4734 7.66909 39.8056 7.76147 40.122 7.88316C41.8338 8.54154 43.5009 9.22725 45.146 9.9039C50.3986 12.0644 55.4268 14.1325 60.9676 14.9241C61.122 14.9461 61.2768 14.9758 61.395 14.9985L61.413 15.0019C61.5463 15.0274 61.645 15.046 61.7375 15.0593C61.8728 15.0788 61.9306 15.0762 61.9407 15.076C62.603 14.9001 63.3544 14.3016 64.3518 13.2987C64.5165 13.1331 64.6908 12.9529 64.8729 12.7646C65.6473 11.9638 66.5633 11.0166 67.4893 10.4213C67.6987 10.2867 67.9018 10.1342 68.1046 9.96566C67.8099 9.83745 67.4823 9.70314 67.1342 9.56695C66.3507 9.26046 65.5207 8.96662 64.843 8.7399C64.5046 8.62671 64.2088 8.53178 63.98 8.4615C63.8654 8.4263 63.7711 8.39836 63.6987 8.37784C63.6193 8.35533 63.5892 8.34823 63.5892 8.34823C61.2353 7.83038 58.6951 7.03331 56.1815 6.2446C55.1545 5.92234 54.1319 5.60146 53.1282 5.3016C49.7054 4.27895 46.4308 3.47378 43.4697 3.41925C43.1077 3.60534 42.6703 3.91146 42.1746 4.339C41.5785 4.85308 40.9677 5.48147 40.3869 6.13601C39.9441 6.63497 39.5305 7.13541 39.1649 7.59483ZM33.4703 25.4588C33.3162 25.4073 33.1686 25.3559 33.0306 25.3079C32.9775 25.2894 32.9258 25.2714 32.8757 25.2541C32.4397 25.1033 32.0891 24.9904 31.7524 24.9249C26.0093 23.8082 20.2246 21.7665 14.9341 19.4152C13.6799 18.8578 12.808 18.5383 12.1527 18.4002C11.5288 18.2686 11.2175 18.3266 11.0108 18.4143C10.7724 18.5155 10.4557 18.7489 9.9808 19.3504C9.50202 19.9568 8.97145 20.792 8.24461 21.9601C7.47554 23.1961 6.48808 24.2972 5.55617 25.2731C6.12588 25.5268 6.68251 25.779 7.23282 26.0285C8.55031 26.6256 9.83155 27.2063 11.1692 27.7507C15.8027 29.6364 22.1975 31.7823 27.058 31.7823C27.2348 31.7823 27.4414 31.7975 27.5926 31.8086C27.6063 31.8096 27.6195 31.8106 27.6323 31.8115C27.8143 31.8248 27.9697 31.8353 28.113 31.8375C28.1481 31.8381 28.1793 31.838 28.2066 31.8376C28.357 31.6666 28.4698 31.482 28.6551 31.1786C28.7432 31.0344 28.8477 30.8633 28.9803 30.6542C29.6575 29.5869 30.4609 28.6953 31.2202 27.8972C31.4045 27.7035 31.584 27.5174 31.7591 27.3358C32.3315 26.7424 32.8573 26.1972 33.3516 25.593C33.3909 25.545 33.4313 25.4999 33.4703 25.4588ZM28.3626 31.8272L28.3586 31.8278C28.3725 31.8244 28.3749 31.8249 28.3626 31.8272ZM34.9526 28.3245C34.5877 28.7256 34.2175 29.1092 33.8661 29.4733C33.7038 29.6414 33.5455 29.8054 33.3937 29.9651C32.6644 30.7316 32.0278 31.4507 31.5136 32.2613C31.4559 32.3522 31.3953 32.4528 31.3305 32.5604C31.0356 33.0503 30.6518 33.6877 30.0396 34.2443C29.6432 34.6046 29.1818 34.727 28.9032 34.778C28.5998 34.8336 28.3003 34.8408 28.066 34.8371C27.8258 34.8334 27.5902 34.8164 27.4147 34.8036C27.2104 34.7888 27.1147 34.7823 27.058 34.7823C22.0935 34.7823 16.0091 32.8574 11.4553 31.0924C11.4524 31.241 11.4494 31.383 11.4464 31.5199C11.4219 32.6494 11.4048 33.4355 11.5811 34.7953C11.7514 36.1086 11.7417 37.4529 11.7331 38.6685C11.7312 38.929 11.7294 39.1836 11.7294 39.4308C11.7294 39.8424 11.7308 40.2594 11.7321 40.6793C11.735 41.5306 11.7378 42.3937 11.7293 43.2482C11.7179 44.389 11.5158 45.5546 11.3416 46.5597C11.3002 46.7984 11.2604 47.0281 11.2251 47.2462C11.1365 47.7931 11.1189 48.3461 11.1183 49.0021C11.1692 49.0226 11.2275 49.0446 11.2941 49.0682C11.417 49.1119 11.5383 49.151 11.6789 49.1963C11.7205 49.2097 11.7638 49.2236 11.8093 49.2384C11.9892 49.2967 12.2133 49.371 12.4245 49.4595C13.0927 49.7398 13.7164 50.0916 14.2553 50.3956L14.2876 50.4138C14.8604 50.7368 15.3446 51.0079 15.8389 51.2152C17.9997 52.1213 20.3292 52.7536 22.722 53.403C23.1055 53.5071 23.4907 53.6116 23.8771 53.7178C24.8683 53.9902 25.8887 54.1599 27.0015 54.345C27.1656 54.3723 27.3317 54.4 27.5 54.4283C28.7731 54.6427 30.1511 54.8954 31.5023 55.3683C32.6242 55.761 33.5237 56.0213 34.4503 56.0213C34.6181 56.0213 34.765 56.0222 34.8949 56.0229C35.0563 56.0239 35.1914 56.0247 35.3071 56.0235C35.2227 53.8306 35.3459 51.7027 35.5674 49.5587C35.6383 48.8723 35.6734 48.1778 35.7109 47.4361L35.7155 47.3462C35.754 46.5852 35.7966 45.7753 35.8892 44.9602C36.0099 43.8981 35.995 42.8499 35.9788 41.7014C35.9729 41.289 35.9669 40.8637 35.9669 40.4202C35.9669 39.0188 35.8686 37.607 35.6966 36.1982C35.5035 34.6158 35.3285 33.032 35.187 31.4345C35.149 31.0047 35.125 30.5515 35.1027 30.1307C35.0933 29.9528 35.0842 29.7807 35.0744 29.6186C35.0465 29.1535 35.0118 28.7266 34.9526 28.3245ZM38.2806 54.7373C38.4441 54.6584 38.6074 54.5808 38.77 54.5045C39.1315 54.335 39.4703 54.1604 39.8359 53.972C40.021 53.8766 40.2129 53.7777 40.4181 53.6742C40.9982 53.3814 41.6374 53.0767 42.3273 52.8361C42.5443 52.7604 42.7761 52.6503 43.0632 52.4998C43.1371 52.4611 43.2212 52.4161 43.3115 52.3678C43.5298 52.2509 43.7844 52.1145 44.02 52.0004C44.9094 51.5695 45.8415 51.3815 46.598 51.244C47.0993 51.1528 47.6093 51.0564 48.1251 50.9589C49.4505 50.7083 50.815 50.4503 52.1723 50.2553C52.4723 50.2122 52.7397 50.179 52.9856 50.1484C53.6107 50.0707 54.0966 50.0103 54.6261 49.8492C54.9483 49.7511 55.2701 49.6612 55.5728 49.5767L55.6487 49.5554C55.9797 49.4629 56.2893 49.3756 56.5935 49.2804C58.2424 48.7642 59.9794 48.373 61.7593 48.2503C61.7979 48.2476 61.8307 48.2443 61.8583 48.2407C61.8737 48.1735 61.8904 48.0799 61.906 47.9512C62.0042 47.1409 62.0408 46.3211 62.0804 45.4334L62.0833 45.367C62.1232 44.4739 62.1678 43.5119 62.2961 42.5418C62.5326 40.7527 62.5222 38.9752 62.5111 37.0681C62.5087 36.6561 62.5062 36.2381 62.5062 35.8127C62.5062 34.6477 62.5283 33.487 62.55 32.3428L62.5501 32.3357C62.572 31.1845 62.5935 30.05 62.5935 28.916C62.5935 28.8617 62.5949 28.805 62.5972 28.748C62.319 28.8282 62.046 28.9129 61.7805 29.0015C60.8579 29.309 59.8977 29.6347 58.9127 29.9689C54.7225 31.3904 50.0832 32.9643 45.9784 33.9365C44.9285 34.1852 44.0653 33.9416 43.3657 33.4534C43.0605 33.2404 42.8054 32.9949 42.6053 32.7913C42.474 32.6578 42.3957 32.5747 42.3239 32.4986C42.245 32.4148 42.1739 32.3394 42.0488 32.2143C41.8111 31.9766 41.4562 31.5635 41.0842 31.1293C41.0381 31.0755 40.9911 31.0206 40.9432 30.9646C40.5818 30.5424 40.17 30.0613 39.728 29.5619C39.1124 28.8664 38.4734 28.1763 37.8737 27.5956C37.9843 28.2306 38.0342 28.8594 38.069 29.4387C38.0816 29.6482 38.0921 29.846 38.1021 30.0369C38.1229 30.4303 38.1421 30.7942 38.1753 31.1699C38.313 32.725 38.4841 34.2743 38.6745 35.8347C38.8589 37.3452 38.9669 38.8796 38.9669 40.4202C38.9669 40.7664 38.9722 41.1305 38.9776 41.5067C38.9951 42.7056 39.0143 44.029 38.87 45.2989C38.7894 46.0079 38.7506 46.7288 38.7116 47.4979L38.7058 47.6123C38.6694 48.3337 38.6308 49.0999 38.5515 49.867C38.3805 51.5225 38.2749 53.1277 38.2806 54.7373ZM40.8291 26.3199C41.2305 26.7426 41.6177 27.1706 41.9745 27.5736C42.4341 28.093 42.8627 28.5937 43.2231 29.0148C43.2709 29.0705 43.3174 29.1248 43.3626 29.1776C43.7713 29.6547 44.0349 29.9578 44.1702 30.093C44.285 30.2078 44.3922 30.32 44.4865 30.4192L44.5232 30.4577C44.6052 30.5439 44.6752 30.6176 44.7447 30.6882C44.9061 30.8524 45.0072 30.9406 45.0826 30.9932C45.1243 31.0224 45.1463 31.032 45.1534 31.0345C45.1643 31.0357 45.2044 31.0368 45.287 31.0173C49.2387 30.0813 53.7008 28.5682 57.8843 27.1494C58.8864 26.8096 59.8725 26.4752 60.8318 26.1554C62.6923 25.5352 64.875 25.076 66.8553 24.9474C67.1177 24.9303 67.4315 24.9278 67.7156 24.9255C67.7517 24.9252 67.7873 24.925 67.8223 24.9246C68.1568 24.9217 68.4833 24.9167 68.7966 24.8958C68.868 24.8911 68.9366 24.8856 69.0022 24.8794C68.9755 24.8438 68.9607 24.8258 68.9607 24.8258C68.1795 23.9577 67.231 23.2952 66.1487 22.5393C65.7437 22.2563 65.32 21.9603 64.8792 21.6356C64.6694 21.481 64.4515 21.3255 64.2283 21.1662C63.3408 20.5329 62.3707 19.8406 61.5022 18.9143C61.2387 18.6332 61.0539 18.5844 60.8341 18.5761C60.4906 18.563 60.0554 18.6596 59.2675 18.8694C56.3426 19.6481 53.4736 21.0127 50.4435 22.4539C49.9649 22.6815 49.4823 22.9111 48.9948 23.1405C46.3948 24.3643 43.6709 25.5762 40.8291 26.3199Z" fill="black"/>
</svg>
