<svg width="28" height="28" viewBox="0 0 16 28" fill="none" xmlns="http://www.w3.org/2000/svg">
<g clip-path="url(#clip0_523_2)">
<path d="M3.11132 6.32869C3.53816 5.3782 4.06584 4.44954 4.61423 3.54352C5.25044 2.49241 5.43095 1.35965 6.89938 1.35965C9.11146 1.35965 14.3233 0.344792 15.667 1.72463C16.3014 2.37613 15.8917 3.14227 15.5692 3.67515C14.5708 5.32462 13.8678 7.07454 12.7915 8.69803C12.618 8.95972 11.1142 10.9326 11.6761 11.1182C12.1482 11.2742 12.6118 11.3217 13.1283 11.3217C13.688 11.3217 14.2129 11.4145 14.7688 11.4294C15.0803 11.4377 15.4714 11.4315 15.4714 11.7255C15.4714 12.6557 14.0165 13.6303 13.4108 14.4C11.7121 16.5588 10.4875 18.9452 8.80065 21.1161C7.505 22.7836 6.30851 24.6321 4.61423 26.0523C4.26437 26.3455 4.00353 26.6833 3.60746 26.9378C3.2824 27.1466 3.45677 26.7766 3.47709 26.6087C3.54308 26.0635 3.67627 25.528 3.81751 24.9932C4.07926 24.0022 4.38635 23.0129 4.58526 22.0106C4.79845 20.9364 4.90242 19.8404 5.17194 18.7767C5.64984 16.8905 6.70344 15.02 6.18595 13.0658C5.99006 12.326 4.15208 12.5063 3.44812 12.5063C2.8756 12.5063 2.25451 12.565 1.68808 12.4944C1.54667 12.4767 1 12.4886 1 12.3179V11.9589C1 11.226 1.35898 10.4506 1.60116 9.75407C2.00787 8.58441 2.60057 7.46603 3.11132 6.32869Z" fill="#E2E2E2"/>
<path fill-rule="evenodd" clip-rule="evenodd" d="M13.5473 0.0939115C14.2791 0.199898 15.022 0.423584 15.5003 0.935851C15.9707 1.4397 16.0602 2.02176 15.9672 2.54073C15.8823 3.0147 15.6461 3.43645 15.488 3.70885C15.0648 4.43801 14.6969 5.18686 14.3176 5.9588C14.2679 6.0599 14.218 6.1614 14.1678 6.2633C13.7383 7.13494 13.2865 8.02969 12.7357 8.89624C12.7017 8.9498 12.6486 9.02732 12.5829 9.12334C12.413 9.37169 12.1584 9.74373 11.9292 10.1445C11.8435 10.2944 11.773 10.4293 11.72 10.5441C11.9803 10.5951 12.2541 10.6147 12.564 10.6147C12.8708 10.6147 13.1631 10.6413 13.4299 10.667C13.4521 10.6692 13.4741 10.6713 13.4959 10.6734C13.7436 10.6975 13.9682 10.7193 14.1977 10.7257C14.2102 10.726 14.2243 10.7263 14.24 10.7266C14.3695 10.7293 14.6009 10.7341 14.7981 10.7886C14.9168 10.8214 15.0877 10.8876 15.2335 11.0373C15.3977 11.206 15.479 11.428 15.479 11.6609C15.479 12.0635 15.3294 12.423 15.1541 12.7166C14.9772 13.0127 14.7454 13.2894 14.5177 13.5359C14.3446 13.7233 14.1575 13.9103 13.9859 14.0818C13.9328 14.1348 13.8812 14.1863 13.832 14.236C13.6128 14.4569 13.4386 14.6413 13.3176 14.8016C12.5009 15.8841 11.7953 17.0274 11.0741 18.2007L11.0336 18.2666C10.3301 19.4113 9.60931 20.5842 8.77393 21.7054C8.50514 22.0662 8.23581 22.4431 7.96098 22.8276C6.97347 24.2095 5.91507 25.6906 4.55678 26.878C4.44564 26.9752 4.35036 27.0727 4.2378 27.1878C4.19757 27.2289 4.15512 27.2723 4.10896 27.3188C3.94441 27.4844 3.74847 27.6711 3.50246 27.836C3.44336 27.8756 3.36854 27.9202 3.28346 27.9524C3.21018 27.9801 3.04898 28.0301 2.85815 27.9757C2.61999 27.9077 2.48036 27.723 2.42137 27.5554C2.37344 27.4192 2.37699 27.2969 2.38033 27.2415C2.38694 27.1321 2.41433 27.0214 2.42632 26.973L2.42814 26.9656C2.44344 26.9034 2.44696 26.8872 2.44728 26.8873C2.44738 26.8873 2.4472 26.8887 2.44696 26.8908C2.51751 26.283 2.65872 25.6953 2.79832 25.1441C2.8777 24.8307 2.95911 24.5248 3.03935 24.2234C3.22914 23.5104 3.4124 22.8219 3.54688 22.1152C3.62785 21.6896 3.69201 21.2629 3.75836 20.8216C3.77574 20.7061 3.79327 20.5895 3.81128 20.4717C3.89689 19.912 3.99241 19.3333 4.13235 18.7573C4.25649 18.2463 4.41678 17.7413 4.57198 17.2583C4.58183 17.2277 4.59167 17.1971 4.60147 17.1666C4.74837 16.7098 4.88888 16.2729 5.00315 15.8359C5.24219 14.9218 5.34587 14.0781 5.14438 13.2433C5.13197 13.2355 5.11212 13.2246 5.08184 13.2115C4.95931 13.1587 4.76562 13.1174 4.50645 13.0951C4.13965 13.0634 3.77127 13.0751 3.44194 13.0855C3.29139 13.0903 3.14899 13.0948 3.01863 13.0948C2.88275 13.0948 2.72736 13.0998 2.56068 13.1051C2.13804 13.1185 1.64273 13.1342 1.20835 13.0777C1.20907 13.0778 1.20947 13.0778 1.20947 13.0778C1.20946 13.0779 1.20118 13.0771 1.17802 13.0756C1.16253 13.0747 1.14901 13.0739 1.13329 13.073C1.11951 13.0723 1.10405 13.0714 1.08409 13.0702C1.01142 13.0659 0.911838 13.0592 0.811734 13.0453C0.721824 13.0328 0.582412 13.0085 0.450659 12.9489C0.355016 12.9057 0 12.7196 0 12.2701V11.9009C0 11.4273 0.110298 10.9665 0.235999 10.5596C0.307711 10.3275 0.40152 10.0643 0.486294 9.82654C0.538957 9.67881 0.588133 9.54087 0.62636 9.42621C0.917478 8.55304 1.30984 7.68809 1.68472 6.86165C1.84069 6.51781 1.99364 6.18064 2.13502 5.85232C2.5709 4.84004 3.106 3.85945 3.65132 2.91983C3.77061 2.71429 3.87111 2.50712 3.97957 2.28354C4.00032 2.24077 4.02136 2.1974 4.04288 2.15332C4.17046 1.892 4.31676 1.60209 4.50229 1.34182C4.69285 1.07449 4.93548 0.822234 5.26597 0.641126C5.59722 0.459602 5.97959 0.369876 6.42181 0.369876C6.93444 0.369876 7.63511 0.307934 8.4526 0.231492C8.50793 0.226317 8.56373 0.221085 8.61995 0.215812C9.38156 0.14439 10.2206 0.0657064 11.0376 0.0260948C11.9118 -0.0162913 12.7901 -0.0157591 13.5473 0.0939115ZM8.56053 1.48829C7.75952 1.5632 6.99981 1.63171 6.42181 1.63171C6.14005 1.63171 5.95718 1.6876 5.82821 1.75828C5.69847 1.82937 5.58591 1.9359 5.47255 2.09492C5.35417 2.261 5.24784 2.465 5.12036 2.72612C5.10183 2.76408 5.0828 2.80335 5.06325 2.8437C4.95511 3.06691 4.83098 3.32313 4.68568 3.57348C4.1495 4.49735 3.64395 5.42682 3.23804 6.36948C3.07491 6.74833 2.90913 7.11357 2.74641 7.47208C2.38435 8.26977 2.03742 9.03413 1.76847 9.84083C1.70924 10.0185 1.65309 10.1747 1.59884 10.3257C1.52573 10.5291 1.45606 10.723 1.38693 10.9468C1.28731 11.2692 1.22338 11.5559 1.21133 11.8137C1.22537 11.8145 1.23889 11.8153 1.24984 11.816C1.27778 11.8177 1.319 11.8205 1.35789 11.8255C1.697 11.8696 2.03142 11.8585 2.40741 11.846C2.5984 11.8397 2.80012 11.833 3.01863 11.833C3.09122 11.833 3.19346 11.8298 3.31545 11.826C3.66176 11.8153 4.16734 11.7996 4.60624 11.8375C4.91108 11.8639 5.25009 11.9188 5.5434 12.0452C5.83472 12.1708 6.18551 12.4158 6.30278 12.8776C6.59757 14.0386 6.43636 15.1485 6.16975 16.1681C6.04595 16.6415 5.89485 17.1112 5.7504 17.5603C5.73972 17.5935 5.72908 17.6265 5.71849 17.6595C5.5623 18.1456 5.416 18.6085 5.30452 19.0673C5.17871 19.5852 5.09008 20.117 5.00542 20.6705C4.98857 20.7807 4.97182 20.8922 4.95492 21.0046C4.88817 21.4488 4.81919 21.9078 4.73298 22.3609C4.58919 23.1166 4.38672 23.8774 4.19191 24.6095C4.11448 24.9004 4.03827 25.1868 3.96744 25.4665C3.93691 25.5871 3.90722 25.7059 3.87885 25.8235C5.06984 24.7569 5.99139 23.4689 6.93998 22.1431C7.22782 21.7408 7.51815 21.335 7.81926 20.9309C8.62065 19.8553 9.31597 18.724 10.0281 17.5653L10.0562 17.5195C10.7735 16.3526 11.5091 15.1587 12.3674 14.0211C12.5451 13.7857 12.7741 13.5479 12.9919 13.3284C13.0493 13.2705 13.1062 13.2136 13.1625 13.1574C13.3302 12.9898 13.4924 12.8277 13.6471 12.6602C13.8527 12.4376 14.0169 12.2349 14.1278 12.0493C14.1407 12.0277 14.1525 12.0069 14.1632 11.987C13.8923 11.9794 13.6291 11.9537 13.3887 11.9303C13.365 11.928 13.3416 11.9258 13.3185 11.9235C13.0515 11.8977 12.809 11.8765 12.564 11.8765C12.0163 11.8765 11.4897 11.8241 10.9424 11.6355C10.8083 11.5893 10.6794 11.5046 10.5795 11.3747C10.4823 11.2483 10.4365 11.1102 10.4171 10.9918C10.3815 10.7737 10.4259 10.5656 10.467 10.4231C10.5534 10.1233 10.725 9.78786 10.8907 9.49804C11.1547 9.03626 11.5044 8.52603 11.6564 8.30433C11.6932 8.25059 11.7184 8.2138 11.728 8.19877C12.2384 7.39574 12.6639 6.55589 13.0924 5.68627C13.1419 5.58593 13.1914 5.48508 13.2411 5.38384C13.6183 4.61605 14.0067 3.82529 14.4536 3.0552C14.6136 2.77959 14.7383 2.5334 14.7785 2.30892C14.8107 2.12945 14.7893 1.98257 14.6342 1.81641C14.45 1.61917 14.0537 1.44119 13.3811 1.34377C12.7339 1.25003 11.9426 1.24542 11.0937 1.28657C10.304 1.32486 9.48976 1.40119 8.72304 1.47307C8.66862 1.47817 8.61444 1.48325 8.56053 1.48829Z" fill="black"/>
</g>
<defs>
<clipPath id="clip0_523_2">
<rect width="16" height="28" fill="white"/>
</clipPath>
</defs>
</svg>
