<svg id="Calque_1" data-name="Calque 1" xmlns="http://www.w3.org/2000/svg" viewBox="0 0 234.34 29.67"><defs><style>.cls-1{fill:#8ec685;}</style></defs><title>highlight stroke local community</title><path class="cls-1" d="M0,10.18H0A11.89,11.89,0,0,0,8.13,20.63c3.07,1,6.09,2.24,9.19,3.14,7.2,2.11,14.81,2.45,22.26,3.1l22,1.76c7.81.61,15.67,1.37,23.5.89,17-1,31-5.25,47.94-3.37,7.55.84,19.41.35,27,0,15.95-.72,26.58-.78,40.89-.29,10,.35,20.14,2.94,29.7.15a5.49,5.49,0,0,0,2.87-1.62,5.72,5.72,0,0,0,.86-3.46,63.39,63.39,0,0,0-.45-9.14c-.19-1.58-.54-3.31-1.81-4.26a6.21,6.21,0,0,0-2.91-.93C203.71,3,178.06-.61,152.42,1c-11.68.75-23.33,2.58-35,2.08C109.56,2.77,101.8,1.38,94,.68A270.36,270.36,0,0,0,65.65.11L14.49.87C11.42.91,8.25,1,5.41,2.16S.11,6,0,9"/></svg>