<svg id="Calque_1" data-name="Calque 1" xmlns="http://www.w3.org/2000/svg" viewBox="0 0 286.83 36.01"><defs><style>.cls-1{fill:#97ceeb;}</style></defs><title>highlight stroke workspace</title><path class="cls-1" d="M11.41,8.35C8.05,9,4.54,18.65,2.08,21.41s-3,8.17-.18,10.41C3.38,33,5.31,33,7.1,32.94,29.65,32.33,55.29,36.2,77.84,36c36-.32,69-4.49,105-4.66,31.64-.16,63.27-.47,94.9-1.34,5.87-.16,7.56-7.31,8.77-14,1.54-8.45-2.65-11.69-10.05-12.34C208-2.35,139.21.26,70.59,2.88c-19.8.75-39.67,1.51-59.18,5.47"/></svg>