<?xml version="1.0" encoding="UTF-8"?>
<svg viewBox="0 0 98 87" xmlns="http://www.w3.org/2000/svg">
<path d="m94.97 33.073c0.236 4.6885-3.3734 8.6806-8.0619 8.9167-8.708 0.4383-34.695 2.9716-48.558 6.9476-2.4408 0.7001-7.3657 2.4364-12.071 4.5894-2.3411 1.0712-4.453 2.1666-6.0994 3.1983-1.533 0.9607-2.1537 1.555-2.2843 1.6802-0.0262 0.0251-0.0327 0.0313-0.0228 0.0177-2.7618 3.7961-8.078 4.6347-11.874 1.873-3.7961-2.7618-4.6346-8.0779-1.8729-11.874 1.9164-2.6342 4.7281-4.6614 7.027-6.1021 2.4935-1.5626 5.3245-3.0031 8.0531-4.2516 5.4341-2.4865 11.156-4.5249 14.458-5.4719 15.81-4.5347 43.4-7.1325 52.39-7.585 4.6885-0.2361 8.6806 3.3734 8.9167 8.0618z" clip-rule="evenodd" fill="#20B7EB" fill-rule="evenodd"/>
<path d="m74.218 30.4c-0.1866 0-0.5522 9e-4 -0.9049 0.0534-0.1757 0.0261-0.3749 0.0687-0.5587 0.144-0.1039 0.0425-0.2313 0.107-0.3484 0.2063-0.479 0.2038-0.8253 0.5101-1.0627 0.8929-0.2535 0.4088-0.359 0.867-0.416 1.2867-0.1967 1.4488 0.2725 2.8836 0.6772 4.097 0.0929 0.2784 0.252 0.4827 0.3846 0.6331 0.0694 0.0787 0.1207 0.1328 0.1651 0.1796l1e-4 1e-4c0.0592 0.0624 0.106 0.1118 0.1668 0.189 0.3691 0.4688 0.974 0.5378 1.3871 0.5136 0.4409-0.0257 0.9166-0.168 1.2502-0.393 2.1995-1.4834 2.6005-4.4995 1.6074-6.5608-0.2323-0.4821-0.5756-0.8128-1.0141-1.0087-0.4164-0.1861-0.8802-0.2332-1.3337-0.2332zm-0.9964 1.303c-0.0266 0.0299-0.0563 0.0574-0.0889 0.0818-0.0962 0.094-0.2201 0.1514-0.3501 0.1666-0.2053 0.1048-0.3311 0.2352-0.4195 0.3776-0.1234 0.1991-0.1988 0.463-0.2467 0.8158-0.1533 1.1291 0.208 2.3013 0.6264 3.5558 0.0179 0.0534 0.0542 0.1146 0.1464 0.2191 0.018 0.0205 0.0466 0.0511 0.081 0.0881h1e-4c0.0855 0.0917 0.2071 0.222 0.2937 0.332-6e-4 -7e-4 -2e-4 -4e-4 0.0014 6e-4 0.0132 9e-3 0.1071 0.0729 0.3728 0.0574 0.2693-0.0158 0.5269-0.1075 0.6492-0.1899 1.6103-1.0861 1.9848-3.4106 1.1973-5.0451-0.1149-0.2385-0.2546-0.359-0.4226-0.434-0.1901-0.085-0.4564-0.1288-0.8441-0.1288-0.1887 0-0.4734 0.0024-0.7282 0.0403-0.1194 0.0178-0.209 0.0402-0.2682 0.0627zm-7.738-0.303c0.3313 0 0.6 0.2687 0.6 0.6 0 0.1944-7e-4 0.3869-0.0013 0.5777v1e-4c-0.0032 0.973-0.0063 1.9023 0.0757 2.8222h1.909c-0.0512-0.2847-0.0921-0.5755-0.1161-0.873-0.0689-0.8554-0.0701-1.6985-0.0701-2.527 0-0.3313 0.2686-0.6 0.6-0.6s0.6 0.2687 0.6 0.6c0 0.8342 0.0018 1.6305 0.0662 2.4306 0.0579 0.7184 0.2238 1.3711 0.4079 2.0957v1e-4c0.0511 0.201 0.1036 0.4076 0.1556 0.6227 0.1426 0.59 0.252 1.1689 0.3582 1.7306v1e-4l0.0017 0.0088c0.0615 0.3256-0.1525 0.6394-0.4781 0.701-0.3257 0.0615-0.6395-0.1525-0.7011-0.4781-0.1075-0.569-0.212-1.1214-0.3471-1.6804-0.0445-0.1838-0.0919-0.3699-0.14-0.5587-0.023-0.0902-0.0461-0.181-0.0692-0.2724h-2.0144c0.0321 0.1726 0.0625 0.3809 0.0908 0.575v1e-4 1e-4c0.0186 0.1281 0.0364 0.25 0.0531 0.3513 0.0448 0.2704 0.0966 0.5043 0.1723 0.7051l0.0077 0.0061c0.0124 0.0099 0.0304 0.0242 0.0594 0.0481l0.0069 0.0056c0.0852 0.0697 0.3702 0.3026 0.3702 0.7086 0 0.3314-0.2686 0.6-0.6 0.6-0.2658 0-0.4913-0.1728-0.5701-0.4123l-0.0314-0.0254c-0.0257-0.021-0.0598-0.0495-0.0952-0.0831-0.0687-0.0653-0.168-0.1733-0.2331-0.3302-0.1416-0.3415-0.2169-0.7021-0.2706-1.0267-0.0266-0.1612-0.0462-0.2982-0.0645-0.4268-0.0233-0.1629-0.0446-0.3122-0.076-0.4799-0.0232-0.1242-0.0444-0.2484-0.0637-0.3724-0.1201-0.1097-0.1955-0.2676-0.1955-0.4432 0-0.1213 0.036-0.2341 0.0979-0.3285-0.1043-1.0483-0.1004-2.0866-0.0966-3.1024 8e-4 -0.1905 0.0015-0.3802 0.0015-0.5691 0-0.3313 0.2686-0.6 0.6-0.6zm-6.902 1.7361c-0.0173-0.3309 0.2369-0.6132 0.5678-0.6306l3.9945-0.2093c0.3309-0.0174 0.6133 0.2368 0.6306 0.5678 0.0174 0.3309-0.2368 0.6132-0.5678 0.6305l-1.2791 0.0671 0.3356 6.4023c0.0173 0.3309-0.2369 0.6132-0.5678 0.6305-0.3309 0.0174-0.6132-0.2368-0.6306-0.5677l-0.3355-6.4023-1.5171 0.0795c-0.3309 0.0173-0.6132-0.2369-0.6306-0.5678zm-1.7773 2.7637c0-0.4388 0.026-1.2044 0.0524-1.7513 4e-3 -0.0837 0.0079-0.1603 0.0117-0.2284 0.0271-0.0684 0.042-0.1429 0.042-0.2209 0-0.1002-8e-4 -0.2052-0.0086-0.2726-0.0014-0.0121-0.0044-0.0354-0.0104-0.0634l-1e-4 -6e-4c-0.0017-0.0086-0.0203-0.1054-0.0848-0.2046-0.0291-0.0448-0.1479-0.217-0.3926-0.2632-0.2843-0.0536-0.4771 0.1039-0.5451 0.1748-0.0681 0.0712-0.1016 0.1418-0.1126 0.1656-0.0147 0.0321-0.0238 0.0592-0.0285 0.0745-0.0219 0.0702-0.0291 0.1456-0.0303 0.1581l-2e-4 0.0015c-0.0122 0.1137-0.0261 0.3505-0.0392 0.6214-0.0266 0.5533-0.0537 1.3414-0.0537 1.8091 0 0.101-5e-4 0.205-1e-3 0.3107v1e-3c-0.0011 0.2189-0.0022 0.4449 0.0011 0.6657 0.0039 0.267 0.0458 0.5073 0.0895 0.7165 0.0168 0.0807 0.0327 0.152 0.0476 0.2189v1e-4c0.0271 0.1213 0.0509 0.2281 0.0714 0.3507 0.1097 0.6562 0.0893 1.3494-0.0808 1.9643-0.021 0.076-0.0404 0.1491-0.0592 0.2198l-1e-4 3e-4v3e-4h-1e-4c-0.063 0.2374-0.1186 0.447-0.2025 0.6428-0.1055 0.2465-0.207 0.3449-0.294 0.3837-0.106 0.0472-0.2663 0.0412-0.5793-0.1459-0.1069-0.0638-0.2074-0.1213-0.302-0.1755-0.2492-0.1426-0.4576-0.2619-0.6356-0.4129l-0.0014-0.0033c-0.0155-0.036-0.0306-0.0831-0.0473-0.1411-0.0933-0.3251-0.1857-0.6527-0.2786-0.9817l-1e-4 -3e-4 -3e-4 -0.0012c-0.2614-0.9265-0.5259-1.8642-0.8225-2.7886-0.0534-0.1666-0.1057-0.3147-0.1542-0.452-0.114-0.3228-0.2067-0.5854-0.2427-0.8858-0.0354-0.2953-0.0346-0.3987-0.0325-0.6426v-2e-4c6e-4 -0.0679 0.0012-0.1467 0.0012-0.2435 0-0.3314-0.2686-0.6-0.6-0.6-0.3313 0-0.6 0.2686-0.6 0.6 0 0.0802-6e-4 0.1507-0.0012 0.2157v1e-4c-0.0024 0.2636-4e-3 0.4383 0.041 0.8135 0.0532 0.443 0.2119 0.8915 0.3399 1.2534 0.0396 0.1118 0.0762 0.2154 0.1059 0.308 0.2895 0.9024 0.5455 1.8099 0.8051 2.73l1e-4 2e-4 1e-4 5e-4c0.0941 0.3334 0.1886 0.6685 0.2854 1.0056 0.0192 0.0671 0.0513 0.1749 0.0984 0.2842 0.0418 0.0972 0.1227 0.2626 0.2702 0.3943 0.2894 0.2585 0.6648 0.4722 0.9517 0.6356 0.075 0.0427 0.144 0.082 0.2038 0.1177 0.3866 0.231 1.012 0.5112 1.6836 0.2117 0.4911-0.219 0.7539-0.6464 0.9084-1.0071 0.1222-0.2852 0.2074-0.6084 0.2723-0.8549l1e-4 -1e-4v-2e-4 -1e-4c0.0154-0.0583 0.0296-0.1123 0.043-0.1605 0.2226-0.805 0.2424-1.6769 0.1078-2.482-0.0257-0.1534-0.0616-0.3151-0.0925-0.4543v-1e-4c-0.0131-0.0591-0.0253-0.1141-0.0355-0.1627-0.0378-0.1815-0.062-0.335-0.0643-0.4889-3e-3 -0.2095-2e-3 -0.4145-1e-3 -0.626v-5e-4c6e-4 -0.1088 0.0011-0.2194 0.0011-0.3333zm0.088-2.3181c1e-4 2e-4 -4e-4 0.0039-0.0013 0.01 8e-4 -0.0072 0.0013-0.0103 0.0013-0.01zm-9.4631 2.038c0.0574 0.0546 0.1343 0.153 0.2246 0.303 0.097 0.1612 0.1874 0.3439 0.2724 0.523l0.0453 0.096c0.064 0.1365 0.1334 0.2841 0.191 0.3837 0.3032 0.5244 0.4628 1.0249 0.6714 1.679l0.0254 0.0798c-0.8089 0.4179-1.6516 0.5829-2.5497 0.6622 0.0201-0.309 0.0375-0.5687 0.0501-0.7428 0.0092-0.1268 0.0169-0.2512 0.0245-0.3728 0.0364-0.5829 0.0689-1.1041 0.236-1.5389 0.0463-0.1202 0.1087-0.2325 0.1923-0.3677 0.0179-0.029 0.038-0.0608 0.0595-0.0948v-1e-4c0.0697-0.1104 0.1543-0.2443 0.2273-0.3801 0.0451-0.084 0.1489-0.167 0.3299-0.2295zm1.8139 4.3331c-6e-3 -0.0372-0.0128-0.0736-0.0201-0.1097-0.9995 0.4753-2.0163 0.6397-2.9903 0.714-0.0474 0.7576-0.0956 1.5444-0.1271 2.0572v1e-4l-0.0259 0.4226c-0.0204 0.3307-0.3051 0.5823-0.6358 0.5619-0.3308-0.0204-0.5823-0.3051-0.5619-0.6358l0.0256-0.4182v-1e-4l1e-4 -2e-4c0.0324-0.5285 0.083-1.3535 0.1321-2.1378-0.0927-0.1003-0.1517-0.2326-0.1584-0.3797-0.0087-0.1938 0.0755-0.3703 0.2132-0.4863 0.0276-0.431 0.0519-0.7981 0.0682-1.0239 0.0068-0.0937 0.0128-0.1951 0.019-0.3023 0.034-0.5792 0.0779-1.3278 0.3183-1.9532 0.0865-0.2251 0.1953-0.4122 0.2918-0.5682 0.0302-0.0489 0.0578-0.0928 0.0836-0.1337h1e-4c0.0631-0.1001 0.1152-0.1827 0.1667-0.2785 0.2828-0.5261 0.8004-0.7482 1.159-0.846 0.415-0.1131 0.7594 0.0637 0.9774 0.246 0.212 0.1773 0.3784 0.4155 0.5032 0.6228 0.1293 0.2148 0.2406 0.4424 0.3284 0.6274 0.0239 0.0503 0.0452 0.0955 0.0643 0.136 0.059 0.1254 0.0972 0.2064 0.1267 0.2575 0.3707 0.641 0.5671 1.2587 0.7677 1.8895l0.0463 0.1452c0.0291 0.091 0.0638 0.191 0.1009 0.2977 0.1131 0.3257 0.2481 0.7143 0.3113 1.103 0.0573 0.3519 0.1627 0.6985 0.2861 1.0808l0.0406 0.1252c0.1095 0.3373 0.2296 0.707 0.3128 1.0882 0.0707 0.3237-0.1344 0.6435-0.4582 0.7142-0.3237 0.0707-0.6435-0.1344-0.7142-0.4582-0.0697-0.3193-0.1705-0.6303-0.2822-0.9747l-0.0408-0.1261c-0.1238-0.3834-0.2552-0.8064-0.3285-1.2567zm30.39-9.5332c-0.0488-0.0128-0.0999-0.0196-0.1527-0.0196-0.3314 0-0.6 0.2687-0.6 0.6v7c0 0.3314 0.2686 0.6 0.6 0.6s0.6-0.2686 0.6-0.6v-2.2303l0.0091-0.0033c0.1195-0.0408 0.2239-0.079 0.3202-0.1143 0.1924-0.0705 0.3525-0.1291 0.5368-0.1729 0.2297-0.0545 0.4046-0.0528 0.5584-0.0198 0.1588 0.034 0.3288 0.1084 0.5403 0.2441l0.1032 0.0662c0.3453 0.2212 0.6923 0.4434 1.0111 0.6926 0.3503 0.2737 0.6295 0.5526 0.8068 0.8472 0.1709 0.2839 0.5396 0.3755 0.8235 0.2046 0.2839-0.1708 0.3756-0.5395 0.2047-0.8234-0.2846-0.4729-0.6912-0.8575-1.0961-1.1739-0.3659-0.286-0.7606-0.5386-1.0993-0.7554l-0.1057-0.0677c-0.0355-0.0228-0.0713-0.0451-0.1074-0.0667 0.477-0.3455 0.7209-0.8443 0.8427-1.3259 0.1411-0.5583 0.1358-1.1591 0.1252-1.6088-0.0032-0.1349-0.0272-0.2871-0.1017-0.4351-0.0783-0.1557-0.1913-0.265-0.3079-0.3404-0.1057-0.0684-0.2132-0.1077-0.284-0.1315-0.0238-0.0081-0.0957-0.0305-0.1466-0.0465h-1e-4l-0.0526-0.0165c-0.5634-0.1842-1.2287-0.3792-1.9565-0.3066-0.2511 0.025-0.4865 0.0185-0.7575 0.011-0.099-0.0027-0.2028-0.0056-0.3139-0.0071zm0.4473 3.9511v-2.7399c0.2439 0.0041 0.5037 0.0028 0.7431-0.021 0.4552-0.0454 0.909 0.0715 1.4646 0.2531 0.0243 0.0079 0.0477 0.0153 0.0693 0.022 0.0054 0.3984-0.0073 0.7867-0.0921 1.1221-0.0925 0.3659-0.2512 0.5965-0.509 0.7234-0.2661 0.1311-0.5529 0.2337-0.8763 0.3459l-0.064 0.0222c-0.2324 0.0806-0.4843 0.1679-0.7356 0.2722z" clip-rule="evenodd" fill="#fff" fill-rule="evenodd"/>
</svg>
