<svg width="525" height="123" viewBox="0 0 525 123" fill="none" xmlns="http://www.w3.org/2000/svg">
<mask id="mask0_519_19" style="mask-type:alpha" maskUnits="userSpaceOnUse" x="0" y="0" width="525" height="123">
<rect width="525" height="123" fill="#D9D9D9"/>
</mask>
<g mask="url(#mask0_519_19)">
<path opacity="0.5" d="M185.166 32.7359L163.995 108.817C160.566 121.139 167.776 133.908 180.098 137.337L305.888 172.339C318.21 175.768 330.979 168.559 334.408 156.237L355.578 80.1557C359.007 67.8335 351.798 55.0647 339.475 51.6359L213.686 16.6331C201.363 13.2042 188.595 20.4137 185.166 32.7359Z" fill="#AAAAAA"/>
<path opacity="0.2" d="M349.345 36.5923H219.652C198.426 36.5923 181.22 53.7989 181.22 75.0244C181.22 96.2498 198.426 113.456 219.652 113.456H349.345C370.57 113.456 387.777 96.2498 387.777 75.0244C387.777 53.7989 370.57 36.5923 349.345 36.5923Z" fill="#AEADAD"/>
<path opacity="0.2" d="M297.958 76.7435H174.432C153.207 76.7435 136 93.9501 136 115.175C136 136.401 153.207 153.608 174.432 153.608H297.958C319.183 153.608 336.39 136.401 336.39 115.175C336.39 93.9501 319.183 76.7435 297.958 76.7435Z" fill="#AEADAD"/>
<path d="M179.62 22.7474L158.449 98.8282C155.02 111.15 162.23 123.919 174.552 127.348L300.342 162.351C312.664 165.78 325.433 158.57 328.862 146.248L350.032 70.1672C353.461 57.8449 346.252 45.0762 333.929 41.6474L208.14 6.64453C195.817 3.21569 183.049 10.4252 179.62 22.7474Z" fill="#E2EDF7"/>
<path d="M159.048 112.059L157.673 109.031L224.732 78.5515L225.331 80.2707C225.409 80.5036 233.483 103.208 249.633 107.101C258.705 109.319 268.788 105.149 279.58 94.8116L281.876 97.2185C270.207 108.388 259.116 112.802 248.845 110.329C233.495 106.624 225.143 88.7446 222.836 83.0658L159.048 112.059Z" fill="#B3C9E8"/>
<path d="M280.524 98.0978L283.19 96.1074L324.91 151.997L322.243 153.987L280.524 98.0978Z" fill="#B3C9E8"/>
<path d="M332.009 41.8718L210.125 7.94294C198.179 4.61549 188.585 7.44382 185.38 13.1559L183.572 17.6924C185.302 11.4922 196.46 10.8267 208.406 14.1431L330.279 48.072C342.225 51.3994 350.499 59.1634 348.78 65.3192L350.51 59.108C352.284 52.9189 343.955 45.1882 332.009 41.8718Z" fill="white"/>
<path d="M179.745 22.3112L158.575 98.392C155.146 110.714 162.355 123.483 174.678 126.912L300.467 161.915C312.79 165.344 325.558 158.134 328.987 145.812L350.158 69.731C353.587 57.4087 346.377 44.64 334.055 41.2112L208.265 6.20831C195.943 2.77948 183.174 9.98897 179.745 22.3112Z" stroke="#2E576D" stroke-width="2.00147" stroke-miterlimit="10" stroke-linecap="round"/>
<path d="M158.981 107.512L223.977 77.6976" stroke="#2E576D" stroke-width="2.00147" stroke-miterlimit="10" stroke-linecap="round"/>
<path d="M283.383 94.6673L325.287 152.498" stroke="#2E576D" stroke-width="2.00147" stroke-miterlimit="10" stroke-linecap="round"/>
<path d="M183.56 16.3393L235.823 95.7211C238.618 100.437 243.127 103.89 248.408 105.36C253.689 106.829 259.333 106.201 264.162 103.607L350.776 62.258" stroke="#2E576D" stroke-width="2.00147" stroke-miterlimit="10" stroke-linecap="round"/>
</g>
</svg>
