<?xml version="1.0" encoding="utf-8"?>
<!-- Generator: Adobe Illustrator 22.1.0, SVG Export Plug-In . SVG Version: 6.00 Build 0)  -->
<svg version="1.1" id="Layer_1" xmlns="http://www.w3.org/2000/svg" xmlns:xlink="http://www.w3.org/1999/xlink" x="0px" y="0px"
	 viewBox="0 0 476.8 123.4" style="enable-background:new 0 0 476.8 123.4;" xml:space="preserve">
<style type="text/css">
	.st0{fill:#FFFFFF;}
</style>
<path class="st0" d="M1.5,53.2C-0.9,63.3-0.2,61.3,0,71.9s5.1,20.9,12,28c6.5,6.8,13,12.8,32.5,17.5c19.1,4.6,38.3,6.9,68.3,5.4
	c30.1-1.5,52.3-3.6,65-5.4c26.5-3.8,45.3-5.6,86.3-5.6c84,0,64.7,8.3,154.9-3.2c17.8-2.3,40.7-19.5,44.9-24s15.2-17.7,12.2-43.3
	S435.8,3.9,409,2.1s-92-3.6-150.3,4.4c-61.4,8.3-66.9,2.9-110.2,2.3c-39.4-0.5-62.7-3.6-102,7.1C24.3,21.8,8.6,23.4,1.5,53.2z"/>
</svg>
