<?xml version="1.0" encoding="utf-8"?>
<!-- Generator: Adobe Illustrator 25.0.0, SVG Export Plug-In . SVG Version: 6.00 Build 0)  -->
<svg version="1.1" id="Layer_1" xmlns="http://www.w3.org/2000/svg" xmlns:xlink="http://www.w3.org/1999/xlink" x="0px" y="0px"
	 viewBox="0 0 283.5 283.5" style="enable-background:new 0 0 283.5 283.5;" xml:space="preserve">
<style type="text/css">
	.st0{fill:#ECC2C4;}
	.st1{fill:#FFFFFF;}
	.st2{fill:#262424;}
	.st3{fill:#E29287;}
</style>
<g id="Calque_2">
	<path class="st0" d="M258.3,131.2c-0.1-2-0.3-3.9-0.5-5.8c-1-5.8-2.5-11.4-4.5-16.9c-1.6-4.8-3.1-9.1-4.8-13.4
		c-0.4-1.1-0.8-2.2-1.2-3.2c-0.9-3-2.2-5.9-3.8-8.6c-1.6-2.4-3.1-4.8-4.5-7.2c-2.5-4.3-5.2-8.5-8.3-12.3c-2.4-3-5.3-5.7-8.5-7.8
		c-2.4-1.5-4.6-3.4-6.5-5.5c-4-4.7-8.8-8.4-14.3-11.1c-6.4-3.2-13-6-19.8-8.3c-0.8-0.3-1.6-0.5-2.4-0.8c-2.1-0.8-4.3-1.4-6.6-1.8
		c-3-0.5-6.6-1.1-10.1-1.9c-3.9-0.9-7.9-1.4-11.9-1.5c-0.6,0-1.1,0-1.7,0c-2.3,0-4.7,0.2-6.9,0.3c-1.6,0.1-3.2,0.2-4.9,0.3
		c-2.4,0-4.8,0.3-7.1,0.7c-4,0.9-8.1,1.7-12,2.4l-1,0.2l-2.6,0.4c-2,0.3-4,0.7-5.9,1.2c-2,0.6-4,1.3-5.9,2c-1.3,0.5-2.6,1-3.9,1.4
		c-5.8,2-11.5,4.6-16.9,7.7c-7.3,4.1-14.2,8.9-20.5,14.4c-2.8,2.5-5.2,5.3-7.3,8.5c-1.5,2.1-2.9,4.4-4.2,6.6
		c-1.1,1.8-2.3,3.7-3.5,5.5C41.6,82.9,38,89.7,35,96.9l-0.7,1.6c-1.6,3.8-3.2,7.7-4.6,11.6c-1.9,5.5-2.8,11.2-3.6,17.4
		c-0.4,2.6-0.4,5.3-0.5,7.9c-0.1,2-0.1,4-0.3,6c-0.4,5-0.2,9.9,0.7,14.8l0.4,2.5c0.4,2.9,0.9,5.9,1.6,8.7c2.1,7.9,4.9,15.5,8.4,22.9
		c4,8,8.4,15.7,13.4,23.1c2.8,4.4,5.9,8.6,9.3,12.6c2.9,3.4,6.4,6.3,10.3,8.5c1.8,1,3.5,2.1,5.2,3.1c1.9,1.1,3.8,2.3,5.7,3.4
		c1.6,0.9,3.3,1.9,4.8,2.9c4.1,2.5,8.4,5.1,13,6.8c1.7,0.6,3.3,1.3,4.9,2c2.9,1.3,5.8,2.4,8.9,3.1c1.3,0.3,2.6,0.5,3.9,0.7l2.3,0.4
		c1.3,0.2,2.6,0.3,3.8,0.4c1.4,0.1,2.7,0.2,4,0.4c3.3,0.5,6.7,0.7,10.1,0.8c2,0.1,4.1,0.1,6.2,0.3c5.3,0.3,10.6,0,15.9-1
		c1.7-0.3,3.3-0.5,5-0.7c2.5-0.2,5-0.6,7.4-1.2c1.6-0.4,3.1-0.9,4.6-1.4c1.1-0.4,2.3-0.8,3.4-1.1c5.3-1.6,10.5-3.6,15.4-6.2
		c3-1.6,6.1-3.4,9-5.2c3.4-2.1,7-4.2,10.6-6.1c1.7-0.8,3.3-1.9,4.7-3.2c4.2-4.4,9.2-9.7,13.9-15.4c3.6-4.3,7.3-8.9,10.1-14.2
		c0.8-1.5,1.5-3,2.2-4.5c1-2.3,2.1-4.5,3.4-6.7c3.9-6.6,8.6-21.2,8.7-21.5c1-3.2,1.6-6.4,1.8-9.7c0.1-1.3,0.3-2.7,0.4-4
		c0.4-2.7,0.6-5.4,0.6-8.2c-0.1-4.9-0.3-9.4-0.7-13.7C258.4,133.5,258.4,132.3,258.3,131.2z"/>
	<path class="st0" d="M258.3,131.2c-0.1-2-0.3-3.9-0.5-5.8c-1-5.8-2.5-11.4-4.5-16.9c-1.6-4.8-3.1-9.1-4.8-13.4
		c-0.4-1.1-0.8-2.2-1.2-3.2c-0.9-3-2.2-5.9-3.8-8.6c-1.6-2.4-3.1-4.8-4.5-7.2c-2.5-4.3-5.2-8.5-8.3-12.3c-2.4-3-5.3-5.7-8.5-7.8
		c-2.4-1.5-4.6-3.4-6.5-5.5c-4-4.7-8.8-8.4-14.3-11.1c-6.4-3.2-13-6-19.8-8.3c-0.8-0.3-1.6-0.5-2.4-0.8c-2.1-0.8-4.3-1.4-6.6-1.8
		c-3-0.5-6.6-1.1-10.1-1.9c-3.9-0.9-7.9-1.4-11.9-1.5c-0.6,0-1.1,0-1.7,0c-2.3,0-4.7,0.2-6.9,0.3c-1.6,0.1-3.2,0.2-4.9,0.3
		c-2.4,0-4.8,0.3-7.1,0.7c-4,0.9-8.1,1.7-12,2.4l-1,0.2l-2.6,0.4c-2,0.3-4,0.7-5.9,1.2c-2,0.6-4,1.3-5.9,2c-1.3,0.5-2.6,1-3.9,1.4
		c-5.8,2-11.5,4.6-16.9,7.7c-7.3,4.1-14.2,8.9-20.5,14.4c-2.8,2.5-5.2,5.3-7.3,8.5c-1.5,2.1-2.9,4.4-4.2,6.6
		c-1.1,1.8-2.3,3.7-3.5,5.5C41.6,82.9,38,89.7,35,96.9l-0.7,1.6c-1.6,3.8-3.2,7.7-4.6,11.6c-1.9,5.5-2.8,11.2-3.6,17.4
		c-0.4,2.6-0.4,5.3-0.5,7.9c-0.1,2-0.1,4-0.3,6c-0.4,5-0.2,9.9,0.7,14.8l0.4,2.5c0.4,2.9,0.9,5.9,1.6,8.7c2.1,7.9,4.9,15.5,8.4,22.9
		c4,8,8.4,15.7,13.4,23.1c2.8,4.4,5.9,8.6,9.3,12.6c2.9,3.4,6.4,6.3,10.3,8.5c1.8,1,3.5,2.1,5.2,3.1c1.9,1.1,3.8,2.3,5.7,3.4
		c1.6,0.9,3.3,1.9,4.8,2.9c4.1,2.5,8.4,5.1,13,6.8c1.7,0.6,3.3,1.3,4.9,2c2.9,1.3,5.8,2.4,8.9,3.1c1.3,0.3,2.6,0.5,3.9,0.7l2.3,0.4
		c1.3,0.2,2.6,0.3,3.8,0.4c1.4,0.1,2.7,0.2,4,0.4c3.3,0.5,6.7,0.7,10.1,0.8c2,0.1,4.1,0.1,6.2,0.3c5.3,0.3,10.6,0,15.9-1
		c1.7-0.3,3.3-0.5,5-0.7c2.5-0.2,5-0.6,7.4-1.2c1.6-0.4,3.1-0.9,4.6-1.4c1.1-0.4,2.3-0.8,3.4-1.1c5.3-1.6,10.5-3.6,15.4-6.2
		c3-1.6,6.1-3.4,9-5.2c3.4-2.1,7-4.2,10.6-6.1c1.7-0.8,3.3-1.9,4.7-3.2c4.2-4.4,9.2-9.7,13.9-15.4c3.6-4.3,7.3-8.9,10.1-14.2
		c0.8-1.5,1.5-3,2.2-4.5c1-2.3,2.1-4.5,3.4-6.7c3.9-6.6,8.6-21.2,8.7-21.5c1-3.2,1.6-6.4,1.8-9.7c0.1-1.3,0.3-2.7,0.4-4
		c0.4-2.7,0.6-5.4,0.6-8.2c-0.1-4.9-0.3-9.4-0.7-13.7C258.4,133.5,258.4,132.3,258.3,131.2z"/>
</g>
<g id="Calque_1">
	<path class="st1" d="M153.2,120.6c0.2-15.4-0.4-30.9-5.3-45.5c-0.1-0.3-0.2-0.7-0.4-1c-1.1-2.3-6.2-1.7-6.5,0.9
		c-1.7,14,2.1,28.4-0.4,42.3c-2.2-2.5-4.7-35.1-9.6-46.9c-0.8-1.9-2-4-4.3-3.6c-1.6,0.3-2.8,1.5-3.1,3.1c-1.2,6.7-0.8,13.4-0.4,20.2
		l1.8,29c-1,0.9-2.4-0.5-2.9-1.8c-5.3-12.2-8.8-20.4-10.5-33.6c-0.3-2.1-0.9-4.7-3-5.1c-1-0.3-2.1-0.1-2.9,0.7
		c-1.3,1.6-1.3,4.1-1.3,6c0.5,14.8,2.6,24.9,6.3,39.3c0.9,3.1,1,6.4,0.2,9.6c-9.4-4.5-15.9-13.2-20.3-22.7c-1.1-2.3-3.3-5.2-5.4-3.8
		c-1.2,0.8-1.3,2.6-1.1,4c0.9,6.9,3,13.6,6.4,19.6c3,5.4,6.8,10.1,10.7,14.9c4.6,5.6,7.4,11.2,12,16.8c2.5,3.1,5.1,6.3,6.3,10.1
		c0.5,1.8,0.8,3.6,1,5.4c5.1,40.8,2.7,40.5,7.9,81.3l1.2,1.5l15.9,1l7.5-0.1l9.2-1.5l5.5-0.7l4.6-1l4.5-1.3l-0.8-1.8
		c-9.8-33.5-13-35.8-17.2-81.5l-0.1-3.8c0.4-2.8,1.6-5.4,3.5-7.5c6.8-7.2,14.6-15.3,15.9-27c0.6-5.6,1.2-11.2,3.8-16.2
		c0.7-1.3,3-7.7,3.5-9.1c0.8-2.6-1.7-5.2-4.4-5.2c-3.1,0.1-3.1,0.1-5.9,1.8c-3,1.9-5.7,5.7-7.3,9.1l-5.5,11.9
		c-0.6,1.3-1.8,1.6-3.3,1.8c-2.1,0.3-4.1-1-4.7-3.1C154,125.7,153.2,124.4,153.2,120.6z"/>
	<path class="st2" d="M156,120.6c0.2-14.7-0.4-29.6-4.6-43.8c-0.9-2.9-1.7-5.8-5-6.7c-2.3-0.6-4.8,0-6.6,1.6c-1,1-1.5,2.4-1.5,3.8
		c-0.2,1.9-0.3,3.7-0.4,5.6c-0.1,3.5,0.1,7.1,0.3,10.6c0.5,8.2,1.3,16.6-0.1,24.8l4.6-1.2c0.1,0.1,0.5,0.7,0.2,0.3
		c-0.2-0.4,0,0.1,0.1,0.3c-0.1-0.3-0.2-0.6-0.3-0.9c-0.2-0.8-0.4-1.7-0.6-2.5c-0.5-2.5-0.9-5.1-1.3-7.7c-1-6.6-1.9-13.2-3.2-19.9
		c-0.6-3.1-1.2-6.2-2-9.3c-0.6-2.8-1.6-5.5-2.9-8.1c-2.3-3.9-7.3-4.8-10.3-1.1c-1.6,2-1.7,4.7-2,7.1c-0.3,2.7-0.3,5.4-0.3,8.1
		c0.3,12.5,1.5,25,2.3,37.5l1.4-2.4l1.4,0.1c-0.1-0.1-0.2-0.2-0.2-0.3c-0.1-0.4-0.3-0.8-0.5-1.1c-0.4-0.8-0.7-1.7-1.1-2.5
		c-0.7-1.7-1.4-3.4-2.1-5.1c-1.3-3.2-2.5-6.4-3.5-9.6c-1-3.3-1.8-6.6-2.5-9.9c-0.6-3.1-0.5-6.7-2.1-9.5s-5.9-4.1-8.6-1.9
		c-2.9,2.3-2.8,6.5-2.6,9.8c0.3,7.3,1.1,14.6,2.5,21.8c0.8,4.1,1.7,8.2,2.7,12.2c1.1,4.4,2.5,8.5,1.5,13l4.1-1.6
		c-4.8-2.4-9-5.9-12.3-10.1c-1.6-2.1-3.1-4.3-4.4-6.6c-1.3-2.3-2.3-5-3.9-7.2c-1.6-2.2-4-4-6.8-3.2c-2.8,0.8-3.9,3.8-3.7,6.5
		c0.4,6.1,2.4,12.2,4.9,17.7c2.6,5.8,6.4,10.9,10.3,15.9c2,2.5,4,5,5.9,7.6c1.8,2.6,3.5,5.3,5.3,7.9c3.5,5,8.4,9.4,9.6,15.6
		c1.1,5.9,1.5,11.9,2.2,17.9c1.7,15.9,2.4,31.8,4,47.7c0.6,5.7,1.2,11.4,1.9,17.1c0,1.3,0.5,2.6,1.3,3.6c0.5,0.8,1.2,1.4,2.1,1.8
		c0.8,0.1,1.6,0.2,2.4,0.2c4.9,0.3,9.8,0.9,14.7,0.9c2.6,0.1,5.2,0.1,7.8-0.2c2.7-0.4,5.4-0.9,8.1-1.3c0.2,0,0.8-0.2,1-0.2
		c0,0-1,0.1-0.5,0.1l1-0.1l4.2-0.5c2.2-0.3,4.3-0.8,6.4-1.4l3.6-1c1.3-0.4,2.5-2,1.9-3.4c-2.3-5.7-3.8-11.9-5.6-17.8
		c-1.5-5-3.1-9.9-4.5-15c-3-11.4-5.1-23.1-6.2-34.8c-0.5-4.6-1-9.2-1.4-13.8c-0.1-1.2-0.1-2.3-0.2-3.5c-0.1-1.2,0.1-2.4,0.5-3.5
		c1.1-3.4,4.4-5.9,6.7-8.5c2.7-3,5.1-6.2,7.2-9.6c2.2-3.5,3.8-7.4,4.6-11.5c0.9-4.7,1-9.4,2.3-13.9c0.9-3.1,2.5-6.1,3.7-9.1
		c1.1-3,2.7-6.1,1-9.2c-2.2-4-7.6-4.8-11.5-3c-4.4,2-7.7,5.9-9.9,10.1c-1.3,2.4-2.4,4.9-3.5,7.4l-1.9,4.1c-0.4,0.9-0.5,1.9-1.5,2.2
		c-1.6,0.4-2-0.5-2.5-1.8C156.3,124.2,156,122.4,156,120.6c0-3.5-5.5-3.5-5.5,0c0,3.3,0.7,7.7,2.9,10.3c2.6,3,8.2,3.2,10.8,0.1
		c1.5-1.8,2.2-4.3,3.2-6.3c1.2-2.5,2.3-5,3.5-7.5c1.8-3.3,4.5-7,7.8-8.4c1.1-0.4,2.3-0.5,3.4-0.1c1.3,0.7,0.8,1.7,0.4,2.8
		c-0.5,1.3-0.9,2.6-1.4,3.8s-0.9,2.4-1.3,3.3c-2,4.4-3.3,9.2-3.8,14c-0.5,4.2-1.1,8.3-2.9,12.2c-1.7,3.5-3.9,6.8-6.5,9.8
		c-2.5,2.9-5.5,5.5-7.7,8.7c-4.2,6-2.4,13.7-1.8,20.5c1.3,13,2.9,26,6.2,38.7c1.4,5.5,3.1,11,4.8,16.4c1,3.3,2.1,6.7,3.1,10
		c1,3.3,1.8,6.6,3.1,9.8l1.9-3.4c-1.5,0.4-3,0.9-4.5,1.3c-0.6,0.2-1.2,0.3-1.9,0.4c-0.9,0.1-1.8,0.3-2.6,0.6c-0.1,0.1,1.1-0.1,0.2,0
		l-1.4,0.2l-3.2,0.4c-1.3,0.2-2.6,0.4-4,0.6c-2,0.3-4,0.6-6,1c-1.2,0.2,0.9,0-0.3,0c-1,0-1.9,0-2.9,0c-2.8,0-5.5-0.1-8.3-0.2
		l-11.6-0.8l1.9,0.8l-1.2-1.5l0.8,1.9c-1.5-11.8-2.7-23.6-3.6-35.5c-0.7-9.4-1.3-18.8-2.3-28.1c-0.3-3.4-0.7-6.8-1.1-10.2
		c-0.5-3.9-0.8-7.9-1.6-11.8c-1.6-7.5-7.7-13-11.8-19.2c-2.2-3.3-4.4-6.6-6.8-9.7c-2.4-3.1-5-6.2-7.3-9.4
		c-4.4-6.1-7.5-13.1-9.1-20.5c-0.4-1.7-0.7-3.4-0.7-5.2v-0.1c0.2-0.5,0.2-0.6,0-0.3c-0.2,0-0.4,0.1-0.4,0.3c0,0,0,0,0,0
		c0,0.2,1,1.1,1.2,1.4c1.9,3.1,3.3,6.6,5.4,9.7c4.2,6.4,9.7,11.9,16.6,15.3c1.3,0.8,3,0.3,3.8-1.1c0.1-0.2,0.2-0.4,0.2-0.6
		c1.1-4.7,0.3-8.9-0.9-13.6c-1-3.9-2-7.9-2.8-11.9c-1.6-7.8-2.5-15.6-2.8-23.6c-0.2-1.6,0-3.2,0.5-4.7c0.2-0.5-0.3,0,0,0
		s0.8,0.4,0.3,0c0.4,0.4,0.6,1,0.7,1.6c0.9,3.7,1.1,7.5,2,11.2c1.8,7.4,4.6,14.4,7.6,21.3c0.8,1.8,1.3,3.7,2.7,5.1
		c1.3,1.4,3.6,2.1,5.4,0.9c2-1.4,1.2-4.3,1.1-6.3l-0.5-7.2c-0.6-9.2-1.5-18.4-1.6-27.6c0-2.3,0.1-4.6,0.3-6.8c0.1-0.7,0-3.9,1.2-3.9
		c1.2,0,2.1,3.9,2.4,4.8c1.5,5.1,2.6,10.3,3.4,15.5c1.1,6.2,1.9,12.4,2.9,18.6c0.4,2.2,0.7,4.4,1.2,6.6c0.2,1.5,0.9,2.9,1.8,4.2
		c1.3,1.5,4.3,0.8,4.6-1.2c2.2-12.8-0.5-25.6,0.1-38.4c0-1.4,0.1-2.8,0.3-4.2c-0.1,0.3-0.3,0.3-0.1,0.3l0.6-0.2c0.2,0,0.5,0,0.7,0
		c0.2,0,0.2,0.2,0.1,0c0.5,1.4,1,2.8,1.3,4.2c1.7,6.1,2.8,12.4,3.3,18.7c0.6,7.4,0.8,14.7,0.7,22.1
		C150.4,124.2,155.9,124.2,156,120.6z"/>
	<path class="st3" d="M283.4,133.1c-0.1-1.3-0.2-2.7-0.3-4.1c-0.1-2.4-0.3-4.8-0.7-7.2c-1.2-7-3.1-13.9-5.5-20.6
		c-2-5.7-3.8-10.9-5.7-16c-0.5-1.2-0.9-2.5-1.3-3.8c-1.3-3.7-2.6-7.6-4.8-10.8c-1.9-2.8-3.6-5.7-5.4-8.6c-3.1-5.1-6.2-10.3-10.2-15
		c-3.8-4.5-7.1-7.5-10.6-9.8c-2.7-1.7-5.1-3.7-7.2-6.1c-4.9-5.8-11-10.5-17.9-13.9c-7.5-3.6-15.6-7.4-24-10
		c-0.9-0.3-1.9-0.6-2.8-0.9c-2.7-1-5.4-1.8-8.3-2.3c-3.6-0.6-7.8-1.3-11.9-2.2c-4.8-1.1-9.7-1.7-14.7-1.9c-3.5-0.1-7.1,0-10.6,0.4
		c-1.9,0.1-3.8,0.3-5.7,0.3c-3,0-6,0.3-9,0.9c-4.7,1.1-9.5,1.9-14.2,2.8l-1.3,0.2c-1,0.2-2.1,0.3-3.1,0.5c-2.5,0.3-4.9,0.8-7.3,1.4
		c-2.5,0.7-4.9,1.6-7.3,2.5c-1.5,0.6-3.1,1.2-4.6,1.7c-7.1,2.5-14,5.6-20.5,9.3C59.7,25,51.4,30.9,43.7,37.6
		c-3.5,3.1-6.5,6.7-9.1,10.6c-1.8,2.6-3.5,5.3-5.1,7.9c-1.3,2.2-2.7,4.4-4.2,6.5c-5.2,7.8-9.6,16.1-13.2,24.8l-0.8,1.9
		c-1.9,4.5-3.9,9.3-5.6,14c-2.4,6.8-3.4,13.6-4.4,21.3c-0.4,3.3-0.6,6.5-0.7,9.7c-0.1,2.3-0.2,4.7-0.4,7.1
		c-0.5,6.1-0.2,12.2,0.8,18.3c0.1,1,0.3,2,0.4,3c0.4,3.6,1.1,7.2,2,10.7c2.6,9.5,6,18.7,10.2,27.6c4.8,10.2,10.9,19.7,16.1,27.9
		c3.4,5.3,7.2,10.4,11.3,15.2c3.7,4.3,8,7.9,12.9,10.6c2.1,1.2,4.2,2.5,6.2,3.7c2.2,1.4,4.5,2.8,6.9,4.1c1.9,1.1,3.8,2.3,5.7,3.4
		c5,3.1,10.2,6.2,15.9,8.3c1.9,0.7,3.8,1.5,5.7,2.3c3.6,1.7,7.3,3,11.1,3.9c1.6,0.3,3.2,0.6,4.7,0.8l2.8,0.4
		c1.6,0.3,3.2,0.4,4.8,0.5c1.5,0.1,3.1,0.2,4.6,0.5c4.1,0.6,8.2,0.9,12.3,1c2.4,0.1,4.8,0.1,7.2,0.3c1.6,0.1,3.2,0.2,4.8,0.2
		c4.9,0,9.9-0.5,14.7-1.4c1.9-0.3,3.9-0.6,5.8-0.8c3.1-0.3,6.2-0.8,9.2-1.5c1.9-0.5,3.8-1.1,5.7-1.8c1.3-0.4,2.6-0.9,4-1.3
		c6.5-1.9,12.8-4.5,18.8-7.6c3.7-2,7.3-4.1,10.8-6.3c4.1-2.4,8.3-5,12.6-7.1c2.3-1.1,4.4-2.6,6.3-4.3c5.1-5.3,11.1-11.6,16.8-18.5
		c4.4-5.2,8.9-10.9,12.3-17.4c1-1.8,1.8-3.7,2.6-5.5c1.2-2.6,2.5-5.2,3.9-7.7c4.9-8.1,10.6-26.2,10.6-26.2c1.2-3.9,2-8,2.3-12.1
		c0.1-1.6,0.3-3.2,0.5-4.7c0.5-3.3,0.7-6.7,0.7-10.1C284.2,143.8,283.9,138.4,283.4,133.1z M259,156.7c-0.2,1.3-0.3,2.6-0.4,4
		c-0.2,3.3-0.8,6.5-1.8,9.7c-0.1,0.4-4.7,15-8.7,21.6c-1.2,2.2-2.4,4.4-3.4,6.7c-0.7,1.5-1.4,3.1-2.2,4.6
		c-2.8,5.3-6.5,9.9-10.1,14.3c-4.7,5.7-9.7,11-14,15.4c-1.4,1.3-3,2.4-4.7,3.3c-3.7,1.9-7.2,4-10.7,6.1c-2.9,1.8-6,3.5-9,5.2
		c-4.9,2.6-10.1,4.7-15.4,6.2c-1.2,0.3-2.3,0.7-3.4,1.1c-1.5,0.5-3.1,1-4.6,1.4c-2.4,0.6-4.9,1-7.4,1.2c-1.6,0.2-3.3,0.4-5,0.7
		c-5.2,1-10.6,1.4-15.9,1c-2.1-0.2-4.1-0.2-6.2-0.3c-3.4,0-6.8-0.3-10.1-0.8c-1.3-0.2-2.7-0.3-4-0.4c-1.3-0.1-2.6-0.2-3.9-0.4
		l-2.3-0.4c-1.3-0.2-2.6-0.4-3.9-0.7c-3.1-0.7-6.1-1.8-8.9-3.1c-1.6-0.7-3.2-1.4-4.9-2c-4.7-1.7-8.9-4.3-13-6.8
		c-1.6-1-3.2-2-4.8-2.9c-1.9-1.1-3.9-2.3-5.7-3.4c-1.7-1.1-3.5-2.1-5.3-3.2c-3.9-2.2-7.4-5.1-10.3-8.5c-3.4-4-6.5-8.2-9.3-12.6
		c-5-7.5-9.4-15.2-13.4-23.2c-3.5-7.4-6.3-15-8.4-22.9c-0.7-2.9-1.3-5.8-1.6-8.8c-0.1-0.9-0.2-1.7-0.4-2.6c-0.8-4.9-1-9.9-0.7-14.9
		c0.2-2,0.3-4.1,0.3-6c0.1-2.6,0.2-5.3,0.6-7.9c0.8-6.3,1.7-11.9,3.6-17.5c1.4-3.9,3-7.9,4.6-11.7l0.7-1.6c3-7.2,6.6-14,10.9-20.5
		c1.2-1.8,2.4-3.7,3.5-5.5c1.4-2.2,2.8-4.4,4.2-6.6c2.1-3.1,4.5-6,7.3-8.5c6.4-5.5,13.3-10.4,20.6-14.4c5.4-3.1,11-5.7,16.9-7.7
		c1.3-0.4,2.6-0.9,3.9-1.4c1.9-0.7,3.9-1.5,6-2c2-0.5,3.9-0.9,5.9-1.2c0.9-0.1,1.8-0.3,2.6-0.4l1-0.2c4-0.7,8.1-1.4,12.1-2.4
		c2.4-0.5,4.7-0.7,7.1-0.7c1.6-0.1,3.3-0.2,4.9-0.3c2.3-0.2,4.6-0.3,7-0.3c0.6,0,1.2,0,1.7,0c4,0.1,8,0.7,12,1.5
		c3.5,0.8,7.1,1.4,10.2,1.9c2.3,0.4,4.5,1,6.6,1.8c0.8,0.3,1.6,0.5,2.4,0.8c6.8,2.3,13.5,5.1,19.9,8.3c5.5,2.7,10.4,6.5,14.4,11.1
		c1.9,2.2,4.1,4,6.5,5.5c3.2,2.2,6.1,4.8,8.5,7.9c3.1,3.9,5.9,8,8.4,12.3c1.5,2.4,3,4.9,4.6,7.3c1.6,2.7,2.9,5.6,3.8,8.6
		c0.4,1.1,0.7,2.2,1.2,3.2c1.6,4.3,3.1,8.6,4.8,13.4c2,5.5,3.5,11.2,4.5,17c0.3,1.9,0.5,3.9,0.5,5.9c0.1,1.1,0.1,2.3,0.2,3.5
		c0.4,4.4,0.6,8.9,0.7,13.8C259.6,151.2,259.4,154,259,156.7L259,156.7L259,156.7z"/>
</g>
</svg>
