<?xml version="1.0" encoding="utf-8"?>
<!-- Generator: Adobe Illustrator 15.0.2, SVG Export Plug-In . SVG Version: 6.00 Build 0)  -->
<!DOCTYPE svg PUBLIC "-//W3C//DTD SVG 1.1//EN" "http://www.w3.org/Graphics/SVG/1.1/DTD/svg11.dtd">
<svg version="1.1" id="Layer_1" xmlns="http://www.w3.org/2000/svg" xmlns:xlink="http://www.w3.org/1999/xlink" x="0px" y="0px"
	 width="283.46px" height="283.46px" viewBox="0 0 283.46 283.46" enable-background="new 0 0 283.46 283.46" xml:space="preserve">
<title>map icon member</title>
<g id="Calque_2">
	<path fill="#34A557" d="M258.291,131.199c-0.08-1.951-0.264-3.896-0.547-5.827c-1.021-5.764-2.524-11.433-4.496-16.944
		c-1.648-4.787-3.147-9.098-4.77-13.392c-0.405-1.067-0.785-2.168-1.154-3.235c-0.894-3.022-2.17-5.917-3.801-8.613
		c-1.596-2.372-3.094-4.849-4.549-7.247c-2.456-4.326-5.248-8.453-8.348-12.342c-2.4-3.037-5.26-5.681-8.473-7.837
		c-2.431-1.496-4.619-3.354-6.488-5.51c-3.951-4.665-8.838-8.446-14.344-11.099c-6.404-3.219-13.026-5.982-19.818-8.27
		c-0.811-0.256-1.631-0.529-2.416-0.793c-2.141-0.8-4.347-1.411-6.594-1.825c-3.042-0.485-6.621-1.084-10.13-1.887
		c-3.922-0.885-7.919-1.398-11.937-1.534c-0.564,0-1.129,0-1.693,0c-2.318,0-4.654,0.167-6.929,0.326
		c-1.586,0.115-3.235,0.229-4.857,0.291c-2.396,0.016-4.784,0.264-7.132,0.741c-3.994,0.926-8.076,1.657-12.025,2.363l-1.049,0.185
		l-2.645,0.432c-1.995,0.275-3.972,0.661-5.924,1.155c-2.01,0.555-4.002,1.313-5.933,2.045c-1.278,0.476-2.592,0.979-3.914,1.419
		c-5.847,2.036-11.491,4.616-16.856,7.705c-7.32,4.069-14.196,8.891-20.515,14.388c-2.787,2.499-5.243,5.342-7.309,8.463
		c-1.463,2.134-2.865,4.408-4.223,6.559c-1.137,1.825-2.31,3.712-3.526,5.528c-4.262,6.457-7.905,13.302-10.879,20.444l-0.652,1.569
		c-1.596,3.782-3.244,7.697-4.611,11.62c-1.913,5.519-2.759,11.161-3.606,17.429c-0.353,2.645-0.449,5.29-0.546,7.935
		c-0.079,1.966-0.15,4.002-0.335,6.012c-0.382,4.952-0.16,9.931,0.661,14.829l0.37,2.548c0.358,2.942,0.897,5.86,1.613,8.736
		c2.112,7.854,4.921,15.505,8.393,22.86c3.966,7.988,8.433,15.717,13.374,23.142c2.81,4.388,5.911,8.581,9.283,12.554
		c2.916,3.405,6.403,6.275,10.306,8.481c1.763,1.022,3.526,2.099,5.228,3.138c1.86,1.138,3.773,2.319,5.695,3.412
		c1.631,0.935,3.253,1.931,4.822,2.892c4.108,2.513,8.358,5.113,12.995,6.763c1.666,0.59,3.306,1.287,4.901,1.965
		c2.859,1.322,5.842,2.358,8.904,3.095c1.278,0.265,2.592,0.468,3.87,0.661l2.345,0.379c1.271,0.192,2.551,0.318,3.835,0.379
		c1.352,0.068,2.699,0.203,4.038,0.406c3.341,0.484,6.71,0.74,10.085,0.768c2.01,0.061,4.091,0.132,6.171,0.29
		c5.311,0.345,10.645,0.003,15.869-1.014c1.656-0.291,3.341-0.485,4.972-0.661c2.495-0.222,4.97-0.625,7.405-1.208
		c1.552-0.414,3.112-0.935,4.629-1.437c1.11-0.371,2.266-0.75,3.411-1.094c5.318-1.557,10.469-3.639,15.376-6.215
		c3.041-1.622,6.056-3.438,8.975-5.184c3.438-2.063,6.99-4.197,10.641-6.057c1.739-0.815,3.332-1.912,4.717-3.244
		c4.24-4.408,9.212-9.697,13.92-15.367c3.579-4.302,7.309-8.939,10.076-14.211c0.776-1.48,1.508-3.041,2.205-4.549
		c1.018-2.28,2.15-4.508,3.394-6.674c3.94-6.594,8.552-21.158,8.657-21.528c0.975-3.153,1.586-6.406,1.824-9.698
		c0.124-1.348,0.283-2.715,0.441-4.028c0.389-2.701,0.592-5.426,0.608-8.155c-0.07-4.893-0.309-9.389-0.714-13.744
		C258.422,133.509,258.378,132.336,258.291,131.199z"/>
	<path fill="#96B481" d="M258.291,131.199c-0.08-1.951-0.264-3.896-0.547-5.827c-1.021-5.764-2.524-11.433-4.496-16.944
		c-1.648-4.787-3.147-9.098-4.77-13.392c-0.405-1.067-0.785-2.168-1.154-3.235c-0.894-3.022-2.17-5.917-3.801-8.613
		c-1.596-2.372-3.094-4.849-4.549-7.247c-2.456-4.326-5.248-8.453-8.348-12.342c-2.4-3.037-5.26-5.681-8.473-7.837
		c-2.431-1.496-4.619-3.354-6.488-5.51c-3.951-4.665-8.838-8.446-14.344-11.099c-6.404-3.219-13.026-5.982-19.818-8.27
		c-0.811-0.256-1.631-0.529-2.416-0.793c-2.141-0.8-4.347-1.411-6.594-1.825c-3.042-0.485-6.621-1.084-10.13-1.887
		c-3.922-0.885-7.919-1.398-11.937-1.534c-0.564,0-1.129,0-1.693,0c-2.318,0-4.654,0.167-6.929,0.326
		c-1.586,0.115-3.235,0.229-4.857,0.291c-2.396,0.016-4.784,0.264-7.132,0.741c-3.994,0.926-8.076,1.657-12.025,2.363l-1.049,0.185
		l-2.645,0.432c-1.995,0.275-3.972,0.661-5.924,1.155c-2.01,0.555-4.002,1.313-5.933,2.045c-1.278,0.476-2.592,0.979-3.914,1.419
		c-5.847,2.036-11.491,4.616-16.856,7.705c-7.32,4.069-14.196,8.891-20.515,14.388c-2.787,2.499-5.243,5.342-7.309,8.463
		c-1.463,2.134-2.865,4.408-4.223,6.559c-1.137,1.825-2.31,3.712-3.526,5.528c-4.262,6.457-7.905,13.302-10.879,20.444l-0.652,1.569
		c-1.596,3.782-3.244,7.697-4.611,11.62c-1.913,5.519-2.759,11.161-3.606,17.429c-0.353,2.645-0.449,5.29-0.546,7.935
		c-0.079,1.966-0.15,4.002-0.335,6.012c-0.382,4.952-0.16,9.931,0.661,14.829l0.37,2.548c0.358,2.942,0.897,5.86,1.613,8.736
		c2.112,7.854,4.921,15.505,8.393,22.86c3.966,7.988,8.433,15.717,13.374,23.142c2.81,4.388,5.911,8.581,9.283,12.554
		c2.916,3.405,6.403,6.275,10.306,8.481c1.763,1.022,3.526,2.099,5.228,3.138c1.86,1.138,3.773,2.319,5.695,3.412
		c1.631,0.935,3.253,1.931,4.822,2.892c4.108,2.513,8.358,5.113,12.995,6.763c1.666,0.59,3.306,1.287,4.901,1.965
		c2.859,1.322,5.842,2.358,8.904,3.095c1.278,0.265,2.592,0.468,3.87,0.661l2.345,0.379c1.271,0.192,2.551,0.318,3.835,0.379
		c1.352,0.068,2.699,0.203,4.038,0.406c3.341,0.484,6.71,0.74,10.085,0.768c2.01,0.061,4.091,0.132,6.171,0.29
		c5.311,0.345,10.645,0.003,15.869-1.014c1.656-0.291,3.341-0.485,4.972-0.661c2.495-0.222,4.97-0.625,7.405-1.208
		c1.552-0.414,3.112-0.935,4.629-1.437c1.11-0.371,2.266-0.75,3.411-1.094c5.318-1.557,10.469-3.639,15.376-6.215
		c3.041-1.622,6.056-3.438,8.975-5.184c3.438-2.063,6.99-4.197,10.641-6.057c1.739-0.815,3.332-1.912,4.717-3.244
		c4.24-4.408,9.212-9.697,13.92-15.367c3.579-4.302,7.309-8.939,10.076-14.211c0.776-1.48,1.508-3.041,2.205-4.549
		c1.018-2.28,2.15-4.508,3.394-6.674c3.94-6.594,8.552-21.158,8.657-21.528c0.975-3.153,1.586-6.406,1.824-9.698
		c0.124-1.348,0.283-2.715,0.441-4.028c0.389-2.701,0.592-5.426,0.608-8.155c-0.07-4.893-0.309-9.389-0.714-13.744
		C258.422,133.509,258.378,132.336,258.291,131.199z"/>
</g>
<g id="Calque_1">
	<path fill="#FFFFFF" d="M153.205,120.638c0.22-15.419-0.441-30.856-5.29-45.508c-0.11-0.343-0.243-0.679-0.397-1.005
		c-1.075-2.274-6.17-1.657-6.47,0.882c-1.693,13.964,2.098,28.423-0.371,42.316c-2.239-2.495-4.708-35.114-9.645-46.892
		c-0.785-1.851-1.957-3.958-4.276-3.588c-1.589,0.282-2.831,1.53-3.103,3.121c-1.199,6.665-0.776,13.444-0.353,20.171l1.842,28.987
		c-0.961,0.881-2.38-0.512-2.9-1.763c-5.29-12.193-8.816-20.444-10.482-33.606c-0.273-2.099-0.882-4.682-3.033-5.078
		c-1.005-0.328-2.109-0.07-2.865,0.67c-1.349,1.604-1.332,4.091-1.261,6.048c0.511,14.837,2.645,24.94,6.339,39.311
		c0.937,3.127,1.019,6.448,0.238,9.618c-9.389-4.514-15.895-13.242-20.303-22.728c-1.058-2.284-3.324-5.158-5.422-3.756
		c-1.216,0.811-1.252,2.565-1.093,4.02c0.876,6.888,3.036,13.55,6.365,19.642c2.954,5.36,6.841,10.138,10.711,14.881
		c4.558,5.598,7.414,11.188,11.981,16.75c2.53,3.104,5.113,6.304,6.294,10.121c0.497,1.779,0.836,3.6,1.014,5.439
		c5.131,40.818,2.742,40.475,7.873,81.292l1.226,1.481l15.869,1.031l7.467-0.08l9.239-1.454l5.536-0.67l4.611-1.005l4.514-1.296
		l-0.75-1.843c-9.829-33.5-13.021-35.846-17.217-81.539l-0.088-3.826c0.367-2.801,1.6-5.418,3.525-7.484
		c6.779-7.168,14.573-15.331,15.869-27.03c0.617-5.554,1.234-11.231,3.791-16.204c0.679-1.314,3.033-7.661,3.474-9.072
		c0.812-2.645-1.71-5.21-4.408-5.167c-3.05,0.062-3.05,0.062-5.897,1.843c-3.024,1.878-5.704,5.678-7.344,9.142l-5.545,11.902
		c-0.617,1.313-1.844,1.604-3.271,1.763c-2.115,0.31-4.127-1.013-4.682-3.077C154.042,125.663,153.205,124.446,153.205,120.638z"/>
	<path fill="#262424" d="M155.963,120.638c0.202-14.696-0.388-29.648-4.603-43.824c-0.881-2.918-1.674-5.836-4.963-6.656
		c-2.344-0.59-4.827,0.021-6.629,1.631c-0.963,1.029-1.507,2.381-1.525,3.791c-0.211,1.852-0.317,3.712-0.361,5.572
		c-0.088,3.526,0.07,7.053,0.273,10.579c0.467,8.243,1.287,16.618-0.115,24.817l4.619-1.226c0.062,0.079,0.477,0.679,0.247,0.3
		c-0.229-0.379,0,0.097,0.097,0.264c-0.105-0.299-0.22-0.59-0.309-0.881c-0.237-0.82-0.423-1.666-0.59-2.504
		c-0.52-2.548-0.881-5.122-1.313-7.688c-1.014-6.621-1.939-13.224-3.156-19.854c-0.573-3.13-1.199-6.25-2.001-9.327
		c-0.6-2.821-1.581-5.547-2.918-8.102c-2.275-3.861-7.326-4.787-10.324-1.12c-1.613,1.966-1.719,4.655-1.966,7.053
		c-0.254,2.702-0.346,5.416-0.273,8.128c0.256,12.483,1.463,25.002,2.257,37.468l1.367-2.389l1.411,0.106
		c-0.107-0.071-0.189-0.172-0.238-0.291c-0.143-0.391-0.326-0.766-0.546-1.12c-0.362-0.829-0.714-1.666-1.067-2.495
		c-0.723-1.681-1.428-3.374-2.116-5.078c-1.287-3.156-2.486-6.356-3.526-9.618c-1.007-3.253-1.826-6.562-2.451-9.909
		c-0.564-3.068-0.502-6.691-2.098-9.468c-1.596-2.777-5.871-4.082-8.622-1.949c-2.927,2.266-2.759,6.489-2.645,9.804
		c0.309,7.312,1.146,14.592,2.504,21.784c0.775,4.108,1.71,8.172,2.706,12.228c1.084,4.364,2.495,8.481,1.464,12.995l4.055-1.648
		c-4.809-2.417-9.023-5.867-12.342-10.103c-1.638-2.068-3.112-4.261-4.408-6.559c-1.34-2.327-2.274-4.99-3.861-7.159
		c-1.587-2.168-3.958-4.046-6.771-3.244c-2.812,0.802-3.906,3.809-3.721,6.498c0.423,6.092,2.416,12.157,4.902,17.685
		c2.645,5.819,6.365,10.95,10.324,15.868c2.001,2.504,4.038,4.964,5.862,7.6c1.825,2.637,3.526,5.29,5.29,7.882
		c3.526,4.999,8.384,9.407,9.601,15.622c1.138,5.854,1.543,11.937,2.178,17.861c1.702,15.869,2.363,31.799,3.976,47.668
		c0.582,5.695,1.243,11.391,1.948,17.076c0.035,1.32,0.489,2.596,1.296,3.641c0.495,0.803,1.238,1.422,2.116,1.764
		c0.796,0.149,1.605,0.221,2.416,0.211c4.867,0.318,9.795,0.883,14.679,0.883c2.602,0.131,5.209,0.071,7.803-0.177
		c2.706-0.397,5.404-0.882,8.11-1.278c0.212,0,0.837-0.247,1.049-0.158c0,0-1.031,0.123-0.476,0.061l0.979-0.114l4.231-0.521
		c2.165-0.297,4.306-0.76,6.4-1.384l3.57-1.022c1.305-0.379,2.495-1.992,1.922-3.395c-2.318-5.703-3.755-11.865-5.589-17.755
		c-1.543-4.972-3.121-9.944-4.506-14.987c-2.989-11.42-5.079-23.059-6.25-34.805c-0.512-4.603-0.979-9.211-1.402-13.824
		c-0.113-1.182-0.141-2.345-0.167-3.526c-0.104-1.198,0.064-2.403,0.493-3.526c1.146-3.412,4.355-5.863,6.684-8.48
		c2.711-2.967,5.135-6.185,7.237-9.609c2.202-3.539,3.765-7.436,4.62-11.514c0.881-4.655,0.961-9.372,2.345-13.938
		c0.943-3.112,2.513-6.057,3.659-9.098c1.146-3.042,2.715-6.101,1.049-9.16c-2.187-4.02-7.617-4.849-11.523-3.024
		c-4.363,2.045-7.652,5.889-9.918,10.059c-1.287,2.38-2.362,4.901-3.525,7.361l-1.949,4.144c-0.423,0.881-0.528,1.922-1.543,2.16
		c-1.586,0.379-2.027-0.494-2.468-1.842c-0.589-1.676-0.911-3.435-0.952-5.21c-0.044-3.526-5.562-3.526-5.519,0
		c0.044,3.262,0.696,7.741,2.927,10.315c2.645,3.033,8.172,3.235,10.816,0.105c1.465-1.763,2.223-4.275,3.174-6.294
		c1.174-2.495,2.284-5.034,3.527-7.476c1.763-3.333,4.469-7,7.819-8.393c1.098-0.435,2.315-0.46,3.43-0.071
		c1.322,0.679,0.829,1.667,0.44,2.769c-0.458,1.287-0.934,2.557-1.419,3.835s-0.882,2.354-1.331,3.279
		c-1.991,4.442-3.259,9.175-3.756,14.018c-0.538,4.24-1.076,8.287-2.928,12.193c-1.73,3.512-3.902,6.787-6.461,9.75
		c-2.469,2.936-5.502,5.527-7.697,8.675c-4.223,6.048-2.45,13.665-1.763,20.462c1.331,12.994,2.918,26.025,6.171,38.711
		c1.402,5.527,3.095,10.984,4.796,16.434c1.04,3.332,2.071,6.667,3.095,10.006c0.996,3.279,1.842,6.629,3.129,9.803l1.932-3.395
		c-1.49,0.433-2.98,0.883-4.488,1.287c-0.616,0.159-1.242,0.273-1.868,0.415c-0.902,0.078-1.791,0.271-2.646,0.573
		c-0.114,0.07,1.05-0.123,0.248,0l-1.411,0.168l-3.165,0.387c-1.34,0.168-2.645,0.379-4.012,0.592
		c-2.01,0.316-4.02,0.617-6.029,0.951c-1.208,0.194,0.881,0-0.309,0c-0.953,0-1.922,0-2.875,0c-2.812,0-5.527-0.053-8.339-0.238
		l-11.637-0.758l1.948,0.812l-1.226-1.481l0.811,1.948c-1.481-11.813-2.742-23.636-3.579-35.511
		c-0.67-9.38-1.287-18.752-2.257-28.105c-0.344-3.412-0.732-6.823-1.128-10.234c-0.467-3.924-0.75-7.936-1.561-11.832
		c-1.569-7.502-7.705-13.021-11.84-19.174c-2.204-3.289-4.355-6.604-6.797-9.698c-2.442-3.095-5.034-6.171-7.335-9.397
		c-4.399-6.128-7.499-13.092-9.106-20.462c-0.415-1.693-0.651-3.424-0.706-5.167v-0.079c0.159-0.458,0.167-0.556,0-0.282
		c-0.193-0.049-0.39,0.067-0.44,0.261c0,0.001,0,0.002-0.001,0.004c0,0.15,1.014,1.137,1.19,1.419
		c1.948,3.147,3.315,6.594,5.377,9.697c4.223,6.356,9.698,11.902,16.618,15.305c1.344,0.758,3.049,0.284,3.808-1.061
		c0.104-0.186,0.188-0.383,0.248-0.588c1.075-4.734,0.3-8.922-0.882-13.55c-1.005-3.95-1.957-7.935-2.777-11.911
		c-1.587-7.764-2.531-15.646-2.821-23.565c-0.15-1.584,0.005-3.182,0.458-4.708c0.185-0.547-0.282,0,0,0s0.75,0.396,0.3,0
		c0.375,0.446,0.614,0.991,0.688,1.569c0.882,3.685,1.146,7.529,2.028,11.24c1.763,7.37,4.628,14.37,7.59,21.317
		c0.75,1.763,1.349,3.729,2.689,5.14c1.34,1.411,3.606,2.125,5.422,0.882c2.037-1.358,1.243-4.267,1.111-6.339l-0.458-7.247
		c-0.582-9.16-1.499-18.381-1.561-27.567c-0.022-2.278,0.075-4.556,0.291-6.824c0.071-0.679,0-3.923,1.217-3.95
		c1.216-0.026,2.081,3.853,2.389,4.84c1.463,5.082,2.594,10.253,3.385,15.481c1.058,6.171,1.913,12.422,2.9,18.628
		c0.353,2.195,0.705,4.408,1.199,6.577c0.248,1.508,0.852,2.934,1.763,4.161c1.269,1.525,4.275,0.758,4.611-1.217
		c2.178-12.801-0.485-25.566,0.088-38.446c-0.049-1.404,0.064-2.809,0.335-4.188c-0.079,0.282-0.291,0.291-0.07,0.264l0.635-0.194
		c0.241-0.042,0.489-0.042,0.731,0c0.193,0,0.238,0.238,0.133,0c0.538,1.372,0.957,2.788,1.252,4.232
		c1.67,6.134,2.781,12.408,3.323,18.743c0.597,7.351,0.813,14.728,0.652,22.102C150.4,124.19,155.919,124.19,155.963,120.638z"/>
	<path fill="#56694C" d="M283.39,133.121c-0.133-1.34-0.213-2.715-0.283-4.055c-0.1-2.411-0.326-4.815-0.678-7.203
		c-1.24-7.012-3.068-13.907-5.467-20.612c-1.975-5.73-3.764-10.896-5.713-16.045c-0.467-1.234-0.881-2.53-1.349-3.791
		c-1.287-3.72-2.645-7.573-4.813-10.835c-1.878-2.777-3.65-5.713-5.359-8.551c-3.068-5.069-6.233-10.324-10.184-14.987
		c-3.826-4.549-7.053-7.485-10.649-9.821c-2.696-1.652-5.128-3.703-7.212-6.083c-4.928-5.824-11.029-10.543-17.904-13.85
		c-7.521-3.615-15.561-7.353-23.962-9.997c-0.943-0.291-1.904-0.617-2.839-0.935c-2.681-0.993-5.441-1.753-8.252-2.275
		c-3.588-0.564-7.811-1.269-11.928-2.212C161.975,0.784,157.06,0.159,152.12,0c-3.53-0.079-7.062,0.039-10.579,0.353
		c-1.878,0.132-3.817,0.265-5.722,0.335c-3.009,0.029-6.008,0.345-8.957,0.943c-4.681,1.058-9.539,1.896-14.203,2.777l-1.252,0.221
		c-1.014,0.185-2.054,0.344-3.068,0.511c-2.467,0.342-4.913,0.822-7.326,1.437c-2.503,0.688-4.937,1.613-7.291,2.504
		c-1.499,0.564-3.05,1.155-4.584,1.666c-7.115,2.469-13.983,5.597-20.515,9.345c-8.892,4.94-17.244,10.793-24.923,17.464
		c-3.479,3.123-6.546,6.678-9.125,10.579c-1.763,2.645-3.465,5.29-5.096,7.935c-1.34,2.16-2.733,4.408-4.161,6.532
		c-5.179,7.829-9.607,16.129-13.224,24.791l-0.785,1.869c-1.922,4.549-3.897,9.257-5.554,14.018
		c-2.354,6.788-3.385,13.647-4.408,21.255c-0.432,3.262-0.564,6.541-0.679,9.697c-0.088,2.31-0.176,4.708-0.388,7.053
		c-0.466,6.106-0.185,12.246,0.837,18.284c0.15,1.005,0.3,2.011,0.441,3.015c0.439,3.611,1.101,7.191,1.983,10.721
		c2.561,9.49,5.959,18.732,10.156,27.621c4.849,10.164,10.852,19.712,16.098,27.867c3.416,5.323,7.18,10.415,11.267,15.242
		c3.661,4.265,8.034,7.861,12.924,10.633c2.081,1.207,4.17,2.486,6.171,3.72c2.23,1.366,4.54,2.777,6.859,4.1
		c1.913,1.103,3.835,2.283,5.695,3.421c5.007,3.059,10.182,6.232,15.948,8.277c1.922,0.688,3.844,1.508,5.713,2.293
		c3.561,1.658,7.279,2.954,11.099,3.87c1.578,0.326,3.183,0.573,4.726,0.812l2.759,0.439c1.6,0.252,3.213,0.414,4.831,0.485
		c1.508,0.106,3.068,0.203,4.567,0.45c4.087,0.602,8.211,0.922,12.342,0.961c2.372,0.07,4.822,0.149,7.211,0.334
		c1.569,0.124,3.165,0.186,4.805,0.186c4.942-0.045,9.872-0.523,14.731-1.428c1.904-0.336,3.87-0.556,5.774-0.768
		c3.095-0.272,6.165-0.773,9.187-1.498c1.922-0.512,3.826-1.146,5.668-1.764c1.305-0.432,2.646-0.881,3.994-1.278
		c6.498-1.905,12.791-4.452,18.787-7.599c3.686-1.967,7.309-4.145,10.816-6.251c4.064-2.433,8.27-4.964,12.555-7.142
		c2.316-1.084,4.434-2.554,6.26-4.346c5.086-5.289,11.055-11.637,16.75-18.451c4.355-5.237,8.895-10.889,12.342-17.386
		c0.953-1.815,1.834-3.702,2.645-5.528c1.179-2.647,2.49-5.234,3.933-7.748c4.857-8.12,10.579-26.166,10.579-26.219
		c1.207-3.922,1.967-7.969,2.266-12.061c0.133-1.578,0.326-3.183,0.512-4.734c0.479-3.329,0.729-6.688,0.749-10.051
		C284.166,143.824,283.875,138.411,283.39,133.121z M259.04,156.695c-0.159,1.322-0.326,2.645-0.449,4.038
		c-0.231,3.292-0.845,6.546-1.825,9.697c-0.105,0.353-4.734,14.987-8.692,21.599c-1.246,2.176-2.382,4.412-3.403,6.701
		c-0.705,1.516-1.428,3.076-2.213,4.566c-2.777,5.289-6.515,9.944-10.111,14.264c-4.726,5.678-9.697,10.977-13.965,15.42
		c-1.388,1.338-2.987,2.437-4.734,3.253c-3.658,1.86-7.229,4.003-10.676,6.074c-2.927,1.763-5.959,3.526-9.01,5.201
		c-4.922,2.589-10.09,4.677-15.428,6.233c-1.155,0.344-2.301,0.731-3.421,1.102c-1.525,0.502-3.095,1.031-4.646,1.445
		c-2.445,0.583-4.93,0.986-7.433,1.209c-1.64,0.176-3.323,0.369-4.981,0.66c-5.244,1.02-10.598,1.363-15.93,1.023
		c-2.054-0.168-4.143-0.229-6.171-0.291c-3.387-0.03-6.769-0.289-10.121-0.775c-1.341-0.203-2.692-0.34-4.047-0.406
		c-1.29-0.061-2.576-0.188-3.853-0.379l-2.345-0.379c-1.287-0.194-2.645-0.406-3.879-0.662c-3.078-0.74-6.075-1.783-8.948-3.111
		c-1.596-0.679-3.244-1.375-4.91-1.966c-4.655-1.657-8.922-4.267-13.039-6.788c-1.578-0.971-3.209-1.967-4.84-2.9
		c-1.931-1.103-3.853-2.283-5.722-3.421c-1.701-1.05-3.474-2.134-5.29-3.156c-3.914-2.215-7.413-5.094-10.341-8.507
		c-3.361-3.982-6.457-8.183-9.265-12.572c-4.953-7.453-9.434-15.209-13.418-23.221c-3.475-7.378-6.29-15.049-8.411-22.922
		c-0.719-2.885-1.261-5.812-1.622-8.764c-0.112-0.857-0.235-1.713-0.37-2.564c-0.822-4.913-1.044-9.907-0.662-14.873
		c0.186-2.019,0.265-4.056,0.335-6.03c0.097-2.645,0.203-5.29,0.555-7.935c0.837-6.286,1.693-11.945,3.615-17.482
		c1.366-3.941,3.024-7.873,4.62-11.664l0.661-1.569C37.636,89.672,41.29,82.8,45.57,76.32c1.216-1.833,2.398-3.72,3.526-5.545
		c1.357-2.186,2.759-4.408,4.231-6.594c2.076-3.131,4.541-5.987,7.335-8.499c6.356-5.52,13.27-10.362,20.629-14.449
		c5.382-3.101,11.043-5.689,16.909-7.732c1.331-0.449,2.645-0.943,3.932-1.428c1.94-0.732,3.941-1.499,5.96-2.045
		c1.957-0.504,3.94-0.896,5.942-1.173c0.881-0.132,1.763-0.273,2.645-0.432l1.049-0.185c3.967-0.706,8.058-1.438,12.069-2.372
		c2.354-0.472,4.749-0.72,7.15-0.741c1.64-0.062,3.289-0.176,4.884-0.291c2.283-0.159,4.629-0.317,6.955-0.317
		c0.588,0,1.152,0,1.693,0c4.033,0.134,8.045,0.651,11.98,1.543c3.527,0.802,7.115,1.402,10.165,1.887
		c2.253,0.42,4.465,1.034,6.612,1.833c0.793,0.265,1.613,0.538,2.424,0.793c6.818,2.293,13.465,5.068,19.889,8.305
		c5.527,2.66,10.434,6.454,14.396,11.135c1.871,2.157,4.055,4.021,6.48,5.527c3.229,2.157,6.1,4.808,8.508,7.855
		c3.107,3.891,5.907,8.017,8.375,12.342c1.454,2.407,2.961,4.893,4.566,7.273c1.633,2.709,2.912,5.615,3.809,8.648
		c0.37,1.067,0.749,2.169,1.164,3.244c1.631,4.302,3.129,8.631,4.777,13.436c1.98,5.529,3.49,11.215,4.514,16.997
		c0.293,1.939,0.476,3.894,0.547,5.854c0.07,1.137,0.133,2.319,0.247,3.482c0.405,4.408,0.644,8.886,0.714,13.797
		c-0.014,2.755-0.217,5.506-0.608,8.234V156.695z"/>
</g>
</svg>
