<svg xmlns="http://www.w3.org/2000/svg" viewBox="0 0 47.27 64.67"><title>icon plastic type ldpe</title><g id="Calque_1" data-name="Calque 1">
    <path d="M13.66,40.83a40.65,40.65,0,0,1-6.8-.29c-1.67-.19-5.28,0-4.5-2.66a14.16,14.16,0,0,1,1.52-2.81c.55-.92,1.08-1.85,1.59-2.78.86-1.57,1.66-3.17,2.43-4.77a3.16,3.16,0,0,0,1.93.16c.84-.29.9-1,.95-1.81.1-1.34.28-2.73.26-4.07a1.59,1.59,0,0,0-.42-1.17.52.52,0,0,0-.39-.37c-1-.28-1.78.55-2.51,1.1a21,21,0,0,0-2.67,2.31c-.48.51-1.16,1.21-.79,2a2.82,2.82,0,0,0,1.53,1.1c-1,2-1.95,3.91-3,5.81s-3.13,4.31-2.7,6.8,2.6,2.89,4.63,3.15a49,49,0,0,0,9,.56C15.09,43,15.1,40.75,13.66,40.83Z" style="fill:#1d1d1b"/>
    <path d="M35.34,15.41a6.93,6.93,0,0,0-.24-1.92.65.65,0,0,0-.06-.3c-.5-1.06-1.45-.64-2.26-.19a49.68,49.68,0,0,0-3.3-6.71c-1.2-2-2.7-5.12-5-6-2.53-1-4.18,1.41-5.45,3.21C17.18,6,15.7,8.8,14.14,11.52a1.12,1.12,0,0,0,1.93,1.13c1.22-2.13,2.4-4.28,3.71-6.36A29.09,29.09,0,0,1,21.7,3.52c.76-1,1.42-1.73,2.56-.78C25.85,4.06,27,6.42,28,8.2a48.89,48.89,0,0,1,2.83,5.88,3.87,3.87,0,0,0-1.55,1.47c-.53,1.11.62,1.92,1.35,2.55a21.1,21.1,0,0,0,1.85,1.42,3.72,3.72,0,0,0,1.63.88c1.16.07,1.28-1.59,1.32-2.4A22.34,22.34,0,0,0,35.34,15.41Z" style="fill:#1d1d1b"/>
    <path d="M45.87,34.45a54.55,54.55,0,0,0-3.79-7.27,1.12,1.12,0,0,0-1.93,1.13,62.66,62.66,0,0,1,3.16,5.8,24.53,24.53,0,0,1,1.14,3c.21.7.93,2.46.34,3.06s-2.18.39-2.8.44c-1.13.08-2.26.16-3.39.22a66.13,66.13,0,0,1-7,0,2.84,2.84,0,0,0-.67-2.43c-.9-.69-2.42.34-3.28.74s-2.73,1.06-3.28,2,.19,1.46.91,1.82a33.7,33.7,0,0,0,4.28,1.85c1.65.57,2.09-.44,2.12-1.76A69.57,69.57,0,0,0,40.3,43c1.92-.13,5.23.2,6.48-1.67S46.61,36.26,45.87,34.45Z" style="fill:#1d1d1b"/>
    <path d="M27.51,29c-.11-.11-.3-.21-1.57-.21h0l-1,0,0-.8c0-.95-.14-1.22-.24-1.35l0,0a.74.74,0,0,0-1,0c-.1.1-.17.26-.2,1.35l0,.79-.39,0a3.06,3.06,0,0,1-.59,0,4.08,4.08,0,0,1-1.93-.27s0-.05,0-.26,0-.18,0-.31,0-.34.05-.61,0-.51.06-.74c.15-1.77.29-4.13.41-7l.1-2.63L21,16.84c-.32-.32-.53-.45-.72-.45-.45,0-.54.58-.56.78-.06.37-.13,1.16-.21,2.35,0,.83-.09,1.5-.13,2h0C19.11,25,19,27.27,19,28.37a2,2,0,0,0,.14,1,1.83,1.83,0,0,0,1.15.61,20.71,20.71,0,0,0,2.86.35l.33,0V31c0,1.83.16,2.24.31,2.39a.62.62,0,0,0,.5.23l.23,0A.62.62,0,0,0,25,33v-2.7l.77,0a4.49,4.49,0,0,0,1.33-.15,1,1,0,0,0,.52-.49A.54.54,0,0,0,27.51,29Z" style="fill:#1d1d1b;stroke:#1d1d1b;stroke-miterlimit:10;stroke-width:0.25px"/>
    <path d="M12.63,63.07l-.49,0c0-.61-.09-2.61-.14-8.06-.05-4.84-.08-4.9-.13-5a.78.78,0,0,0-.72-.57.57.57,0,0,0-.41.21c-.16.15-.19.18-.19,6.29,0,7.11.08,7.44.11,7.56a1.4,1.4,0,0,0,.6,1.07c.08,0,.12.06,1.12.12l.72,0a1,1,0,0,0,.55-.15.78.78,0,0,0,.37-.6.74.74,0,0,0-.28-.57A1.65,1.65,0,0,0,12.63,63.07Z" style="fill:#1d1d1b"/>
    <path d="M21.43,51.13a7.27,7.27,0,0,0-.82-.92,5.7,5.7,0,0,0-1-.81A5.24,5.24,0,0,0,17,48.6a2.1,2.1,0,0,0-.57.06.7.7,0,0,0-.54.44,2.4,2.4,0,0,0-.09.8c0,.64,0,1.87.12,3.66s.12,2.92.13,3.34A51,51,0,0,0,16.42,64c.07.29.33.65,1.11.68h.17A5.15,5.15,0,0,0,22.87,60a12.75,12.75,0,0,0,.11-2.1,20.34,20.34,0,0,0-.11-2.52A10.17,10.17,0,0,0,21.43,51.13ZM21.31,60a3.6,3.6,0,0,1-3,3,2.27,2.27,0,0,1-.51.06,42.81,42.81,0,0,1-.26-4.47c0-.15,0-.93,0-2.33s-.07-2.62-.1-3.66a20.27,20.27,0,0,0-.16-2.2c0-.14,0-.23,0-.31a2.77,2.77,0,0,1,.57.13h0a4.08,4.08,0,0,1,2,1.3,8.5,8.5,0,0,1,1.56,4.76c0,.56.05,1,.05,1.45A9.87,9.87,0,0,1,21.31,60Z" style="fill:#1d1d1b"/><path d="M28.13,49.26a4.76,4.76,0,0,0-2.48-1h-.16a.88.88,0,0,0-.72.75,3.13,3.13,0,0,0,0,.75c0,.86,0,2.06.1,3.56,0,.88.06,2.75.1,5.56.05,4.57.09,4.77.11,4.87a1,1,0,0,0,.22.52.75.75,0,0,0,.52.24,1.1,1.1,0,0,0,.74-.36l.11-.12-.05-2.85V59.75c0-1,0-1.23,0-1.21a2.05,2.05,0,0,1,.54-.41c.35-.24.73-.51,1.1-.82a6.43,6.43,0,0,0,1.39-1.49,4.33,4.33,0,0,0,.61-1.62,3.77,3.77,0,0,0,.06-.78,5,5,0,0,0-.58-2.35A4.73,4.73,0,0,0,28.13,49.26Zm.57,4.26a3,3,0,0,1-.06.64,3.82,3.82,0,0,1-1.35,2c-.27.22-.52.4-.72.54,0-.46-.07-1.3-.14-2.84,0-.4,0-1-.07-1.8s0-1.31-.06-1.47V50l.15,0a3.56,3.56,0,0,1,2.1,2.23A4.1,4.1,0,0,1,28.7,53.52Z" style="fill:#1d1d1b"/>
    <path d="M35.9,63.13A8.08,8.08,0,0,0,34.69,63L33.82,63a12.36,12.36,0,0,1-.09-1.24c0-.95-.08-1.84-.08-2.63a8.2,8.2,0,0,1,0-.86V58c.35,0,.84-.11,1-.44a.69.69,0,0,0,.12-.41c0-.28-.15-.75-1.15-.75h0v0c0-.06,0-.51-.07-3.23l0-2.6h.09a9.3,9.3,0,0,1,1-.05c1.38,0,1.68-.11,1.81-.34a.67.67,0,0,0-.07-1c-.15-.14-.39-.23-1.17-.23-.42,0-.79,0-1.11,0h-.36l-.38,0a3.77,3.77,0,0,0-.57,0l-.14.05a.74.74,0,0,0-.27.12,1.2,1.2,0,0,0-.18.2l0,.09A8.94,8.94,0,0,0,32,51.62c0,2.11,0,4.66.08,7.57.09,4.51.17,4.68.22,4.8a.77.77,0,0,0,.61.51,10.87,10.87,0,0,0,1.5,0h0l1.67,0,.11-.19c.2-.35.26-.55.21-.73A.7.7,0,0,0,35.9,63.13Z" style="fill:#1d1d1b"/></g></svg>