<svg xmlns="http://www.w3.org/2000/svg" viewBox="0 0 46.65 64.65"><title>icon plastic type ps</title><g id="Calque_1" data-name="Calque 1"><path d="M28.59,26.58A4.64,4.64,0,0,0,27,24.87a5.47,5.47,0,0,0-2.24-1,2.43,2.43,0,0,0-.52,0A3.17,3.17,0,0,0,21.88,25l0,0a21.7,21.7,0,0,1,.42-3.22,19.47,19.47,0,0,1,.86-3.31c.63-1.55,1.45-2.33,2.42-2.33a1.7,1.7,0,0,0,1.23-.35l0,0a.59.59,0,0,0,.11-.61.66.66,0,0,0-.5-.43,2.28,2.28,0,0,0-.79-.08,3.46,3.46,0,0,0-.85.08,4.57,4.57,0,0,0-3,2.79,21,21,0,0,0-1.45,6,22.46,22.46,0,0,0-.14,2.87,19.83,19.83,0,0,0,.18,3.11,7,7,0,0,0,1.53,3.67A4.75,4.75,0,0,0,24,34.39a4,4,0,0,0,1.08.15,3.55,3.55,0,0,0,2.57-1.35,4.22,4.22,0,0,0,.87-1.39,8.79,8.79,0,0,0,.35-2.06c.05-.79.07-1.26.07-1.45A4.23,4.23,0,0,0,28.59,26.58Zm-1.25,1.81a7.29,7.29,0,0,1-.1,1.17,9.42,9.42,0,0,1-.34,1.84,3.09,3.09,0,0,1-.72,1A1.77,1.77,0,0,1,25,33a2.34,2.34,0,0,1-.65-.1,2.75,2.75,0,0,1-1.85-1.6,3,3,0,0,1-.29-1.26c0-.08,0-.39.14-1.32A8.68,8.68,0,0,1,23,26.27a1.54,1.54,0,0,1,.94-.84,1.77,1.77,0,0,1,.39-.06,2.13,2.13,0,0,1,.79.19,4.67,4.67,0,0,1,1.68,1.12A2.6,2.6,0,0,1,27.34,28.39Z" style="fill:#1d1d1b;stroke:#1d1d1b;stroke-miterlimit:10;stroke-width:0.25px"/><path d="M38,15.11c-.27-1.53-1.57-1.29-2.77-.72a65.88,65.88,0,0,0-4.27-8.1,44.32,44.32,0,0,0-3.19-4.6A3.58,3.58,0,0,0,24.25.07c-1.43.33-2.16,1.72-2.9,2.85-1,1.56-2.13,3.08-3.22,4.61A88.63,88.63,0,0,0,12.51,16c-.7,1.26,1.23,2.38,1.93,1.13A73.76,73.76,0,0,1,19,10.18c1.71-2.39,3.3-4.89,5.05-7.26.46-.62.86-.88,1.52-.33a8.38,8.38,0,0,1,1.33,1.64q1.38,1.93,2.61,4a62.21,62.21,0,0,1,3.73,7.15,2.79,2.79,0,0,0-1.5,1.14c-.34.84.48,1.66,1,2.25a13.81,13.81,0,0,0,2.55,2.4c.54.39,1.38,1.13,2.05.58s.56-1.92.64-2.65A14.52,14.52,0,0,0,38,15.11Z" style="fill:#1d1d1b"/><path d="M45.55,36.21a74.63,74.63,0,0,0-3.44-7.83c-.66-1.28-2.59-.15-1.94,1.13A66.35,66.35,0,0,1,43.07,36c.38,1,.76,2,1.08,3,.39,1.25.38,2.1-1,2.37a55.31,55.31,0,0,1-6.7.47c-1.71.11-3.43.27-5.15.35,0-.3,0-.6,0-.89-.07-.83-.21-2-1.22-2.1s-2.41.69-3.35,1.1-2.58.9-3.06,1.84c-.4.77.12,1.44.78,1.81a37.8,37.8,0,0,0,4.11,1.7c.64.26,1.68.79,2.19,0l0-.07h0a.6.6,0,0,0,.06-.11,6.33,6.33,0,0,0,.31-1.05c2.34-.09,4.68-.31,7-.46,1.48-.1,3-.15,4.45-.29a5.76,5.76,0,0,0,2.89-.88C47.65,41.14,46.3,38.25,45.55,36.21Z" style="fill:#1d1d1b"/><path d="M15.24,42.16A48.15,48.15,0,0,1,7.1,41.6a13.44,13.44,0,0,1-3.7-1c-1.54-.78-1.23-2.2-.55-3.52,1.31-2.56,2.84-5,4.24-7.51a7.38,7.38,0,0,0,1.52.65,1.07,1.07,0,0,0,1.52-.87A7.31,7.31,0,0,0,10.47,27a29.36,29.36,0,0,0,.38-3.35,1,1,0,0,0-.68-1.09c-.6-.19-1.29.23-1.81.48A21.26,21.26,0,0,0,5.5,24.77c-.89.62-2.23,1.37-1.27,2.55a7.62,7.62,0,0,0,1,1c-.59,1.07-1.2,2.14-1.8,3.2C2.21,33.73.09,36.28,0,38.89-.1,42,3,43,5.49,43.56a46.83,46.83,0,0,0,9.75.84A1.12,1.12,0,0,0,15.24,42.16Z" style="fill:#1d1d1b"/><path d="M20.09,49.26a4.76,4.76,0,0,0-2.48-1h-.16a.88.88,0,0,0-.72.75,3.13,3.13,0,0,0,0,.75c0,.87,0,2.07.1,3.56,0,.88.06,2.75.1,5.56.05,4.56.09,4.77.11,4.87a1,1,0,0,0,.22.52.77.77,0,0,0,.52.24,1.1,1.1,0,0,0,.74-.36l.11-.12-.05-2.85V59.75c0-1,.05-1.22,0-1.21a2.05,2.05,0,0,1,.54-.41c.35-.24.73-.51,1.1-.82a6.43,6.43,0,0,0,1.39-1.49,4.33,4.33,0,0,0,.61-1.62,3.77,3.77,0,0,0,.06-.78,5.07,5.07,0,0,0-.58-2.35A4.73,4.73,0,0,0,20.09,49.26Zm.57,4.26a3,3,0,0,1-.06.64,3.82,3.82,0,0,1-1.35,2c-.27.22-.52.4-.72.54,0-.46-.07-1.3-.14-2.84q0-.6-.06-1.8c0-.81,0-1.31-.07-1.47V50l.15,0a3.55,3.55,0,0,1,2.1,2.24A4,4,0,0,1,20.66,53.52Z" style="fill:#1d1d1b"/><path d="M28.82,55.9a16,16,0,0,0-1.28-1.28,9.63,9.63,0,0,1-1.82-1.87,1.45,1.45,0,0,1-.13-.65,1.9,1.9,0,0,1,.52-1.35,2.81,2.81,0,0,1,1-.65,2.88,2.88,0,0,0,.58-.26.62.62,0,0,0,.24-.52c0-.57-.57-.8-1.28-.58a3.51,3.51,0,0,0-1.8,1.19,3.17,3.17,0,0,0-.79,2.12,2.15,2.15,0,0,0,0,.44,3.24,3.24,0,0,0,1.12,2c.15.13.6.58,1.36,1.34a12.84,12.84,0,0,1,1,1.14,3.21,3.21,0,0,1,.43.87,5.24,5.24,0,0,1,.28,1.82,3.58,3.58,0,0,1-.09.89A3.18,3.18,0,0,1,27.4,62a2.85,2.85,0,0,1-1.47.8c-1.37.3-1.59.43-1.67.52a.66.66,0,0,0-.25.56.86.86,0,0,0,.12.47.65.65,0,0,0,.61.27,2.3,2.3,0,0,0,.91-.14l.78-.22a5.44,5.44,0,0,0,1-.36,4.09,4.09,0,0,0,1.06-.82,4.62,4.62,0,0,0,1.44-3.39A6.17,6.17,0,0,0,28.82,55.9Z" style="fill:#1d1d1b"/></g></svg>