<svg xmlns="http://www.w3.org/2000/svg" viewBox="0 0 45.29 65.06"><title>icon plastic type hdpe</title><g id="Calque_1" data-name="Calque 1"><path d="M25.79,32.65a12.14,12.14,0,0,0-3.26-.27c-.59,0-2,0-2.69-.08a55,55,0,0,0,3.27-5.2,35,35,0,0,0,2.82-4.74,9.25,9.25,0,0,0,.36-2.44v-.39c0-1.9-.74-3.17-2.2-3.75a3.7,3.7,0,0,0-1.52-.25,4.41,4.41,0,0,0-2.4.55l0,0a.89.89,0,0,0-.37.6c0,.22.1.57.83.57a1.78,1.78,0,0,0,.7-.14,1.33,1.33,0,0,1,.43-.11.45.45,0,0,0,.36-.13h.15a4.72,4.72,0,0,1,1,.12,1.41,1.41,0,0,1,1,.66,3.78,3.78,0,0,1,.4,2A8.69,8.69,0,0,1,24.3,22,42.67,42.67,0,0,1,21,27.5c-3.46,5.15-3.46,5.25-3.46,5.39a.81.81,0,0,0,.64.84c.23.07,1.47.11,4,.17l1,0,1.94,0a1.63,1.63,0,0,0,.79-.1c.11-.07.47-.28.45-.61S25.94,32.72,25.79,32.65Z" style="fill:#1d1d1b;stroke:#1d1d1b;stroke-miterlimit:10;stroke-width:0.25px"/><path d="M13.11,40.17a55.37,55.37,0,0,1-6.57-.31c-1.14-.13-2.28-.31-3.41-.52-.77-.15-1,0-.78-.81a12.51,12.51,0,0,1,.49-1.46,95.89,95.89,0,0,1,4.78-9.84,11.78,11.78,0,0,0,1.87.53.64.64,0,0,0,.79-.6,39.37,39.37,0,0,0-.11-4.61c-.06-.81-.07-2.11-1-2.47s-1.4.53-1.84,1.12c-.24.3-.46.61-.69.92S5.87,23,5.5,23.43a4.86,4.86,0,0,0-.91,1.33.71.71,0,0,0-.07.68,1.77,1.77,0,0,0,.59.51l.51.33C4.71,28,3.82,29.72,3,31.47,1.87,33.75.4,36.22,0,38.76c-.4,2.75,2.56,2.79,4.58,3.08a53.51,53.51,0,0,0,8.49.56A1.12,1.12,0,0,0,13.11,40.17Z" style="fill:#1d1d1b"/><path d="M44.3,35c-1-2.47-2-4.92-3-7.38-.54-1.31-2.7-.74-2.16.6l2.3,5.67c.36.9.75,1.79,1.07,2.7.16.46.84,2.13.38,2.56a4.72,4.72,0,0,1-1.23.25l-1.43.25c-1.17.18-2.35.32-3.53.41a51.57,51.57,0,0,1-5.83.12c-.06-.79,0-1.92-.72-2.45s-1.57-.08-2.26.29a40.89,40.89,0,0,0-3.82,2.41c-.12.08-1.31.67-.43,1.69a20.92,20.92,0,0,0,2.41,1.27,14.52,14.52,0,0,0,3.73,1.48,1.08,1.08,0,0,0,1.26-.89,6.66,6.66,0,0,0,.05-1.56,50.74,50.74,0,0,0,7.29-.29c1.22-.13,2.43-.31,3.64-.53a4.39,4.39,0,0,0,2.67-1C46,39.09,44.89,36.46,44.3,35Z" style="fill:#1d1d1b"/><path d="M37.23,17.62a12.4,12.4,0,0,0-1.12-3.84.93.93,0,0,0-1.46-.27c-.13.08-.25.19-.38.29a1.29,1.29,0,0,0-.4.08c-1.61-2.94-3.3-5.83-5.12-8.65C27.29,3,25.38-1.5,22,.51c-2.18,1.31-3.71,4-5.05,6.1C15.44,9,14,11.48,12.64,14c-.7,1.26,1.23,2.39,1.93,1.13,2.21-4,4.42-8.3,7.5-11.68.35-.39.93-1.08,1.48-1.18.74-.12,1.25,1.08,1.59,1.59q1.32,1.94,2.56,3.91c1.52,2.42,2.94,4.88,4.32,7.38A3.15,3.15,0,0,0,31,17c-.26.8.47,1.35,1.07,1.81.91.7,4.15,3.23,5.26,1.74C37.91,19.84,37.4,18.41,37.23,17.62Z" style="fill:#1d1d1b"/><path d="M13.81,49.65a.67.67,0,0,0-.93-.17h0a1,1,0,0,0-.31.87c0,.16,0,.81.12,1.92.1,1.49.15,2.46.15,2.88v.57H9.46V53.2c0-2.93-.08-3.11-.14-3.25a.67.67,0,0,0-.61-.4.72.72,0,0,0-.7.53c0,.11-.08.19-.08,7.12v7l.11.11a1,1,0,0,0,.71.34.72.72,0,0,0,.51-.31c.07-.13.12-.21.17-3.84l0-3.1H13c0,.14,0,.35,0,.62,0,.63.06,1.65.1,3.06s.07,2.49.13,2.89a1.3,1.3,0,0,0,.52,1,.69.69,0,0,0,.37.12.48.48,0,0,0,.18,0,.68.68,0,0,0,.4-.42l0-.1a2.19,2.19,0,0,0,0-.36c0-.64-.16-3.87-.5-9.85C14.05,50,13.94,49.81,13.81,49.65Z" style="fill:#1d1d1b"/><path d="M22.16,51.13a7.27,7.27,0,0,0-.82-.92,5.7,5.7,0,0,0-1-.81,5.24,5.24,0,0,0-2.62-.8,2.1,2.1,0,0,0-.57.06.72.72,0,0,0-.54.44,2.4,2.4,0,0,0-.09.8c0,.64,0,1.84.12,3.66s.12,2.92.13,3.34A51,51,0,0,0,17.15,64c.07.29.33.65,1.11.68h.17A5.15,5.15,0,0,0,23.6,60a12.75,12.75,0,0,0,.11-2.1,20.34,20.34,0,0,0-.11-2.52A10.17,10.17,0,0,0,22.16,51.13ZM22,60a3.6,3.6,0,0,1-3,3,2.27,2.27,0,0,1-.51.06,42.81,42.81,0,0,1-.26-4.47c0-.15,0-.93,0-2.33s-.07-2.62-.1-3.66-.09-1.78-.15-2.21c0-.13,0-.22,0-.3a2.77,2.77,0,0,1,.57.13h0a4.08,4.08,0,0,1,2,1.3,8.5,8.5,0,0,1,1.56,4.76c0,.56.05,1,.05,1.45A9.87,9.87,0,0,1,22,60Z" style="fill:#1d1d1b"/><path d="M28.86,49.26a4.76,4.76,0,0,0-2.48-1h-.16a.88.88,0,0,0-.72.75,3.13,3.13,0,0,0,0,.75c0,.87,0,2.07.1,3.56,0,.88.06,2.75.1,5.56.05,4.56.09,4.77.11,4.87a1,1,0,0,0,.22.52.77.77,0,0,0,.52.24,1.1,1.1,0,0,0,.74-.36l.11-.12-.05-2.85V59.75c0-1,.05-1.22,0-1.21a2.05,2.05,0,0,1,.54-.41c.35-.24.73-.51,1.1-.82a6.43,6.43,0,0,0,1.39-1.49A4.33,4.33,0,0,0,31,54.2a3.77,3.77,0,0,0,.06-.78,5.07,5.07,0,0,0-.58-2.35A4.73,4.73,0,0,0,28.86,49.26Zm.57,4.26a3,3,0,0,1-.06.64,3.82,3.82,0,0,1-1.35,2c-.27.22-.52.4-.72.54,0-.46-.07-1.3-.14-2.84q0-.6-.06-1.8c0-.81-.05-1.31-.07-1.47V50l.15,0a3.55,3.55,0,0,1,2.1,2.24A4,4,0,0,1,29.43,53.52Z" style="fill:#1d1d1b"/><path d="M36.63,63.13A8.08,8.08,0,0,0,35.42,63L34.55,63a12.36,12.36,0,0,1-.09-1.24c-.05-1-.08-1.84-.08-2.63a8.2,8.2,0,0,1,0-.86V58c.35,0,.84-.11,1-.44a.69.69,0,0,0,.12-.41c0-.28-.15-.75-1.15-.75h0v0c0-.08,0-.6-.07-3.23l0-2.6h.09a9.3,9.3,0,0,1,1-.05c1.38,0,1.68-.11,1.81-.34a.68.68,0,0,0-.07-1C36.9,49,36.66,49,35.88,49c-.42,0-.79,0-1.11,0h-.36L34,49a3.77,3.77,0,0,0-.57,0l-.14.05a.63.63,0,0,0-.26.12.91.91,0,0,0-.19.2l0,.09a9.81,9.81,0,0,0-.07,2.12c0,2.09,0,4.64.09,7.57.08,4.51.16,4.68.21,4.8a.77.77,0,0,0,.61.51,10.87,10.87,0,0,0,1.5,0h0l1.67,0,.11-.19c.2-.35.26-.54.21-.73A.7.7,0,0,0,36.63,63.13Z" style="fill:#1d1d1b"/></g></svg>