<svg xmlns="http://www.w3.org/2000/svg" viewBox="0 0 37.89 36.55"><title>icon social media 1</title><g id="Calque_1" data-name="Calque 1"><path d="M34.46,28.35a1.28,1.28,0,0,0,0-2.55,1.28,1.28,0,0,0,0,2.55Z" style="fill:#1d1d1b"/><path d="M37.83,19.08c-.17-5-.56-9.91-1.13-14.83h0c-.32-5-6.91-4.11-10.5-4.2C18.63-.14,11.05.23,3.48.58a1.36,1.36,0,0,0-.55.15.32.32,0,0,0-.09,0C.1,2,0,4.62,0,7.3c0,5.38.07,10.76.1,16.14C0,32.65,9.41,29.62,15.51,29.91c1.09,2.05,2.56,3.88,3.56,6a1,1,0,0,0,1.05.64,1,1,0,0,0,1.15-.64c1-2.32,2.38-4.45,3.46-6.73a43.55,43.55,0,0,0,9.53-.77,1,1,0,0,0,.69-.13,1,1,0,0,0,.63-.48C38.12,25.57,38,22.38,37.83,19.08ZM24.1,26.57a1,1,0,0,0-.84.12l-.09.06h0a1.05,1.05,0,0,0-.36.56c-.8,1.79-1.8,3.47-2.71,5.2a45.89,45.89,0,0,1-2.69-4.46,1.05,1.05,0,0,0-1.16-.64C12,27,2.57,30.25,2.65,23.44L2.59,14.1c0-2.27-1-9.5,1.3-11,4.54-.27,30-2.23,30.26,1.14.39,3.33.68,6.68.89,10,.19,3,1.49,9.48-1.12,11.59A39.58,39.58,0,0,1,24.1,26.57Z" style="fill:#1d1d1b"/><path d="M26.28,8A4.74,4.74,0,0,0,23.63,5.9a4.94,4.94,0,0,0-4.18.35A4.37,4.37,0,0,0,18,7.9c-1.59-1.08-3.82-1.76-5.4-1.17-2.54.95-2.74,4.33-2,6.56a1,1,0,0,0,.16.42,1,1,0,0,0,.21.34,46.31,46.31,0,0,0,7.26,9.17,1.22,1.22,0,0,0,.76.36A1.11,1.11,0,0,0,20.24,23c2-3.93,5-7.2,6-11.63C26.44,10.28,26.82,9.05,26.28,8ZM14.36,9.16A5.67,5.67,0,0,1,17.3,10.7a1.14,1.14,0,0,0,.29.29,1,1,0,0,0,1.57,0,1.26,1.26,0,0,0,.51-.65c.57-1.57,1.46-2.78,3.31-2,1.34.56,1,1,.79,2.27-.83,3.64-3.07,6.44-4.91,9.54A43.66,43.66,0,0,1,13,12.42C12.46,11.24,12.6,8.78,14.36,9.16Z" style="fill:#1d1d1b"/></g></svg>