<svg xmlns="http://www.w3.org/2000/svg" viewBox="0 0 40.96 32.57"><title>icon discord</title><g id="Calque_1" data-name="Calque 1"><path d="M2.76,25.57A117,117,0,0,1,6.53,5.93a1.25,1.25,0,0,0-2.41-.67A121.9,121.9,0,0,0,.26,25.57c-.19,1.59,2.31,1.58,2.5,0Z" style="fill:#1d1d1b"/><path d="M6.21,6.48a9.5,9.5,0,0,1,4-2.81c1.26-.47,3.71-1.34,5-.86L14.21,1.6l0,.13c.14,1.59,2.65,1.6,2.5,0l0-.13A1.3,1.3,0,0,0,15.8.4c-1.66-.63-4.72.29-6.31.86a11.76,11.76,0,0,0-5,3.45c-1,1.22.72,3,1.77,1.77Z" style="fill:#1d1d1b"/><path d="M14.27,2.06a9.38,9.38,0,0,0,.42,2,1.27,1.27,0,0,0,1.53.87,1.25,1.25,0,0,0,.88-1.53,9.52,9.52,0,0,1-.42-2A1.26,1.26,0,0,0,15.14.52a1.29,1.29,0,0,0-.87,1.54Z" style="fill:#1d1d1b"/><path d="M9.75,9.35c3.45-1.85,5.73-4.21,10-4.13A20.38,20.38,0,0,1,31,9.11c1.31,1,2.56-1.22,1.26-2.15A22.49,22.49,0,0,0,19.74,2.72C15,2.64,12.42,5.09,8.49,7.19,7.07,8,8.33,10.11,9.75,9.35Z" style="fill:#1d1d1b"/><path d="M24.9,1.07c-.12.4-.17.81-.26,1.21-.05.23-.1.46-.16.68s-.07.2-.09.29,0,.12,0-.07c-.07.12,0,.09.09-.1-1.09,1.18.68,3,1.77,1.76.77-.83.72-2.08,1-3.1.48-1.54-1.93-2.2-2.41-.67Z" style="fill:#1d1d1b"/><path d="M25.78,2.61a40,40,0,0,1,8.4,3.63c1.43.73,2.7-1.42,1.26-2.16a42.4,42.4,0,0,0-9-3.88c-1.56-.38-2.23,2-.66,2.41Z" style="fill:#1d1d1b"/><path d="M33.73,5.79a47.66,47.66,0,0,1,4.5,20.06,1.25,1.25,0,0,0,2.5,0A50.92,50.92,0,0,0,35.89,4.53c-.68-1.46-2.83-.19-2.16,1.26Z" style="fill:#1d1d1b"/><path d="M26.51,29.56l1.07,1.73c.85,1.36,3,.11,2.16-1.27l-1.07-1.73c-.84-1.36-3-.11-2.16,1.27Z" style="fill:#1d1d1b"/><path d="M28.66,31.9a15.71,15.71,0,0,0,5.76-1.43,64.23,64.23,0,0,0,5.69-3.54c1.34-.87.09-3-1.26-2.16C35.54,26.93,32.68,29,28.66,29.4c-1.58.17-1.6,2.68,0,2.5Z" style="fill:#1d1d1b"/><path d="M27.69,29.73a14.2,14.2,0,0,0,6.62-4.52c1-1.24-.75-3-1.77-1.77A11.83,11.83,0,0,1,27,27.32c-1.52.5-.87,2.92.66,2.41Z" style="fill:#1d1d1b"/><path d="M6.07,24.23a17.15,17.15,0,0,0,3.26,3.7,9.72,9.72,0,0,0,3.91,2.36c1.57.34,2.24-2.07.67-2.41-2.3-.51-4.44-3-5.68-4.91-.88-1.33-3.05-.08-2.16,1.26Z" style="fill:#1d1d1b"/><path d="M.62,26.45c3,3,6.68,5.74,11.07,6.15,1.61.15,1.6-2.35,0-2.5-3.67-.34-6.8-2.9-9.3-5.42A1.25,1.25,0,0,0,.62,26.45Z" style="fill:#1d1d1b"/><path d="M12.37,28.75l-.18.55-.11.3c.1-.26,0,.06-.06.09s-.2.31,0,.12a1.29,1.29,0,0,1-.23.24c.14-.11,0,0-.1,0h0a1.27,1.27,0,0,1-.28.06A1.25,1.25,0,1,0,12,32.55a3.18,3.18,0,0,0,2-1.41,7.5,7.5,0,0,0,.71-1.73,1.25,1.25,0,0,0-.87-1.53,1.27,1.27,0,0,0-1.54.87Z" style="fill:#1d1d1b"/><path d="M6.52,24.68a33.9,33.9,0,0,0,14.24,3.66c3.88,0,10-.71,13.11-3,1.29-.94,0-3.11-1.26-2.16C30,25.1,23.9,25.86,20.76,25.84a31.43,31.43,0,0,1-13-3.32C6.34,21.84,5.07,24,6.52,24.68Z" style="fill:#1d1d1b"/><path d="M13.42,14.64A4.37,4.37,0,0,0,12,19.18a3.43,3.43,0,0,0,3.8,2.34c1.77-.4,2.13-2.38,2-3.94-.15-1.74-1.35-3.46-3.27-3.31-1.13.08-1.84,1.73-.63,2.32-.24-.46-.32-.45-.25,0v2.19a1.25,1.25,0,0,0,2.5,0c0-1.3.47-3.66-1-4.37l-.63,2.33c.65-.05.76.58.79,1.12,0,.36.14,1.21-.31,1.17s-.69-.66-.71-1a2.19,2.19,0,0,1,.87-1.64c1.19-1.09-.58-2.86-1.77-1.77Z" style="fill:#1d1d1b"/><path d="M26.22,14.25c-2.21.07-3.11,3.06-2.61,4.88s2.78,3.14,4.48,1.84c1.49-1.13,1.35-3.65.57-5.16a2.39,2.39,0,0,0-2.41-1.45,1.87,1.87,0,0,0-1.38,2.29L27.28,16c-.88.4-1.1.73-.65,1l.12.13a1.07,1.07,0,0,1,.18.69c-.06.35-.5.54,0,.57.28.13.37.06.28-.21a6,6,0,0,1,.15-.61H25l.05.12a1.29,1.29,0,0,0,1.54.87A1.25,1.25,0,0,0,27.44,17l-.05-.12a1.26,1.26,0,0,0-2.41,0c-.4,1.44-.28,3.35,1.48,3.8,1.51.39,2.66-1.06,2.92-2.39a3.45,3.45,0,0,0-1.63-3.58c-1.34-.79-3.56.15-2.88,1.94A1.25,1.25,0,0,0,27.28,16c-.88.27-1.14.63-.78,1.09l.06.21a2.94,2.94,0,0,1,.13.73c0,.21.12.92-.18,1s-.53-.67-.53-.9a2.61,2.61,0,0,1,.19-.92,1.68,1.68,0,0,1,.16-.39c.19-.21.15-.23-.11,0,1.6-.06,1.61-2.56,0-2.5Z" style="fill:#1d1d1b"/></g></svg>