<svg xmlns="http://www.w3.org/2000/svg" viewBox="0 0 43.99 37.33"><title>icon events</title><g id="Calque_3" data-name="Calque 3"><polygon points="4.21 1.66 2 5.66 1.65 10.87 38.03 11.51 42.51 11.77 41.93 4.57 39.69 1.51 27.22 1.51 4.21 1.66" style="fill:#f29195"/><polygon points="1.65 10.87 1.65 28.71 2.83 34.87 6.7 35.94 17.09 35.94 34.68 35.94 39.87 34.06 42.51 30.57 42.51 14.26 42.51 11.77 29.12 10.42 18.56 10.42 1.65 10.87" style="fill:#fff"/></g><g id="Calque_1" data-name="Calque 1"><path d="M41.69,1.45C39.8-.62,36.05.1,33.55.22L6.76.41C4.33.31,2.19.91,1.19,3.2.37,5.1.68,7.56.62,9.6.53,12.88.48,16.16.44,19.44c-.06,5.94-2.84,18,6.32,17.64,4.68.27,9.34-.33,14-.1,4.39.22,8.48.63,12.84.05h.06c2.63-.35,6.57.07,8.47-2.14,1.16-1.34,1.28-3.33,1.35-5,.2-4,.27-8,.27-11.93C43.76,13.64,45,5,41.69,1.45ZM6.76,2.91l26.79-.19c2.34-.12,5.29-.81,6.81,1.48.87,1.31,1.1,3.74,1.11,6.22C28.68,9.11,15.67,9.49,2.83,9.37,3,5.89,3.92,2.79,6.76,2.91ZM41,29.91c-.59,4.59-3.54,4.12-7.32,4.62a.9.9,0,0,0-.16,0h-.17c-4.84.71-9.32-.07-14.12-.15-4.17-.07-8.29.4-12.46.16C.87,34.82,2.92,20.8,3,17.47c0-1.25-.16-3.36-.19-5.6,12.84.12,25.85-.26,38.63,1.05-.06,1.62-.15,3.11-.15,4.14C41.27,21.26,41.53,25.74,41,29.91Z" style="fill:#1d1d1b"/><path d="M6.79,24.78a39.74,39.74,0,0,0,5,.08c1.61-.06,1.62-2.56,0-2.5a39.74,39.74,0,0,1-5-.08c-1.61-.13-1.6,2.37,0,2.5Z" style="fill:#1d1d1b"/><path d="M18.29,24.67l6.81.22c1.61.05,1.61-2.45,0-2.5l-6.81-.22c-1.61-.05-1.61,2.45,0,2.5Z" style="fill:#1d1d1b"/><path d="M31.12,25.26l5.55-.3c1.6-.09,1.61-2.59,0-2.5l-5.55.3c-1.6.09-1.61,2.59,0,2.5Z" style="fill:#1d1d1b"/></g></svg>