<svg xmlns="http://www.w3.org/2000/svg" viewBox="0 0 44.76 65.06"><title>icon plastic type other</title><g id="Calque_1" data-name="Calque 1"><path d="M37.2,19.15a10.13,10.13,0,0,0-.32-4c-.43-1.06-1.59-.81-2.76-.2a66,66,0,0,0-4.63-7.1A36.08,36.08,0,0,0,23.66,1.2c-2-1.57-4.48-1.77-6.07.43a25.87,25.87,0,0,0-2,4L13.3,10.25c-.62,1.29,1.3,2.42,1.93,1.13,1.16-2.41,2.3-4.82,3.48-7.21.47-1,1.05-2.29,2.35-1.93A6.84,6.84,0,0,1,23.84,4.5a63.27,63.27,0,0,1,8.4,11.65l-1,.79a.52.52,0,0,0-.21.41,1.29,1.29,0,0,0-.06.8c.26,1,1.75,1.75,2.54,2.29s2.17,1.87,3.06,1.44S37.17,19.83,37.2,19.15Z" style="fill:#1d1d1b"/><path d="M44.69,37.08c-.42-2.93-2-5.82-3-8.56-.52-1.32-2.68-.74-2.16.6.89,2.27,1.91,4.54,2.65,6.87.67,2.11.62,4.66-2,5.09A41.93,41.93,0,0,1,34,41.3c-1.86,0-3.71,0-5.56-.17,0-.41.05-.83.05-1.24,0-.8-.1-1.44-1-1.52-1.25-.11-2.63.62-3.75,1.05-.82.31-2.46.62-2.78,1.61s.41,1.25,1,1.61q2,1.2,4.12,2.27c.63.32,1.42.72,1.94,0a2.87,2.87,0,0,0,.35-1.5q3.48.23,7,.13c2.21-.06,5,.27,7-.81S45,39.22,44.69,37.08Z" style="fill:#1d1d1b"/><path d="M14.29,41.4a30.35,30.35,0,0,1-6.53.14c-1.48-.17-4.66-.62-5.41-2.11-.46-.89.57-2.53.91-3.37L4.7,32.47,6.8,27.2c.8.35,1.8.72,2.37.06s.47-2.39.44-3.29,0-2.79-.69-3.68a1,1,0,0,0-1-.45.64.64,0,0,0-.52.13,18.73,18.73,0,0,0-3,3.07c-.44.58-1.48,1.6-1.09,2.42a2.64,2.64,0,0,0,1.46,1Q3.36,29.83,2,33.22C1.41,34.69.73,36.16.23,37.66a3.39,3.39,0,0,0,.34,3.15c1.25,1.76,4,2.47,6,2.8a30,30,0,0,0,7.75,0C15.71,43.5,15.72,41.27,14.29,41.4Z" style="fill:#1d1d1b"/><path d="M26.85,17.12a1.46,1.46,0,0,0-.86-.18l-.54,0-.95,0H23.31c-2.11.07-2.3.09-2.36.1l-.12,0a.72.72,0,0,0-.48.53.81.81,0,0,0,.21.74.36.36,0,0,0,.26.11l2.37,0,2.07,0c-.21.55-.87,2.05-2.75,6-1.29,2.69-2.27,4.84-2.92,6.4a8.75,8.75,0,0,0-.88,2.51c0,.81.54.9.77.9.57,0,.83-.78.92-1a15.25,15.25,0,0,1,.65-1.81c.65-1.57,1.14-2.7,1.45-3.35,1-2.05,2-4.15,2.93-6.24,1.64-3.72,1.67-4,1.68-4.14A.76.76,0,0,0,26.85,17.12Z" style="fill:#1d1d1b;stroke:#1d1d1b;stroke-miterlimit:10;stroke-width:0.25px"/><path d="M10.11,52a4.5,4.5,0,0,0-2.4-3,3.16,3.16,0,0,0-1.3-.21,6,6,0,0,0-.69,0h0a2.92,2.92,0,0,0-1.79.87,4.82,4.82,0,0,0-1.36,3.16,26,26,0,0,0-.13,2.92,1.55,1.55,0,0,0,.07.7c0,.09,0,.38,0,1.25A13.56,13.56,0,0,0,3,61.1,7.63,7.63,0,0,0,3.71,63a3.52,3.52,0,0,0,1.2,1.16,3.26,3.26,0,0,0,1.72.48,3.15,3.15,0,0,0,2.26-.85,5.26,5.26,0,0,0,1.48-2.85,19.75,19.75,0,0,0,.31-3.78c0-1.4-.06-2.44-.13-3.1A9.48,9.48,0,0,0,10.11,52Zm-1,3.71A5.78,5.78,0,0,0,9.17,57v.08a18.6,18.6,0,0,1-.27,3.3,3.93,3.93,0,0,1-1.06,2.15A1.79,1.79,0,0,1,6.56,63a1.89,1.89,0,0,1-.77-.12,2.2,2.2,0,0,1-1-1.25,12.25,12.25,0,0,1-.68-3.05C4,57.8,4,56.77,4,55.5a17.68,17.68,0,0,1,.15-2.91,2.49,2.49,0,0,1,1.79-2.3,2.41,2.41,0,0,1,.41,0,2,2,0,0,1,1.4.57h0a3.94,3.94,0,0,1,1,1.91A11.44,11.44,0,0,1,9.11,55.72Z" style="fill:#1d1d1b"/><path d="M18.46,49.42c-.51,0-1,0-1.46,0a28.68,28.68,0,0,0-3.93.18.69.69,0,0,0-.13,1.28,3.93,3.93,0,0,0,1.54.14h.82l0,4.32c0,2.1,0,4.24,0,6.43,0,2.38.07,2.47.16,2.58a.71.71,0,0,0,.61.32c.11,0,.42,0,.54-.19s.18-.18.21-7.09c0-4.19,0-5.81,0-6.41h.23l1.19-.07a3.2,3.2,0,0,0,.82-.09.78.78,0,0,0,.48-.52.68.68,0,0,0-.2-.69C19.19,49.48,18.94,49.42,18.46,49.42Z" style="fill:#1d1d1b"/><path d="M27.21,49.65a.69.69,0,0,0-.94-.17h0a1,1,0,0,0-.31.87c0,.16,0,.81.12,1.92.1,1.49.15,2.46.15,2.88v.57H22.86V53.2c0-2.93-.08-3.11-.14-3.25a.69.69,0,0,0-.61-.4.71.71,0,0,0-.7.53c-.05.11-.08.19-.08,7.12v7l.11.11a1,1,0,0,0,.71.34.69.69,0,0,0,.5-.31c.08-.13.13-.21.18-3.84l0-3.1h3.57c0,.14,0,.35,0,.62,0,.63.06,1.65.1,3.06s.07,2.49.12,2.89a1.36,1.36,0,0,0,.52,1,.72.72,0,0,0,.38.12.4.4,0,0,0,.17,0,.67.67,0,0,0,.41-.42l0-.1a2.19,2.19,0,0,0,0-.36c0-.64-.17-3.87-.5-9.85C27.45,50,27.34,49.81,27.21,49.65Z" style="fill:#1d1d1b"/><path d="M32.46,50.47c1.38,0,1.68-.11,1.81-.34a.67.67,0,0,0-.08-1C34.05,49,33.8,49,33,49c-.42,0-.79,0-1.11,0h-.36l-.38,0a3.66,3.66,0,0,0-.57,0l-.14.05a.67.67,0,0,0-.27.12,1.2,1.2,0,0,0-.18.2L30,49.5a10.83,10.83,0,0,0-.06,2.12c0,2.09,0,4.64.08,7.57.09,4.51.17,4.68.22,4.8a.77.77,0,0,0,.61.51,10.87,10.87,0,0,0,1.5,0h0l1.68,0,.11-.19a1,1,0,0,0,.21-.73.7.7,0,0,0-.54-.52A8.51,8.51,0,0,0,32.57,63L31.69,63c0-.18-.05-.54-.09-1.24,0-1-.07-1.84-.07-2.63,0-.42,0-.69,0-.86l0-.27c.35,0,.84-.11,1-.44a.69.69,0,0,0,.12-.41c0-.28-.15-.75-1.15-.75H31.5v0c0-.08,0-.6-.07-3.23l0-2.6h.09A9,9,0,0,1,32.46,50.47Z" style="fill:#1d1d1b"/><path d="M41.88,62.12a20.72,20.72,0,0,0-1-2.55,4,4,0,0,0-1.12-1.48l-.38-.31,0,0a4.56,4.56,0,0,0,1.4-1.22,3.67,3.67,0,0,0,.8-1.67,3.77,3.77,0,0,0,0-.65,9.06,9.06,0,0,0-.19-1.95A4.85,4.85,0,0,0,40,49.76,5,5,0,0,0,38,48.47a2.64,2.64,0,0,0-.91-.2.77.77,0,0,0-.62.27l-.08.1v0a12.28,12.28,0,0,0-.15,2.8c0,1.86,0,3.66-.07,5.34,0,.59,0,1.39,0,2.41,0,1.26,0,2.14,0,2.66,0,1.11.06,1.78.1,2a.9.9,0,0,0,.47.77,1,1,0,0,0,.32.06.71.71,0,0,0,.64-.4c0-.09.07-.13.07-.94s0-1.56,0-2.23c0-.93,0-1.82,0-2.65l.16.09a5,5,0,0,1,1.67,2c.21.49.45,1.13.71,1.9.59,1.76.7,1.82.78,1.86a.74.74,0,0,0,1,0,.79.79,0,0,0,.23-.56A5.14,5.14,0,0,0,41.88,62.12Zm-3-5.91-.79.3-.29.1V56.2c0-2.41,0-4.24,0-5.59,0-.22,0-.38,0-.5A4,4,0,0,1,40,54a3.19,3.19,0,0,1,0,.78,3.09,3.09,0,0,1-.36.62A2.69,2.69,0,0,1,38.89,56.21Z" style="fill:#1d1d1b"/></g></svg>