<svg xmlns="http://www.w3.org/2000/svg" viewBox="0 0 46.59 64.7"><title>icon plastic type pp</title><g id="Calque_1" data-name="Calque 1"><path d="M25.21,26.27a5.79,5.79,0,0,0-1.9-1.86,4.48,4.48,0,0,0-1.81-.5h-.2V19.68h.22a9.69,9.69,0,0,1,1-.06c1,0,1.44-.27,1.44-.79a.71.71,0,0,0-.49-.78A6,6,0,0,0,22.06,18a8.51,8.51,0,0,0-1.59.07,1,1,0,0,0-.79.64c-.05.12-.13.3-.16,3.12v1.52c0,1.24.1,1.62.26,1.81s.57.38,1.24.44a3,3,0,0,1,2.13.92,4.28,4.28,0,0,1,1.19,3.14c0,.34,0,.61,0,.8C24,33.26,22.68,35,20.23,35.83,19.7,36,19,36.3,19,36.89a.68.68,0,0,0,.36.57,1,1,0,0,0,.56.19A5.67,5.67,0,0,0,22,37a7.4,7.4,0,0,0,3.71-4.43,8.47,8.47,0,0,0,.41-2.63A6.48,6.48,0,0,0,25.21,26.27Z" style="fill:#1d1d1b;stroke:#1d1d1b;stroke-miterlimit:10;stroke-width:0.15px"/><path d="M13.4,42.59a60.76,60.76,0,0,1-7-.26c-1-.1-2.64,0-3.47-.79a3.18,3.18,0,0,1-.54-3,33.23,33.23,0,0,1,2.74-6.56q1-2.13,2.09-4.26l.21.11c.68.38,1.53.78,2.11.25a1.63,1.63,0,0,0,.7-1.1c.22-1.1,1.36-7.5-1.38-6.64a11.27,11.27,0,0,0-3.49,2.58c-.74.67-1.85,1.43-1.32,2.57a3.06,3.06,0,0,0,1.19,1.18c-.93,1.88-1.86,3.77-2.74,5.67-1.12,2.38-2.75,5.23-2.45,8,.27,2.48,2,3.79,4.34,4.1a60.46,60.46,0,0,0,9,.48A1.12,1.12,0,0,0,13.4,42.59Z" style="fill:#1d1d1b"/><path d="M36.06,15.08c-.64-.89-1.58-.56-2.41-.21C31,10.11,28.87,4.8,24.46,1.38c-1-.81-2.23-1.65-3.58-1s-2.24,2.31-3.07,3.45A58.39,58.39,0,0,0,12.43,13c-.61,1.29,1.32,2.43,1.94,1.13a56.93,56.93,0,0,1,4.36-7.67A18,18,0,0,1,21.4,2.8c1-.85,2.45.92,3.17,1.65,3.12,3.16,4.87,7.38,7,11.26A3.11,3.11,0,0,0,30,16.93a1.17,1.17,0,0,0,.22,1.36c.38,1.05,1.72,1.85,2.42,2.62s1.72,2.06,2.86,1.51.91-2.17,1-3.08C36.58,18.12,36.85,16.15,36.06,15.08Z" style="fill:#1d1d1b"/><path d="M45,36.66c-1.2-2.81-2.54-5.55-4-8.25-.68-1.26-2.61-.14-1.93,1.13,1.22,2.26,2.37,4.55,3.4,6.9C43,37.62,43.5,38.82,44,40c.14.33.3.51.15.82s-.81.4-1,.47a10.33,10.33,0,0,1-2.05.47c-3.77.52-7.6.49-11.39.75-.09-1.2-.5-2.26-1.59-2.39s-2.1.65-2.9,1.08-2.31,1.09-2.77,2c-1.11,2.25,3.23,2.92,4.48,3.22.8.18,1.91.61,2.53-.19a2.3,2.3,0,0,0,.31-1.51c2.08-.15,4.16-.25,6.24-.36,2.6-.15,5.46-.11,7.93-1,1.13-.41,2.64-1.08,2.67-2.46S45.52,37.88,45,36.66Z" style="fill:#1d1d1b"/><path d="M20.25,49.41a4.76,4.76,0,0,0-2.48-1h-.16a.88.88,0,0,0-.72.76,2.92,2.92,0,0,0,0,.74c0,.87,0,2.07.1,3.56,0,.88.06,2.75.1,5.57.05,4.55.08,4.76.1,4.87a.93.93,0,0,0,.23.51.71.71,0,0,0,.52.24,1.06,1.06,0,0,0,.74-.36l.11-.12-.05-2.85V59.9c0-1,.05-1.22,0-1.21a2.43,2.43,0,0,1,.53-.41,12.1,12.1,0,0,0,1.11-.82A6.43,6.43,0,0,0,21.75,56a4.33,4.33,0,0,0,.61-1.62,3.7,3.7,0,0,0,.06-.78,5,5,0,0,0-.58-2.34A4.69,4.69,0,0,0,20.25,49.41Zm.57,4.26a2.9,2.9,0,0,1-.06.64,3.82,3.82,0,0,1-1.35,1.95l-.72.54c0-.45-.08-1.3-.14-2.84,0-.4,0-1-.07-1.8s0-1.31-.06-1.47v-.52l.15,0a3.57,3.57,0,0,1,2.1,2.24A4,4,0,0,1,20.82,53.67Z" style="fill:#1d1d1b"/><path d="M29.14,51.23a4.69,4.69,0,0,0-1.59-1.82,4.76,4.76,0,0,0-2.48-1h-.16a.88.88,0,0,0-.72.76,2.92,2.92,0,0,0,0,.74c0,.87,0,2.07.1,3.56,0,.88.06,2.75.1,5.57,0,4.55.08,4.76.1,4.87a.93.93,0,0,0,.23.51.71.71,0,0,0,.52.24,1.06,1.06,0,0,0,.74-.36l.11-.12L26,61.37V59.9c0-1,.05-1.22,0-1.21a2.43,2.43,0,0,1,.53-.41,12.1,12.1,0,0,0,1.11-.82A6.43,6.43,0,0,0,29.05,56a4.33,4.33,0,0,0,.61-1.62,3.7,3.7,0,0,0,.06-.78A5,5,0,0,0,29.14,51.23Zm-1,2.44a2.9,2.9,0,0,1-.06.64,3.82,3.82,0,0,1-1.35,1.95L26,56.8c0-.45-.08-1.3-.14-2.84,0-.4,0-1-.07-1.8s0-1.31-.06-1.47v-.52l.15,0A3.57,3.57,0,0,1,28,52.46,4,4,0,0,1,28.12,53.67Z" style="fill:#1d1d1b"/></g></svg>