<svg xmlns="http://www.w3.org/2000/svg" viewBox="0 0 859.49 859.12"><title>badge collection point</title><g id="Calque_1" data-name="Calque 1"><path d="M697.51,404.58a125.7,125.7,0,0,0-1.25-13.44c-2-11.75-5.26-24.16-10.38-39.07-3.8-11-7.24-21-11-30.87-.94-2.46-1.81-5-2.66-7.46-2.38-6.91-4.84-14.05-8.76-19.86-3.69-5.47-7.15-11.19-10.48-16.72-5.83-9.66-11.86-19.64-19.26-28.44-7.07-8.41-12.92-13.81-19.54-18.06a65.09,65.09,0,0,1-15-12.65,100.19,100.19,0,0,0-33.08-25.59c-14.37-6.91-29.75-14.06-45.7-19.07-1.87-.59-3.75-1.23-5.57-1.85a92.32,92.32,0,0,0-15.19-4.2c-7-1.11-15.28-2.49-23.37-4.34a146.7,146.7,0,0,0-27.52-3.54c-1.29,0-2.59-.07-3.9-.07-5.35,0-10.74.38-16,.75-3.66.25-7.45.52-11.2.66a86.69,86.69,0,0,0-16.44,1.7c-9.21,2.15-18.63,3.82-27.73,5.45l-2.42.43c-2,.36-4.05.68-6,1A123.25,123.25,0,0,0,351.45,172c-4.64,1.27-9.24,3-13.69,4.7-2.94,1.12-6,2.27-9,3.29-11.8,3.93-24.15,9.57-38.87,17.75a278.38,278.38,0,0,0-47.37,33.19,101.52,101.52,0,0,0-16.86,19.54c-3.38,4.94-6.61,10.13-9.74,15.14-2.61,4.2-5.31,8.55-8.11,12.75a282.38,282.38,0,0,0-25.08,47.14l-1.52,3.6c-3.67,8.73-7.47,17.76-10.61,26.81-4.42,12.72-6.38,25.73-8.31,40.18-.82,6.08-1,12.31-1.28,18.33-.17,4.53-.35,9.22-.77,13.86-.93,10.2-.43,21.38,1.53,34.18q.44,2.94.85,5.88a165.23,165.23,0,0,0,3.72,20.15,316.24,316.24,0,0,0,19.33,52.59c9.26,19.39,20.77,37.71,30.84,53.35a269.85,269.85,0,0,0,21.41,29A89,89,0,0,0,261.65,643c4.07,2.35,8.13,4.84,12.06,7.24,4.28,2.63,8.71,5.34,13.13,7.87,3.76,2.15,7.51,4.44,11.13,6.66,9.47,5.8,19.26,11.79,29.95,15.6,3.84,1.37,7.63,3,11.3,4.52,6.61,2.8,13.44,5.69,20.55,7.14,2.93.6,6,1.08,8.91,1.53,1.81.28,3.61.56,5.41.87a82.68,82.68,0,0,0,8.84.88,90.93,90.93,0,0,1,9.3.93c7.65,1.29,15.59,1.54,23.26,1.78,4.64.14,9.43.29,14.16.66,10.93.87,22.56.12,36.6-2.34,3.81-.67,7.69-1.11,11.45-1.53a117.44,117.44,0,0,0,17.07-2.77c3.58-1,7.19-2.16,10.69-3.32,2.56-.85,5.21-1.73,7.86-2.52a192.69,192.69,0,0,0,35.45-14.34c7-3.74,14-7.91,20.7-12,7.93-4.76,16.12-9.68,24.54-14a39.93,39.93,0,0,0,10.87-7.48c9.77-10.19,21.23-22.37,32.1-35.43,8.25-9.92,16.84-20.62,23.23-32.78,1.8-3.42,3.47-7,5.09-10.48a169.86,169.86,0,0,1,7.82-15.39c9.09-15.2,19.72-48.84,20-49.64a99.87,99.87,0,0,0,4.2-22.38c.28-3.12.66-6.26,1-9.29a140.25,140.25,0,0,0,1.41-18.8c-.17-11.28-.72-21.66-1.65-31.71C697.82,409.91,697.66,407.2,697.51,404.58Z" style="fill:#fff"/><path d="M697.51,404.58a125.7,125.7,0,0,0-1.25-13.44c-2-11.75-5.26-24.16-10.38-39.07-3.8-11-7.24-21-11-30.87-.94-2.46-1.81-5-2.66-7.46-2.38-6.91-4.84-14.05-8.76-19.86-3.69-5.47-7.15-11.19-10.48-16.72-5.83-9.66-11.86-19.64-19.26-28.44-7.07-8.41-12.92-13.81-19.54-18.06a65.09,65.09,0,0,1-15-12.65,100.19,100.19,0,0,0-33.08-25.59c-14.37-6.91-29.75-14.06-45.7-19.07-1.87-.59-3.75-1.23-5.57-1.85a92.32,92.32,0,0,0-15.19-4.2c-7-1.11-15.28-2.49-23.37-4.34a146.7,146.7,0,0,0-27.52-3.54c-1.29,0-2.59-.07-3.9-.07-5.35,0-10.74.38-16,.75-3.66.25-7.45.52-11.2.66a86.69,86.69,0,0,0-16.44,1.7c-9.21,2.15-18.63,3.82-27.73,5.45l-2.42.43c-2,.36-4.05.68-6,1A123.25,123.25,0,0,0,351.45,172c-4.64,1.27-9.24,3-13.69,4.7-2.94,1.12-6,2.27-9,3.29-11.8,3.93-24.15,9.57-38.87,17.75a278.38,278.38,0,0,0-47.37,33.19,101.52,101.52,0,0,0-16.86,19.54c-3.38,4.94-6.61,10.13-9.74,15.14-2.61,4.2-5.31,8.55-8.11,12.75a282.38,282.38,0,0,0-25.08,47.14l-1.52,3.6c-3.67,8.73-7.47,17.76-10.61,26.81-4.42,12.72-6.38,25.73-8.31,40.18-.82,6.08-1,12.31-1.28,18.33-.17,4.53-.35,9.22-.77,13.86-.93,10.2-.43,21.38,1.53,34.18q.44,2.94.85,5.88a165.23,165.23,0,0,0,3.72,20.15,316.24,316.24,0,0,0,19.33,52.59c9.26,19.39,20.77,37.71,30.84,53.35a269.85,269.85,0,0,0,21.41,29A89,89,0,0,0,261.65,643c4.07,2.35,8.13,4.84,12.06,7.24,4.28,2.63,8.71,5.34,13.13,7.87,3.76,2.15,7.51,4.44,11.13,6.66,9.47,5.8,19.26,11.79,29.95,15.6,3.84,1.37,7.63,3,11.3,4.52,6.61,2.8,13.44,5.69,20.55,7.14,2.93.6,6,1.08,8.91,1.53,1.81.28,3.61.56,5.41.87a82.68,82.68,0,0,0,8.84.88,90.93,90.93,0,0,1,9.3.93c7.65,1.29,15.59,1.54,23.26,1.78,4.64.14,9.43.29,14.16.66,10.93.87,22.56.12,36.6-2.34,3.81-.67,7.69-1.11,11.45-1.53a117.44,117.44,0,0,0,17.07-2.77c3.58-1,7.19-2.16,10.69-3.32,2.56-.85,5.21-1.73,7.86-2.52a192.69,192.69,0,0,0,35.45-14.34c7-3.74,14-7.91,20.7-12,7.93-4.76,16.12-9.68,24.54-14a39.93,39.93,0,0,0,10.87-7.48c9.77-10.19,21.23-22.37,32.1-35.43,8.25-9.92,16.84-20.62,23.23-32.78,1.8-3.42,3.47-7,5.09-10.48a169.86,169.86,0,0,1,7.82-15.39c9.09-15.2,19.72-48.84,20-49.64a99.87,99.87,0,0,0,4.2-22.38c.28-3.12.66-6.26,1-9.29a140.25,140.25,0,0,0,1.41-18.8c-.17-11.28-.72-21.66-1.65-31.71C697.82,409.91,697.66,407.2,697.51,404.58Z" style="fill:#baa0cc;opacity:0.5"/><path d="M851.88,403.2c-.37-4-.61-8.14-.83-12.13a203,203,0,0,0-2-21.54c-3.1-18.58-8.29-38.15-16.35-61.6-5.89-17.13-11.24-32.57-17.08-48-1.4-3.71-2.74-7.58-4-11.34-3.84-11.12-7.8-22.63-14.39-32.39-5.61-8.31-10.9-17.08-16-25.56-9.16-15.16-18.63-30.85-30.44-44.89-11.42-13.59-20.94-22.37-31.83-29.35-9.13-5.86-16-11.63-21.56-18.18a161.92,161.92,0,0,0-53.51-41.4c-22.47-10.79-46.51-22-71.64-29.88-2.82-.88-5.69-1.86-8.46-2.8-7.88-2.66-16-5.42-24.67-6.79-10.74-1.69-23.37-3.8-35.66-6.63A235.63,235.63,0,0,0,459.5,5.12c-10.61-.42-21.25.33-31.54,1.06-5.61.39-11.41.8-17.09,1-9.21.34-18.18.81-26.78,2.81-14.07,3.28-28.54,5.86-42.53,8.36l-3.74.66c-3,.55-6.16,1-9.17,1.52a198.21,198.21,0,0,0-21.9,4.3c-7.49,2.06-14.77,4.82-21.81,7.48-4.48,1.7-9.11,3.46-13.69,5-18.68,6.22-38.17,15.12-61.34,28a437.8,437.8,0,0,0-74.49,52.2c-9.47,8.25-18.4,18.58-27.28,31.58-5.31,7.76-10.35,15.85-15.23,23.68-4,6.45-8.17,13.12-12.43,19.53A444.82,444.82,0,0,0,41,266.4L38.7,272C33,285.58,27,299.65,22.11,313.87c-7,20.31-10.14,40.8-13.18,63.55-1.31,9.74-1.68,19.55-2,29-.26,6.92-.53,14.07-1.16,21.06-1.49,16.37-.7,34.23,2.41,54.6.46,3,.88,6,1.31,9,1.5,10.55,3.05,21.47,5.94,32a495.6,495.6,0,0,0,30.34,82.56c14.5,30.37,32.45,58.92,48.14,83.31a427.1,427.1,0,0,0,33.68,45.66,144.94,144.94,0,0,0,38.62,31.77c6.22,3.61,12.47,7.43,18.5,11.12,6.67,4.09,13.57,8.31,20.5,12.27,5.72,3.29,11.48,6.81,17,10.21,14.95,9.16,30.42,18.63,47.66,24.76,5.74,2,11.5,4.48,17.08,6.84,10.54,4.47,21.45,9.08,33.13,11.47,4.71,1,9.5,1.7,14.13,2.42,2.75.43,5.5.86,8.24,1.33a137.8,137.8,0,0,0,14.42,1.45,135.72,135.72,0,0,1,13.67,1.34c12.31,2.09,24.83,2.48,36.95,2.85,7.08.23,14.4.45,21.54,1,4.7.37,9.46.56,14.36.56a254.65,254.65,0,0,0,44.05-4.27c5.69-1,11.58-1.66,17.27-2.31,9-1,18.37-2.06,27.45-4.48,5.74-1.53,11.44-3.43,16.94-5.26,3.92-1.3,8-2.64,11.95-3.83a304.71,304.71,0,0,0,56.15-22.71c11-5.87,21.86-12.38,32.34-18.67,12.15-7.3,24.72-14.84,37.53-21.36,6.06-3.09,13-7.05,18.71-13,15.21-15.85,33-34.8,50-55.17,13-15.65,26.57-32.55,36.78-52,2.86-5.43,5.48-11.07,8-16.52a252.59,252.59,0,0,1,11.75-23.15c14.52-24.29,31.6-78.22,31.6-78.39,3.36-10.37,5.51-21.83,6.78-36,.42-4.72,1-9.52,1.55-14.15,1.17-9.76,2.37-19.85,2.22-30C854.2,435.16,853.36,418.93,851.88,403.2ZM698.31,463.46c-.36,3-.74,6.16-1,9.29a99.87,99.87,0,0,1-4.2,22.38c-.25.79-10.88,34.44-20,49.63a169.86,169.86,0,0,0-7.82,15.39c-1.62,3.48-3.29,7.07-5.09,10.49-6.39,12.15-15,22.86-23.23,32.78-10.87,13.06-22.33,25.23-32.1,35.43A39.89,39.89,0,0,1,594,646.32c-8.42,4.29-16.61,9.21-24.54,14-6.73,4-13.68,8.21-20.7,12a192.68,192.68,0,0,1-35.45,14.33c-2.65.79-5.3,1.67-7.86,2.52-3.5,1.17-7.11,2.37-10.69,3.32a117.46,117.46,0,0,1-17.07,2.78c-3.76.42-7.64.85-11.45,1.52-14,2.47-25.67,3.21-36.6,2.35-4.73-.38-9.52-.53-14.16-.67-7.67-.24-15.61-.48-23.26-1.78a88.15,88.15,0,0,0-9.3-.92,82.65,82.65,0,0,1-8.84-.89c-1.8-.3-3.6-.58-5.41-.86-2.94-.46-6-.93-8.91-1.53-7.11-1.45-13.94-4.35-20.55-7.14-3.67-1.55-7.46-3.16-11.3-4.53-10.69-3.8-20.48-9.79-29.95-15.59-3.62-2.22-7.37-4.51-11.13-6.67-4.42-2.53-8.85-5.24-13.13-7.86-3.93-2.41-8-4.89-12.06-7.25a88.86,88.86,0,0,1-23.76-19.54,269.7,269.7,0,0,1-21.41-29c-10.07-15.65-21.58-34-30.84-53.35a316.36,316.36,0,0,1-19.33-52.6,164.88,164.88,0,0,1-3.72-20.15q-.42-2.94-.85-5.88c-2-12.79-2.46-24-1.53-34.18.42-4.63.6-9.32.77-13.86.23-6,.46-12.24,1.28-18.32,1.93-14.46,3.89-27.46,8.31-40.18,3.14-9.05,6.94-18.08,10.61-26.81l1.52-3.61a283.17,283.17,0,0,1,25.08-47.14c2.8-4.2,5.5-8.54,8.11-12.74,3.13-5,6.36-10.2,9.74-15.14a100.92,100.92,0,0,1,16.86-19.54,277.25,277.25,0,0,1,47.37-33.19c14.72-8.18,27.07-13.83,38.87-17.76,3-1,6.09-2.17,9-3.28,4.45-1.69,9.05-3.43,13.69-4.71a125.56,125.56,0,0,1,13.65-2.67c2-.31,4-.64,6-1l2.42-.43c9.1-1.62,18.52-3.3,27.73-5.45a87.51,87.51,0,0,1,16.44-1.7c3.75-.14,7.54-.4,11.2-.66,5.25-.37,10.64-.75,16-.75,1.31,0,2.61,0,3.9.08a146.71,146.71,0,0,1,27.52,3.53c8.09,1.85,16.35,3.24,23.37,4.35a91.34,91.34,0,0,1,15.19,4.2c1.82.61,3.7,1.25,5.57,1.84,15.95,5,31.33,12.17,45.7,19.07a100.22,100.22,0,0,1,33.08,25.6,65.06,65.06,0,0,0,15,12.64c6.62,4.26,12.47,9.66,19.54,18.07,7.4,8.8,13.43,18.78,19.26,28.43,3.33,5.53,6.79,11.25,10.48,16.72,3.92,5.81,6.38,12.95,8.76,19.87.85,2.45,1.72,5,2.66,7.45,3.75,9.89,7.19,19.84,11,30.88,5.12,14.9,8.42,27.32,10.38,39.07a125.28,125.28,0,0,1,1.25,13.43c.15,2.62.31,5.33.56,8,.93,10.05,1.48,20.42,1.65,31.71A140.38,140.38,0,0,1,698.31,463.46Z" style="fill:#baa0cc"/><path d="M443.39,859.12c-5,0-9.94-.2-14.75-.58-7-.55-14.29-.78-21.31-1h-.15c-12.23-.39-24.88-.78-37.48-2.92-4.17-.7-8.67-1-13-1.27h-.13a139,139,0,0,1-14.95-1.52c-2.62-.44-5.24-.85-7.87-1.26l-.58-.09c-4.59-.71-9.35-1.45-14.07-2.42-12.16-2.49-23.3-7.2-34.07-11.76l-.41-.17c-5.38-2.28-10.94-4.63-16.41-6.57-17.74-6.31-33.43-15.92-48.6-25.21-5.52-3.38-11.23-6.87-16.91-10.13-7-4-13.94-8.25-20.62-12.34-5.69-3.48-12.14-7.43-18.4-11.06a149.64,149.64,0,0,1-39.92-32.87,429.85,429.85,0,0,1-34.07-46.19c-15.78-24.52-33.83-53.24-48.45-83.86a500.24,500.24,0,0,1-30.65-83.4C7.6,513.63,6,502.56,4.5,491.86c-.42-3-.85-6-1.3-9-3.18-20.78-4-39-2.45-55.82.62-6.84.89-13.91,1.15-20.75.36-9.62.73-19.53,2.07-29.54,3.09-23,6.22-43.79,13.41-64.53,5-14.44,11-28.55,16.71-42.2l2.34-5.57a450.28,450.28,0,0,1,39.88-74.94c4.15-6.23,8.21-12.75,12.14-19.05l.22-.35c4.9-7.87,10-16,15.34-23.86,9.13-13.35,18.33-24,28.13-32.53a441.32,441.32,0,0,1,75.35-52.8c23.44-13,43.19-22,62.17-28.37,4.48-1.49,9.06-3.23,13.5-4.91,7.16-2.71,14.55-5.5,22.26-7.63a202.68,202.68,0,0,1,22.43-4.42l.54-.09c2.82-.44,5.74-.9,8.55-1.41l3.88-.69c13.88-2.48,28.24-5,42.13-8.28,9-2.1,18.27-2.59,27.73-2.94,5.49-.2,11.13-.59,16.58-1l.35,0C438,.46,448.77-.3,459.7.12a240.33,240.33,0,0,1,44.8,5.77c12.27,2.81,24.74,4.9,35.32,6.56,9,1.43,17.36,4.24,25.4,7l.1,0c2.59.88,5.52,1.87,8.36,2.76,25.44,8,49.67,19.27,72.3,30.14A167.05,167.05,0,0,1,701.14,95c5.24,6.16,11.74,11.63,20.44,17.21,11.34,7.27,21.2,16.34,33,30.34,12,14.31,21.59,30.13,30.83,45.43l.28.46c5,8.31,10.2,16.9,15.66,25,7,10.32,11,22.14,15,33.56l.05.16c1.26,3.66,2.57,7.45,3.93,11,5.8,15.29,11.19,30.83,17.13,48.11C845.56,330,850.82,349.85,854,368.7a205.2,205.2,0,0,1,2.07,22c.22,3.78.46,8,.83,12,1.49,15.87,2.34,32.22,2.61,50,.16,10.61-1.07,20.83-2.26,30.72l-.06.48c-.53,4.44-1.07,9-1.47,13.51-1.3,14.6-3.52,26.4-7,37.15l-.06,0c-1.72,6.58-10.26,30.09-10.36,30.35-8.17,22.21-15.45,38.72-21.65,49.08a249.24,249.24,0,0,0-11.44,22.54l-.07.16c-2.41,5.19-5.15,11.08-8.13,16.74-10.43,19.84-24.17,37-37.36,52.83-17,20.49-35,39.52-50.22,55.44-6.2,6.46-13.62,10.69-20,14-12.72,6.47-25.17,13.95-37.22,21.18l-.26.16c-10.46,6.27-21.27,12.76-32.31,18.64a310.06,310.06,0,0,1-57.07,23.09c-3.89,1.16-7.87,2.48-11.72,3.76l-.19.06c-5.54,1.84-11.27,3.75-17.12,5.31-9.46,2.52-19,3.59-28.18,4.62l-.3,0c-5.52.62-11.23,1.27-16.66,2.22A259.14,259.14,0,0,1,443.39,859.12ZM453.17,10c-8.36,0-16.72.59-24.86,1.17l-.35,0c-5.54.39-11.26.79-16.91,1-8.95.33-17.67.78-25.83,2.68-14.15,3.3-28.64,5.88-42.65,8.39L338.7,24c-2.91.52-5.88,1-8.75,1.44l-.52.08a197.76,197.76,0,0,0-21.35,4.19c-7.27,2-14.44,4.72-21.37,7.34-4.53,1.72-9.21,3.49-13.88,5-18.38,6.13-37.6,14.9-60.49,27.62a432,432,0,0,0-73.64,51.6c-9.15,8-17.79,18-26.43,30.63C107,159.59,102,167.63,97.16,175.4l-.23.36c-4,6.36-8.06,13-12.29,19.3a440,440,0,0,0-39,73.27l-2.34,5.58c-5.69,13.5-11.57,27.47-16.48,41.6C20,335.37,16.89,355.6,13.88,378.09c-1.27,9.54-1.64,19.2-2,28.55-.26,7-.54,14.22-1.18,21.32-1.45,16-.68,33.43,2.37,53.4.46,3,.89,6,1.32,9.07,1.48,10.42,3,21.17,5.81,31.43a490.31,490.31,0,0,0,30,81.72c14.36,30.1,32.22,58.5,47.83,82.76a421.83,421.83,0,0,0,33.28,45.13,139.73,139.73,0,0,0,37.32,30.68c6.36,3.7,12.87,7.68,18.61,11.19,6.61,4,13.46,8.24,20.36,12.19,5.8,3.33,11.58,6.86,17.17,10.28,14.73,9,30,18.35,46.72,24.32,5.74,2,11.44,4.45,16.95,6.78l.4.17c10.34,4.37,21,8.89,32.19,11.17,4.5.92,9.13,1.64,13.61,2.34l.58.09c2.67.41,5.35.83,8,1.29a131.54,131.54,0,0,0,13.84,1.38l.19,0a135.5,135.5,0,0,1,14.05,1.39c11.93,2,24.23,2.41,36.12,2.78h.15c7.13.22,14.51.45,21.79,1,4.55.36,9.24.55,14,.55a249.22,249.22,0,0,0,43.19-4.2c5.73-1,11.59-1.67,17.26-2.31l.31,0c8.84-1,18-2,26.73-4.35,5.55-1.48,11.13-3.34,16.53-5.14l.12,0c4-1.33,8.06-2.68,12.09-3.88a299.92,299.92,0,0,0,55.23-22.34c10.81-5.75,21.51-12.18,31.86-18.38l.26-.16c12.19-7.32,24.81-14.9,37.83-21.52,5.68-2.91,12.2-6.6,17.37-12,15.15-15.79,32.91-34.67,49.75-54.91,12.85-15.45,26.22-32.11,36.2-51.09,2.87-5.45,5.55-11.22,7.91-16.31l.08-.16A253.23,253.23,0,0,1,808,608.87c13.29-22.24,29-70.7,30.89-76.58v0l.25-.75c3.24-10,5.32-21.12,6.55-34.95.41-4.64,1-9.3,1.5-13.82l.06-.48c1.15-9.57,2.34-19.45,2.19-29.38-.26-17.51-1.1-33.61-2.56-49.22h0c-.39-4.18-.64-8.5-.86-12.31a198.87,198.87,0,0,0-1.95-21c-3.05-18.29-8.18-37.61-16.15-60.79-5.91-17.2-11.27-32.66-17-47.82-1.41-3.73-2.75-7.59-4-11.32l-.06-.16c-3.73-10.81-7.58-22-13.81-31.22-5.6-8.3-10.85-17-15.93-25.41l-.28-.46c-9-15-18.39-30.45-29.93-44.16-11.08-13.19-20.26-21.67-30.7-28.36-9.56-6.13-16.76-12.22-22.66-19.15a157.35,157.35,0,0,0-51.87-40.14c-22.31-10.71-46.17-21.81-71-29.61-3-.92-6-1.94-8.58-2.83l-.1,0c-7.64-2.58-15.54-5.25-23.74-6.55-10.75-1.69-23.44-3.81-36-6.69a229.24,229.24,0,0,0-43-5.52Q456.24,10,453.17,10Zm-14.6,694.41c-3.18,0-6.27-.13-9.32-.37-4.66-.37-9.58-.52-13.91-.65-7.84-.24-15.95-.5-23.94-1.85a85.63,85.63,0,0,0-8.77-.86h-.13a86.61,86.61,0,0,1-9.27-.94q-2.64-.45-5.31-.85c-3-.47-6.12-1-9.15-1.57-7.59-1.55-14.65-4.54-21.49-7.43-3.62-1.54-7.34-3.11-11-4.43-11.19-4-21.2-10.11-30.88-16-3.59-2.2-7.3-4.47-11-6.59-4.41-2.52-8.8-5.21-13-7.81l-.21-.13c-3.67-2.25-7.83-4.8-12-7.18a93.93,93.93,0,0,1-25.07-20.63,274.77,274.77,0,0,1-21.81-29.56c-10.14-15.76-21.75-34.22-31.14-53.9a320,320,0,0,1-19.64-53.43,168,168,0,0,1-3.85-20.76l-.06-.44c-.26-1.8-.51-3.6-.79-5.39-2-13.2-2.52-24.77-1.56-35.39.42-4.53.59-9.14.75-13.59.24-6.14.47-12.48,1.32-18.8,2-14.74,4-28,8.54-41.16,3.2-9.23,7-18.32,10.74-27.11l1.51-3.6a287.53,287.53,0,0,1,25.53-48c2.72-4.09,5.37-8.35,7.94-12.47l.09-.15c3.16-5.08,6.42-10.3,9.85-15.32a106.63,106.63,0,0,1,17.7-20.49,282.74,282.74,0,0,1,48.23-33.79c15-8.34,27.62-14.1,39.72-18.13,3-1,6-2.12,8.84-3.22,4.62-1.75,9.3-3.52,14.13-4.85a127.49,127.49,0,0,1,14.2-2.79c1.94-.31,3.95-.62,5.92-1l2.42-.43c9-1.61,18.38-3.28,27.48-5.39a91.42,91.42,0,0,1,17.38-1.84c3.7-.13,7.43-.39,11-.65,5.3-.37,10.78-.76,16.34-.76,1.46,0,2.8,0,4.1.08a151.42,151.42,0,0,1,28.44,3.66c8,1.83,16.12,3.19,23,4.28a94.79,94.79,0,0,1,15.95,4.38l.37.13c1.68.57,3.42,1.16,5.16,1.7,16.28,5.11,31.83,12.36,46.37,19.33A105.39,105.39,0,0,1,603,215.14a60.46,60.46,0,0,0,13.85,11.67c7.08,4.55,13.26,10.25,20.67,19.06,7.67,9.12,13.79,19.26,19.71,29.07,3.29,5.45,6.68,11.08,10.35,16.51,4.28,6.35,6.85,13.8,9.33,21l.13.35c.79,2.31,1.62,4.7,2.48,7,3.77,9.95,7.24,19.93,11.05,31,5.22,15.19,8.58,27.87,10.58,39.88a128.47,128.47,0,0,1,1.31,14c.15,2.56.3,5.21.54,7.82,1,10.19,1.5,20.69,1.68,32.1a142.6,142.6,0,0,1-1.44,19.47l-5-.59,5,.59c-.34,2.84-.73,6.05-1,9.14a104.69,104.69,0,0,1-4.42,23.48l-.05.15c-1.88,5.9-11.73,36-20.39,50.51a164.62,164.62,0,0,0-7.58,14.93c-1.64,3.53-3.34,7.18-5.19,10.7-6.62,12.59-15.4,23.53-23.82,33.66-10.94,13.14-22.48,25.42-32.33,35.69a44.52,44.52,0,0,1-12.21,8.47c-8.32,4.23-16.41,9.09-24.23,13.79l-.27.16c-6.7,4-13.62,8.17-20.66,11.92a197.61,197.61,0,0,1-36.37,14.71c-2.63.79-5.33,1.69-7.71,2.48-3.62,1.2-7.28,2.42-11,3.4a120.33,120.33,0,0,1-17.81,2.91c-3.65.42-7.43.84-11.14,1.49A164.26,164.26,0,0,1,438.57,704.41Zm6.33-539.7c-5.21,0-10.51.38-15.64.74-3.69.26-7.51.53-11.37.67a83.11,83.11,0,0,0-15.48,1.57c-9.36,2.18-18.83,3.87-28,5.51l-2.42.43c-2,.36-4.11.69-6.12,1a115.92,115.92,0,0,0-13.11,2.56c-4.38,1.2-8.84,2.89-13.15,4.52-3.07,1.16-6.16,2.33-9.31,3.38-11.5,3.84-23.58,9.36-38,17.39a272.8,272.8,0,0,0-46.52,32.59,96.18,96.18,0,0,0-16,18.59c-3.32,4.84-6.52,10-9.61,15l-.11.17c-2.6,4.18-5.29,8.5-8.09,12.71a277.37,277.37,0,0,0-24.64,46.31l-1.52,3.61c-3.64,8.65-7.4,17.59-10.5,26.51-4.26,12.28-6.18,25-8.08,39.2-.78,5.85-1,11.95-1.23,17.85-.17,4.59-.35,9.33-.79,14.12-.89,9.81-.4,20.59,1.49,33,.28,1.83.54,3.66.8,5.49l.06.44a159.68,159.68,0,0,0,3.6,19.53,309,309,0,0,0,19,51.76c9.14,19.15,20.55,37.3,30.52,52.8a265.59,265.59,0,0,0,21,28.49A84,84,0,0,0,264.16,639c4.23,2.45,8.44,5,12.16,7.32l.21.12c4.18,2.56,8.51,5.21,12.79,7.66,3.83,2.2,7.61,4.51,11.26,6.74,9.25,5.66,18.8,11.52,29,15.15,4,1.42,7.82,3.05,11.55,4.62,6.41,2.72,13,5.51,19.62,6.86,2.8.57,5.77,1,8.63,1.48,1.88.29,3.71.57,5.53.89a81.45,81.45,0,0,0,8.22.81h.1a93,93,0,0,1,9.82,1c7.31,1.24,15.08,1.48,22.58,1.71,4.45.14,9.49.3,14.39.68,10.51.84,21.74.11,35.35-2.28,4-.7,8.12-1.17,11.75-1.57a114,114,0,0,0,16.35-2.64c3.4-.91,6.91-2.08,10.31-3.21,2.53-.84,5.31-1.76,8.09-2.59a187.19,187.19,0,0,0,34.53-14c6.81-3.62,13.63-7.71,20.22-11.66l.26-.16c8-4.79,16.21-9.74,24.84-14.13a35.33,35.33,0,0,0,9.53-6.49c9.73-10.14,21.12-22.25,31.86-35.16,8.08-9.71,16.49-20.18,22.66-31.91,1.74-3.31,3.39-6.85,5-10.27a171.18,171.18,0,0,1,8.06-15.84c8.1-13.55,17.62-42.72,19.45-48.43l.06-.19a95,95,0,0,0,4-21.28c.29-3.24.69-6.53,1-9.44a135.08,135.08,0,0,0,1.37-18.13c-.17-11.15-.7-21.39-1.63-31.32-.26-2.79-.43-5.65-.57-8.18a122.62,122.62,0,0,0-1.19-12.9c-1.91-11.45-5.14-23.61-10.18-38.27-3.78-11-7.22-20.91-10.94-30.72-.91-2.42-1.76-4.88-2.59-7.26l-.11-.34c-2.28-6.62-4.64-13.44-8.18-18.7-3.81-5.63-7.43-11.64-10.62-16.93-5.73-9.48-11.64-19.29-18.81-27.8-6.72-8-12.23-13.11-18.41-17.08a69.89,69.89,0,0,1-16.07-13.61A95.22,95.22,0,0,0,564,197.29c-14.21-6.82-29.39-13.89-45-18.81-1.8-.56-3.61-1.18-5.37-1.77l-.3-.1a88.17,88.17,0,0,0-14.37-4c-7.08-1.12-15.43-2.52-23.71-4.42a142.6,142.6,0,0,0-26.59-3.41C447.44,164.74,446.23,164.71,444.9,164.71Z" style="fill:#141414"/><path d="M98.1,589.87A21.32,21.32,0,0,1,102,578.51a28.64,28.64,0,0,1,23.29-11.35,21.29,21.29,0,0,1,11.36,3.91,24.9,24.9,0,0,1,8,9.68,28.77,28.77,0,0,1,2.64,7.9,35.19,35.19,0,0,1,.37,7.88A2.75,2.75,0,0,1,146,599a2.53,2.53,0,0,1-2,.12,2.62,2.62,0,0,1-1.57-1.43,2.76,2.76,0,0,1-.29-1.22,31.76,31.76,0,0,0-.42-6.3,24.37,24.37,0,0,0-2.16-6.29,19.4,19.4,0,0,0-6.53-7.9,15.5,15.5,0,0,0-8.64-2.67,22.73,22.73,0,0,0-17.06,8.31,15.5,15.5,0,0,0-3.21,8.46,19.29,19.29,0,0,0,2.19,10,24.05,24.05,0,0,0,3.62,5.57,30.92,30.92,0,0,0,4.71,4.21,2.77,2.77,0,0,1,.78,1,2.69,2.69,0,0,1,.19,2.1,2.48,2.48,0,0,1-1.32,1.47,2.73,2.73,0,0,1-3-.21,35.15,35.15,0,0,1-6-5.14,29.23,29.23,0,0,1-4.6-7A25.1,25.1,0,0,1,98.1,589.87Z" style="fill:#141414;stroke:#141414;stroke-miterlimit:10;stroke-width:2px"/><path d="M128,642.64A21.45,21.45,0,0,1,130,630.85a27.66,27.66,0,0,1,20.42-14.94,21.48,21.48,0,0,1,11.87,1.6,24.47,24.47,0,0,1,9.91,8.25,24.22,24.22,0,0,1,4.84,11.92A21.7,21.7,0,0,1,175,649.49a27.28,27.28,0,0,1-20.36,14.9,21.68,21.68,0,0,1-11.9-1.58,24.18,24.18,0,0,1-9.89-8.22A24.43,24.43,0,0,1,128,642.64Zm17.09,14.72a16.07,16.07,0,0,0,9,1,22.56,22.56,0,0,0,15.37-11.24,16.19,16.19,0,0,0,1.76-8.88A19.51,19.51,0,0,0,160,623a16.18,16.18,0,0,0-9-1,22.54,22.54,0,0,0-15.37,11.25,16.2,16.2,0,0,0-1.79,8.84,19.53,19.53,0,0,0,11.19,15.29Z" style="fill:#141414;stroke:#141414;stroke-miterlimit:10;stroke-width:2px"/><path d="M166.74,692.11a4.17,4.17,0,0,1,1.21-3.05l28.12-29a3.06,3.06,0,0,1,2.17-1,2.9,2.9,0,0,1,2.2.86,3.13,3.13,0,0,1,.07,4.42L173.72,692l16,15.48a3.13,3.13,0,0,1,.07,4.42,2.93,2.93,0,0,1-2.18.93,3.1,3.1,0,0,1-2.2-.91L168,695.12A4.13,4.13,0,0,1,166.74,692.11Z" style="fill:#141414;stroke:#141414;stroke-miterlimit:10;stroke-width:2px"/><path d="M206.58,727.7a4.13,4.13,0,0,1,.75-3.19L231,691.75a3,3,0,0,1,2-1.28,2.89,2.89,0,0,1,2.3.53,3.13,3.13,0,0,1,.71,4.37l-22.51,31.22,18,13a3.14,3.14,0,0,1,.7,4.37,2.87,2.87,0,0,1-2,1.22,3.09,3.09,0,0,1-2.31-.57L208.3,730.49A4.12,4.12,0,0,1,206.58,727.7Z" style="fill:#141414;stroke:#141414;stroke-miterlimit:10;stroke-width:2px"/><path d="M250.81,757.49a3,3,0,0,1,.21-2.35l18.77-36.75a3.08,3.08,0,0,1,1.79-1.57,2.91,2.91,0,0,1,2.36.17l24.28,12.4a2.79,2.79,0,0,1,1.46,1.7,2.83,2.83,0,0,1-.18,2.24,2.72,2.72,0,0,1-1.69,1.43,2.88,2.88,0,0,1-2.22-.22l-21.49-11L267.26,737l19.32,9.86a2.9,2.9,0,0,1,1.27,3.94,2.74,2.74,0,0,1-1.68,1.43A2.92,2.92,0,0,1,284,752l-19.32-9.87-6.87,13.45,21.5,11a2.77,2.77,0,0,1,1.46,1.7,2.81,2.81,0,0,1-.18,2.23,2.75,2.75,0,0,1-1.69,1.43,2.84,2.84,0,0,1-2.22-.22l-24.28-12.4A3,3,0,0,1,250.81,757.49Z" style="fill:#141414;stroke:#141414;stroke-miterlimit:10;stroke-width:2px"/><path d="M311.18,782.81a21.37,21.37,0,0,1-5.52-10.68,28.7,28.7,0,0,1,7.85-24.69,21.24,21.24,0,0,1,10.68-5.52,24.91,24.91,0,0,1,12.53.88,28.5,28.5,0,0,1,7.54,3.54,35.28,35.28,0,0,1,6,5.18,2.73,2.73,0,0,1,.64,2.91,2.53,2.53,0,0,1-1.26,1.49,2.59,2.59,0,0,1-2.12.15,2.76,2.76,0,0,1-1.08-.63,31.48,31.48,0,0,0-4.85-4,24,24,0,0,0-6-2.78,19.39,19.39,0,0,0-10.22-.72,15.43,15.43,0,0,0-7.9,4.41,22.74,22.74,0,0,0-5.75,18.08,15.48,15.48,0,0,0,3.89,8.16,19.35,19.35,0,0,0,8.76,5.32,23.66,23.66,0,0,0,6.54,1.22,30.9,30.9,0,0,0,6.29-.49,2.7,2.7,0,0,1,1.25.11A2.67,2.67,0,0,1,340,786a2.48,2.48,0,0,1,.16,2,2.76,2.76,0,0,1-2.21,2,34.66,34.66,0,0,1-7.85.78,28.46,28.46,0,0,1-8.2-1.47A25,25,0,0,1,311.18,782.81Z" style="fill:#141414;stroke:#141414;stroke-miterlimit:10;stroke-width:2px"/><path d="M374,799.94a3,3,0,0,1-.56-2.28l5.65-38.55-13.73-2a2.78,2.78,0,0,1-2.41-3.24,2.88,2.88,0,0,1,1.11-1.93,2.71,2.71,0,0,1,2.14-.55l33.51,4.91a2.9,2.9,0,0,1,2.47,3.31,2.73,2.73,0,0,1-1.14,1.9,2.9,2.9,0,0,1-2.17.51l-13.66-2-5.65,38.55a2.88,2.88,0,0,1-1.22,2,3.06,3.06,0,0,1-2.31.55A2.93,2.93,0,0,1,374,799.94Z" style="fill:#141414;stroke:#141414;stroke-miterlimit:10;stroke-width:2px"/><path d="M417.86,804a3,3,0,0,1-.83-2.2l1.08-41.94a3.06,3.06,0,0,1,.94-2.18,2.87,2.87,0,0,1,2.2-.86,3,3,0,0,1,2.19,1,3,3,0,0,1,.86,2.23l-1.08,41.94a2.9,2.9,0,0,1-1,2.16,3,3,0,0,1-2.23.82A2.92,2.92,0,0,1,417.86,804Z" style="fill:#141414;stroke:#141414;stroke-miterlimit:10;stroke-width:2px"/><path d="M458.69,801.32a21.44,21.44,0,0,1-9.21-7.65,27.69,27.69,0,0,1-2.84-25.14,21.37,21.37,0,0,1,7.27-9.51,26.57,26.57,0,0,1,24.84-2.81,21.67,21.67,0,0,1,9.21,7.68A27.3,27.3,0,0,1,490.8,789a21.68,21.68,0,0,1-7.27,9.55,24.24,24.24,0,0,1-12,4.51A24.49,24.49,0,0,1,458.69,801.32ZM480,793.78a16,16,0,0,0,5.33-7.31,22.6,22.6,0,0,0-2.14-18.92,16.09,16.09,0,0,0-6.83-5.93,19.54,19.54,0,0,0-18.82,2.13,16.15,16.15,0,0,0-5.3,7.3A22.59,22.59,0,0,0,454.33,790a16.08,16.08,0,0,0,6.8,5.94A19.51,19.51,0,0,0,480,793.78Z" style="fill:#141414;stroke:#141414;stroke-miterlimit:10;stroke-width:2px"/><path d="M521.51,793.11A2.91,2.91,0,0,1,520,791.3l-12.25-38.7a4.36,4.36,0,0,1,.28-3.41,4.18,4.18,0,0,1,2.58-2.2l.84-.27a4.62,4.62,0,0,1,4.19.82L552,775.69l-11.07-35a3,3,0,0,1,.17-2.37,2.93,2.93,0,0,1,1.8-1.54,3.13,3.13,0,0,1,3.92,2l12.25,38.71a4.21,4.21,0,0,1-.32,3.38,4.4,4.4,0,0,1-2.63,2.19l-.78.24a4.24,4.24,0,0,1-2.09.13,4.8,4.8,0,0,1-1.9-.79l-36.55-28.31,11.09,35.08a2.92,2.92,0,0,1-.21,2.35,3.08,3.08,0,0,1-1.84,1.51A3,3,0,0,1,521.51,793.11Z" style="fill:#141414;stroke:#141414;stroke-miterlimit:10;stroke-width:2px"/><path d="M614,754.91a2.93,2.93,0,0,1-1.92-1.36l-22.43-35.06a3.05,3.05,0,0,1-.44-2.33,2.85,2.85,0,0,1,1.34-1.95l13.06-8.36a22.37,22.37,0,0,1,10-3.84,13.49,13.49,0,0,1,7.93,1.54,15.78,15.78,0,0,1,5.45,5.24,15.61,15.61,0,0,1,2.46,7.14,13.43,13.43,0,0,1-1.92,7.85,22.44,22.44,0,0,1-7.7,7.51L609.43,738l7.84,12.26a2.87,2.87,0,0,1,.4,2.33,3.09,3.09,0,0,1-1.38,1.93A3,3,0,0,1,614,754.91Zm2.21-28.22Q622,723,623,719.2a9.12,9.12,0,0,0-7.11-11.11q-3.81-.72-9.65,3l-9.91,6.34,10,15.58Z" style="fill:#141414;stroke:#141414;stroke-miterlimit:10;stroke-width:2px"/><path d="M668.45,713.5a21.47,21.47,0,0,1-12-.68,27.61,27.61,0,0,1-17.2-18.55,21.38,21.38,0,0,1,.2-12,26.53,26.53,0,0,1,18.32-17,21.76,21.76,0,0,1,12,.71A27.34,27.34,0,0,1,687,684.51a21.66,21.66,0,0,1-.19,12,26.5,26.5,0,0,1-18.31,17Zm12.63-18.67a16.11,16.11,0,0,0-.05-9.05,22.58,22.58,0,0,0-12.95-14,16.15,16.15,0,0,0-9-.72A19.52,19.52,0,0,0,645.18,684a16.13,16.13,0,0,0,.07,9,22.53,22.53,0,0,0,13,14,16.18,16.18,0,0,0,9,.75,19.58,19.58,0,0,0,13.88-12.88Z" style="fill:#141414;stroke:#141414;stroke-miterlimit:10;stroke-width:2px"/><path d="M712.72,670.54a3,3,0,0,1-2.25-.69l-32.55-26.48a3.08,3.08,0,0,1-1.15-2.08,2.9,2.9,0,0,1,.66-2.27,3,3,0,0,1,2.11-1.13,3,3,0,0,1,2.29.68l32.55,26.48a2.91,2.91,0,0,1,1.1,2.08,3.1,3.1,0,0,1-.7,2.28A3,3,0,0,1,712.72,670.54Z" style="fill:#141414;stroke:#141414;stroke-miterlimit:10;stroke-width:2px"/><path d="M733.33,643.92a2.93,2.93,0,0,1-2.32-.37l-34.75-21a4.37,4.37,0,0,1-2-2.74,4.2,4.2,0,0,1,.49-3.37l.45-.75a4.62,4.62,0,0,1,3.68-2.15l45.9-2.85-31.42-19a3.09,3.09,0,0,1-1.44-1.9,2.93,2.93,0,0,1,.34-2.34,3,3,0,0,1,1.93-1.42,3,3,0,0,1,2.36.36l34.75,21a4.19,4.19,0,0,1,2,2.75,4.33,4.33,0,0,1-.53,3.37l-.42.7a4.34,4.34,0,0,1-1.49,1.49,4.85,4.85,0,0,1-1.94.65l-46.15,2.86,31.49,19a2.89,2.89,0,0,1,1.39,1.91,3.14,3.14,0,0,1-.39,2.35A3,3,0,0,1,733.33,643.92Z" style="fill:#141414;stroke:#141414;stroke-miterlimit:10;stroke-width:2px"/><path d="M770.64,572.36a2.93,2.93,0,0,1-2.34,0L732,558.29l-5,12.93a2.78,2.78,0,0,1-3.69,1.63,2.84,2.84,0,0,1-1.64-1.51,2.74,2.74,0,0,1-.06-2.21l12.26-31.57a2.91,2.91,0,0,1,3.79-1.66,2.67,2.67,0,0,1,1.59,1.53,2.87,2.87,0,0,1,0,2.23l-5,12.86,36.33,14.11a2.88,2.88,0,0,1,1.69,1.64,3.07,3.07,0,0,1,0,2.38A2.94,2.94,0,0,1,770.64,572.36Z" style="fill:#141414;stroke:#141414;stroke-miterlimit:10;stroke-width:2px"/><path d="M130.8,315a3,3,0,0,1-2.34,0L90.19,298.59a3.06,3.06,0,0,1-1.69-1.68,2.9,2.9,0,0,1,0-2.36l6.09-14.26a22.34,22.34,0,0,1,6.14-8.84,13.52,13.52,0,0,1,7.43-3.19,16.11,16.11,0,0,1,13.5,5.77,13.44,13.44,0,0,1,2.84,7.57,22.43,22.43,0,0,1-2.14,10.55l-4.87,11.38,13.39,5.71a2.92,2.92,0,0,1,1.64,1.7,3.07,3.07,0,0,1-.06,2.38A2.93,2.93,0,0,1,130.8,315Zm-14.05-24.57q2.72-6.37,1.39-10A9.1,9.1,0,0,0,106,275.22q-3.54,1.54-6.27,7.93L95.12,294l17,7.26Z" style="fill:#141414;stroke:#141414;stroke-miterlimit:10;stroke-width:2px"/><path d="M153.75,266.13a3,3,0,0,1-2.3-.45l-34.86-22.74a3.06,3.06,0,0,1-1.36-1.95,2.89,2.89,0,0,1,.42-2.32l8.65-13.27q5.06-7.74,10.77-9.54a12.35,12.35,0,0,1,10.9,1.59,13,13,0,0,1,5,6,12.69,12.69,0,0,1,.45,8.21,9.34,9.34,0,0,1,8.76-2.29A26.74,26.74,0,0,1,169,233l2.62,1.71a3,3,0,0,1,.89,4.23,3.1,3.1,0,0,1-2,1.45,3,3,0,0,1-2.32-.5l-1.71-1.11a30.18,30.18,0,0,0-5.6-2.93,10.14,10.14,0,0,0-5.93-.37q-3.16.69-5.73,4.62l-7.69,11.79,13.21,8.62a2.9,2.9,0,0,1,1.32,1.95,3.08,3.08,0,0,1-.47,2.34A3,3,0,0,1,153.75,266.13Zm-10.31-27.76q3.21-4.89,3.14-9a7.44,7.44,0,0,0-3.59-6.45,7.31,7.31,0,0,0-6.86-.94q-3.44,1.29-7.34,7.27l-6.54,10,14.47,9.44Z" style="fill:#141414;stroke:#141414;stroke-miterlimit:10;stroke-width:2px"/><path d="M186.31,219.63a3,3,0,0,1-2.2-.83l-30.26-28.07a3.09,3.09,0,0,1-1-2.15,2.88,2.88,0,0,1,.81-2.22l18.54-20a2.85,2.85,0,0,1,2-1,2.89,2.89,0,0,1,2.1.79,2.74,2.74,0,0,1,.91,2,2.84,2.84,0,0,1-.81,2.08L160,188l11,10.22,14.75-15.91a2.91,2.91,0,0,1,4.14-.15,2.7,2.7,0,0,1,.91,2,2.82,2.82,0,0,1-.81,2.07l-14.75,15.91,11.07,10.26,16.41-17.69a2.85,2.85,0,0,1,2-.95,2.81,2.81,0,0,1,2.1.79,2.7,2.7,0,0,1,.91,2,2.84,2.84,0,0,1-.81,2.08l-18.54,20A3,3,0,0,1,186.31,219.63Z" style="fill:#141414;stroke:#141414;stroke-miterlimit:10;stroke-width:2px"/><path d="M227.86,177.3a21.26,21.26,0,0,1-11.92-1.55,28.67,28.67,0,0,1-15.82-20.52,21.32,21.32,0,0,1,1.55-11.92,25,25,0,0,1,7.86-9.79,28.74,28.74,0,0,1,7.21-4.18,34.85,34.85,0,0,1,7.65-2,2.74,2.74,0,0,1,2.76,1.14,2.6,2.6,0,0,1-.58,3.7,2.74,2.74,0,0,1-1.13.54,31.07,31.07,0,0,0-6.09,1.68,24,24,0,0,0-5.72,3.38,19.34,19.34,0,0,0-6.42,8,15.55,15.55,0,0,0-.88,9,22.76,22.76,0,0,0,11.58,15,15.47,15.47,0,0,0,8.93,1.45,19.37,19.37,0,0,0,9.37-4.17,24,24,0,0,0,4.72-4.67,30.37,30.37,0,0,0,3.18-5.46,2.81,2.81,0,0,1,.81-1,2.65,2.65,0,0,1,2-.61,2.46,2.46,0,0,1,1.71,1,2.73,2.73,0,0,1,.39,3,35.2,35.2,0,0,1-3.83,6.9,28.74,28.74,0,0,1-5.88,5.9A25,25,0,0,1,227.86,177.3Z" style="fill:#141414;stroke:#141414;stroke-miterlimit:10;stroke-width:2px"/><path d="M268.49,151.31a3,3,0,0,1-1.86-1.44l-21-36.32a3.08,3.08,0,0,1-.34-2.35,2.9,2.9,0,0,1,1.42-1.89,3.14,3.14,0,0,1,4.28,1.14l21,36.32a2.93,2.93,0,0,1,.3,2.34,3.12,3.12,0,0,1-1.48,1.88A3,3,0,0,1,268.49,151.31Z" style="fill:#141414;stroke:#141414;stroke-miterlimit:10;stroke-width:2px"/><path d="M299.3,133.05a21.39,21.39,0,0,1-10.9-5A27.68,27.68,0,0,1,279,104.61a21.39,21.39,0,0,1,4.51-11.1,26.52,26.52,0,0,1,23.21-9.26,21.69,21.69,0,0,1,10.92,5A27.25,27.25,0,0,1,327,112.66a21.71,21.71,0,0,1-4.5,11.13,26.51,26.51,0,0,1-23.21,9.26Zm18.51-12.88a16.12,16.12,0,0,0,3.22-8.46A22.53,22.53,0,0,0,314,94a16,16,0,0,0-8.15-3.92,19.53,19.53,0,0,0-17.59,7,16.06,16.06,0,0,0-3.18,8.44,22.61,22.61,0,0,0,7.05,17.69,16.15,16.15,0,0,0,8.12,3.93,19.52,19.52,0,0,0,17.59-7Z" style="fill:#141414;stroke:#141414;stroke-miterlimit:10;stroke-width:2px"/><path d="M361.25,114A17.27,17.27,0,0,1,348.2,99.7l-4.94-26.4a3.1,3.1,0,0,1,.46-2.34,2.93,2.93,0,0,1,2-1.3,3.14,3.14,0,0,1,3.65,2.5l5,26.6a12.45,12.45,0,0,0,3.11,6.48,11.75,11.75,0,0,0,5.64,3.3,15.66,15.66,0,0,0,12.83-2.4A11.75,11.75,0,0,0,380,101a12.43,12.43,0,0,0,.56-7.16l-5-26.6a3.11,3.11,0,0,1,.47-2.34,2.88,2.88,0,0,1,2-1.3,3.12,3.12,0,0,1,3.65,2.5l4.94,26.4a17.28,17.28,0,0,1-7,18,22.22,22.22,0,0,1-8.78,3.72A22.45,22.45,0,0,1,361.25,114Z" style="fill:#141414;stroke:#141414;stroke-miterlimit:10;stroke-width:2px"/><path d="M409.64,105.89a3.06,3.06,0,0,1-1.38-1.1,2.87,2.87,0,0,1-.57-1.66,2.9,2.9,0,0,1,.75-2,2.64,2.64,0,0,1,2-.88,3.38,3.38,0,0,1,1.3.25,32.34,32.34,0,0,0,13.44,2.57q11.9-.18,11.77-8a4.33,4.33,0,0,0-1.59-3.37,10.94,10.94,0,0,0-3.8-2.08q-2.26-.75-6.43-1.77a81,81,0,0,1-8.95-2.61,15.57,15.57,0,0,1-5.91-3.88,10,10,0,0,1-2.56-7,12.75,12.75,0,0,1,1.92-7.07,14.08,14.08,0,0,1,5.94-5.13,22.3,22.3,0,0,1,9.52-2,38.73,38.73,0,0,1,13.57,2,2.64,2.64,0,0,1,2,2.69,3,3,0,0,1-.72,2,2.47,2.47,0,0,1-2,.92,3.15,3.15,0,0,1-1.09-.26,33.38,33.38,0,0,0-11-1.66A16.65,16.65,0,0,0,417.15,68a6.34,6.34,0,0,0-3.27,5.76,5.27,5.27,0,0,0,1.66,4,10.85,10.85,0,0,0,4,2.32,64.07,64.07,0,0,0,6.59,1.69,68.21,68.21,0,0,1,8.71,2.45,14.11,14.11,0,0,1,5.71,3.92,10.86,10.86,0,0,1,2.47,7.3,11.42,11.42,0,0,1-2.07,6.87,14.24,14.24,0,0,1-6,4.82,22.69,22.69,0,0,1-9.09,1.85A40.13,40.13,0,0,1,409.64,105.89Z" style="fill:#141414;stroke:#141414;stroke-miterlimit:10;stroke-width:2px"/><path d="M488.72,112.79a2.94,2.94,0,0,1-.35-2.32L498.05,70a3.07,3.07,0,0,1,1.37-1.94,2.9,2.9,0,0,1,2.33-.39l15.08,3.61a22.17,22.17,0,0,1,9.74,4.57A13.4,13.4,0,0,1,531,82.62a16.09,16.09,0,0,1-3.41,14.29,13.46,13.46,0,0,1-7,4.06,22.18,22.18,0,0,1-10.75-.34l-12-2.88-3.39,14.16a2.88,2.88,0,0,1-1.39,1.9,3.09,3.09,0,0,1-2.36.35A3,3,0,0,1,488.72,112.79Zm21.85-18q6.75,1.62,10.11-.31a9.11,9.11,0,0,0,3.07-12.83q-2.13-3.22-8.88-4.84l-11.44-2.74-4.3,18Z" style="fill:#141414;stroke:#141414;stroke-miterlimit:10;stroke-width:2px"/><path d="M541.43,126.94a4.13,4.13,0,0,1,0-3.27L557,86.4a3.09,3.09,0,0,1,1.67-1.7,2.9,2.9,0,0,1,2.36,0,3.13,3.13,0,0,1,1.68,4.1L547.88,124.3l20.51,8.57a3.12,3.12,0,0,1,1.68,4.09,2.89,2.89,0,0,1-1.68,1.66,3.07,3.07,0,0,1-2.38,0l-22.28-9.31A4.12,4.12,0,0,1,541.43,126.94Z" style="fill:#141414;stroke:#141414;stroke-miterlimit:10;stroke-width:2px"/><path d="M580.17,144.79a3.06,3.06,0,0,1,.44-2.3,3.77,3.77,0,0,1,1-1L618.05,116a5.28,5.28,0,0,1,2.36-.88,3.78,3.78,0,0,1,2.47.62l.57.36a3.72,3.72,0,0,1,1.63,1.94,5.19,5.19,0,0,1,.23,2.52l-7,43.89a3.75,3.75,0,0,1-.44,1.33,3,3,0,0,1-1.87,1.4,3,3,0,0,1-2.35-.43,3.17,3.17,0,0,1-1.19-1.35,3.22,3.22,0,0,1-.27-1.82L614,152.29,594.45,140l-9.38,6.64a3.23,3.23,0,0,1-1.75.55,3.1,3.1,0,0,1-1.74-.49A2.93,2.93,0,0,1,580.17,144.79Zm19.29-8.3L615,146.24l4-23.6Z" style="fill:#141414;stroke:#141414;stroke-miterlimit:10;stroke-width:2px"/><path d="M631.41,176.91a3.09,3.09,0,0,1-.26-1.74,2.9,2.9,0,0,1,2.63-2.58,2.61,2.61,0,0,1,2.06.71,3.1,3.1,0,0,1,.78,1.06,32.53,32.53,0,0,0,8.11,11q8.87,8,14.08,2.12a4.32,4.32,0,0,0,1.13-3.55,11,11,0,0,0-1.38-4.11q-1.14-2.09-3.51-5.66a82,82,0,0,1-4.79-8,15.56,15.56,0,0,1-1.7-6.86,10,10,0,0,1,2.9-6.9,12.69,12.69,0,0,1,6.22-3.88,14.06,14.06,0,0,1,7.84.27,22.34,22.34,0,0,1,8.36,5,38.84,38.84,0,0,1,8.58,10.71,2.66,2.66,0,0,1-.4,3.3,3,3,0,0,1-1.88,1,2.43,2.43,0,0,1-2-.65,3.1,3.1,0,0,1-.63-.93,33.39,33.39,0,0,0-6.93-8.68,16.6,16.6,0,0,0-7.87-4.31,6.34,6.34,0,0,0-6.31,2,5.28,5.28,0,0,0-1.47,4,11,11,0,0,0,1.4,4.45,61.77,61.77,0,0,0,3.68,5.72,68.86,68.86,0,0,1,4.73,7.72,14.13,14.13,0,0,1,1.52,6.75,10.78,10.78,0,0,1-3.15,7,11.43,11.43,0,0,1-6.19,3.64,14.33,14.33,0,0,1-7.71-.57,22.89,22.89,0,0,1-7.92-4.81A40.59,40.59,0,0,1,631.41,176.91Z" style="fill:#141414;stroke:#141414;stroke-miterlimit:10;stroke-width:2px"/><path d="M673.23,221.46a3,3,0,0,1,1.11-2.06l30-24.83-8.83-10.69a2.75,2.75,0,0,1-.68-2.09,2.8,2.8,0,0,1,1.06-1.93,2.85,2.85,0,0,1,2.11-.69,2.68,2.68,0,0,1,2,1l21.58,26.1a2.8,2.8,0,0,1,.66,2.14,2.83,2.83,0,0,1-1.05,2,2.73,2.73,0,0,1-2.12.65,2.88,2.88,0,0,1-1.95-1.08l-8.79-10.64-30,24.83a2.93,2.93,0,0,1-2.27.67,3,3,0,0,1-2.09-1.14A2.94,2.94,0,0,1,673.23,221.46Z" style="fill:#141414;stroke:#141414;stroke-miterlimit:10;stroke-width:2px"/><path d="M696.54,253a2.94,2.94,0,0,1,1.36-1.91l35.37-22.56a3,3,0,0,1,2.34-.45,2.92,2.92,0,0,1,1.94,1.34,3.13,3.13,0,0,1-.95,4.32l-35.37,22.56a2.88,2.88,0,0,1-2.33.4,3.08,3.08,0,0,1-1.94-1.39A3,3,0,0,1,696.54,253Z" style="fill:#141414;stroke:#141414;stroke-miterlimit:10;stroke-width:2px"/><path d="M716,283.46a21.31,21.31,0,0,1,4.12-11.29,28.67,28.67,0,0,1,23.49-10.93,21.38,21.38,0,0,1,11.3,4.13,24.93,24.93,0,0,1,7.82,9.82,28.57,28.57,0,0,1,2.5,7.95,34.81,34.81,0,0,1,.22,7.88,2.74,2.74,0,0,1-1.71,2.45,2.62,2.62,0,0,1-3.49-1.38,2.73,2.73,0,0,1-.27-1.22,31.44,31.44,0,0,0-.31-6.31,24.17,24.17,0,0,0-2-6.32,19.45,19.45,0,0,0-6.39-8,15.51,15.51,0,0,0-8.59-2.83,22.71,22.71,0,0,0-17.2,8,15.54,15.54,0,0,0-3.38,8.39,19.32,19.32,0,0,0,2,10.05,23.81,23.81,0,0,0,3.52,5.64,30.52,30.52,0,0,0,4.62,4.3,2.58,2.58,0,0,1,.76,1,2.64,2.64,0,0,1,.16,2.1,2.53,2.53,0,0,1-1.35,1.45,2.75,2.75,0,0,1-3-.26,35.77,35.77,0,0,1-5.89-5.25,29.06,29.06,0,0,1-4.47-7A25,25,0,0,1,716,283.46Z" style="fill:#141414;stroke:#141414;stroke-miterlimit:10;stroke-width:2px"/><path d="M362.23,547.34a420.18,420.18,0,0,1-52.37-2.48c-9.14-1-18.23-2.43-27.27-4.14-6.09-1.15-7.87,0-6.2-6.42a97.41,97.41,0,0,1,3.9-11.67c10.76-26.8,24.23-52.88,38.07-78.41a92.59,92.59,0,0,0,15,4.07c3.21.6,6.17-1.35,6.28-4.77a318.38,318.38,0,0,0-.83-36.81c-.54-6.43-.57-16.85-8-19.66-6.95-2.61-11.13,4.22-14.71,8.88-1.4,1.81-2.76,3.65-4.13,5.48q-5.33,6.09-10.43,12.39c-3,3.69-6,6.7-7.3,10.5-3.79,6.52,6.76,11.41,8.15,12.25q-10.86,20.51-21,41.37c-8.82,18.21-20.58,37.92-23.47,58.23-3.12,21.94,20.49,22.21,36.57,24.55a430.23,430.23,0,0,0,67.75,4.48C373.7,565,373.73,547.19,362.23,547.34Z" style="fill:#fff;stroke:#141414;stroke-miterlimit:10;stroke-width:8px"/><path d="M595.16,506.69c-7.79-19.68-15.9-39.25-23.86-58.87-4.26-10.5-21.53-5.91-17.21,4.74q9.18,22.65,18.37,45.29c2.89,7.14,6,14.25,8.5,21.53,1.27,3.68,6.71,17,3,20.43-1.32,1.24-8.29,1.73-9.8,2q-5.67,1.06-11.38,2-14,2.22-28.21,3.32a413,413,0,0,1-46.54,1c-.46-6.34-.15-15.42-5.73-19.62-5.85-4.4-12.53-.64-18,2.35-10.55,5.74-32.06,20.68-32.39,21.58-3,2.38-4.15,6.64-1.53,11.1,1.25,2.12,18.1,9.7,19.22,10.16,9,3.78,20,10.83,29.76,11.83,5.07.51,9-2.06,10-7.15a48.68,48.68,0,0,0,.49-12.36A411.86,411.86,0,0,0,548,563.65c9.71-1.11,19.4-2.51,29-4.27,7.22-1.32,16.22-2,21.38-8C608.48,539.75,599.94,518.77,595.16,506.69Z" style="fill:#fff;stroke:#141414;stroke-miterlimit:10;stroke-width:8px"/><path d="M450.3,260.3q10.45,15.45,20.4,31.26,18.15,28.88,34.53,58.8c-4.32,4.42-25,16,.6,29.85,8,4.34,33.12,25.81,42,13.86,4.39-5.93.29-17.37-1-23.68-1.95-9.52-3.77-22.23-8.94-30.61-2.94-4.76-7.21-5.13-11.69-2.21a49.7,49.7,0,0,1-6,2.86q-19.32-35.15-41.05-68.89c-11.63-18-26.85-53.79-53.52-37.74-17.41,10.47-29.66,32.14-40.35,48.73-12.31,19.12-23.65,38.86-34.72,58.72-5.6,10,9.81,19.05,15.4,9C383.56,318.57,401.17,284,425.76,257c2.83-3.1,7.45-8.62,11.87-9.37C443.5,246.67,447.55,256.23,450.3,260.3Z" style="fill:#fff;stroke:#141414;stroke-miterlimit:10;stroke-width:8px"/><path d="M362.12,539.34a412,412,0,0,1-51.36-2.43c-8.32-.94-17-2.24-25.7-3.86.74-2.39,1.61-4.84,2.65-7.44,10.35-25.77,23.68-51.57,34.53-71.72,3.17.91,6.42,1.67,9.69,2.27,4,.73,15.44,3.88,15.57,0,.43-13.36.31-38.07-.7-50.1,0-.54-.08-1.1-.13-1.75-.55-7.62,1.77-18.77-9.79-23.12-11.93-4.49-60.7,43.79-61.29,44.49-2.52,3,13.21,11,16.33,13.61-6.36,12.14-12.17,23.67-17.74,35.16-1.66,3.43-3.41,6.88-5.26,10.53C260.85,500.86,252.51,517.3,250,535c-1.11,7.82.35,14.45,4.36,19.69,7.59,9.94,21.48,11.68,33.79,13.22,1.79.23,3.53.44,5.19.69a441.94,441.94,0,0,0,63.39,4.6c1.87,0,3.74,0,5.61,0a16.14,16.14,0,0,0,14.27-8.32,18,18,0,0,0-.18-17.73A16,16,0,0,0,362.12,539.34Z" style="fill:#fff;stroke:#141414;stroke-miterlimit:10;stroke-width:8px"/><path d="M602.82,504.3l-.22-.55c-5.24-13.24-10.7-26.62-16-39.56l-.08-.19q-3.91-9.58-7.82-19.19a17.12,17.12,0,0,0-10.28-9.9,18.73,18.73,0,0,0-13.13.33c-8.39,3.4-12,11.95-8.62,20.33L565,500.85c.68,1.69,1.38,3.37,2.07,5l.07.17c2.15,5.22,4.38,10.62,6.22,15.93l.57,1.6a74.88,74.88,0,0,1,3,9.8l-1.88.24c-1,.12-1.76.21-2.39.32-3.67.7-7.43,1.34-11.15,1.93-8.83,1.4-18.12,2.49-27.6,3.25-12.28,1-25.18,1.37-38.39,1.16-.55-5.75-2.42-30.6-14.46-26.57,0,0-64.59,38.41-60.23,45.82,2.57,4.39,61.4,39.22,71.72,35.4,5-1.85,5.25-18.72,5.37-20.79a415.66,415.66,0,0,0,50.95-2.56c10.18-1.17,20.13-2.63,29.56-4.35.92-.17,1.87-.33,2.84-.49,7.08-1.18,16.79-2.79,23.15-10.15C617.55,541.49,608.33,518.21,602.82,504.3Z" style="fill:#fff;stroke:#141414;stroke-miterlimit:10;stroke-width:8px"/><path d="M432.48,261.54a43.1,43.1,0,0,1,5.59-5.49,40.83,40.83,0,0,1,3.58,5.43c.69,1.18,1.34,2.29,2,3.3,6.91,10.22,13.72,20.66,20.25,31,10.61,16.87,21.08,34.59,31.15,52.71-4.68,4.1-14.9,9-13.41,17.54,2.6,14.81,63.67,44.52,68.12,40.4,10.92-10.11,16.39-73,0-83.4-7.22-4.57-21.7,4.31-26.35,6.83-12-21.58-24.69-42.65-37.63-62.7-1.56-2.41-3.23-5.23-5-8.21-8.5-14.37-19.08-32.25-35.41-36.38-7.84-2-15.91-.52-24,4.33-17,10.21-28.72,28.81-39.1,45.21-1.31,2.07-2.59,4.1-3.84,6.05-13.14,20.39-25.06,41.35-35,59.16A16.28,16.28,0,0,0,342.25,351a17.87,17.87,0,0,0,8,9.37,17.17,17.17,0,0,0,11.94,1.9,16,16,0,0,0,10.66-8.13q3.42-6.12,6.83-12.35c15.32-27.81,31.16-56.56,52-79.38Z" style="fill:#fff;stroke:#141414;stroke-miterlimit:10;stroke-width:8px"/></g></svg>