<svg width="35" height="34" viewBox="0 0 35 34" fill="none" xmlns="http://www.w3.org/2000/svg">
<g clip-path="url(#clip0_1081_407)">
<path d="M12.5 2L7 5.5L2.5 11.5L1 17.5L3.5 26L9.5 31L17.5 33L27 31L33.5 22V14L27.5 4.5L21 1.5L12.5 2Z" fill="#FCDE8A"/>
<path d="M16.8348 0.169796C9.02765 -0.195247 2.56007 6.71511 0.691472 13.7783C-1.17713 20.8415 1.65564 28.9828 8.49864 32.1833C12.142 33.8812 16.3143 34.0509 20.2478 33.5161C23.9167 33.0152 27.543 31.7164 30.3075 29.2035C36.1096 23.9316 36.1608 14.9498 31.8945 8.75257C30.9048 7.31786 29.6676 6.12935 28.4986 4.85594C27.7563 4.04945 27.0311 3.23447 26.1608 2.55531C23.5157 0.500882 20.0771 0.178286 16.8348 0.169796C15.4611 0.169796 15.4611 2.29214 16.8348 2.29214C19.3433 2.29214 22.0908 2.42797 24.2751 3.82023C25.6915 4.72011 26.7068 6.12086 27.8672 7.29239C32.5771 12.038 34.5823 19.2794 30.8536 25.2474C27.1249 31.2155 18.8655 32.5908 12.5857 31.3004C5.93038 29.9336 1.76656 23.7448 2.26144 17.1146C2.80751 9.90712 9.01912 1.9271 16.8348 2.29214C18.2085 2.36006 18.2 0.237712 16.8348 0.169796Z" fill="#1D1D1B"/>
<path d="M5.32367 19.0672C9.91412 27.6075 24.1462 27.234 29.6837 19.9331C30.5114 18.8464 28.6599 17.7853 27.8407 18.8634C25.4517 22.013 21.194 23.21 17.3885 23.2524C13.3186 23.2949 9.16326 21.7244 7.16668 17.9975C6.51821 16.792 4.67521 17.8617 5.32367 19.0672Z" fill="#1D1D1B"/>
<path d="M13.2846 15.23H13.3614C13.5064 15.23 13.6429 15.2045 13.7709 15.1366C13.8989 15.0941 14.0184 15.0177 14.1122 14.9158C14.2146 14.8225 14.2914 14.7036 14.3341 14.5763C14.4023 14.4489 14.4279 14.3131 14.4279 14.1688L14.3938 13.8886C14.3426 13.7104 14.2487 13.5491 14.1208 13.4217L13.9074 13.2519C13.7453 13.1585 13.5576 13.1076 13.3699 13.1076H13.2931C13.1481 13.1076 13.0115 13.1331 12.8836 13.201C12.7556 13.2434 12.6361 13.3198 12.5423 13.4217C12.4399 13.5151 12.3631 13.6339 12.3204 13.7613C12.2522 13.8886 12.2266 14.0245 12.2266 14.1688L12.2607 14.4489C12.3119 14.6272 12.4057 14.7885 12.5337 14.9158L12.747 15.0856C12.9092 15.179 13.0969 15.23 13.2846 15.23Z" fill="#1D1D1B"/>
<path d="M21.1509 14.6781L21.2277 14.7545C21.3216 14.8564 21.441 14.9328 21.569 14.9753C21.697 15.0432 21.8335 15.0687 21.9786 15.0687C22.1236 15.0687 22.2601 15.0432 22.3881 14.9753C22.5161 14.9328 22.6356 14.8564 22.7294 14.7545L22.9001 14.5423C22.9939 14.381 23.0451 14.1942 23.0451 14.0075L23.011 13.7273C22.9598 13.5491 22.8659 13.3878 22.7379 13.2604L22.6612 13.184C22.5673 13.0821 22.4478 13.0057 22.3199 12.9633C22.1919 12.8954 22.0554 12.8699 21.9103 12.8699C21.7653 12.8699 21.6287 12.8954 21.5007 12.9633C21.3728 13.0057 21.2533 13.0821 21.1594 13.184L20.9888 13.3962C20.8949 13.5575 20.8438 13.7443 20.8438 13.9311L20.8779 14.2112C20.9291 14.3895 21.0229 14.5508 21.1509 14.6781Z" fill="#1D1D1B"/>
</g>
<defs>
<clipPath id="clip0_1081_407">
<rect width="35" height="34" fill="white"/>
</clipPath>
</defs>
</svg>
