<?xml version="1.0" encoding="UTF-8"?>
<svg id="Calque_1" data-name="Calque 1" xmlns="http://www.w3.org/2000/svg" viewBox="0 0 41.02 34">
  <defs>
    <style>
      .cls-1 {
        fill: #1d1d1b;
        stroke-width: 0px;
      }
    </style>
  </defs>
  <path class="cls-1" d="M2.3,19.46c4.82-5.46,10.91-10.83,18.6-10.99s12.4,5.56,16.72,10.86c1.02,1.25,2.78-.53,1.77-1.77-4.78-5.85-10.33-11.76-18.49-11.59S5.81,11.71.53,17.7c-1.06,1.2.7,2.98,1.77,1.77h0Z"/>
  <path class="cls-1" d="M.59,19.63c4.67,6.41,12.14,10.67,20.15,10.81s15.46-3.81,19.89-10.26c.91-1.33-1.25-2.58-2.16-1.26-3.93,5.73-10.81,9.14-17.73,9.02s-13.85-3.89-17.99-9.57c-.94-1.29-3.11-.04-2.16,1.26h0Z"/>
  <path class="cls-1" d="M20.54,10.34c-3.46-.06-6.6,2.03-7.89,5.23-.61,1.52-.74,3.22-.39,4.81.38,1.79,1.48,3.03,3.08,3.85s3.47,1.49,5.35,1.4c1.74-.09,3.34-.7,4.69-1.79,2.25-1.8,3.6-5.05,2.55-7.86s-4.14-5.63-7.38-5.65c-1.61,0-1.61,2.49,0,2.5,1.89.01,3.7,1.59,4.62,3.15,1.02,1.72.67,3.74-.65,5.24-1.73,1.96-4.26,2.3-6.65,1.42-1.07-.39-2.44-.94-2.93-2.05-.46-1.02-.46-2.29-.19-3.35.66-2.67,3.08-4.44,5.81-4.4,1.61.03,1.61-2.47,0-2.5h0Z"/>
  <path class="cls-1" d="M36.17,31.77C25.49,21.96,15.39,11.52,5.94.53c-1.05-1.22-2.81.55-1.77,1.77,9.46,11,19.56,21.43,30.24,31.24,1.18,1.09,2.96-.68,1.77-1.77h0Z"/>
</svg>