<svg xmlns="http://www.w3.org/2000/svg" xml:space="preserve" style="enable-background:new 0 0 300 300" viewBox="0 0 300 300"><path d="m48.5 270.2 179.2 7 .2-11.4-169.2-1.5-1.6-219.6-10.6-.3z" style="fill:#d7e6f6"/><path d="m227.9 265.8-.2 11.4-179.2-7-2-225.8 10.6.3-.1-12-22.7-.7 2.4 249.7 202.8 8 .4-23.8z"/><path d="m70.6 252.4 178.3 1.6 1.6-236.1-181.6 5.3z" style="fill:#ddf1f0"/><path d="M262.6 5.5 56.9 11.6l.1 21.1.1 12 1.6 219.5 169.2 1.6 12 .1 20.8.2 1.9-260.6zM248.9 254l-178.2-1.7-1.8-229.1 181.6-5.4-1.6 236.2z"/><path d="m114.438 43.16 76.746-6.272.978 11.96-76.746 6.273zM93.568 97.544l.45-11.991 129.31 4.854-.45 11.992zM96.238 120.79l121.74-3.965.39 11.994-121.739 3.965zM93.305 163.287l.126-12 125.688 1.325-.127 11.998zM97.189 186.128l123.975-2.644.256 11.998-123.975 2.644zM94.385 224.15l.5-11.99 127.086 5.295-.5 11.99z"/></svg>