<svg xmlns="http://www.w3.org/2000/svg" viewBox="0 0 42.1 38.21"><title>icon bubble speech</title><g id="Calque_1" data-name="Calque 1"><path d="M28.57,2.33a1.33,1.33,0,0,0-.29-.76,1.18,1.18,0,0,0-1-.51C22.74.91,18.62-.2,14,0S5.4-.26.94.6a1,1,0,0,0-.85.67.43.43,0,0,0,0,.05l0,.09a1.38,1.38,0,0,0,0,.42,101.2,101.2,0,0,0,.68,11,1,1,0,0,0,1.1.92l.13,0a9.57,9.57,0,0,1,2,.46c-.18.85-.38,1.7-.62,2.54A1.12,1.12,0,0,0,3.61,18a1.1,1.1,0,0,0,1.28.39,26.74,26.74,0,0,0,7.44-3.67c5-.16,10-.49,14.93-.64a1.23,1.23,0,0,0,1.07-.64,1.43,1.43,0,0,0,.21-.64A82.5,82.5,0,0,0,28.57,2.33Zm-13.21.15c3.64-.15,7.12.77,10.72,1q.18,4,0,8c-4.71.17-9.42.48-14.14.62a1.23,1.23,0,0,0-.8.31l-.1.06a19,19,0,0,1-4.64,2.57c.11-.5.22-1,.3-1.5a1.33,1.33,0,0,0-.6-1.42l-.17-.09L5.78,12a1.27,1.27,0,0,0-.28,0H5.44A13.34,13.34,0,0,1,3,11.42C2.67,8.6,2.69,5.74,2.6,2.9,6.83,2.26,11.06,2.65,15.36,2.48Z" style="fill:#1d1d1b"/><path d="M41.22,18.64a1,1,0,0,0-1.14-.92l-.09,0c-4.72-.56-9.41.36-14.14.4s-9.28-.33-13.89.6a1.07,1.07,0,0,0-.91,1.1l0,.13c-.3,4.15-.87,8.44-.8,12.59a1.17,1.17,0,0,0,.66,1.08,1.3,1.3,0,0,0,.61.2c6.15.38,12.29.93,18.42,1.52q2.16,1.4,4.44,2.59a1.07,1.07,0,0,0,.77.3,1.26,1.26,0,0,0,1.13-.55l.06-.08.07-.11,0-.09a1.2,1.2,0,0,0,0-.91,13.13,13.13,0,0,1-.14-2.35,21.89,21.89,0,0,0,3.14-.07.42.42,0,0,0,.12,0,1.12,1.12,0,0,0,1.11-.91A36.15,36.15,0,0,0,41.22,18.64ZM35,31.5a1.1,1.1,0,0,0-.92.33,1.09,1.09,0,0,0-.36.94c0,.65,0,1.29.06,1.93-.95-.55-1.9-1.12-2.82-1.72a1.18,1.18,0,0,0-.82-.19c-5.79-.55-11.59-1.07-17.39-1.45,0-3.42.44-6.91.72-10.32,4.57-.75,9.19-.24,13.81-.39,3.88-.13,7.71-.74,11.58-.47a33.44,33.44,0,0,1-.45,11.42A32.29,32.29,0,0,1,35,31.5Z" style="fill:#1d1d1b"/></g></svg>