<svg xmlns="http://www.w3.org/2000/svg" xml:space="preserve" id="Layer_1" x="0" y="0" style="enable-background:new 0 0 44 37.3" version="1.1" viewBox="0 0 44 37.3"><style>.st3{fill:none;stroke:#000;stroke-width:2.5;stroke-linecap:round;stroke-linejoin:round;stroke-miterlimit:10}</style><path d="M9.4 31h23.3v4.7H9.4z" style="fill:#878787"/><path d="M7.5 2.4c-.4 0-2.3 0-2.7.2-.4.1-.7.5-.9.8-1.1 1.8-1.2 4-1.2 6.1-.2 5.7-.3 11.4-.5 17-.1 1.9-.2 3.8.5 5.5.3.8.8 1.6 1.5 2.1 1 .7 2.2.9 3.4 1.1 3.1.4 6.2.6 9.4.5 1.5 0 2.9-.1 4.4-.1 5.5-.2 11.1-.4 16.6-1 .9-.1 1.9-.2 2.6-.8.5-.5.8-1.2 1-1.9 1.2-4 1.1-8.2.7-12.3s-.3-8.3-.4-12.4c0-1.4-.4-3.3-1.4-4.2-.9-.8-3.6-.8-4.8-.9-2.7-.1-4.8.2-7.5 0-2.5-.1-4.2.2-7.7.2-2.1 0-5.4.2-7.5.2-2.8-.1-2.7-.1-5.5-.1z" style="fill:none;stroke:#000;stroke-width:2.5;stroke-linejoin:round;stroke-miterlimit:10"/><path d="M11 7.2c-.7 0-1.4.1-1.8.5-.2.3-.2.7-.2 1v6.6c0 .4 0 .9.2 1.3.6 1.1 2.3 1.3 3.6 1.3h11c1.9 0 3.8 0 5.7-.2 1.7-.2 3.4-.6 4.4-1.8.7-.9.7-2 .8-3 .1-1.4.1-2.8.2-4.1 0-.6 0-1.2-.4-1.7s-1.1-.6-1.7-.7c-3.9-.6-7.9.2-11.7.7-3.6.5-6.7.1-10.1.1z" style="fill:#878787;stroke:#000;stroke-width:2.5;stroke-linejoin:round;stroke-miterlimit:10"/><path d="M9.6 21.8c7.4.6 14.8.5 22.2-.1M9.4 26.4c7.5 0 15 .1 22.6.1M9.5 35.1c0-1.1 0-2.2.1-3.3 7.6-.6 15.3-.9 22.9-.9.2 1.6.2 2.2.1 3.7" class="st3"/></svg>