<svg xmlns="http://www.w3.org/2000/svg" xml:space="preserve" style="enable-background:new 0 0 700 700" viewBox="0 0 700 700"><path d="M597.5 330.3C538 264.9 447.1 212.2 357 212.2s-180.2 52.7-240.5 118.1c-4.3 4.3-4.3 10.2 0 15.3C176 410.2 266.9 463.7 357 463.7S537.2 411 597.5 345.6c2.5-2.5 2.5-5.1 2.5-7.6.1-2.6-.8-5.1-2.5-7.7zM357 441.7c-80.7 0-162.3-46.7-218.4-103.7 56.1-57.8 136.8-103.7 218.4-103.7S519.3 280.2 575.4 338C519.3 395.8 437.7 441.7 357 441.7z"/><path d="M433.5 335.4c-3.4-39.9-34-73.1-76.5-73.1-41.6 0-76.5 34.8-76.5 76.5 0 39.9 32.3 74.8 73.1 76.5 44.2 1.7 76.5-32.3 79.9-74.8v-5.1z"/></svg>