<svg width="34" height="34" viewBox="0 0 34 34" fill="none" xmlns="http://www.w3.org/2000/svg">
<g clip-path="url(#clip0_1085_446)">
<path d="M9 28.5L5.5 32L10 32.5L13 30.5L13.5 26V24.5L21 18.5L25 14.5L28 15.5L30.5 14.5L32.5 12.5L33 9L31 5.5L30 6.5L26 9L23.5 7L24 5.5L26 3.5V2L23 1L19.5 2L17.5 4.5L18 8.5L20 10.5L10 20.5H8.5L5 20L2 22L1 26.5L3.5 29L6.5 26.5L9 28.5Z" fill="#F19093"/>
<path d="M5.61416 25.6284C4.57638 26.6138 3.58114 27.6329 2.54336 28.6267H4.04899C2.1946 27.1107 1.4035 24.5336 2.85809 22.4617C4.15957 20.6089 6.82207 20.2888 8.4723 21.8638C8.88912 22.2596 9.56112 22.268 9.97793 21.8638L17.9654 13.9638L19.8879 12.0604C20.3642 11.5888 20.8831 11.1509 20.8321 10.435C20.7895 9.78648 20.3727 9.45802 19.9219 9.06218C19.369 8.5737 18.9522 7.9673 18.7225 7.26827C18.2631 5.90389 18.5609 4.43002 19.5561 3.37726C20.679 2.18975 22.1931 1.9034 23.7583 2.20659C24.1921 2.29081 24.6174 2.40872 25.0512 2.52663C25.2809 2.58558 25.2384 2.60243 25.2384 2.42557C25.2384 2.50979 24.9662 2.75403 24.9151 2.80456C24.3197 3.47833 23.6817 4.11841 23.0778 4.78375C22.0485 5.92073 22.1506 6.90612 23.2564 7.93362C24.2601 8.86005 25.7317 10.9571 27.2629 9.99703C28.02 9.52539 28.675 8.7674 29.3385 8.17786C30.1295 7.4704 30.9206 6.76294 31.7117 6.05549L30.0445 5.84494C31.6607 7.95888 33.0983 11.6983 30.3252 13.6101C29.1003 14.4523 27.5606 14.2165 26.2932 13.627C24.796 12.9279 24.0985 13.627 23.1118 14.7218C20.9767 17.1053 18.6459 19.3034 16.1366 21.2995C15.5156 21.788 14.8861 22.268 14.2481 22.7312C13.6867 23.1355 13.0062 23.4976 12.5724 24.0367C11.6877 25.14 12.5809 26.2348 12.6149 27.4392C12.6489 28.9804 11.8834 30.5048 10.5308 31.2881C9.88436 31.6587 9.15281 31.8608 8.41276 31.8861C7.97043 31.9029 6.61791 31.8187 6.43928 31.5239L6.54986 32.3324C6.66044 31.9113 7.75777 31.2712 8.12354 30.9596C8.75301 30.4122 9.38249 29.8648 10.012 29.3173C10.5819 28.8204 10.3012 28.0456 9.7993 27.6666C8.9997 27.0602 8.2001 26.4538 7.40901 25.839C6.3287 25.0136 5.2654 26.8412 6.3372 27.6582C7.1368 28.2646 7.9364 28.8709 8.7275 29.4858L8.51484 27.835C7.6727 28.5678 6.83908 29.2921 5.99695 30.0248C5.32494 30.6059 4.24463 31.2881 4.50833 32.3409C4.89112 33.8821 7.63868 34.1011 8.88912 33.9663C12.4958 33.6042 15.1243 30.4206 14.716 26.8328C14.6735 26.437 14.5969 26.0411 14.4778 25.6537C14.2992 25.0894 14.2226 25.2831 14.733 24.9884C15.6687 24.4493 16.5278 23.6914 17.37 23.026C19.0457 21.7122 20.6534 20.2973 22.1761 18.8065C22.8906 18.0991 23.5881 17.3832 24.2601 16.6421C24.5834 16.2799 24.9917 15.9178 25.2554 15.5219C25.4766 15.1935 25.451 15.5219 25.2384 15.4545C25.4766 15.5135 25.7232 15.6904 25.9529 15.783C27.6032 16.4484 29.5426 16.4736 31.1248 15.6061C32.8601 14.6629 33.8213 12.7847 34 10.8898C34.2126 8.66634 33.2174 6.5187 31.8904 4.78375C31.4651 4.22789 30.776 4.0763 30.2231 4.5732C29.8403 4.91851 25.9784 8.09364 26.072 8.28734C26.778 8.44736 26.9652 8.39683 26.6334 8.15259C26.4888 8.01784 26.3442 7.89151 26.2081 7.75675C25.8253 7.40302 25.4425 7.05772 25.0597 6.70399C24.8641 6.5187 24.5153 5.90389 24.4643 6.40922C24.4898 6.19024 25.0768 5.75229 25.2554 5.55858C26.123 4.63215 27.7563 3.37726 27.399 1.91182C27.0417 0.446373 24.9407 0.269509 23.7583 0.0842225C20.9342 -0.353726 18.076 0.943276 16.8851 3.60466C16.3322 4.84271 16.2386 6.23235 16.5789 7.5462C16.749 8.21154 17.0552 8.87689 17.438 9.44117C17.5997 9.67699 17.7868 9.91281 17.9824 10.1318C18.127 10.2918 18.731 10.6708 18.7565 10.8645L18.8671 10.056C18.6629 10.4771 18.1356 10.8392 17.7953 11.1677L16.4598 12.4815L13.7973 15.1177L8.4723 20.3815H9.97793C7.51108 18.0233 3.51308 18.2844 1.37798 20.9373C-0.910233 23.7756 -0.21271 27.8519 2.55186 30.109C3.0027 30.4796 3.60665 30.5385 4.05749 30.109C5.09527 29.1236 6.09052 28.1045 7.1283 27.1107C8.16607 26.1169 6.60941 24.6767 5.62267 25.62L5.61416 25.6284Z" fill="#1D1D1B"/>
</g>
<defs>
<clipPath id="clip0_1085_446">
<rect width="34" height="34" fill="white"/>
</clipPath>
</defs>
</svg>
