<?xml version="1.0" encoding="UTF-8" standalone="no"?>
<svg
   viewBox="0 0 37.000002 37.000001"
   version="1.1"
   id="svg35"
   sodipodi:docname="map-machine-verified.svg"
   width="37"
   height="37"
   inkscape:version="1.1.2 (1:1.1+202202050942+0a00cf5339)"
   xmlns:inkscape="http://www.inkscape.org/namespaces/inkscape"
   xmlns:sodipodi="http://sodipodi.sourceforge.net/DTD/sodipodi-0.dtd"
   xmlns="http://www.w3.org/2000/svg"
   xmlns:svg="http://www.w3.org/2000/svg"
   xmlns:rdf="http://www.w3.org/1999/02/22-rdf-syntax-ns#"
   xmlns:cc="http://creativecommons.org/ns#"
   xmlns:dc="http://purl.org/dc/elements/1.1/">
  <sodipodi:namedview
     id="namedview37"
     pagecolor="#ffffff"
     bordercolor="#666666"
     borderopacity="1.0"
     inkscape:pageshadow="2"
     inkscape:pageopacity="0.0"
     inkscape:pagecheckerboard="0"
     showgrid="false"
     fit-margin-top="0"
     fit-margin-left="0"
     fit-margin-right="0"
     fit-margin-bottom="0"
     inkscape:zoom="2.3735651"
     inkscape:cx="153.98777"
     inkscape:cy="161.14999"
     inkscape:window-width="1852"
     inkscape:window-height="1009"
     inkscape:window-x="0"
     inkscape:window-y="0"
     inkscape:window-maximized="1"
     inkscape:current-layer="svg35" />
  <defs
     id="defs4">
    <style
       id="style2">.cls-1{fill:#f9cacb;}.cls-2{fill:#f29195;}.cls-3{fill:#fff;}.cls-4{fill:#141414;}</style>
  </defs>
  <title
     id="title6">map icon machine</title>
  <metadata
     id="metadata39">
    <rdf:RDF>
      <cc:Work
         rdf:about="">
        <dc:title>map icon machine</dc:title>
      </cc:Work>
    </rdf:RDF>
  </metadata>
  <g
     id="g191">
    <g
       id="Calque_1"
       data-name="Calque 1"
       transform="matrix(0.11477064,0,0,0.11484367,0.23781722,0.10647126)">
      <path
         class="cls-1"
         d="m 290.82,148 a 60.8,60.8 0 0 0 -0.61,-6.61 118.44,118.44 0 0 0 -5.11,-19.22 c -1.87,-5.43 -3.56,-10.32 -5.41,-15.19 -0.46,-1.21 -0.89,-2.46 -1.3,-3.67 a 42.2,42.2 0 0 0 -4.31,-9.77 c -1.82,-2.69 -3.52,-5.5 -5.16,-8.22 a 109.13,109.13 0 0 0 -9.47,-14 42.32,42.32 0 0 0 -9.62,-8.89 32,32 0 0 1 -7.35,-6.22 49.36,49.36 0 0 0 -16.28,-12.62 172.26,172.26 0 0 0 -22.48,-9.38 c -0.92,-0.29 -1.84,-0.6 -2.74,-0.91 a 45.11,45.11 0 0 0 -7.47,-2.06 C 190.06,30.69 186,30 182,29.1 a 72.67,72.67 0 0 0 -13.53,-1.74 c -0.64,0 -1.28,0 -1.92,0 -2.63,0 -5.29,0.19 -7.87,0.37 -1.8,0.13 -3.66,0.26 -5.51,0.33 a 42,42 0 0 0 -8.08,0.84 c -4.54,1.05 -9.17,1.88 -13.64,2.68 l -1.19,0.21 -3,0.49 a 62.09,62.09 0 0 0 -6.71,1.31 c -2.28,0.63 -4.55,1.49 -6.74,2.32 -1.44,0.54 -2.94,1.11 -4.44,1.61 A 112.7,112.7 0 0 0 90.25,46.26 136.77,136.77 0 0 0 67,62.54 49.83,49.83 0 0 0 58.7,72.16 c -1.66,2.42 -3.25,5 -4.78,7.44 -1.29,2.07 -2.62,4.21 -4,6.27 a 139.64,139.64 0 0 0 -12.33,23.19 l -0.75,1.78 c -1.81,4.29 -3.68,8.73 -5.22,13.18 -2.17,6.26 -3.14,12.66 -4.09,19.77 -0.4,3 -0.52,6.05 -0.63,9 -0.08,2.23 -0.17,4.54 -0.38,6.82 a 69.92,69.92 0 0 0 0.75,16.82 c 0.15,1 0.29,1.92 0.42,2.89 a 80,80 0 0 0 1.84,9.91 155,155 0 0 0 9.47,25.88 243.44,243.44 0 0 0 15.17,26.25 133.42,133.42 0 0 0 10.53,14.27 43.87,43.87 0 0 0 11.69,9.62 c 2,1.16 4,2.38 5.94,3.56 2.1,1.29 4.28,2.63 6.45,3.87 1.86,1.06 3.7,2.19 5.48,3.28 4.66,2.85 9.47,5.8 14.73,7.67 1.89,0.67 3.76,1.46 5.56,2.22 a 53.57,53.57 0 0 0 10.11,3.52 c 1.44,0.29 2.94,0.53 4.39,0.75 l 2.65,0.43 a 43,43 0 0 0 4.35,0.43 45.53,45.53 0 0 1 4.58,0.46 86.25,86.25 0 0 0 11.44,0.87 c 2.28,0.07 4.64,0.15 7,0.33 a 70.5,70.5 0 0 0 18,-1.15 c 1.88,-0.33 3.78,-0.55 5.63,-0.75 a 58.36,58.36 0 0 0 8.4,-1.37 c 1.76,-0.47 3.54,-1.06 5.26,-1.63 1.26,-0.42 2.56,-0.85 3.86,-1.24 a 95.32,95.32 0 0 0 17.45,-7.05 c 3.45,-1.84 6.87,-3.9 10.18,-5.88 3.9,-2.34 7.93,-4.76 12.07,-6.87 a 19.67,19.67 0 0 0 5.34,-3.68 c 4.81,-5 10.45,-11 15.79,-17.43 4.07,-4.88 8.29,-10.14 11.44,-16.12 0.88,-1.68 1.7,-3.45 2.5,-5.16 a 81.62,81.62 0 0 1 3.85,-7.57 c 4.46,-7.48 9.69,-24 9.82,-24.42 a 49.32,49.32 0 0 0 2.07,-11 c 0.13,-1.53 0.32,-3.08 0.5,-4.57 a 69.53,69.53 0 0 0 0.69,-9.25 c -0.09,-5.55 -0.35,-10.65 -0.81,-15.59 -0.11,-1.33 -0.21,-2.66 -0.29,-3.91 z"
         id="path8" />
      <path
         class="cls-2"
         d="m 319.29,150.15 c -0.14,-1.52 -0.23,-3.08 -0.32,-4.6 A 75.89,75.89 0 0 0 318.21,137.38 144.88,144.88 0 0 0 312,114 c -2.23,-6.5 -4.26,-12.36 -6.48,-18.2 -0.53,-1.4 -1,-2.88 -1.53,-4.3 -1.45,-4.22 -3,-8.59 -5.46,-12.29 -2.13,-3.15 -4.13,-6.48 -6.08,-9.7 -3.47,-5.75 -7.07,-11.71 -11.55,-17 a 52.76,52.76 0 0 0 -12.08,-11.13 36,36 0 0 1 -8.18,-6.9 61.42,61.42 0 0 0 -20.3,-15.71 C 231.81,14.67 222.69,10.43 213.15,7.43 212.08,7.1 210.99,6.73 209.94,6.37 A 57,57 0 0 0 200.58,3.79 C 196.51,3.15 191.71,2.35 187.05,1.28 a 89.09,89.09 0 0 0 -16.65,-2.18 107.74,107.74 0 0 0 -12,0.4 c -2.13,0.15 -4.33,0.3 -6.49,0.38 A 53.59,53.59 0 0 0 141.78,1 C 136.44,2.19 131,3.17 125.64,4.12 l -1.42,0.25 c -1.15,0.21 -2.34,0.39 -3.48,0.58 a 75.21,75.21 0 0 0 -8.31,1.63 c -2.84,0.78 -5.6,1.83 -8.28,2.84 -1.7,0.64 -3.45,1.31 -5.19,1.89 a 137,137 0 0 0 -23.28,10.62 165.68,165.68 0 0 0 -28.26,19.81 61.93,61.93 0 0 0 -10.36,12 c -2,3 -3.92,6 -5.77,9 -1.53,2.45 -3.11,5 -4.72,7.41 a 169,169 0 0 0 -15,28.12 l -0.89,2.12 c -2.17,5.16 -4.42,10.5 -6.29,15.9 -2.67,7.7 -3.85,15.48 -5,24.11 -0.5,3.7 -0.64,7.42 -0.78,11 -0.09,2.62 -0.2,5.34 -0.44,8 a 85.85,85.85 0 0 0 0.95,20.7 c 0.17,1.14 0.33,2.28 0.49,3.42 A 98,98 0 0 0 1.87,195.68 188.26,188.26 0 0 0 13.38,227 c 5.5,11.53 12.32,22.36 18.27,31.61 A 161.19,161.19 0 0 0 44.43,276 55.13,55.13 0 0 0 59.08,288 c 2.36,1.37 4.73,2.82 7,4.22 2.53,1.55 5.14,3.15 7.77,4.65 2.18,1.25 4.36,2.59 6.47,3.88 5.67,3.47 11.54,7.07 18.08,9.39 2.18,0.78 4.37,1.7 6.49,2.6 a 66.64,66.64 0 0 0 12.57,4.35 c 1.79,0.37 3.6,0.65 5.36,0.92 1,0.16 2.09,0.32 3.13,0.5 a 49,49 0 0 0 5.47,0.55 c 1.72,0.11 3.49,0.23 5.19,0.51 a 102.69,102.69 0 0 0 14,1.09 c 2.68,0.08 5.46,0.17 8.17,0.38 1.78,0.14 3.59,0.21 5.45,0.21 A 96.18,96.18 0 0 0 181,319.64 c 2.15,-0.38 4.39,-0.63 6.55,-0.87 a 71.57,71.57 0 0 0 10.42,-1.7 c 2.18,-0.58 4.34,-1.3 6.43,-2 1.48,-0.49 3,-1 4.53,-1.45 A 116.23,116.23 0 0 0 230.24,305 c 4.18,-2.23 8.29,-4.7 12.27,-7.09 4.61,-2.76 9.38,-5.63 14.24,-8.1 a 25.67,25.67 0 0 0 7.1,-4.93 c 5.77,-6 12.54,-13.2 19,-20.93 4.93,-5.94 10.08,-12.35 13.95,-19.72 1.09,-2.06 2.09,-4.2 3.05,-6.27 a 96.62,96.62 0 0 1 4.46,-8.79 c 5.51,-9.21 12,-29.68 12,-29.74 a 61.76,61.76 0 0 0 2.57,-13.68 c 0.16,-1.79 0.38,-3.61 0.59,-5.37 a 85.3,85.3 0 0 0 0.84,-11.4 c -0.14,-6.7 -0.46,-12.86 -1.02,-18.83 z m -27.62,26.74 c -0.18,1.5 -0.36,3 -0.5,4.58 a 49.6,49.6 0 0 1 -2.07,11.05 c -0.13,0.39 -5.38,17 -9.86,24.5 a 82.21,82.21 0 0 0 -3.86,7.6 c -0.8,1.72 -1.63,3.49 -2.51,5.17 -3.16,6 -7.4,11.29 -11.47,16.19 -5.37,6.44 -11,12.45 -15.85,17.48 a 19.77,19.77 0 0 1 -5.36,3.7 c -4.16,2.11 -8.2,4.54 -12.11,6.89 -3.33,2 -6.76,4.05 -10.22,5.9 a 94.88,94.88 0 0 1 -17.5,7.07 c -1.31,0.39 -2.62,0.83 -3.88,1.25 -1.73,0.57 -3.51,1.16 -5.28,1.64 a 58.54,58.54 0 0 1 -8.43,1.37 c -1.85,0.2 -3.76,0.42 -5.65,0.75 a 71,71 0 0 1 -18.07,1.16 c -2.33,-0.19 -4.69,-0.26 -7,-0.33 a 85.07,85.07 0 0 1 -11.48,-0.88 46.21,46.21 0 0 0 -4.6,-0.46 43.21,43.21 0 0 1 -4.36,-0.43 l -2.67,-0.43 c -1.45,-0.23 -3,-0.46 -4.4,-0.76 a 53.85,53.85 0 0 1 -10.14,-3.52 c -1.81,-0.77 -3.68,-1.56 -5.58,-2.23 -5.28,-1.88 -10.11,-4.84 -14.78,-7.7 -1.79,-1.1 -3.64,-2.23 -5.5,-3.29 -2.18,-1.25 -4.37,-2.59 -6.48,-3.88 -1.94,-1.19 -3.94,-2.42 -6,-3.58 a 44,44 0 0 1 -11.73,-9.65 133,133 0 0 1 -10.57,-14.32 243.44,243.44 0 0 1 -15.22,-26.34 154.88,154.88 0 0 1 -9.54,-26 80.59,80.59 0 0 1 -1.84,-10 l -0.42,-2.9 a 69.29,69.29 0 0 1 -0.75,-16.87 c 0.2,-2.29 0.29,-4.6 0.38,-6.84 0.11,-3 0.22,-6.05 0.63,-9.05 1,-7.04 2,-13.46 4.17,-19.73 1.55,-4.47 3.42,-8.93 5.24,-13.23 l 0.75,-1.78 A 138.37,138.37 0 0 1 49.54,85.71 c 1.38,-2.08 2.71,-4.22 4,-6.29 1.54,-2.48 3.14,-5 4.81,-7.48 a 50.08,50.08 0 0 1 8.32,-9.65 137.33,137.33 0 0 1 23.38,-16.38 112.94,112.94 0 0 1 19.19,-8.76 c 1.5,-0.51 3,-1.07 4.46,-1.62 2.19,-0.84 4.47,-1.7 6.75,-2.33 a 62.66,62.66 0 0 1 6.74,-1.32 c 1,-0.15 2,-0.31 3,-0.49 l 1.19,-0.21 c 4.49,-0.8 9.14,-1.63 13.69,-2.69 a 43.09,43.09 0 0 1 8.11,-0.84 c 1.85,-0.07 3.72,-0.2 5.53,-0.33 2.59,-0.18 5.25,-0.37 7.89,-0.37 0.65,0 1.29,0 1.93,0 a 72.25,72.25 0 0 1 13.58,1.75 c 4,0.91 8.08,1.59 11.54,2.14 a 45.8,45.8 0 0 1 7.5,2.08 c 0.89,0.3 1.82,0.61 2.75,0.9 a 172.71,172.71 0 0 1 22.56,9.42 49.52,49.52 0 0 1 16.32,12.63 32.33,32.33 0 0 0 7.39,6.25 42.05,42.05 0 0 1 9.64,8.91 108.24,108.24 0 0 1 9.51,14 c 1.65,2.73 3.35,5.55 5.17,8.25 a 41.94,41.94 0 0 1 4.33,9.81 c 0.42,1.21 0.85,2.46 1.31,3.68 1.85,4.88 3.55,9.79 5.43,15.24 a 118.35,118.35 0 0 1 5.12,19.28 64.07,64.07 0 0 1 0.62,6.63 c 0.07,1.3 0.15,2.64 0.27,4 0.47,5 0.73,10.08 0.82,15.65 a 70,70 0 0 1 -0.72,9.32 z"
         id="path10" />
      <path
         class="cls-3"
         d="m 196.17,130.08 c -1,-10.77 3.82,-22.18 12.94,-28 9.12,-5.82 22.43,-4.91 29.85,3 -4.43,4 -8.92,8.83 -13.36,12.8 l 8.31,12.12 a 1.07,1.07 0 0 0 0.56,0.51 1.12,1.12 0 0 0 0.86,-0.25 c 5,-3.17 9.61,-5.87 14.62,-9 a 27.83,27.83 0 0 1 1.21,20.21 c -2.28,6.52 -7.68,12 -14.36,13.81 a 27.2,27.2 0 0 1 -11.33,0.2 c -5.4,-0.9 -10.76,-2.87 -14.83,-6.52 -15.26,8.83 -32.57,16.28 -47.83,25.12 -5.05,2.92 -10.09,5.84 -15,8.94 a 248.87,248.87 0 0 0 -23.53,16.75 l -0.2,0.55 a 30.66,30.66 0 0 1 -10,28.18 c -4.76,4.1 -11,6.67 -17.27,6.29 -6.27,-0.38 -12.43,-2 -15.15,-7.69 7.33,-4.48 14.13,-10.93 21.47,-15.41 l -0.2,-0.37 c -4.83,-5.67 -10.28,-10.76 -14.52,-16.89 -6.84,6 -14.34,12 -21.26,17.84 a 27.34,27.34 0 0 1 6.58,-37.59 32.92,32.92 0 0 1 7.44,-3.94 23,23 0 0 1 8,-1.71 c 4.6,0 9,1.92 12.75,4.65 a 65.52,65.52 0 0 1 9.84,9.65 h 0.28 c 21.41,-14.56 62.44,-38.69 83.85,-53.25 z"
         id="path12" />
      <path
         class="cls-4"
         d="m 112.1,186.57 a 3.23,3.23 0 0 1 -1.82,-5.9 C 121.05,173.36 137,163.5 152.33,154 c 15.33,-9.5 31.16,-19.31 41.81,-26.55 a 3.2243526,3.2243526 0 1 1 3.63,5.33 c -10.77,7.32 -26.67,17.17 -42.05,26.7 -15.38,9.53 -31.16,19.29 -41.81,26.52 a 3.19,3.19 0 0 1 -1.81,0.57 z"
         id="path14" />
      <path
         class="cls-4"
         d="m 196.18,133.41 a 3.23,3.23 0 0 1 -3.18,-2.7 v -0.2 -0.15 c -1.1,-12.34 4.69,-24.8 14.42,-31 10.75,-6.84 25.65,-5.29 33.93,3.52 a 3.23,3.23 0 0 1 -4.7,4.42 c -6.12,-6.52 -17.68,-7.64 -25.77,-2.49 -7.73,4.92 -12.33,14.93 -11.46,24.93 v 0.07 a 3.23,3.23 0 0 1 -2.68,3.54 3.17,3.17 0 0 1 -0.56,0.06 z"
         id="path16" />
      <path
         class="cls-4"
         d="m 234.63,133.77 a 3.66,3.66 0 0 1 -1.06,-0.15 4.2,4.2 0 0 1 -2.33,-1.8 l -9.9,-14.43 2.11,-1.89 c 2.16,-1.93 4.4,-4.15 6.56,-6.29 2.16,-2.14 4.52,-4.48 6.8,-6.52 a 3.23,3.23 0 0 1 4.3,4.81 c -2.15,1.93 -4.39,4.15 -6.56,6.29 -1.54,1.53 -3.12,3.09 -4.71,4.59 l 5.53,8.06 c 1.92,-1.2 3.8,-2.35 5.64,-3.47 2.33,-1.43 4.75,-2.91 7.22,-4.47 a 3.23,3.23 0 0 1 3.45,5.46 c -2.51,1.58 -5,3.07 -7.31,4.51 -2.31,1.44 -4.82,2.95 -7.31,4.53 v 0 a 4.56,4.56 0 0 1 -2.43,0.77 z"
         id="path18" />
      <path
         class="cls-4"
         d="m 231.08,159.17 a 37.72,37.72 0 0 1 -6.14,-0.54 c -6.78,-1.13 -12.32,-3.59 -16.46,-7.3 a 3.23,3.23 0 0 1 4.31,-4.8 c 3.21,2.88 7.66,4.81 13.21,5.74 a 23.73,23.73 0 0 0 10,-0.14 c 5.37,-1.43 10.14,-6 12.13,-11.76 a 24.54,24.54 0 0 0 -1.13,-17.83 3.23,3.23 0 1 1 5.9,-2.62 31.08,31.08 0 0 1 1.3,22.58 24.75,24.75 0 0 1 -16.57,15.86 25.33,25.33 0 0 1 -6.55,0.81 z"
         id="path20" />
      <path
         class="cls-4"
         d="m 67.17,215.46 a 3.22,3.22 0 0 1 -2.67,-1.41 30.55,30.55 0 0 1 7.37,-42 36,36 0 0 1 8.13,-4.35 26.25,26.25 0 0 1 9.17,-1.93 h 0.11 a 24.84,24.84 0 0 1 14.57,5.28 67.53,67.53 0 0 1 10.35,10.12 3.2234221,3.2234221 0 1 1 -4.83,4.27 63.32,63.32 0 0 0 -9.34,-9.19 c -2.5,-1.84 -6.39,-4 -10.75,-4 H 89.2 a 19.79,19.79 0 0 0 -6.89,1.51 29.12,29.12 0 0 0 -6.71,3.54 24.1,24.1 0 0 0 -5.81,33.15 3.23,3.23 0 0 1 -2.66,5 z"
         id="path22" />
      <path
         class="cls-4"
         d="m 67.17,215.46 a 3.22,3.22 0 0 1 -2.09,-5.68 c 2.86,-2.43 5.86,-4.92 8.77,-7.32 C 78,199 82.31,195.46 86.3,192 a 3.23,3.23 0 1 1 4.25,4.86 c -4.06,3.55 -8.4,7.13 -12.59,10.6 -2.89,2.39 -5.88,4.86 -8.71,7.26 a 3.16,3.16 0 0 1 -2.08,0.74 z"
         id="path24" />
      <path
         class="cls-4"
         d="m 103,214.52 a 3.23,3.23 0 0 1 -2.46,-1.14 c -1.64,-1.93 -3.4,-3.84 -5.11,-5.69 a 106.75,106.75 0 0 1 -9.61,-11.45 3.23,3.23 0 0 1 5.31,-3.67 100.79,100.79 0 0 0 9,10.75 c 1.75,1.89 3.56,3.85 5.28,5.88 a 3.22,3.22 0 0 1 -0.36,4.55 3.26,3.26 0 0 1 -2.05,0.77 z"
         id="path26" />
      <path
         class="cls-4"
         d="m 81.68,230.29 a 3.22,3.22 0 0 1 -1.68,-6 119.26,119.26 0 0 0 10.44,-7.5 123.71,123.71 0 0 1 11,-7.9 3.2225611,3.2225611 0 1 1 3.36,5.5 117.91,117.91 0 0 0 -10.44,7.51 127.28,127.28 0 0 1 -11,7.9 3.24,3.24 0 0 1 -1.68,0.49 z"
         id="path28" />
      <path
         class="cls-4"
         d="m 98,238 c -0.47,0 -0.94,0 -1.4,0 -3.39,-0.21 -13.7,-0.83 -17.87,-9.52 a 3.2225844,3.2225844 0 0 1 5.81,-2.79 c 1.73,3.59 5.69,5.46 12.45,5.87 A 21.49,21.49 0 0 0 112,226 a 27.32,27.32 0 0 0 8.88,-25.16 3.2235268,3.2235268 0 1 1 6.34,-1.17 33.84,33.84 0 0 1 -11,31.22 A 28.34,28.34 0 0 1 98,238 Z"
         id="path30" />
      <path
         class="cls-4"
         d="m 124.25,203 a 3.22,3.22 0 0 1 -2,-5.74 249.22,249.22 0 0 1 23.84,-17 c 5.08,-3.19 10.42,-6.28 15.12,-9 7.72,-4.47 16,-8.63 24.09,-12.66 8.09,-4.03 16.2,-8.09 23.74,-12.46 a 3.2237129,3.2237129 0 1 1 3.23,5.58 c -7.71,4.47 -16,8.63 -24.09,12.65 -8.09,4.02 -16.19,8.1 -23.73,12.47 -4.67,2.7 -10,5.76 -14.93,8.88 a 244.87,244.87 0 0 0 -23.23,16.54 3.21,3.21 0 0 1 -2.04,0.74 z"
         id="path32" />
    </g>
    <g
       id="Group-14"
       transform="matrix(0.10416667,0,0,0.10869565,-0.01485189,21.925672)"
       style="fill:none;fill-rule:evenodd;stroke:none;stroke-width:1;opacity:0.7">
      <path
         d="m 73.142578,13.683817 16,-12.99999998 14.000002,6.49999998 4,17.5 h 20 l 4,6 -4,22 17,13 -1,10 -17,11 7,22.000003 -7,8 h -19 l -5.94336,20.14821 c -6.000001,1.23452 -9.333335,1.85179 -10.000001,1.85179 -0.666667,0 -7.01888,-3.33334 -19.056641,-10 l -15,10 -13,-4 c -3.924479,-10.46905 -6.238932,-16.08631 -6.943359,-16.85179 -0.704427,-0.76548 -7.704427,-1.14821 -21,-1.14821 l -5.056641,-8 6,-23.851789 -16.99999988,-10.148214 1.99999998,-11 15.9999999,-10 -7,-21 8,-9 20,2 7,-22 12,-2 z"
         id="Path-2"
         fill="#20b7eb" />
      <g
         id="Group"
         transform="translate(42.142578,44.383817)"
         fill-rule="nonzero"
         fill="#ffffff">
        <path
           d="m 19.510622,44.654212 c 3.358671,-4.897174 6.516666,-9.490648 9.822528,-14.160046 1.436412,-2.030998 4.108562,-4.745324 5.597784,-6.60549 2.619341,-3.264783 15.931637,-20.4437302 18.635472,-23.25296178 0,0 12.703093,7.12113438 12,7.99999998 -4,4.9999998 -22.821435,32.8113658 -27,37.9999998 -1.132466,1.406213 -2.465799,2.406213 -4,3 l 6,2"
           id="Shape" />
        <path
           d="m 23.460436,20.18413 c 0.851394,0.53201 4.029337,14.309593 4.983723,18.443495 1.090205,4.722195 2.347831,8.898767 3.817546,16.535609 0,0 -1.760148,0.929746 -9.327642,3.604869 -1.115686,0.394397 -4.133902,0.954386 -4.133902,0.954386 0,0 -2.426885,-7.353331 -2.756822,-8.797723 C 14.738592,45.300854 10.119721,28.410135 8.8327148,22.835499 8.5145859,21.457532 22.612388,19.654211 23.460436,20.18413 Z"
           id="path135"
           transform="rotate(-32,20.544559,39.905921)" />
      </g>
    </g>
  </g>
</svg>
