<?xml version="1.0" encoding="UTF-8" standalone="no"?>
<svg
   viewBox="0 0 37.000001 37"
   version="1.1"
   id="svg20"
   sodipodi:docname="map-member-verified.svg"
   width="37"
   height="37"
   inkscape:version="1.1.2 (1:1.1+202202050942+0a00cf5339)"
   xmlns:inkscape="http://www.inkscape.org/namespaces/inkscape"
   xmlns:sodipodi="http://sodipodi.sourceforge.net/DTD/sodipodi-0.dtd"
   xmlns="http://www.w3.org/2000/svg"
   xmlns:svg="http://www.w3.org/2000/svg"
   xmlns:rdf="http://www.w3.org/1999/02/22-rdf-syntax-ns#"
   xmlns:cc="http://creativecommons.org/ns#"
   xmlns:dc="http://purl.org/dc/elements/1.1/">
  <sodipodi:namedview
     id="namedview22"
     pagecolor="#ffffff"
     bordercolor="#666666"
     borderopacity="1.0"
     inkscape:pageshadow="2"
     inkscape:pageopacity="0.0"
     inkscape:pagecheckerboard="0"
     showgrid="false"
     fit-margin-top="0"
     fit-margin-left="0"
     fit-margin-right="0"
     fit-margin-bottom="0"
     inkscape:zoom="2.3792492"
     inkscape:cx="151.51839"
     inkscape:cy="160.765"
     inkscape:window-width="1852"
     inkscape:window-height="1009"
     inkscape:window-x="0"
     inkscape:window-y="0"
     inkscape:window-maximized="1"
     inkscape:current-layer="svg20" />
  <defs
     id="defs4">
    <style
       id="style2">.cls-1{fill:#fff;}.cls-2,.cls-4{fill:#f090b3;}.cls-2{opacity:0.5;}.cls-3{fill:#141414;}</style>
  </defs>
  <title
     id="title6">map icon member</title>
  <metadata
     id="metadata24">
    <rdf:RDF>
      <cc:Work
         rdf:about="">
        <dc:title>map icon member</dc:title>
      </cc:Work>
    </rdf:RDF>
  </metadata>
  <g
     id="g169">
    <g
       id="Calque_2"
       data-name="Calque 2"
       transform="matrix(0.11477577,0,0,0.1148401,8.8424878e-4,0.00311186)">
      <path
         class="cls-1"
         d="m 292.9,148.82 a 63.43,63.43 0 0 0 -0.62,-6.61 118.32,118.32 0 0 0 -5.1,-19.22 c -1.87,-5.43 -3.57,-10.32 -5.41,-15.19 -0.46,-1.21 -0.89,-2.46 -1.31,-3.67 a 41.78,41.78 0 0 0 -4.31,-9.77 c -1.81,-2.69 -3.51,-5.5 -5.16,-8.22 a 108.1,108.1 0 0 0 -9.47,-14 42.3,42.3 0 0 0 -9.61,-8.89 A 31.81,31.81 0 0 1 244.55,57 49.45,49.45 0 0 0 228.28,44.41 172.84,172.84 0 0 0 205.8,35.03 c -0.92,-0.29 -1.85,-0.6 -2.74,-0.9 a 44.31,44.31 0 0 0 -7.48,-2.07 c -3.45,-0.55 -7.51,-1.23 -11.49,-2.14 a 72.67,72.67 0 0 0 -13.54,-1.74 c -0.64,0 -1.28,0 -1.92,0 -2.63,0 -5.28,0.19 -7.86,0.37 -1.8,0.13 -3.67,0.26 -5.51,0.33 a 42,42 0 0 0 -8.09,0.84 c -4.53,1.05 -9.16,1.88 -13.64,2.68 l -1.19,0.21 -3,0.49 a 61.8,61.8 0 0 0 -6.72,1.31 c -2.28,0.63 -4.54,1.49 -6.73,2.32 -1.45,0.54 -2.94,1.11 -4.44,1.61 A 112.35,112.35 0 0 0 92.33,47.08 136.45,136.45 0 0 0 69.06,63.4 49.81,49.81 0 0 0 60.77,73 c -1.66,2.42 -3.25,5 -4.79,7.44 -1.29,2.07 -2.62,4.21 -4,6.27 A 139.33,139.33 0 0 0 39.64,109.9 l -0.74,1.78 c -1.81,4.29 -3.68,8.73 -5.23,13.18 -2.17,6.26 -3.13,12.66 -4.09,19.77 -0.4,3 -0.51,6 -0.62,9 -0.09,2.23 -0.17,4.54 -0.38,6.82 a 69.41,69.41 0 0 0 0.75,16.82 l 0.42,2.89 a 81.83,81.83 0 0 0 1.83,9.91 155,155 0 0 0 9.52,25.93 240.15,240.15 0 0 0 15.17,26.25 132.07,132.07 0 0 0 10.53,14.24 43.71,43.71 0 0 0 11.69,9.62 c 2,1.16 4,2.38 5.93,3.56 2.11,1.29 4.28,2.63 6.46,3.87 1.85,1.06 3.69,2.19 5.47,3.28 4.66,2.85 9.48,5.8 14.74,7.67 1.89,0.67 3.75,1.46 5.56,2.23 a 54.4,54.4 0 0 0 10.1,3.51 c 1.45,0.3 2.94,0.53 4.39,0.75 l 2.66,0.43 a 42.72,42.72 0 0 0 4.35,0.43 45.82,45.82 0 0 1 4.58,0.46 84.47,84.47 0 0 0 11.44,0.87 c 2.28,0.07 4.64,0.15 7,0.33 a 70.4,70.4 0 0 0 18,-1.15 c 1.88,-0.33 3.79,-0.55 5.64,-0.75 a 58.36,58.36 0 0 0 8.4,-1.37 c 1.76,-0.47 3.53,-1.06 5.25,-1.63 1.26,-0.42 2.57,-0.85 3.87,-1.24 a 94.93,94.93 0 0 0 17.44,-7.05 c 3.45,-1.84 6.87,-3.9 10.18,-5.88 3.9,-2.34 7.93,-4.76 12.07,-6.87 a 19.86,19.86 0 0 0 5.35,-3.68 c 4.81,-5 10.45,-11 15.79,-17.43 4.06,-4.88 8.29,-10.14 11.43,-16.12 0.88,-1.68 1.71,-3.45 2.5,-5.16 a 84.16,84.16 0 0 1 3.85,-7.57 c 4.47,-7.48 9.7,-24 9.82,-24.42 a 49.32,49.32 0 0 0 2.07,-11 c 0.14,-1.53 0.32,-3.08 0.5,-4.57 a 67.9,67.9 0 0 0 0.69,-9.25 c -0.08,-5.55 -0.35,-10.65 -0.81,-15.59 -0.16,-1.33 -0.21,-2.66 -0.31,-3.95 z"
         id="path8" />
      <path
         class="cls-2"
         d="m 292.9,148.82 a 63.43,63.43 0 0 0 -0.62,-6.61 118.32,118.32 0 0 0 -5.1,-19.22 c -1.87,-5.43 -3.57,-10.32 -5.41,-15.19 -0.46,-1.21 -0.89,-2.46 -1.31,-3.67 a 41.78,41.78 0 0 0 -4.31,-9.77 c -1.81,-2.69 -3.51,-5.5 -5.16,-8.22 a 108.1,108.1 0 0 0 -9.47,-14 42.3,42.3 0 0 0 -9.61,-8.89 A 31.81,31.81 0 0 1 244.55,57 49.45,49.45 0 0 0 228.28,44.41 172.84,172.84 0 0 0 205.8,35.03 c -0.92,-0.29 -1.85,-0.6 -2.74,-0.9 a 44.31,44.31 0 0 0 -7.48,-2.07 c -3.45,-0.55 -7.51,-1.23 -11.49,-2.14 a 72.67,72.67 0 0 0 -13.54,-1.74 c -0.64,0 -1.28,0 -1.92,0 -2.63,0 -5.28,0.19 -7.86,0.37 -1.8,0.13 -3.67,0.26 -5.51,0.33 a 42,42 0 0 0 -8.09,0.84 c -4.53,1.05 -9.16,1.88 -13.64,2.68 l -1.19,0.21 -3,0.49 a 61.8,61.8 0 0 0 -6.72,1.31 c -2.28,0.63 -4.54,1.49 -6.73,2.32 -1.45,0.54 -2.94,1.11 -4.44,1.61 A 112.35,112.35 0 0 0 92.33,47.08 136.45,136.45 0 0 0 69.06,63.4 49.81,49.81 0 0 0 60.77,73 c -1.66,2.42 -3.25,5 -4.79,7.44 -1.29,2.07 -2.62,4.21 -4,6.27 A 139.33,139.33 0 0 0 39.64,109.9 l -0.74,1.78 c -1.81,4.29 -3.68,8.73 -5.23,13.18 -2.17,6.26 -3.13,12.66 -4.09,19.77 -0.4,3 -0.51,6 -0.62,9 -0.09,2.23 -0.17,4.54 -0.38,6.82 a 69.41,69.41 0 0 0 0.75,16.82 l 0.42,2.89 a 81.83,81.83 0 0 0 1.83,9.91 155,155 0 0 0 9.52,25.93 240.15,240.15 0 0 0 15.17,26.25 132.07,132.07 0 0 0 10.53,14.24 43.71,43.71 0 0 0 11.69,9.62 c 2,1.16 4,2.38 5.93,3.56 2.11,1.29 4.28,2.63 6.46,3.87 1.85,1.06 3.69,2.19 5.47,3.28 4.66,2.85 9.48,5.8 14.74,7.67 1.89,0.67 3.75,1.46 5.56,2.23 a 54.4,54.4 0 0 0 10.1,3.51 c 1.45,0.3 2.94,0.53 4.39,0.75 l 2.66,0.43 a 42.72,42.72 0 0 0 4.35,0.43 45.82,45.82 0 0 1 4.58,0.46 84.47,84.47 0 0 0 11.44,0.87 c 2.28,0.07 4.64,0.15 7,0.33 a 70.4,70.4 0 0 0 18,-1.15 c 1.88,-0.33 3.79,-0.55 5.64,-0.75 a 58.36,58.36 0 0 0 8.4,-1.37 c 1.76,-0.47 3.53,-1.06 5.25,-1.63 1.26,-0.42 2.57,-0.85 3.87,-1.24 a 94.93,94.93 0 0 0 17.44,-7.05 c 3.45,-1.84 6.87,-3.9 10.18,-5.88 3.9,-2.34 7.93,-4.76 12.07,-6.87 a 19.86,19.86 0 0 0 5.35,-3.68 c 4.81,-5 10.45,-11 15.79,-17.43 4.06,-4.88 8.29,-10.14 11.43,-16.12 0.88,-1.68 1.71,-3.45 2.5,-5.16 a 84.16,84.16 0 0 1 3.85,-7.57 c 4.47,-7.48 9.7,-24 9.82,-24.42 a 49.32,49.32 0 0 0 2.07,-11 c 0.14,-1.53 0.32,-3.08 0.5,-4.57 a 67.9,67.9 0 0 0 0.69,-9.25 c -0.08,-5.55 -0.35,-10.65 -0.81,-15.59 -0.16,-1.33 -0.21,-2.66 -0.31,-3.95 z"
         id="path10" />
    </g>
    <g
       id="Calque_1"
       data-name="Calque 1"
       transform="matrix(0.11477577,0,0,0.1148401,8.8424878e-4,0.00311186)">
      <path
         class="cls-1"
         d="m 173.7,136.84 c 0.25,-17.49 -0.5,-35 -6,-51.62 a 9.61,9.61 0 0 0 -0.45,-1.14 c -1.22,-2.58 -7,-1.88 -7.34,1 -1.92,15.84 2.38,32.24 -0.42,48 -2.54,-2.83 -5.34,-39.83 -10.94,-53.19 -0.89,-2.1 -2.22,-4.49 -4.85,-4.07 a 4.34,4.34 0 0 0 -3.52,3.54 c -1.36,7.56 -0.88,15.25 -0.4,22.88 l 2.09,32.88 c -1.09,1 -2.7,-0.58 -3.29,-2 -6,-13.83 -10,-23.19 -11.89,-38.12 -0.31,-2.38 -1,-5.31 -3.44,-5.76 A 3.22,3.22 0 0 0 120,90 c -1.53,1.82 -1.51,4.64 -1.43,6.86 0.58,16.83 3,28.29 7.19,44.59 a 20.73,20.73 0 0 1 0.27,10.91 C 115.38,147.24 108,137.34 103,126.58 c -1.2,-2.59 -3.77,-5.85 -6.15,-4.26 -1.38,0.92 -1.42,2.91 -1.24,4.56 a 63.05,63.05 0 0 0 7.22,22.28 c 3.35,6.08 7.76,11.5 12.15,16.88 5.17,6.35 8.41,12.69 13.59,19 2.87,3.52 5.8,7.15 7.14,11.48 a 35.7,35.7 0 0 1 1.15,6.17 c 5.82,46.3 3.11,45.91 8.93,92.21 l 1.39,1.68 18,1.17 8.47,-0.09 10.48,-1.65 6.28,-0.76 5.23,-1.14 5.12,-1.47 -0.85,-2.09 c -11.15,-38 -14.77,-40.66 -19.53,-92.49 l -0.1,-4.34 a 15.39,15.39 0 0 1 4,-8.49 c 7.69,-8.13 16.53,-17.39 18,-30.66 0.7,-6.3 1.4,-12.74 4.3,-18.38 0.77,-1.49 3.44,-8.69 3.94,-10.29 0.92,-3 -1.94,-5.91 -5,-5.86 -3.46,0.07 -3.46,0.07 -6.69,2.09 -3.43,2.13 -6.47,6.44 -8.33,10.37 l -6.29,13.5 c -0.7,1.49 -2.09,1.82 -3.71,2 a 4.78,4.78 0 0 1 -5.31,-3.49 c -0.54,-1.97 -1.49,-3.35 -1.49,-7.67 z"
         id="path13" />
      <path
         class="cls-3"
         d="m 176.83,136.84 c 0.23,-16.67 -0.44,-33.63 -5.22,-49.71 -1,-3.31 -1.9,-6.62 -5.63,-7.55 a 8.26,8.26 0 0 0 -7.52,1.85 6.42,6.42 0 0 0 -1.73,4.3 c -0.24,2.1 -0.36,4.21 -0.41,6.32 -0.1,4 0.08,8 0.31,12 0.53,9.35 1.46,18.85 -0.13,28.15 l 5.24,-1.39 c 0.07,0.09 0.54,0.77 0.28,0.34 -0.26,-0.43 0,0.11 0.11,0.3 -0.12,-0.34 -0.25,-0.67 -0.35,-1 -0.27,-0.93 -0.48,-1.89 -0.67,-2.84 -0.59,-2.89 -1,-5.81 -1.49,-8.72 -1.15,-7.51 -2.2,-15 -3.58,-22.52 -0.65,-3.55 -1.36,-7.09 -2.27,-10.58 a 35.93,35.93 0 0 0 -3.31,-9.19 c -2.58,-4.38 -8.31,-5.43 -11.71,-1.27 -1.83,2.23 -1.95,5.28 -2.23,8 a 76.64,76.64 0 0 0 -0.31,9.22 c 0.29,14.16 1.66,28.36 2.56,42.5 l 1.55,-2.71 1.6,0.12 a 0.73,0.73 0 0 1 -0.27,-0.33 6.8,6.8 0 0 0 -0.62,-1.27 c -0.41,-0.94 -0.81,-1.89 -1.21,-2.83 q -1.23,-2.86 -2.4,-5.76 c -1.46,-3.58 -2.82,-7.21 -4,-10.91 a 100.23,100.23 0 0 1 -2.78,-11.24 c -0.64,-3.48 -0.57,-7.59 -2.38,-10.74 -1.81,-3.15 -6.66,-4.63 -9.78,-2.21 -3.32,2.57 -3.13,7.36 -3,11.12 a 172.31,172.31 0 0 0 2.84,24.71 c 0.88,4.66 1.94,9.27 3.07,13.87 1.23,4.95 2.83,9.62 1.66,14.74 l 4.6,-1.87 a 41.42,41.42 0 0 1 -14,-11.46 57.36,57.36 0 0 1 -5,-7.44 c -1.52,-2.64 -2.58,-5.66 -4.38,-8.12 -1.8,-2.46 -4.49,-4.59 -7.68,-3.68 -3.19,0.91 -4.43,4.32 -4.22,7.37 0.48,6.91 2.74,13.79 5.56,20.06 3,6.6 7.22,12.42 11.71,18 2.27,2.84 4.58,5.63 6.65,8.62 2.07,2.99 4,6 6,8.94 4,5.67 9.51,10.67 10.89,17.72 1.29,6.64 1.75,13.54 2.47,20.26 1.93,18 2.68,36.07 4.51,54.07 0.66,6.46 1.41,12.92 2.21,19.37 a 7.06,7.06 0 0 0 1.47,4.13 4.92,4.92 0 0 0 2.4,2 14,14 0 0 0 2.74,0.24 c 5.52,0.36 11.11,1 16.65,1 a 60.78,60.78 0 0 0 8.85,-0.2 c 3.07,-0.45 6.13,-1 9.2,-1.45 0.24,0 0.95,-0.28 1.19,-0.18 0,0 -1.17,0.14 -0.54,0.07 l 1.11,-0.13 4.8,-0.59 a 48.65,48.65 0 0 0 7.26,-1.57 l 4.05,-1.16 c 1.48,-0.43 2.83,-2.26 2.18,-3.85 -2.63,-6.47 -4.26,-13.46 -6.34,-20.14 -1.75,-5.64 -3.54,-11.28 -5.11,-17 a 256.21,256.21 0 0 1 -7.09,-39.48 q -0.87,-7.83 -1.59,-15.68 c -0.13,-1.34 -0.16,-2.66 -0.19,-4 a 9,9 0 0 1 0.56,-4 c 1.3,-3.87 4.94,-6.65 7.58,-9.62 a 71.84,71.84 0 0 0 8.21,-10.9 40.41,40.41 0 0 0 5.24,-13.06 c 1,-5.28 1.09,-10.63 2.66,-15.81 1.07,-3.53 2.85,-6.87 4.15,-10.32 1.3,-3.45 3.08,-6.92 1.19,-10.39 -2.48,-4.56 -8.64,-5.5 -13.07,-3.43 -4.95,2.32 -8.68,6.68 -11.25,11.41 -1.46,2.7 -2.68,5.56 -4,8.35 l -2.21,4.7 c -0.48,1 -0.6,2.18 -1.75,2.45 -1.8,0.43 -2.3,-0.56 -2.8,-2.09 a 19.17,19.17 0 0 1 -1.08,-5.91 c -0.05,-4 -6.31,-4 -6.26,0 0.05,3.7 0.79,8.78 3.32,11.7 3,3.44 9.27,3.67 12.27,0.12 1.66,-2 2.52,-4.85 3.6,-7.14 1.33,-2.83 2.59,-5.71 4,-8.48 2,-3.78 5.07,-7.94 8.87,-9.52 a 5.57,5.57 0 0 1 3.89,-0.08 c 1.5,0.77 0.94,1.89 0.5,3.14 -0.52,1.46 -1.06,2.9 -1.61,4.35 -0.55,1.45 -1,2.67 -1.51,3.72 a 51.82,51.82 0 0 0 -4.26,15.9 c -0.61,4.81 -1.22,9.4 -3.32,13.83 A 52.24,52.24 0 0 1 189,175.44 c -2.8,3.33 -6.24,6.27 -8.73,9.84 -4.79,6.86 -2.78,15.5 -2,23.21 1.51,14.74 3.31,29.52 7,43.91 1.59,6.27 3.51,12.46 5.44,18.64 q 1.77,5.67 3.51,11.35 c 1.13,3.72 2.09,7.52 3.55,11.12 l 2.19,-3.85 c -1.69,0.49 -3.38,1 -5.09,1.46 -0.7,0.18 -1.41,0.31 -2.12,0.47 a 12.13,12.13 0 0 0 -3,0.65 c -0.13,0.08 1.19,-0.14 0.28,0 l -1.6,0.19 -3.59,0.44 c -1.52,0.19 -3,0.43 -4.55,0.67 -2.28,0.36 -4.56,0.7 -6.84,1.08 -1.37,0.22 1,0 -0.35,0 -1.08,0 -2.18,0 -3.26,0 -3.19,0 -6.27,-0.06 -9.46,-0.27 l -13.2,-0.86 2.21,0.92 -1.39,-1.68 0.92,2.21 c -1.68,-13.4 -3.11,-26.81 -4.06,-40.28 -0.76,-10.64 -1.46,-21.27 -2.56,-31.88 -0.39,-3.87 -0.83,-7.74 -1.28,-11.61 -0.53,-4.45 -0.85,-9 -1.77,-13.42 -1.78,-8.51 -8.74,-14.77 -13.43,-21.75 -2.5,-3.73 -4.94,-7.49 -7.71,-11 -2.77,-3.51 -5.71,-7 -8.32,-10.66 a 62.73,62.73 0 0 1 -10.33,-23.21 28.31,28.31 0 0 1 -0.8,-5.86 v -0.09 c 0.18,-0.52 0.19,-0.63 0,-0.32 a 0.41,0.41 0 0 0 -0.5,0.3 c 0,0.17 1.15,1.29 1.35,1.61 2.21,3.57 3.76,7.48 6.1,11 4.79,7.21 11,13.5 18.85,17.36 a 3.17,3.17 0 0 0 4.6,-1.87 c 1.22,-5.37 0.34,-10.12 -1,-15.37 -1.14,-4.48 -2.22,-9 -3.15,-13.51 a 163.4,163.4 0 0 1 -3.2,-26.73 14.09,14.09 0 0 1 0.52,-5.34 c 0.21,-0.62 -0.32,0 0,0 0.32,0 0.85,0.45 0.34,0 a 3.43,3.43 0 0 1 0.78,1.78 c 1,4.18 1.3,8.54 2.3,12.75 2,8.36 5.25,16.3 8.61,24.18 0.85,2 1.53,4.23 3.05,5.83 1.52,1.6 4.09,2.41 6.15,1 2.31,-1.54 1.41,-4.84 1.26,-7.19 l -0.52,-8.22 c -0.66,-10.39 -1.7,-20.85 -1.77,-31.27 a 74.1,74.1 0 0 1 0.33,-7.74 c 0.08,-0.77 0,-4.45 1.38,-4.48 1.38,-0.03 2.36,4.37 2.71,5.49 a 138.15,138.15 0 0 1 3.84,17.56 c 1.2,7 2.17,14.09 3.29,21.13 0.4,2.49 0.8,5 1.36,7.46 a 10.87,10.87 0 0 0 2,4.72 c 1.44,1.73 4.85,0.86 5.23,-1.38 2.47,-14.52 -0.55,-29 0.1,-43.61 a 20.88,20.88 0 0 1 0.38,-4.75 c -0.09,0.32 -0.33,0.33 -0.08,0.3 l 0.72,-0.22 a 2.44,2.44 0 0 1 0.83,0 c 0.22,0 0.27,0.27 0.15,0 a 29,29 0 0 1 1.42,4.8 119.74,119.74 0 0 1 3.77,21.26 243.84,243.84 0 0 1 0.74,25.07 c -0.08,4.09 6.18,4.09 6.23,0.06 z"
         id="path15" />
      <path
         class="cls-4"
         d="m 321.37,151 c -0.15,-1.52 -0.24,-3.08 -0.32,-4.6 a 78.56,78.56 0 0 0 -0.77,-8.17 143.72,143.72 0 0 0 -6.2,-23.38 c -2.24,-6.5 -4.27,-12.36 -6.48,-18.2 -0.53,-1.4 -1,-2.87 -1.53,-4.3 -1.46,-4.22 -3,-8.59 -5.46,-12.29 -2.13,-3.15 -4.14,-6.48 -6.08,-9.7 -3.48,-5.75 -7.07,-11.71 -11.55,-17 -4.34,-5.16 -8,-8.49 -12.08,-11.14 a 35.56,35.56 0 0 1 -8.18,-6.9 61.56,61.56 0 0 0 -20.31,-15.71 c -8.53,-4.1 -17.65,-8.34 -27.18,-11.34 -1.07,-0.33 -2.16,-0.7 -3.22,-1.06 A 56.74,56.74 0 0 0 202.65,4.63 C 198.58,3.99 193.79,3.19 189.12,2.12 A 88.87,88.87 0 0 0 172.47,0 a 107.74,107.74 0 0 0 -12,0.4 c -2.13,0.15 -4.33,0.3 -6.49,0.38 A 53.67,53.67 0 0 0 143.82,1.85 C 138.51,3.05 133,4 127.71,5 l -1.42,0.25 c -1.15,0.21 -2.33,0.39 -3.48,0.58 a 75.67,75.67 0 0 0 -8.31,1.63 c -2.84,0.78 -5.6,1.83 -8.27,2.84 -1.7,0.64 -3.46,1.31 -5.2,1.89 A 137,137 0 0 0 77.76,22.79 166.15,166.15 0 0 0 49.49,42.6 62.25,62.25 0 0 0 39.14,54.6 c -2,3 -3.93,6 -5.78,9 -1.52,2.45 -3.1,5 -4.72,7.41 a 168.94,168.94 0 0 0 -15,28.12 l -0.89,2.12 c -2.18,5.16 -4.42,10.5 -6.3,15.9 -2.67,7.7 -3.84,15.48 -5,24.11 -0.49,3.7 -0.64,7.42 -0.77,11 -0.1,2.62 -0.2,5.34 -0.44,8 A 85.3,85.3 0 0 0 1.19,181 c 0.17,1.14 0.34,2.28 0.5,3.42 a 99.79,99.79 0 0 0 2.25,12.16 188.28,188.28 0 0 0 11.52,31.33 c 5.5,11.53 12.31,22.36 18.26,31.61 a 162.91,162.91 0 0 0 12.78,17.29 55.17,55.17 0 0 0 14.66,12.06 c 2.36,1.37 4.73,2.82 7,4.22 2.53,1.55 5.15,3.15 7.78,4.65 2.17,1.25 4.35,2.59 6.46,3.88 5.68,3.47 11.55,7.07 18.09,9.39 2.18,0.78 4.36,1.71 6.48,2.6 a 66.64,66.64 0 0 0 12.59,4.39 c 1.79,0.37 3.61,0.65 5.36,0.92 l 3.13,0.5 a 49.13,49.13 0 0 0 5.48,0.55 c 1.71,0.12 3.48,0.23 5.18,0.51 a 102.69,102.69 0 0 0 14,1.09 c 2.69,0.08 5.47,0.17 8.18,0.38 1.78,0.14 3.59,0.21 5.45,0.21 a 96.17,96.17 0 0 0 16.71,-1.62 c 2.16,-0.38 4.39,-0.63 6.55,-0.87 a 71.57,71.57 0 0 0 10.42,-1.7 c 2.18,-0.58 4.34,-1.3 6.43,-2 1.48,-0.49 3,-1 4.53,-1.45 a 116.23,116.23 0 0 0 21.31,-8.62 c 4.18,-2.23 8.29,-4.7 12.27,-7.09 4.61,-2.76 9.38,-5.63 14.24,-8.1 a 25.67,25.67 0 0 0 7.1,-4.93 c 5.77,-6 12.54,-13.2 19,-20.93 4.94,-5.94 10.09,-12.35 14,-19.72 1.08,-2.06 2.08,-4.2 3,-6.27 a 96.62,96.62 0 0 1 4.46,-8.79 c 5.51,-9.21 12,-29.68 12,-29.74 a 61.76,61.76 0 0 0 2.57,-13.68 c 0.15,-1.79 0.37,-3.61 0.58,-5.37 a 83.66,83.66 0 0 0 0.85,-11.4 C 322.25,163.14 321.92,157 321.37,151 Z m -27.62,26.74 c -0.18,1.5 -0.37,3 -0.51,4.58 a 48.48,48.48 0 0 1 -2.07,11 c -0.12,0.4 -5.37,17 -9.86,24.5 a 84.77,84.77 0 0 0 -3.86,7.6 c -0.8,1.72 -1.62,3.49 -2.51,5.18 -3.15,6 -7.39,11.28 -11.47,16.18 -5.36,6.44 -11,12.45 -15.84,17.49 a 19.84,19.84 0 0 1 -5.37,3.69 c -4.15,2.11 -8.2,4.54 -12.11,6.89 -3.32,2 -6.76,4 -10.22,5.9 a 94.19,94.19 0 0 1 -17.5,7.07 c -1.31,0.39 -2.61,0.83 -3.88,1.25 -1.73,0.57 -3.51,1.17 -5.27,1.64 a 58.76,58.76 0 0 1 -8.43,1.37 c -1.86,0.2 -3.77,0.42 -5.65,0.75 a 71,71 0 0 1 -18.07,1.16 c -2.33,-0.19 -4.7,-0.26 -7,-0.33 a 85.2,85.2 0 0 1 -11.48,-0.88 45.73,45.73 0 0 0 -4.59,-0.46 43.12,43.12 0 0 1 -4.37,-0.43 l -2.66,-0.43 c -1.46,-0.22 -3,-0.46 -4.4,-0.75 a 54.7,54.7 0 0 1 -10.15,-3.53 c -1.81,-0.77 -3.68,-1.56 -5.57,-2.23 -5.28,-1.88 -10.12,-4.84 -14.79,-7.7 -1.79,-1.1 -3.64,-2.23 -5.49,-3.29 -2.19,-1.25 -4.37,-2.59 -6.49,-3.88 -1.93,-1.19 -3.94,-2.42 -6,-3.58 A 44,44 0 0 1 66.41,256.85 134.37,134.37 0 0 1 55.9,242.59 243.44,243.44 0 0 1 40.68,216.25 a 156.66,156.66 0 0 1 -9.54,-26 82.7,82.7 0 0 1 -1.84,-9.94 q -0.19,-1.46 -0.42,-2.91 a 69.79,69.79 0 0 1 -0.75,-16.87 c 0.21,-2.29 0.3,-4.6 0.38,-6.84 0.11,-3 0.23,-6 0.63,-9 0.95,-7.13 1.92,-13.55 4.1,-19.83 1.55,-4.47 3.43,-8.93 5.24,-13.23 l 0.75,-1.78 A 139.1,139.1 0 0 1 51.61,86.57 c 1.38,-2.08 2.72,-4.22 4,-6.29 1.54,-2.48 3.13,-5 4.8,-7.48 A 50.39,50.39 0 0 1 68.73,63.16 137.46,137.46 0 0 1 92.13,46.77 112.53,112.53 0 0 1 111.31,38 c 1.51,-0.51 3,-1.07 4.46,-1.62 2.2,-0.83 4.47,-1.7 6.76,-2.32 a 59.91,59.91 0 0 1 6.74,-1.33 c 1,-0.15 2,-0.31 3,-0.49 l 1.19,-0.21 c 4.5,-0.8 9.14,-1.63 13.69,-2.69 a 43.09,43.09 0 0 1 8.11,-0.84 c 1.86,-0.07 3.73,-0.2 5.54,-0.33 2.59,-0.18 5.25,-0.36 7.89,-0.36 q 1,0 1.92,0 a 72.36,72.36 0 0 1 13.59,1.75 c 4,0.91 8.07,1.59 11.53,2.14 a 45.25,45.25 0 0 1 7.5,2.08 c 0.9,0.3 1.83,0.61 2.75,0.9 a 172.13,172.13 0 0 1 22.56,9.42 49.56,49.56 0 0 1 16.33,12.63 32.27,32.27 0 0 0 7.35,6.27 42.08,42.08 0 0 1 9.65,8.91 108.85,108.85 0 0 1 9.5,14 c 1.65,2.73 3.36,5.55 5.18,8.25 a 42.11,42.11 0 0 1 4.32,9.81 c 0.42,1.21 0.85,2.46 1.32,3.68 1.85,4.88 3.55,9.79 5.42,15.24 a 118.35,118.35 0 0 1 5.12,19.28 58.94,58.94 0 0 1 0.62,6.64 c 0.08,1.29 0.15,2.63 0.28,3.95 0.46,5 0.73,10.08 0.81,15.65 a 68.33,68.33 0 0 1 -0.69,9.34 z"
         id="path17" />
    </g>
    <g
       id="Group-14"
       transform="matrix(0.10416667,0,0,0.10869565,-0.01485189,21.925672)"
       style="opacity:0.7;fill:none;fill-rule:evenodd;stroke:none;stroke-width:1">
      <path
         d="m 73.142578,13.683817 16,-12.99999998 14.000002,6.49999998 4,17.5 h 20 l 4,6 -4,22 17,13 -1,10 -17,11 7,22.000003 -7,8 h -19 l -5.94336,20.14821 c -6.000001,1.23452 -9.333335,1.85179 -10.000001,1.85179 -0.666667,0 -7.01888,-3.33334 -19.056641,-10 l -15,10 -13,-4 c -3.924479,-10.46905 -6.238932,-16.08631 -6.943359,-16.85179 -0.704427,-0.76548 -7.704427,-1.14821 -21,-1.14821 l -5.056641,-8 6,-23.851789 -16.99999988,-10.148214 1.99999998,-11 15.9999999,-10 -7,-21 8,-9 20,2 7,-22 12,-2 z"
         id="Path-2"
         fill="#20b7eb" />
      <g
         id="Group"
         transform="translate(42.142578,44.383817)"
         fill-rule="nonzero"
         fill="#ffffff">
        <path
           d="m 19.510622,44.654212 c 3.358671,-4.897174 6.516666,-9.490648 9.822528,-14.160046 1.436412,-2.030998 4.108562,-4.745324 5.597784,-6.60549 2.619341,-3.264783 15.931637,-20.4437302 18.635472,-23.25296178 0,0 12.703093,7.12113438 12,7.99999998 -4,4.9999998 -22.821435,32.8113658 -27,37.9999998 -1.132466,1.406213 -2.465799,2.406213 -4,3 l 6,2"
           id="Shape" />
        <path
           d="m 23.460436,20.18413 c 0.851394,0.53201 4.029337,14.309593 4.983723,18.443495 1.090205,4.722195 2.347831,8.898767 3.817546,16.535609 0,0 -1.760148,0.929746 -9.327642,3.604869 -1.115686,0.394397 -4.133902,0.954386 -4.133902,0.954386 0,0 -2.426885,-7.353331 -2.756822,-8.797723 C 14.738592,45.300854 10.119721,28.410135 8.8327148,22.835499 8.5145859,21.457532 22.612388,19.654211 23.460436,20.18413 Z"
           id="path120"
           transform="rotate(-32,20.544559,39.905921)" />
      </g>
    </g>
  </g>
</svg>
