<svg width="33" height="32" viewBox="0 0 33 32" fill="none" xmlns="http://www.w3.org/2000/svg">
<g clip-path="url(#clip0_1081_395)">
<path d="M4 10.5L1.5 30.5H20L32 28L27 9.5H18L17 8.5L18 5.5V3L15 1.5H11.5L10.5 5L13.5 8.5V10L4 10.5Z" fill="#95D2EF" stroke="black"/>
<path d="M32.9786 28.0038C31.83 21.3659 30.1181 14.9163 27.4947 8.72248C27.2724 8.2032 26.85 8.06773 26.4424 8.16557C23.6633 8.15052 20.914 8.2333 18.172 8.37629C19.3429 7.48071 20.0321 6.11101 19.7282 4.34243C19.2317 1.42991 16.3564 -0.240828 13.5922 0.158043C10.8946 0.541862 9.01232 2.94261 9.7534 5.71213C10.1239 7.0969 10.8502 8.15052 11.8284 8.80527C9.26429 9.01599 6.69276 9.26435 4.09901 9.52775C4.06195 9.52775 4.03231 9.5428 4.00267 9.55033C3.55802 9.5428 3.14302 9.77611 3.02445 10.3556C1.7498 16.9257 0.593728 23.5108 0.000868837 30.1938C-0.0510063 30.8109 0.326941 31.1646 0.786407 31.2549C0.890157 31.2926 0.993907 31.3151 1.11248 31.3227C11.6876 31.9473 21.9515 32.873 32.2005 29.396C32.6303 29.2531 32.8601 28.9294 32.9416 28.5833C32.9935 28.4102 33.0157 28.222 32.9786 28.0113V28.0038ZM14.474 2.34055C15.9191 2.3556 17.4754 3.34149 17.5865 4.92944C17.7051 6.60771 16.1785 7.11195 14.8446 7.32267C13.4217 7.54845 12.4583 6.72813 11.9914 5.38852C11.3615 3.58984 12.7177 2.32549 14.474 2.34055ZM2.33525 29.1326C2.90588 23.27 3.91374 17.4675 5.02535 11.6802C11.9766 10.9802 18.8167 10.4233 25.805 10.4158C28.0727 15.9172 29.5697 21.6595 30.6368 27.5146C21.2697 30.4346 11.9544 29.7197 2.33525 29.1326Z" fill="#1D1D1B"/>
<path d="M15.6735 21.8551C14.6063 21.4186 13.5244 21.1176 12.4053 20.9144C12.9167 19.7404 13.4058 18.5513 13.8727 17.3547C14.3988 16 12.2497 15.4205 11.731 16.7526C11.3085 17.8288 10.8713 18.8975 10.4118 19.9511C10.1821 18.9577 9.95979 17.9643 9.73006 16.9709C9.40399 15.556 7.26228 16.1581 7.58836 17.5729C8.24791 20.4553 8.90747 23.3453 9.55961 26.2277C9.88568 27.6425 12.0274 27.0405 11.7013 25.6256C11.5457 24.9332 11.3827 24.2333 11.227 23.5409C11.3085 23.3678 11.3827 23.1947 11.4568 23.0217C12.7018 23.1872 13.9171 23.5409 15.0806 24.0226C15.6438 24.2559 16.296 23.7742 16.4516 23.2324C16.6369 22.5927 16.2293 22.0734 15.6735 21.8401V21.8551Z" fill="#1D1D1B"/>
<path d="M23.6256 18.333C23.4996 17.8062 23.0327 17.5654 22.551 17.5052C21.8248 17.4073 21.0541 17.6406 20.4316 18.0094C19.194 18.7394 20.313 20.6886 21.5506 19.9586C21.6247 19.9135 21.6988 19.8834 21.7729 19.8532C21.9878 20.5005 22.2102 21.2681 22.0842 21.4939C21.6543 22.2615 20.061 21.5541 19.6238 21.1929C18.4751 20.2521 17.8971 16.3913 20.0685 16.1881C21.4839 16.0527 21.4913 13.7949 20.0685 13.9304C15.8814 14.3293 15.3182 20.4854 18.1491 22.9012C19.4608 24.0226 21.4913 24.4365 23.0476 23.6011C25.1374 22.4723 24.048 20.1468 23.6182 18.3405L23.6256 18.333Z" fill="#1D1D1B"/>
</g>
<defs>
<clipPath id="clip0_1081_395">
<rect width="33" height="32" fill="white"/>
</clipPath>
</defs>
</svg>
