<svg width="31" height="34" viewBox="0 0 31 34" fill="none" xmlns="http://www.w3.org/2000/svg">
<g clip-path="url(#clip0_1085_442)">
<path d="M14 32.5H5L1.5 28L2.5 19L9.5 9.5L7.5 2L11.5 3.5L16 2H21.5L20 7.5L24 11.5L28 19L29.5 24.5L27 30.5L14 32.5Z" fill="#F6B67B"/>
<path d="M30.8073 24.5615C30.2957 18.1768 26.6666 11.2058 21.3747 7.47594C22.1181 6.27067 22.1101 4.55235 22.4778 3.27379C22.7576 2.2884 23.1573 1.42516 22.3419 0.586362C21.6384 -0.146572 20.911 0.0570205 20.0397 0.309476C19.0005 0.610793 18.7447 1.06684 17.6176 0.822529C17.1619 0.724805 16.7862 0.244326 16.2506 0.146601C14.5639 -0.146572 14.3161 1.16457 13.0851 1.85678C11.2945 2.8666 8.88832 0.586362 6.88986 0.741092C6.09848 0.798098 5.53891 1.47403 5.73076 2.2884C6.29832 4.69079 6.80193 7.11762 7.98502 9.25127C2.48527 12.6228 0.0551553 20.0417 0.270988 26.3286C0.566759 35.0017 9.15211 34.0733 15.4752 33.544C19.3522 33.2182 24.836 33.2101 28.2973 31.337C30.7594 30.0015 31.0072 27.1512 30.7994 24.5615H30.8073ZM13.5727 4.62564C14.7078 4.07187 14.9077 2.8096 16.3386 2.98876C17.058 3.07834 17.4497 3.62397 18.313 3.55882C18.9206 3.5181 19.4641 3.2575 19.9997 2.9969C19.7599 3.41223 19.7759 3.909 19.64 4.34876C19.0005 6.50684 18.281 6.74301 16.2346 7.53295C14.2362 8.3066 12.5175 8.87666 10.3512 8.5672C9.32798 7.09319 8.84835 5.23642 8.44866 3.42852C10.1593 4.05558 11.7501 5.50516 13.5727 4.6175V4.62564ZM25.7872 29.5943C23.0214 30.7588 19.1684 30.7588 16.2426 31.0276C13.7565 31.2556 11.2225 31.4836 8.72045 31.4347C4.48373 31.337 2.39734 28.9183 2.70111 24.7162C3.0928 19.382 5.01132 13.5674 9.90353 10.9696C11.862 11.2465 13.6207 11.0755 15.5472 10.4077C16.6583 10.0249 18.1372 9.65031 19.3842 9.05582C23.485 11.6537 25.9871 16.0187 27.4979 20.6525C28.4971 23.7226 29.4644 28.0551 25.7872 29.6024V29.5943Z" fill="#1D1D1B"/>
<path d="M19.696 23.3887C17.9374 24.6347 14.7159 24.48 13.5008 22.4848C14.9397 22.1753 16.3706 21.8333 17.7615 21.5646C19.2724 21.2714 18.6329 18.9178 17.122 19.211C15.7791 19.4716 14.3961 19.8137 13.0052 20.115C13.1891 18.1279 14.6839 16.3281 16.5785 15.8721C18.0813 15.5138 17.4418 13.1521 15.9389 13.5186C12.7974 14.2759 10.6151 17.3624 10.6151 20.5629C9.82368 20.685 9.03229 20.7665 8.2489 20.7909C6.7061 20.8316 6.7061 23.2747 8.2489 23.234C9.16819 23.2096 10.1035 23.1037 11.0387 22.9571C11.0387 22.9653 11.0387 22.9734 11.0467 22.9897C12.4696 26.7521 17.8894 27.6479 20.9031 25.5061C22.1581 24.6103 20.9591 22.4929 19.696 23.3969V23.3887Z" fill="#1D1D1B"/>
</g>
<defs>
<clipPath id="clip0_1085_442">
<rect width="31" height="34" fill="white"/>
</clipPath>
</defs>
</svg>
