<svg width="36" height="30" viewBox="0 0 36 30" fill="none" xmlns="http://www.w3.org/2000/svg">
<g clip-path="url(#clip0_1085_451)">
<path d="M31 27.5L23.5 29H23L14.5 28L7.5 22.5L1 13.5L1.5 11L4 11.5L9.5 16.5L11 10L12 8L15.5 7L16.5 6.5L20.5 7L23 5.5L28 10.5L30.5 4.5L33.5 1L34.5 1.5L34 8.5L33.5 23L31 27.5Z" fill="#C0ADD4"/>
<path d="M10.167 22.7144C7.49404 20.6255 5.04103 17.9762 3.07862 15.1995C2.59648 14.5202 1.91979 13.5862 2.14817 12.6946C2.50344 11.3445 3.80607 12.5672 4.38971 13.0512C5.94611 14.3334 7.38408 15.76 8.70362 17.2884C9.21114 17.8828 10.3108 17.5771 10.4715 16.8214C10.776 15.3863 11.0805 13.9513 11.3766 12.5163C11.6049 11.4464 11.6642 9.9264 12.3239 9.00933C12.9329 8.1602 14.3794 9.0433 15.2929 8.87347C16.2657 8.69515 17.01 7.34502 17.9405 7.61675C18.947 7.91395 19.7422 8.48287 20.8418 8.11774C21.4931 7.90546 22.3897 6.63175 22.9987 6.72515C23.3625 6.7761 23.8361 7.59127 24.0222 7.863C24.3267 8.30455 24.6059 8.76308 24.9104 9.20463C25.5279 10.0877 26.2299 10.8859 27.2196 11.3445C27.6087 11.5228 28.2008 11.5652 28.4969 11.1746C29.6895 9.63769 30.5523 8.04981 31.2544 6.24115C31.5673 5.43447 31.8803 4.63628 32.2694 3.87206C32.4809 3.45598 32.7008 2.81063 33.0476 2.47947C33.0984 2.42852 33.7074 2.12283 33.4536 2.02094C33.5551 2.06339 33.6397 2.72572 33.6566 2.81063C34.0542 4.88253 33.4283 7.10727 33.1745 9.17067C32.9461 11.0218 32.7854 12.8729 32.6839 14.7325C32.557 17.2205 32.5824 19.7 32.4978 22.1794C32.4555 23.3003 32.3963 24.574 31.7788 25.5505C31.0767 26.6544 29.7064 26.9771 28.5053 27.2573C25.7055 27.9196 22.7873 27.7328 19.9282 27.7243C18.9048 27.7243 17.8728 27.7413 16.8493 27.7073C15.4198 27.6649 14.5063 26.9006 13.5081 25.9496C12.3916 24.8797 11.2751 23.7928 10.167 22.7144C9.18577 21.7634 7.68859 23.2663 8.66979 24.2174C9.82017 25.3297 10.9621 26.4591 12.1294 27.563C13.026 28.4121 14.0072 29.2528 15.2083 29.6179C16.4095 29.983 17.8643 29.8387 19.1247 29.8471C22.5589 29.8641 26.0777 30.0934 29.4273 29.2188C32.0579 28.5395 33.9188 27.1214 34.401 24.3193C34.8831 21.5171 34.6125 18.5282 34.7393 15.692C34.8408 13.4079 35.0269 11.1407 35.3145 8.87347C35.619 6.44494 36.3042 3.87206 35.4837 1.469C35.0777 0.280207 33.8343 -0.13587 32.6839 0.237751C31.3813 0.662319 30.7722 2.09736 30.2309 3.2352C29.1736 5.45994 28.5307 7.71015 26.9997 9.68864L28.2769 9.51881C26.1031 8.52532 25.697 4.79761 23.0664 4.58533C21.7892 4.48343 21.3747 5.42598 20.4104 5.96942C19.8606 6.2836 19.4207 5.94395 18.8878 5.73166C18.3211 5.51089 17.7628 5.33257 17.1538 5.43447C16.5871 5.52787 16.1388 5.81658 15.6989 6.18171C15.0222 6.75912 14.8446 6.82705 13.9311 6.63175C12.7384 6.37701 11.6303 6.52985 10.8098 7.50636C9.98934 8.48287 9.76941 9.91791 9.49874 11.1661C9.14347 12.8644 8.77975 14.5542 8.42449 16.2525L10.1923 15.7854C8.54291 13.8664 6.6228 11.7775 4.44892 10.4444C2.27505 9.11123 -0.211789 10.8265 0.0165941 13.3654C0.211143 15.5732 2.13126 17.5262 3.51002 19.1225C5.08332 20.9482 6.76659 22.7229 8.66979 24.2089C9.72712 25.041 11.2412 23.5466 10.167 22.7059V22.7144Z" fill="#1D1D1B"/>
<path d="M9.92109 9.71413C10.0733 11.3615 10.8008 12.9493 11.4352 14.4523C11.5029 14.6052 11.5621 14.758 11.6297 14.9108C11.6551 14.9788 11.6889 15.0467 11.7143 15.1061C11.6974 15.0637 11.6382 14.9193 11.7143 15.1146C11.8497 15.4628 11.9596 15.8109 12.078 16.1591C12.3403 16.9573 12.594 17.7809 12.9831 18.5282C13.7867 20.0991 16.5527 22.0011 18.0498 20.2264C18.7435 19.4028 18.5066 18.3074 18.3205 17.3479C18.1344 16.3883 17.9483 15.4033 17.7623 14.4353C17.3478 12.2615 16.9333 10.0962 16.5104 7.93094C16.2482 6.5893 14.2096 7.15823 14.4718 8.49137C15.0978 11.7096 15.7068 14.9278 16.3243 18.1376C16.3497 18.2819 16.3835 18.4263 16.4004 18.5621C16.4004 18.6555 16.3666 18.9442 16.4258 18.8763C16.5273 18.7659 16.4765 18.8423 16.4089 18.7744C16.3243 18.698 16.0029 18.6301 15.8844 18.5706C15.3431 18.2649 14.9371 17.7894 14.6918 17.229C14.1927 16.0827 13.8713 14.8259 13.3722 13.6626C13.0931 13.0088 12.8139 12.3125 12.5686 11.6247C12.4418 11.268 12.3149 10.9029 12.2134 10.5378C12.1626 10.368 12.1203 10.1896 12.078 10.0198C12.0611 9.96038 12.0527 9.90094 12.0357 9.8415C11.9681 9.48486 12.0357 10.0113 12.0104 9.69714C11.9596 9.12822 11.5621 8.63572 10.953 8.63572C10.4201 8.63572 9.84496 9.11973 9.89571 9.69714L9.92109 9.71413Z" fill="#1D1D1B"/>
<path d="M16.6982 20.0226C17.4595 21.3133 18.999 22.5446 20.5469 21.8143C21.3251 21.4492 21.9849 20.9907 22.2725 20.1415C22.5178 19.4198 22.467 18.6385 22.4332 17.8828C22.2725 14.4523 22.0018 10.9369 21.1475 7.60826C20.8091 6.28361 18.7706 6.84404 19.1089 8.16869C19.7772 10.7586 20.0394 13.4588 20.217 16.1251C20.2593 16.745 20.2931 17.3564 20.327 17.9762C20.3439 18.4348 20.4877 19.1565 20.2424 19.5726C20.1747 19.6915 20.3693 19.4367 20.2001 19.5896C20.1071 19.666 19.921 19.7424 19.8195 19.7934C19.6249 19.9038 19.6418 19.9462 19.3712 19.8273C18.999 19.666 18.7368 19.2839 18.5337 18.9442C17.8486 17.7639 16.0131 18.8338 16.7067 20.0141L16.6982 20.0226Z" fill="#1D1D1B"/>
<path d="M20.8172 20.15C21.7054 21.4067 23.211 21.67 24.6405 21.3133C25.3172 21.1435 25.9347 20.8208 26.3153 20.2179C26.7467 19.5471 26.8313 18.732 26.9074 17.9592C27.2373 14.8599 27.0343 11.6671 26.7044 8.57628C26.6452 8.00736 26.2646 7.51486 25.6471 7.51486C25.1227 7.51486 24.5306 7.99887 24.5898 8.57628C24.8604 11.1407 25.0042 13.7305 24.9027 16.3119C24.8774 16.9148 24.8435 17.5177 24.7759 18.1121C24.7336 18.4857 24.7082 18.9273 24.4037 19.165C24.5221 19.0716 24.4375 19.1565 24.336 19.1905C24.243 19.216 24.1584 19.2499 24.0653 19.2669C23.8369 19.3264 23.7862 19.3348 23.524 19.3433C23.2195 19.3433 22.8135 19.3433 22.6274 19.0801C22.2975 18.6131 21.7054 18.3923 21.1809 18.698C20.7242 18.9697 20.4704 19.683 20.8003 20.15H20.8172Z" fill="#1D1D1B"/>
</g>
<defs>
<clipPath id="clip0_1085_451">
<rect width="36" height="30" fill="white"/>
</clipPath>
</defs>
</svg>
