<svg id="Calque_1" data-name="Calque 1" version="1.1" width="37" height="37" xmlns="http://www.w3.org/2000/svg"><defs id="defs308"><style id="style306">.cls-3{fill:#141414}.cls-4{fill:#fff}.cls-5{fill:#aeadad}</style></defs><g id="g766"><g id="g557"><path d="M33.617 17.098a7.28 7.284 0 0 0-.071-.759 13.579 13.587 0 0 0-.586-2.207 62.338 62.338 0 0 0-.62-1.744c-.053-.14-.103-.283-.15-.422a4.795 4.798 0 0 0-.496-1.122c-.207-.309-.402-.631-.592-.944a12.406 12.414 0 0 0-1.087-1.607 4.828 4.831 0 0 0-1.102-1.021 3.65 3.653 0 0 1-.845-.715A5.66 5.664 0 0 0 26.2 5.112a19.523 19.534 0 0 0-2.58-1.078 11.208 11.208 0 0 1-.315-.104 5.19 5.193 0 0 0-.858-.237 20.309 20.309 0 0 1-1.319-.245 8.245 8.25 0 0 0-1.554-.2h-.22c-.302 0-.606.022-.902.042-.207.015-.421.03-.632.038a4.912 4.915 0 0 0-.929.096c-.52.121-1.051.217-1.565.307l-.137.026-.344.055a7.096 7.1 0 0 0-.771.151c-.262.073-.521.171-.773.266-.166.063-.337.128-.51.186a12.879 12.887 0 0 0-2.194 1.002 15.73 15.74 0 0 0-2.67 1.872 5.716 5.72 0 0 0-.952 1.105c-.19.277-.373.574-.55.854-.147.238-.3.482-.458.72a15.945 15.955 0 0 0-1.415 2.663l-.085.203c-.208.494-.423 1.004-.6 1.515-.25.719-.36 1.454-.47 2.27-.046.345-.058.69-.071 1.034-.01.256-.02.521-.044.783a7.966 7.97 0 0 0 .086 1.931l.049.332a9.432 9.438 0 0 0 .21 1.138 17.789 17.8 0 0 0 1.091 2.971 27.429 27.445 0 0 0 1.741 3.013 15.174 15.183 0 0 0 1.208 1.641 5.013 5.016 0 0 0 1.342 1.104c.23.133.46.274.68.41.243.148.492.3.742.444.212.122.423.252.628.377.535.327 1.088.666 1.691.88.217.078.43.168.638.256a6.248 6.252 0 0 0 1.16.404c.166.033.337.06.503.086.103.016.204.03.306.05a4.903 4.906 0 0 0 .499.049 4.94 4.944 0 0 1 .526.052 9.884 9.89 0 0 0 1.312.1c.262.008.533.016.804.038a8.131 8.136 0 0 0 2.066-.132c.215-.038.435-.063.647-.087a6.542 6.546 0 0 0 .964-.156c.202-.054.405-.122.602-.187.145-.049.295-.1.445-.143a10.903 10.91 0 0 0 2.001-.81c.396-.21.788-.447 1.168-.675.448-.27.91-.546 1.386-.789a2.28 2.28 0 0 0 .614-.422c.552-.574 1.199-1.263 1.812-2.002.466-.56.951-1.165 1.311-1.852.101-.193.197-.395.287-.591a9.659 9.664 0 0 1 .442-.87c.513-.859 1.113-2.756 1.127-2.804a5.66 5.664 0 0 0 .238-1.263c.016-.177.036-.354.057-.525a7.793 7.797 0 0 0 .08-1.062c-.01-.637-.04-1.223-.094-1.792-.018-.151-.024-.304-.035-.452z" id="path312" style="stroke-width:.114799;fill:#cce6f5"/><path d="M36.884 17.35a11.77 11.77 0 0 1-.037-.529 9.066 9.072 0 0 0-.088-.94 16.484 16.494 0 0 0-.712-2.683c-.257-.746-.49-1.42-.743-2.09-.061-.162-.115-.33-.176-.494-.167-.484-.344-.986-.626-1.41a26.018 26.018 0 0 1-.698-1.115c-.4-.661-.812-1.344-1.326-1.952-.498-.591-.918-.974-1.386-1.278a4.11 4.112 0 0 1-.939-.792 7.065 7.07 0 0 0-2.33-1.804c-.98-.471-2.026-.958-3.12-1.303-.123-.039-.248-.08-.37-.121A6.512 6.516 0 0 0 23.26.542a23.082 23.082 0 0 1-1.553-.288 10.293 10.3 0 0 0-1.91-.251 12.647 12.655 0 0 0-1.378.047c-.244.017-.496.034-.744.043a6.16 6.163 0 0 0-1.163.124c-.613.142-1.245.254-1.852.363l-.163.029c-.132.024-.268.045-.4.065a8.691 8.696 0 0 0-.953.189c-.326.09-.643.21-.95.326-.194.073-.396.15-.596.217a15.723 15.732 0 0 0-2.67 1.223A19.068 19.08 0 0 0 5.681 4.9a7.144 7.148 0 0 0-1.188 1.378c-.23.345-.45.69-.663 1.034-.175.281-.356.574-.542.85a19.342 19.354 0 0 0-1.721 3.23l-.103.243a30.5 30.5 0 0 0-.723 1.826c-.306.884-.44 1.778-.573 2.769-.057.425-.074.852-.089 1.263-.011.3-.023.613-.05.919a9.79 9.795 0 0 0 .104 2.38c.02.13.04.26.058.392A11.452 11.46 0 0 0 .45 22.58a21.608 21.621 0 0 0 1.322 3.598c.631 1.324 1.413 2.568 2.095 3.63a18.814 18.826 0 0 0 1.472 1.989 6.332 6.335 0 0 0 1.682 1.385c.271.156.543.322.804.484.29.178.59.362.892.534.25.144.5.297.742.446.652.398 1.325.81 2.076 1.078.25.09.5.195.744.299a7.73 7.734 0 0 0 1.442.5c.206.042.414.074.615.105l.36.057a5.638 5.642 0 0 0 .628.064c.197.012.4.026.595.058a11.785 11.792 0 0 0 1.607.125c.308.01.627.02.938.044.205.016.412.024.626.024a11.037 11.044 0 0 0 1.918-.186c.247-.044.503-.072.751-.1a8.378 8.383 0 0 0 1.196-.195c.25-.068.498-.15.738-.23.17-.056.344-.115.52-.166a13.34 13.347 0 0 0 2.45-.996c.48-.256.952-.54 1.408-.814.53-.318 1.077-.647 1.635-.93a2.971 2.973 0 0 0 .814-.566 46.821 46.821 0 0 0 2.18-2.404c.568-.682 1.159-1.418 1.608-2.264.124-.237.238-.483.344-.72a10.94 10.947 0 0 1 .512-1.01c.632-1.059 1.377-3.408 1.377-3.415a7.088 7.092 0 0 0 .295-1.571c.017-.207.042-.415.066-.617A9.63 9.636 0 0 0 37 19.507a29.701 29.701 0 0 0-.116-2.157Zm-3.17 3.07c-.02.172-.042.345-.058.526a5.564 5.567 0 0 1-.238 1.27c-.014.044-.616 1.951-1.131 2.813a9.729 9.735 0 0 0-.443.872c-.092.198-.186.401-.288.594-.362.689-.849 1.296-1.317 1.86-.615.739-1.262 1.429-1.818 2.006a2.226 2.228 0 0 1-.616.424c-.476.244-.941.523-1.39.793-.38.23-.776.465-1.173.677a10.97 10.976 0 0 1-2.008.812c-.15.045-.3.095-.445.143-.199.066-.403.134-.605.189a6.741 6.745 0 0 1-.968.156c-.213.024-.432.05-.648.087a8.148 8.153 0 0 1-2.074.133c-.267-.021-.54-.03-.803-.037a9.778 9.784 0 0 1-1.318-.102 5.248 5.251 0 0 0-.526-.052 4.949 4.952 0 0 1-.502-.05c-.1-.018-.203-.033-.305-.05-.168-.025-.344-.052-.505-.086a6.19 6.194 0 0 1-1.165-.405 11.23 11.23 0 0 0-.64-.256c-.605-.216-1.16-.555-1.697-.884a24.05 24.05 0 0 0-.63-.378c-.251-.143-.501-.297-.745-.445a20.214 20.214 0 0 0-.688-.411 5.05 5.053 0 0 1-1.346-1.109 15.322 15.332 0 0 1-1.206-1.645A27.807 27.824 0 0 1 4.67 24.84a18.018 18.029 0 0 1-1.095-2.985 9.468 9.474 0 0 1-.211-1.143 13.645 13.645 0 0 0-.048-.333 8.012 8.017 0 0 1-.086-1.937c.024-.263.034-.528.043-.786.013-.344.027-.689.072-1.033.11-.819.22-1.556.471-2.277.178-.514.394-1.026.601-1.52l.086-.205A15.997 16.007 0 0 1 5.925 9.95c.159-.24.312-.485.46-.724.176-.284.358-.574.55-.858A5.793 5.797 0 0 1 7.89 7.26a15.77 15.78 0 0 1 2.685-1.875 12.914 12.922 0 0 1 2.202-1.006c.173-.059.344-.124.511-.187.253-.096.513-.194.776-.267a7.137 7.142 0 0 1 .774-.151c.115-.017.23-.036.344-.056l.137-.025a30.322 30.322 0 0 0 1.57-.309 4.945 4.948 0 0 1 .932-.096c.213-.008.428-.023.635-.038.298-.02.603-.042.906-.042h.22a8.402 8.407 0 0 1 1.56.2c.459.105.926.183 1.323.246a5.303 5.307 0 0 1 .857.238c.104.036.21.071.316.105a19.754 19.766 0 0 1 2.59 1.081A5.673 5.676 0 0 1 28.1 6.533a3.672 3.675 0 0 0 .847.717 4.863 4.866 0 0 1 1.108 1.024 12.413 12.42 0 0 1 1.09 1.608c.19.313.385.637.594.947a4.82 4.823 0 0 1 .496 1.126c.048.14.098.283.152.423.212.56.407 1.125.622 1.75a13.551 13.56 0 0 1 .587 2.214 6.771 6.775 0 0 1 .071.762c.01.15.018.303.033.46.052.573.083 1.157.092 1.796a7.842 7.847 0 0 1-.079 1.06z" id="path314" style="stroke-width:.114799;fill:#97cdeb"/><path class="cls-3" d="M31.732 20.11c0 .482-.114 1.034-.363 1.684v.005l-.013.034a3.205 3.207 0 0 1-.46.784 1.307 1.308 0 0 1-.229.23 1.39 1.392 0 0 1-.68.274 1.686 1.687 0 0 0-.41.11c-.037.014-.073.031-.115.049a5.99 5.99 0 0 0-.291.155 4.602 4.605 0 0 1-.427.214l-.061.028-.032.015a1.915 1.917 0 0 1-.278.115l-.081.02-.25.059a5.533 5.536 0 0 1-.637.115 1.86 1.861 0 0 1-.237.016c-.085 0-.162 0-.23-.01A2.525 2.526 0 0 0 26.57 24c-.177.01-.392 0-.601 0-.19 0-.39-.013-.543 0a3.911 3.914 0 0 1-.642 0 1.52 1.52 0 0 0-.323 0 6.6 6.604 0 0 1-.689 0c-.198 0-.386-.012-.55 0-.164.011-.307.009-.474.008.99-.036 1.767-.105 1.767-.105l2.994-.01s1.425-.292 2.05-.797c.345-.28 1.166 0 1.479-1.093.011-.042-.032-.089-.12-.143.201-.08.344-.177.398-.297.06-.147.12-.612.166-1.18a23.943 23.958 0 0 0 .081-2.596c-.013-.258-.135-.574-.306-.907l.046-.023c.027.056.058.115.09.174.178.345.382.73.319 1.133a3.771 3.773 0 0 0-.037 1.06 5.525 5.528 0 0 1 .058.886z" id="path316" style="stroke-width:.114799"/><path class="cls-3" d="M31.562 17.787a23.943 23.958 0 0 1-.082 2.592h-.025c.008-.09.011-.18.011-.264a5.329 5.332 0 0 0-.058-.853 3.97 3.972 0 0 1 .037-1.138c.049-.314-.124-.645-.291-.964-.054-.103-.106-.2-.15-.299-.067-.148-.136-.27-.201-.39a3.627 3.629 0 0 1-.317-.697 3.05 3.052 0 0 0-.122-.309c-.015-.033-.03-.065-.043-.099a2.957 2.957 0 0 0-.066-.147l.037-.02c.294.546.689 1.148.964 1.683.169.33.29.647.306.905z" id="path318" style="stroke-width:.114799"/><path class="cls-3" d="M31.448 20.377h.025c-.046.567-.106 1.033-.166 1.179-.05.115-.197.218-.399.297a1.239 1.239 0 0 0-.105-.056 1.453 1.454 0 0 0 .172-.013c.041-.006.115-.021.123-.051a4.959 4.962 0 0 0 .35-1.356z" id="path320" style="stroke-width:.114799"/><path class="cls-4" d="M31.464 20.112c0 .085 0 .174-.012.265a4.959 4.962 0 0 1-.344 1.356c-.011.03-.081.045-.123.051a1.453 1.454 0 0 1-.172.013c-1.214-.582-6.918-1.679-7.868-1.548-1.076.146-3.804-.332-4.268-.33a5.892 5.896 0 0 0-.995.14.364.364 0 0 0 .16-.17c.12-.268.24-.54.356-.804l.085-.194c.217-.49.186-.67-.184-1.061l-.03-.033-.021-.02a1.24 1.241 0 0 1-.125-.148.123.123 0 0 0-.023-.026.138.138 0 0 0-.01-.03.139.139 0 0 1-.016-.088.689.689 0 0 1 .115-.25 1.288 1.288 0 0 0 .187-.783 3.96 3.962 0 0 0-.07-.653 3.934 3.934 0 0 1-.055-.33 3.527 3.529 0 0 1 .007-.844 3.983 3.986 0 0 1 .193-.804l.086.027h.022c.097.032.139.045.29.208a.137.137 0 0 0 .099.043.13.13 0 0 0 .09-.037.134.134 0 0 0 .007-.19c-.19-.205-.27-.237-.405-.28l-.02-.007a4.144 4.144 0 0 0-.23-.068 13.236 13.236 0 0 0-.987-.23 15.487 15.487 0 0 1-.803-.19c-.104-.026-.208-.054-.312-.079l-.082-.022-.173-.047-.068-.02a.631.632 0 0 0-.092-.027l-.114-.028h-.019l-.084-.02a7.783 7.788 0 0 0-1.027-.205c-.587-.064-1.185-.07-1.763-.078-.344 0-.918-.043-1.154-.032-.162.008-.093.01-.258.01h-.286c-.069 0-.139 0-.21-.008a1.867 1.868 0 0 1-.51-.1 1.176 1.177 0 0 1-.106-.376 2.034 2.035 0 0 0-.065-.315 1.254 1.255 0 0 1-.039-.177l.074.01a1.314 1.315 0 0 0 .323.014c.147-.016.295-.03.443-.04.345-.027.689-.047 1.033-.064l.236-.013a14.208 14.217 0 0 1 1.517.03c.406.02.825.043 1.242.037a3.672 3.675 0 0 0 .918-.136c.114-.033.24-.068.359-.104a18.61 18.61 0 0 0 1.802-.505 6.33 6.33 0 0 1 .322-.058 5.303 5.307 0 0 1 2.341.129 6.629 6.633 0 0 1 .73.254 3.283 3.285 0 0 1 .71.404l.105.08c.434.334 1.699 1.051 1.745 1.095a3.213 3.215 0 0 0 .313.242c.328.239.688.65 1.025.834.136.075.273.151.41.23a.129.129 0 0 0 .065.017.14.14 0 0 0 .115-.072.138.138 0 0 0-.056-.183l-.41-.23c-.334-.185-.695-.594-1.032-.837-.074-.054-.152-.048-.223-.115a.628.628 0 0 1 .364-.008l.196.032a4.99 4.993 0 0 0 .947.05 4.537 4.54 0 0 1 .689.024 2.169 2.17 0 0 1 .615.176 1.388 1.388 0 0 0 .488.097c.336.015.587.011.855.007h.546a.79.79 0 0 1 .729.382 1.074 1.075 0 0 1 .066.115 1.721 1.723 0 0 1 .144.728v.032c0 .199.008.446.18.61a1.276 1.277 0 0 1 .284.38c.023.047.044.095.066.147l.043.099a3.05 3.052 0 0 1 .122.309 3.627 3.629 0 0 0 .317.697c.065.115.134.242.2.39.045.098.097.195.151.299.168.32.344.65.292.963a3.97 3.972 0 0 0-.038 1.138 5.329 5.332 0 0 1 .063.854z" id="path322" style="stroke-width:.114799"/><path class="cls-3" d="m31.3 16.857-.046.023c-.272-.538-.67-1.137-.964-1.684a4.748 4.75 0 0 1-.287-.627l.09-.03a.248.248 0 0 0 .06.102 1.617 1.618 0 0 1 .413.617l.042.096a3.05 3.051 0 0 1 .13.334 3.453 3.455 0 0 0 .298.65 5.76 5.76 0 0 1 .264.519z" id="path324" style="stroke-width:.114799"/><path class="cls-3" d="M30.913 21.856c.088.054.132.1.12.142-.313 1.09-1.132.814-1.478 1.093-.625.506-2.05.798-2.05.798l-2.995.01s-.776.068-1.766.104c-.251 0-.52-.01-.803-.017-.54-.016-1.098-.032-1.544 0a7.238 7.243 0 0 1-1.05-.136c-.442-.1-.978-.257-1.546-.443l.023-.07c.19.063.394.122.615.18.222.057.46.106.689.142a5.232 5.235 0 0 0 1.222.06 15.046 15.055 0 0 1 1.599-.005c.459.012.89.025 1.262.009.174-.007.374 0 .574 0 .23.007.467.014.663 0a1.894 1.895 0 0 1 .37 0 3.545 3.547 0 0 0 .601 0c.167-.01.37 0 .566 0 .196 0 .412.011.574 0a2.81 2.812 0 0 1 .405.007c.073.005.141.01.216.01a1.607 1.608 0 0 0 .205-.014 5.418 5.421 0 0 0 .608-.114l.248-.06.083-.02c.033-.008.157-.065.23-.096l.035-.016.068-.03a4.361 4.364 0 0 0 .401-.203c.093-.052.19-.106.303-.161a2.03 2.03 0 0 1 .127-.056 1.937 1.938 0 0 1 .468-.127 1.14 1.141 0 0 0 .574-.23 1.012 1.013 0 0 0 .172-.182 2.937 2.939 0 0 0 .26-.39c-.093.009-.196.009-.306.01a3.461 3.463 0 0 0-.54.03l-.005-.037a4.304 4.306 0 0 0 .802-.188z" id="path326" style="stroke-width:.114799"/><path class="cls-3" d="M30.807 21.8c.04.019.076.037.106.056a4.304 4.306 0 0 1-.818.209c-.478.082-.98.13-1.288.167a1.59 1.59 0 0 1-.689-.104c-.803-.275-1.77-.952-2.563-.919-.399.016-1.25-.076-2.152-.176v-.017a8.563 8.568 0 0 0 .94.06 12.165 12.172 0 0 1 1.318.06 8.13 8.135 0 0 1 1.109.23 4.91 4.913 0 0 1 .644.229c.209.087.447.186.782.303.03.01.066.025.115.045a1.618 1.62 0 0 0 .502.15h-.005a2.228 2.229 0 0 0 .848-.15c.327-.144.689-.145.98-.146z" id="path328" style="stroke-width:.114799"/><path class="cls-4" d="M30.946 22.061a2.937 2.939 0 0 1-.26.39 1.012 1.013 0 0 1-.172.183 1.14 1.141 0 0 1-.574.23 1.937 1.938 0 0 0-.469.126 2.019 2.019 0 0 0-.126.056c-.115.056-.21.115-.303.161a4.361 4.364 0 0 1-.401.203l-.068.03-.036.016c-.067.031-.191.089-.23.097l-.082.02-.248.06a5.418 5.421 0 0 1-.608.114 1.607 1.608 0 0 1-.205.014c-.075 0-.143 0-.216-.01a2.81 2.812 0 0 0-.405-.007c-.164.01-.373 0-.574 0-.201 0-.4-.013-.566 0a3.545 3.547 0 0 1-.601 0 1.894 1.895 0 0 0-.37 0 6.392 6.392 0 0 1-.663 0 6.39 6.39 0 0 0-.574 0c-.368.016-.803 0-1.262-.01a15.046 15.055 0 0 0-1.6.006 5.232 5.235 0 0 1-1.221-.06 8.317 8.317 0 0 1-1.304-.322 6.083 6.086 0 0 1-.852-.352c-.056-.028-.114-.058-.165-.088a5.38 5.383 0 0 0-.918-.38l-.279-.096a3.635 3.637 0 0 1-.434-.2 3.99 3.993 0 0 0-.43-.2c-.115-.043-.23-.08-.333-.115-.103-.036-.197-.063-.293-.099l-.094-.032a1.377 1.378 0 0 1-.137-.052 1.575 1.576 0 0 0-.17-.058c-.05-.018-.103-.034-.134-.047l-.046-.02v-.023a44.805 44.805 0 0 1-.088-.498H14.121c.084 0 .164-.01.24-.019a3.18 3.182 0 0 1 .336 0 .482.482 0 0 0 .086.059l.008.007c.053.034.164.107.31.186a2.12 2.121 0 0 0 .69.263h.038a1.133 1.133 0 0 1 .595.203h.006l.009.007.013.007.018.006h.008a.086.086 0 0 0 .024 0 .177.177 0 0 0 .034 0h.01l.024-.012h.009a.115.115 0 0 0 .022-.02.147.147 0 0 0 .018-.03.073.073 0 0 1 0-.008.029.029 0 0 0 0-.008.847.847 0 0 0-.012-.469c-.011-.053-.023-.104-.03-.152a.488.488 0 0 1 0-.095l.266-.007c.23 0 .459-.01.697-.017.271-.01.546-.023.812-.036.384-.018.778-.039 1.17-.043.206 0 .411 0 .614.008a13.399 13.407 0 0 1 2.118.212 10.62 10.626 0 0 0 2.085.207 11.81 11.816 0 0 1 1.287.059 7.574 7.58 0 0 1 1.072.23 4.436 4.438 0 0 1 .609.222c.203.084.459.188.796.308.024.008.058.022.098.039a1.765 1.766 0 0 0 .606.17 2.518 2.52 0 0 0 .947-.17h.007a1.352 1.353 0 0 1 .334-.093 3.461 3.463 0 0 1 .539-.03c.116-.012.22-.012.312-.02z" id="path330" style="stroke-width:.114799"/><path class="cls-4" d="m30.807 21.8-.163.006c-.29 0-.652 0-.979.146a2.228 2.229 0 0 1-.848.15h-.009a1.618 1.62 0 0 1-.501-.15c-.046-.02-.083-.036-.115-.045-.335-.115-.574-.216-.783-.303a4.91 4.913 0 0 0-.644-.23 8.13 8.135 0 0 0-1.108-.23 12.165 12.172 0 0 0-1.318-.059 8.563 8.568 0 0 1-.94-.06c-.331-.038-.683-.094-1.068-.172a13.887 13.895 0 0 0-2.16-.217c-.603-.024-1.217.007-1.809.036a37.26 37.26 0 0 1-.803.035l-.689.018-.43.01a.817.818 0 0 1 0-.093c.016-.157.304-.302.675-.42a1.919 1.92 0 0 0 .396-.079.934.935 0 0 0 .174-.068 5.892 5.896 0 0 1 .995-.142c.465 0 3.193.477 4.268.331.941-.144 6.645.953 7.86 1.535z" id="path332" style="stroke-width:.114799"/><path class="cls-3" d="m30.29 15.196-.037.021a1.276 1.277 0 0 0-.283-.38c-.174-.164-.178-.411-.182-.61v-.029a1.721 1.723 0 0 0-.143-.728 1.074 1.075 0 0 0-.067-.114l.02-.013a2.722 2.724 0 0 1 .327.95 1.705 1.706 0 0 0 .078.281 4.748 4.75 0 0 0 .287.622z" id="path334" style="stroke-width:.114799"/><path class="cls-3" d="m30.095 22.065.005.036a1.352 1.353 0 0 0-.334.095h-.007a2.518 2.52 0 0 1-.946.17 1.765 1.766 0 0 1-.606-.172 1.413 1.413 0 0 0-.098-.039l.01-.03a1.59 1.59 0 0 0 .69.105c.305-.036.808-.08 1.286-.165z" id="path336" style="stroke-width:.114799"/><path class="cls-3" d="m30.092 14.538-.09.031a1.705 1.706 0 0 1-.077-.281 2.722 2.724 0 0 0-.327-.95c-.363-.574-.904-.5-1.528-.497-.158 0-.419-.02-.718-.053l.01-.097a.896.897 0 0 0 .093 0c.327.015.574.01.838 0h.553a1.074 1.075 0 0 1 1.033.653 1.979 1.98 0 0 1 .17.842v.041a1.044 1.045 0 0 0 .043.311z" id="path338" style="stroke-width:.114799"/><path class="cls-3" d="m29.598 13.338-.02.013a.79.79 0 0 0-.729-.382h-.546c-.267 0-.519.008-.855-.007a1.388 1.388 0 0 1-.488-.097 2.169 2.17 0 0 0-.615-.177v-.028c.328.043.689.09 1.003.124.315.034.56.054.719.053.626 0 1.168-.07 1.53.501z" id="path340" style="stroke-width:.114799"/><path class="cls-3" d="m28.12 22.128-.01.03c-.345-.115-.594-.224-.797-.308a4.436 4.438 0 0 0-.61-.223 7.574 7.58 0 0 0-1.072-.23 11.81 11.816 0 0 0-1.286-.058 10.62 10.626 0 0 1-2.06-.237 13.399 13.407 0 0 0-2.118-.212c-.203-.008-.408-.01-.614-.008v-.08c.672-.01 1.196-.013 1.455 0 .612.026 1.53.13 2.397.23.903.1 1.754.19 2.152.175.786-.031 1.752.646 2.563.92z" id="path342" style="stroke-width:.114799"/><path class="cls-3" d="m27.362 12.69-.01.098a44.96 44.96 0 0 1-1.003-.124c-.478-.062-.89-.115-1.006-.128-.268-.018-1.353-.162-1.513-.097-.108.044-.512-.272-.972-.589l.036-.053a3.328 3.33 0 0 0 .813.427c.07.026 1.006.122 1.049.13a4.705 4.708 0 0 0 .897.045c.46-.007.89-.014 1.418.23a.96.961 0 0 0 .291.062z" id="path344" style="stroke-width:.114799"/><path class="cls-3" d="M26.349 12.664v.029a4.537 4.54 0 0 0-.689-.024 4.99 4.993 0 0 1-.947-.05l-.196-.032a.628.628 0 0 0-.364.008c.071.067.15.061.223.115.335.244.695.652 1.033.837l.41.23a.138.138 0 0 1 .055.184.14.14 0 0 1-.115.07.129.129 0 0 1-.064-.016c-.138-.074-.275-.15-.411-.23-.334-.184-.697-.595-1.025-.834a3.213 3.215 0 0 1-.313-.242c-.046-.044-1.311-.76-1.745-1.094l-.105-.08a3.283 3.285 0 0 0-.719-.408l.025-.06c.271.115.53.238.766.356a6.327 6.33 0 0 1 .688.425c.46.317.865.633.972.589.161-.066 1.246.08 1.514.096.116.01.53.07 1.007.131z" id="path346" style="stroke-width:.114799"/><path class="cls-3" d="M23.4 21.013v.017c-.868-.095-1.785-.2-2.398-.23-.258-.011-.783-.009-1.454 0-.877.014-2.003.042-3.108.072a1.194 1.194 0 0 1-.01-.154l.43-.01.689-.018c.268-.008.542-.022.803-.036.592-.028 1.206-.06 1.809-.035a13.887 13.895 0 0 1 2.16.217c.397.083.749.139 1.078.177z" id="path348" style="stroke-width:.114799"/><path class="cls-3" d="m22.894 11.797-.036.053a6.327 6.33 0 0 0-.689-.425c-.23-.115-.495-.24-.766-.356-.79-.336-1.674-.614-2.318-.591v-.073a5.24 5.243 0 0 1 1.641.21c.49.144 1.055.344 1.527.703l.106.082c.178.138.354.274.535.397z" id="path350" style="stroke-width:.114799"/><path class="cls-5" d="M21.94 23.988c.28.008.548.016.804.017-.74.027-1.599.036-2.342-.015.441-.036 1-.02 1.539-.002z" id="path352" style="stroke-width:.114799"/><path class="cls-3" d="m21.402 11.07-.025.059a6.629 6.633 0 0 0-.73-.255 5.303 5.307 0 0 0-2.342-.129 6.33 6.33 0 0 0-.323.058c.257-.086.479-.167.633-.23a1.35 1.35 0 0 1 .47-.092c.643-.026 1.527.252 2.317.588z" id="path354" style="stroke-width:.114799"/><path class="cls-3" d="M20.397 23.988h-.024a5.456 5.46 0 0 1-1.287-.062 8.356 8.361 0 0 1-2.235-.7l-.175-.093a5.015 5.018 0 0 0-.874-.359c-.094-.032-.19-.064-.284-.098a3.811 3.814 0 0 1-.466-.214 3.997 4 0 0 0-.402-.188c-.105-.04-.215-.075-.32-.115-.106-.04-.203-.066-.304-.102-.028-.01-.056-.021-.086-.03a1.531 1.532 0 0 1-.164-.062 1.508 1.508 0 0 0-.136-.047l-.046-.015c0-.024-.008-.049-.013-.074.689.28 2.587 1.04 4.221 1.572.568.186 1.104.345 1.546.444a7.238 7.243 0 0 0 1.049.143z" id="path356" style="stroke-width:.114799"/><path class="cls-3" d="M19.547 20.805v.08c-.393 0-.787.026-1.171.044-.266.013-.54.026-.811.036l-.698.017-.265.007a.488.488 0 0 0 0 .095c.007.047.018.099.03.152a.847.847 0 0 1 .011.468.029.029 0 0 1 0 .008.073.073 0 0 0 0 .008.147.147 0 0 1-.018.031.115.115 0 0 1-.022.02h-.01l-.023.011h-.01a.177.177 0 0 1-.034 0 .086.086 0 0 1-.024 0h-.008l-.017-.006-.014-.007-.01-.006h-.005a1.133 1.133 0 0 0-.608-.186h-.04a2.12 2.121 0 0 1-.688-.263 4.231 4.231 0 0 1-.31-.186l-.009-.007a.482.482 0 0 1-.086-.059 3.18 3.182 0 0 0-.335 0c-.077.01-.156.015-.241.018a5.818 5.818 0 0 1-.489 0h-.196l-.02-.114 1.492-.04c.125.055.26.115.404.184 0 .027-.01.052-.016.053a1.674 1.675 0 0 0 .528.2.168.168 0 0 1 .025 0c.206.096.427.202.668.312.129.059-.037-.407-.082-.794 1.099-.035 2.225-.062 3.102-.076z" id="path358" style="stroke-width:.114799"/><path class="cls-3" d="M19.082 10.405v.073a1.35 1.35 0 0 0-.47.092 7.395 7.395 0 0 1-.632.23c-.476.096-.944.242-1.4.382l-.402.123a3.295 3.297 0 0 1-.826.106c-.538-.052-1.165.058-1.991 0-.827-.057-3.37.01-3.37.01l.13-.015a.039.039 0 0 1 0 .011l.835-.115c0 .016 0 .03.006.043.044-.008.33-.007.33-.01l-.01-.07a.432.432 0 0 0 .045-.015c.274-.02.276-.014.566-.028l.23-.013a14.391 14.4 0 0 1 1.544.028c.402.022.817.044 1.224.038a3.415 3.417 0 0 0 .852-.127c.252-.07.506-.148.753-.23a12.07 12.078 0 0 1 1.762-.448 6.402 6.405 0 0 1 .824-.065z" id="path360" style="stroke-width:.114799"/><path class="cls-3" d="M18.837 13.883a.134.134 0 0 1-.007.19.13.13 0 0 1-.09.037.137.137 0 0 1-.099-.042c-.151-.164-.193-.176-.29-.208h-.022l-.086-.028a3.983 3.986 0 0 0-.193.804 3.527 3.529 0 0 0-.007.845l-.072.008a5.71 5.713 0 0 1-.08-.74c.021-.182.044-.366.066-.528a2.954 2.956 0 0 1 .183-.501 20.665 20.677 0 0 0-2.143-.7l.081.02.313.08c.265.068.538.138.803.19a11.88 11.88 0 0 1 1.216.298l.021.007c.135.025.216.057.406.268z" id="path362" style="stroke-width:.114799"/><path class="cls-3" d="M18.094 17.832c.37.391.4.574.183 1.06l-.085.195a52.67 52.67 0 0 1-.357.804.364.364 0 0 1-.16.17l-.159.037-.017-.068a.199.199 0 0 0 .032-.012c.307-.14.72-1.534.719-1.75 0-.115-.115-.224-.23-.353a.597.597 0 0 1-.187-.429h.033a.139.139 0 0 0 .017.087.138.138 0 0 1 .009.031.123.123 0 0 1 .023.026 1.24 1.241 0 0 0 .125.148l.02.02z" id="path364" style="stroke-width:.114799"/><path class="cls-3" d="M18.25 18.268c0 .216-.412 1.608-.719 1.75a.199.199 0 0 1-.032.012c-.376.096-2.916.143-4.437.15a.133.133 0 0 0 .076-.145v-.037l.126.02c.655.114 1.333.059 1.987 0 .364-.032.74-.064 1.11-.067a.943.944 0 0 0-.007-.153.894.895 0 0 0-.06-.224 4.187 4.19 0 0 1-.258-.79 3.633 3.636 0 0 1-.069-.511v-.115a2.967 2.968 0 0 0-.077-.728 2.517 2.517 0 0 1-.034-.238 5.003 5.006 0 0 1 .064-1.139c.028-.211.057-.43.069-.643l.007-.15a4.853 4.856 0 0 0-.032-1.233v-.02a1.324 1.325 0 0 0-.09-.238 1.02 1.02 0 0 1-.115-.449c0-.08-.023-.106-.07-.126l-.18-.05h-.017l-.084-.022a7.813 7.818 0 0 0-.994-.2c-.573-.061-1.164-.068-1.736-.075-.334 0-.68-.007-1.02-.022a.603.603 0 0 1 0-.064.148.148 0 0 0-.01-.045c.727.01 1.588 0 2.228-.037.574-.029 1.386.131 2.146.333a20.665 20.677 0 0 1 2.143.7 2.954 2.956 0 0 0-.183.503c.04-.294.073-.514.073-.514l-2.1-.517s.022.093.057.23c.063.262.165.681.214.919.075.36-.04 1.181-.128 1.904-.087.722-.057.969 0 1.114.057.144.115 1.068.115 1.302 0 .16.14.357.242.626a1.534 1.535 0 0 1 .1.426.448.448 0 0 0 .073.23v.021h.015c.152.166.46.044.673.031.283-.017.516-.344.782-1.13.18-.536.061-.761-.083-.936h.006c.114.123.229.237.229.347z" id="path366" style="stroke-width:.114799"/><path class="cls-3" d="M18.168 16.454a1.288 1.288 0 0 1-.187.784.689.689 0 0 0-.115.25h-.033c.032-.32.165-.295.18-1.321a4.635 4.638 0 0 0-.044-.69l.072-.007c.013.115.03.22.054.33a3.96 3.962 0 0 1 .073.654z" id="path368" style="stroke-width:.114799"/><path class="cls-3" d="M18.02 17.92c.145.175.264.4.084.935-.266.792-.5 1.114-.783 1.131-.215.013-.52.134-.672-.03h.249a1.927 1.928 0 0 0 .524-.08c.115-.037.153-.052.174-.098.121-.264.24-.536.355-.804l.085-.193c.174-.395.164-.452-.134-.768l-.023-.024a.36.36 0 0 1-.029-.03 1.547 1.548 0 0 1-.15-.179.143.144 0 0 1-.02-.052.115.115 0 0 1-.035-.043c-.09-.194-.028-.364.115-.592a1.033 1.034 0 0 0 .145-.627 3.866 3.869 0 0 0-.065-.61 3.757 3.76 0 0 1-.052-1.263 4.262 4.265 0 0 1 .201-.846c-.303-.08-.601-.141-.836-.186a13.798 13.798 0 0 1-.822-.195l-.31-.078h-.006v.04a.437.438 0 0 0 .008.086l-.057-.23 2.071.514s-.033.22-.072.513a2.035 2.036 0 0 0-.065.528 5.498 5.502 0 0 0-.048.856c.036.449.249.742.035 1.32-.213.58-.164.575-.06.757a1.937 1.938 0 0 0 .193.248z" id="path370" style="stroke-width:.114799"/><path class="cls-4" d="M17.897 18.017c.299.316.308.373.135.768l-.085.193c-.115.263-.23.535-.356.804-.02.046-.059.06-.173.097a1.927 1.928 0 0 1-.525.08h-.249a.177.177 0 0 1-.02-.022 1.165 1.166 0 0 0-.01-.17 1.13 1.131 0 0 0-.08-.292c-.028-.066-.055-.132-.078-.196a3.629 3.631 0 0 1-.162-.542 3.29 3.292 0 0 1-.064-.475v-.087a3.2 3.203 0 0 0-.082-.792 2.031 2.033 0 0 1-.03-.211 4.773 4.776 0 0 1 .063-1.079c.028-.217.058-.44.07-.665l.009-.148a5.146 5.15 0 0 0-.038-1.3v-.026a1.58 1.581 0 0 0-.107-.29 1.128 1.129 0 0 1-.09-.248.437.438 0 0 1-.007-.086v-.04h.005l.31.078c.269.07.546.141.822.195.235.045.534.106.837.186a4.262 4.265 0 0 0-.201.847 3.757 3.76 0 0 0 .051 1.263 3.866 3.869 0 0 1 .066.61 1.033 1.034 0 0 1-.147.63c-.14.23-.203.398-.115.592a.115.115 0 0 0 .035.043.143.144 0 0 0 .02.052 1.547 1.548 0 0 0 .15.179.36.36 0 0 0 .03.03z" id="path372" style="stroke-width:.114799"/><path class="cls-3" d="M18.02 17.915h-.007a1.937 1.938 0 0 1-.197-.247c-.103-.183-.153-.178.06-.757.214-.579 0-.872-.035-1.32a5.498 5.502 0 0 1 .048-.856 5.71 5.713 0 0 0 .08.74 4.635 4.638 0 0 1 .043.688c-.014 1.027-.147 1.002-.179 1.32a.597.597 0 0 0 .187.432z" id="path374" style="stroke-width:.114799"/><path class="cls-3" d="M17.957 14.212a24.68 24.68 0 0 0-.065.528 2.035 2.036 0 0 1 .065-.528z" id="path376" style="stroke-width:.114799"/><path class="cls-3" d="m17.824 23.34-.023.07c-1.634-.532-3.535-1.293-4.221-1.573-.01-.047-.018-.096-.028-.147l-.014-.088.045.02c.031.013.085.03.136.046a1.575 1.576 0 0 1 .169.059 1.377 1.378 0 0 0 .137.052l.094.032c.096.035.196.068.293.099.098.03.222.07.333.114a3.99 3.993 0 0 1 .43.201 3.635 3.637 0 0 0 .434.2l.279.097a5.38 5.383 0 0 1 .918.379c.054.03.11.06.165.088a6.083 6.086 0 0 0 .853.35z" id="path378" style="stroke-width:.114799"/><path class="cls-3" d="m17.516 20.098.16-.036a.934.935 0 0 1-.174.069 1.919 1.92 0 0 1-.396.08c.13-.042.27-.08.41-.113z" id="path380" style="stroke-width:.114799"/><path class="cls-3" d="m17.5 20.03.016.068a4.653 4.653 0 0 0-.41.114q-.097.01-.204.014h-.541c-.363 0-.734.035-1.092.067-.672.057-1.369.115-2.059-.007a2.207 2.208 0 0 0-.332-.035 5.256 5.26 0 0 0-.804.05l-.086.01h-.032a.663.664 0 0 0-.1.032c-.058.302.074.466.473.599l.05.017v.017h-.165c-.23-.041-.629-.558-.459-.74a.134.134 0 0 0 .115.065.098.098 0 0 0 .026 0 .133.133 0 0 0 .107-.124c.154.005.498.008.946.007a.125.125 0 0 0 .055.012h.023a.115.115 0 0 0 .033-.011c1.523-.012 4.063-.059 4.44-.155z" id="path382" style="stroke-width:.114799"/><path class="cls-4" d="M16.902 20.224q.107 0 .204-.014c-.371.115-.66.262-.675.42a.817.818 0 0 0 0 .092h-.095c-.106 0-.21 0-.322-.007a2.18 2.182 0 0 0-.754.057.71.71 0 0 1-.323.02h-.046c-.04 0-.086 0-.14-.008H14.573c-.46-.169-.791-.187-1.072.028-.141 0-.286 0-.43.009a2.12 2.121 0 0 0-.399.08 2.116 2.118 0 0 1-.282.064l-.05-.018c-.399-.132-.53-.296-.473-.598a.663.664 0 0 1 .1-.032H12l.086-.01a5.256 5.26 0 0 1 .803-.05 2.207 2.208 0 0 1 .333.035c.689.125 1.386.064 2.059.006.358-.032.729-.063 1.091-.066h.203c.1-.006.213-.005.327-.008z" id="path384" style="stroke-width:.114799"/><path class="cls-3" d="M16.614 19.763a1.165 1.166 0 0 1 .01.17.448.448 0 0 1-.072-.23 1.534 1.535 0 0 0-.1-.425c.022.064.05.13.077.196a1.13 1.131 0 0 1 .085.29z" id="path386" style="stroke-width:.114799"/><path class="cls-3" d="M16.439 20.876c.046.387.211.853.082.795-.24-.115-.459-.216-.668-.313h.025a1.484 1.485 0 0 1 .522.178c-.007-.042-.016-.2-.025-.244-.01-.045-.025-.115-.033-.171a.698.698 0 0 1-.008-.125c-.114 0-.23 0-.334-.007a1.957 1.958 0 0 0-.662.043c-.008 0-.015.038-.022.071-.144-.067-.278-.13-.404-.183z" id="path388" style="stroke-width:.114799"/><path class="cls-3" d="M16.456 19.28c-.102-.269-.241-.466-.242-.626 0-.23-.056-1.159-.115-1.302-.058-.144-.085-.392 0-1.114.085-.722.203-1.545.129-1.904-.05-.237-.152-.656-.215-.919a1.128 1.129 0 0 0 .09.247 1.58 1.581 0 0 1 .106.29v.026a5.146 5.15 0 0 1 .038 1.301l-.01.148c-.01.224-.04.448-.07.665a4.773 4.776 0 0 0-.062 1.078 2.031 2.033 0 0 0 .03.212 3.2 3.203 0 0 1 .082.792v.087a3.29 3.292 0 0 0 .065.475 3.629 3.631 0 0 0 .174.544z" id="path390" style="stroke-width:.114799"/><path class="cls-3" d="M16.428 20.722a1.194 1.194 0 0 0 .01.154l-1.526.043a5.555 5.555 0 0 0-.344-.14H14.746c.054 0 .101 0 .14.008h.046a.71.71 0 0 0 .324-.02 2.18 2.182 0 0 1 .754-.056c.114 0 .215.01.32.007z" id="path392" style="stroke-width:.114799"/><path class="cls-3" d="M16.184 11.308c-.115.036-.24.071-.36.105a3.672 3.675 0 0 1-.917.135c-.417 0-.836-.016-1.242-.038a14.208 14.217 0 0 0-1.517-.029l-.236.013c-.344.017-.688.037-1.032.063a14.08 14.08 0 0 0-.443.042 1.314 1.315 0 0 1-.324-.014l-.073-.01a1.254 1.255 0 0 0 .039.176 2.034 2.035 0 0 1 .064.315 1.176 1.177 0 0 0 .105.377 1.867 1.868 0 0 0 .511.1c.071.005.141.008.21.008h.286c.165 0 .096 0 .258-.01.238-.012.803.028 1.155.031.573.007 1.175.014 1.762.078a7.783 7.788 0 0 1 1.028.206l.083.02h.019l.114.027a.631.632 0 0 1 .092.028l.068.02.173.046c-.76-.202-1.566-.361-2.146-.333-.64.031-1.5.047-2.227.037a.13.13 0 0 0-.129-.086.133.133 0 0 0-.115.08 9.81 9.81 0 0 1-.854-.048v-.01a.134.134 0 0 0-.166-.092.13.13 0 0 0-.078.06c-.062-.015-.096-.035-.1-.056-.027-.182-.421-1.124-.18-1.13 0 0 2.544-.062 3.37-.01.825.052 1.452-.058 1.99 0a3.295 3.297 0 0 0 .812-.1Z" id="path394" style="stroke-width:.114799"/><path class="cls-3" d="M15.944 33.386a19.22 19.231 0 0 1-.608-2.756l-.076-.621a17.763 17.774 0 0 0-.33-1.905l-.045-.186a21.08 21.08 0 0 1-.313-1.399c-.03-.16-.057-.323-.08-.481a6.986 6.99 0 0 0-.259-1.19q-.029-.088-.055-.175a9.615 9.62 0 0 1-.215-.956l-.026-.135c-.048-.26-.107-.52-.162-.772a22.836 22.836 0 0 1-.084-.382 23.294 23.294 0 0 1-.097-.517.881.882 0 0 1-.115-.044c-.017-.008-.039-.015-.062-.023-.05-.017 0-.038-.01-.08l-.085-.036s-.013-.06-.029-.147c-.034-.043-.066-.08-.02-.099-.03-.165-.055-.359-.028-.397q-.08 0-.158.007a1.802 1.803 0 0 0-.345.071 1.894 1.895 0 0 1-.354.075.139.139 0 0 1-.05 0l-.084-.028a1.607 1.608 0 0 1-.3-.128.135.136 0 0 0-.017.114c.057.198.106.401.15.622.024.12.06.237.093.351l.012.044a2.777 2.779 0 0 1 .085.344 25.21 25.226 0 0 0 .595 2.553 16.042 16.052 0 0 1 .376 1.918c.055.367.124.738.192 1.096l.098.53.079.443.016.09c.126.708.257 1.44.38 2.16.116.682.315 1.394.471 1.965l.021.072.211.042.083.016.902.103-.015-.092v.017a.134.134 0 0 0 .128.098.145.145 0 0 0 .038-.006.134.134 0 0 0 .092-.176z" id="path396" style="stroke-width:.114799"/><path class="cls-5" d="M15.853 21.358a.168.168 0 0 0-.025 0 1.674 1.675 0 0 1-.528-.2s.012-.026.016-.052z" id="path398" style="stroke-width:.114799"/><path class="cls-3" d="M14.57 20.78c.106.039.22.085.345.139l-1.492.039a.124.124 0 0 0-.025-.058.986.986 0 0 1 .1-.088h.618c.08 0 .153-.01.223-.017.07-.008.149-.015.231-.015z" id="path400" style="stroke-width:.114799"/><path class="cls-4" d="M14.57 20.78c-.082 0-.167 0-.23.008a2.779 2.779 0 0 1-.222.017 5.442 5.442 0 0 1-.473 0H13.5c.28-.213.607-.194 1.071-.025z" id="path402" style="stroke-width:.114799"/><path class="cls-3" d="M13.58 21.837c0 .026.01.05.013.074a.881.882 0 0 1-.115-.044c-.017-.008-.04-.015-.062-.023-.05-.017 0-.038-.01-.08z" id="path404" style="stroke-width:.114799"/><path class="cls-3" d="m13.552 21.691.028.147-.179-.073a.059.059 0 0 0-.018-.032.281.281 0 0 1-.052-.083.294.294 0 0 0-.044-.068l-.017-.098a.099.099 0 0 1 .141.067.263.263 0 0 0 .086.04l.04.013z" id="path406" style="stroke-width:.114799"/><path class="cls-3" d="M13.533 21.577v.023l-.04-.014a.263.263 0 0 1-.086-.04.099.099 0 0 0-.141-.067c-.03-.165-.054-.36-.028-.397h.199c.02.124.052.306.087.498z" id="path408" style="stroke-width:.114799"/><path class="cls-3" d="M13.07 20.816c.143-.009.287-.01.429-.009a.986.986 0 0 0-.1.089.132.132 0 0 0-.129-.056.137.137 0 0 0-.115.124 58.45 58.45 0 0 1-.773.015v-.017a2.116 2.118 0 0 0 .282-.063 2.12 2.121 0 0 1 .405-.083z" id="path410" style="stroke-width:.114799"/><path class="cls-3" d="M13.443 21.072h-.198a1.27 1.271 0 0 1 .094-.114h.084z" id="path412" style="stroke-width:.114799"/><path class="cls-3" d="M13.43 20.953h-.084a.795.796 0 0 1 .058-.064.124.124 0 0 1 .026.064z" id="path414" style="stroke-width:.114799"/><path class="cls-3" d="M13.383 21.732a.059.059 0 0 1 .018.032l-.085-.036s-.013-.06-.029-.147a.294.294 0 0 1 .044.068.281.281 0 0 0 .052.083z" id="path416" style="stroke-width:.114799"/><path class="cls-3" d="M13.399 20.896a.795.796 0 0 0-.059.064h-.183a.137.137 0 0 1 .114-.124.132.132 0 0 1 .128.06z" id="path418" style="stroke-width:.114799"/><path class="cls-3" d="M13.34 20.96a1.27 1.271 0 0 0-.094.115q-.08 0-.158.007a1.802 1.803 0 0 0-.345.07 1.894 1.895 0 0 1-.354.075.139.139 0 0 1-.05 0l-.083-.027a1.607 1.608 0 0 1-.3-.129.133.133 0 0 1 .238.031l.97-.13v-.009z" id="path420" style="stroke-width:.114799"/><path class="cls-3" d="M13.27 21.482c0 .035.012.068.017.1-.034-.044-.066-.081-.02-.1z" id="path422" style="stroke-width:.114799"/><path class="cls-3" d="M13.157 20.965v.008l-.97.13a.133.133 0 0 0-.238-.03.677.678 0 0 1-.344-.804.204.204 0 0 1 .126-.162c0 .026.008.054.014.081a.138.138 0 0 0 .017.043c-.167.182.23.699.46.74h.163c.159.007.427.001.772-.007z" id="path424" style="stroke-width:.114799"/><path class="cls-3" d="M13.138 20.035a.133.133 0 0 1-.076.145h-.114a.137.137 0 0 1-.075-.088l.01.066-.88.01h-.026a.275.276 0 0 0-.222.063.138.138 0 0 1-.017-.043c0-.027-.01-.055-.014-.081a.731.731 0 0 1 .175-.061l.06-.012.088-.009a5.612 5.615 0 0 1 .839-.053c.083 0 .165.01.244.02z" id="path426" style="stroke-width:.114799"/><path class="cls-3" d="M13.062 20.18a.115.115 0 0 1-.033.012h-.023a.125.125 0 0 1-.055-.013z" id="path428" style="stroke-width:.114799"/><path class="cls-3" d="M13.005 19.342c.044.215.088.436.127.656-.079-.01-.16-.016-.244-.02a5.612 5.615 0 0 0-.839.053l-.087.01-.061.01a.731.731 0 0 0-.174.061c0-.03-.007-.062-.01-.091a1.394 1.395 0 0 0-.02-.144 44.499 44.499 0 0 0-.534-2.423c-.06-.237-.1-.479-.14-.712a12.888 12.888 0 0 0-.05-.292q-.135-.73-.266-1.465a21.946 21.946 0 0 1-.08-.466l-.017-.1a14.733 14.742 0 0 0-.344-1.684 2.552 2.554 0 0 0 .468.077c.077 0 .154.008.23.008h.31a.79.79 0 0 0 .206-.01.294.294 0 0 1 .108.01h.049a1.664 1.665 0 0 0 .083.355c.013.042.028.082.043.123.015.041.035.1.05.15a9.64 9.646 0 0 1 .275 1.132l.071.344c.024.115.06.265.09.395.066.29.135.59.18.895.097.689.23 1.386.367 2.059l.123.631c.026.146.052.294.086.438z" id="path430" style="stroke-width:.114799"/><path class="cls-3" d="M12.951 20.181c-.447 0-.792 0-.946-.007l.88-.01-.01-.066a.137.137 0 0 0 .076.083z" id="path432" style="stroke-width:.114799"/><path class="cls-3" d="M11.979 20.174h.026a.133.133 0 0 1-.106.124.098.098 0 0 1-.027 0 .134.134 0 0 1-.114-.065.275.276 0 0 1 .221-.059z" id="path434" style="stroke-width:.114799"/><path class="cls-3" d="M11.636 12.822h-.05a.294.294 0 0 0-.107-.01.79.79 0 0 1-.207.01h-.31c-.08 0-.154 0-.23-.007a2.552 2.554 0 0 1-.468-.077v-.01a.139.139 0 0 1 .014-.107 1.743 1.744 0 0 0 .248.041c0 .01 0 .02.008.031l.834.067a.124.124 0 0 1 .012-.05h.248a.148.148 0 0 1 .009.045.603.603 0 0 0-.001.067z" id="path436" style="stroke-width:.114799"/><path class="cls-3" d="M11.495 12.626a.13.13 0 0 1 .128.087h-.248a.133.133 0 0 1 .12-.087z" id="path438" style="stroke-width:.114799"/><path class="cls-3" d="M11.375 12.707a.124.124 0 0 0-.011.05l-.834-.067c0-.01 0-.021-.008-.031.214.025.513.04.853.048z" id="path440" style="stroke-width:.114799"/><path class="cls-3" d="M11.282 11.268c0 .026.01.05.012.07.002.02-.287 0-.33.01 0-.012 0-.026-.006-.042l-.836.115a.039.039 0 0 0 0-.012l-.13.016c0-.014-.008-.053-.014-.108a.406.407 0 0 0 .052 0 .552.552 0 0 0 .075-.009.251.251 0 0 0 .041 0h.027a.24.24 0 0 0 .114.01.678.679 0 0 0 .115 0h-.115l.505-.033a.402.402 0 0 0 .065 0c.032 0 .064-.008.096-.013h.149a.979.98 0 0 0 .13 0 .295.295 0 0 0 .05-.004z" id="path442" style="stroke-width:.114799"/><path class="cls-3" d="M11.282 11.268a.295.295 0 0 1-.045.007.979.98 0 0 1-.13 0h-.149c-.033 0-.065.01-.097.012a.402.402 0 0 1-.064 0l-.505.034h.115a.678.679 0 0 1-.115 0 .24.24 0 0 1-.115-.01h-.03a.251.251 0 0 1-.04 0 .552.552 0 0 1-.076.009.406.407 0 0 1-.052 0c-.032-.23-.094-.757-.1-.82-.006-.064-.04-.165-.23-.282-.436-.268-.852-.596-.937-1.174 0-.026-.008-.052-.013-.079-.037-.23-.08-.497.068-.717a1.417 1.418 0 0 1 1.515-.574 1.17 1.171 0 0 1 .86.754c.136.38.33.784.084 1.104-.02.026-.04.056-.06.088a1.148 1.148 0 0 1-.146.188.141.141 0 0 0-.038.15c.077.232.246.995.3 1.31zm-.51-1.552a.396.396 0 0 1 .024-.036.246.246 0 0 0-.023.036zm-.55-.574a.404.404 0 0 0 .205-.344.363.363 0 0 0-.009-.078.26.26 0 0 0-.028-.034.553.554 0 0 0-.359-.158H9.96a.077.077 0 0 0-.04.014c-.065.04-.127.087-.181.127a.334.334 0 0 0-.09.126.3.3 0 0 0 0 .288c.054.063.094.07.223.07h.156a1.323 1.324 0 0 0 .194-.016z" id="path444" style="stroke-width:.114799"/><path class="cls-3" d="M10.518 12.648v.01a1.743 1.744 0 0 1-.244-.039.13.13 0 0 1 .078-.06.134.134 0 0 1 .166.09z" id="path446" style="stroke-width:.114799"/><path class="cls-3" d="M10.26 12.724v.01a1.148 1.148 0 0 1-.144-.05c-.183-.082-.242-.504-.252-.587a1.739 1.74 0 0 0-.056-.276 1.157 1.158 0 0 1-.05-.393.134.134 0 0 1 .068-.115.194.194 0 0 1 .043-.018.406.407 0 0 0 .114.027l.015.108c-.24 0 .153.947.18 1.13 0 .02.038.04.1.056a.139.139 0 0 0-.018.108z" id="path448" style="stroke-width:.114799"/><path class="cls-3" d="M31.507 22.05a1.148 1.148 0 0 1 .065-.162v-.02a.016.016 0 0 0 0-.007c.257-.674.378-1.247.375-1.753a5.968 5.971 0 0 0-.063-.912 3.514 3.516 0 0 1 .037-.999c.073-.472-.157-.91-.345-1.263l-.02-.042c-.025-.044-.046-.088-.068-.13-.022-.043-.033-.07-.05-.104a5.997 5.997 0 0 0-.218-.424 3.163 3.165 0 0 1-.277-.606 3.718 3.72 0 0 0-.14-.356l-.04-.09a1.853 1.855 0 0 0-.458-.69.09.09 0 0 1-.007-.016.994.994 0 0 1-.023-.249v-.03a2.193 2.194 0 0 0-.193-.932 1.29 1.29 0 0 0-1.23-.775H28.288c-.257 0-.5.008-.816 0h-.014a.689.689 0 0 1-.074 0 .774.774 0 0 1-.223-.049c-.574-.258-1.047-.251-1.51-.244a4.556 4.559 0 0 1-.86-.043c-.015 0-.048-.006-.197-.023-.202-.021-.732-.08-.823-.098a3.138 3.14 0 0 1-.753-.4c-.16-.108-.314-.23-.478-.352l-.157-.115c-.5-.383-1.088-.59-1.598-.74a5.454 5.457 0 0 0-1.707-.218 6.826 6.83 0 0 0-.844.076 12.064 12.071 0 0 0-1.794.46h-.017c-.24.073-.488.148-.73.216a3.143 3.145 0 0 1-.804.115c-.393 0-.803-.015-1.192-.037h-.023a14.67 14.68 0 0 0-1.56-.027l-.23.012-.24.01c-.092 0-.16 0-.33.019h-.032l-.03.011h-.037a.708.709 0 0 1-.1 0h-.158l-.044.007a.542.542 0 0 1-.062.008.139.139 0 0 1-.03 0h-.018l-.551.038-.019-.012h-.166a.207.207 0 0 1-.043 0 .153.153 0 0 1-.022 0 .267.268 0 0 1-.057-.014l-.065-.025-.068.018a.426.426 0 0 0-.09.036.356.356 0 0 0-.178.296 1.4 1.401 0 0 0 .062.46 1.54 1.541 0 0 1 .05.243c.026.23.115.642.38.761a1.469 1.47 0 0 0 .173.06 2.789 2.79 0 0 0 .51.085c.082 0 .165.009.248.009H11.326a.634.634 0 0 0 .188-.012.418.418 0 0 0 .07.01h.046c.327.015.655.018.975.023h.053c.565.005 1.148.012 1.715.074a7.603 7.608 0 0 1 .965.194l.046.012.02.02h.06l.066.019a1.287 1.287 0 0 0 .139.479 1.126 1.127 0 0 1 .074.194v.015a4.76 4.763 0 0 1 .029 1.181l-.008.15a8.11 8.11 0 0 1-.067.625 5.138 5.141 0 0 0-.065 1.189 2.575 2.577 0 0 0 .038.258 2.901 2.903 0 0 1 .073.677 1.174 1.175 0 0 0 0 .14 3.647 3.65 0 0 0 .074.545 4.402 4.405 0 0 0 .268.828.542.542 0 0 1 .028.08c-.3.011-.597.036-.886.061-.64.057-1.302.115-1.928 0-.037-.005-.086-.014-.136-.02a2.923 2.923 0 0 0-.264-.022 5.838 5.842 0 0 0-.872.054l-.085.01a.631.632 0 0 0-.087.015.918.919 0 0 0-.23.08.414.415 0 0 0-.24.322.886.887 0 0 0 .46 1.02 1.76 1.762 0 0 0 .344.147l.085.027a.344.345 0 0 0 .135.015 2.162 2.163 0 0 0 .386-.079h.014a1.681 1.682 0 0 1 .302-.064h.03l-.08.03v.069a.158.158 0 0 0-.017.045.29.29 0 0 0 .078.266s.012.014.015.02a.473.473 0 0 0 .04.075.23.23 0 0 0 .019.105.246.246 0 0 0 .15.133h.015l.025.009c.046.02.095.037.145.054l.051.016c.078.024.105.034.108.036a1.736 1.737 0 0 0 .188.07l.078.028c.107.04.214.074.314.106s.209.067.307.105a3.918 3.92 0 0 1 .381.179 4.224 4.227 0 0 0 .492.23c.106.037.21.073.288.098h.017a4.956 4.959 0 0 1 .822.338c.057.032.114.064.18.096a7.408 7.413 0 0 0 1.566.574c.246.064.493.115.735.153a5.63 5.634 0 0 0 1.334.064h.028a15.191 15.2 0 0 1 1.52 0c.259.008.533.015.791.016h.03c.169 0 .327 0 .473-.008.146-.008.33 0 .518 0h.007a6.476 6.48 0 0 0 .716 0 1.355 1.356 0 0 1 .288 0 4.09 4.092 0 0 0 .665 0c.142-.008.329 0 .509 0h.033c.207.006.422.012.604 0a2.143 2.144 0 0 1 .337 0c.069 0 .15.01.238.01a2.122 2.123 0 0 0 .277-.016 5.758 5.761 0 0 0 .658-.115l.208-.05.127-.03a1.847 1.848 0 0 0 .318-.13l.071-.003.028-.012a4.641 4.644 0 0 0 .442-.222h.006c.087-.048.177-.098.278-.147.03-.015.064-.03.1-.045a1.517 1.518 0 0 1 .363-.096 1.607 1.608 0 0 0 .77-.311 1.408 1.409 0 0 0 .273-.277 3.48 3.483 0 0 0 .43-.705zm-.991.266a.803.804 0 0 1-.606.332 2.156 2.158 0 0 0-.52.14l-.134.06c-.115.058-.216.116-.314.167-.122.067-.237.131-.38.193l-.076.034-.042.02a3.93 3.93 0 0 1-.184.08l-.077.018-.246.059a5.522 5.526 0 0 1-.585.107 1.43 1.43 0 0 1-.18.012c-.065 0-.127 0-.201-.01a2.338 2.338 0 0 0-.272-.01h-.16c-.151.008-.344 0-.54 0h-.016a6.151 6.151 0 0 0-.583 0 3.213 3.215 0 0 1-.574 0 2.02 2.021 0 0 0-.4 0 6.365 6.365 0 0 1-.63 0h-.028c-.192 0-.39-.012-.574 0-.364.015-.804 0-1.24-.011a15.574 15.583 0 0 0-1.625.007 4.978 4.982 0 0 1-1.17-.059 7.201 7.201 0 0 1-.668-.139 9.927 9.927 0 0 1-.6-.174 5.775 5.778 0 0 1-.821-.345c-.056-.028-.115-.057-.16-.085a5.532 5.535 0 0 0-.954-.395c-.092-.03-.184-.062-.277-.095a3.493 3.496 0 0 1-.406-.188h-.006a4.095 4.097 0 0 0-.446-.208 4.032 4.032 0 0 0-.345-.115l-.013-.02c-.089-.028-.18-.057-.267-.09l-.098-.034h-.014c-.038-.012-.076-.025-.103-.038a1.56 1.56 0 0 0-.193-.068l-.02-.007a1.145 1.145 0 0 1-.09-.03.533.533 0 0 0-.059-.024l-.037-.014h-.013a.311.311 0 0 0-.097-.086h.665c.098 0 .18-.012.254-.02.052-.007.155-.005.23-.005a.383.384 0 0 0 .053.032c.056.039.172.115.323.195a2.214 2.215 0 0 0 .77.288H15.801c.202.029.367.058.486.156l.017.013.027.017.015.008.015.008.046.024h.034a.344.345 0 0 0 .07.007.373.373 0 0 0 .088-.011l.026-.008-.075-.206.065.167v.009l.011.027a.403.403 0 0 0 .055-.025h.035l.065-.085.03-.046.034-.043v-.04a1.055 1.055 0 0 0-.009-.56h.036c.23 0 .464-.01.699-.017.266-.01.534-.023.795-.036h.072c.364-.017.74-.035 1.11-.04.22 0 .417 0 .604.007a13.313 13.32 0 0 1 2.083.21 10.818 10.824 0 0 0 2.1.24 11.67 11.676 0 0 1 1.263.057 7.563 7.568 0 0 1 1.042.22 4.59 4.593 0 0 1 .582.214h.01c.203.083.459.19.803.31.015 0 .046.018.079.032a1.936 1.937 0 0 0 .689.187 2.71 2.712 0 0 0 1.019-.181l.024-.01a1.156 1.156 0 0 1 .278-.078 2.805 2.807 0 0 1 .402-.026zm.62-.7v.174l-.017.037-.192.017c-.084.008-.183.008-.287.01a3.83 3.832 0 0 0-.574.032 1.626 1.627 0 0 0-.378.106h-.007a2.286 2.288 0 0 1-.873.159 1.67 1.67 0 0 1-.526-.155c-.042-.019-.076-.034-.105-.043-.332-.115-.574-.218-.776-.3h-.01a4.802 4.805 0 0 0-.636-.23 7.724 7.728 0 0 0-1.103-.229 12.08 12.087 0 0 0-1.31-.06 10.432 10.438 0 0 1-2.02-.23 13.772 13.78 0 0 0-2.15-.216 11.745 11.745 0 0 0-.459-.008h-.166c-.38 0-.759.023-1.126.04h-.074c-.258.013-.525.026-.787.034l-.695.019-.47.011-.008.204a.846.846 0 0 0 0 .114v.078l.016.015.019.093a1.39 1.392 0 0 1 .036.244 1.542 1.543 0 0 0-.595-.172H15.82a1.849 1.85 0 0 1-.608-.237 3.898 3.898 0 0 1-.284-.17l-.055-.045h-.013l-.015-.011-.059-.048h-.076a3.258 3.26 0 0 0-.363.006 4.099 4.099 0 0 1-.23.018c-.15.007-.303 0-.452 0h-.426l-.169.007a1.86 1.86 0 0 0-.382.077h-.014a1.979 1.98 0 0 1-.298.065l-.06-.02a1.377 1.378 0 0 1-.26-.115c-.23-.13-.3-.3-.245-.564v-.01l.015-.009a.519.52 0 0 1 .115-.04l.038-.007.087-.01a5.387 5.39 0 0 1 .804-.05 2.168 2.17 0 0 1 .23.018c.04 0 .082.011.114.017.682.124 1.377.064 2.042.006l-.02-.217.024.217c.358-.031.729-.064 1.093-.066h.213v-.215a1.148 1.148 0 0 0-.01-.184 1.07 1.071 0 0 0-.077-.28 4.036 4.039 0 0 1-.243-.748 3.236 3.238 0 0 1-.065-.481.677.678 0 0 1 0-.093 3.198 3.2 0 0 0-.081-.781 2.22 2.22 0 0 1-.031-.216 4.813 4.816 0 0 1 .063-1.09c.028-.203.057-.434.07-.66l.008-.148a5.136 5.139 0 0 0-.037-1.29v-.025a1.41 1.411 0 0 0-.103-.278.844.844 0 0 1-.102-.356.322.323 0 0 0-.201-.33l-.029-.011-.13-.036-.023-.023h-.062l-.076-.018a7.998 8.003 0 0 0-1.022-.206c-.588-.063-1.183-.07-1.758-.075h-.054a20.9 20.9 0 0 1-.961-.022h-.044a.344.345 0 0 0-.18 0 .196.196 0 0 1-.07 0 .803.804 0 0 0-.093 0h-.292c-.072 0-.144 0-.214-.007a2.348 2.35 0 0 1-.424-.07.853.853 0 0 1-.115-.038.88.88 0 0 1-.128-.416 1.938 1.94 0 0 0-.063-.306 1.148 1.148 0 0 1-.045-.222h.06a.527.527 0 0 0 .078-.008h.016a.413.413 0 0 0 .16.014.767.767 0 0 0 .137 0v-.006l.368-.025a.596.596 0 0 0 .079 0c.04 0 .076-.008.114-.013h.019l.077-.006h.022a1.189 1.19 0 0 0 .155 0 .652.652 0 0 0 .075-.011l.037-.01c.143-.01.204-.013.288-.016l.245-.01.23-.013a14.473 14.482 0 0 1 1.515.027h.023c.4.022.813.044 1.222.038a3.672 3.675 0 0 0 .907-.134c.249-.07.499-.147.742-.222h.017a11.762 11.77 0 0 1 1.731-.442 6.363 6.366 0 0 1 .79-.071 5.02 5.024 0 0 1 1.579.185c.471.14 1.013.328 1.456.667l.157.115c.17.128.329.25.496.366a3.558 3.56 0 0 0 .864.452c.05.019.159.036.912.115l.173.02a4.91 4.914 0 0 0 .94.05c.45-.009.84-.014 1.32.204a1.148 1.148 0 0 0 .363.086l.108.007h.006c.328.014.574.01.839.005h.007c.166 0 .338-.005.547 0a.862.862 0 0 1 .841.53 1.766 1.767 0 0 1 .148.75v.036a1.212 1.213 0 0 0 .046.383.466.466 0 0 0 .115.19 1.406 1.407 0 0 1 .362.545l.043.098c.035.08.078.178.123.314a3.697 3.699 0 0 0 .31.682v.006c.071.13.136.248.203.392.017.04.036.078.056.115l.07.136.024.045c.17.326.345.663.295.994a3.943 3.946 0 0 0-.038 1.122 5.421 5.425 0 0 1 .059.859 4.33 4.333 0 0 1-.312 1.504z" id="path450" style="stroke-width:.114799"/><path class="cls-3" d="M13.13 21.732Z" id="path452" style="stroke-width:.114799"/><path class="cls-3" d="M12.397 21.018Z" id="path454" style="stroke-width:.114799"/><path class="cls-3" d="M23.775 12.018Z" id="path456" style="stroke-width:.114799"/><path class="cls-3" d="M10.261 11.115Z" id="path458" style="stroke-width:.114799"/><path class="cls-3" d="M10.282 11.114Z" id="path460" style="stroke-width:.114799"/><path class="cls-3" d="M16.742 20.174h-.328v-.24a.957.958 0 0 0-.01-.139.928.929 0 0 0-.064-.237 4.845 4.845 0 0 1-.083-.205 3.938 3.94 0 0 1-.17-.574 3.421 3.423 0 0 1-.068-.505.878.878 0 0 1 0-.115 2.975 2.977 0 0 0-.08-.74 2.898 2.898 0 0 1-.032-.23 4.847 4.85 0 0 1 .062-1.121v-.003c.03-.215.058-.435.07-.648l.008-.157a4.959 4.962 0 0 0-.034-1.24V14a1.396 1.396 0 0 0-.088-.241v-.008a1.436 1.437 0 0 1-.105-.292.814.814 0 0 1-.011-.133v-.017l-.01-.244h.263l.085.022.25.063c.263.068.536.138.803.192.23.045.54.107.85.19l.23.06-.077.22a4.187 4.19 0 0 0-.19.805 3.54 3.543 0 0 0 .049 1.19 4.132 4.134 0 0 1 .07.645 1.25 1.252 0 0 1-.18.754c-.126.206-.138.29-.107.369l.043.038.012.058a1.741 1.742 0 0 0 .115.14.209.209 0 0 0 .016.015l.036.037c.357.38.384.53.174 1.005l-.105.24c-.109.248-.222.505-.337.755a.426.426 0 0 1-.306.215 2.142 2.143 0 0 1-.583.088c-.06.007-.11.008-.168.008zm-.427-6.585a1.73 1.73 0 0 1 .115.312v.031a5.267 5.27 0 0 1 .042 1.347l-.01.159a8.44 8.44 0 0 1-.071.677v.01a4.597 4.6 0 0 0-.061 1.022c.007.065.016.129.027.192a3.415 3.417 0 0 1 .086.843.591.591 0 0 0 0 .064 2.73 2.732 0 0 0 .06.441 3.358 3.36 0 0 0 .152.511c.02.054.044.115.075.188a1.385 1.386 0 0 1 .096.344v.01h.055a1.702 1.703 0 0 0 .467-.07l.058-.02c.107-.229.214-.476.317-.71l.104-.24a.848.849 0 0 0 .096-.288.853.853 0 0 0-.186-.24l-.028-.028-.03-.032a1.836 1.837 0 0 1-.167-.2.472.472 0 0 1-.031-.06.353.354 0 0 1-.04-.066c-.145-.31-.01-.574.125-.795a.825.826 0 0 0 .115-.506 3.643 3.645 0 0 0-.062-.574 3.985 3.987 0 0 1-.054-1.337 4.35 4.353 0 0 1 .138-.664c-.22-.053-.43-.094-.6-.127-.266-.061-.531-.13-.788-.194zm1.523 4.006zm-1.884-4.097zm.115-.421z" id="path462" style="stroke-width:.114799"/><path class="cls-3" d="m16.682 21.947-.383-.219a1.262 1.263 0 0 0-.446-.151l-.04-.006a1.816 1.817 0 0 1-.608-.223l-.474-.248.397-.115a.23.23 0 0 1 .15-.158 2.156 2.158 0 0 1 .737-.053c.1 0 .211.01.318.007l.23-.008-.007.23a.085.085 0 0 0 0 .024l.008.009v.073c.007.045.017.093.027.142.01.048.013.088.02.172a.57.57 0 0 0 .008.082z" id="path464" style="stroke-width:.114799"/><path class="cls-3" d="M28.808 22.315a1.676 1.677 0 0 1-.585-.164l-.025-.01a1.117 1.117 0 0 0-.074-.03c-.344-.115-.58-.219-.792-.306a4.727 4.73 0 0 0-.616-.23 7.581 7.586 0 0 0-1.079-.23 11.42 11.426 0 0 0-1.292-.058 8.928 8.933 0 0 1-.964-.06 12.888 12.888 0 0 1-1.086-.176 13.752 13.76 0 0 0-2.125-.214c-.586-.023-1.186.007-1.765.034h-.026c-.26.014-.539.028-.81.036l-.556.015-.282.007-.285.007h-.102c-.108 0-.214 0-.325-.007h-.012a1.972 1.973 0 0 0-.678.046.935.936 0 0 1-.409.029h-.047c-.03 0-.073-.006-.121-.006h-.176c-.068 0-.151 0-.204.007-.078.009-.156.015-.239.018-.154.007-.309 0-.459 0H13.5c-.17 0-.297 0-.416.008a1.915 1.917 0 0 0-.344.072h-.01a2.174 2.175 0 0 1-.315.07l-.045.005-.042-.014-.047-.015h-.01c-.315-.104-.721-.305-.618-.845l.022-.115.104-.046a.718.719 0 0 1 .141-.046h.01l.048-.008.075-.005a5.483 5.487 0 0 1 .833-.052 2.472 2.474 0 0 1 .361.038c.663.115 1.344.06 2.002 0 .344-.03.732-.064 1.11-.067h.534c.067 0 .129 0 .188-.012a1.648 1.649 0 0 0 .354-.07.792.792 0 0 0 .133-.05.153.153 0 0 0 .068-.073c.121-.265.24-.536.355-.798l.085-.197c.182-.41.168-.496-.142-.824l-.02-.022-.03-.03a1.552 1.553 0 0 1-.136-.16l-.048-.043-.015-.066a.358.358 0 0 1-.031-.196.887.888 0 0 1 .145-.336 1.073 1.074 0 0 0 .155-.66 3.848 3.85 0 0 0-.067-.619 3.42 3.422 0 0 1-.057-.344 3.661 3.663 0 0 1 .006-.897 4.313 4.315 0 0 1 .202-.85l.014-.038a12.376 12.376 0 0 0-.893-.202 14.43 14.43 0 0 1-.82-.193l-.084-.021-.23-.058-.086-.023-.173-.047-.093-.027a.503.503 0 0 0-.06-.019l-.28-.069a7.526 7.53 0 0 0-.936-.185c-.582-.063-1.172-.07-1.742-.075-.15 0-.344-.01-.522-.018-.242-.01-.493-.021-.62-.016l-.103.007h-.449c-.074 0-.15 0-.23-.008a2.066 2.067 0 0 1-.573-.115l-.056-.03-.035-.048a1.355 1.356 0 0 1-.148-.48 1.843 1.844 0 0 0-.058-.283 1.424 1.425 0 0 1-.044-.208l-.032-.244h.336l.014.014a1.09 1.09 0 0 0 .27.013c.147-.016.299-.03.45-.042.338-.026.689-.044 1.04-.063l.23-.012a14.597 14.606 0 0 1 1.54.027c.378.02.803.044 1.227.038a3.409 3.41 0 0 0 .864-.127c.115-.034.238-.068.354-.104l.385-.115.03-.009c.459-.14.925-.286 1.408-.383.115-.024.23-.043.332-.06a5.542 5.545 0 0 1 2.444.134 6.82 6.825 0 0 1 .755.264 3.42 3.422 0 0 1 .756.425l.106.082c.286.22.968.625 1.377.867l.206.122.194-.048a.844.844 0 0 1 .45-.011c.032.007.068.011.105.018l.087.014a4.775 4.778 0 0 0 .894.047h.013a4.573 4.576 0 0 1 .72.025 2.4 2.402 0 0 1 .675.195 1.132 1.132 0 0 0 .404.077c.334.016.593.011.842.006.135 0 .322-.005.55 0a1.009 1.01 0 0 1 .912.484 1.503 1.504 0 0 1 .079.141 1.919 1.92 0 0 1 .164.819v.033c0 .166.006.354.115.46a1.47 1.471 0 0 1 .328.44c.025.051.048.103.072.16l.032.072.01.025a3.187 3.189 0 0 1 .13.328 3.328 3.33 0 0 0 .297.652v.008c.064.115.136.247.208.404.042.091.09.184.142.282v.007c.174.334.374.713.313 1.099a3.787 3.79 0 0 0-.037 1.075 5.518 5.521 0 0 1 .06.88 2.656 2.657 0 0 1-.012.285 5.096 5.099 0 0 1-.344 1.378v.045l-.045.05a.387.387 0 0 1-.264.131 1.525 1.526 0 0 1-.198.016h-.16c-.268 0-.604 0-.89.129h-.01a2.45 2.452 0 0 1-.926.164zm-9.09-1.918c.156 0 .31 0 .466.008a13.929 13.937 0 0 1 2.193.222c.38.077.723.132 1.05.17a8.347 8.352 0 0 0 .918.057 12.143 12.15 0 0 1 1.342.062 7.919 7.924 0 0 1 1.138.24 5.016 5.02 0 0 1 .672.243c.207.085.44.181.766.296.029.009.062.023.101.039l.023.01a1.616 1.617 0 0 0 .418.133h.003a2.027 2.028 0 0 0 .766-.134c.367-.16.767-.16 1.061-.162h.164a1.236 1.237 0 0 0 .129-.008 4.58 4.582 0 0 0 .304-1.215 2.92 2.92 0 0 0 .01-.244 5.143 5.146 0 0 0-.056-.827 4.215 4.218 0 0 1 .038-1.198c.038-.245-.115-.542-.269-.83v-.007a6.15 6.15 0 0 1-.15-.302c-.065-.143-.13-.26-.194-.376v-.008a3.916 3.918 0 0 1-.33-.727 2.746 2.748 0 0 0-.114-.284l-.012-.027a2.409 2.409 0 0 1-.035-.079 1.773 1.773 0 0 0-.061-.137 1.046 1.046 0 0 0-.236-.317c-.241-.23-.246-.55-.25-.763v-.029a1.53 1.53 0 0 0-.121-.636 1.148 1.148 0 0 0-.055-.1.574.574 0 0 0-.548-.28h-.539c-.256 0-.521.008-.868-.007a1.598 1.598 0 0 1-.573-.115 1.925 1.926 0 0 0-.556-.16 4.378 4.38 0 0 0-.654-.021h-.014a5.84 5.843 0 0 1-.75-.023c.014.015.03.028.047.042a3.405 3.407 0 0 0 .565.45l.409.23a.352.353 0 1 1-.337.619l-.329-.183-.081-.043a3.763 3.765 0 0 1-.646-.51 5.21 5.212 0 0 0-.4-.344l-.07-.05a2.535 2.537 0 0 1-.256-.2 6.97 6.97 0 0 0-.32-.194c-.444-.263-1.112-.66-1.418-.896l-.106-.081a3.04 3.042 0 0 0-.662-.376 6.771 6.775 0 0 0-.708-.248 5.104 5.107 0 0 0-2.247-.115c-.1.015-.202.034-.311.056a14.012 14.02 0 0 0-1.366.373l-.03.009-.388.115c-.114.035-.24.071-.362.105a3.918 3.92 0 0 1-.976.144c-.432.006-.87-.017-1.257-.04a14.064 14.073 0 0 0-1.491-.027l-.23.013a40.01 40.01 0 0 0-1.033.062 12.76 12.76 0 0 0-.436.041 1.18 1.182 0 0 1-.141 0 2.104 2.105 0 0 1 .038.219 1.394 1.395 0 0 0 .05.23 1.944 1.945 0 0 0 .367.058c.067 0 .132.007.193.007h.286a1.237 1.238 0 0 0 .132 0l.115-.007c.148-.007.396 0 .659.016.18.007.365.015.508.017.58.006 1.182.013 1.785.078a8.034 8.038 0 0 1 1.047.211l.09.022h.19v.047l.057.02.057.016.174.047.076.02.23.058.083.022c.262.068.533.137.795.188.261.052.64.128 1.005.23.085.024.16.047.23.07l.02.007a.997.998 0 0 1 .498.338.355.355 0 0 1-.017.5.344.345 0 0 1-.24.093.344.345 0 0 1-.257-.115 1.148 1.148 0 0 0-.103-.102 3.705 3.707 0 0 0-.115.547 3.256 3.258 0 0 0 0 .791c.012.102.029.206.05.309a4.227 4.23 0 0 1 .076.689 1.52 1.522 0 0 1-.219.91.88.88 0 0 0-.077.145v.007a1.109 1.11 0 0 0 .106.125l.009.01h.007l.038.04c.429.459.475.723.222 1.296l-.085.193c-.114.267-.236.539-.359.804a.58.581 0 0 1-.25.27 1.064 1.065 0 0 1-.213.086 2.136 2.137 0 0 1-.442.09c-.07.006-.141.011-.218.013H16.368c-.36 0-.74.036-1.075.066-.24.02-.48.041-.725.054h.19c.063 0 .114 0 .156.008l.048.005a.53.53 0 0 0 .236-.011 2.352 2.353 0 0 1 .828-.066h.012c.103 0 .2.01.293.007h.105l.285-.007h.281l.553-.014c.268-.008.543-.022.804-.036h.025c.432-.015.881-.037 1.331-.037zm-7.647.122c.02.072.099.141.333.22.063-.012.135-.032.2-.049h.01a2.285 2.286 0 0 1 .44-.087c.132-.01.27-.012.45-.01h.605c.072 0 .139-.007.205-.015a5.495 5.498 0 0 1-1.147-.075 2.099 2.1 0 0 0-.3-.031 5.164 5.168 0 0 0-.766.05z" id="path466" style="stroke-width:.114799"/><path class="cls-3" d="M25.789 13.817Z" id="path468" style="stroke-width:.114799"/><path class="cls-3" d="M23.788 12.866Z" id="path470" style="stroke-width:.114799"/></g><g id="Group-14" transform="matrix(.10417 0 0 .1087 -.015 21.926)" style="fill:none;fill-rule:evenodd;stroke:none;stroke-width:1;opacity:.7"><path d="m73.143 13.684 16-13 14 6.5 4 17.5h20l4 6-4 22 17 13-1 10-17 11 7 22-7 8h-19l-5.944 20.148c-6 1.235-9.333 1.852-10 1.852-.666 0-7.019-3.334-19.056-10l-15 10-13-4c-3.925-10.47-6.24-16.086-6.944-16.852-.704-.765-7.704-1.148-21-1.148l-5.056-8 6-23.852-17-10.148 2-11 16-10-7-21 8-9 20 2 7-22 12-2z" id="Path-2" fill="#20b7eb"/><g id="Group" transform="translate(42.143 44.384)" fill-rule="nonzero" fill="#fff"><path d="M19.51 44.654c3.36-4.897 6.517-9.49 9.823-14.16 1.437-2.03 4.109-4.745 5.598-6.605C37.55 20.624 50.863 3.445 53.566.636c0 0 12.703 7.12 12 8-4 5-22.821 32.811-27 38-1.132 1.406-2.465 2.406-4 3l6 2" id="Shape"/><path d="M23.46 20.184c.852.532 4.03 14.31 4.984 18.444 1.09 4.722 2.348 8.898 3.818 16.535 0 0-1.76.93-9.328 3.605-1.116.394-4.134.954-4.134.954s-2.427-7.353-2.757-8.797C14.74 45.3 10.12 28.41 8.833 22.835c-.318-1.377 13.78-3.18 14.627-2.65Z" id="path643" transform="rotate(-32 20.545 39.906)"/></g></g></g></svg>